%TF.GenerationSoftware,KiCad,Pcbnew,7.0.9*%
%TF.CreationDate,2024-03-22T15:25:39+00:00*%
%TF.ProjectId,rosco_m68k,726f7363-6f5f-46d3-9638-6b2e6b696361,2.2*%
%TF.SameCoordinates,Original*%
%TF.FileFunction,Copper,L4,Bot*%
%TF.FilePolarity,Positive*%
%FSLAX46Y46*%
G04 Gerber Fmt 4.6, Leading zero omitted, Abs format (unit mm)*
G04 Created by KiCad (PCBNEW 7.0.9) date 2024-03-22 15:25:39*
%MOMM*%
%LPD*%
G01*
G04 APERTURE LIST*
G04 Aperture macros list*
%AMRoundRect*
0 Rectangle with rounded corners*
0 $1 Rounding radius*
0 $2 $3 $4 $5 $6 $7 $8 $9 X,Y pos of 4 corners*
0 Add a 4 corners polygon primitive as box body*
4,1,4,$2,$3,$4,$5,$6,$7,$8,$9,$2,$3,0*
0 Add four circle primitives for the rounded corners*
1,1,$1+$1,$2,$3*
1,1,$1+$1,$4,$5*
1,1,$1+$1,$6,$7*
1,1,$1+$1,$8,$9*
0 Add four rect primitives between the rounded corners*
20,1,$1+$1,$2,$3,$4,$5,0*
20,1,$1+$1,$4,$5,$6,$7,0*
20,1,$1+$1,$6,$7,$8,$9,0*
20,1,$1+$1,$8,$9,$2,$3,0*%
%AMFreePoly0*
4,1,19,0.500000,-0.750000,0.000000,-0.750000,0.000000,-0.744911,-0.071157,-0.744911,-0.207708,-0.704816,-0.327430,-0.627875,-0.420627,-0.520320,-0.479746,-0.390866,-0.500000,-0.250000,-0.500000,0.250000,-0.479746,0.390866,-0.420627,0.520320,-0.327430,0.627875,-0.207708,0.704816,-0.071157,0.744911,0.000000,0.744911,0.000000,0.750000,0.500000,0.750000,0.500000,-0.750000,0.500000,-0.750000,
$1*%
%AMFreePoly1*
4,1,19,0.000000,0.744911,0.071157,0.744911,0.207708,0.704816,0.327430,0.627875,0.420627,0.520320,0.479746,0.390866,0.500000,0.250000,0.500000,-0.250000,0.479746,-0.390866,0.420627,-0.520320,0.327430,-0.627875,0.207708,-0.704816,0.071157,-0.744911,0.000000,-0.744911,0.000000,-0.750000,-0.500000,-0.750000,-0.500000,0.750000,0.000000,0.750000,0.000000,0.744911,0.000000,0.744911,
$1*%
G04 Aperture macros list end*
%TA.AperFunction,ComponentPad*%
%ADD10C,6.400000*%
%TD*%
%TA.AperFunction,ComponentPad*%
%ADD11O,1.524000X3.048000*%
%TD*%
%TA.AperFunction,ComponentPad*%
%ADD12C,1.600200*%
%TD*%
%TA.AperFunction,ComponentPad*%
%ADD13R,1.422400X1.422400*%
%TD*%
%TA.AperFunction,ComponentPad*%
%ADD14C,1.422400*%
%TD*%
%TA.AperFunction,ComponentPad*%
%ADD15R,2.400000X1.600000*%
%TD*%
%TA.AperFunction,ComponentPad*%
%ADD16O,2.400000X1.600000*%
%TD*%
%TA.AperFunction,ComponentPad*%
%ADD17O,3.048000X1.524000*%
%TD*%
%TA.AperFunction,ComponentPad*%
%ADD18C,1.320800*%
%TD*%
%TA.AperFunction,ComponentPad*%
%ADD19C,1.500000*%
%TD*%
%TA.AperFunction,ComponentPad*%
%ADD20R,1.600000X1.600000*%
%TD*%
%TA.AperFunction,ComponentPad*%
%ADD21C,1.600000*%
%TD*%
%TA.AperFunction,ComponentPad*%
%ADD22R,1.700000X1.700000*%
%TD*%
%TA.AperFunction,ComponentPad*%
%ADD23O,1.700000X1.700000*%
%TD*%
%TA.AperFunction,ComponentPad*%
%ADD24R,1.600000X2.400000*%
%TD*%
%TA.AperFunction,ComponentPad*%
%ADD25O,1.600000X2.400000*%
%TD*%
%TA.AperFunction,ComponentPad*%
%ADD26O,1.320800X2.641600*%
%TD*%
%TA.AperFunction,ComponentPad*%
%ADD27R,3.500000X3.500000*%
%TD*%
%TA.AperFunction,ComponentPad*%
%ADD28RoundRect,0.750000X1.000000X-0.750000X1.000000X0.750000X-1.000000X0.750000X-1.000000X-0.750000X0*%
%TD*%
%TA.AperFunction,ComponentPad*%
%ADD29RoundRect,0.875000X0.875000X-0.875000X0.875000X0.875000X-0.875000X0.875000X-0.875000X-0.875000X0*%
%TD*%
%TA.AperFunction,SMDPad,CuDef*%
%ADD30RoundRect,0.200000X0.275000X-0.200000X0.275000X0.200000X-0.275000X0.200000X-0.275000X-0.200000X0*%
%TD*%
%TA.AperFunction,SMDPad,CuDef*%
%ADD31RoundRect,0.225000X-0.250000X0.225000X-0.250000X-0.225000X0.250000X-0.225000X0.250000X0.225000X0*%
%TD*%
%TA.AperFunction,SMDPad,CuDef*%
%ADD32RoundRect,0.225000X0.225000X0.250000X-0.225000X0.250000X-0.225000X-0.250000X0.225000X-0.250000X0*%
%TD*%
%TA.AperFunction,SMDPad,CuDef*%
%ADD33RoundRect,0.200000X0.200000X0.275000X-0.200000X0.275000X-0.200000X-0.275000X0.200000X-0.275000X0*%
%TD*%
%TA.AperFunction,SMDPad,CuDef*%
%ADD34RoundRect,0.225000X0.250000X-0.225000X0.250000X0.225000X-0.250000X0.225000X-0.250000X-0.225000X0*%
%TD*%
%TA.AperFunction,SMDPad,CuDef*%
%ADD35RoundRect,0.200000X-0.275000X0.200000X-0.275000X-0.200000X0.275000X-0.200000X0.275000X0.200000X0*%
%TD*%
%TA.AperFunction,SMDPad,CuDef*%
%ADD36RoundRect,0.200000X-0.200000X-0.275000X0.200000X-0.275000X0.200000X0.275000X-0.200000X0.275000X0*%
%TD*%
%TA.AperFunction,SMDPad,CuDef*%
%ADD37RoundRect,0.225000X-0.225000X-0.250000X0.225000X-0.250000X0.225000X0.250000X-0.225000X0.250000X0*%
%TD*%
%TA.AperFunction,SMDPad,CuDef*%
%ADD38R,1.160000X0.600000*%
%TD*%
%TA.AperFunction,SMDPad,CuDef*%
%ADD39R,1.160000X0.300000*%
%TD*%
%TA.AperFunction,ComponentPad*%
%ADD40O,1.700000X0.900000*%
%TD*%
%TA.AperFunction,ComponentPad*%
%ADD41O,2.000000X0.900000*%
%TD*%
%TA.AperFunction,SMDPad,CuDef*%
%ADD42RoundRect,0.150000X-0.512500X-0.150000X0.512500X-0.150000X0.512500X0.150000X-0.512500X0.150000X0*%
%TD*%
%TA.AperFunction,SMDPad,CuDef*%
%ADD43FreePoly0,270.000000*%
%TD*%
%TA.AperFunction,SMDPad,CuDef*%
%ADD44FreePoly1,270.000000*%
%TD*%
%TA.AperFunction,SMDPad,CuDef*%
%ADD45FreePoly0,0.000000*%
%TD*%
%TA.AperFunction,SMDPad,CuDef*%
%ADD46FreePoly1,0.000000*%
%TD*%
%TA.AperFunction,ViaPad*%
%ADD47C,0.800000*%
%TD*%
%TA.AperFunction,Conductor*%
%ADD48C,0.152400*%
%TD*%
%TA.AperFunction,Conductor*%
%ADD49C,0.250000*%
%TD*%
%TA.AperFunction,Conductor*%
%ADD50C,0.650000*%
%TD*%
%TA.AperFunction,Conductor*%
%ADD51C,0.850000*%
%TD*%
%TA.AperFunction,Conductor*%
%ADD52C,0.450000*%
%TD*%
G04 APERTURE END LIST*
%TA.AperFunction,EtchedComponent*%
%TO.C,SJ1*%
G36*
X212700000Y-135880000D02*
G01*
X212100000Y-135880000D01*
X212100000Y-135380000D01*
X212700000Y-135380000D01*
X212700000Y-135880000D01*
G37*
%TD.AperFunction*%
%TD*%
D10*
%TO.P,H1,1,1*%
%TO.N,GND*%
X71500000Y-151500000D03*
%TD*%
%TO.P,H2,1,1*%
%TO.N,GND*%
X71500000Y-58700000D03*
%TD*%
%TO.P,H4,1,1*%
%TO.N,GND*%
X224300000Y-151500000D03*
%TD*%
D11*
%TO.P,S1,1,S*%
%TO.N,Net-(IC15-THR)*%
X219659400Y-73701200D03*
%TO.P,S1,2,S1*%
%TO.N,unconnected-(S1-S1-Pad2)*%
X219659400Y-67198800D03*
%TO.P,S1,3,P*%
%TO.N,Net-(S1-P)*%
X224180600Y-73701200D03*
%TO.P,S1,4,P1*%
%TO.N,unconnected-(S1-P1-Pad4)*%
X224180600Y-67198800D03*
%TD*%
D10*
%TO.P,H3,1,1*%
%TO.N,GND*%
X224300000Y-58700000D03*
%TD*%
D12*
%TO.P,C17,+,+*%
%TO.N,VCC*%
X87205000Y-90454000D03*
%TO.P,C17,-,-*%
%TO.N,GND*%
X89745000Y-90454000D03*
%TD*%
%TO.P,C18,+,+*%
%TO.N,VCC*%
X208946000Y-119329500D03*
%TO.P,C18,-,-*%
%TO.N,GND*%
X211486000Y-119329500D03*
%TD*%
%TO.P,C19,+,+*%
%TO.N,VCC*%
X208946000Y-128363000D03*
%TO.P,C19,-,-*%
%TO.N,GND*%
X211486000Y-128363000D03*
%TD*%
%TO.P,C21,+,+*%
%TO.N,VCC*%
X213772000Y-139890000D03*
%TO.P,C21,-,-*%
%TO.N,GND*%
X217328000Y-139890000D03*
%TD*%
D13*
%TO.P,IC4,1,NC*%
%TO.N,unconnected-(IC4-NC-Pad1)*%
X199572000Y-120199000D03*
D14*
%TO.P,IC4,2,A1*%
%TO.N,A1*%
X202112000Y-117659000D03*
%TO.P,IC4,3,IP3*%
%TO.N,GND*%
X199572000Y-117659000D03*
%TO.P,IC4,4,A2*%
%TO.N,A2*%
X202112000Y-115119000D03*
%TO.P,IC4,5,IP1*%
%TO.N,CTSB*%
X199572000Y-115119000D03*
%TO.P,IC4,6,A3*%
%TO.N,A3*%
X202112000Y-112579000D03*
%TO.P,IC4,7,A4*%
%TO.N,A4*%
X199572000Y-110039000D03*
%TO.P,IC4,8,IP0*%
%TO.N,CTSA*%
X199572000Y-112579000D03*
%TO.P,IC4,9,\u002AR/\u002AW*%
%TO.N,RW*%
X197032000Y-110039000D03*
%TO.P,IC4,10,\u002ADTALK*%
%TO.N,DTACK*%
X197032000Y-112579000D03*
%TO.P,IC4,11,RXDB*%
%TO.N,RXDB*%
X194492000Y-110039000D03*
%TO.P,IC4,12,NC*%
%TO.N,unconnected-(IC4-NC-Pad12)*%
X194492000Y-112579000D03*
%TO.P,IC4,13,TXDB*%
%TO.N,TXDB*%
X191952000Y-110039000D03*
%TO.P,IC4,14,OP1*%
%TO.N,RTSB*%
X191952000Y-112579000D03*
%TO.P,IC4,15,OP3*%
%TO.N,Net-(IC4-OP3)*%
X189412000Y-110039000D03*
%TO.P,IC4,16,OP5*%
%TO.N,Net-(IC4-OP5)*%
X189412000Y-112579000D03*
%TO.P,IC4,17,OP7*%
%TO.N,SPICS2*%
X186872000Y-110039000D03*
%TO.P,IC4,18,D1*%
%TO.N,D1*%
X184332000Y-112579000D03*
%TO.P,IC4,19,D3*%
%TO.N,D3*%
X186872000Y-112579000D03*
%TO.P,IC4,20,D5*%
%TO.N,D5*%
X184332000Y-115119000D03*
%TO.P,IC4,21,D7*%
%TO.N,D7*%
X186872000Y-115119000D03*
%TO.P,IC4,22,GND*%
%TO.N,GND*%
X184332000Y-117659000D03*
%TO.P,IC4,23,NC*%
%TO.N,unconnected-(IC4-NC-Pad23)*%
X186872000Y-117659000D03*
%TO.P,IC4,24,INTR*%
%TO.N,DUAIRQ*%
X184332000Y-120199000D03*
%TO.P,IC4,25,D6*%
%TO.N,D6*%
X186872000Y-120199000D03*
%TO.P,IC4,26,D4*%
%TO.N,D4*%
X184332000Y-122739000D03*
%TO.P,IC4,27,D2*%
%TO.N,D2*%
X186872000Y-122739000D03*
%TO.P,IC4,28,D0*%
%TO.N,D0*%
X184332000Y-125279000D03*
%TO.P,IC4,29,OP6*%
%TO.N,SPIMOSI*%
X186872000Y-127819000D03*
%TO.P,IC4,30,OP4*%
%TO.N,SPICLK*%
X186872000Y-125279000D03*
%TO.P,IC4,31,OP2*%
%TO.N,SPICS*%
X189412000Y-127819000D03*
%TO.P,IC4,32,OP0*%
%TO.N,RTSA*%
X189412000Y-125279000D03*
%TO.P,IC4,33,TXDA*%
%TO.N,TXDA*%
X191952000Y-127819000D03*
%TO.P,IC4,34,NC*%
%TO.N,unconnected-(IC4-NC-Pad34)*%
X191952000Y-125279000D03*
%TO.P,IC4,35,RXDA*%
%TO.N,RXDA*%
X194492000Y-127819000D03*
%TO.P,IC4,36,X1/CLK*%
%TO.N,Net-(IC4-X1{slash}CLK)*%
X194492000Y-125279000D03*
%TO.P,IC4,37,X2*%
%TO.N,Net-(IC4-X2)*%
X197032000Y-127819000D03*
%TO.P,IC4,38,\u002ARESET*%
%TO.N,RESET*%
X197032000Y-125279000D03*
%TO.P,IC4,39,CS*%
%TO.N,DUASEL*%
X199572000Y-127819000D03*
%TO.P,IC4,40,IP2*%
%TO.N,SPIMISO*%
X202112000Y-125279000D03*
%TO.P,IC4,41,\u002AIACK*%
%TO.N,DUAIACK*%
X199572000Y-125279000D03*
%TO.P,IC4,42,IP5*%
%TO.N,GND*%
X202112000Y-122739000D03*
%TO.P,IC4,43,IP4*%
X199572000Y-122739000D03*
%TO.P,IC4,44,VCC*%
%TO.N,VCC*%
X202112000Y-120199000D03*
%TD*%
D15*
%TO.P,IC5,1,I1/CLK*%
%TO.N,AS*%
X186076666Y-58324800D03*
D16*
%TO.P,IC5,2,I2*%
%TO.N,unconnected-(IC5-I2-Pad2)*%
X186076666Y-60864800D03*
%TO.P,IC5,3,I3*%
%TO.N,HWRST*%
X186076666Y-63404800D03*
%TO.P,IC5,4,I4/PD*%
%TO.N,FC2*%
X186076666Y-65944800D03*
%TO.P,IC5,5,I5*%
%TO.N,FC1*%
X186076666Y-68484800D03*
%TO.P,IC5,6,I6*%
%TO.N,FC0*%
X186076666Y-71024800D03*
%TO.P,IC5,7,I7*%
%TO.N,A1*%
X186076666Y-73564800D03*
%TO.P,IC5,8,I8*%
%TO.N,A2*%
X186076666Y-76104800D03*
%TO.P,IC5,9,I9*%
%TO.N,A3*%
X186076666Y-78644800D03*
%TO.P,IC5,10,I10*%
%TO.N,A19*%
X186076666Y-81184800D03*
%TO.P,IC5,11,I11*%
%TO.N,A18*%
X186076666Y-83724800D03*
%TO.P,IC5,12,GND*%
%TO.N,GND*%
X186076666Y-86264800D03*
%TO.P,IC5,13,I13*%
%TO.N,A17*%
X193696666Y-86264800D03*
%TO.P,IC5,14,IO1*%
%TO.N,A16*%
X193696666Y-83724800D03*
%TO.P,IC5,15,IO2*%
%TO.N,HALT*%
X193696666Y-81184800D03*
%TO.P,IC5,16,IO3*%
%TO.N,RESET*%
X193696666Y-78644800D03*
%TO.P,IC5,17,I04*%
%TO.N,RUNLED*%
X193696666Y-76104800D03*
%TO.P,IC5,18,IO5*%
%TO.N,unconnected-(IC5-IO5-Pad18)*%
X193696666Y-73564800D03*
%TO.P,IC5,19,IO6*%
%TO.N,unconnected-(IC5-IO6-Pad19)*%
X193696666Y-71024800D03*
%TO.P,IC5,20,IO7*%
%TO.N,unconnected-(IC5-IO7-Pad20)*%
X193696666Y-68484800D03*
%TO.P,IC5,21,IO8*%
%TO.N,BOOT*%
X193696666Y-65944800D03*
%TO.P,IC5,22,IO9*%
%TO.N,CPUSP*%
X193696666Y-63404800D03*
%TO.P,IC5,23,IO10*%
%TO.N,DUAIACK*%
X193696666Y-60864800D03*
%TO.P,IC5,24,VCC*%
%TO.N,VCC*%
X193696666Y-58324800D03*
%TD*%
D17*
%TO.P,JP1,1,A*%
%TO.N,VCCUA*%
X223300000Y-91159000D03*
%TO.P,JP1,2,B*%
%TO.N,VCC*%
X223300000Y-93699000D03*
%TD*%
D18*
%TO.P,LED3,A,A*%
%TO.N,Net-(LED3-PadA)*%
X211600000Y-60930000D03*
%TO.P,LED3,K,C*%
%TO.N,RUNLED*%
X209060000Y-60930000D03*
%TD*%
%TO.P,LED4,A,A*%
%TO.N,Net-(LED4-PadA)*%
X218200000Y-60840000D03*
%TO.P,LED4,K,C*%
%TO.N,RESET*%
X215660000Y-60840000D03*
%TD*%
D19*
%TO.P,Q1,1,1*%
%TO.N,Net-(IC4-X1{slash}CLK)*%
X190750800Y-135661400D03*
%TO.P,Q1,2,2*%
%TO.N,Net-(IC4-X2)*%
X195630800Y-135661400D03*
%TD*%
D20*
%TO.P,Q2,1,EN*%
%TO.N,Net-(Q2-EN)*%
X121500000Y-98300000D03*
D21*
%TO.P,Q2,4,GND*%
%TO.N,GND*%
X129120000Y-98300000D03*
%TO.P,Q2,5,OUT*%
%TO.N,CLK*%
X129120000Y-90680000D03*
%TO.P,Q2,8,Vcc*%
%TO.N,VCC*%
X121500000Y-90680000D03*
%TD*%
D15*
%TO.P,U4,1,A18*%
%TO.N,A19*%
X159800000Y-111823600D03*
D16*
%TO.P,U4,2,A16*%
%TO.N,A17*%
X159800000Y-114363600D03*
%TO.P,U4,3,A14*%
%TO.N,A15*%
X159800000Y-116903600D03*
%TO.P,U4,4,A12*%
%TO.N,A13*%
X159800000Y-119443600D03*
%TO.P,U4,5,A7*%
%TO.N,A8*%
X159800000Y-121983600D03*
%TO.P,U4,6,A6*%
%TO.N,A7*%
X159800000Y-124523600D03*
%TO.P,U4,7,A5*%
%TO.N,A6*%
X159800000Y-127063600D03*
%TO.P,U4,8,A4*%
%TO.N,A5*%
X159800000Y-129603600D03*
%TO.P,U4,9,A3*%
%TO.N,A4*%
X159800000Y-132143600D03*
%TO.P,U4,10,A2*%
%TO.N,A3*%
X159800000Y-134683600D03*
%TO.P,U4,11,A1*%
%TO.N,A2*%
X159800000Y-137223600D03*
%TO.P,U4,12,A0*%
%TO.N,A1*%
X159800000Y-139763600D03*
%TO.P,U4,13,DQ0*%
%TO.N,D8*%
X159800000Y-142303600D03*
%TO.P,U4,14,DQ1*%
%TO.N,D9*%
X159800000Y-144843600D03*
%TO.P,U4,15,DQ2*%
%TO.N,D10*%
X159800000Y-147383600D03*
%TO.P,U4,16,VSS*%
%TO.N,GND*%
X159800000Y-149923600D03*
%TO.P,U4,17,DQ3*%
%TO.N,D11*%
X175040000Y-149923600D03*
%TO.P,U4,18,DQ4*%
%TO.N,D12*%
X175040000Y-147383600D03*
%TO.P,U4,19,DQ5*%
%TO.N,D13*%
X175040000Y-144843600D03*
%TO.P,U4,20,DQ6*%
%TO.N,D14*%
X175040000Y-142303600D03*
%TO.P,U4,21,DQ7*%
%TO.N,D15*%
X175040000Y-139763600D03*
%TO.P,U4,22,CE*%
%TO.N,EVENRAMSEL*%
X175040000Y-137223600D03*
%TO.P,U4,23,A10*%
%TO.N,A11*%
X175040000Y-134683600D03*
%TO.P,U4,24,OE*%
%TO.N,WR*%
X175040000Y-132143600D03*
%TO.P,U4,25,A11*%
%TO.N,A12*%
X175040000Y-129603600D03*
%TO.P,U4,26,A9*%
%TO.N,A10*%
X175040000Y-127063600D03*
%TO.P,U4,27,A8*%
%TO.N,A9*%
X175040000Y-124523600D03*
%TO.P,U4,28,A13*%
%TO.N,A14*%
X175040000Y-121983600D03*
%TO.P,U4,29,WE*%
%TO.N,RW*%
X175040000Y-119443600D03*
%TO.P,U4,30,A17*%
%TO.N,A18*%
X175040000Y-116903600D03*
%TO.P,U4,31,A15*%
%TO.N,A16*%
X175040000Y-114363600D03*
%TO.P,U4,32,VCC*%
%TO.N,VCC*%
X175040000Y-111823600D03*
%TD*%
D15*
%TO.P,U3,1,A18*%
%TO.N,A19*%
X135600000Y-111823600D03*
D16*
%TO.P,U3,2,A16*%
%TO.N,A17*%
X135600000Y-114363600D03*
%TO.P,U3,3,A14*%
%TO.N,A15*%
X135600000Y-116903600D03*
%TO.P,U3,4,A12*%
%TO.N,A13*%
X135600000Y-119443600D03*
%TO.P,U3,5,A7*%
%TO.N,A8*%
X135600000Y-121983600D03*
%TO.P,U3,6,A6*%
%TO.N,A7*%
X135600000Y-124523600D03*
%TO.P,U3,7,A5*%
%TO.N,A6*%
X135600000Y-127063600D03*
%TO.P,U3,8,A4*%
%TO.N,A5*%
X135600000Y-129603600D03*
%TO.P,U3,9,A3*%
%TO.N,A4*%
X135600000Y-132143600D03*
%TO.P,U3,10,A2*%
%TO.N,A3*%
X135600000Y-134683600D03*
%TO.P,U3,11,A1*%
%TO.N,A2*%
X135600000Y-137223600D03*
%TO.P,U3,12,A0*%
%TO.N,A1*%
X135600000Y-139763600D03*
%TO.P,U3,13,DQ0*%
%TO.N,D0*%
X135600000Y-142303600D03*
%TO.P,U3,14,DQ1*%
%TO.N,D1*%
X135600000Y-144843600D03*
%TO.P,U3,15,DQ2*%
%TO.N,D2*%
X135600000Y-147383600D03*
%TO.P,U3,16,VSS*%
%TO.N,GND*%
X135600000Y-149923600D03*
%TO.P,U3,17,DQ3*%
%TO.N,D3*%
X150840000Y-149923600D03*
%TO.P,U3,18,DQ4*%
%TO.N,D4*%
X150840000Y-147383600D03*
%TO.P,U3,19,DQ5*%
%TO.N,D5*%
X150840000Y-144843600D03*
%TO.P,U3,20,DQ6*%
%TO.N,D6*%
X150840000Y-142303600D03*
%TO.P,U3,21,DQ7*%
%TO.N,D7*%
X150840000Y-139763600D03*
%TO.P,U3,22,CE*%
%TO.N,ODDRAMSEL*%
X150840000Y-137223600D03*
%TO.P,U3,23,A10*%
%TO.N,A11*%
X150840000Y-134683600D03*
%TO.P,U3,24,OE*%
%TO.N,WR*%
X150840000Y-132143600D03*
%TO.P,U3,25,A11*%
%TO.N,A12*%
X150840000Y-129603600D03*
%TO.P,U3,26,A9*%
%TO.N,A10*%
X150840000Y-127063600D03*
%TO.P,U3,27,A8*%
%TO.N,A9*%
X150840000Y-124523600D03*
%TO.P,U3,28,A13*%
%TO.N,A14*%
X150840000Y-121983600D03*
%TO.P,U3,29,WE*%
%TO.N,RW*%
X150840000Y-119443600D03*
%TO.P,U3,30,A17*%
%TO.N,A18*%
X150840000Y-116903600D03*
%TO.P,U3,31,A15*%
%TO.N,A16*%
X150840000Y-114363600D03*
%TO.P,U3,32,VCC*%
%TO.N,VCC*%
X150840000Y-111823600D03*
%TD*%
D15*
%TO.P,U2,1,A18*%
%TO.N,A19*%
X111400000Y-111823600D03*
D16*
%TO.P,U2,2,A16*%
%TO.N,A17*%
X111400000Y-114363600D03*
%TO.P,U2,3,A15*%
%TO.N,A16*%
X111400000Y-116903600D03*
%TO.P,U2,4,A12*%
%TO.N,A13*%
X111400000Y-119443600D03*
%TO.P,U2,5,A7*%
%TO.N,A8*%
X111400000Y-121983600D03*
%TO.P,U2,6,A6*%
%TO.N,A7*%
X111400000Y-124523600D03*
%TO.P,U2,7,A5*%
%TO.N,A6*%
X111400000Y-127063600D03*
%TO.P,U2,8,A4*%
%TO.N,A5*%
X111400000Y-129603600D03*
%TO.P,U2,9,A3*%
%TO.N,A4*%
X111400000Y-132143600D03*
%TO.P,U2,10,A2*%
%TO.N,A3*%
X111400000Y-134683600D03*
%TO.P,U2,11,A1*%
%TO.N,A2*%
X111400000Y-137223600D03*
%TO.P,U2,12,A0*%
%TO.N,A1*%
X111400000Y-139763600D03*
%TO.P,U2,13,D0*%
%TO.N,D8*%
X111400000Y-142303600D03*
%TO.P,U2,14,D1*%
%TO.N,D9*%
X111400000Y-144843600D03*
%TO.P,U2,15,D2*%
%TO.N,D10*%
X111400000Y-147383600D03*
%TO.P,U2,16,GND*%
%TO.N,GND*%
X111400000Y-149923600D03*
%TO.P,U2,17,D3*%
%TO.N,D11*%
X126640000Y-149923600D03*
%TO.P,U2,18,D4*%
%TO.N,D12*%
X126640000Y-147383600D03*
%TO.P,U2,19,D5*%
%TO.N,D13*%
X126640000Y-144843600D03*
%TO.P,U2,20,D6*%
%TO.N,D14*%
X126640000Y-142303600D03*
%TO.P,U2,21,D7*%
%TO.N,D15*%
X126640000Y-139763600D03*
%TO.P,U2,22,CE*%
%TO.N,EVENROMSEL*%
X126640000Y-137223600D03*
%TO.P,U2,23,A10*%
%TO.N,A11*%
X126640000Y-134683600D03*
%TO.P,U2,24,OE*%
%TO.N,WR*%
X126640000Y-132143600D03*
%TO.P,U2,25,A11*%
%TO.N,A12*%
X126640000Y-129603600D03*
%TO.P,U2,26,A9*%
%TO.N,A10*%
X126640000Y-127063600D03*
%TO.P,U2,27,A8*%
%TO.N,A9*%
X126640000Y-124523600D03*
%TO.P,U2,28,A13*%
%TO.N,A14*%
X126640000Y-121983600D03*
%TO.P,U2,29,A14*%
%TO.N,A15*%
X126640000Y-119443600D03*
%TO.P,U2,30,A17*%
%TO.N,A18*%
X126640000Y-116903600D03*
%TO.P,U2,31,PGM*%
%TO.N,ROM_RW*%
X126640000Y-114363600D03*
%TO.P,U2,32,VCC*%
%TO.N,VCC*%
X126640000Y-111823600D03*
%TD*%
D22*
%TO.P,J3,1,Pin_1*%
%TO.N,A1*%
X73325000Y-65350000D03*
D23*
%TO.P,J3,2,Pin_2*%
%TO.N,VCC*%
X75865000Y-65350000D03*
%TO.P,J3,3,Pin_3*%
%TO.N,A2*%
X73325000Y-67890000D03*
%TO.P,J3,4,Pin_4*%
%TO.N,CLK*%
X75865000Y-67890000D03*
%TO.P,J3,5,Pin_5*%
%TO.N,A3*%
X73325000Y-70430000D03*
%TO.P,J3,6,Pin_6*%
%TO.N,GND*%
X75865000Y-70430000D03*
%TO.P,J3,7,Pin_7*%
%TO.N,A4*%
X73325000Y-72970000D03*
%TO.P,J3,8,Pin_8*%
%TO.N,VPA*%
X75865000Y-72970000D03*
%TO.P,J3,9,Pin_9*%
%TO.N,A5*%
X73325000Y-75510000D03*
%TO.P,J3,10,Pin_10*%
%TO.N,E*%
X75865000Y-75510000D03*
%TO.P,J3,11,Pin_11*%
%TO.N,A6*%
X73325000Y-78050000D03*
%TO.P,J3,12,Pin_12*%
%TO.N,VMA*%
X75865000Y-78050000D03*
%TO.P,J3,13,Pin_13*%
%TO.N,A7*%
X73325000Y-80590000D03*
%TO.P,J3,14,Pin_14*%
%TO.N,IRQ3*%
X75865000Y-80590000D03*
%TO.P,J3,15,Pin_15*%
%TO.N,A8*%
X73325000Y-83130000D03*
%TO.P,J3,16,Pin_16*%
%TO.N,IOSEL*%
X75865000Y-83130000D03*
%TO.P,J3,17,Pin_17*%
%TO.N,A9*%
X73325000Y-85670000D03*
%TO.P,J3,18,Pin_18*%
%TO.N,EXPSEL*%
X75865000Y-85670000D03*
%TO.P,J3,19,Pin_19*%
%TO.N,A10*%
X73325000Y-88210000D03*
%TO.P,J3,20,Pin_20*%
%TO.N,FC0*%
X75865000Y-88210000D03*
%TO.P,J3,21,Pin_21*%
%TO.N,A11*%
X73325000Y-90750000D03*
%TO.P,J3,22,Pin_22*%
%TO.N,FC1*%
X75865000Y-90750000D03*
%TO.P,J3,23,Pin_23*%
%TO.N,A12*%
X73325000Y-93290000D03*
%TO.P,J3,24,Pin_24*%
%TO.N,FC2*%
X75865000Y-93290000D03*
%TO.P,J3,25,Pin_25*%
%TO.N,A13*%
X73325000Y-95830000D03*
%TO.P,J3,26,Pin_26*%
%TO.N,IRQ5*%
X75865000Y-95830000D03*
%TO.P,J3,27,Pin_27*%
%TO.N,A14*%
X73325000Y-98370000D03*
%TO.P,J3,28,Pin_28*%
%TO.N,IRQ2*%
X75865000Y-98370000D03*
%TO.P,J3,29,Pin_29*%
%TO.N,A15*%
X73325000Y-100910000D03*
%TO.P,J3,30,Pin_30*%
%TO.N,IRQ6*%
X75865000Y-100910000D03*
%TO.P,J3,31,Pin_31*%
%TO.N,A16*%
X73325000Y-103450000D03*
%TO.P,J3,32,Pin_32*%
%TO.N,LDS*%
X75865000Y-103450000D03*
%TO.P,J3,33,Pin_33*%
%TO.N,A17*%
X73325000Y-105990000D03*
%TO.P,J3,34,Pin_34*%
%TO.N,UDS*%
X75865000Y-105990000D03*
%TO.P,J3,35,Pin_35*%
%TO.N,A18*%
X73325000Y-108530000D03*
%TO.P,J3,36,Pin_36*%
%TO.N,RESET*%
X75865000Y-108530000D03*
%TO.P,J3,37,Pin_37*%
%TO.N,A19*%
X73325000Y-111070000D03*
%TO.P,J3,38,Pin_38*%
%TO.N,D15*%
X75865000Y-111070000D03*
%TO.P,J3,39,Pin_39*%
%TO.N,A20*%
X73325000Y-113610000D03*
%TO.P,J3,40,Pin_40*%
%TO.N,D14*%
X75865000Y-113610000D03*
%TO.P,J3,41,Pin_41*%
%TO.N,A21*%
X73325000Y-116150000D03*
%TO.P,J3,42,Pin_42*%
%TO.N,D13*%
X75865000Y-116150000D03*
%TO.P,J3,43,Pin_43*%
%TO.N,A22*%
X73325000Y-118690000D03*
%TO.P,J3,44,Pin_44*%
%TO.N,D12*%
X75865000Y-118690000D03*
%TO.P,J3,45,Pin_45*%
%TO.N,A23*%
X73325000Y-121230000D03*
%TO.P,J3,46,Pin_46*%
%TO.N,D11*%
X75865000Y-121230000D03*
%TO.P,J3,47,Pin_47*%
%TO.N,AS*%
X73325000Y-123770000D03*
%TO.P,J3,48,Pin_48*%
%TO.N,D10*%
X75865000Y-123770000D03*
%TO.P,J3,49,Pin_49*%
%TO.N,BERR*%
X73325000Y-126310000D03*
%TO.P,J3,50,Pin_50*%
%TO.N,D9*%
X75865000Y-126310000D03*
%TO.P,J3,51,Pin_51*%
%TO.N,BG*%
X73325000Y-128850000D03*
%TO.P,J3,52,Pin_52*%
%TO.N,D8*%
X75865000Y-128850000D03*
%TO.P,J3,53,Pin_53*%
%TO.N,BGACK*%
X73325000Y-131390000D03*
%TO.P,J3,54,Pin_54*%
%TO.N,D7*%
X75865000Y-131390000D03*
%TO.P,J3,55,Pin_55*%
%TO.N,BR*%
X73325000Y-133930000D03*
%TO.P,J3,56,Pin_56*%
%TO.N,D6*%
X75865000Y-133930000D03*
%TO.P,J3,57,Pin_57*%
%TO.N,DTACK*%
X73325000Y-136470000D03*
%TO.P,J3,58,Pin_58*%
%TO.N,D5*%
X75865000Y-136470000D03*
%TO.P,J3,59,Pin_59*%
%TO.N,RW*%
X73325000Y-139010000D03*
%TO.P,J3,60,Pin_60*%
%TO.N,D4*%
X75865000Y-139010000D03*
%TO.P,J3,61,Pin_61*%
%TO.N,D0*%
X73325000Y-141550000D03*
%TO.P,J3,62,Pin_62*%
%TO.N,D3*%
X75865000Y-141550000D03*
%TO.P,J3,63,Pin_63*%
%TO.N,D1*%
X73325000Y-144090000D03*
%TO.P,J3,64,Pin_64*%
%TO.N,D2*%
X75865000Y-144090000D03*
%TD*%
D15*
%TO.P,IC6,1,I1/CLK*%
%TO.N,CLK*%
X174450000Y-58324800D03*
D16*
%TO.P,IC6,2,I2*%
%TO.N,AS*%
X174450000Y-60864800D03*
%TO.P,IC6,3,I3*%
%TO.N,CPUSP*%
X174450000Y-63404800D03*
%TO.P,IC6,4,I4/PD*%
%TO.N,A19*%
X174450000Y-65944800D03*
%TO.P,IC6,5,I5*%
%TO.N,A18*%
X174450000Y-68484800D03*
%TO.P,IC6,6,I6*%
%TO.N,A16*%
X174450000Y-71024800D03*
%TO.P,IC6,7,I7*%
%TO.N,A17*%
X174450000Y-73564800D03*
%TO.P,IC6,8,I8*%
%TO.N,unconnected-(IC6-I8-Pad8)*%
X174450000Y-76104800D03*
%TO.P,IC6,9,I9*%
%TO.N,unconnected-(IC6-I9-Pad9)*%
X174450000Y-78644800D03*
%TO.P,IC6,10,I10*%
%TO.N,unconnected-(IC6-I10-Pad10)*%
X174450000Y-81184800D03*
%TO.P,IC6,11,I11*%
%TO.N,unconnected-(IC6-I11-Pad11)*%
X174450000Y-83724800D03*
%TO.P,IC6,12,GND*%
%TO.N,GND*%
X174450000Y-86264800D03*
%TO.P,IC6,13,I13*%
X182070000Y-86264800D03*
%TO.P,IC6,14,IO1*%
%TO.N,unconnected-(IC6-IO1-Pad14)*%
X182070000Y-83724800D03*
%TO.P,IC6,15,IO2*%
%TO.N,unconnected-(IC6-IO2-Pad15)*%
X182070000Y-81184800D03*
%TO.P,IC6,16,IO3*%
%TO.N,unconnected-(IC6-IO3-Pad16)*%
X182070000Y-78644800D03*
%TO.P,IC6,17,I04*%
%TO.N,unconnected-(IC6-I04-Pad17)*%
X182070000Y-76104800D03*
%TO.P,IC6,18,IO5*%
%TO.N,unconnected-(IC6-IO5-Pad18)*%
X182070000Y-73564800D03*
%TO.P,IC6,19,IO6*%
%TO.N,unconnected-(IC6-IO6-Pad19)*%
X182070000Y-71024800D03*
%TO.P,IC6,20,IO7*%
%TO.N,unconnected-(IC6-IO7-Pad20)*%
X182070000Y-68484800D03*
%TO.P,IC6,21,IO8*%
%TO.N,unconnected-(IC6-IO8-Pad21)*%
X182070000Y-65944800D03*
%TO.P,IC6,22,IO9*%
%TO.N,unconnected-(IC6-IO9-Pad22)*%
X182070000Y-63404800D03*
%TO.P,IC6,23,IO10*%
%TO.N,BERR*%
X182070000Y-60864800D03*
%TO.P,IC6,24,VCC*%
%TO.N,VCC*%
X182070000Y-58324800D03*
%TD*%
D17*
%TO.P,J4,1,Pin_1*%
%TO.N,SPICS*%
X223300000Y-131310000D03*
%TO.P,J4,2,Pin_2*%
%TO.N,SPICLK*%
X223300000Y-128770000D03*
%TO.P,J4,3,Pin_3*%
%TO.N,SPIMOSI*%
X223300000Y-126230000D03*
%TO.P,J4,4,Pin_4*%
%TO.N,SPIMISO*%
X223300000Y-123690000D03*
%TO.P,J4,5,Pin_5*%
%TO.N,VCC*%
X223300000Y-121150000D03*
%TO.P,J4,6,Pin_6*%
%TO.N,GND*%
X223300000Y-118610000D03*
%TD*%
D12*
%TO.P,C14,+,+*%
%TO.N,VCC*%
X208946000Y-110296000D03*
%TO.P,C14,-,-*%
%TO.N,GND*%
X211486000Y-110296000D03*
%TD*%
%TO.P,C15,+,+*%
%TO.N,VCC*%
X145149000Y-104943000D03*
%TO.P,C15,-,-*%
%TO.N,GND*%
X147689000Y-104943000D03*
%TD*%
D17*
%TO.P,J2,1,Pin_1*%
%TO.N,GND*%
X216564000Y-112258000D03*
%TO.P,J2,2,Pin_2*%
%TO.N,RTSB*%
X216564000Y-109718000D03*
%TO.P,J2,3,Pin_3*%
%TO.N,VCCUB*%
X216564000Y-107178000D03*
%TO.P,J2,4,Pin_4*%
%TO.N,RXDB*%
X216564000Y-104638000D03*
%TO.P,J2,5,Pin_5*%
%TO.N,TXDB*%
X216564000Y-102098000D03*
%TO.P,J2,6,Pin_6*%
%TO.N,CTSB*%
X216564000Y-99558000D03*
%TD*%
%TO.P,J1,1,Pin_1*%
%TO.N,GND*%
X223300000Y-112258000D03*
%TO.P,J1,2,Pin_2*%
%TO.N,RTSA*%
X223300000Y-109718000D03*
%TO.P,J1,3,Pin_3*%
%TO.N,VCCUA*%
X223300000Y-107178000D03*
%TO.P,J1,4,Pin_4*%
%TO.N,RXDA*%
X223300000Y-104638000D03*
%TO.P,J1,5,Pin_5*%
%TO.N,TXDA*%
X223300000Y-102098000D03*
%TO.P,J1,6,Pin_6*%
%TO.N,CTSA*%
X223300000Y-99558000D03*
%TD*%
D11*
%TO.P,J5,1,1*%
%TO.N,VCC*%
X214730000Y-151000000D03*
%TO.P,J5,2,2*%
%TO.N,GND*%
X217270000Y-151000000D03*
%TD*%
D15*
%TO.P,IC15,1,GND*%
%TO.N,GND*%
X209230000Y-78724800D03*
D16*
%TO.P,IC15,2,TR*%
%TO.N,Net-(IC15-THR)*%
X209230000Y-81264800D03*
%TO.P,IC15,3,Q*%
%TO.N,HWRST*%
X209230000Y-83804800D03*
%TO.P,IC15,4,R*%
%TO.N,VCC*%
X209230000Y-86344800D03*
%TO.P,IC15,5,CV*%
%TO.N,Net-(IC15-CV)*%
X216850000Y-86344800D03*
%TO.P,IC15,6,THR*%
%TO.N,Net-(IC15-THR)*%
X216850000Y-83804800D03*
%TO.P,IC15,7,DIS*%
%TO.N,unconnected-(IC15-DIS-Pad7)*%
X216850000Y-81264800D03*
%TO.P,IC15,8,V+*%
%TO.N,VCC*%
X216850000Y-78724800D03*
%TD*%
D17*
%TO.P,JP2,1,A*%
%TO.N,VCCUB*%
X216564000Y-91159000D03*
%TO.P,JP2,2,B*%
%TO.N,VCC*%
X216564000Y-93699000D03*
%TD*%
%TO.P,JP3,1,A*%
%TO.N,RW*%
X104703000Y-91393000D03*
%TO.P,JP3,2,B*%
%TO.N,ROM_RW*%
X104703000Y-93933000D03*
%TD*%
D18*
%TO.P,LED1,A,A*%
%TO.N,Net-(LED1-PadA)*%
X186706800Y-146098800D03*
%TO.P,LED1,K,C*%
%TO.N,Net-(IC4-OP5)*%
X184166800Y-146098800D03*
%TD*%
%TO.P,LED2,A,A*%
%TO.N,Net-(LED2-PadA)*%
X195072000Y-146100800D03*
%TO.P,LED2,K,C*%
%TO.N,Net-(IC4-OP3)*%
X192532000Y-146100800D03*
%TD*%
D17*
%TO.P,JP4,1,A*%
%TO.N,LGEXP*%
X109018000Y-93933000D03*
%TO.P,JP4,2,B*%
%TO.N,GND*%
X109018000Y-91393000D03*
%TD*%
D15*
%TO.P,U1,1,A18*%
%TO.N,A19*%
X87200000Y-111823600D03*
D16*
%TO.P,U1,2,A16*%
%TO.N,A17*%
X87200000Y-114363600D03*
%TO.P,U1,3,A15*%
%TO.N,A16*%
X87200000Y-116903600D03*
%TO.P,U1,4,A12*%
%TO.N,A13*%
X87200000Y-119443600D03*
%TO.P,U1,5,A7*%
%TO.N,A8*%
X87200000Y-121983600D03*
%TO.P,U1,6,A6*%
%TO.N,A7*%
X87200000Y-124523600D03*
%TO.P,U1,7,A5*%
%TO.N,A6*%
X87200000Y-127063600D03*
%TO.P,U1,8,A4*%
%TO.N,A5*%
X87200000Y-129603600D03*
%TO.P,U1,9,A3*%
%TO.N,A4*%
X87200000Y-132143600D03*
%TO.P,U1,10,A2*%
%TO.N,A3*%
X87200000Y-134683600D03*
%TO.P,U1,11,A1*%
%TO.N,A2*%
X87200000Y-137223600D03*
%TO.P,U1,12,A0*%
%TO.N,A1*%
X87200000Y-139763600D03*
%TO.P,U1,13,D0*%
%TO.N,D0*%
X87200000Y-142303600D03*
%TO.P,U1,14,D1*%
%TO.N,D1*%
X87200000Y-144843600D03*
%TO.P,U1,15,D2*%
%TO.N,D2*%
X87200000Y-147383600D03*
%TO.P,U1,16,GND*%
%TO.N,GND*%
X87200000Y-149923600D03*
%TO.P,U1,17,D3*%
%TO.N,D3*%
X102440000Y-149923600D03*
%TO.P,U1,18,D4*%
%TO.N,D4*%
X102440000Y-147383600D03*
%TO.P,U1,19,D5*%
%TO.N,D5*%
X102440000Y-144843600D03*
%TO.P,U1,20,D6*%
%TO.N,D6*%
X102440000Y-142303600D03*
%TO.P,U1,21,D7*%
%TO.N,D7*%
X102440000Y-139763600D03*
%TO.P,U1,22,CE*%
%TO.N,ODDROMSEL*%
X102440000Y-137223600D03*
%TO.P,U1,23,A10*%
%TO.N,A11*%
X102440000Y-134683600D03*
%TO.P,U1,24,OE*%
%TO.N,WR*%
X102440000Y-132143600D03*
%TO.P,U1,25,A11*%
%TO.N,A12*%
X102440000Y-129603600D03*
%TO.P,U1,26,A9*%
%TO.N,A10*%
X102440000Y-127063600D03*
%TO.P,U1,27,A8*%
%TO.N,A9*%
X102440000Y-124523600D03*
%TO.P,U1,28,A13*%
%TO.N,A14*%
X102440000Y-121983600D03*
%TO.P,U1,29,A14*%
%TO.N,A15*%
X102440000Y-119443600D03*
%TO.P,U1,30,A17*%
%TO.N,A18*%
X102440000Y-116903600D03*
%TO.P,U1,31,PGM*%
%TO.N,ROM_RW*%
X102440000Y-114363600D03*
%TO.P,U1,32,VCC*%
%TO.N,VCC*%
X102440000Y-111823600D03*
%TD*%
D12*
%TO.P,C11,+,+*%
%TO.N,Net-(IC15-THR)*%
X221459000Y-80910000D03*
%TO.P,C11,-,-*%
%TO.N,GND*%
X223999000Y-80910000D03*
%TD*%
D15*
%TO.P,IC3,1,I1/CLK*%
%TO.N,A6*%
X197703332Y-58324800D03*
D16*
%TO.P,IC3,2,I2*%
%TO.N,A7*%
X197703332Y-60864800D03*
%TO.P,IC3,3,I3*%
%TO.N,A8*%
X197703332Y-63404800D03*
%TO.P,IC3,4,I4/PD*%
%TO.N,A9*%
X197703332Y-65944800D03*
%TO.P,IC3,5,I5*%
%TO.N,A10*%
X197703332Y-68484800D03*
%TO.P,IC3,6,I6*%
%TO.N,A11*%
X197703332Y-71024800D03*
%TO.P,IC3,7,I7*%
%TO.N,A12*%
X197703332Y-73564800D03*
%TO.P,IC3,8,I8*%
%TO.N,A13*%
X197703332Y-76104800D03*
%TO.P,IC3,9,I9*%
%TO.N,A14*%
X197703332Y-78644800D03*
%TO.P,IC3,10,I10*%
%TO.N,A15*%
X197703332Y-81184800D03*
%TO.P,IC3,11,I11*%
%TO.N,A16*%
X197703332Y-83724800D03*
%TO.P,IC3,12,GND*%
%TO.N,GND*%
X197703332Y-86264800D03*
%TO.P,IC3,13,I13*%
%TO.N,unconnected-(IC3-I13-Pad13)*%
X205323332Y-86264800D03*
%TO.P,IC3,14,IO1*%
%TO.N,A19*%
X205323332Y-83724800D03*
%TO.P,IC3,15,IO2*%
%TO.N,unconnected-(IC3-IO2-Pad15)*%
X205323332Y-81184800D03*
%TO.P,IC3,16,IO3*%
%TO.N,A17*%
X205323332Y-78644800D03*
%TO.P,IC3,17,I04*%
%TO.N,A18*%
X205323332Y-76104800D03*
%TO.P,IC3,18,IO5*%
%TO.N,LDS*%
X205323332Y-73564800D03*
%TO.P,IC3,19,IO6*%
%TO.N,IOSEL*%
X205323332Y-71024800D03*
%TO.P,IC3,20,IO7*%
%TO.N,DUASEL*%
X205323332Y-68484800D03*
%TO.P,IC3,21,IO8*%
%TO.N,FC0*%
X205323332Y-65944800D03*
%TO.P,IC3,22,IO9*%
%TO.N,FC1*%
X205323332Y-63404800D03*
%TO.P,IC3,23,IO10*%
%TO.N,FC2*%
X205323332Y-60864800D03*
%TO.P,IC3,24,VCC*%
%TO.N,VCC*%
X205323332Y-58324800D03*
%TD*%
D24*
%TO.P,IC2,1,I1/CLK*%
%TO.N,A18*%
X86787000Y-105081000D03*
D25*
%TO.P,IC2,2,I2*%
%TO.N,A19*%
X89327000Y-105081000D03*
%TO.P,IC2,3,I3*%
%TO.N,A20*%
X91867000Y-105081000D03*
%TO.P,IC2,4,I4/PD*%
%TO.N,A21*%
X94407000Y-105081000D03*
%TO.P,IC2,5,I5*%
%TO.N,A22*%
X96947000Y-105081000D03*
%TO.P,IC2,6,I6*%
%TO.N,A23*%
X99487000Y-105081000D03*
%TO.P,IC2,7,I7*%
%TO.N,UDS*%
X102027000Y-105081000D03*
%TO.P,IC2,8,I8*%
%TO.N,LDS*%
X104567000Y-105081000D03*
%TO.P,IC2,9,I9*%
%TO.N,BOOT*%
X107107000Y-105081000D03*
%TO.P,IC2,10,I10*%
%TO.N,LGEXP*%
X109647000Y-105081000D03*
%TO.P,IC2,11,I11*%
%TO.N,RW*%
X112187000Y-105081000D03*
%TO.P,IC2,12,GND*%
%TO.N,GND*%
X114727000Y-105081000D03*
%TO.P,IC2,13,I13*%
%TO.N,AS*%
X114727000Y-97461000D03*
%TO.P,IC2,14,IO1*%
%TO.N,EVENRAMSEL*%
X112187000Y-97461000D03*
%TO.P,IC2,15,IO2*%
%TO.N,ODDRAMSEL*%
X109647000Y-97461000D03*
%TO.P,IC2,16,IO3*%
%TO.N,EVENROMSEL*%
X107107000Y-97461000D03*
%TO.P,IC2,17,I04*%
%TO.N,ODDROMSEL*%
X104567000Y-97461000D03*
%TO.P,IC2,18,IO5*%
%TO.N,IOSEL*%
X102027000Y-97461000D03*
%TO.P,IC2,19,IO6*%
%TO.N,EXPSEL*%
X99487000Y-97461000D03*
%TO.P,IC2,20,IO7*%
%TO.N,CPUSP*%
X96947000Y-97461000D03*
%TO.P,IC2,21,IO8*%
%TO.N,unconnected-(IC2-IO8-Pad21)*%
X94407000Y-97461000D03*
%TO.P,IC2,22,IO9*%
%TO.N,DTACK*%
X91867000Y-97461000D03*
%TO.P,IC2,23,IO10*%
%TO.N,WR*%
X89327000Y-97461000D03*
%TO.P,IC2,24,VCC*%
%TO.N,VCC*%
X86787000Y-97461000D03*
%TD*%
D22*
%TO.P,J6,1,Pin_1*%
%TO.N,EXPSEL*%
X106970000Y-122130000D03*
D23*
%TO.P,J6,2,Pin_2*%
%TO.N,A20*%
X106970000Y-119590000D03*
%TO.P,J6,3,Pin_3*%
%TO.N,A21*%
X106970000Y-117050000D03*
%TO.P,J6,4,Pin_4*%
%TO.N,A22*%
X106970000Y-114510000D03*
%TO.P,J6,5,Pin_5*%
%TO.N,A23*%
X106970000Y-111970000D03*
%TD*%
D22*
%TO.P,J7,1,Pin_1*%
%TO.N,SPICS2*%
X216564000Y-131310000D03*
%TD*%
D24*
%TO.P,IC7,1,I4*%
%TO.N,DUAIRQ*%
X137830000Y-98100000D03*
D25*
%TO.P,IC7,2,I5*%
%TO.N,IRQ5*%
X140370000Y-98100000D03*
%TO.P,IC7,3,I6*%
%TO.N,IRQ6*%
X142910000Y-98100000D03*
%TO.P,IC7,4,I7*%
%TO.N,VCC*%
X145450000Y-98100000D03*
%TO.P,IC7,5,EI*%
%TO.N,GND*%
X147990000Y-98100000D03*
%TO.P,IC7,6,S2*%
%TO.N,IPL2*%
X150530000Y-98100000D03*
%TO.P,IC7,7,S1*%
%TO.N,IPL1*%
X153070000Y-98100000D03*
%TO.P,IC7,8,GND*%
%TO.N,GND*%
X155610000Y-98100000D03*
%TO.P,IC7,9,S0*%
%TO.N,IPL0*%
X155610000Y-90480000D03*
%TO.P,IC7,10,IO*%
%TO.N,GND*%
X153070000Y-90480000D03*
%TO.P,IC7,11,I1*%
%TO.N,VCC*%
X150530000Y-90480000D03*
%TO.P,IC7,12,I2*%
%TO.N,IRQ2*%
X147990000Y-90480000D03*
%TO.P,IC7,13,I3*%
%TO.N,IRQ3*%
X145450000Y-90480000D03*
%TO.P,IC7,14,GS*%
%TO.N,unconnected-(IC7-GS-Pad14)*%
X142910000Y-90480000D03*
%TO.P,IC7,15,EO*%
%TO.N,unconnected-(IC7-EO-Pad15)*%
X140370000Y-90480000D03*
%TO.P,IC7,16,VCC*%
%TO.N,VCC*%
X137830000Y-90480000D03*
%TD*%
D22*
%TO.P,J8,1,Pin_1*%
%TO.N,HALT*%
X187380000Y-94020000D03*
D23*
%TO.P,J8,2,Pin_2*%
%TO.N,RESET*%
X187380000Y-96560000D03*
%TD*%
D26*
%TO.P,IC1,1,D4*%
%TO.N,D4*%
X87030000Y-84530000D03*
%TO.P,IC1,2,D3*%
%TO.N,D3*%
X89570000Y-84530000D03*
%TO.P,IC1,3,D2*%
%TO.N,D2*%
X92110000Y-84530000D03*
%TO.P,IC1,4,D1*%
%TO.N,D1*%
X94650000Y-84530000D03*
%TO.P,IC1,5,D0*%
%TO.N,D0*%
X97190000Y-84530000D03*
%TO.P,IC1,6,AS*%
%TO.N,AS*%
X99730000Y-84530000D03*
%TO.P,IC1,7,UDS*%
%TO.N,UDS*%
X102270000Y-84530000D03*
%TO.P,IC1,8,LDS*%
%TO.N,LDS*%
X104810000Y-84530000D03*
%TO.P,IC1,9,R/W*%
%TO.N,RW*%
X107350000Y-84530000D03*
%TO.P,IC1,10,DTACK*%
%TO.N,DTACK*%
X109890000Y-84530000D03*
%TO.P,IC1,11,BG*%
%TO.N,BG*%
X112430000Y-84530000D03*
%TO.P,IC1,12,BGACK*%
%TO.N,BGACK*%
X114970000Y-84530000D03*
%TO.P,IC1,13,BR*%
%TO.N,BR*%
X117510000Y-84530000D03*
%TO.P,IC1,14,VCC@1*%
%TO.N,VCC*%
X120050000Y-84530000D03*
%TO.P,IC1,15,CLK*%
%TO.N,CLK*%
X122590000Y-84530000D03*
%TO.P,IC1,16,GND@1*%
%TO.N,GND*%
X125130000Y-84530000D03*
%TO.P,IC1,17,HALT*%
%TO.N,HALT*%
X127670000Y-84530000D03*
%TO.P,IC1,18,RESET*%
%TO.N,RESET*%
X130210000Y-84530000D03*
%TO.P,IC1,19,VMA*%
%TO.N,VMA*%
X132750000Y-84530000D03*
%TO.P,IC1,20,E*%
%TO.N,E*%
X135290000Y-84530000D03*
%TO.P,IC1,21,VPA*%
%TO.N,VPA*%
X137830000Y-84530000D03*
%TO.P,IC1,22,BERR*%
%TO.N,BERR*%
X140370000Y-84530000D03*
%TO.P,IC1,23,IPL2*%
%TO.N,IPL2*%
X142910000Y-84530000D03*
%TO.P,IC1,24,IPL1*%
%TO.N,IPL1*%
X145450000Y-84530000D03*
%TO.P,IC1,25,IPL0*%
%TO.N,IPL0*%
X147990000Y-84530000D03*
%TO.P,IC1,26,FC2*%
%TO.N,FC2*%
X150530000Y-84530000D03*
%TO.P,IC1,27,FC1*%
%TO.N,FC1*%
X153070000Y-84530000D03*
%TO.P,IC1,28,FC0*%
%TO.N,FC0*%
X155610000Y-84530000D03*
%TO.P,IC1,29,A1*%
%TO.N,A1*%
X158150000Y-84530000D03*
%TO.P,IC1,30,A2*%
%TO.N,A2*%
X160690000Y-84530000D03*
%TO.P,IC1,31,A3*%
%TO.N,A3*%
X163230000Y-84530000D03*
%TO.P,IC1,32,A4*%
%TO.N,A4*%
X165770000Y-84530000D03*
%TO.P,IC1,33,A5*%
%TO.N,A5*%
X165770000Y-61670000D03*
%TO.P,IC1,34,A6*%
%TO.N,A6*%
X163230000Y-61670000D03*
%TO.P,IC1,35,A7*%
%TO.N,A7*%
X160690000Y-61670000D03*
%TO.P,IC1,36,A8*%
%TO.N,A8*%
X158150000Y-61670000D03*
%TO.P,IC1,37,A9*%
%TO.N,A9*%
X155610000Y-61670000D03*
%TO.P,IC1,38,A10*%
%TO.N,A10*%
X153070000Y-61670000D03*
%TO.P,IC1,39,A11*%
%TO.N,A11*%
X150530000Y-61670000D03*
%TO.P,IC1,40,A12*%
%TO.N,A12*%
X147990000Y-61670000D03*
%TO.P,IC1,41,A13*%
%TO.N,A13*%
X145450000Y-61670000D03*
%TO.P,IC1,42,A14*%
%TO.N,A14*%
X142910000Y-61670000D03*
%TO.P,IC1,43,A15*%
%TO.N,A15*%
X140370000Y-61670000D03*
%TO.P,IC1,44,A16*%
%TO.N,A16*%
X137830000Y-61670000D03*
%TO.P,IC1,45,A17*%
%TO.N,A17*%
X135290000Y-61670000D03*
%TO.P,IC1,46,A18*%
%TO.N,A18*%
X132750000Y-61670000D03*
%TO.P,IC1,47,A19*%
%TO.N,A19*%
X130210000Y-61670000D03*
%TO.P,IC1,48,A20*%
%TO.N,A20*%
X127670000Y-61670000D03*
%TO.P,IC1,49,VCC@2*%
%TO.N,VCC*%
X125130000Y-61670000D03*
%TO.P,IC1,50,A21*%
%TO.N,A21*%
X122590000Y-61670000D03*
%TO.P,IC1,51,A22*%
%TO.N,A22*%
X120050000Y-61670000D03*
%TO.P,IC1,52,A23*%
%TO.N,A23*%
X117510000Y-61670000D03*
%TO.P,IC1,53,GND@2*%
%TO.N,GND*%
X114970000Y-61670000D03*
%TO.P,IC1,54,D15*%
%TO.N,D15*%
X112430000Y-61670000D03*
%TO.P,IC1,55,D14*%
%TO.N,D14*%
X109890000Y-61670000D03*
%TO.P,IC1,56,D13*%
%TO.N,D13*%
X107350000Y-61670000D03*
%TO.P,IC1,57,D12*%
%TO.N,D12*%
X104810000Y-61670000D03*
%TO.P,IC1,58,D11*%
%TO.N,D11*%
X102270000Y-61670000D03*
%TO.P,IC1,59,D10*%
%TO.N,D10*%
X99730000Y-61670000D03*
%TO.P,IC1,60,D9*%
%TO.N,D9*%
X97190000Y-61670000D03*
%TO.P,IC1,61,D8*%
%TO.N,D8*%
X94650000Y-61670000D03*
%TO.P,IC1,62,D7*%
%TO.N,D7*%
X92110000Y-61670000D03*
%TO.P,IC1,63,D6*%
%TO.N,D6*%
X89570000Y-61670000D03*
%TO.P,IC1,64,D5*%
%TO.N,D5*%
X87030000Y-61670000D03*
%TD*%
D27*
%TO.P,J9,1*%
%TO.N,VCC*%
X203969700Y-141193000D03*
D28*
%TO.P,J9,2*%
%TO.N,GND*%
X203969700Y-147193000D03*
D29*
%TO.P,J9,3*%
%TO.N,N/C*%
X208669700Y-144193000D03*
%TD*%
D30*
%TO.P,R19,1*%
%TO.N,VCC*%
X135410000Y-91945000D03*
%TO.P,R19,2*%
%TO.N,VPA*%
X135410000Y-90295000D03*
%TD*%
D31*
%TO.P,C1,1*%
%TO.N,GND*%
X188976000Y-134099000D03*
%TO.P,C1,2*%
%TO.N,Net-(IC4-X1{slash}CLK)*%
X188976000Y-135649000D03*
%TD*%
%TO.P,C7,1,1*%
%TO.N,VCC*%
X137720000Y-93465000D03*
%TO.P,C7,2,2*%
%TO.N,GND*%
X137720000Y-95015000D03*
%TD*%
%TO.P,C8,1,1*%
%TO.N,VCC*%
X113593000Y-91761000D03*
%TO.P,C8,2,2*%
%TO.N,GND*%
X113593000Y-93311000D03*
%TD*%
%TO.P,C9,1,1*%
%TO.N,VCC*%
X159800000Y-106514000D03*
%TO.P,C9,2,2*%
%TO.N,GND*%
X159800000Y-108064000D03*
%TD*%
D32*
%TO.P,C24,1,1*%
%TO.N,VCC*%
X190865000Y-59040000D03*
%TO.P,C24,2,2*%
%TO.N,GND*%
X189315000Y-59040000D03*
%TD*%
D33*
%TO.P,R8,1*%
%TO.N,VCC*%
X131535000Y-104350000D03*
%TO.P,R8,2*%
%TO.N,LGEXP*%
X129885000Y-104350000D03*
%TD*%
%TO.P,R7,1,1*%
%TO.N,BR*%
X108305000Y-79100000D03*
%TO.P,R7,2,2*%
%TO.N,VCC*%
X106655000Y-79100000D03*
%TD*%
D30*
%TO.P,R9,1,1*%
%TO.N,BGACK*%
X104580000Y-79335000D03*
%TO.P,R9,2,2*%
%TO.N,VCC*%
X104580000Y-77685000D03*
%TD*%
D34*
%TO.P,C22,1,1*%
%TO.N,VCC*%
X178918000Y-129467000D03*
%TO.P,C22,2,2*%
%TO.N,GND*%
X178918000Y-127917000D03*
%TD*%
%TO.P,C26,1,1*%
%TO.N,VCC*%
X124750000Y-106875000D03*
%TO.P,C26,2,2*%
%TO.N,GND*%
X124750000Y-105325000D03*
%TD*%
D31*
%TO.P,C2,1*%
%TO.N,GND*%
X197430000Y-134135000D03*
%TO.P,C2,2*%
%TO.N,Net-(IC4-X2)*%
X197430000Y-135685000D03*
%TD*%
D32*
%TO.P,C13,1,1*%
%TO.N,VCC*%
X221465000Y-86340000D03*
%TO.P,C13,2,2*%
%TO.N,Net-(IC15-CV)*%
X219915000Y-86340000D03*
%TD*%
D31*
%TO.P,C27,1,1*%
%TO.N,VCC*%
X204070000Y-120685000D03*
%TO.P,C27,2,2*%
%TO.N,GND*%
X204070000Y-122235000D03*
%TD*%
D32*
%TO.P,C28,1*%
%TO.N,GND*%
X203500000Y-104952000D03*
%TO.P,C28,2*%
%TO.N,VCC*%
X201950000Y-104952000D03*
%TD*%
%TO.P,C31,1,1*%
%TO.N,VCC*%
X179005000Y-58310000D03*
%TO.P,C31,2,2*%
%TO.N,GND*%
X177455000Y-58310000D03*
%TD*%
D35*
%TO.P,R27,1,1*%
%TO.N,Net-(IC15-THR)*%
X213230000Y-82555000D03*
%TO.P,R27,2,2*%
%TO.N,VCC*%
X213230000Y-84205000D03*
%TD*%
D30*
%TO.P,R28,1,1*%
%TO.N,GND*%
X225200000Y-78095000D03*
%TO.P,R28,2,2*%
%TO.N,Net-(S1-P)*%
X225200000Y-76445000D03*
%TD*%
D35*
%TO.P,R13,1,1*%
%TO.N,Net-(LED3-PadA)*%
X211580000Y-62965000D03*
%TO.P,R13,2,2*%
%TO.N,VCC*%
X211580000Y-64615000D03*
%TD*%
D36*
%TO.P,R21,1*%
%TO.N,VCC*%
X107825000Y-58420000D03*
%TO.P,R21,2*%
%TO.N,DTACK*%
X109475000Y-58420000D03*
%TD*%
D30*
%TO.P,R10,1,1*%
%TO.N,BERR*%
X130160000Y-79005000D03*
%TO.P,R10,2,2*%
%TO.N,VCC*%
X130160000Y-77355000D03*
%TD*%
D35*
%TO.P,R14,1,1*%
%TO.N,Net-(LED4-PadA)*%
X218210000Y-62945000D03*
%TO.P,R14,2,2*%
%TO.N,VCC*%
X218210000Y-64595000D03*
%TD*%
D36*
%TO.P,R11,1*%
%TO.N,VCC*%
X101825000Y-108640000D03*
%TO.P,R11,2*%
%TO.N,ROM_RW*%
X103475000Y-108640000D03*
%TD*%
%TO.P,R1,1,1*%
%TO.N,Net-(LED1-PadA)*%
X188775000Y-146130000D03*
%TO.P,R1,2,2*%
%TO.N,VCC*%
X190425000Y-146130000D03*
%TD*%
%TO.P,R2,1,1*%
%TO.N,Net-(LED2-PadA)*%
X197205000Y-146100000D03*
%TO.P,R2,2,2*%
%TO.N,VCC*%
X198855000Y-146100000D03*
%TD*%
D34*
%TO.P,C6,1,1*%
%TO.N,VCC*%
X201070000Y-133585000D03*
%TO.P,C6,2,2*%
%TO.N,GND*%
X201070000Y-132035000D03*
%TD*%
D32*
%TO.P,C25,1,1*%
%TO.N,VCC*%
X202325000Y-58340000D03*
%TO.P,C25,2,2*%
%TO.N,GND*%
X200775000Y-58340000D03*
%TD*%
D35*
%TO.P,R32,1,1*%
%TO.N,RESET*%
X195630000Y-88605000D03*
%TO.P,R32,2,2*%
%TO.N,VCC*%
X195630000Y-90255000D03*
%TD*%
D32*
%TO.P,C29,1*%
%TO.N,GND*%
X123390000Y-82370000D03*
%TO.P,C29,2*%
%TO.N,VCC*%
X121840000Y-82370000D03*
%TD*%
%TO.P,C12,1,1*%
%TO.N,VCC*%
X121005000Y-59080000D03*
%TO.P,C12,2,2*%
%TO.N,GND*%
X119455000Y-59080000D03*
%TD*%
%TO.P,C10,1,1*%
%TO.N,VCC*%
X171717000Y-111760000D03*
%TO.P,C10,2,2*%
%TO.N,GND*%
X170167000Y-111760000D03*
%TD*%
%TO.P,C5,1,1*%
%TO.N,VCC*%
X147841000Y-111760000D03*
%TO.P,C5,2,2*%
%TO.N,GND*%
X146291000Y-111760000D03*
%TD*%
%TO.P,C4,1,1*%
%TO.N,VCC*%
X122441000Y-112014000D03*
%TO.P,C4,2,2*%
%TO.N,GND*%
X120891000Y-112014000D03*
%TD*%
%TO.P,C3,1,1*%
%TO.N,VCC*%
X99175000Y-112190000D03*
%TO.P,C3,2,2*%
%TO.N,GND*%
X97625000Y-112190000D03*
%TD*%
D35*
%TO.P,R31,1,1*%
%TO.N,HALT*%
X192550000Y-88725000D03*
%TO.P,R31,2,2*%
%TO.N,VCC*%
X192550000Y-90375000D03*
%TD*%
D36*
%TO.P,R12,1*%
%TO.N,VCC*%
X100965000Y-77900000D03*
%TO.P,R12,2*%
%TO.N,IRQ6*%
X102615000Y-77900000D03*
%TD*%
D33*
%TO.P,R15,1*%
%TO.N,VCC*%
X99815000Y-79880000D03*
%TO.P,R15,2*%
%TO.N,IRQ2*%
X98165000Y-79880000D03*
%TD*%
%TO.P,R17,1*%
%TO.N,VCC*%
X96825000Y-78650000D03*
%TO.P,R17,2*%
%TO.N,IRQ5*%
X95175000Y-78650000D03*
%TD*%
%TO.P,R18,1*%
%TO.N,VCC*%
X93685000Y-78770000D03*
%TO.P,R18,2*%
%TO.N,IRQ3*%
X92035000Y-78770000D03*
%TD*%
D35*
%TO.P,R3,1*%
%TO.N,VCC*%
X133540000Y-97315000D03*
%TO.P,R3,2*%
%TO.N,Net-(Q2-EN)*%
X133540000Y-98965000D03*
%TD*%
%TO.P,R16,1*%
%TO.N,VCC*%
X182180000Y-117535000D03*
%TO.P,R16,2*%
%TO.N,DUAIRQ*%
X182180000Y-119185000D03*
%TD*%
D37*
%TO.P,C32,1,1*%
%TO.N,VCC*%
X86601000Y-93726000D03*
%TO.P,C32,2,2*%
%TO.N,GND*%
X88151000Y-93726000D03*
%TD*%
D35*
%TO.P,R4,1*%
%TO.N,Net-(J10-CC2)*%
X214910000Y-142765000D03*
%TO.P,R4,2*%
%TO.N,GND*%
X214910000Y-144415000D03*
%TD*%
D38*
%TO.P,J10,A1,GND*%
%TO.N,GND*%
X220480000Y-136810000D03*
%TO.P,J10,A4,VBUS*%
%TO.N,Net-(J10-VBUS-PadA4)*%
X220480000Y-137610000D03*
D39*
%TO.P,J10,A5,CC1*%
%TO.N,Net-(J10-CC1)*%
X220480000Y-138760000D03*
%TO.P,J10,A6,D+*%
%TO.N,unconnected-(J10-D+-PadA6)*%
X220480000Y-139760000D03*
%TO.P,J10,A7,D-*%
%TO.N,unconnected-(J10-D--PadA7)*%
X220480000Y-140260000D03*
%TO.P,J10,A8,SBU1*%
%TO.N,unconnected-(J10-SBU1-PadA8)*%
X220480000Y-141260000D03*
D38*
%TO.P,J10,A9,VBUS*%
%TO.N,Net-(J10-VBUS-PadA4)*%
X220480000Y-142410000D03*
%TO.P,J10,A12,GND*%
%TO.N,GND*%
X220480000Y-143210000D03*
%TO.P,J10,B1,GND*%
X220480000Y-143210000D03*
%TO.P,J10,B4,VBUS*%
%TO.N,Net-(J10-VBUS-PadA4)*%
X220480000Y-142410000D03*
D39*
%TO.P,J10,B5,CC2*%
%TO.N,Net-(J10-CC2)*%
X220480000Y-141760000D03*
%TO.P,J10,B6,D+*%
%TO.N,unconnected-(J10-D+-PadB6)*%
X220480000Y-140760000D03*
%TO.P,J10,B7,D-*%
%TO.N,unconnected-(J10-D--PadB7)*%
X220480000Y-139260000D03*
%TO.P,J10,B8,SBU2*%
%TO.N,unconnected-(J10-SBU2-PadB8)*%
X220480000Y-138260000D03*
D38*
%TO.P,J10,B9,VBUS*%
%TO.N,Net-(J10-VBUS-PadA4)*%
X220480000Y-137610000D03*
%TO.P,J10,B12,GND*%
%TO.N,GND*%
X220480000Y-136810000D03*
D40*
%TO.P,J10,S1,SHIELD*%
X225230000Y-135690000D03*
D41*
X221060000Y-135690000D03*
D40*
X225230000Y-144330000D03*
D41*
X221060000Y-144330000D03*
%TD*%
D42*
%TO.P,U5,1,VOUT*%
%TO.N,VCC*%
X215655000Y-137600000D03*
%TO.P,U5,2,GND*%
%TO.N,GND*%
X215655000Y-136650000D03*
%TO.P,U5,3,ON*%
%TO.N,Net-(U5-ON)*%
X215655000Y-135700000D03*
%TO.P,U5,4,VIN*%
%TO.N,Net-(J10-VBUS-PadA4)*%
X217930000Y-135700000D03*
%TO.P,U5,5,GND*%
%TO.N,GND*%
X217930000Y-136650000D03*
%TO.P,U5,6,VIN*%
%TO.N,Net-(J10-VBUS-PadA4)*%
X217930000Y-137600000D03*
%TD*%
D43*
%TO.P,SJ1,1*%
%TO.N,Net-(J10-VBUS-PadA4)*%
X212400000Y-134980000D03*
D44*
%TO.P,SJ1,2*%
%TO.N,Net-(U5-ON)*%
X212400000Y-136280000D03*
%TD*%
D45*
%TO.P,SJ2,1*%
%TO.N,Net-(J10-VBUS-PadA4)*%
X210500000Y-138590000D03*
D46*
%TO.P,SJ2,2*%
%TO.N,VCC*%
X211800000Y-138590000D03*
%TD*%
D37*
%TO.P,C30,1*%
%TO.N,GND*%
X212240000Y-78720000D03*
%TO.P,C30,2*%
%TO.N,VCC*%
X213790000Y-78720000D03*
%TD*%
D30*
%TO.P,R5,1*%
%TO.N,GND*%
X212810000Y-144370000D03*
%TO.P,R5,2*%
%TO.N,Net-(J10-CC1)*%
X212810000Y-142720000D03*
%TD*%
D47*
%TO.N,A18*%
X171447000Y-82575400D03*
%TO.N,IPL2*%
X143427000Y-94915000D03*
%TO.N,IPL1*%
X148804000Y-100198000D03*
%TO.N,IPL0*%
X150337000Y-88427400D03*
%TO.N,DTACK*%
X111190000Y-58440000D03*
X112173790Y-89925000D03*
X196770000Y-99620000D03*
X108083012Y-77358012D03*
%TO.N,BGACK*%
X114950000Y-78000000D03*
%TO.N,BR*%
X117550000Y-77328600D03*
%TO.N,RESET*%
X197703332Y-89303000D03*
X74600000Y-92025000D03*
X187970000Y-79150000D03*
%TO.N,BERR*%
X140320000Y-80010000D03*
X179913000Y-59192400D03*
X141650000Y-60078600D03*
%TO.N,CLK*%
X122375000Y-71702465D03*
X175404000Y-88658600D03*
%TO.N,LDS*%
X104567000Y-100789780D03*
X207330000Y-100250000D03*
%TO.N,UDS*%
X102322514Y-99796600D03*
X78198746Y-100072032D03*
%TO.N,AS*%
X99701000Y-88877000D03*
X172201707Y-79279132D03*
X114914000Y-88877000D03*
%TO.N,BG*%
X112450000Y-79147350D03*
%TO.N,FC2*%
X81775000Y-84400000D03*
X150550000Y-80671400D03*
X208892400Y-75395430D03*
X81754073Y-93297201D03*
X188653800Y-76526000D03*
%TO.N,FC1*%
X81025000Y-83750000D03*
X153050000Y-80328600D03*
X188349000Y-74436000D03*
X207600000Y-74700000D03*
X81000000Y-90750000D03*
%TO.N,FC0*%
X155650000Y-79700000D03*
X207653800Y-67806834D03*
X80292086Y-88207914D03*
X80325000Y-83075000D03*
X188044200Y-73217000D03*
%TO.N,VCC*%
X182880000Y-116332000D03*
X126000000Y-107300000D03*
X194460000Y-90760000D03*
X199723800Y-133572000D03*
X160020000Y-105156000D03*
X221480000Y-87620000D03*
X219600000Y-64370000D03*
X105610000Y-78690000D03*
X201590000Y-106000000D03*
X95990000Y-77915800D03*
X106820000Y-58420000D03*
X101820000Y-109830000D03*
X132720000Y-104390000D03*
X92910000Y-79620000D03*
X129000000Y-77360000D03*
X198140000Y-144550000D03*
X113610000Y-90670000D03*
X178816000Y-131064000D03*
X213020000Y-64420000D03*
X189660000Y-144630000D03*
X100150000Y-78490000D03*
X133550000Y-96210000D03*
X134170000Y-91990000D03*
%TO.N,GND*%
X213032637Y-137357289D03*
X200780000Y-59690000D03*
X178816000Y-126492000D03*
X199723800Y-132048000D03*
X125989025Y-105029000D03*
X168402000Y-112014000D03*
X160274000Y-109474000D03*
X203890000Y-105970000D03*
X176330000Y-57780000D03*
X145034000Y-111760000D03*
X113610000Y-94510000D03*
X135840000Y-96390000D03*
X188976000Y-132842000D03*
X118053800Y-112014000D03*
X198020000Y-132780000D03*
X98540000Y-111200000D03*
X190080000Y-57930000D03*
%TO.N,EVENROMSEL*%
X119385996Y-101584004D03*
%TO.N,ODDRAMSEL*%
X149044266Y-102908111D03*
X109632000Y-101874000D03*
%TO.N,EVENRAMSEL*%
X176770000Y-99339998D03*
X112167000Y-101280761D03*
%TO.N,IOSEL*%
X98222000Y-86978601D03*
X98550000Y-59290000D03*
%TO.N,EXPSEL*%
X95225000Y-86978600D03*
X98470000Y-122100000D03*
X96064210Y-93424000D03*
%TO.N,HALT*%
X193696666Y-89303000D03*
X127650000Y-87200000D03*
%TO.N,RW*%
X181314000Y-123986000D03*
X107350000Y-76449998D03*
X103472000Y-86127000D03*
X117410000Y-119600000D03*
%TO.N,BOOT*%
X105710000Y-57055809D03*
X191062498Y-57559592D03*
%TO.N,VPA*%
X137900000Y-72975000D03*
X134190000Y-89260000D03*
%TO.N,E*%
X135300000Y-73603600D03*
X79034886Y-75475000D03*
%TO.N,VMA*%
X78894000Y-83320000D03*
X132750000Y-79756970D03*
%TO.N,A6*%
X202378590Y-70003000D03*
X163250000Y-73937730D03*
X163254000Y-65811800D03*
X138800000Y-127100000D03*
X138850000Y-73937730D03*
X77675000Y-127625000D03*
%TO.N,A7*%
X141700000Y-124550000D03*
X201749990Y-69271179D03*
X139531763Y-73272697D03*
X160678000Y-65183200D03*
X160700000Y-73309130D03*
X77675000Y-125050000D03*
%TO.N,A8*%
X141400000Y-72644097D03*
X77625000Y-122500000D03*
X158150000Y-72644097D03*
X143200000Y-121950000D03*
X201124400Y-67452000D03*
X158154000Y-64554600D03*
%TO.N,A9*%
X145450000Y-124500000D03*
X155650000Y-72015497D03*
X155662000Y-63926000D03*
X142950000Y-72015497D03*
%TO.N,A10*%
X146650000Y-127150000D03*
X143950000Y-71386897D03*
X199958000Y-65391000D03*
X153050000Y-71386897D03*
%TO.N,A11*%
X153433600Y-134683600D03*
X200495800Y-64310000D03*
X150550000Y-70758297D03*
X145250000Y-70758297D03*
%TO.N,A12*%
X154900000Y-129600000D03*
X196315600Y-59720000D03*
%TO.N,A13*%
X153510996Y-69689004D03*
X146950000Y-69500000D03*
X154565000Y-88637000D03*
X202100723Y-91110872D03*
X156150000Y-119400000D03*
%TO.N,A14*%
X157352000Y-94285000D03*
X156567833Y-64554600D03*
X202042400Y-92423272D03*
X157450000Y-120700000D03*
%TO.N,A15*%
X77675000Y-120578600D03*
X157365000Y-65337000D03*
X140400000Y-64700000D03*
X201386200Y-93176000D03*
X161221000Y-92343000D03*
%TO.N,A16*%
X156785801Y-113334990D03*
X136825000Y-73937730D03*
X81400000Y-76450000D03*
X172201000Y-84980000D03*
X114119000Y-113185000D03*
X137800000Y-65750000D03*
X154400000Y-65750000D03*
%TO.N,A17*%
X152350000Y-67600000D03*
X135300000Y-67600000D03*
X135300000Y-70758297D03*
X155528600Y-115550000D03*
X81785340Y-70300000D03*
X153404000Y-92490000D03*
X205943000Y-89243000D03*
X79663486Y-107075000D03*
%TO.N,A3*%
X202459000Y-100713380D03*
X164200000Y-100943800D03*
X77650000Y-135225000D03*
X164200000Y-134700000D03*
%TO.N,A2*%
X163450000Y-96400000D03*
X184691000Y-96400000D03*
X203711000Y-97768000D03*
X163383410Y-137250000D03*
X77675000Y-137700000D03*
%TO.N,A1*%
X121728601Y-140252896D03*
X204329000Y-95230000D03*
X162700000Y-93950000D03*
X77675000Y-139646400D03*
X183697000Y-95230000D03*
%TO.N,D5*%
X83967800Y-136475000D03*
X88600000Y-75200000D03*
X168800000Y-105000000D03*
X166600000Y-75550000D03*
X139000000Y-144900000D03*
X92911780Y-144850000D03*
X130550000Y-146450000D03*
%TO.N,D6*%
X167804344Y-104428600D03*
X84596400Y-133925000D03*
X165950000Y-76250000D03*
X90337415Y-75441603D03*
X95461780Y-142300000D03*
%TO.N,D7*%
X90733800Y-76366864D03*
X95461780Y-139750000D03*
X166800001Y-103800000D03*
X165178600Y-76971400D03*
X85225000Y-131425000D03*
%TO.N,D8*%
X82175000Y-128850000D03*
X117764200Y-141618780D03*
X118100000Y-70349999D03*
%TO.N,D9*%
X81600000Y-126300000D03*
X118392800Y-143850000D03*
X118914285Y-69757142D03*
%TO.N,D10*%
X119728570Y-69164285D03*
X119021400Y-146400000D03*
X81075000Y-123775000D03*
%TO.N,D11*%
X76471655Y-148108992D03*
X119650000Y-149950000D03*
X128450000Y-154147840D03*
X120542855Y-68571428D03*
%TO.N,D12*%
X77423472Y-147337994D03*
X124750000Y-153843030D03*
X120350000Y-147450000D03*
X121357140Y-67978571D03*
%TO.N,D13*%
X120900000Y-144850000D03*
X122171425Y-67385714D03*
X78350000Y-146444600D03*
%TO.N,D14*%
X79323205Y-145120998D03*
X121423791Y-141923590D03*
X122985710Y-66792857D03*
%TO.N,D15*%
X80275000Y-144350000D03*
X123800000Y-66200000D03*
X122069488Y-139363590D03*
%TO.N,A23*%
X110150000Y-67750000D03*
X83250000Y-65700000D03*
X82413940Y-99751438D03*
X99487000Y-110555000D03*
X82075000Y-119950000D03*
%TO.N,A22*%
X110970732Y-68423816D03*
X83049540Y-100484164D03*
X95254000Y-115780000D03*
X83025000Y-116875000D03*
X83846134Y-66445315D03*
%TO.N,A21*%
X111791464Y-69097632D03*
X83775000Y-114550000D03*
X83742799Y-101207000D03*
X93829020Y-117098000D03*
X84452299Y-67179912D03*
%TO.N,A20*%
X112612196Y-69771448D03*
X91882000Y-120015000D03*
X84988166Y-67967259D03*
X84371398Y-102137000D03*
X84371399Y-111146399D03*
%TO.N,A19*%
X178150000Y-65940000D03*
X111410000Y-107749998D03*
X178150000Y-83100000D03*
X85000000Y-109600000D03*
X113432930Y-70445264D03*
X184840000Y-103190000D03*
X85700000Y-68600000D03*
X189894000Y-83649734D03*
%TO.N,A18*%
X85657000Y-103296316D03*
X132700000Y-70100000D03*
X86300000Y-69350000D03*
X148671400Y-70129697D03*
X154200000Y-116900000D03*
X172830307Y-71715000D03*
%TO.N,A5*%
X77675000Y-130150000D03*
X165200000Y-129600000D03*
%TO.N,A4*%
X190871000Y-103926000D03*
X77675000Y-132625000D03*
X166200000Y-132350000D03*
X166171401Y-102850000D03*
%TO.N,D0*%
X123900000Y-142750000D03*
X97200001Y-72717073D03*
X173800000Y-107400000D03*
X97200000Y-143350000D03*
X169750000Y-71950000D03*
%TO.N,D1*%
X137750000Y-152928600D03*
X97148665Y-148717020D03*
X172750000Y-106850000D03*
X169150000Y-72700000D03*
X94650000Y-73185000D03*
%TO.N,D2*%
X171800000Y-106350000D03*
X89325000Y-143925000D03*
X168550000Y-73450000D03*
X92143492Y-74256508D03*
X133900000Y-153538220D03*
X92399400Y-151250600D03*
%TO.N,D3*%
X167850000Y-74100000D03*
X82710599Y-141550000D03*
X170750000Y-105950000D03*
X93005512Y-149755512D03*
X89550000Y-73732838D03*
%TO.N,D4*%
X88052390Y-74361438D03*
X169800000Y-105500000D03*
X167209713Y-74818344D03*
X92911780Y-146750000D03*
X148713512Y-151976210D03*
X83339199Y-139000000D03*
%TO.N,CPUSP*%
X103724000Y-56751000D03*
X195687000Y-57367000D03*
X104994402Y-99473402D03*
%TO.N,DUAIACK*%
X203010000Y-62232000D03*
%TO.N,RUNLED*%
X208080000Y-76960000D03*
%TO.N,WR*%
X88781000Y-130925000D03*
%TO.N,ROM_RW*%
X105161000Y-108593000D03*
X128135000Y-109213000D03*
%TO.N,SPICS2*%
X189700000Y-115500000D03*
X215700000Y-115400000D03*
%TO.N,DUAIRQ*%
X177920000Y-98027600D03*
%TO.N,IRQ3*%
X144567210Y-99577000D03*
X113620512Y-87592199D03*
X113622000Y-79120000D03*
%TO.N,IRQ2*%
X98840000Y-78850000D03*
X78044852Y-80601995D03*
X147456000Y-100215000D03*
X101043000Y-88248400D03*
%TO.N,IRQ6*%
X78991716Y-81055816D03*
X101914400Y-87080000D03*
X101700000Y-78708100D03*
%TO.N,IRQ5*%
X140240442Y-102936200D03*
X99930000Y-102760000D03*
X78123645Y-79496200D03*
X96077422Y-79503224D03*
%TO.N,Net-(J10-VBUS-PadA4)*%
X216795343Y-138105000D03*
X216640000Y-142810000D03*
%TD*%
D48*
%TO.N,A18*%
X186076666Y-83724800D02*
X184965466Y-84836000D01*
X173507400Y-84836000D02*
X171447000Y-82775600D01*
X184965466Y-84836000D02*
X173507400Y-84836000D01*
X171447000Y-82775600D02*
X171447000Y-82575400D01*
%TO.N,A16*%
X172201000Y-84980000D02*
X172361800Y-85140800D01*
X172361800Y-85140800D02*
X196287332Y-85140800D01*
X196287332Y-85140800D02*
X197703332Y-83724800D01*
%TO.N,A17*%
X174450000Y-73564800D02*
X173310600Y-73564800D01*
%TO.N,A13*%
X151850000Y-69800000D02*
X151960996Y-69689004D01*
X151960996Y-69689004D02*
X153510996Y-69689004D01*
X146950000Y-69500000D02*
X149250000Y-69500000D01*
X149550000Y-69800000D02*
X151850000Y-69800000D01*
X149250000Y-69500000D02*
X149550000Y-69800000D01*
%TO.N,A17*%
X173310600Y-73564800D02*
X170459400Y-70713600D01*
X170459400Y-70713600D02*
X155463600Y-70713600D01*
X155463600Y-70713600D02*
X152350000Y-67600000D01*
%TO.N,A16*%
X174450000Y-71024800D02*
X172193000Y-71024800D01*
X172193000Y-71024800D02*
X171196000Y-70027800D01*
X171196000Y-70027800D02*
X158677800Y-70027800D01*
X158677800Y-70027800D02*
X154400000Y-65750000D01*
%TO.N,A17*%
X205943000Y-89243000D02*
X198826872Y-89243000D01*
X198826872Y-89243000D02*
X195848672Y-86264800D01*
X195848672Y-86264800D02*
X193696666Y-86264800D01*
%TO.N,A16*%
X197703332Y-83724800D02*
X193696666Y-83724800D01*
%TO.N,IPL2*%
X148697400Y-94915000D02*
X150530000Y-96747600D01*
X150530000Y-96747600D02*
X150530000Y-98100000D01*
X143427000Y-94915000D02*
X148697400Y-94915000D01*
%TO.N,IPL1*%
X148804000Y-100198000D02*
X152324400Y-100198000D01*
X153070000Y-99452400D02*
X153070000Y-98100000D01*
X152324400Y-100198000D02*
X153070000Y-99452400D01*
%TO.N,IPL0*%
X155388000Y-90480000D02*
X153335400Y-88427400D01*
X153335400Y-88427400D02*
X150337000Y-88427400D01*
%TO.N,DTACK*%
X91867000Y-97461000D02*
X91867000Y-93137000D01*
X91867000Y-93137000D02*
X95079000Y-89925000D01*
X118390000Y-92390000D02*
X118390000Y-99660000D01*
X105365600Y-76105600D02*
X95374242Y-76105600D01*
X91176485Y-77633411D02*
X79831900Y-77633410D01*
X111170000Y-58420000D02*
X109475000Y-58420000D01*
X161556200Y-98683800D02*
X195833800Y-98683800D01*
X72050000Y-74353411D02*
X70652207Y-75751204D01*
X70525950Y-75874050D02*
X70525950Y-133670950D01*
X95374242Y-76105600D02*
X94717268Y-76762574D01*
X70525950Y-133670950D02*
X73325000Y-136470000D01*
X70648796Y-75751204D02*
X70525950Y-75874050D01*
X112173790Y-89925000D02*
X115925000Y-89925000D01*
X108083012Y-77358012D02*
X107971024Y-77470000D01*
X92047322Y-76762574D02*
X91176485Y-77633411D01*
X195833800Y-98683800D02*
X196770000Y-99620000D01*
X118390000Y-99660000D02*
X120320000Y-101590000D01*
X106730000Y-77470000D02*
X105365600Y-76105600D01*
X94717268Y-76762574D02*
X92047322Y-76762574D01*
X79831900Y-77633410D02*
X77520190Y-75321700D01*
X111190000Y-58440000D02*
X111170000Y-58420000D01*
X158650000Y-101590000D02*
X161556200Y-98683800D01*
X107971024Y-77470000D02*
X106730000Y-77470000D01*
X70652207Y-75751204D02*
X70648796Y-75751204D01*
X77520190Y-75321700D02*
X77520190Y-74751256D01*
X115925000Y-89925000D02*
X118390000Y-92390000D01*
X77520190Y-74751256D02*
X77122345Y-74353411D01*
X120320000Y-101590000D02*
X158650000Y-101590000D01*
X77122345Y-74353411D02*
X72050000Y-74353411D01*
X95079000Y-89925000D02*
X112173790Y-89925000D01*
%TO.N,BGACK*%
X71225000Y-77570143D02*
X71823744Y-76971399D01*
X91428972Y-78243028D02*
X92266800Y-77405200D01*
X103876400Y-77615348D02*
X103876400Y-78631400D01*
X71225000Y-77575000D02*
X71225000Y-77570143D01*
X110500000Y-78000000D02*
X114950000Y-78000000D01*
X105165200Y-79335000D02*
X105633800Y-79803600D01*
X95626746Y-76715200D02*
X102976252Y-76715200D01*
X71823744Y-76971399D02*
X78307757Y-76971399D01*
X108688074Y-79803600D02*
X108794874Y-79696800D01*
X103876400Y-78631400D02*
X104580000Y-79335000D01*
X108803200Y-79696800D02*
X110500000Y-78000000D01*
X105633800Y-79803600D02*
X108688074Y-79803600D01*
X92266800Y-77405200D02*
X94936746Y-77405200D01*
X78307757Y-76971399D02*
X79579386Y-78243028D01*
X102976252Y-76715200D02*
X103876400Y-77615348D01*
X73325000Y-131390000D02*
X71135570Y-129200570D01*
X108794874Y-79696800D02*
X108803200Y-79696800D01*
X94936746Y-77405200D02*
X95626746Y-76715200D01*
X104580000Y-79335000D02*
X105165200Y-79335000D01*
X71135570Y-77664430D02*
X71225000Y-77575000D01*
X79579386Y-78243028D02*
X91428972Y-78243028D01*
X71135570Y-129200570D02*
X71135570Y-77664430D01*
%TO.N,BR*%
X91302728Y-77938220D02*
X92173564Y-77067384D01*
X70830760Y-131435760D02*
X70830760Y-77533317D01*
X95500494Y-76410400D02*
X105215400Y-76410400D01*
X70830760Y-77533317D02*
X71697487Y-76666590D01*
X73325000Y-133930000D02*
X70830760Y-131435760D01*
X117550000Y-77328600D02*
X117478600Y-77328600D01*
X108305000Y-78025000D02*
X108305000Y-79100000D01*
X107905000Y-79100000D02*
X108305000Y-79100000D01*
X92173564Y-77067384D02*
X94843510Y-77067384D01*
X105215400Y-76410400D02*
X107905000Y-79100000D01*
X94843510Y-77067384D02*
X95500494Y-76410400D01*
X117154810Y-77004810D02*
X109325190Y-77004810D01*
X109325190Y-77004810D02*
X108305000Y-78025000D01*
X71697487Y-76666590D02*
X78434013Y-76666589D01*
X78434013Y-76666589D02*
X79705643Y-77938219D01*
X79705643Y-77938219D02*
X91302728Y-77938220D01*
X117478600Y-77328600D02*
X117154810Y-77004810D01*
%TO.N,RESET*%
X81838000Y-87888000D02*
X80437399Y-89288601D01*
X110739468Y-81640000D02*
X109536455Y-82843013D01*
X165684200Y-81280000D02*
X170920000Y-81280000D01*
X197005332Y-88605000D02*
X195630000Y-88605000D01*
X93037011Y-87912011D02*
X93013000Y-87888000D01*
X187970000Y-78439000D02*
X187970000Y-79150000D01*
X179023000Y-77581000D02*
X187112000Y-77581000D01*
X101000000Y-86916000D02*
X100003989Y-87912011D01*
X172190000Y-80010000D02*
X176594000Y-80010000D01*
X176594000Y-80010000D02*
X179023000Y-77581000D01*
X74600000Y-89962000D02*
X74600000Y-92025000D01*
X165035609Y-81928591D02*
X165684200Y-81280000D01*
X130210000Y-84530000D02*
X130210000Y-86003200D01*
X161899000Y-86277000D02*
X161899000Y-82863000D01*
X100003989Y-87912011D02*
X93037011Y-87912011D01*
X161280810Y-86895190D02*
X161899000Y-86277000D01*
X197703332Y-89303000D02*
X197005332Y-88605000D01*
X130210000Y-86003200D02*
X131101990Y-86895190D01*
X170920000Y-81280000D02*
X172190000Y-80010000D01*
X128793200Y-81640000D02*
X110739468Y-81640000D01*
X161899000Y-82863000D02*
X162833409Y-81928591D01*
X93013000Y-87888000D02*
X81838000Y-87888000D01*
X187970000Y-79150000D02*
X193126666Y-79150000D01*
X130210000Y-83056800D02*
X128793200Y-81640000D01*
X75273399Y-89288601D02*
X74600000Y-89962000D01*
X162833409Y-81928591D02*
X165035609Y-81928591D01*
X101848039Y-82843013D02*
X101000000Y-83691052D01*
X187112000Y-77581000D02*
X187970000Y-78439000D01*
X80437399Y-89288601D02*
X75273399Y-89288601D01*
X130210000Y-84530000D02*
X130210000Y-83056800D01*
X131101990Y-86895190D02*
X161280810Y-86895190D01*
X109536455Y-82843013D02*
X101848039Y-82843013D01*
X101000000Y-83691052D02*
X101000000Y-86916000D01*
%TO.N,BERR*%
X169834868Y-59156192D02*
X168855191Y-59156191D01*
X168845000Y-59146000D02*
X142582600Y-59146000D01*
X80585827Y-81014173D02*
X91452963Y-81014173D01*
X71749991Y-82981061D02*
X71749991Y-82928362D01*
X71779761Y-82820239D02*
X72548601Y-82051399D01*
X73325000Y-126310000D02*
X71745190Y-124730190D01*
X71745190Y-124730190D02*
X71749985Y-82981067D01*
X109981956Y-79811200D02*
X129152700Y-79811200D01*
X92004190Y-81565400D02*
X95327840Y-81565400D01*
X104542000Y-80718000D02*
X109066830Y-80718000D01*
X179751999Y-59353401D02*
X170032077Y-59353401D01*
X71750000Y-82850000D02*
X71779761Y-82820246D01*
X179913000Y-59192400D02*
X179751999Y-59353401D01*
X101037931Y-81014173D02*
X104245827Y-81014173D01*
X91452963Y-81014173D02*
X92004190Y-81565400D01*
X109066830Y-80718000D02*
X109173630Y-80611200D01*
X139132400Y-78822400D02*
X140320000Y-80010000D01*
X95573640Y-81319600D02*
X100732504Y-81319600D01*
X72548601Y-82051399D02*
X79548601Y-82051399D01*
X130141500Y-78822400D02*
X139132400Y-78822400D01*
X100732504Y-81319600D02*
X101037931Y-81014173D01*
X71749991Y-82928362D02*
X71750000Y-82850000D01*
X71779761Y-82820246D02*
X71779761Y-82820239D01*
X142582600Y-59146000D02*
X141650000Y-60078600D01*
X109173630Y-80611200D02*
X109181956Y-80611200D01*
X79548601Y-82051399D02*
X80585827Y-81014173D01*
X71749985Y-82981067D02*
X71749991Y-82981061D01*
X95327840Y-81565400D02*
X95573640Y-81319600D01*
X168855191Y-59156191D02*
X168845000Y-59146000D01*
X109181956Y-80611200D02*
X109981956Y-79811200D01*
X104245827Y-81014173D02*
X104542000Y-80718000D01*
X129152700Y-79811200D02*
X130141500Y-78822400D01*
X170032077Y-59353401D02*
X169834868Y-59156192D01*
%TO.N,CLK*%
X91644972Y-70869236D02*
X90754337Y-69978601D01*
X85378601Y-69978601D02*
X83290000Y-67890000D01*
X90754337Y-69978601D02*
X85378601Y-69978601D01*
D49*
X122590000Y-86100800D02*
X127169200Y-90680000D01*
X127169200Y-90680000D02*
X129120000Y-90680000D01*
X122590000Y-84530000D02*
X122590000Y-86100800D01*
X170617786Y-87750000D02*
X132050000Y-87750000D01*
D48*
X121485525Y-71378675D02*
X112947608Y-71378674D01*
X121809315Y-71702465D02*
X121485525Y-71378675D01*
X112947608Y-71378674D02*
X112654809Y-71085875D01*
D49*
X175404000Y-88658600D02*
X171526386Y-88658600D01*
D48*
X122375000Y-71702465D02*
X121809315Y-71702465D01*
X107792676Y-71085874D02*
X107576039Y-70869237D01*
D49*
X132050000Y-87750000D02*
X129120000Y-90680000D01*
X171526386Y-88658600D02*
X170617786Y-87750000D01*
D48*
X83290000Y-67890000D02*
X75865000Y-67890000D01*
X91644972Y-70869237D02*
X107576039Y-70869236D01*
X112654809Y-71085875D02*
X107792676Y-71085874D01*
%TO.N,LDS*%
X139030000Y-103610000D02*
X139570000Y-104150000D01*
X206238020Y-101341980D02*
X207330000Y-100250000D01*
X77792048Y-103450000D02*
X75865000Y-103450000D01*
X96479562Y-99446628D02*
X97822714Y-100789780D01*
X141585689Y-103564311D02*
X158555689Y-103564311D01*
X189598020Y-101341980D02*
X206238020Y-101341980D01*
X83046460Y-99446628D02*
X82722669Y-99122837D01*
X104567000Y-105081000D02*
X106038000Y-103610000D01*
X160410000Y-101710000D02*
X189230000Y-101710000D01*
X158555689Y-103564311D02*
X160410000Y-101710000D01*
X106038000Y-103610000D02*
X139030000Y-103610000D01*
X139570000Y-104150000D02*
X141000000Y-104150000D01*
X97822714Y-100789780D02*
X104567000Y-100789780D01*
X82119211Y-99122837D02*
X77792048Y-103450000D01*
X82722669Y-99122837D02*
X82119211Y-99122837D01*
X189230000Y-101710000D02*
X189598020Y-101341980D01*
X141000000Y-104150000D02*
X141585689Y-103564311D01*
X83046460Y-99446628D02*
X96479562Y-99446628D01*
%TO.N,UDS*%
X81868183Y-98942799D02*
X81992955Y-98818027D01*
X83172716Y-99141818D02*
X96605818Y-99141818D01*
X97260600Y-99796600D02*
X102322514Y-99796600D01*
X81992955Y-98818027D02*
X82848926Y-98818028D01*
X79327979Y-98942799D02*
X81868183Y-98942799D01*
X82848926Y-98818028D02*
X83172716Y-99141818D01*
X78198746Y-100072032D02*
X79327979Y-98942799D01*
X96605818Y-99141818D02*
X97260600Y-99796600D01*
%TO.N,AS*%
X99730000Y-84530000D02*
X99730000Y-86400931D01*
X165379400Y-80772000D02*
X164527609Y-81623791D01*
X110613216Y-81335200D02*
X109410203Y-82538213D01*
X94923271Y-87607201D02*
X94895383Y-87579313D01*
X164527609Y-81623791D02*
X129208043Y-81623791D01*
X129208043Y-81623791D02*
X128919452Y-81335200D01*
X72050257Y-122495256D02*
X73325000Y-123770000D01*
X99730000Y-86400931D02*
X98523729Y-87607202D01*
X76563934Y-86800000D02*
X72500000Y-86800000D01*
X101721787Y-82538213D02*
X99730000Y-84530000D01*
X172201707Y-79279132D02*
X170708839Y-80772000D01*
X170708839Y-80772000D02*
X165379400Y-80772000D01*
X94895383Y-87579313D02*
X77343247Y-87579313D01*
X72500000Y-86800000D02*
X72054304Y-87245696D01*
X72050257Y-122495256D02*
X72054304Y-87245696D01*
X99701000Y-88877000D02*
X114914000Y-88877000D01*
X98523729Y-87607202D02*
X94923271Y-87607201D01*
X109410203Y-82538213D02*
X101721787Y-82538213D01*
X77343247Y-87579313D02*
X76563934Y-86800000D01*
X128919452Y-81335200D02*
X110613216Y-81335200D01*
%TO.N,BG*%
X108940578Y-80413200D02*
X109047378Y-80306400D01*
X104376800Y-80413200D02*
X108940578Y-80413200D01*
X71445215Y-82723712D02*
X71474976Y-82693958D01*
X92130442Y-81260600D02*
X93589558Y-81260600D01*
X71440380Y-126965380D02*
X71440380Y-82859620D01*
X79422345Y-81746589D02*
X80459570Y-80709364D01*
X80459570Y-80709364D02*
X91579206Y-80709364D01*
X71445191Y-82723743D02*
X71445214Y-82723720D01*
X109855704Y-79506400D02*
X112090950Y-79506400D01*
X109055704Y-80306400D02*
X109855704Y-79506400D01*
X93589558Y-81260600D02*
X93835358Y-81014800D01*
X91579206Y-80709364D02*
X92130442Y-81260600D01*
X73325000Y-128850000D02*
X71440380Y-126965380D01*
X72422344Y-81746590D02*
X79422345Y-81746589D01*
X71440380Y-82859620D02*
X71445191Y-82854809D01*
X71445191Y-82854809D02*
X71445191Y-82723743D01*
X100606252Y-81014800D02*
X100911689Y-80709363D01*
X112090950Y-79506400D02*
X112450000Y-79147350D01*
X109047378Y-80306400D02*
X109055704Y-80306400D01*
X93835358Y-81014800D02*
X100606252Y-81014800D01*
X71474976Y-82693958D02*
X72422344Y-81746590D01*
X104080637Y-80709363D02*
X104376800Y-80413200D01*
X71445214Y-82723720D02*
X71445215Y-82723712D01*
X100911689Y-80709363D02*
X104080637Y-80709363D01*
%TO.N,FC2*%
X172729000Y-77351000D02*
X172946590Y-77133410D01*
X150550000Y-80671400D02*
X150835801Y-80957201D01*
X189744000Y-77616200D02*
X208423800Y-77616200D01*
X105091949Y-82233413D02*
X105388162Y-81937200D01*
X110486964Y-81030400D02*
X129045704Y-81030400D01*
X172946590Y-77133410D02*
X188046390Y-77133410D01*
X129334285Y-81318981D02*
X149902419Y-81318981D01*
X188653800Y-76526000D02*
X189744000Y-77616200D01*
X81775000Y-84400000D02*
X83390400Y-82784600D01*
X109678638Y-81830400D02*
X109686964Y-81830400D01*
X163682931Y-80957201D02*
X167289132Y-77351000D01*
X109571838Y-81937200D02*
X109678638Y-81830400D01*
X208423800Y-77616200D02*
X208892400Y-77147600D01*
X101542899Y-82233413D02*
X105091949Y-82233413D01*
X208892400Y-77147600D02*
X208892400Y-75395430D01*
X167289132Y-77351000D02*
X172729000Y-77351000D01*
X129045704Y-81030400D02*
X129334285Y-81318981D01*
X150835801Y-80957201D02*
X163682931Y-80957201D01*
X100991712Y-82784600D02*
X101542899Y-82233413D01*
X188046390Y-77133410D02*
X188653800Y-76526000D01*
X105388162Y-81937200D02*
X109571838Y-81937200D01*
X81746872Y-93290000D02*
X81754073Y-93297201D01*
X83390400Y-82784600D02*
X100991712Y-82784600D01*
X149902419Y-81318981D02*
X150550000Y-80671400D01*
X75865000Y-93290000D02*
X81746872Y-93290000D01*
X109686964Y-81830400D02*
X110486964Y-81030400D01*
%TO.N,FC1*%
X104841397Y-81928603D02*
X101416657Y-81928603D01*
X187886780Y-74898220D02*
X188349000Y-74436000D01*
X100865460Y-82479800D02*
X82295200Y-82479800D01*
X151137530Y-80328600D02*
X150851729Y-80042799D01*
X207230000Y-75070000D02*
X207600000Y-74700000D01*
X153050000Y-80328600D02*
X163880466Y-80328600D01*
X109445586Y-81632400D02*
X105137600Y-81632400D01*
X82295200Y-82479800D02*
X81025000Y-83750000D01*
X188983000Y-75070000D02*
X207230000Y-75070000D01*
X109560712Y-81525600D02*
X109552386Y-81525600D01*
X109552386Y-81525600D02*
X109445586Y-81632400D01*
X101416657Y-81928603D02*
X100865460Y-82479800D01*
X169310846Y-74898220D02*
X187886780Y-74898220D01*
X163880466Y-80328600D02*
X169310846Y-74898220D01*
X153050000Y-80328600D02*
X151137530Y-80328600D01*
X110360712Y-80725600D02*
X109560712Y-81525600D01*
X75865000Y-90750000D02*
X81000000Y-90750000D01*
X150851729Y-80042799D02*
X150248271Y-80042799D01*
X150248271Y-80042799D02*
X149276899Y-81014171D01*
X105137600Y-81632400D02*
X104841397Y-81928603D01*
X188349000Y-74436000D02*
X188983000Y-75070000D01*
X149276899Y-81014171D02*
X129460527Y-81014171D01*
X129171956Y-80725600D02*
X110360712Y-80725600D01*
X129460527Y-81014171D02*
X129171956Y-80725600D01*
%TO.N,FC0*%
X187105266Y-72053400D02*
X207196600Y-72053400D01*
X208110000Y-68263034D02*
X207653800Y-67806834D01*
X188044200Y-73805800D02*
X188044200Y-73217000D01*
X186076666Y-71024800D02*
X187105266Y-72053400D01*
X110234460Y-80420800D02*
X109434460Y-81220800D01*
X100985008Y-81929200D02*
X100576682Y-81929200D01*
X149150643Y-80709361D02*
X129586770Y-80709362D01*
X109319334Y-81327600D02*
X104902400Y-81327600D01*
X100330882Y-82175000D02*
X91751686Y-82175000D01*
X129586770Y-80709362D02*
X129298208Y-80420800D01*
X169184590Y-74593410D02*
X187264590Y-74593410D01*
X81776207Y-81623793D02*
X80325000Y-83075000D01*
X80290000Y-88210000D02*
X80292086Y-88207914D01*
X155650000Y-79700000D02*
X150160004Y-79700000D01*
X208110000Y-71140000D02*
X208110000Y-68263034D01*
X104606207Y-81623793D02*
X101290415Y-81623793D01*
X109426134Y-81220800D02*
X109319334Y-81327600D01*
X150160004Y-79700000D02*
X149150643Y-80709361D01*
X207196600Y-72053400D02*
X208110000Y-71140000D01*
X75865000Y-88210000D02*
X80290000Y-88210000D01*
X91200479Y-81623793D02*
X81776207Y-81623793D01*
X109434460Y-81220800D02*
X109426134Y-81220800D01*
X187264590Y-74585410D02*
X188044200Y-73805800D01*
X187264590Y-74593410D02*
X187264590Y-74585410D01*
X101290415Y-81623793D02*
X100985008Y-81929200D01*
X164078000Y-79700000D02*
X169184590Y-74593410D01*
X104902400Y-81327600D02*
X104606207Y-81623793D01*
X129298208Y-80420800D02*
X110234460Y-80420800D01*
X91751686Y-82175000D02*
X91200479Y-81623793D01*
X100576682Y-81929200D02*
X100330882Y-82175000D01*
X155650000Y-79700000D02*
X164078000Y-79700000D01*
D50*
%TO.N,VCC*%
X129005000Y-77355000D02*
X129000000Y-77360000D01*
X147841000Y-111760000D02*
X150776400Y-111760000D01*
X96030800Y-77915800D02*
X95990000Y-77915800D01*
X198855000Y-146100000D02*
X198855000Y-145265000D01*
X221465000Y-87605000D02*
X221480000Y-87620000D01*
X122540000Y-59080000D02*
X125130000Y-61670000D01*
X212825000Y-64615000D02*
X213020000Y-64420000D01*
X104605000Y-77685000D02*
X105610000Y-78690000D01*
X107825000Y-58420000D02*
X106820000Y-58420000D01*
X120050000Y-82790000D02*
X120050000Y-84530000D01*
X135410000Y-91945000D02*
X134215000Y-91945000D01*
X194965000Y-90255000D02*
X194460000Y-90760000D01*
D51*
X213772000Y-139890000D02*
X213100000Y-139890000D01*
D50*
X121840000Y-82370000D02*
X120470000Y-82370000D01*
X213230000Y-85810000D02*
X212695200Y-86344800D01*
X178918000Y-129467000D02*
X178918000Y-130962000D01*
X100150000Y-79045000D02*
X100150000Y-78490000D01*
X137720000Y-93465000D02*
X137720000Y-90590000D01*
X121005000Y-59080000D02*
X122540000Y-59080000D01*
X125575000Y-106875000D02*
X126000000Y-107300000D01*
X96845000Y-78730000D02*
X96030800Y-77915800D01*
X122441000Y-112014000D02*
X126449600Y-112014000D01*
X219375000Y-64595000D02*
X219600000Y-64370000D01*
X130160000Y-77355000D02*
X129005000Y-77355000D01*
X212695200Y-86344800D02*
X209230000Y-86344800D01*
X106020000Y-79100000D02*
X105610000Y-78690000D01*
X106655000Y-79100000D02*
X106020000Y-79100000D01*
X218210000Y-64595000D02*
X219375000Y-64595000D01*
X213230000Y-84205000D02*
X213230000Y-85810000D01*
X100365000Y-78490000D02*
X100955000Y-77900000D01*
X190425000Y-145395000D02*
X189660000Y-144630000D01*
X192981466Y-59040000D02*
X193696666Y-58324800D01*
X211580000Y-64615000D02*
X212825000Y-64615000D01*
X113593000Y-90687000D02*
X113610000Y-90670000D01*
D51*
X214210000Y-137600000D02*
X213772000Y-138038000D01*
D49*
X101825000Y-109825000D02*
X101820000Y-109830000D01*
D50*
X190425000Y-146130000D02*
X190425000Y-145395000D01*
X159800000Y-105376000D02*
X160020000Y-105156000D01*
X113593000Y-91761000D02*
X113593000Y-90687000D01*
X194460000Y-90760000D02*
X192935000Y-90760000D01*
X202598000Y-120685000D02*
X202112000Y-120199000D01*
X120470000Y-82370000D02*
X120050000Y-82790000D01*
D49*
X99175000Y-112190000D02*
X102073600Y-112190000D01*
D51*
X213772000Y-138038000D02*
X213772000Y-139890000D01*
D50*
X201950000Y-104952000D02*
X201950000Y-105640000D01*
D51*
X213100000Y-139890000D02*
X211800000Y-138590000D01*
D50*
X182880000Y-116332000D02*
X182880000Y-117155000D01*
X93685000Y-78845000D02*
X92910000Y-79620000D01*
X221465000Y-86340000D02*
X221465000Y-87605000D01*
X100150000Y-79045000D02*
X99815000Y-79380000D01*
X178918000Y-130962000D02*
X178816000Y-131064000D01*
X99815000Y-79380000D02*
X99815000Y-79880000D01*
X100150000Y-78490000D02*
X100365000Y-78490000D01*
X179005000Y-58310000D02*
X182055200Y-58310000D01*
D51*
X201070000Y-133585000D02*
X199736800Y-133585000D01*
D50*
X204070000Y-120685000D02*
X202598000Y-120685000D01*
X195630000Y-90255000D02*
X194965000Y-90255000D01*
X132680000Y-104350000D02*
X132720000Y-104390000D01*
X86601000Y-91058000D02*
X87205000Y-90454000D01*
X201950000Y-105640000D02*
X201590000Y-106000000D01*
X86601000Y-93726000D02*
X86601000Y-91058000D01*
X159800000Y-106514000D02*
X159800000Y-105376000D01*
D51*
X199736800Y-133585000D02*
X199723800Y-133572000D01*
D50*
X133540000Y-97315000D02*
X133540000Y-96220000D01*
X131535000Y-104350000D02*
X132680000Y-104350000D01*
X213790000Y-78720000D02*
X216845200Y-78720000D01*
X198855000Y-145265000D02*
X198140000Y-144550000D01*
X124750000Y-106875000D02*
X125575000Y-106875000D01*
X171717000Y-111760000D02*
X174976400Y-111760000D01*
X86601000Y-93726000D02*
X86601000Y-97275000D01*
X134215000Y-91945000D02*
X134170000Y-91990000D01*
X190865000Y-59040000D02*
X192981466Y-59040000D01*
D51*
X215655000Y-137600000D02*
X214210000Y-137600000D01*
D49*
X101825000Y-108640000D02*
X101825000Y-109825000D01*
D50*
X202325000Y-58340000D02*
X205308132Y-58340000D01*
X182880000Y-117155000D02*
X182500000Y-117535000D01*
X192935000Y-90760000D02*
X192550000Y-90375000D01*
X133540000Y-96220000D02*
X133550000Y-96210000D01*
D51*
%TO.N,GND*%
X199723800Y-132048000D02*
X201057000Y-132048000D01*
D52*
X220480000Y-136270000D02*
X221060000Y-135690000D01*
D50*
X119455000Y-59080000D02*
X117560000Y-59080000D01*
X120891000Y-112014000D02*
X118053800Y-112014000D01*
X146291000Y-111760000D02*
X145034000Y-111760000D01*
X168656000Y-111760000D02*
X168402000Y-112014000D01*
X200775000Y-59685000D02*
X200780000Y-59690000D01*
X197430000Y-134135000D02*
X197430000Y-133370000D01*
X176860000Y-58310000D02*
X176330000Y-57780000D01*
X113593000Y-94493000D02*
X113610000Y-94510000D01*
X125693025Y-105325000D02*
X125989025Y-105029000D01*
D49*
X97625000Y-112115000D02*
X98540000Y-111200000D01*
D50*
X202616000Y-122235000D02*
X202112000Y-122739000D01*
D52*
X220480000Y-136810000D02*
X220480000Y-136270000D01*
D50*
X225200000Y-79709000D02*
X223999000Y-80910000D01*
X225200000Y-78095000D02*
X225200000Y-79709000D01*
X117560000Y-59080000D02*
X114970000Y-61670000D01*
X137720000Y-95015000D02*
X137215000Y-95015000D01*
X203500000Y-105580000D02*
X203890000Y-105970000D01*
D52*
X213082290Y-137307636D02*
X213032637Y-137357289D01*
X220975000Y-144415000D02*
X221060000Y-144330000D01*
X220480000Y-143210000D02*
X220480000Y-143750000D01*
D50*
X88151000Y-92048000D02*
X89745000Y-90454000D01*
D52*
X214865000Y-144370000D02*
X214910000Y-144415000D01*
D50*
X124400000Y-82370000D02*
X125130000Y-83100000D01*
D52*
X220480000Y-143750000D02*
X221060000Y-144330000D01*
D50*
X189315000Y-58695000D02*
X190080000Y-57930000D01*
X178918000Y-127917000D02*
X178918000Y-126594000D01*
X137215000Y-95015000D02*
X135840000Y-96390000D01*
X189315000Y-59040000D02*
X189315000Y-58695000D01*
D52*
X213367600Y-137307636D02*
X213082290Y-137307636D01*
D50*
X159800000Y-108064000D02*
X159800000Y-109000000D01*
X125130000Y-83100000D02*
X125130000Y-84530000D01*
X212240000Y-78720000D02*
X209234800Y-78720000D01*
X123390000Y-82370000D02*
X124400000Y-82370000D01*
X113593000Y-93311000D02*
X113593000Y-94493000D01*
X200775000Y-58340000D02*
X200775000Y-59685000D01*
D52*
X214025236Y-136650000D02*
X213367600Y-137307636D01*
D50*
X204070000Y-122235000D02*
X202616000Y-122235000D01*
X221005000Y-144385000D02*
X221060000Y-144330000D01*
X178918000Y-126594000D02*
X178816000Y-126492000D01*
X203500000Y-104952000D02*
X203500000Y-105580000D01*
X124750000Y-105325000D02*
X125693025Y-105325000D01*
D52*
X212810000Y-144370000D02*
X214865000Y-144370000D01*
D50*
X159800000Y-109000000D02*
X160274000Y-109474000D01*
X170167000Y-111760000D02*
X168656000Y-111760000D01*
X188976000Y-134099000D02*
X188976000Y-132842000D01*
X88151000Y-93726000D02*
X88151000Y-92048000D01*
X197430000Y-133370000D02*
X198020000Y-132780000D01*
X177455000Y-58310000D02*
X176860000Y-58310000D01*
D52*
X218265000Y-136650000D02*
X214025236Y-136650000D01*
X214910000Y-144415000D02*
X220975000Y-144415000D01*
D48*
%TO.N,EVENROMSEL*%
X107107000Y-97461000D02*
X107507000Y-97461000D01*
X109025000Y-98979000D02*
X115409000Y-98979000D01*
X107507000Y-97461000D02*
X109025000Y-98979000D01*
X118030000Y-101600000D02*
X119370000Y-101600000D01*
X119370000Y-101600000D02*
X119385996Y-101584004D01*
X115409000Y-98979000D02*
X118030000Y-101600000D01*
%TO.N,ODDRAMSEL*%
X139330000Y-103150000D02*
X139772400Y-103592400D01*
X109632000Y-101874000D02*
X110908000Y-103150000D01*
X140817600Y-103592400D02*
X141550420Y-102859580D01*
X110908000Y-103150000D02*
X139330000Y-103150000D01*
X148995735Y-102859580D02*
X149044266Y-102908111D01*
X139772400Y-103592400D02*
X140817600Y-103592400D01*
X141550420Y-102859580D02*
X148995735Y-102859580D01*
%TO.N,EVENRAMSEL*%
X159016598Y-102240204D02*
X113126443Y-102240204D01*
X160954802Y-100302000D02*
X175807998Y-100302000D01*
X175807998Y-100302000D02*
X176770000Y-99339998D01*
X113126443Y-102240204D02*
X112167000Y-101280761D01*
X160954802Y-100302000D02*
X159016598Y-102240204D01*
%TO.N,IOSEL*%
X79085000Y-86350000D02*
X97593399Y-86350000D01*
X205841399Y-56122399D02*
X206997600Y-57278600D01*
X99042000Y-56248000D02*
X99070685Y-56248000D01*
X99070685Y-56248000D02*
X99196286Y-56122399D01*
X98550000Y-56740000D02*
X99042000Y-56248000D01*
X99196286Y-56122399D02*
X205841399Y-56122399D01*
X97593399Y-86350000D02*
X98222000Y-86978601D01*
X98550000Y-59290000D02*
X98550000Y-56740000D01*
X206997600Y-57278600D02*
X206997600Y-69750532D01*
X79085000Y-86350000D02*
X75865000Y-83130000D01*
X206997600Y-69750532D02*
X205723332Y-71024800D01*
%TO.N,EXPSEL*%
X76849810Y-86654810D02*
X94901210Y-86654810D01*
X98877000Y-93424000D02*
X99487000Y-94034000D01*
X106970000Y-122130000D02*
X106088280Y-123011720D01*
X99487000Y-94034000D02*
X99487000Y-97461000D01*
X96064210Y-93424000D02*
X98877000Y-93424000D01*
X99381720Y-123011720D02*
X98470000Y-122100000D01*
X75865000Y-85670000D02*
X76849810Y-86654810D01*
X94901210Y-86654810D02*
X95225000Y-86978600D01*
X99381720Y-123011720D02*
X106088280Y-123011720D01*
D50*
%TO.N,Net-(IC4-X1{slash}CLK)*%
X190750800Y-135661400D02*
X188988400Y-135661400D01*
%TO.N,Net-(IC4-X2)*%
X195630800Y-135661400D02*
X197319600Y-135661400D01*
%TO.N,Net-(LED1-PadA)*%
X188775000Y-146130000D02*
X186738000Y-146130000D01*
%TO.N,Net-(LED2-PadA)*%
X197205000Y-146100000D02*
X195072800Y-146100000D01*
%TO.N,Net-(IC15-THR)*%
X219831200Y-73701200D02*
X221459000Y-75329000D01*
X221459000Y-75329000D02*
X221459000Y-80910000D01*
X218564200Y-83804800D02*
X221459000Y-80910000D01*
X216850000Y-83804800D02*
X218564200Y-83804800D01*
X212099800Y-81264800D02*
X209230000Y-81264800D01*
X214639800Y-83804800D02*
X212099800Y-81264800D01*
X216850000Y-83804800D02*
X214639800Y-83804800D01*
D49*
%TO.N,Net-(IC15-CV)*%
X218300000Y-86344800D02*
X218304800Y-86340000D01*
X218300000Y-86344800D02*
X216850000Y-86344800D01*
X218304800Y-86340000D02*
X219915000Y-86340000D01*
D50*
%TO.N,Net-(LED4-PadA)*%
X218210000Y-62945000D02*
X218210000Y-60850000D01*
D48*
%TO.N,HALT*%
X193118666Y-88725000D02*
X193696666Y-89303000D01*
X170239265Y-86871399D02*
X171397866Y-88030000D01*
X190790000Y-88030000D02*
X191485000Y-88725000D01*
X192550000Y-88725000D02*
X193118666Y-88725000D01*
X171397866Y-88030000D02*
X190790000Y-88030000D01*
X127650000Y-87200000D02*
X166050000Y-87200000D01*
X191485000Y-88725000D02*
X192550000Y-88725000D01*
X166050000Y-87200000D02*
X166378601Y-86871399D01*
X166378601Y-86871399D02*
X170239265Y-86871399D01*
%TO.N,RW*%
X173687600Y-119443600D02*
X172658990Y-118414990D01*
X94591026Y-76457764D02*
X95348790Y-75700000D01*
X179872000Y-123986000D02*
X181314000Y-123986000D01*
X91921080Y-76457764D02*
X94591026Y-76457764D01*
X129931000Y-120579000D02*
X124997000Y-120579000D01*
X77248601Y-74048601D02*
X77825000Y-74625000D01*
X106600002Y-75700000D02*
X107350000Y-76449998D01*
X177020000Y-121134000D02*
X179872000Y-123986000D01*
X95348790Y-75700000D02*
X106600002Y-75700000D01*
X154356400Y-119443600D02*
X150840000Y-119443600D01*
X77825000Y-75195444D02*
X79958157Y-77328601D01*
X124997000Y-120579000D02*
X124018000Y-119600000D01*
X73325000Y-139010000D02*
X70221140Y-135906140D01*
X79958157Y-77328601D02*
X91050243Y-77328601D01*
X124018000Y-119600000D02*
X117410000Y-119600000D01*
X177020000Y-120071200D02*
X177020000Y-121134000D01*
X77825000Y-74625000D02*
X77825000Y-75195444D01*
X150840000Y-119443600D02*
X149811390Y-118414990D01*
X175040000Y-119443600D02*
X176392400Y-119443600D01*
X70221140Y-75747794D02*
X71920333Y-74048601D01*
X71920333Y-74048601D02*
X77248601Y-74048601D01*
X103472000Y-86127000D02*
X107226200Y-86127000D01*
X70221140Y-135906140D02*
X70221140Y-75747794D01*
X176392400Y-119443600D02*
X177020000Y-120071200D01*
X132095010Y-118414990D02*
X129931000Y-120579000D01*
X107226200Y-86127000D02*
X107350000Y-86003200D01*
X155385010Y-118414990D02*
X154356400Y-119443600D01*
X172658990Y-118414990D02*
X155385010Y-118414990D01*
X107350000Y-86003200D02*
X107350000Y-84530000D01*
X91050243Y-77328601D02*
X91921080Y-76457764D01*
X149811390Y-118414990D02*
X132095010Y-118414990D01*
X175040000Y-119443600D02*
X173687600Y-119443600D01*
%TO.N,BOOT*%
X105710000Y-57055809D02*
X106033790Y-56732019D01*
X190234925Y-56732019D02*
X191062498Y-57559592D01*
X106033790Y-56732019D02*
X190234925Y-56732019D01*
D49*
%TO.N,VPA*%
X134375000Y-89260000D02*
X135410000Y-90295000D01*
D48*
X86233278Y-71478855D02*
X107303855Y-71478854D01*
D49*
X134190000Y-89260000D02*
X134375000Y-89260000D01*
D48*
X121859217Y-72635875D02*
X121211635Y-71988293D01*
X86233278Y-71478854D02*
X84742132Y-72970000D01*
X107520494Y-71695494D02*
X107303855Y-71478855D01*
X121211635Y-71988293D02*
X112695094Y-71988292D01*
X130825000Y-72635876D02*
X121859217Y-72635875D01*
X112695094Y-71988292D02*
X112402296Y-71695494D01*
X131164124Y-72975000D02*
X130825000Y-72635876D01*
X137900000Y-72975000D02*
X131164124Y-72975000D01*
X112402296Y-71695494D02*
X107520494Y-71695494D01*
X84742132Y-72970000D02*
X75865000Y-72970000D01*
%TO.N,E*%
X79069886Y-75510000D02*
X79034886Y-75475000D01*
X134976210Y-73279810D02*
X131037868Y-73279810D01*
X107394238Y-72000304D02*
X107177597Y-71783663D01*
X121085377Y-72293101D02*
X112568839Y-72293101D01*
X112568839Y-72293101D02*
X112276040Y-72000304D01*
X135300000Y-73603600D02*
X134976210Y-73279810D01*
X86359535Y-71783663D02*
X82633198Y-75510000D01*
X121732962Y-72940684D02*
X121085377Y-72293101D01*
X130698742Y-72940684D02*
X121732962Y-72940684D01*
X107177597Y-71783663D02*
X86359535Y-71783663D01*
X82633198Y-75510000D02*
X79069886Y-75510000D01*
X112276040Y-72000304D02*
X107394238Y-72000304D01*
X131037868Y-73279810D02*
X130698742Y-72940684D01*
%TO.N,VMA*%
X110108208Y-80116000D02*
X129424460Y-80116000D01*
X78894000Y-83320000D02*
X80895017Y-81318983D01*
X104717200Y-81022800D02*
X109193082Y-81022800D01*
X132102419Y-80404551D02*
X132750000Y-79756970D01*
X101164173Y-81318983D02*
X104421017Y-81318983D01*
X129424460Y-80116000D02*
X129713011Y-80404551D01*
X100858756Y-81624400D02*
X101164173Y-81318983D01*
X109299882Y-80916000D02*
X109308208Y-80916000D01*
X129713011Y-80404551D02*
X132102419Y-80404551D01*
X98680970Y-81870200D02*
X98926770Y-81624400D01*
X109308208Y-80916000D02*
X110108208Y-80116000D01*
X104421017Y-81318983D02*
X104717200Y-81022800D01*
X80895017Y-81318983D02*
X91326721Y-81318983D01*
X91326721Y-81318983D02*
X91877938Y-81870200D01*
X91877938Y-81870200D02*
X98680970Y-81870200D01*
X109193082Y-81022800D02*
X109299882Y-80916000D01*
X98926770Y-81624400D02*
X100858756Y-81624400D01*
D50*
%TO.N,Net-(LED3-PadA)*%
X211580000Y-62965000D02*
X211580000Y-60950000D01*
D48*
%TO.N,A6*%
X202371780Y-69996190D02*
X202378590Y-70003000D01*
X131290000Y-128250000D02*
X124550000Y-128250000D01*
X123383600Y-127083600D02*
X109866400Y-127083600D01*
X108750000Y-128200000D02*
X94100000Y-128200000D01*
X124550000Y-128250000D02*
X123383600Y-127083600D01*
X163254000Y-65811800D02*
X163254000Y-66377485D01*
X138850000Y-73937730D02*
X163250000Y-73937730D01*
X163254000Y-66377485D02*
X166197814Y-69321299D01*
X135600000Y-127063600D02*
X132476400Y-127063600D01*
X94100000Y-128200000D02*
X92983600Y-127083600D01*
X109866400Y-127083600D02*
X108750000Y-128200000D01*
X166197814Y-69321299D02*
X171354299Y-69321299D01*
X172029190Y-69996190D02*
X202371780Y-69996190D01*
X158447600Y-127063600D02*
X159800000Y-127063600D01*
X132476400Y-127063600D02*
X131290000Y-128250000D01*
X135600000Y-127063600D02*
X138763600Y-127063600D01*
X77675000Y-127625000D02*
X86658600Y-127625000D01*
X157411200Y-128100000D02*
X158447600Y-127063600D01*
X138763600Y-127063600D02*
X138800000Y-127100000D01*
X92983600Y-127083600D02*
X87200000Y-127083600D01*
X139800000Y-128100000D02*
X138800000Y-127100000D01*
X157411200Y-128100000D02*
X139800000Y-128100000D01*
X171354299Y-69321299D02*
X172029190Y-69996190D01*
%TO.N,A7*%
X160663567Y-73272697D02*
X160700000Y-73309130D01*
X201329789Y-69691380D02*
X201749990Y-69271179D01*
X77675000Y-125050000D02*
X86693600Y-125050000D01*
X171480556Y-69016490D02*
X172155446Y-69691380D01*
X124400000Y-125800000D02*
X123143600Y-124543600D01*
X167380489Y-69016489D02*
X171480556Y-69016490D01*
X103300000Y-125800000D02*
X104252080Y-124847920D01*
X141673600Y-124523600D02*
X141700000Y-124550000D01*
X135600000Y-124523600D02*
X131926400Y-124523600D01*
X87200000Y-124543600D02*
X93143600Y-124543600D01*
X123143600Y-124543600D02*
X111400000Y-124543600D01*
X154445334Y-124523600D02*
X153416724Y-125552210D01*
X163547200Y-65183200D02*
X167380489Y-69016489D01*
X160678000Y-65183200D02*
X163547200Y-65183200D01*
X139531763Y-73272697D02*
X160663567Y-73272697D01*
X93143600Y-124543600D02*
X94400000Y-125800000D01*
X130650000Y-125800000D02*
X124400000Y-125800000D01*
X131926400Y-124523600D02*
X130650000Y-125800000D01*
X141700000Y-124550000D02*
X142702210Y-125552210D01*
X94400000Y-125800000D02*
X103300000Y-125800000D01*
X142702210Y-125552210D02*
X153416724Y-125552210D01*
X159800000Y-124523600D02*
X154445334Y-124523600D01*
X135600000Y-124523600D02*
X141673600Y-124523600D01*
X104252080Y-124847920D02*
X111075680Y-124847920D01*
X172155446Y-69691380D02*
X201329789Y-69691380D01*
%TO.N,A8*%
X132116400Y-121983600D02*
X130750000Y-123350000D01*
X199453000Y-67452000D02*
X201124400Y-67452000D01*
X165939299Y-66781299D02*
X171357299Y-66781299D01*
X124400000Y-123350000D02*
X123033600Y-121983600D01*
X123033600Y-121983600D02*
X111400000Y-121983600D01*
X108650000Y-123330000D02*
X94830000Y-123330000D01*
X144262210Y-123012210D02*
X143200000Y-121950000D01*
X158154000Y-64554600D02*
X163712600Y-64554600D01*
X111400000Y-121983600D02*
X109996400Y-121983600D01*
X86703600Y-122500000D02*
X77625000Y-122500000D01*
X94830000Y-123330000D02*
X93503600Y-122003600D01*
X163712600Y-64554600D02*
X165939299Y-66781299D01*
X135600000Y-121983600D02*
X132116400Y-121983600D01*
X141400000Y-72644097D02*
X158150000Y-72644097D01*
X172032190Y-67456190D02*
X199448810Y-67456190D01*
X171357299Y-66781299D02*
X172032190Y-67456190D01*
X93503600Y-122003600D02*
X87200000Y-122003600D01*
X199448810Y-67456190D02*
X199453000Y-67452000D01*
X143166400Y-121983600D02*
X143200000Y-121950000D01*
X135600000Y-121983600D02*
X143166400Y-121983600D01*
X158447600Y-121983600D02*
X157418990Y-123012210D01*
X159800000Y-121983600D02*
X158447600Y-121983600D01*
X109996400Y-121983600D02*
X108650000Y-123330000D01*
X130750000Y-123350000D02*
X124400000Y-123350000D01*
X157418990Y-123012210D02*
X144262210Y-123012210D01*
%TO.N,A9*%
X175040000Y-124523600D02*
X173687600Y-124523600D01*
X144884315Y-124500000D02*
X143879305Y-123494990D01*
X143879305Y-123494990D02*
X131605010Y-123494990D01*
X142950000Y-72015497D02*
X155650000Y-72015497D01*
X130556400Y-124543600D02*
X126640000Y-124543600D01*
X163515066Y-63926000D02*
X166065555Y-66476489D01*
X171483556Y-66476490D02*
X172158446Y-67151380D01*
X173687600Y-124523600D02*
X172658990Y-123494990D01*
X126640000Y-124543600D02*
X125162534Y-124543600D01*
X125162534Y-124543600D02*
X123968934Y-123350000D01*
X145473600Y-124523600D02*
X145450000Y-124500000D01*
X150840000Y-124523600D02*
X145473600Y-124523600D01*
X153226400Y-124523600D02*
X150840000Y-124523600D01*
X110100000Y-123350000D02*
X108906400Y-124543600D01*
X197703332Y-66897200D02*
X197703332Y-65944800D01*
X172658990Y-123494990D02*
X154255010Y-123494990D01*
X172158446Y-67151380D02*
X197449152Y-67151380D01*
X197449152Y-67151380D02*
X197703332Y-66897200D01*
X108906400Y-124543600D02*
X102440000Y-124543600D01*
X131605010Y-123494990D02*
X130556400Y-124543600D01*
X166065555Y-66476489D02*
X171483556Y-66476490D01*
X155662000Y-63926000D02*
X163515066Y-63926000D01*
X123968934Y-123350000D02*
X110100000Y-123350000D01*
X145450000Y-124500000D02*
X144884315Y-124500000D01*
X154255010Y-123494990D02*
X153226400Y-124523600D01*
%TO.N,A10*%
X153070000Y-60196800D02*
X153070000Y-61670000D01*
X143950000Y-71386897D02*
X153050000Y-71386897D01*
X153495190Y-125904810D02*
X152336400Y-127063600D01*
X169431620Y-60070620D02*
X153196180Y-60070620D01*
X146650000Y-127150000D02*
X145534990Y-126034990D01*
X125252534Y-127083600D02*
X124068934Y-125900000D01*
X152336400Y-127063600D02*
X150840000Y-127063600D01*
X175040000Y-127063600D02*
X173687600Y-127063600D01*
X104860000Y-125480000D02*
X103276400Y-127063600D01*
X109640000Y-125490000D02*
X109640000Y-125480000D01*
X169910000Y-60549000D02*
X169431620Y-60070620D01*
X124068934Y-125900000D02*
X110050000Y-125900000D01*
X130666400Y-127083600D02*
X125252534Y-127083600D01*
X145534990Y-126034990D02*
X131715010Y-126034990D01*
X173687600Y-127063600D02*
X172528810Y-125904810D01*
X131715010Y-126034990D02*
X130666400Y-127083600D01*
X110050000Y-125900000D02*
X109640000Y-125490000D01*
X109640000Y-125480000D02*
X104860000Y-125480000D01*
X199958000Y-65391000D02*
X199483190Y-64916190D01*
X169934478Y-60549000D02*
X169910000Y-60549000D01*
X171590000Y-62204522D02*
X169934478Y-60549000D01*
X199483190Y-64916190D02*
X172486190Y-64916190D01*
X146736400Y-127063600D02*
X146650000Y-127150000D01*
X150840000Y-127063600D02*
X146736400Y-127063600D01*
X171590000Y-64020000D02*
X171590000Y-62204522D01*
X172528810Y-125904810D02*
X153495190Y-125904810D01*
X172486190Y-64916190D02*
X171590000Y-64020000D01*
X153196180Y-60070620D02*
X153070000Y-60196800D01*
%TO.N,A11*%
X150530000Y-60196800D02*
X150530000Y-61670000D01*
X173671200Y-134700000D02*
X172626190Y-133654990D01*
X145250000Y-70758297D02*
X150550000Y-70758297D01*
X109625010Y-133674990D02*
X109625010Y-133666990D01*
X138354990Y-133654990D02*
X139383600Y-134683600D01*
X154462210Y-133654990D02*
X153433600Y-134683600D01*
X200495800Y-64310000D02*
X199930115Y-64310000D01*
X102440000Y-134703600D02*
X108596400Y-134703600D01*
X199930115Y-64310000D02*
X199619090Y-64621024D01*
X175040000Y-134683600D02*
X173687600Y-134683600D01*
X199619090Y-64621024D02*
X199609446Y-64611380D01*
X132195010Y-133654990D02*
X138354990Y-133654990D01*
X169582354Y-59765810D02*
X150960990Y-59765810D01*
X131146400Y-134703600D02*
X132195010Y-133654990D01*
X199609446Y-64611380D02*
X172612446Y-64611380D01*
X109625010Y-133666990D02*
X109824000Y-133468000D01*
X108596400Y-134703600D02*
X109625010Y-133674990D01*
X172626190Y-133654990D02*
X154462210Y-133654990D01*
X172612446Y-64611380D02*
X171894810Y-63893744D01*
X153433600Y-134683600D02*
X150840000Y-134683600D01*
X116386954Y-133468000D02*
X117622554Y-134703600D01*
X139383600Y-134683600D02*
X150840000Y-134683600D01*
X171894810Y-63893744D02*
X171894809Y-62078265D01*
X173687600Y-134683600D02*
X173671200Y-134700000D01*
X171894809Y-62078265D02*
X169582354Y-59765810D01*
X117622554Y-134703600D02*
X131146400Y-134703600D01*
X109824000Y-133468000D02*
X116386954Y-133468000D01*
X150960990Y-59765810D02*
X150530000Y-60196800D01*
%TO.N,A12*%
X132975010Y-128574990D02*
X138624990Y-128574990D01*
X157941726Y-129600000D02*
X157945326Y-129603600D01*
X152196000Y-129600000D02*
X154900000Y-129600000D01*
X196214600Y-59821000D02*
X196315600Y-59720000D01*
X170068610Y-59821000D02*
X196214600Y-59821000D01*
X147990000Y-61670000D02*
X147990000Y-60196800D01*
X131926400Y-129623600D02*
X132975010Y-128574990D01*
X173687600Y-129603600D02*
X172300000Y-128216000D01*
X154900000Y-129600000D02*
X157941726Y-129600000D01*
X102440000Y-129623600D02*
X108776400Y-129623600D01*
X109825010Y-128574990D02*
X124238990Y-128574990D01*
X172300000Y-128216000D02*
X159332926Y-128216000D01*
X147990000Y-60196800D02*
X148725800Y-59461000D01*
X108776400Y-129623600D02*
X109825010Y-128574990D01*
X152192400Y-129603600D02*
X152196000Y-129600000D01*
X139653600Y-129603600D02*
X150840000Y-129603600D01*
X125287600Y-129623600D02*
X131926400Y-129623600D01*
X169708611Y-59461001D02*
X170068610Y-59821000D01*
X124238990Y-128574990D02*
X125287600Y-129623600D01*
X175040000Y-129603600D02*
X173687600Y-129603600D01*
X138624990Y-128574990D02*
X139653600Y-129603600D01*
X159332926Y-128216000D02*
X157945326Y-129603600D01*
X152192400Y-129603600D02*
X150840000Y-129603600D01*
X148725800Y-59461000D02*
X169708611Y-59461001D01*
%TO.N,A13*%
X148727790Y-120472210D02*
X147699180Y-119443600D01*
X155077790Y-120472210D02*
X148727790Y-120472210D01*
X159315390Y-88637000D02*
X161712000Y-91033610D01*
X116244600Y-119443600D02*
X117153000Y-120352000D01*
X109245882Y-119443600D02*
X108009482Y-120680000D01*
X111400000Y-119443600D02*
X109245882Y-119443600D01*
X132636400Y-119443600D02*
X135600000Y-119443600D01*
X111400000Y-119443600D02*
X116244600Y-119443600D01*
X135600000Y-119443600D02*
X147699180Y-119443600D01*
X117153000Y-120352000D02*
X124077000Y-120352000D01*
X90512000Y-120810000D02*
X89145600Y-119443600D01*
X105330000Y-120680000D02*
X105200000Y-120810000D01*
X108009482Y-120680000D02*
X105330000Y-120680000D01*
X105200000Y-120810000D02*
X90512000Y-120810000D01*
X131125010Y-120954990D02*
X132636400Y-119443600D01*
X174916000Y-91448000D02*
X201763595Y-91448000D01*
X201763595Y-91448000D02*
X202100723Y-91110872D01*
X161712000Y-91033610D02*
X174501610Y-91033610D01*
X154565000Y-88637000D02*
X159315390Y-88637000D01*
X89145600Y-119443600D02*
X87200000Y-119443600D01*
X174501610Y-91033610D02*
X174916000Y-91448000D01*
X124077000Y-120352000D02*
X124679990Y-120954990D01*
X156150000Y-119400000D02*
X159756400Y-119400000D01*
X124679990Y-120954990D02*
X131125010Y-120954990D01*
X156150000Y-119400000D02*
X155077790Y-120472210D01*
%TO.N,A14*%
X199726495Y-92373561D02*
X201130035Y-92373561D01*
X110150000Y-120800000D02*
X109960000Y-120990000D01*
X156567833Y-64554600D02*
X143651600Y-64554600D01*
X201233800Y-92519800D02*
X201538600Y-92519800D01*
X148458990Y-120954990D02*
X132145010Y-120954990D01*
X201992689Y-92373561D02*
X202042400Y-92423272D01*
X154816400Y-121983600D02*
X156100000Y-120700000D01*
X131096400Y-122003600D02*
X124872534Y-122003600D01*
X201538600Y-92519800D02*
X201538600Y-92373561D01*
X132145010Y-120954990D02*
X131096400Y-122003600D01*
X157450000Y-120700000D02*
X172404000Y-120700000D01*
X149487600Y-121983600D02*
X148458990Y-120954990D01*
X157352000Y-94285000D02*
X159744000Y-94285000D01*
X172404000Y-120700000D02*
X173687600Y-121983600D01*
X174663488Y-92057620D02*
X199410554Y-92057620D01*
X142910000Y-63813000D02*
X142910000Y-61670000D01*
X150840000Y-121983600D02*
X149487600Y-121983600D01*
X104506400Y-121983600D02*
X102440000Y-121983600D01*
X150840000Y-121983600D02*
X154816400Y-121983600D01*
X159744000Y-94285000D02*
X160385000Y-93644000D01*
X109960000Y-120990000D02*
X105480000Y-120990000D01*
X156100000Y-120700000D02*
X157450000Y-120700000D01*
X201233800Y-92477326D02*
X201233800Y-92519800D01*
X175040000Y-121983600D02*
X173687600Y-121983600D01*
X123668934Y-120800000D02*
X110150000Y-120800000D01*
X104610000Y-121880000D02*
X104506400Y-121983600D01*
X160990440Y-91643230D02*
X174249098Y-91643230D01*
X201538600Y-92373561D02*
X201992689Y-92373561D01*
X143651600Y-64554600D02*
X142910000Y-63813000D01*
X160385000Y-93644000D02*
X160385000Y-92248670D01*
X199410554Y-92057620D02*
X199726495Y-92373561D01*
X104610000Y-121860000D02*
X104610000Y-121880000D01*
X124872534Y-122003600D02*
X123668934Y-120800000D01*
X174249098Y-91643230D02*
X174663488Y-92057620D01*
X105480000Y-120990000D02*
X104610000Y-121860000D01*
X160385000Y-92248670D02*
X160990440Y-91643230D01*
X201130035Y-92373561D02*
X201233800Y-92477326D01*
%TO.N,A15*%
X199284298Y-92362430D02*
X200097868Y-93176000D01*
X139460180Y-118110180D02*
X138253600Y-116903600D01*
X116023743Y-118454809D02*
X124253191Y-118454809D01*
X157241020Y-118110180D02*
X139460180Y-118110180D01*
X129616400Y-119443600D02*
X126640000Y-119443600D01*
X110484116Y-118504810D02*
X110573936Y-118414990D01*
X100802790Y-119158790D02*
X101087600Y-119443600D01*
X140400000Y-64700000D02*
X140799999Y-65099999D01*
X159800000Y-116903600D02*
X158447600Y-116903600D01*
X85677000Y-118223000D02*
X90236000Y-118223000D01*
X125287600Y-119443600D02*
X124276000Y-118432000D01*
X115983924Y-118414990D02*
X116023743Y-118454809D01*
X156419903Y-65337000D02*
X157365000Y-65337000D01*
X174122842Y-91948040D02*
X174537232Y-92362430D01*
X132156400Y-116903600D02*
X129616400Y-119443600D01*
X158447600Y-116903600D02*
X157241020Y-118110180D01*
X101087600Y-119443600D02*
X102440000Y-119443600D01*
X156182902Y-65099999D02*
X156419903Y-65337000D01*
X174537232Y-92362430D02*
X199284298Y-92362430D01*
X135600000Y-116903600D02*
X132156400Y-116903600D01*
X102440000Y-119443600D02*
X103792400Y-119443600D01*
X161221000Y-92343000D02*
X161786685Y-92343000D01*
X124253191Y-118454809D02*
X124276000Y-118432000D01*
X162181645Y-91948040D02*
X174122842Y-91948040D01*
X140799999Y-65099999D02*
X156182902Y-65099999D01*
X77675000Y-120578600D02*
X83321400Y-120578600D01*
X91171790Y-119158790D02*
X100802790Y-119158790D01*
X110573936Y-118414990D02*
X115983924Y-118414990D01*
X90236000Y-118223000D02*
X91171790Y-119158790D01*
X83321400Y-120578600D02*
X85677000Y-118223000D01*
X200097868Y-93176000D02*
X201386200Y-93176000D01*
X138253600Y-116903600D02*
X135600000Y-116903600D01*
X104731190Y-118504810D02*
X110484116Y-118504810D01*
X126640000Y-119443600D02*
X125287600Y-119443600D01*
X103792400Y-119443600D02*
X104731190Y-118504810D01*
X161786685Y-92343000D02*
X162181645Y-91948040D01*
%TO.N,A16*%
X114540511Y-72597911D02*
X112442583Y-72597911D01*
X104389944Y-118414990D02*
X92264990Y-118414990D01*
X155765010Y-113334990D02*
X154736400Y-114363600D01*
X112149786Y-72305114D02*
X107267981Y-72305113D01*
X150840000Y-114363600D02*
X149487600Y-114363600D01*
X140553934Y-113185000D02*
X148309000Y-113185000D01*
X108771200Y-118200000D02*
X104604933Y-118200001D01*
X84075000Y-76450000D02*
X81400000Y-76450000D01*
X135947045Y-74250000D02*
X116192600Y-74250000D01*
X107267981Y-72305113D02*
X107051341Y-72088473D01*
X116192600Y-74250000D02*
X114540511Y-72597911D01*
X111400000Y-116923600D02*
X110047600Y-116923600D01*
X172658990Y-113334990D02*
X155765010Y-113334990D01*
X110047600Y-116923600D02*
X108771200Y-118200000D01*
X175040000Y-114363600D02*
X173687600Y-114363600D01*
X173687600Y-114363600D02*
X172658990Y-113334990D01*
X149487600Y-114363600D02*
X148309000Y-113185000D01*
X140399115Y-113030181D02*
X140553934Y-113185000D01*
X136825000Y-73937730D02*
X136259315Y-73937730D01*
X90753600Y-116903600D02*
X87200000Y-116903600D01*
X154736400Y-114363600D02*
X150840000Y-114363600D01*
X114119000Y-113185000D02*
X114684685Y-113185000D01*
X114839504Y-113030181D02*
X140399115Y-113030181D01*
X114684685Y-113185000D02*
X114839504Y-113030181D01*
X112442583Y-72597911D02*
X112149786Y-72305114D01*
X136259315Y-73937730D02*
X135947045Y-74250000D01*
X104604933Y-118200001D02*
X104389944Y-118414990D01*
X154400000Y-65750000D02*
X137800000Y-65750000D01*
X92264990Y-118414990D02*
X90753600Y-116903600D01*
X107051341Y-72088473D02*
X88436527Y-72088473D01*
X88436527Y-72088473D02*
X84075000Y-76450000D01*
%TO.N,A17*%
X199852751Y-92068751D02*
X201434672Y-92068751D01*
X201770593Y-91767072D02*
X202314207Y-91767072D01*
X153404000Y-92490000D02*
X154338000Y-92490000D01*
X89787000Y-113129000D02*
X88552400Y-114363600D01*
X115355010Y-113334990D02*
X135523790Y-113334990D01*
X135300000Y-70758297D02*
X132472769Y-70758297D01*
X199536810Y-91752810D02*
X199852751Y-92068751D01*
X154338000Y-92490000D02*
X154343000Y-92485000D01*
X111400000Y-113411200D02*
X111400000Y-114363600D01*
X174789744Y-91752810D02*
X199536810Y-91752810D01*
X121985474Y-72331066D02*
X121337892Y-71683484D01*
X79663486Y-107075000D02*
X74410000Y-107075000D01*
X135523790Y-113334990D02*
X135600000Y-113411200D01*
X155415685Y-115550000D02*
X156602085Y-114363600D01*
X91518715Y-71174045D02*
X90628081Y-70283411D01*
X156602085Y-114363600D02*
X159800000Y-114363600D01*
X201434672Y-92068751D02*
X201540678Y-91962745D01*
X88552400Y-114363600D02*
X87200000Y-114363600D01*
X90628081Y-70283411D02*
X82158411Y-70283411D01*
X135600000Y-113411200D02*
X135600000Y-114363600D01*
X156315000Y-92485000D02*
X157461580Y-91338420D01*
X107666420Y-71390684D02*
X107449782Y-71174046D01*
X148663600Y-114363600D02*
X149850000Y-115550000D01*
X112821351Y-71683483D02*
X112528552Y-71390684D01*
X111117800Y-113129000D02*
X111400000Y-113411200D01*
X149850000Y-115550000D02*
X155415685Y-115550000D01*
X202314207Y-91767072D02*
X202615886Y-92068751D01*
X154343000Y-92485000D02*
X156315000Y-92485000D01*
X135600000Y-114363600D02*
X148663600Y-114363600D01*
X111400000Y-114363600D02*
X114326400Y-114363600D01*
X157461580Y-91338420D02*
X174375354Y-91338420D01*
X121337892Y-71683484D02*
X112821351Y-71683483D01*
X74410000Y-107075000D02*
X73325000Y-105990000D01*
X201554965Y-91962745D02*
X201598665Y-91919045D01*
X201666253Y-91856985D02*
X201680680Y-91856985D01*
X130900000Y-72331066D02*
X121985474Y-72331066D01*
X201680680Y-91856985D02*
X201770593Y-91767072D01*
X112528552Y-71390684D02*
X107666420Y-71390684D01*
X82141822Y-70300000D02*
X81785340Y-70300000D01*
X201604193Y-91919045D02*
X201666253Y-91856985D01*
X132472769Y-70758297D02*
X130900000Y-72331066D01*
X201540678Y-91962745D02*
X201554965Y-91962745D01*
X107449782Y-71174046D02*
X91518715Y-71174045D01*
X203117249Y-92068751D02*
X205943000Y-89243000D01*
X82158411Y-70283411D02*
X82141822Y-70300000D01*
X114326400Y-114363600D02*
X115355010Y-113334990D01*
X89787000Y-113129000D02*
X111117800Y-113129000D01*
X201598665Y-91919045D02*
X201604193Y-91919045D01*
X135300000Y-67600000D02*
X152350000Y-67600000D01*
X202615886Y-92068751D02*
X203117249Y-92068751D01*
X174375354Y-91338420D02*
X174789744Y-91752810D01*
%TO.N,A3*%
X111400000Y-134703600D02*
X110047600Y-134703600D01*
X202459000Y-100713380D02*
X202442380Y-100730000D01*
X164413800Y-100730000D02*
X164200000Y-100943800D01*
X156936210Y-136194990D02*
X139394990Y-136194990D01*
X163230000Y-84530000D02*
X163230000Y-83056800D01*
X135600000Y-134683600D02*
X134247600Y-134683600D01*
X110047600Y-134703600D02*
X108751200Y-136000000D01*
X85225000Y-135225000D02*
X85746400Y-134703600D01*
X137883600Y-134683600D02*
X135600000Y-134683600D01*
X108751200Y-136000000D02*
X93700000Y-136000000D01*
X132931200Y-136000000D02*
X117200000Y-136000000D01*
X159800000Y-134683600D02*
X158447600Y-134683600D01*
X115903600Y-134703600D02*
X111400000Y-134703600D01*
X134247600Y-134683600D02*
X132931200Y-136000000D01*
X158447600Y-134683600D02*
X156936210Y-136194990D01*
X183133600Y-82213400D02*
X186076666Y-79270334D01*
X173249340Y-81838800D02*
X173623940Y-82213400D01*
X93700000Y-136000000D02*
X92403600Y-134703600D01*
X117200000Y-136000000D02*
X115903600Y-134703600D01*
X165912800Y-81838800D02*
X173249340Y-81838800D01*
X163230000Y-83056800D02*
X164053409Y-82233391D01*
X173623940Y-82213400D02*
X183133600Y-82213400D01*
X164053409Y-82233391D02*
X165518209Y-82233391D01*
X92403600Y-134703600D02*
X87200000Y-134703600D01*
X77650000Y-135225000D02*
X85225000Y-135225000D01*
X165518209Y-82233391D02*
X165912800Y-81838800D01*
X85746400Y-134703600D02*
X87200000Y-134703600D01*
X139394990Y-136194990D02*
X137883600Y-134683600D01*
X164200000Y-134700000D02*
X159816400Y-134700000D01*
X202442380Y-100730000D02*
X164413800Y-100730000D01*
%TO.N,A2*%
X110047600Y-137243600D02*
X108791200Y-138500000D01*
X135600000Y-137223600D02*
X132106580Y-137223600D01*
X192232000Y-97768000D02*
X192230000Y-97770000D01*
X186061000Y-97770000D02*
X184691000Y-96400000D01*
X157241020Y-138430180D02*
X138480180Y-138430180D01*
X85656400Y-137243600D02*
X87200000Y-137243600D01*
X203711000Y-97768000D02*
X192232000Y-97768000D01*
X114700000Y-138430180D02*
X113513420Y-137243600D01*
X132106580Y-137223600D02*
X130900000Y-138430180D01*
X85200000Y-137700000D02*
X85656400Y-137243600D01*
X163383410Y-137250000D02*
X159826400Y-137250000D01*
X192230000Y-97770000D02*
X186061000Y-97770000D01*
X138480180Y-138430180D02*
X137273600Y-137223600D01*
X111400000Y-137243600D02*
X110047600Y-137243600D01*
X108791200Y-138500000D02*
X93750000Y-138500000D01*
X137273600Y-137223600D02*
X135600000Y-137223600D01*
X158447600Y-137223600D02*
X157241020Y-138430180D01*
X130900000Y-138430180D02*
X114700000Y-138430180D01*
X93750000Y-138500000D02*
X92493600Y-137243600D01*
X184691000Y-96400000D02*
X163450000Y-96400000D01*
X77675000Y-137700000D02*
X85200000Y-137700000D01*
X159800000Y-137223600D02*
X158447600Y-137223600D01*
X113513420Y-137243600D02*
X111400000Y-137243600D01*
X92493600Y-137243600D02*
X87200000Y-137243600D01*
%TO.N,A1*%
X88552400Y-139783600D02*
X89581010Y-140812210D01*
X77675000Y-139646400D02*
X87062800Y-139646400D01*
X87200000Y-139783600D02*
X88552400Y-139783600D01*
X165504810Y-93950000D02*
X162700000Y-93950000D01*
X159800000Y-139763600D02*
X158447600Y-139763600D01*
X109466400Y-139783600D02*
X111400000Y-139783600D01*
X108437790Y-140812210D02*
X109466400Y-139783600D01*
X157241020Y-140970180D02*
X138400000Y-140970180D01*
X138400000Y-140970180D02*
X137193420Y-139763600D01*
X158447600Y-139763600D02*
X157241020Y-140970180D01*
X137193420Y-139763600D02*
X135600000Y-139763600D01*
X166784810Y-95230000D02*
X165504810Y-93950000D01*
X121728601Y-140252896D02*
X111889296Y-140252896D01*
X89581010Y-140812210D02*
X108437790Y-140812210D01*
X204329000Y-95230000D02*
X183697000Y-95230000D01*
X183697000Y-95230000D02*
X166784810Y-95230000D01*
%TO.N,D5*%
X176552969Y-109247837D02*
X178308000Y-111002868D01*
X178308000Y-113538000D02*
X179889000Y-115119000D01*
X83967800Y-136475000D02*
X75870000Y-136475000D01*
X90944053Y-74808175D02*
X91645497Y-75509619D01*
X139000000Y-144900000D02*
X150783600Y-144900000D01*
X118719671Y-145771399D02*
X125713125Y-145771399D01*
X95928768Y-74614430D02*
X103109103Y-74614430D01*
X106978758Y-74785600D02*
X107062879Y-74869721D01*
X113685051Y-76090380D02*
X164698224Y-76090380D01*
X168800000Y-105000000D02*
X168800000Y-105565685D01*
X178308000Y-111002868D02*
X178308000Y-113538000D01*
X94246016Y-75509618D02*
X94970034Y-74785600D01*
X172482153Y-109247838D02*
X176552969Y-109247837D01*
X92911780Y-144850000D02*
X102426400Y-144850000D01*
X165238604Y-75550000D02*
X166600000Y-75550000D01*
X94970034Y-74785600D02*
X95757598Y-74785600D01*
X91645497Y-75509619D02*
X94246016Y-75509618D01*
X88991825Y-74808175D02*
X90944053Y-74808175D01*
X179889000Y-115119000D02*
X184332000Y-115119000D01*
X129978000Y-145878000D02*
X130550000Y-146450000D01*
X112464392Y-74869721D02*
X113685051Y-76090380D01*
X95757598Y-74785600D02*
X95928768Y-74614430D01*
X125713125Y-145771399D02*
X125819726Y-145878000D01*
X164698224Y-76090380D02*
X165238604Y-75550000D01*
X105442210Y-145892210D02*
X118598860Y-145892210D01*
X125819726Y-145878000D02*
X129978000Y-145878000D01*
X102440000Y-144863600D02*
X104413600Y-144863600D01*
X103109103Y-74614430D02*
X103280272Y-74785600D01*
X107062879Y-74869721D02*
X112464392Y-74869721D01*
X118598860Y-145892210D02*
X118719671Y-145771399D01*
X104413600Y-144863600D02*
X105442210Y-145892210D01*
X103280272Y-74785600D02*
X106978758Y-74785600D01*
X88600000Y-75200000D02*
X88991825Y-74808175D01*
X168800000Y-105565685D02*
X172482153Y-109247838D01*
%TO.N,D6*%
X106852506Y-75090400D02*
X103154006Y-75090400D01*
X164824480Y-76395190D02*
X113558795Y-76395190D01*
X113558795Y-76395190D02*
X112338136Y-75174531D01*
X188109664Y-113966664D02*
X188109664Y-118961336D01*
X167804344Y-104428600D02*
X167804344Y-105001095D01*
X148296010Y-143495190D02*
X131727342Y-143495190D01*
X185625000Y-114688131D02*
X185625000Y-120284000D01*
X91128822Y-75441603D02*
X90337415Y-75441603D01*
X94338540Y-75848146D02*
X91535365Y-75848146D01*
X96055024Y-74919240D02*
X95883864Y-75090400D01*
X102416400Y-142300000D02*
X95461780Y-142300000D01*
X186489520Y-113823611D02*
X185625000Y-114688131D01*
X108576400Y-142323600D02*
X102440000Y-142323600D01*
X177898810Y-111024744D02*
X177898810Y-120373744D01*
X131727342Y-143495190D02*
X129202332Y-140970180D01*
X165950000Y-76250000D02*
X164969670Y-76250000D01*
X95096286Y-75090400D02*
X94338540Y-75848146D01*
X103154006Y-75090400D02*
X102982848Y-74919240D01*
X84596400Y-133925000D02*
X75870000Y-133925000D01*
X129202332Y-140970180D02*
X109929820Y-140970180D01*
X178951256Y-121426190D02*
X184482810Y-121426190D01*
X102982848Y-74919240D02*
X96055024Y-74919240D01*
X188100000Y-113957000D02*
X188109664Y-113966664D01*
X164969670Y-76250000D02*
X164824480Y-76395190D01*
X149487600Y-142303600D02*
X148296010Y-143495190D01*
X95883864Y-75090400D02*
X95096286Y-75090400D01*
X177898810Y-120373744D02*
X178951256Y-121426190D01*
X188100000Y-113951104D02*
X188100000Y-113957000D01*
X176426712Y-109552646D02*
X177898810Y-111024744D01*
X150840000Y-142303600D02*
X149487600Y-142303600D01*
X172355896Y-109552647D02*
X176426712Y-109552646D01*
X186489520Y-113823611D02*
X187972507Y-113823611D01*
X106936637Y-75174531D02*
X106852506Y-75090400D01*
X91535365Y-75848146D02*
X91128822Y-75441603D01*
X109929820Y-140970180D02*
X108576400Y-142323600D01*
X187972507Y-113823611D02*
X188100000Y-113951104D01*
X112338136Y-75174531D02*
X106936637Y-75174531D01*
X188109664Y-118961336D02*
X186872000Y-120199000D01*
X167804344Y-105001095D02*
X172355896Y-109552647D01*
X184482810Y-121426190D02*
X185625000Y-120284000D01*
%TO.N,D7*%
X103027742Y-75395200D02*
X102856592Y-75224050D01*
X164612915Y-76971400D02*
X164341515Y-76700000D01*
X166800001Y-104427818D02*
X166800001Y-103800000D01*
X102856592Y-75224050D02*
X96181280Y-75224050D01*
X185932199Y-116058801D02*
X185932199Y-120458801D01*
X149487600Y-139763600D02*
X148458990Y-138734990D01*
X178825000Y-121731000D02*
X177594000Y-120500000D01*
X106810395Y-75479341D02*
X106726254Y-75395200D01*
X112211880Y-75479341D02*
X106810395Y-75479341D01*
X109165010Y-138734990D02*
X108116400Y-139783600D01*
X176300456Y-109857456D02*
X172229639Y-109857456D01*
X96181280Y-75224050D02*
X96010130Y-75395200D01*
X96010130Y-75395200D02*
X95222538Y-75395200D01*
X177594000Y-111151000D02*
X176300456Y-109857456D01*
X95222538Y-75395200D02*
X94464783Y-76152955D01*
X108116400Y-139783600D02*
X102440000Y-139783600D01*
X113432538Y-76699999D02*
X112211880Y-75479341D01*
X186872000Y-115119000D02*
X185932199Y-116058801D01*
X185932199Y-120458801D02*
X184660000Y-121731000D01*
X106726254Y-75395200D02*
X103027742Y-75395200D01*
X172229639Y-109857456D02*
X166800001Y-104427818D01*
X95461780Y-139750000D02*
X102406400Y-139750000D01*
X85225000Y-131425000D02*
X75900000Y-131425000D01*
X164341515Y-76700000D02*
X113432538Y-76699999D01*
X165178600Y-76971400D02*
X164612915Y-76971400D01*
X184660000Y-121731000D02*
X178825000Y-121731000D01*
X90947709Y-76152955D02*
X90733800Y-76366864D01*
X177594000Y-120500000D02*
X177594000Y-111151000D01*
X148458990Y-138734990D02*
X109165010Y-138734990D01*
X150840000Y-139763600D02*
X149487600Y-139763600D01*
X94464783Y-76152955D02*
X90947709Y-76152955D01*
%TO.N,D8*%
X117059380Y-142323600D02*
X117764200Y-141618780D01*
X98540470Y-67033670D02*
X94650000Y-63143200D01*
X118329885Y-141618780D02*
X118673675Y-141274990D01*
X111400000Y-142323600D02*
X117059380Y-142323600D01*
X118673675Y-141274990D02*
X129076076Y-141274990D01*
X94650000Y-63143200D02*
X94650000Y-61670000D01*
X98540470Y-67033670D02*
X114783671Y-67033670D01*
X131601086Y-143800000D02*
X156950000Y-143800000D01*
X158447600Y-142303600D02*
X159800000Y-142303600D01*
X156950000Y-143800000D02*
X157417790Y-143332210D01*
X114783671Y-67033670D02*
X118100000Y-70349999D01*
X157417790Y-143332210D02*
X157418990Y-143332210D01*
X129076076Y-141274990D02*
X131601086Y-143800000D01*
X82175000Y-128850000D02*
X75865000Y-128850000D01*
X157418990Y-143332210D02*
X158447600Y-142303600D01*
X117764200Y-141618780D02*
X118329885Y-141618780D01*
%TO.N,D9*%
X81600000Y-126300000D02*
X75875000Y-126300000D01*
X100775660Y-66728860D02*
X97190000Y-63143200D01*
X100775660Y-66728860D02*
X115886003Y-66728860D01*
X158447600Y-144843600D02*
X156941200Y-146350000D01*
X118792799Y-143450001D02*
X118392800Y-143850000D01*
X97190000Y-63143200D02*
X97190000Y-61670000D01*
X111400000Y-144863600D02*
X117379200Y-144863600D01*
X131771086Y-146350000D02*
X128871087Y-143450001D01*
X117379200Y-144863600D02*
X118392800Y-143850000D01*
X115886003Y-66728860D02*
X118914285Y-69757142D01*
X128871087Y-143450001D02*
X118792799Y-143450001D01*
X159800000Y-144843600D02*
X158447600Y-144843600D01*
X156941200Y-146350000D02*
X131771086Y-146350000D01*
%TO.N,D10*%
X156076400Y-147383600D02*
X154610000Y-148850000D01*
X127532810Y-146182810D02*
X119804275Y-146182810D01*
X81075000Y-123775000D02*
X75870000Y-123775000D01*
X103010850Y-66424050D02*
X99730000Y-63143200D01*
X117825010Y-146374990D02*
X116796400Y-147403600D01*
X154610000Y-148850000D02*
X130200000Y-148850000D01*
X117825010Y-146374990D02*
X118996390Y-146374990D01*
X103010850Y-66424050D02*
X116988335Y-66424050D01*
X159800000Y-147383600D02*
X156076400Y-147383600D01*
X130200000Y-148850000D02*
X127532810Y-146182810D01*
X119804275Y-146182810D02*
X119587085Y-146400000D01*
X116796400Y-147403600D02*
X111400000Y-147403600D01*
X119587085Y-146400000D02*
X119021400Y-146400000D01*
X116988335Y-66424050D02*
X119728570Y-69164285D01*
X99730000Y-63143200D02*
X99730000Y-61670000D01*
%TO.N,D11*%
X119656400Y-149943600D02*
X119650000Y-149950000D01*
X168880000Y-154720000D02*
X132940000Y-154720000D01*
X171011200Y-152600000D02*
X171000000Y-152600000D01*
X128462160Y-154160000D02*
X128450000Y-154147840D01*
X175040000Y-149923600D02*
X173687600Y-149923600D01*
X126640000Y-149943600D02*
X119656400Y-149943600D01*
X105246040Y-66119240D02*
X118090667Y-66119240D01*
X105246040Y-66119240D02*
X102270000Y-63143200D01*
X132940000Y-154720000D02*
X132380000Y-154160000D01*
X171000000Y-152600000D02*
X168880000Y-154720000D01*
X118090667Y-66119240D02*
X120542855Y-68571428D01*
X173687600Y-149923600D02*
X171011200Y-152600000D01*
X102270000Y-63143200D02*
X102270000Y-61670000D01*
X132380000Y-154160000D02*
X128462160Y-154160000D01*
%TO.N,D12*%
X173316400Y-147383600D02*
X175040000Y-147383600D01*
X107481230Y-65814430D02*
X104810000Y-63143200D01*
X119192999Y-65814430D02*
X121357140Y-67978571D01*
X125073790Y-153519240D02*
X124750000Y-153843030D01*
X173316400Y-147383600D02*
X166504810Y-154195190D01*
X133345190Y-154195190D02*
X132669240Y-153519240D01*
X104810000Y-63143200D02*
X104810000Y-61670000D01*
X120396400Y-147403600D02*
X120350000Y-147450000D01*
X132669240Y-153519240D02*
X125073790Y-153519240D01*
X107481230Y-65814430D02*
X119192999Y-65814430D01*
X126640000Y-147403600D02*
X120396400Y-147403600D01*
X166504810Y-154195190D02*
X133345190Y-154195190D01*
%TO.N,D13*%
X109716420Y-65509620D02*
X120295331Y-65509620D01*
X129853620Y-144863600D02*
X120913600Y-144863600D01*
X158538926Y-146790000D02*
X155397208Y-146790000D01*
X155397208Y-146790000D02*
X153642018Y-148545190D01*
X158973936Y-146354990D02*
X158538926Y-146790000D01*
X120913600Y-144863600D02*
X120900000Y-144850000D01*
X172176210Y-146354990D02*
X158973936Y-146354990D01*
X133535210Y-148545190D02*
X129853620Y-144863600D01*
X153642018Y-148545190D02*
X133535210Y-148545190D01*
X109716420Y-65509620D02*
X107350000Y-63143200D01*
X120295331Y-65509620D02*
X122171425Y-67385714D01*
X107350000Y-63143200D02*
X107350000Y-61670000D01*
X175040000Y-144843600D02*
X173687600Y-144843600D01*
X173687600Y-144843600D02*
X172176210Y-146354990D01*
%TO.N,D14*%
X158115010Y-143814990D02*
X156840000Y-145090000D01*
X121397663Y-65204810D02*
X122985710Y-66792857D01*
X111951610Y-65204810D02*
X109890000Y-63143200D01*
X109890000Y-63143200D02*
X109890000Y-61670000D01*
X173687600Y-142303600D02*
X172176210Y-143814990D01*
X133242220Y-145872200D02*
X129293610Y-141923590D01*
X111951610Y-65204810D02*
X121397663Y-65204810D01*
X156840000Y-145090000D02*
X153940000Y-145090000D01*
X153157800Y-145872200D02*
X133242220Y-145872200D01*
X153940000Y-145090000D02*
X153157800Y-145872200D01*
X129293610Y-141923590D02*
X121423791Y-141923590D01*
X172176210Y-143814990D02*
X158115010Y-143814990D01*
X175040000Y-142303600D02*
X173687600Y-142303600D01*
%TO.N,D15*%
X122500000Y-64900000D02*
X123800000Y-66200000D01*
X173687600Y-139763600D02*
X172176210Y-141274990D01*
X175040000Y-139763600D02*
X173687600Y-139763600D01*
X129938208Y-141274990D02*
X128446818Y-139783600D01*
X126640000Y-139783600D02*
X122489498Y-139783600D01*
X122489498Y-139783600D02*
X122069488Y-139363590D01*
X114186800Y-64900000D02*
X112430000Y-63143200D01*
X172176210Y-141274990D02*
X129938208Y-141274990D01*
X114186800Y-64900000D02*
X122500000Y-64900000D01*
X112430000Y-63143200D02*
X112430000Y-61670000D01*
X128446818Y-139783600D02*
X126640000Y-139783600D01*
%TO.N,A23*%
X73325000Y-121230000D02*
X74174999Y-120380001D01*
X74174999Y-120380001D02*
X74174999Y-120375001D01*
X83250000Y-65700000D02*
X85023528Y-65700000D01*
X95509838Y-99751438D02*
X99487000Y-103728600D01*
X85023528Y-65700000D02*
X86662008Y-67338480D01*
X109211520Y-67750000D02*
X108800000Y-67338480D01*
X99487000Y-110555000D02*
X105539000Y-110555000D01*
X105539000Y-110555000D02*
X106971000Y-111987000D01*
X82420940Y-99751438D02*
X82413940Y-99751438D01*
X74174999Y-120375001D02*
X74600000Y-119950000D01*
X86662008Y-67338480D02*
X108800000Y-67338480D01*
X99487000Y-103728600D02*
X99487000Y-105081000D01*
X110150000Y-67750000D02*
X109211520Y-67750000D01*
X74600000Y-119950000D02*
X82075000Y-119950000D01*
X82420940Y-99751438D02*
X95509838Y-99751438D01*
%TO.N,A22*%
X83449539Y-100084165D02*
X93302565Y-100084165D01*
X83049540Y-100484164D02*
X83449539Y-100084165D01*
X93302565Y-100084165D02*
X96947000Y-103728600D01*
X83025000Y-116875000D02*
X82475000Y-117425000D01*
X110970732Y-68423816D02*
X109454270Y-68423816D01*
X109454270Y-68423816D02*
X108673744Y-67643290D01*
X95254000Y-115780000D02*
X102878274Y-115780000D01*
X104131274Y-114527000D02*
X106971000Y-114527000D01*
X86535752Y-67643290D02*
X85337777Y-66445315D01*
X96947000Y-103728600D02*
X96947000Y-105081000D01*
X83846134Y-66445315D02*
X85337777Y-66445315D01*
X82475000Y-117425000D02*
X74590000Y-117425000D01*
X74590000Y-117425000D02*
X73325000Y-118690000D01*
X108673744Y-67643290D02*
X86535752Y-67643290D01*
X102878274Y-115780000D02*
X104131274Y-114527000D01*
%TO.N,A21*%
X104263688Y-118110180D02*
X105306868Y-117067000D01*
X86409496Y-67948100D02*
X86123845Y-67662449D01*
X94407000Y-103728600D02*
X94407000Y-105081000D01*
X83375001Y-114949999D02*
X74525001Y-114949999D01*
X85612449Y-67662449D02*
X85129912Y-67179912D01*
X109144652Y-69650000D02*
X92150000Y-69650000D01*
X73325000Y-116150000D02*
X74525001Y-114949999D01*
X93829020Y-117098000D02*
X94841200Y-118110180D01*
X109697020Y-69097632D02*
X109144652Y-69650000D01*
X94841200Y-118110180D02*
X104263688Y-118110180D01*
X90448099Y-67948099D02*
X86409496Y-67948100D01*
X91885400Y-101207000D02*
X94407000Y-103728600D01*
X92150000Y-69650000D02*
X90448099Y-67948099D01*
X83775000Y-114550000D02*
X83375001Y-114949999D01*
X105306868Y-117067000D02*
X106971000Y-117067000D01*
X86123845Y-67662449D02*
X85612449Y-67662449D01*
X111791464Y-69097632D02*
X109697020Y-69097632D01*
X83742799Y-101207000D02*
X91885400Y-101207000D01*
X85129912Y-67179912D02*
X84452299Y-67179912D01*
%TO.N,A20*%
X86283240Y-68252910D02*
X85997589Y-67967259D01*
X91867000Y-103728600D02*
X91867000Y-105081000D01*
X76600000Y-112350000D02*
X74585000Y-112350000D01*
X90275400Y-102137000D02*
X91867000Y-103728600D01*
X108171447Y-70171447D02*
X107954810Y-69954810D01*
X77803601Y-111146399D02*
X76600000Y-112350000D01*
X92339210Y-120472210D02*
X105103390Y-120472210D01*
X112612196Y-69771448D02*
X112212197Y-70171447D01*
X85997589Y-67967259D02*
X84988166Y-67967259D01*
X91882000Y-120015000D02*
X92339210Y-120472210D01*
X90321844Y-68252910D02*
X86283240Y-68252910D01*
X105968600Y-119607000D02*
X106971000Y-119607000D01*
X84371399Y-111146399D02*
X77803601Y-111146399D01*
X74585000Y-112350000D02*
X73325000Y-113610000D01*
X92023743Y-69954810D02*
X107954810Y-69954809D01*
X105103390Y-120472210D02*
X105968600Y-119607000D01*
X112212197Y-70171447D02*
X108171447Y-70171447D01*
X84371398Y-102137000D02*
X90275400Y-102137000D01*
X92023743Y-69954809D02*
X90321844Y-68252910D01*
%TO.N,A19*%
X84159315Y-109875000D02*
X74520000Y-109875000D01*
X86307965Y-68557720D02*
X86265685Y-68600000D01*
X205323332Y-83724800D02*
X203970932Y-83724800D01*
X174450000Y-65944800D02*
X178145200Y-65944800D01*
X112752400Y-111823600D02*
X113781010Y-110794990D01*
X202696132Y-82450000D02*
X191093734Y-82450000D01*
X90195589Y-68557721D02*
X86307965Y-68557720D01*
X113781010Y-110794990D02*
X135523790Y-110794990D01*
X85000000Y-109600000D02*
X84434315Y-109600000D01*
X86265685Y-68600000D02*
X85700000Y-68600000D01*
X155816724Y-112852210D02*
X140652210Y-112852210D01*
X184565266Y-82696200D02*
X186076666Y-81184800D01*
X156845334Y-111823600D02*
X155816724Y-112852210D01*
X89327000Y-108093000D02*
X89327000Y-105081000D01*
X178150000Y-83100000D02*
X178553800Y-82696200D01*
X91897486Y-70259618D02*
X90195589Y-68557721D01*
X140652210Y-112852210D02*
X139623600Y-111823600D01*
X87200000Y-111823600D02*
X87200000Y-110220000D01*
X184840000Y-103190000D02*
X183850000Y-102200000D01*
X178553800Y-82696200D02*
X184565266Y-82696200D01*
X87200000Y-110220000D02*
X89327000Y-108093000D01*
X135600000Y-110871200D02*
X135600000Y-111823600D01*
X91273602Y-107749998D02*
X111410000Y-107749998D01*
X156945066Y-106036000D02*
X119874000Y-106036000D01*
X139623600Y-111823600D02*
X135600000Y-111823600D01*
X113432930Y-70445264D02*
X113401937Y-70476257D01*
X113401937Y-70476257D02*
X108045190Y-70476256D01*
X118160002Y-107749998D02*
X111410000Y-107749998D01*
X183850000Y-102200000D02*
X160781066Y-102200000D01*
X111400000Y-111823600D02*
X112752400Y-111823600D01*
X74520000Y-109875000D02*
X73325000Y-111070000D01*
X160781066Y-102200000D02*
X156945066Y-106036000D01*
X87200000Y-111823600D02*
X91273602Y-107749998D01*
X191093734Y-82450000D02*
X189894000Y-83649734D01*
X84434315Y-109600000D02*
X84159315Y-109875000D01*
X91897486Y-70259619D02*
X107828553Y-70259618D01*
X135523790Y-110794990D02*
X135600000Y-110871200D01*
X178145200Y-65944800D02*
X178150000Y-65940000D01*
X108045190Y-70476256D02*
X107828553Y-70259619D01*
X159800000Y-111823600D02*
X156845334Y-111823600D01*
X203970932Y-83724800D02*
X202696132Y-82450000D01*
X119874000Y-106036000D02*
X118160002Y-107749998D01*
%TO.N,A18*%
X113073865Y-71073865D02*
X131726135Y-71073865D01*
X86300000Y-69350000D02*
X86787470Y-68862530D01*
X173473507Y-72358200D02*
X207158200Y-72358200D01*
X131726135Y-71073865D02*
X132700000Y-70100000D01*
X126385820Y-115697020D02*
X126640000Y-115951200D01*
X80081400Y-107703600D02*
X84488684Y-103296316D01*
X126640000Y-115951200D02*
X126640000Y-116903600D01*
X104694754Y-115697020D02*
X126385820Y-115697020D01*
X90069332Y-68862530D02*
X91771229Y-70564427D01*
X158575010Y-115874990D02*
X172658990Y-115874990D01*
X112781066Y-70781066D02*
X113073865Y-71073865D01*
X77849150Y-107379810D02*
X78172940Y-107703600D01*
X84488684Y-103296316D02*
X85657000Y-103296316D01*
X208236200Y-73436200D02*
X208236200Y-75413800D01*
X148405000Y-115821000D02*
X149487600Y-116903600D01*
X132729697Y-70129697D02*
X132700000Y-70100000D01*
X126640000Y-116903600D02*
X127992400Y-116903600D01*
X74475190Y-107379810D02*
X77849150Y-107379810D01*
X107918933Y-70781065D02*
X112781066Y-70781066D01*
X152196000Y-116900000D02*
X154200000Y-116900000D01*
X150840000Y-116903600D02*
X152192400Y-116903600D01*
X149487600Y-116903600D02*
X150840000Y-116903600D01*
X86787000Y-103728600D02*
X86787000Y-105081000D01*
X172830307Y-71715000D02*
X173473507Y-72358200D01*
X207158200Y-72358200D02*
X208236200Y-73436200D01*
X86354716Y-103296316D02*
X86787000Y-103728600D01*
X78172940Y-107703600D02*
X80081400Y-107703600D01*
X172658990Y-115874990D02*
X173687600Y-116903600D01*
X154769285Y-116903600D02*
X157546400Y-116903600D01*
X129075000Y-115821000D02*
X148405000Y-115821000D01*
X154765685Y-116900000D02*
X154769285Y-116903600D01*
X91771229Y-70564427D02*
X107702296Y-70564428D01*
X152192400Y-116903600D02*
X152196000Y-116900000D01*
X207545200Y-76104800D02*
X205323332Y-76104800D01*
X85657000Y-103296316D02*
X86354716Y-103296316D01*
X208236200Y-75413800D02*
X207545200Y-76104800D01*
X148671400Y-70129697D02*
X132729697Y-70129697D01*
X157546400Y-116903600D02*
X158575010Y-115874990D01*
X107702296Y-70564428D02*
X107918933Y-70781065D01*
X127992400Y-116903600D02*
X129075000Y-115821000D01*
X103488174Y-116903600D02*
X104694754Y-115697020D01*
X86787470Y-68862530D02*
X90069332Y-68862530D01*
X73325000Y-108530000D02*
X74475190Y-107379810D01*
X173687600Y-116903600D02*
X175040000Y-116903600D01*
X154200000Y-116900000D02*
X154765685Y-116900000D01*
%TO.N,A5*%
X92473600Y-129623600D02*
X87200000Y-129623600D01*
X116073600Y-129623600D02*
X109876400Y-129623600D01*
X157418990Y-130632210D02*
X139332210Y-130632210D01*
X77675000Y-130150000D02*
X86673600Y-130150000D01*
X135600000Y-129603600D02*
X133216400Y-129603600D01*
X165200000Y-129600000D02*
X159803600Y-129600000D01*
X109876400Y-129623600D02*
X108600000Y-130900000D01*
X108600000Y-130900000D02*
X93750000Y-130900000D01*
X131970000Y-130850000D02*
X117300000Y-130850000D01*
X159800000Y-129603600D02*
X158447600Y-129603600D01*
X139332210Y-130632210D02*
X138303600Y-129603600D01*
X138303600Y-129603600D02*
X135600000Y-129603600D01*
X133216400Y-129603600D02*
X131970000Y-130850000D01*
X93750000Y-130900000D02*
X92473600Y-129623600D01*
X117300000Y-130850000D02*
X116073600Y-129623600D01*
X158447600Y-129603600D02*
X157418990Y-130632210D01*
%TO.N,A4*%
X166171401Y-102850000D02*
X167156074Y-102850000D01*
X190899000Y-103954000D02*
X190871000Y-103926000D01*
X158447600Y-132143600D02*
X157418990Y-133172210D01*
X138243600Y-132143600D02*
X135600000Y-132143600D01*
X108761200Y-133450000D02*
X110047600Y-132163600D01*
X167156074Y-102850000D02*
X167808074Y-103502000D01*
X139272210Y-133172210D02*
X138243600Y-132143600D01*
X157418990Y-133172210D02*
X139272210Y-133172210D01*
X133240000Y-132150000D02*
X134241200Y-132150000D01*
X159800000Y-132143600D02*
X158447600Y-132143600D01*
X92463600Y-132163600D02*
X93750000Y-133450000D01*
X167808074Y-103502000D02*
X167817000Y-103502000D01*
X134241200Y-132150000D02*
X134247600Y-132143600D01*
X87200000Y-132163600D02*
X92463600Y-132163600D01*
X110047600Y-132163600D02*
X115513620Y-132163600D01*
X115513620Y-132163600D02*
X116522230Y-133172210D01*
X190899000Y-103955000D02*
X190899000Y-103954000D01*
X168270000Y-103955000D02*
X190899000Y-103955000D01*
X167817000Y-103502000D02*
X168270000Y-103955000D01*
X134247600Y-132143600D02*
X135600000Y-132143600D01*
X77675000Y-132625000D02*
X86738600Y-132625000D01*
X132217790Y-133172210D02*
X133240000Y-132150000D01*
X93750000Y-133450000D02*
X108761200Y-133450000D01*
X166200000Y-132350000D02*
X160006400Y-132350000D01*
X116522230Y-133172210D02*
X132217790Y-133172210D01*
%TO.N,D0*%
X113095674Y-73345674D02*
X114316330Y-74566330D01*
X187297000Y-123964000D02*
X185647000Y-123964000D01*
X97200001Y-72717073D02*
X107065491Y-72717073D01*
X166675798Y-71950000D02*
X169750000Y-71950000D01*
X89952210Y-143352210D02*
X88923600Y-142323600D01*
X188391000Y-108412000D02*
X188391000Y-112948906D01*
X99750000Y-143350000D02*
X100149999Y-143749999D01*
X189040000Y-113597906D02*
X189040000Y-122221000D01*
X107065491Y-72717073D02*
X107694092Y-73345674D01*
X187396000Y-107400000D02*
X187869390Y-107873390D01*
X88923600Y-142323600D02*
X87200000Y-142323600D01*
X100149999Y-143749999D02*
X116064047Y-143749999D01*
X188391000Y-112948906D02*
X189040000Y-113597906D01*
X187869390Y-107873390D02*
X187869390Y-107890390D01*
X185647000Y-123964000D02*
X184332000Y-125279000D01*
X107694092Y-73345674D02*
X113095674Y-73345674D01*
X114316330Y-74566330D02*
X164059468Y-74566330D01*
X83799000Y-140275000D02*
X85847600Y-142323600D01*
X74600000Y-140275000D02*
X83799000Y-140275000D01*
X116064047Y-143749999D02*
X117064046Y-142750000D01*
X173800000Y-107400000D02*
X187396000Y-107400000D01*
X99750000Y-143350000D02*
X89952210Y-143352210D01*
X189040000Y-122221000D02*
X187297000Y-123964000D01*
X117064046Y-142750000D02*
X123900000Y-142750000D01*
X85847600Y-142323600D02*
X87200000Y-142323600D01*
X187869390Y-107890390D02*
X188391000Y-108412000D01*
X164059468Y-74566330D02*
X166675798Y-71950000D01*
X73325000Y-141550000D02*
X74600000Y-140275000D01*
%TO.N,D1*%
X75051000Y-145816000D02*
X84895200Y-145816000D01*
X84895200Y-145816000D02*
X85847600Y-144863600D01*
X73325000Y-144090000D02*
X75051000Y-145816000D01*
X107267366Y-73350000D02*
X94815000Y-73350000D01*
X173362916Y-108028601D02*
X172750000Y-107415685D01*
X97148665Y-148717020D02*
X113017020Y-148717020D01*
X107567849Y-73650483D02*
X107267366Y-73350000D01*
X184110791Y-108028601D02*
X173362916Y-108028601D01*
X172750000Y-107415685D02*
X172750000Y-106850000D01*
X114190073Y-74871139D02*
X112969418Y-73650484D01*
X116390000Y-152090000D02*
X136911400Y-152090000D01*
X136911400Y-152090000D02*
X137750000Y-152928600D01*
X184332000Y-108249810D02*
X184110791Y-108028601D01*
X93717020Y-148717020D02*
X97148665Y-148717020D01*
X112969418Y-73650484D02*
X107567849Y-73650483D01*
X166356864Y-72700000D02*
X164185724Y-74871140D01*
X94815000Y-73350000D02*
X94650000Y-73185000D01*
X184332000Y-112579000D02*
X184332000Y-108249810D01*
X164185724Y-74871140D02*
X114190073Y-74871139D01*
X113017020Y-148717020D02*
X116390000Y-152090000D01*
X85847600Y-144863600D02*
X89863600Y-144863600D01*
X169150000Y-72700000D02*
X166356864Y-72700000D01*
X89863600Y-144863600D02*
X93717020Y-148717020D01*
%TO.N,D2*%
X185628000Y-112673906D02*
X184783105Y-113518801D01*
X89325000Y-143925000D02*
X88759315Y-143925000D01*
X183683801Y-113518801D02*
X182607000Y-112442000D01*
X88759315Y-143925000D02*
X88409315Y-143575000D01*
X182607000Y-110899000D02*
X180041411Y-108333411D01*
X107186314Y-73700000D02*
X95550000Y-73700000D01*
X114063816Y-75175948D02*
X112843161Y-73955293D01*
X184783105Y-113518801D02*
X183683801Y-113518801D01*
X88409315Y-143575000D02*
X77582081Y-143575000D01*
X112843161Y-73955293D02*
X107441606Y-73955292D01*
X180041411Y-108333411D02*
X173217726Y-108333411D01*
X94088800Y-152940000D02*
X133301780Y-152940000D01*
X77067081Y-144090000D02*
X75865000Y-144090000D01*
X166037930Y-73450000D02*
X164311980Y-75175950D01*
X164311980Y-75175950D02*
X114063816Y-75175948D01*
X92399400Y-151250600D02*
X94088800Y-152940000D01*
X188719284Y-113708256D02*
X188086190Y-113075162D01*
X187614000Y-111320000D02*
X186175000Y-111320000D01*
X173217726Y-108333411D02*
X171800000Y-106915685D01*
X171800000Y-106915685D02*
X171800000Y-106350000D01*
X188086190Y-111792190D02*
X187614000Y-111320000D01*
X188719284Y-120891716D02*
X188719284Y-113708256D01*
X182607000Y-112442000D02*
X182607000Y-110899000D01*
X168550000Y-73450000D02*
X166037930Y-73450000D01*
X133301780Y-152940000D02*
X133900000Y-153538220D01*
X185628000Y-111867000D02*
X185628000Y-112673906D01*
X107441606Y-73955292D02*
X107186314Y-73700000D01*
X92528800Y-73871200D02*
X92143492Y-74256508D01*
X87200000Y-147403600D02*
X88552400Y-147403600D01*
X88552400Y-147403600D02*
X92399400Y-151250600D01*
X186872000Y-122739000D02*
X188719284Y-120891716D01*
X95550000Y-73700000D02*
X95378800Y-73871200D01*
X188086190Y-113075162D02*
X188086190Y-111792190D01*
X77582081Y-143575000D02*
X77067081Y-144090000D01*
X186175000Y-111320000D02*
X185628000Y-111867000D01*
X95378800Y-73871200D02*
X92528800Y-73871200D01*
%TO.N,D3*%
X95676256Y-74004810D02*
X107060072Y-74004810D01*
X90730846Y-73732838D02*
X91898008Y-74900000D01*
X186872000Y-112579000D02*
X185627389Y-113823611D01*
X172872535Y-108638220D02*
X170750000Y-106515685D01*
X179915155Y-108638221D02*
X172872535Y-108638220D01*
X103740000Y-152540000D02*
X135880000Y-152540000D01*
X164438236Y-75480760D02*
X164450000Y-75468996D01*
X182302190Y-112568256D02*
X182302190Y-111025256D01*
X112716903Y-74260101D02*
X113937561Y-75480757D01*
X138410000Y-153700000D02*
X139505190Y-152604810D01*
X102440000Y-151240000D02*
X103740000Y-152540000D01*
X164450000Y-75468996D02*
X164450000Y-75476472D01*
X167850000Y-74100000D02*
X165818996Y-74100000D01*
X164450000Y-75476472D02*
X164445712Y-75480760D01*
X107060072Y-74004810D02*
X107315363Y-74260101D01*
X150840000Y-150876000D02*
X150840000Y-149923600D01*
X183557544Y-113823610D02*
X182302190Y-112568256D01*
X93993530Y-74900000D02*
X94717530Y-74176000D01*
X165818996Y-74100000D02*
X164450000Y-75468996D01*
X185627389Y-113823611D02*
X183557544Y-113823610D01*
X102440000Y-149943600D02*
X102440000Y-151240000D01*
X139505190Y-152604810D02*
X149111190Y-152604810D01*
X113937561Y-75480757D02*
X117230757Y-75480757D01*
X91898008Y-74900000D02*
X93993530Y-74900000D01*
X135880000Y-152540000D02*
X137040000Y-153700000D01*
X117230760Y-75480760D02*
X164438236Y-75480760D01*
X170750000Y-106515685D02*
X170750000Y-105950000D01*
X89550000Y-73732838D02*
X90730846Y-73732838D01*
X107315363Y-74260101D02*
X112716903Y-74260101D01*
X117230757Y-75480757D02*
X117230760Y-75480760D01*
X94717530Y-74176000D02*
X95505066Y-74176000D01*
X149111190Y-152604810D02*
X150840000Y-150876000D01*
X93005512Y-149755512D02*
X102251912Y-149755512D01*
X95505066Y-74176000D02*
X95676256Y-74004810D01*
X137040000Y-153700000D02*
X138410000Y-153700000D01*
X82710599Y-141550000D02*
X75865000Y-141550000D01*
X182302190Y-111025256D02*
X179915155Y-108638221D01*
%TO.N,D4*%
X172677344Y-108943029D02*
X169800000Y-106065685D01*
X107105010Y-74480800D02*
X107189121Y-74564911D01*
X103406538Y-74480800D02*
X107105010Y-74480800D01*
X93565380Y-147403600D02*
X102440000Y-147403600D01*
X188098763Y-113518801D02*
X186363265Y-113518801D01*
X165539194Y-74818344D02*
X167209713Y-74818344D01*
X107189121Y-74564911D02*
X112590648Y-74564911D01*
X95802512Y-74309620D02*
X103235357Y-74309620D01*
X186363265Y-113518801D02*
X185753644Y-114128420D01*
X113843276Y-148412210D02*
X102516210Y-148412210D01*
X113811307Y-75785570D02*
X164571968Y-75785570D01*
X188414474Y-120765460D02*
X188414474Y-113834512D01*
X185571000Y-121500000D02*
X187679934Y-121500000D01*
X181997381Y-111159381D02*
X179781030Y-108943030D01*
X188414474Y-113834512D02*
X188098763Y-113518801D01*
X117071066Y-151640000D02*
X113843276Y-148412210D01*
X94119773Y-75204809D02*
X94843782Y-74480800D01*
X88052390Y-74361438D02*
X90928380Y-74361438D01*
X183431287Y-114128419D02*
X181997381Y-112694513D01*
X91771752Y-75204810D02*
X94119773Y-75204809D01*
X102440000Y-148336000D02*
X102440000Y-147383600D01*
X187679934Y-121500000D02*
X188414474Y-120765460D01*
X169800000Y-106065685D02*
X169800000Y-105500000D01*
X179781030Y-108943030D02*
X172677344Y-108943029D01*
X83339199Y-139000000D02*
X75875000Y-139000000D01*
X184332000Y-122739000D02*
X185571000Y-121500000D01*
X103235357Y-74309620D02*
X103406538Y-74480800D01*
X102516210Y-148412210D02*
X102440000Y-148336000D01*
X112590648Y-74564911D02*
X113811307Y-75785570D01*
X148377302Y-151640000D02*
X117071066Y-151640000D01*
X95631332Y-74480800D02*
X95802512Y-74309620D01*
X92911780Y-146750000D02*
X93565380Y-147403600D01*
X90928380Y-74361438D02*
X91771752Y-75204810D01*
X164571968Y-75785570D02*
X165539194Y-74818344D01*
X94843782Y-74480800D02*
X95631332Y-74480800D01*
X181997381Y-112694513D02*
X181997381Y-111159381D01*
X185753644Y-114128420D02*
X183431287Y-114128419D01*
X148713512Y-151976210D02*
X148377302Y-151640000D01*
%TO.N,CPUSP*%
X96947000Y-97461000D02*
X96947000Y-98813400D01*
X104613476Y-56427209D02*
X194747209Y-56427209D01*
X104289685Y-56751000D02*
X104613476Y-56427209D01*
X104689000Y-99168000D02*
X104994402Y-99473402D01*
X175802400Y-63404800D02*
X176831010Y-62376190D01*
X194747209Y-56427209D02*
X195687000Y-57367000D01*
X176831010Y-62376190D02*
X191315656Y-62376190D01*
X96947000Y-98813400D02*
X97301600Y-99168000D01*
X174450000Y-63404800D02*
X175802400Y-63404800D01*
X103724000Y-56751000D02*
X104289685Y-56751000D01*
X192344266Y-63404800D02*
X193696666Y-63404800D01*
X191315656Y-62376190D02*
X192344266Y-63404800D01*
X97301600Y-99168000D02*
X104689000Y-99168000D01*
D49*
%TO.N,LGEXP*%
X109647000Y-106807000D02*
X109647000Y-105081000D01*
X110047000Y-105081000D02*
X109647000Y-105081000D01*
X109870000Y-107030000D02*
X109647000Y-106807000D01*
X117740000Y-107030000D02*
X109870000Y-107030000D01*
X120446000Y-104324000D02*
X117740000Y-107030000D01*
X129820000Y-104324000D02*
X120446000Y-104324000D01*
%TO.N,RXDA*%
X208930000Y-117720000D02*
X205192000Y-121458000D01*
X225074000Y-104638000D02*
X226380000Y-105944000D01*
X221900000Y-117720000D02*
X208930000Y-117720000D01*
X223300000Y-104638000D02*
X225074000Y-104638000D01*
X226380000Y-105944000D02*
X226380000Y-113240000D01*
X195315000Y-121458000D02*
X193178000Y-123595000D01*
X205192000Y-121458000D02*
X195315000Y-121458000D01*
X226380000Y-113240000D02*
X221900000Y-117720000D01*
X193178000Y-126505000D02*
X194492000Y-127819000D01*
X193178000Y-123595000D02*
X193178000Y-126505000D01*
%TO.N,TXDA*%
X220610000Y-112061000D02*
X216435500Y-116235500D01*
X190118000Y-117734000D02*
X190118000Y-122522000D01*
X191181601Y-116670399D02*
X190118000Y-117734000D01*
X216435500Y-116235500D02*
X206064500Y-116235500D01*
X190749000Y-126616000D02*
X191952000Y-127819000D01*
X205629601Y-116670399D02*
X191181601Y-116670399D01*
X223300000Y-102098000D02*
X221526000Y-102098000D01*
X188223000Y-126056000D02*
X188783000Y-126616000D01*
X188783000Y-126616000D02*
X190749000Y-126616000D01*
X221526000Y-102098000D02*
X220610000Y-103014000D01*
X206064500Y-116235500D02*
X205629601Y-116670399D01*
X190118000Y-122522000D02*
X188223000Y-124417000D01*
X220610000Y-103014000D02*
X220610000Y-112061000D01*
X188223000Y-124417000D02*
X188223000Y-126056000D01*
%TO.N,SPICS*%
X222554400Y-132817600D02*
X203312400Y-132817600D01*
X188120000Y-138550000D02*
X187100000Y-137530000D01*
X223300000Y-132072000D02*
X222554400Y-132817600D01*
X223300000Y-131310000D02*
X223300000Y-132072000D01*
X197580000Y-138550000D02*
X188120000Y-138550000D01*
X187100000Y-133300000D02*
X189412000Y-130988000D01*
X189412000Y-130988000D02*
X189412000Y-127819000D01*
X187100000Y-137530000D02*
X187100000Y-133300000D01*
X203312400Y-132817600D02*
X197580000Y-138550000D01*
%TO.N,SPIMISO*%
X223300000Y-123690000D02*
X203701000Y-123690000D01*
X203701000Y-123690000D02*
X202112000Y-125279000D01*
%TO.N,CTSA*%
X214437820Y-105687000D02*
X206464000Y-105687000D01*
X219210000Y-100743410D02*
X219210000Y-104825000D01*
X218357590Y-105677410D02*
X214447410Y-105677410D01*
X214447410Y-105677410D02*
X214437820Y-105687000D01*
X219210000Y-104825000D02*
X218357590Y-105677410D01*
X223300000Y-99558000D02*
X220395410Y-99558000D01*
X220395410Y-99558000D02*
X219210000Y-100743410D01*
X206464000Y-105687000D02*
X199572000Y-112579000D01*
%TO.N,SPICLK*%
X186210000Y-133210000D02*
X186210000Y-137800000D01*
X186210000Y-137800000D02*
X187740000Y-139330000D01*
X187740000Y-139330000D02*
X197860000Y-139330000D01*
X203830000Y-133360000D02*
X225187000Y-133360000D01*
X188166000Y-131254000D02*
X186210000Y-133210000D01*
X186872000Y-125279000D02*
X188166000Y-126573000D01*
X226138000Y-132409000D02*
X226138000Y-129653000D01*
X226138000Y-129653000D02*
X225255000Y-128770000D01*
X188166000Y-126573000D02*
X188166000Y-131254000D01*
X225187000Y-133360000D02*
X226138000Y-132409000D01*
X225255000Y-128770000D02*
X223300000Y-128770000D01*
X197860000Y-139330000D02*
X203830000Y-133360000D01*
%TO.N,SPIMOSI*%
X226881000Y-133159000D02*
X226032400Y-134007600D01*
X226881000Y-128042000D02*
X226881000Y-133159000D01*
X187010000Y-140080000D02*
X185310000Y-138380000D01*
X226032400Y-134007600D02*
X204242400Y-134007600D01*
X185310000Y-138380000D02*
X185310000Y-129381000D01*
X185310000Y-129381000D02*
X186872000Y-127819000D01*
X223300000Y-126230000D02*
X225069000Y-126230000D01*
X225069000Y-126230000D02*
X226881000Y-128042000D01*
X198170000Y-140080000D02*
X187010000Y-140080000D01*
X204242400Y-134007600D02*
X198170000Y-140080000D01*
%TO.N,TXDB*%
X194750000Y-102710000D02*
X215952000Y-102710000D01*
X215952000Y-102710000D02*
X216564000Y-102098000D01*
X191952000Y-110039000D02*
X191952000Y-105508000D01*
X191952000Y-105508000D02*
X194750000Y-102710000D01*
%TO.N,RXDB*%
X216564000Y-103626000D02*
X216564000Y-104638000D01*
X194492000Y-110039000D02*
X194492000Y-104578000D01*
X194492000Y-104578000D02*
X195576000Y-103494000D01*
X195576000Y-103494000D02*
X216432000Y-103494000D01*
X216432000Y-103494000D02*
X216564000Y-103626000D01*
%TO.N,CTSB*%
X190699000Y-105162907D02*
X190699000Y-113409000D01*
X193961907Y-101900000D02*
X190699000Y-105162907D01*
X212448000Y-101900000D02*
X193961907Y-101900000D01*
X214790000Y-99558000D02*
X212448000Y-101900000D01*
X190699000Y-113409000D02*
X192409000Y-115119000D01*
X192409000Y-115119000D02*
X199572000Y-115119000D01*
X216564000Y-99558000D02*
X214790000Y-99558000D01*
%TO.N,RTSA*%
X204588399Y-118647601D02*
X191453399Y-118647601D01*
X206240410Y-116995590D02*
X204588399Y-118647601D01*
X221434410Y-116995590D02*
X206240410Y-116995590D01*
X223300000Y-109718000D02*
X225074000Y-109718000D01*
X190520410Y-119580590D02*
X190520410Y-124170590D01*
X225490590Y-112939410D02*
X221434410Y-116995590D01*
X225074000Y-109718000D02*
X225490590Y-110134590D01*
X225490590Y-110134590D02*
X225490590Y-112939410D01*
X190520410Y-124170590D02*
X189412000Y-125279000D01*
X191453399Y-118647601D02*
X190520410Y-119580590D01*
D48*
%TO.N,DUAIACK*%
X195715852Y-60864800D02*
X193696666Y-60864800D01*
X203010000Y-62232000D02*
X202849400Y-62071400D01*
X196922452Y-62071400D02*
X195715852Y-60864800D01*
X202849400Y-62071400D02*
X196922452Y-62071400D01*
D49*
%TO.N,RTSB*%
X210940399Y-113567601D02*
X214790000Y-109718000D01*
X214790000Y-109718000D02*
X216564000Y-109718000D01*
X192940601Y-113567601D02*
X210940399Y-113567601D01*
X191952000Y-112579000D02*
X192940601Y-113567601D01*
%TO.N,RUNLED*%
X207840000Y-77200000D02*
X208080000Y-76960000D01*
X193696666Y-76104800D02*
X194791866Y-77200000D01*
X194791866Y-77200000D02*
X207840000Y-77200000D01*
D48*
%TO.N,WR*%
X139292934Y-131024000D02*
X133258266Y-131024000D01*
X157685010Y-131114990D02*
X156656400Y-132143600D01*
X126640000Y-132143600D02*
X132138666Y-132143600D01*
X92807000Y-130925000D02*
X88781000Y-130925000D01*
X94032000Y-132150000D02*
X102426400Y-132150000D01*
X102440000Y-132143600D02*
X107787466Y-132143600D01*
X94032000Y-132150000D02*
X92807000Y-130925000D01*
X124401000Y-131257000D02*
X112368074Y-131257000D01*
X133258266Y-131024000D02*
X132138666Y-132143600D01*
X173687600Y-132143600D02*
X172658990Y-131114990D01*
X140412534Y-132143600D02*
X139292934Y-131024000D01*
X126640000Y-132143600D02*
X125287600Y-132143600D01*
X156656400Y-132143600D02*
X150840000Y-132143600D01*
X172658990Y-131114990D02*
X157685010Y-131114990D01*
X112368074Y-131257000D02*
X112226064Y-131114990D01*
X125287600Y-132143600D02*
X124401000Y-131257000D01*
X112226064Y-131114990D02*
X108816076Y-131114990D01*
X150840000Y-132143600D02*
X140412534Y-132143600D01*
X175040000Y-132143600D02*
X173687600Y-132143600D01*
X108816076Y-131114990D02*
X107787466Y-132143600D01*
%TO.N,Net-(Q2-EN)*%
X121500000Y-98300000D02*
X121500000Y-99252400D01*
X121500000Y-99252400D02*
X121987999Y-99740399D01*
X121987999Y-99740399D02*
X132839601Y-99740399D01*
X132839601Y-99740399D02*
X133500000Y-99080000D01*
D49*
%TO.N,ROM_RW*%
X103475000Y-108640000D02*
X105114000Y-108640000D01*
D48*
X127515000Y-108593000D02*
X128135000Y-109213000D01*
D49*
X105114000Y-108640000D02*
X105161000Y-108593000D01*
D48*
X105161000Y-108593000D02*
X127515000Y-108593000D01*
D49*
%TO.N,SPICS2*%
X189700000Y-115500000D02*
X190265685Y-115500000D01*
X191033674Y-116267989D02*
X205462919Y-116267989D01*
X206330908Y-115400000D02*
X215700000Y-115400000D01*
X205462919Y-116267989D02*
X206330908Y-115400000D01*
X190265685Y-115500000D02*
X191033674Y-116267989D01*
D48*
%TO.N,DUAIRQ*%
X182876000Y-119185000D02*
X182180000Y-119185000D01*
X184332000Y-120199000D02*
X183322000Y-119189000D01*
X137830000Y-97700000D02*
X141653000Y-93877000D01*
X154461000Y-93877000D02*
X157779000Y-97195000D01*
X141653000Y-93877000D02*
X154461000Y-93877000D01*
X177370685Y-97195000D02*
X177920000Y-97744315D01*
X137830000Y-98100000D02*
X137830000Y-97700000D01*
X182880000Y-119189000D02*
X182876000Y-119185000D01*
X157779000Y-97195000D02*
X177370685Y-97195000D01*
X183322000Y-119189000D02*
X182880000Y-119189000D01*
X177920000Y-97744315D02*
X177920000Y-98027600D01*
D50*
%TO.N,Net-(S1-P)*%
X224180600Y-75425600D02*
X225200000Y-76445000D01*
X224180600Y-73701200D02*
X224180600Y-75425600D01*
D48*
%TO.N,IRQ3*%
X111181000Y-78378000D02*
X110357400Y-79201600D01*
X115410000Y-87670000D02*
X113698313Y-87670000D01*
X144567210Y-99577000D02*
X143494210Y-100650000D01*
X108814326Y-80108400D02*
X104266726Y-80108400D01*
X77685000Y-78770000D02*
X92035000Y-78770000D01*
X108929452Y-80001600D02*
X108921126Y-80001600D01*
X75865000Y-80590000D02*
X77685000Y-78770000D01*
X104266726Y-80108400D02*
X103571600Y-79413274D01*
X102850000Y-77020000D02*
X95752998Y-77020000D01*
X95752998Y-77020000D02*
X95062998Y-77710000D01*
X119360000Y-91620000D02*
X115410000Y-87670000D01*
X103571600Y-79413274D02*
X103571600Y-77741600D01*
X113622000Y-79120000D02*
X112880000Y-78378000D01*
X143494210Y-100650000D02*
X120449066Y-100650000D01*
X120449066Y-100650000D02*
X119360000Y-99560934D01*
X110357400Y-79201600D02*
X109729452Y-79201600D01*
X93095000Y-77710000D02*
X92035000Y-78770000D01*
X113698313Y-87670000D02*
X113620512Y-87592199D01*
X103571600Y-77741600D02*
X102850000Y-77020000D01*
X109729452Y-79201600D02*
X108929452Y-80001600D01*
X95062998Y-77710000D02*
X93095000Y-77710000D01*
X119360000Y-99560934D02*
X119360000Y-91620000D01*
X108921126Y-80001600D02*
X108814326Y-80108400D01*
X112880000Y-78378000D02*
X111181000Y-78378000D01*
%TO.N,IRQ2*%
X118810000Y-91842670D02*
X118810000Y-99560000D01*
X78915229Y-79978119D02*
X91710065Y-79978119D01*
X118810000Y-99560000D02*
X120400000Y-101150000D01*
X146890315Y-100215000D02*
X147456000Y-100215000D01*
X120400000Y-101150000D02*
X145955315Y-101150000D01*
X145955315Y-101150000D02*
X146890315Y-100215000D01*
X95776620Y-80229424D02*
X97460576Y-80229424D01*
X115215729Y-88248399D02*
X118810000Y-91842670D01*
X101043000Y-88248400D02*
X115215729Y-88248399D01*
X94009935Y-79978119D02*
X95525315Y-79978119D01*
X95525315Y-79978119D02*
X95776620Y-80229424D01*
X97460576Y-80229424D02*
X98840000Y-78850000D01*
X91710065Y-79978119D02*
X92382946Y-80651000D01*
X93337054Y-80651000D02*
X94009935Y-79978119D01*
X92382946Y-80651000D02*
X93337054Y-80651000D01*
X78044852Y-80601995D02*
X78291353Y-80601995D01*
X78291353Y-80601995D02*
X78915229Y-79978119D01*
%TO.N,IRQ6*%
X102058401Y-86935999D02*
X101914400Y-87080000D01*
X92256694Y-80955800D02*
X91583823Y-80282929D01*
X93463306Y-80955800D02*
X92256694Y-80955800D01*
X115275999Y-86935999D02*
X102058401Y-86935999D01*
X101796900Y-78708100D02*
X102605000Y-77900000D01*
X100480000Y-80710000D02*
X93709106Y-80710000D01*
X119800000Y-91460000D02*
X115275999Y-86935999D01*
X120710000Y-100210000D02*
X119800000Y-99300000D01*
X91583823Y-80282929D02*
X79764603Y-80282929D01*
X140400000Y-100210000D02*
X120710000Y-100210000D01*
X101700000Y-78708100D02*
X101700000Y-79490000D01*
X119800000Y-99300000D02*
X119800000Y-91460000D01*
X101700000Y-78708100D02*
X101796900Y-78708100D01*
X93709106Y-80710000D02*
X93463306Y-80955800D01*
X142910000Y-98100000D02*
X142510000Y-98100000D01*
X101700000Y-79490000D02*
X100480000Y-80710000D01*
X79764603Y-80282929D02*
X78991716Y-81055816D01*
X142510000Y-98100000D02*
X140400000Y-100210000D01*
%TO.N,IRQ5*%
X95195000Y-79279766D02*
X94801457Y-79673309D01*
X95195000Y-78730000D02*
X95195000Y-79279766D01*
X79004281Y-79673309D02*
X78827172Y-79496200D01*
X92509198Y-80346200D02*
X91836307Y-79673309D01*
X105041711Y-101245399D02*
X109933729Y-101245399D01*
X94801457Y-79673309D02*
X93883693Y-79673309D01*
X95304198Y-78730000D02*
X96077422Y-79503224D01*
X78827172Y-79496200D02*
X78123645Y-79496200D01*
X103527110Y-102760000D02*
X105041711Y-101245399D01*
X93210802Y-80346200D02*
X92509198Y-80346200D01*
X99930000Y-102760000D02*
X103527110Y-102760000D01*
X111378330Y-102690000D02*
X139994242Y-102690000D01*
X109933729Y-101245399D02*
X111378330Y-102690000D01*
X93883693Y-79673309D02*
X93210802Y-80346200D01*
X139994242Y-102690000D02*
X140240442Y-102936200D01*
X91836307Y-79673309D02*
X79004281Y-79673309D01*
D50*
%TO.N,Net-(J10-VBUS-PadA4)*%
X217300343Y-137600000D02*
X216795343Y-138105000D01*
D51*
X212560000Y-134820000D02*
X212400000Y-134980000D01*
X217930000Y-135700000D02*
X217280000Y-135700000D01*
D52*
X219580000Y-137600000D02*
X219590000Y-137610000D01*
D50*
X220480000Y-142410000D02*
X218471922Y-142410000D01*
D51*
X216470356Y-134820000D02*
X212560000Y-134820000D01*
X208810000Y-138590000D02*
X210500000Y-138590000D01*
X207810000Y-137590000D02*
X208810000Y-138590000D01*
D50*
X220480000Y-137610000D02*
X219590000Y-137610000D01*
D51*
X219322600Y-136162600D02*
X219322600Y-137687400D01*
X218860000Y-135700000D02*
X219322600Y-136162600D01*
D50*
X218071922Y-142810000D02*
X216640000Y-142810000D01*
D51*
X212400000Y-134980000D02*
X208380000Y-134980000D01*
D50*
X217930000Y-137600000D02*
X219235200Y-137600000D01*
D51*
X219235200Y-137600000D02*
X219322600Y-137687400D01*
D50*
X218471922Y-142410000D02*
X218071922Y-142810000D01*
D51*
X207810000Y-135550000D02*
X207810000Y-137590000D01*
X217930000Y-135700000D02*
X218860000Y-135700000D01*
X217080000Y-135429644D02*
X216470356Y-134820000D01*
X208380000Y-134980000D02*
X207810000Y-135550000D01*
D49*
%TO.N,Net-(J10-CC1)*%
X220480000Y-138760000D02*
X220430000Y-138810000D01*
X216720000Y-138810000D02*
X212810000Y-142720000D01*
X220430000Y-138810000D02*
X216720000Y-138810000D01*
%TO.N,Net-(J10-CC2)*%
X215915000Y-141760000D02*
X214910000Y-142765000D01*
X220480000Y-141760000D02*
X215915000Y-141760000D01*
%TO.N,Net-(U5-ON)*%
X215990000Y-135700000D02*
X214234735Y-135700000D01*
X213654735Y-136280000D02*
X212400000Y-136280000D01*
X214234735Y-135700000D02*
X213654735Y-136280000D01*
%TD*%
M02*
