%TF.GenerationSoftware,KiCad,Pcbnew,7.0.9*%
%TF.CreationDate,2024-03-22T15:25:39+00:00*%
%TF.ProjectId,rosco_m68k,726f7363-6f5f-46d3-9638-6b2e6b696361,2.2*%
%TF.SameCoordinates,Original*%
%TF.FileFunction,Paste,Bot*%
%TF.FilePolarity,Positive*%
%FSLAX46Y46*%
G04 Gerber Fmt 4.6, Leading zero omitted, Abs format (unit mm)*
G04 Created by KiCad (PCBNEW 7.0.9) date 2024-03-22 15:25:39*
%MOMM*%
%LPD*%
G01*
G04 APERTURE LIST*
G04 Aperture macros list*
%AMRoundRect*
0 Rectangle with rounded corners*
0 $1 Rounding radius*
0 $2 $3 $4 $5 $6 $7 $8 $9 X,Y pos of 4 corners*
0 Add a 4 corners polygon primitive as box body*
4,1,4,$2,$3,$4,$5,$6,$7,$8,$9,$2,$3,0*
0 Add four circle primitives for the rounded corners*
1,1,$1+$1,$2,$3*
1,1,$1+$1,$4,$5*
1,1,$1+$1,$6,$7*
1,1,$1+$1,$8,$9*
0 Add four rect primitives between the rounded corners*
20,1,$1+$1,$2,$3,$4,$5,0*
20,1,$1+$1,$4,$5,$6,$7,0*
20,1,$1+$1,$6,$7,$8,$9,0*
20,1,$1+$1,$8,$9,$2,$3,0*%
G04 Aperture macros list end*
%ADD10RoundRect,0.200000X0.275000X-0.200000X0.275000X0.200000X-0.275000X0.200000X-0.275000X-0.200000X0*%
%ADD11RoundRect,0.225000X-0.250000X0.225000X-0.250000X-0.225000X0.250000X-0.225000X0.250000X0.225000X0*%
%ADD12RoundRect,0.225000X0.225000X0.250000X-0.225000X0.250000X-0.225000X-0.250000X0.225000X-0.250000X0*%
%ADD13RoundRect,0.200000X0.200000X0.275000X-0.200000X0.275000X-0.200000X-0.275000X0.200000X-0.275000X0*%
%ADD14RoundRect,0.225000X0.250000X-0.225000X0.250000X0.225000X-0.250000X0.225000X-0.250000X-0.225000X0*%
%ADD15RoundRect,0.200000X-0.275000X0.200000X-0.275000X-0.200000X0.275000X-0.200000X0.275000X0.200000X0*%
%ADD16RoundRect,0.200000X-0.200000X-0.275000X0.200000X-0.275000X0.200000X0.275000X-0.200000X0.275000X0*%
%ADD17RoundRect,0.225000X-0.225000X-0.250000X0.225000X-0.250000X0.225000X0.250000X-0.225000X0.250000X0*%
%ADD18R,1.160000X0.600000*%
%ADD19R,1.160000X0.300000*%
%ADD20RoundRect,0.150000X-0.512500X-0.150000X0.512500X-0.150000X0.512500X0.150000X-0.512500X0.150000X0*%
G04 APERTURE END LIST*
D10*
%TO.C,R19*%
X135410000Y-91945000D03*
X135410000Y-90295000D03*
%TD*%
D11*
%TO.C,C1*%
X188976000Y-134099000D03*
X188976000Y-135649000D03*
%TD*%
%TO.C,C7*%
X137720000Y-93465000D03*
X137720000Y-95015000D03*
%TD*%
%TO.C,C8*%
X113593000Y-91761000D03*
X113593000Y-93311000D03*
%TD*%
%TO.C,C9*%
X159800000Y-106514000D03*
X159800000Y-108064000D03*
%TD*%
D12*
%TO.C,C24*%
X190865000Y-59040000D03*
X189315000Y-59040000D03*
%TD*%
D13*
%TO.C,R8*%
X131535000Y-104350000D03*
X129885000Y-104350000D03*
%TD*%
%TO.C,R7*%
X108305000Y-79100000D03*
X106655000Y-79100000D03*
%TD*%
D10*
%TO.C,R9*%
X104580000Y-79335000D03*
X104580000Y-77685000D03*
%TD*%
D14*
%TO.C,C22*%
X178918000Y-129467000D03*
X178918000Y-127917000D03*
%TD*%
%TO.C,C26*%
X124750000Y-106875000D03*
X124750000Y-105325000D03*
%TD*%
D11*
%TO.C,C2*%
X197430000Y-134135000D03*
X197430000Y-135685000D03*
%TD*%
D12*
%TO.C,C13*%
X221465000Y-86340000D03*
X219915000Y-86340000D03*
%TD*%
D11*
%TO.C,C27*%
X204070000Y-120685000D03*
X204070000Y-122235000D03*
%TD*%
D12*
%TO.C,C28*%
X203500000Y-104952000D03*
X201950000Y-104952000D03*
%TD*%
%TO.C,C31*%
X179005000Y-58310000D03*
X177455000Y-58310000D03*
%TD*%
D15*
%TO.C,R27*%
X213230000Y-82555000D03*
X213230000Y-84205000D03*
%TD*%
D10*
%TO.C,R28*%
X225200000Y-78095000D03*
X225200000Y-76445000D03*
%TD*%
D15*
%TO.C,R13*%
X211580000Y-62965000D03*
X211580000Y-64615000D03*
%TD*%
D16*
%TO.C,R21*%
X107825000Y-58420000D03*
X109475000Y-58420000D03*
%TD*%
D10*
%TO.C,R10*%
X130160000Y-79005000D03*
X130160000Y-77355000D03*
%TD*%
D15*
%TO.C,R14*%
X218210000Y-62945000D03*
X218210000Y-64595000D03*
%TD*%
D16*
%TO.C,R11*%
X101825000Y-108640000D03*
X103475000Y-108640000D03*
%TD*%
%TO.C,R1*%
X188775000Y-146130000D03*
X190425000Y-146130000D03*
%TD*%
%TO.C,R2*%
X197205000Y-146100000D03*
X198855000Y-146100000D03*
%TD*%
D14*
%TO.C,C6*%
X201070000Y-133585000D03*
X201070000Y-132035000D03*
%TD*%
D12*
%TO.C,C25*%
X202325000Y-58340000D03*
X200775000Y-58340000D03*
%TD*%
D15*
%TO.C,R32*%
X195630000Y-88605000D03*
X195630000Y-90255000D03*
%TD*%
D12*
%TO.C,C29*%
X123390000Y-82370000D03*
X121840000Y-82370000D03*
%TD*%
%TO.C,C12*%
X121005000Y-59080000D03*
X119455000Y-59080000D03*
%TD*%
%TO.C,C10*%
X171717000Y-111760000D03*
X170167000Y-111760000D03*
%TD*%
%TO.C,C5*%
X147841000Y-111760000D03*
X146291000Y-111760000D03*
%TD*%
%TO.C,C4*%
X122441000Y-112014000D03*
X120891000Y-112014000D03*
%TD*%
%TO.C,C3*%
X99175000Y-112190000D03*
X97625000Y-112190000D03*
%TD*%
D15*
%TO.C,R31*%
X192550000Y-88725000D03*
X192550000Y-90375000D03*
%TD*%
D16*
%TO.C,R12*%
X100965000Y-77900000D03*
X102615000Y-77900000D03*
%TD*%
D13*
%TO.C,R15*%
X99815000Y-79880000D03*
X98165000Y-79880000D03*
%TD*%
%TO.C,R17*%
X96825000Y-78650000D03*
X95175000Y-78650000D03*
%TD*%
%TO.C,R18*%
X93685000Y-78770000D03*
X92035000Y-78770000D03*
%TD*%
D15*
%TO.C,R3*%
X133540000Y-97315000D03*
X133540000Y-98965000D03*
%TD*%
%TO.C,R16*%
X182180000Y-117535000D03*
X182180000Y-119185000D03*
%TD*%
D17*
%TO.C,C32*%
X86601000Y-93726000D03*
X88151000Y-93726000D03*
%TD*%
D15*
%TO.C,R4*%
X214910000Y-142765000D03*
X214910000Y-144415000D03*
%TD*%
D18*
%TO.C,J10*%
X220480000Y-136810000D03*
X220480000Y-137610000D03*
D19*
X220480000Y-138760000D03*
X220480000Y-139760000D03*
X220480000Y-140260000D03*
X220480000Y-141260000D03*
D18*
X220480000Y-142410000D03*
X220480000Y-143210000D03*
X220480000Y-143210000D03*
X220480000Y-142410000D03*
D19*
X220480000Y-141760000D03*
X220480000Y-140760000D03*
X220480000Y-139260000D03*
X220480000Y-138260000D03*
D18*
X220480000Y-137610000D03*
X220480000Y-136810000D03*
%TD*%
D20*
%TO.C,U5*%
X215655000Y-137600000D03*
X215655000Y-136650000D03*
X215655000Y-135700000D03*
X217930000Y-135700000D03*
X217930000Y-136650000D03*
X217930000Y-137600000D03*
%TD*%
D17*
%TO.C,C30*%
X212240000Y-78720000D03*
X213790000Y-78720000D03*
%TD*%
D10*
%TO.C,R5*%
X212810000Y-144370000D03*
X212810000Y-142720000D03*
%TD*%
M02*
