M48
; DRILL file {KiCad 7.0.9} date Friday, April 05, 2024 at 08:33:34 PM
; FORMAT={-:-/ absolute / inch / decimal}
; #@! TF.CreationDate,2024-04-05T20:33:34+01:00
; #@! TF.GenerationSoftware,Kicad,Pcbnew,7.0.9
; #@! TF.FileFunction,Plated,1,4,PTH
FMAT,2
INCH
; #@! TA.AperFunction,Plated,PTH,ViaDrill
T1C0.0157
; #@! TA.AperFunction,Plated,PTH,ComponentDrill
T2C0.0236
; #@! TA.AperFunction,Plated,PTH,ComponentDrill
T3C0.0315
; #@! TA.AperFunction,Plated,PTH,ComponentDrill
T4C0.0320
; #@! TA.AperFunction,Plated,PTH,ComponentDrill
T5C0.0394
; #@! TA.AperFunction,Plated,PTH,ComponentDrill
T6C0.0400
; #@! TA.AperFunction,Plated,PTH,ComponentDrill
T7C0.1260
%
G90
G05
T1
X2.937Y-3.623
X3.0107Y-5.8311
X3.0257Y-2.4438
X3.0482Y-5.8007
X3.0561Y-4.8228
X3.0571Y-5.3238
X3.0581Y-4.7472
X3.0581Y-4.9232
X3.0581Y-5.0246
X3.0581Y-5.124
X3.0581Y-5.2215
X3.0581Y-5.4213
X3.0581Y-5.4979
X3.0726Y-3.1733
X3.0757Y-3.1298
X3.0787Y-3.9398
X3.0846Y-5.7656
X3.1061Y-3.2803
X3.1099Y-3.1912
X3.1116Y-2.9715
X3.123Y-5.7134
X3.1364Y-4.2156
X3.1477Y-2.4683
X3.1604Y-5.6831
X3.1611Y-3.4728
X3.1624Y-3.2707
X3.1744Y-2.4415
X3.189Y-3.5728
X3.19Y-3.2972
X3.1919Y-4.873
X3.2047Y-3.0098
X3.2126Y-4.9724
X3.2187Y-3.6731
X3.2195Y-3.3228
X3.2199Y-2.7677
X3.2313Y-4.7224
X3.2352Y-5.0728
X3.2446Y-3.9272
X3.2563Y-5.5728
X3.2687Y-4.6014
X3.2697Y-3.9561
X3.2776Y-2.5866
X3.2811Y-5.4724
X3.297Y-3.9845
X3.2982Y-4.5098
X3.301Y-2.616
X3.3058Y-5.373
X3.3217Y-4.0211
X3.3217Y-4.3758
X3.3249Y-2.6449
X3.3306Y-5.2726
X3.346Y-2.6759
X3.3465Y-4.315
X3.3553Y-5.1742
X3.3723Y-4.0668
X3.374Y-2.7008
X3.3976Y-2.7303
X3.4426Y-2.2906
X3.4781Y-2.397
X3.4953Y-5.1545
X3.5167Y-5.6663
X3.5256Y-2.9029
X3.5935Y-5.9105
X3.6174Y-4.725
X3.6579Y-3.1346
X3.6579Y-5.7028
X3.6579Y-5.7776
X3.6609Y-5.8792
X3.6941Y-4.6102
X3.749Y-3.4244
X3.7502Y-4.5583
X3.7583Y-5.502
X3.7583Y-5.6024
X3.7791Y-3.0676
X3.7821Y-3.6781
X3.7826Y-3.13
X3.8248Y-5.855
X3.8268Y-5.6437
X3.867Y-3.4244
X3.8768Y-4.8071
X3.8795Y-4.378
X3.8799Y-2.3343
X3.8913Y-3.1043
X3.9168Y-4.3526
X3.9252Y-3.4991
X3.9343Y-4.0457
X3.9411Y-2.3266
X3.9429Y-3.0902
X3.9748Y-2.2906
X3.9781Y-3.4743
X4.0039Y-3.0987
X4.0087Y-4.324
X4.0124Y-3.4283
X4.0285Y-3.929
X4.0737Y-3.3908
X4.08Y-2.246
X4.1168Y-3.9681
X4.1336Y-3.9163
X4.1402Y-4.2753
X4.1579Y-3.098
X4.1618Y-2.2463
X4.2006Y-2.2604
X4.2055Y-2.3
X4.2264Y-3.0098
X4.2552Y-3.0456
X4.3162Y-4.0108
X4.3366Y-2.6673
X4.3689Y-2.6939
X4.3776Y-2.3008
X4.3862Y-4.2421
X4.4012Y-2.7204
X4.4047Y-2.3363
X4.416Y-3.9874
X4.4163Y-3.5404
X4.4272Y-3.116
X4.4335Y-2.7469
X4.4659Y-2.7734
X4.4728Y-3.5697
X4.4728Y-3.7209
X4.4733Y-3.4485
X4.4733Y-3.115
X4.4929Y-4.4561
X4.5242Y-3.4991
X4.5256Y-3.0709
X4.6224Y-4.7087
X4.628Y-3.0444
X4.6364Y-5.5756
X4.6478Y-4.41
X4.6496Y-2.7697
X4.6611Y-5.6634
X4.6817Y-2.7463
X4.6859Y-5.7638
X4.7002Y-3.9994
X4.7106Y-5.9035
X4.7137Y-2.723
X4.7382Y-5.8051
X4.7458Y-2.6997
X4.7598Y-5.7028
X4.7778Y-2.6763
X4.7805Y-5.5876
X4.7925Y-5.5218
X4.8059Y-5.4868
X4.8099Y-2.653
X4.8179Y-2.8229
X4.842Y-2.6296
X4.874Y-2.6063
X4.878Y-5.6201
X4.9114Y-6.0568
X4.9602Y-4.135
X4.9606Y-4.2244
X5.0256Y-3.4331
X5.0447Y-4.2997
X5.0571Y-6.0688
X5.0787Y-3.0457
X5.1398Y-5.7657
X5.2244Y-2.7598
X5.2252Y-4.1098
X5.2264Y-3.14
X5.2579Y-3.7878
X5.2717Y-6.0448
X5.2823Y-3.6217
X5.2831Y-3.5142
X5.3268Y-2.6614
X5.3268Y-2.7858
X5.3268Y-2.8978
X5.348Y-3.7949
X5.3868Y-2.9109
X5.4232Y-6.0208
X5.4252Y-2.5886
X5.4291Y-2.873
X5.4646Y-5.0039
X5.4665Y-2.9109
X5.4724Y-5.7047
X5.4934Y-2.8848
X5.5213Y-4.0526
X5.5244Y-3.15
X5.5276Y-2.5472
X5.5669Y-2.86
X5.5768Y-2.3653
X5.5787Y-4.9035
X5.628Y-2.8353
X5.6378Y-4.8012
X5.6467Y-3.7368
X5.6673Y-2.8105
X5.6916Y-3.9204
X5.71Y-4.4
X5.7185Y-2.7858
X5.7264Y-4.9016
X5.7736Y-5.0059
X5.7854Y-2.7362
X5.8054Y-3.9455
X5.8532Y-2.761
X5.8549Y-5.9833
X5.8584Y-3.9448
X5.8679Y-4.0515
X5.9188Y-3.4814
X5.9272Y-2.7858
X5.9272Y-3.176
X5.998Y-2.6614
X6.0256Y-2.8105
X6.0256Y-3.1625
X6.0395Y-3.6413
X6.0407Y-5.3025
X6.0437Y-2.7437
X6.0709Y-4.6024
X6.073Y-2.302
X6.0787Y-2.5886
X6.0852Y-3.4896
X6.0984Y-5.1024
X6.1172Y-4.5492
X6.128Y-2.8353
X6.128Y-3.1378
X6.1284Y-2.5168
X6.1476Y-4.7008
X6.1641Y-2.5415
X6.1727Y-4.462
X6.1732Y-4.203
X6.1732Y-4.373
X6.195Y-3.712
X6.1955Y-2.5723
X6.1988Y-4.752
X6.2264Y-2.86
X6.2265Y-2.5415
X6.3259Y-2.5663
X6.3268Y-2.8862
X6.3473Y-3.6356
X6.35Y-4.3515
X6.4055Y-3.6988
X6.4272Y-2.9109
X6.4273Y-2.591
X6.4324Y-5.4035
X6.4348Y-3.7574
X6.4389Y-4.4366
X6.4646Y-5.3031
X6.4884Y-3.6679
X6.5039Y-5.1024
X6.5169Y-3.8053
X6.5433Y-5.2106
X6.63Y-4.41
X6.7499Y-3.251
X6.7559Y-5.7371
X6.7796Y-3.3457
X6.7796Y-3.1212
X6.8043Y-2.8234
X6.8337Y-4.6627
X6.8546Y-4.1031
X6.9057Y-3.4905
X6.9421Y-2.2748
X6.9507Y-5.8706
X6.9594Y-3.7032
X6.9645Y-5.4525
X6.9681Y-5.3897
X6.9843Y-4.1514
X6.9934Y-3.9757
X7.0025Y-5.5439
X7.0138Y-2.5961
X7.0138Y-3.2717
X7.024Y-5.6525
X7.03Y-4.0236
X7.0388Y-4.9318
X7.0388Y-5.2025
X7.0486Y-5.3928
X7.0651Y-3.9884
X7.0832Y-2.3304
X7.1197Y-3.8571
X7.1209Y-4.337
X7.1209Y-4.3905
X7.14Y-4.133
X7.169Y-4.938
X7.171Y-5.141
X7.1872Y-3.7736
X7.188Y-4.789
X7.1906Y-3.85
X7.1929Y-5.0101
X7.2067Y-4.0594
X7.2218Y-4.2763
X7.2322Y-3.588
X7.2713Y-3.62
X7.2739Y-5.0
X7.2813Y-5.7285
X7.2813Y-5.7885
X7.2975Y-5.997
X7.3352Y-5.016
X7.342Y-4.723
X7.3431Y-4.8057
X7.352Y-5.057
X7.361Y-5.214
X7.377Y-4.768
X7.3835Y-4.9382
X7.399Y-3.1963
X7.4004Y-3.1161
X7.403Y-3.651
X7.4033Y-2.8826
X7.4153Y-2.9306
X7.421Y-4.865
X7.4246Y-3.4406
X7.4273Y-3.0128
X7.4283Y-4.5075
X7.437Y-5.2247
X7.44Y-4.6448
X7.4402Y-4.391
X7.4835Y-2.2807
X7.4859Y-5.0051
X7.496Y-3.323
X7.5221Y-2.2661
X7.53Y-5.0114
X7.544Y-3.1485
X7.5509Y-4.491
X7.573Y-5.258
X7.58Y-4.9208
X7.585Y-5.4546
X7.585Y-5.6346
X7.5853Y-5.0175
X7.598Y-5.064
X7.605Y-4.9502
X7.615Y-5.257
X7.6245Y-5.997
X7.641Y-5.014
X7.674Y-4.936
X7.682Y-3.491
X7.704Y-5.284
X7.7042Y-2.2585
X7.7238Y-3.9809
X7.729Y-2.3512
X7.7508Y-4.5361
X7.7598Y-4.0959
X7.7722Y-4.0086
X7.7947Y-4.641
X7.828Y-5.243
X7.839Y-4.767
X7.866Y-4.945
X7.866Y-4.99
X7.867Y-5.033
X7.869Y-5.076
X7.8724Y-2.5744
X7.8935Y-2.5319
X7.9043Y-3.5725
X7.9047Y-2.35
X7.912Y-4.709
X7.9183Y-2.6556
X7.9429Y-2.7272
X7.946Y-3.559
X7.952Y-3.706
X7.9567Y-3.493
X7.9613Y-4.4874
X7.962Y-5.175
X7.967Y-3.648
X7.9677Y-2.756
X7.9866Y-3.2669
X7.994Y-3.0819
X7.9956Y-2.7303
X8.0024Y-4.9866
X8.003Y-5.265
X8.0036Y-4.7783
X8.0202Y-4.6085
X8.039Y-4.897
X8.039Y-5.285
X8.0403Y-5.066
X8.049Y-4.576
X8.0701Y-5.026
X8.0803Y-4.742
X8.0993Y-5.0639
X8.102Y-4.411
X8.108Y-3.5135
X8.118Y-4.542
X8.1642Y-4.5508
X8.166Y-3.619
X8.1732Y-2.9409
X8.1754Y-2.6696
X8.1833Y-5.0648
X8.1898Y-4.1667
X8.2241Y-2.9683
X8.2258Y-3.0299
X8.2496Y-4.7688
X8.2661Y-5.0707
X8.301Y-4.819
X8.303Y-5.043
X8.3063Y-4.972
X8.3122Y-4.8965
X8.316Y-4.744
X8.331Y-5.224
X8.3325Y-4.6843
X8.372Y-4.487
X8.3721Y-5.0866
X8.3866Y-2.5362
X8.3871Y-5.4078
X8.4443Y-4.867
X8.487Y-4.972
X8.5198Y-5.1263
X8.5291Y-5.6224
X8.5352Y-5.4372
X8.538Y-5.171
X8.57Y-4.826
X8.5741Y-5.4911
X8.579Y-5.54
X8.617Y-5.498
X8.624Y-5.551
X8.6457Y-2.5343
X8.7197Y-3.4496
X8.9268Y-5.0169
X8.929Y-5.215
T3
X3.4168Y-3.837
X3.4168Y-4.137
X3.4331Y-4.4025
X3.4331Y-4.5025
X3.4331Y-4.6025
X3.4331Y-4.7025
X3.4331Y-4.8025
X3.4331Y-4.9025
X3.4331Y-5.0025
X3.4331Y-5.1025
X3.4331Y-5.2025
X3.4331Y-5.3025
X3.4331Y-5.4025
X3.4331Y-5.5025
X3.4331Y-5.6025
X3.4331Y-5.7025
X3.4331Y-5.8025
X3.4331Y-5.9025
X3.5168Y-3.837
X3.5168Y-4.137
X3.6168Y-3.837
X3.6168Y-4.137
X3.7168Y-3.837
X3.7168Y-4.137
X3.8168Y-3.837
X3.8168Y-4.137
X3.9168Y-3.837
X3.9168Y-4.137
X4.0168Y-3.837
X4.0168Y-4.137
X4.0331Y-4.4025
X4.0331Y-4.5025
X4.0331Y-4.6025
X4.0331Y-4.7025
X4.0331Y-4.8025
X4.0331Y-4.9025
X4.0331Y-5.0025
X4.0331Y-5.1025
X4.0331Y-5.2025
X4.0331Y-5.3025
X4.0331Y-5.4025
X4.0331Y-5.5025
X4.0331Y-5.6025
X4.0331Y-5.7025
X4.0331Y-5.8025
X4.0331Y-5.9025
X4.1168Y-3.837
X4.1168Y-4.137
X4.2168Y-3.837
X4.2168Y-4.137
X4.3168Y-3.837
X4.3168Y-4.137
X4.3858Y-4.4025
X4.3858Y-4.5025
X4.3858Y-4.6025
X4.3858Y-4.7025
X4.3858Y-4.8025
X4.3858Y-4.9025
X4.3858Y-5.0025
X4.3858Y-5.1025
X4.3858Y-5.2025
X4.3858Y-5.3025
X4.3858Y-5.4025
X4.3858Y-5.5025
X4.3858Y-5.6025
X4.3858Y-5.7025
X4.3858Y-5.8025
X4.3858Y-5.9025
X4.4168Y-3.837
X4.4168Y-4.137
X4.5168Y-3.837
X4.5168Y-4.137
X4.7835Y-3.5701
X4.7835Y-3.8701
X4.9858Y-4.4025
X4.9858Y-4.5025
X4.9858Y-4.6025
X4.9858Y-4.7025
X4.9858Y-4.8025
X4.9858Y-4.9025
X4.9858Y-5.0025
X4.9858Y-5.1025
X4.9858Y-5.2025
X4.9858Y-5.3025
X4.9858Y-5.4025
X4.9858Y-5.5025
X4.9858Y-5.6025
X4.9858Y-5.7025
X4.9858Y-5.8025
X4.9858Y-5.9025
X5.0835Y-3.5701
X5.0835Y-3.8701
X5.3386Y-4.4025
X5.3386Y-4.5025
X5.3386Y-4.6025
X5.3386Y-4.7025
X5.3386Y-4.8025
X5.3386Y-4.9025
X5.3386Y-5.0025
X5.3386Y-5.1025
X5.3386Y-5.2025
X5.3386Y-5.3025
X5.3386Y-5.4025
X5.3386Y-5.5025
X5.3386Y-5.6025
X5.3386Y-5.7025
X5.3386Y-5.8025
X5.3386Y-5.9025
X5.4264Y-3.5622
X5.4264Y-3.8622
X5.5264Y-3.5622
X5.5264Y-3.8622
X5.6264Y-3.5622
X5.6264Y-3.8622
X5.7264Y-3.5622
X5.7264Y-3.8622
X5.8264Y-3.5622
X5.8264Y-3.8622
X5.9264Y-3.5622
X5.9264Y-3.8622
X5.9386Y-4.4025
X5.9386Y-4.5025
X5.9386Y-4.6025
X5.9386Y-4.7025
X5.9386Y-4.8025
X5.9386Y-4.9025
X5.9386Y-5.0025
X5.9386Y-5.1025
X5.9386Y-5.2025
X5.9386Y-5.3025
X5.9386Y-5.4025
X5.9386Y-5.5025
X5.9386Y-5.6025
X5.9386Y-5.7025
X5.9386Y-5.8025
X5.9386Y-5.9025
X6.0264Y-3.5622
X6.0264Y-3.8622
X6.1264Y-3.5622
X6.1264Y-3.8622
X6.2913Y-4.4025
X6.2913Y-4.5025
X6.2913Y-4.6025
X6.2913Y-4.7025
X6.2913Y-4.8025
X6.2913Y-4.9025
X6.2913Y-5.0025
X6.2913Y-5.1025
X6.2913Y-5.2025
X6.2913Y-5.3025
X6.2913Y-5.4025
X6.2913Y-5.5025
X6.2913Y-5.6025
X6.2913Y-5.7025
X6.2913Y-5.8025
X6.2913Y-5.9025
X6.8681Y-2.2963
X6.8681Y-2.3963
X6.8681Y-2.4963
X6.8681Y-2.5963
X6.8681Y-2.6963
X6.8681Y-2.7963
X6.8681Y-2.8963
X6.8681Y-2.9963
X6.8681Y-3.0963
X6.8681Y-3.1963
X6.8681Y-3.2963
X6.8681Y-3.3963
X6.8913Y-4.4025
X6.8913Y-4.5025
X6.8913Y-4.6025
X6.8913Y-4.7025
X6.8913Y-4.8025
X6.8913Y-4.9025
X6.8913Y-5.0025
X6.8913Y-5.1025
X6.8913Y-5.2025
X6.8913Y-5.3025
X6.8913Y-5.4025
X6.8913Y-5.5025
X6.8913Y-5.6025
X6.8913Y-5.7025
X6.8913Y-5.8025
X6.8913Y-5.9025
X7.1681Y-2.2963
X7.1681Y-2.3963
X7.1681Y-2.4963
X7.1681Y-2.5963
X7.1681Y-2.6963
X7.1681Y-2.7963
X7.1681Y-2.8963
X7.1681Y-2.9963
X7.1681Y-3.0963
X7.1681Y-3.1963
X7.1681Y-3.2963
X7.1681Y-3.3963
X7.2572Y-3.841
X7.2572Y-3.941
X7.2572Y-4.041
X7.2572Y-4.141
X7.2572Y-4.241
X7.2572Y-4.341
X7.3259Y-2.2963
X7.3259Y-2.3963
X7.3259Y-2.4963
X7.3259Y-2.5963
X7.3259Y-2.6963
X7.3259Y-2.7963
X7.3259Y-2.8963
X7.3259Y-2.9963
X7.3259Y-3.0963
X7.3259Y-3.1963
X7.3259Y-3.2963
X7.3259Y-3.3963
X7.3572Y-3.741
X7.3572Y-3.841
X7.3572Y-3.941
X7.3572Y-4.041
X7.3572Y-4.141
X7.3572Y-4.241
X7.3572Y-4.341
X7.3572Y-4.441
X7.4572Y-3.741
X7.4572Y-3.841
X7.4572Y-4.341
X7.4572Y-4.441
X7.5099Y-4.684
X7.5572Y-3.741
X7.5572Y-3.841
X7.5572Y-4.341
X7.5572Y-4.441
X7.6259Y-2.2963
X7.6259Y-2.3963
X7.6259Y-2.4963
X7.6259Y-2.5963
X7.6259Y-2.6963
X7.6259Y-2.7963
X7.6259Y-2.8963
X7.6259Y-2.9963
X7.6259Y-3.0963
X7.6259Y-3.1963
X7.6259Y-3.2963
X7.6259Y-3.3963
X7.6572Y-3.741
X7.6572Y-3.841
X7.6572Y-4.341
X7.6572Y-4.441
X7.702Y-4.684
X7.7572Y-3.741
X7.7572Y-3.841
X7.7572Y-4.341
X7.7572Y-4.441
X7.7836Y-2.2963
X7.7836Y-2.3963
X7.7836Y-2.4963
X7.7836Y-2.5963
X7.7836Y-2.6963
X7.7836Y-2.7963
X7.7836Y-2.8963
X7.7836Y-2.9963
X7.7836Y-3.0963
X7.7836Y-3.1963
X7.7836Y-3.2963
X7.7836Y-3.3963
X7.8572Y-3.741
X7.8572Y-3.841
X7.8572Y-3.941
X7.8572Y-4.041
X7.8572Y-4.141
X7.8572Y-4.241
X7.8572Y-4.341
X7.8572Y-4.441
X7.9572Y-3.841
X7.9572Y-3.941
X7.9572Y-4.041
X7.9572Y-4.141
X7.9572Y-4.241
X7.9572Y-4.341
X8.0836Y-2.2963
X8.0836Y-2.3963
X8.0836Y-2.4963
X8.0836Y-2.5963
X8.0836Y-2.6963
X8.0836Y-2.7963
X8.0836Y-2.8963
X8.0836Y-2.9963
X8.0836Y-3.0963
X8.0836Y-3.1963
X8.0836Y-3.2963
X8.0836Y-3.3963
X8.2374Y-3.0994
X8.2374Y-3.1994
X8.2374Y-3.2994
X8.2374Y-3.3994
X8.5374Y-3.0994
X8.5374Y-3.1994
X8.5374Y-3.2994
X8.5374Y-3.3994
T4
X3.4264Y-2.428
X3.4264Y-3.328
X3.4333Y-3.5612
X3.5264Y-2.428
X3.5264Y-3.328
X3.5333Y-3.5612
X3.6264Y-2.428
X3.6264Y-3.328
X3.7264Y-2.428
X3.7264Y-3.328
X3.8264Y-2.428
X3.8264Y-3.328
X3.9264Y-2.428
X3.9264Y-3.328
X4.0264Y-2.428
X4.0264Y-3.328
X4.1264Y-2.428
X4.1264Y-3.328
X4.2264Y-2.428
X4.2264Y-3.328
X4.3264Y-2.428
X4.3264Y-3.328
X4.4264Y-2.428
X4.4264Y-3.328
X4.5264Y-2.428
X4.5264Y-3.328
X4.6264Y-2.428
X4.6264Y-3.328
X4.7264Y-2.428
X4.7264Y-3.328
X4.8264Y-2.428
X4.8264Y-3.328
X4.9264Y-2.428
X4.9264Y-3.328
X5.0264Y-2.428
X5.0264Y-3.328
X5.1264Y-2.428
X5.1264Y-3.328
X5.2264Y-2.428
X5.2264Y-3.328
X5.3264Y-2.428
X5.3264Y-3.328
X5.4264Y-2.428
X5.4264Y-3.328
X5.5264Y-2.428
X5.5264Y-3.328
X5.6264Y-2.428
X5.6264Y-3.328
X5.716Y-4.127
X5.7264Y-2.428
X5.7264Y-3.328
X5.816Y-4.127
X5.8264Y-2.428
X5.8264Y-3.328
X5.9264Y-2.428
X5.9264Y-3.328
X6.0264Y-2.428
X6.0264Y-3.328
X6.1264Y-2.428
X6.1264Y-3.328
X6.2264Y-2.428
X6.2264Y-3.328
X6.3264Y-2.428
X6.3264Y-3.328
X6.4264Y-2.428
X6.4264Y-3.328
X6.5264Y-2.428
X6.5264Y-3.328
X7.0842Y-5.7519
X7.1842Y-5.7519
X7.25Y-5.343
X7.35Y-5.343
X7.4135Y-5.752
X7.5135Y-5.752
X8.227Y-5.556
X8.2307Y-2.3988
X8.247Y-3.597
X8.247Y-3.894
X8.3307Y-2.3988
X8.347Y-3.597
X8.347Y-3.894
X8.367Y-5.556
X8.4906Y-2.3953
X8.5906Y-2.3953
X8.7189Y-3.1854
X8.8189Y-3.1854
T5
X2.8868Y-2.5728
X2.8868Y-2.6728
X2.8868Y-2.7728
X2.8868Y-2.8728
X2.8868Y-2.9728
X2.8868Y-3.0728
X2.8868Y-3.1728
X2.8868Y-3.2728
X2.8868Y-3.3728
X2.8868Y-3.4728
X2.8868Y-3.5728
X2.8868Y-3.6728
X2.8868Y-3.7728
X2.8868Y-3.8728
X2.8868Y-3.9728
X2.8868Y-4.0728
X2.8868Y-4.1728
X2.8868Y-4.2728
X2.8868Y-4.3728
X2.8868Y-4.4728
X2.8868Y-4.5728
X2.8868Y-4.6728
X2.8868Y-4.7728
X2.8868Y-4.8728
X2.8868Y-4.9728
X2.8868Y-5.0728
X2.8868Y-5.1728
X2.8868Y-5.2728
X2.8868Y-5.3728
X2.8868Y-5.4728
X2.8868Y-5.5728
X2.8868Y-5.6728
X2.9868Y-2.5728
X2.9868Y-2.6728
X2.9868Y-2.7728
X2.9868Y-2.8728
X2.9868Y-2.9728
X2.9868Y-3.0728
X2.9868Y-3.1728
X2.9868Y-3.2728
X2.9868Y-3.3728
X2.9868Y-3.4728
X2.9868Y-3.5728
X2.9868Y-3.6728
X2.9868Y-3.7728
X2.9868Y-3.8728
X2.9868Y-3.9728
X2.9868Y-4.0728
X2.9868Y-4.1728
X2.9868Y-4.2728
X2.9868Y-4.3728
X2.9868Y-4.4728
X2.9868Y-4.5728
X2.9868Y-4.6728
X2.9868Y-4.7728
X2.9868Y-4.8728
X2.9868Y-4.9728
X2.9868Y-5.0728
X2.9868Y-5.1728
X2.9868Y-5.2728
X2.9868Y-5.3728
X2.9868Y-5.4728
X2.9868Y-5.5728
X2.9868Y-5.6728
X4.2114Y-4.4083
X4.2114Y-4.5083
X4.2114Y-4.6083
X4.2114Y-4.7083
X4.2114Y-4.8083
X8.3715Y-5.1697
T6
X4.1222Y-3.5981
X4.1222Y-3.6981
X4.292Y-3.5981
X4.292Y-3.6981
X8.4539Y-5.9449
X8.5261Y-3.5889
X8.5261Y-3.6889
X8.5261Y-3.9196
X8.5261Y-4.0196
X8.5261Y-4.1196
X8.5261Y-4.2196
X8.5261Y-4.3196
X8.5261Y-4.4196
X8.5539Y-5.9449
X8.648Y-2.6456
X8.648Y-2.9016
X8.7913Y-3.5889
X8.7913Y-3.6889
X8.7913Y-3.9196
X8.7913Y-4.0196
X8.7913Y-4.1196
X8.7913Y-4.2196
X8.7913Y-4.3196
X8.7913Y-4.4196
X8.7913Y-4.6697
X8.7913Y-4.7697
X8.7913Y-4.8697
X8.7913Y-4.9697
X8.7913Y-5.0697
X8.7913Y-5.1697
X8.826Y-2.6456
X8.826Y-2.9016
T7
X2.815Y-2.311
X2.815Y-5.9646
X8.8307Y-2.311
X8.8307Y-5.9646
T2
G00X8.7248Y-5.3421
M15
G01X8.6815Y-5.3421
M16
G05
G00X8.7248Y-5.6823
M15
G01X8.6815Y-5.6823
M16
G05
G00X8.8831Y-5.3421
M15
G01X8.8516Y-5.3421
M16
G05
G00X8.8831Y-5.6823
M15
G01X8.8516Y-5.6823
M16
G05
T5
G00X7.7726Y-5.5588
M15
G01X7.8514Y-5.5588
M16
G05
G00X7.7726Y-5.795
M15
G01X7.8514Y-5.795
M16
G05
G00X7.997Y-5.7163
M15
G01X7.997Y-5.6375
M16
G05
T0
M30
