%TF.GenerationSoftware,KiCad,Pcbnew,7.0.9*%
%TF.CreationDate,2024-03-22T15:25:39+00:00*%
%TF.ProjectId,rosco_m68k,726f7363-6f5f-46d3-9638-6b2e6b696361,2.2*%
%TF.SameCoordinates,Original*%
%TF.FileFunction,Copper,L1,Top*%
%TF.FilePolarity,Positive*%
%FSLAX46Y46*%
G04 Gerber Fmt 4.6, Leading zero omitted, Abs format (unit mm)*
G04 Created by KiCad (PCBNEW 7.0.9) date 2024-03-22 15:25:39*
%MOMM*%
%LPD*%
G01*
G04 APERTURE LIST*
G04 Aperture macros list*
%AMRoundRect*
0 Rectangle with rounded corners*
0 $1 Rounding radius*
0 $2 $3 $4 $5 $6 $7 $8 $9 X,Y pos of 4 corners*
0 Add a 4 corners polygon primitive as box body*
4,1,4,$2,$3,$4,$5,$6,$7,$8,$9,$2,$3,0*
0 Add four circle primitives for the rounded corners*
1,1,$1+$1,$2,$3*
1,1,$1+$1,$4,$5*
1,1,$1+$1,$6,$7*
1,1,$1+$1,$8,$9*
0 Add four rect primitives between the rounded corners*
20,1,$1+$1,$2,$3,$4,$5,0*
20,1,$1+$1,$4,$5,$6,$7,0*
20,1,$1+$1,$6,$7,$8,$9,0*
20,1,$1+$1,$8,$9,$2,$3,0*%
G04 Aperture macros list end*
%TA.AperFunction,ComponentPad*%
%ADD10C,6.400000*%
%TD*%
%TA.AperFunction,ComponentPad*%
%ADD11O,1.524000X3.048000*%
%TD*%
%TA.AperFunction,ComponentPad*%
%ADD12C,1.600200*%
%TD*%
%TA.AperFunction,ComponentPad*%
%ADD13R,1.422400X1.422400*%
%TD*%
%TA.AperFunction,ComponentPad*%
%ADD14C,1.422400*%
%TD*%
%TA.AperFunction,ComponentPad*%
%ADD15R,2.400000X1.600000*%
%TD*%
%TA.AperFunction,ComponentPad*%
%ADD16O,2.400000X1.600000*%
%TD*%
%TA.AperFunction,ComponentPad*%
%ADD17O,3.048000X1.524000*%
%TD*%
%TA.AperFunction,ComponentPad*%
%ADD18C,1.320800*%
%TD*%
%TA.AperFunction,ComponentPad*%
%ADD19C,1.500000*%
%TD*%
%TA.AperFunction,ComponentPad*%
%ADD20R,1.600000X1.600000*%
%TD*%
%TA.AperFunction,ComponentPad*%
%ADD21C,1.600000*%
%TD*%
%TA.AperFunction,ComponentPad*%
%ADD22R,1.700000X1.700000*%
%TD*%
%TA.AperFunction,ComponentPad*%
%ADD23O,1.700000X1.700000*%
%TD*%
%TA.AperFunction,ComponentPad*%
%ADD24R,1.600000X2.400000*%
%TD*%
%TA.AperFunction,ComponentPad*%
%ADD25O,1.600000X2.400000*%
%TD*%
%TA.AperFunction,ComponentPad*%
%ADD26O,1.320800X2.641600*%
%TD*%
%TA.AperFunction,ComponentPad*%
%ADD27R,3.500000X3.500000*%
%TD*%
%TA.AperFunction,ComponentPad*%
%ADD28RoundRect,0.750000X1.000000X-0.750000X1.000000X0.750000X-1.000000X0.750000X-1.000000X-0.750000X0*%
%TD*%
%TA.AperFunction,ComponentPad*%
%ADD29RoundRect,0.875000X0.875000X-0.875000X0.875000X0.875000X-0.875000X0.875000X-0.875000X-0.875000X0*%
%TD*%
%TA.AperFunction,ComponentPad*%
%ADD30O,1.700000X0.900000*%
%TD*%
%TA.AperFunction,ComponentPad*%
%ADD31O,2.000000X0.900000*%
%TD*%
%TA.AperFunction,ViaPad*%
%ADD32C,0.800000*%
%TD*%
%TA.AperFunction,Conductor*%
%ADD33C,0.152400*%
%TD*%
%TA.AperFunction,Conductor*%
%ADD34C,0.250000*%
%TD*%
%TA.AperFunction,Conductor*%
%ADD35C,0.650000*%
%TD*%
%TA.AperFunction,Conductor*%
%ADD36C,0.850000*%
%TD*%
G04 APERTURE END LIST*
D10*
%TO.P,H1,1,1*%
%TO.N,GND*%
X71500000Y-151500000D03*
%TD*%
%TO.P,H2,1,1*%
%TO.N,GND*%
X71500000Y-58700000D03*
%TD*%
%TO.P,H4,1,1*%
%TO.N,GND*%
X224300000Y-151500000D03*
%TD*%
D11*
%TO.P,S1,1,S*%
%TO.N,Net-(IC15-THR)*%
X219659400Y-73701200D03*
%TO.P,S1,2,S1*%
%TO.N,unconnected-(S1-S1-Pad2)*%
X219659400Y-67198800D03*
%TO.P,S1,3,P*%
%TO.N,Net-(S1-P)*%
X224180600Y-73701200D03*
%TO.P,S1,4,P1*%
%TO.N,unconnected-(S1-P1-Pad4)*%
X224180600Y-67198800D03*
%TD*%
D10*
%TO.P,H3,1,1*%
%TO.N,GND*%
X224300000Y-58700000D03*
%TD*%
D12*
%TO.P,C17,+,+*%
%TO.N,VCC*%
X87205000Y-90454000D03*
%TO.P,C17,-,-*%
%TO.N,GND*%
X89745000Y-90454000D03*
%TD*%
%TO.P,C18,+,+*%
%TO.N,VCC*%
X208946000Y-119329500D03*
%TO.P,C18,-,-*%
%TO.N,GND*%
X211486000Y-119329500D03*
%TD*%
%TO.P,C19,+,+*%
%TO.N,VCC*%
X208946000Y-128363000D03*
%TO.P,C19,-,-*%
%TO.N,GND*%
X211486000Y-128363000D03*
%TD*%
%TO.P,C21,+,+*%
%TO.N,VCC*%
X213772000Y-139890000D03*
%TO.P,C21,-,-*%
%TO.N,GND*%
X217328000Y-139890000D03*
%TD*%
D13*
%TO.P,IC4,1,NC*%
%TO.N,unconnected-(IC4-NC-Pad1)*%
X199572000Y-120199000D03*
D14*
%TO.P,IC4,2,A1*%
%TO.N,A1*%
X202112000Y-117659000D03*
%TO.P,IC4,3,IP3*%
%TO.N,GND*%
X199572000Y-117659000D03*
%TO.P,IC4,4,A2*%
%TO.N,A2*%
X202112000Y-115119000D03*
%TO.P,IC4,5,IP1*%
%TO.N,CTSB*%
X199572000Y-115119000D03*
%TO.P,IC4,6,A3*%
%TO.N,A3*%
X202112000Y-112579000D03*
%TO.P,IC4,7,A4*%
%TO.N,A4*%
X199572000Y-110039000D03*
%TO.P,IC4,8,IP0*%
%TO.N,CTSA*%
X199572000Y-112579000D03*
%TO.P,IC4,9,\u002AR/\u002AW*%
%TO.N,RW*%
X197032000Y-110039000D03*
%TO.P,IC4,10,\u002ADTALK*%
%TO.N,DTACK*%
X197032000Y-112579000D03*
%TO.P,IC4,11,RXDB*%
%TO.N,RXDB*%
X194492000Y-110039000D03*
%TO.P,IC4,12,NC*%
%TO.N,unconnected-(IC4-NC-Pad12)*%
X194492000Y-112579000D03*
%TO.P,IC4,13,TXDB*%
%TO.N,TXDB*%
X191952000Y-110039000D03*
%TO.P,IC4,14,OP1*%
%TO.N,RTSB*%
X191952000Y-112579000D03*
%TO.P,IC4,15,OP3*%
%TO.N,Net-(IC4-OP3)*%
X189412000Y-110039000D03*
%TO.P,IC4,16,OP5*%
%TO.N,Net-(IC4-OP5)*%
X189412000Y-112579000D03*
%TO.P,IC4,17,OP7*%
%TO.N,SPICS2*%
X186872000Y-110039000D03*
%TO.P,IC4,18,D1*%
%TO.N,D1*%
X184332000Y-112579000D03*
%TO.P,IC4,19,D3*%
%TO.N,D3*%
X186872000Y-112579000D03*
%TO.P,IC4,20,D5*%
%TO.N,D5*%
X184332000Y-115119000D03*
%TO.P,IC4,21,D7*%
%TO.N,D7*%
X186872000Y-115119000D03*
%TO.P,IC4,22,GND*%
%TO.N,GND*%
X184332000Y-117659000D03*
%TO.P,IC4,23,NC*%
%TO.N,unconnected-(IC4-NC-Pad23)*%
X186872000Y-117659000D03*
%TO.P,IC4,24,INTR*%
%TO.N,DUAIRQ*%
X184332000Y-120199000D03*
%TO.P,IC4,25,D6*%
%TO.N,D6*%
X186872000Y-120199000D03*
%TO.P,IC4,26,D4*%
%TO.N,D4*%
X184332000Y-122739000D03*
%TO.P,IC4,27,D2*%
%TO.N,D2*%
X186872000Y-122739000D03*
%TO.P,IC4,28,D0*%
%TO.N,D0*%
X184332000Y-125279000D03*
%TO.P,IC4,29,OP6*%
%TO.N,SPIMOSI*%
X186872000Y-127819000D03*
%TO.P,IC4,30,OP4*%
%TO.N,SPICLK*%
X186872000Y-125279000D03*
%TO.P,IC4,31,OP2*%
%TO.N,SPICS*%
X189412000Y-127819000D03*
%TO.P,IC4,32,OP0*%
%TO.N,RTSA*%
X189412000Y-125279000D03*
%TO.P,IC4,33,TXDA*%
%TO.N,TXDA*%
X191952000Y-127819000D03*
%TO.P,IC4,34,NC*%
%TO.N,unconnected-(IC4-NC-Pad34)*%
X191952000Y-125279000D03*
%TO.P,IC4,35,RXDA*%
%TO.N,RXDA*%
X194492000Y-127819000D03*
%TO.P,IC4,36,X1/CLK*%
%TO.N,Net-(IC4-X1{slash}CLK)*%
X194492000Y-125279000D03*
%TO.P,IC4,37,X2*%
%TO.N,Net-(IC4-X2)*%
X197032000Y-127819000D03*
%TO.P,IC4,38,\u002ARESET*%
%TO.N,RESET*%
X197032000Y-125279000D03*
%TO.P,IC4,39,CS*%
%TO.N,DUASEL*%
X199572000Y-127819000D03*
%TO.P,IC4,40,IP2*%
%TO.N,SPIMISO*%
X202112000Y-125279000D03*
%TO.P,IC4,41,\u002AIACK*%
%TO.N,DUAIACK*%
X199572000Y-125279000D03*
%TO.P,IC4,42,IP5*%
%TO.N,GND*%
X202112000Y-122739000D03*
%TO.P,IC4,43,IP4*%
X199572000Y-122739000D03*
%TO.P,IC4,44,VCC*%
%TO.N,VCC*%
X202112000Y-120199000D03*
%TD*%
D15*
%TO.P,IC5,1,I1/CLK*%
%TO.N,AS*%
X186076666Y-58324800D03*
D16*
%TO.P,IC5,2,I2*%
%TO.N,unconnected-(IC5-I2-Pad2)*%
X186076666Y-60864800D03*
%TO.P,IC5,3,I3*%
%TO.N,HWRST*%
X186076666Y-63404800D03*
%TO.P,IC5,4,I4/PD*%
%TO.N,FC2*%
X186076666Y-65944800D03*
%TO.P,IC5,5,I5*%
%TO.N,FC1*%
X186076666Y-68484800D03*
%TO.P,IC5,6,I6*%
%TO.N,FC0*%
X186076666Y-71024800D03*
%TO.P,IC5,7,I7*%
%TO.N,A1*%
X186076666Y-73564800D03*
%TO.P,IC5,8,I8*%
%TO.N,A2*%
X186076666Y-76104800D03*
%TO.P,IC5,9,I9*%
%TO.N,A3*%
X186076666Y-78644800D03*
%TO.P,IC5,10,I10*%
%TO.N,A19*%
X186076666Y-81184800D03*
%TO.P,IC5,11,I11*%
%TO.N,A18*%
X186076666Y-83724800D03*
%TO.P,IC5,12,GND*%
%TO.N,GND*%
X186076666Y-86264800D03*
%TO.P,IC5,13,I13*%
%TO.N,A17*%
X193696666Y-86264800D03*
%TO.P,IC5,14,IO1*%
%TO.N,A16*%
X193696666Y-83724800D03*
%TO.P,IC5,15,IO2*%
%TO.N,HALT*%
X193696666Y-81184800D03*
%TO.P,IC5,16,IO3*%
%TO.N,RESET*%
X193696666Y-78644800D03*
%TO.P,IC5,17,I04*%
%TO.N,RUNLED*%
X193696666Y-76104800D03*
%TO.P,IC5,18,IO5*%
%TO.N,unconnected-(IC5-IO5-Pad18)*%
X193696666Y-73564800D03*
%TO.P,IC5,19,IO6*%
%TO.N,unconnected-(IC5-IO6-Pad19)*%
X193696666Y-71024800D03*
%TO.P,IC5,20,IO7*%
%TO.N,unconnected-(IC5-IO7-Pad20)*%
X193696666Y-68484800D03*
%TO.P,IC5,21,IO8*%
%TO.N,BOOT*%
X193696666Y-65944800D03*
%TO.P,IC5,22,IO9*%
%TO.N,CPUSP*%
X193696666Y-63404800D03*
%TO.P,IC5,23,IO10*%
%TO.N,DUAIACK*%
X193696666Y-60864800D03*
%TO.P,IC5,24,VCC*%
%TO.N,VCC*%
X193696666Y-58324800D03*
%TD*%
D17*
%TO.P,JP1,1,A*%
%TO.N,VCCUA*%
X223300000Y-91159000D03*
%TO.P,JP1,2,B*%
%TO.N,VCC*%
X223300000Y-93699000D03*
%TD*%
D18*
%TO.P,LED3,A,A*%
%TO.N,Net-(LED3-PadA)*%
X211600000Y-60930000D03*
%TO.P,LED3,K,C*%
%TO.N,RUNLED*%
X209060000Y-60930000D03*
%TD*%
%TO.P,LED4,A,A*%
%TO.N,Net-(LED4-PadA)*%
X218200000Y-60840000D03*
%TO.P,LED4,K,C*%
%TO.N,RESET*%
X215660000Y-60840000D03*
%TD*%
D19*
%TO.P,Q1,1,1*%
%TO.N,Net-(IC4-X1{slash}CLK)*%
X190750800Y-135661400D03*
%TO.P,Q1,2,2*%
%TO.N,Net-(IC4-X2)*%
X195630800Y-135661400D03*
%TD*%
D20*
%TO.P,Q2,1,EN*%
%TO.N,Net-(Q2-EN)*%
X121500000Y-98300000D03*
D21*
%TO.P,Q2,4,GND*%
%TO.N,GND*%
X129120000Y-98300000D03*
%TO.P,Q2,5,OUT*%
%TO.N,CLK*%
X129120000Y-90680000D03*
%TO.P,Q2,8,Vcc*%
%TO.N,VCC*%
X121500000Y-90680000D03*
%TD*%
D15*
%TO.P,U4,1,A18*%
%TO.N,A19*%
X159800000Y-111823600D03*
D16*
%TO.P,U4,2,A16*%
%TO.N,A17*%
X159800000Y-114363600D03*
%TO.P,U4,3,A14*%
%TO.N,A15*%
X159800000Y-116903600D03*
%TO.P,U4,4,A12*%
%TO.N,A13*%
X159800000Y-119443600D03*
%TO.P,U4,5,A7*%
%TO.N,A8*%
X159800000Y-121983600D03*
%TO.P,U4,6,A6*%
%TO.N,A7*%
X159800000Y-124523600D03*
%TO.P,U4,7,A5*%
%TO.N,A6*%
X159800000Y-127063600D03*
%TO.P,U4,8,A4*%
%TO.N,A5*%
X159800000Y-129603600D03*
%TO.P,U4,9,A3*%
%TO.N,A4*%
X159800000Y-132143600D03*
%TO.P,U4,10,A2*%
%TO.N,A3*%
X159800000Y-134683600D03*
%TO.P,U4,11,A1*%
%TO.N,A2*%
X159800000Y-137223600D03*
%TO.P,U4,12,A0*%
%TO.N,A1*%
X159800000Y-139763600D03*
%TO.P,U4,13,DQ0*%
%TO.N,D8*%
X159800000Y-142303600D03*
%TO.P,U4,14,DQ1*%
%TO.N,D9*%
X159800000Y-144843600D03*
%TO.P,U4,15,DQ2*%
%TO.N,D10*%
X159800000Y-147383600D03*
%TO.P,U4,16,VSS*%
%TO.N,GND*%
X159800000Y-149923600D03*
%TO.P,U4,17,DQ3*%
%TO.N,D11*%
X175040000Y-149923600D03*
%TO.P,U4,18,DQ4*%
%TO.N,D12*%
X175040000Y-147383600D03*
%TO.P,U4,19,DQ5*%
%TO.N,D13*%
X175040000Y-144843600D03*
%TO.P,U4,20,DQ6*%
%TO.N,D14*%
X175040000Y-142303600D03*
%TO.P,U4,21,DQ7*%
%TO.N,D15*%
X175040000Y-139763600D03*
%TO.P,U4,22,CE*%
%TO.N,EVENRAMSEL*%
X175040000Y-137223600D03*
%TO.P,U4,23,A10*%
%TO.N,A11*%
X175040000Y-134683600D03*
%TO.P,U4,24,OE*%
%TO.N,WR*%
X175040000Y-132143600D03*
%TO.P,U4,25,A11*%
%TO.N,A12*%
X175040000Y-129603600D03*
%TO.P,U4,26,A9*%
%TO.N,A10*%
X175040000Y-127063600D03*
%TO.P,U4,27,A8*%
%TO.N,A9*%
X175040000Y-124523600D03*
%TO.P,U4,28,A13*%
%TO.N,A14*%
X175040000Y-121983600D03*
%TO.P,U4,29,WE*%
%TO.N,RW*%
X175040000Y-119443600D03*
%TO.P,U4,30,A17*%
%TO.N,A18*%
X175040000Y-116903600D03*
%TO.P,U4,31,A15*%
%TO.N,A16*%
X175040000Y-114363600D03*
%TO.P,U4,32,VCC*%
%TO.N,VCC*%
X175040000Y-111823600D03*
%TD*%
D15*
%TO.P,U3,1,A18*%
%TO.N,A19*%
X135600000Y-111823600D03*
D16*
%TO.P,U3,2,A16*%
%TO.N,A17*%
X135600000Y-114363600D03*
%TO.P,U3,3,A14*%
%TO.N,A15*%
X135600000Y-116903600D03*
%TO.P,U3,4,A12*%
%TO.N,A13*%
X135600000Y-119443600D03*
%TO.P,U3,5,A7*%
%TO.N,A8*%
X135600000Y-121983600D03*
%TO.P,U3,6,A6*%
%TO.N,A7*%
X135600000Y-124523600D03*
%TO.P,U3,7,A5*%
%TO.N,A6*%
X135600000Y-127063600D03*
%TO.P,U3,8,A4*%
%TO.N,A5*%
X135600000Y-129603600D03*
%TO.P,U3,9,A3*%
%TO.N,A4*%
X135600000Y-132143600D03*
%TO.P,U3,10,A2*%
%TO.N,A3*%
X135600000Y-134683600D03*
%TO.P,U3,11,A1*%
%TO.N,A2*%
X135600000Y-137223600D03*
%TO.P,U3,12,A0*%
%TO.N,A1*%
X135600000Y-139763600D03*
%TO.P,U3,13,DQ0*%
%TO.N,D0*%
X135600000Y-142303600D03*
%TO.P,U3,14,DQ1*%
%TO.N,D1*%
X135600000Y-144843600D03*
%TO.P,U3,15,DQ2*%
%TO.N,D2*%
X135600000Y-147383600D03*
%TO.P,U3,16,VSS*%
%TO.N,GND*%
X135600000Y-149923600D03*
%TO.P,U3,17,DQ3*%
%TO.N,D3*%
X150840000Y-149923600D03*
%TO.P,U3,18,DQ4*%
%TO.N,D4*%
X150840000Y-147383600D03*
%TO.P,U3,19,DQ5*%
%TO.N,D5*%
X150840000Y-144843600D03*
%TO.P,U3,20,DQ6*%
%TO.N,D6*%
X150840000Y-142303600D03*
%TO.P,U3,21,DQ7*%
%TO.N,D7*%
X150840000Y-139763600D03*
%TO.P,U3,22,CE*%
%TO.N,ODDRAMSEL*%
X150840000Y-137223600D03*
%TO.P,U3,23,A10*%
%TO.N,A11*%
X150840000Y-134683600D03*
%TO.P,U3,24,OE*%
%TO.N,WR*%
X150840000Y-132143600D03*
%TO.P,U3,25,A11*%
%TO.N,A12*%
X150840000Y-129603600D03*
%TO.P,U3,26,A9*%
%TO.N,A10*%
X150840000Y-127063600D03*
%TO.P,U3,27,A8*%
%TO.N,A9*%
X150840000Y-124523600D03*
%TO.P,U3,28,A13*%
%TO.N,A14*%
X150840000Y-121983600D03*
%TO.P,U3,29,WE*%
%TO.N,RW*%
X150840000Y-119443600D03*
%TO.P,U3,30,A17*%
%TO.N,A18*%
X150840000Y-116903600D03*
%TO.P,U3,31,A15*%
%TO.N,A16*%
X150840000Y-114363600D03*
%TO.P,U3,32,VCC*%
%TO.N,VCC*%
X150840000Y-111823600D03*
%TD*%
D15*
%TO.P,U2,1,A18*%
%TO.N,A19*%
X111400000Y-111823600D03*
D16*
%TO.P,U2,2,A16*%
%TO.N,A17*%
X111400000Y-114363600D03*
%TO.P,U2,3,A15*%
%TO.N,A16*%
X111400000Y-116903600D03*
%TO.P,U2,4,A12*%
%TO.N,A13*%
X111400000Y-119443600D03*
%TO.P,U2,5,A7*%
%TO.N,A8*%
X111400000Y-121983600D03*
%TO.P,U2,6,A6*%
%TO.N,A7*%
X111400000Y-124523600D03*
%TO.P,U2,7,A5*%
%TO.N,A6*%
X111400000Y-127063600D03*
%TO.P,U2,8,A4*%
%TO.N,A5*%
X111400000Y-129603600D03*
%TO.P,U2,9,A3*%
%TO.N,A4*%
X111400000Y-132143600D03*
%TO.P,U2,10,A2*%
%TO.N,A3*%
X111400000Y-134683600D03*
%TO.P,U2,11,A1*%
%TO.N,A2*%
X111400000Y-137223600D03*
%TO.P,U2,12,A0*%
%TO.N,A1*%
X111400000Y-139763600D03*
%TO.P,U2,13,D0*%
%TO.N,D8*%
X111400000Y-142303600D03*
%TO.P,U2,14,D1*%
%TO.N,D9*%
X111400000Y-144843600D03*
%TO.P,U2,15,D2*%
%TO.N,D10*%
X111400000Y-147383600D03*
%TO.P,U2,16,GND*%
%TO.N,GND*%
X111400000Y-149923600D03*
%TO.P,U2,17,D3*%
%TO.N,D11*%
X126640000Y-149923600D03*
%TO.P,U2,18,D4*%
%TO.N,D12*%
X126640000Y-147383600D03*
%TO.P,U2,19,D5*%
%TO.N,D13*%
X126640000Y-144843600D03*
%TO.P,U2,20,D6*%
%TO.N,D14*%
X126640000Y-142303600D03*
%TO.P,U2,21,D7*%
%TO.N,D15*%
X126640000Y-139763600D03*
%TO.P,U2,22,CE*%
%TO.N,EVENROMSEL*%
X126640000Y-137223600D03*
%TO.P,U2,23,A10*%
%TO.N,A11*%
X126640000Y-134683600D03*
%TO.P,U2,24,OE*%
%TO.N,WR*%
X126640000Y-132143600D03*
%TO.P,U2,25,A11*%
%TO.N,A12*%
X126640000Y-129603600D03*
%TO.P,U2,26,A9*%
%TO.N,A10*%
X126640000Y-127063600D03*
%TO.P,U2,27,A8*%
%TO.N,A9*%
X126640000Y-124523600D03*
%TO.P,U2,28,A13*%
%TO.N,A14*%
X126640000Y-121983600D03*
%TO.P,U2,29,A14*%
%TO.N,A15*%
X126640000Y-119443600D03*
%TO.P,U2,30,A17*%
%TO.N,A18*%
X126640000Y-116903600D03*
%TO.P,U2,31,PGM*%
%TO.N,ROM_RW*%
X126640000Y-114363600D03*
%TO.P,U2,32,VCC*%
%TO.N,VCC*%
X126640000Y-111823600D03*
%TD*%
D22*
%TO.P,J3,1,Pin_1*%
%TO.N,A1*%
X73325000Y-65350000D03*
D23*
%TO.P,J3,2,Pin_2*%
%TO.N,VCC*%
X75865000Y-65350000D03*
%TO.P,J3,3,Pin_3*%
%TO.N,A2*%
X73325000Y-67890000D03*
%TO.P,J3,4,Pin_4*%
%TO.N,CLK*%
X75865000Y-67890000D03*
%TO.P,J3,5,Pin_5*%
%TO.N,A3*%
X73325000Y-70430000D03*
%TO.P,J3,6,Pin_6*%
%TO.N,GND*%
X75865000Y-70430000D03*
%TO.P,J3,7,Pin_7*%
%TO.N,A4*%
X73325000Y-72970000D03*
%TO.P,J3,8,Pin_8*%
%TO.N,VPA*%
X75865000Y-72970000D03*
%TO.P,J3,9,Pin_9*%
%TO.N,A5*%
X73325000Y-75510000D03*
%TO.P,J3,10,Pin_10*%
%TO.N,E*%
X75865000Y-75510000D03*
%TO.P,J3,11,Pin_11*%
%TO.N,A6*%
X73325000Y-78050000D03*
%TO.P,J3,12,Pin_12*%
%TO.N,VMA*%
X75865000Y-78050000D03*
%TO.P,J3,13,Pin_13*%
%TO.N,A7*%
X73325000Y-80590000D03*
%TO.P,J3,14,Pin_14*%
%TO.N,IRQ3*%
X75865000Y-80590000D03*
%TO.P,J3,15,Pin_15*%
%TO.N,A8*%
X73325000Y-83130000D03*
%TO.P,J3,16,Pin_16*%
%TO.N,IOSEL*%
X75865000Y-83130000D03*
%TO.P,J3,17,Pin_17*%
%TO.N,A9*%
X73325000Y-85670000D03*
%TO.P,J3,18,Pin_18*%
%TO.N,EXPSEL*%
X75865000Y-85670000D03*
%TO.P,J3,19,Pin_19*%
%TO.N,A10*%
X73325000Y-88210000D03*
%TO.P,J3,20,Pin_20*%
%TO.N,FC0*%
X75865000Y-88210000D03*
%TO.P,J3,21,Pin_21*%
%TO.N,A11*%
X73325000Y-90750000D03*
%TO.P,J3,22,Pin_22*%
%TO.N,FC1*%
X75865000Y-90750000D03*
%TO.P,J3,23,Pin_23*%
%TO.N,A12*%
X73325000Y-93290000D03*
%TO.P,J3,24,Pin_24*%
%TO.N,FC2*%
X75865000Y-93290000D03*
%TO.P,J3,25,Pin_25*%
%TO.N,A13*%
X73325000Y-95830000D03*
%TO.P,J3,26,Pin_26*%
%TO.N,IRQ5*%
X75865000Y-95830000D03*
%TO.P,J3,27,Pin_27*%
%TO.N,A14*%
X73325000Y-98370000D03*
%TO.P,J3,28,Pin_28*%
%TO.N,IRQ2*%
X75865000Y-98370000D03*
%TO.P,J3,29,Pin_29*%
%TO.N,A15*%
X73325000Y-100910000D03*
%TO.P,J3,30,Pin_30*%
%TO.N,IRQ6*%
X75865000Y-100910000D03*
%TO.P,J3,31,Pin_31*%
%TO.N,A16*%
X73325000Y-103450000D03*
%TO.P,J3,32,Pin_32*%
%TO.N,LDS*%
X75865000Y-103450000D03*
%TO.P,J3,33,Pin_33*%
%TO.N,A17*%
X73325000Y-105990000D03*
%TO.P,J3,34,Pin_34*%
%TO.N,UDS*%
X75865000Y-105990000D03*
%TO.P,J3,35,Pin_35*%
%TO.N,A18*%
X73325000Y-108530000D03*
%TO.P,J3,36,Pin_36*%
%TO.N,RESET*%
X75865000Y-108530000D03*
%TO.P,J3,37,Pin_37*%
%TO.N,A19*%
X73325000Y-111070000D03*
%TO.P,J3,38,Pin_38*%
%TO.N,D15*%
X75865000Y-111070000D03*
%TO.P,J3,39,Pin_39*%
%TO.N,A20*%
X73325000Y-113610000D03*
%TO.P,J3,40,Pin_40*%
%TO.N,D14*%
X75865000Y-113610000D03*
%TO.P,J3,41,Pin_41*%
%TO.N,A21*%
X73325000Y-116150000D03*
%TO.P,J3,42,Pin_42*%
%TO.N,D13*%
X75865000Y-116150000D03*
%TO.P,J3,43,Pin_43*%
%TO.N,A22*%
X73325000Y-118690000D03*
%TO.P,J3,44,Pin_44*%
%TO.N,D12*%
X75865000Y-118690000D03*
%TO.P,J3,45,Pin_45*%
%TO.N,A23*%
X73325000Y-121230000D03*
%TO.P,J3,46,Pin_46*%
%TO.N,D11*%
X75865000Y-121230000D03*
%TO.P,J3,47,Pin_47*%
%TO.N,AS*%
X73325000Y-123770000D03*
%TO.P,J3,48,Pin_48*%
%TO.N,D10*%
X75865000Y-123770000D03*
%TO.P,J3,49,Pin_49*%
%TO.N,BERR*%
X73325000Y-126310000D03*
%TO.P,J3,50,Pin_50*%
%TO.N,D9*%
X75865000Y-126310000D03*
%TO.P,J3,51,Pin_51*%
%TO.N,BG*%
X73325000Y-128850000D03*
%TO.P,J3,52,Pin_52*%
%TO.N,D8*%
X75865000Y-128850000D03*
%TO.P,J3,53,Pin_53*%
%TO.N,BGACK*%
X73325000Y-131390000D03*
%TO.P,J3,54,Pin_54*%
%TO.N,D7*%
X75865000Y-131390000D03*
%TO.P,J3,55,Pin_55*%
%TO.N,BR*%
X73325000Y-133930000D03*
%TO.P,J3,56,Pin_56*%
%TO.N,D6*%
X75865000Y-133930000D03*
%TO.P,J3,57,Pin_57*%
%TO.N,DTACK*%
X73325000Y-136470000D03*
%TO.P,J3,58,Pin_58*%
%TO.N,D5*%
X75865000Y-136470000D03*
%TO.P,J3,59,Pin_59*%
%TO.N,RW*%
X73325000Y-139010000D03*
%TO.P,J3,60,Pin_60*%
%TO.N,D4*%
X75865000Y-139010000D03*
%TO.P,J3,61,Pin_61*%
%TO.N,D0*%
X73325000Y-141550000D03*
%TO.P,J3,62,Pin_62*%
%TO.N,D3*%
X75865000Y-141550000D03*
%TO.P,J3,63,Pin_63*%
%TO.N,D1*%
X73325000Y-144090000D03*
%TO.P,J3,64,Pin_64*%
%TO.N,D2*%
X75865000Y-144090000D03*
%TD*%
D15*
%TO.P,IC6,1,I1/CLK*%
%TO.N,CLK*%
X174450000Y-58324800D03*
D16*
%TO.P,IC6,2,I2*%
%TO.N,AS*%
X174450000Y-60864800D03*
%TO.P,IC6,3,I3*%
%TO.N,CPUSP*%
X174450000Y-63404800D03*
%TO.P,IC6,4,I4/PD*%
%TO.N,A19*%
X174450000Y-65944800D03*
%TO.P,IC6,5,I5*%
%TO.N,A18*%
X174450000Y-68484800D03*
%TO.P,IC6,6,I6*%
%TO.N,A16*%
X174450000Y-71024800D03*
%TO.P,IC6,7,I7*%
%TO.N,A17*%
X174450000Y-73564800D03*
%TO.P,IC6,8,I8*%
%TO.N,unconnected-(IC6-I8-Pad8)*%
X174450000Y-76104800D03*
%TO.P,IC6,9,I9*%
%TO.N,unconnected-(IC6-I9-Pad9)*%
X174450000Y-78644800D03*
%TO.P,IC6,10,I10*%
%TO.N,unconnected-(IC6-I10-Pad10)*%
X174450000Y-81184800D03*
%TO.P,IC6,11,I11*%
%TO.N,unconnected-(IC6-I11-Pad11)*%
X174450000Y-83724800D03*
%TO.P,IC6,12,GND*%
%TO.N,GND*%
X174450000Y-86264800D03*
%TO.P,IC6,13,I13*%
X182070000Y-86264800D03*
%TO.P,IC6,14,IO1*%
%TO.N,unconnected-(IC6-IO1-Pad14)*%
X182070000Y-83724800D03*
%TO.P,IC6,15,IO2*%
%TO.N,unconnected-(IC6-IO2-Pad15)*%
X182070000Y-81184800D03*
%TO.P,IC6,16,IO3*%
%TO.N,unconnected-(IC6-IO3-Pad16)*%
X182070000Y-78644800D03*
%TO.P,IC6,17,I04*%
%TO.N,unconnected-(IC6-I04-Pad17)*%
X182070000Y-76104800D03*
%TO.P,IC6,18,IO5*%
%TO.N,unconnected-(IC6-IO5-Pad18)*%
X182070000Y-73564800D03*
%TO.P,IC6,19,IO6*%
%TO.N,unconnected-(IC6-IO6-Pad19)*%
X182070000Y-71024800D03*
%TO.P,IC6,20,IO7*%
%TO.N,unconnected-(IC6-IO7-Pad20)*%
X182070000Y-68484800D03*
%TO.P,IC6,21,IO8*%
%TO.N,unconnected-(IC6-IO8-Pad21)*%
X182070000Y-65944800D03*
%TO.P,IC6,22,IO9*%
%TO.N,unconnected-(IC6-IO9-Pad22)*%
X182070000Y-63404800D03*
%TO.P,IC6,23,IO10*%
%TO.N,BERR*%
X182070000Y-60864800D03*
%TO.P,IC6,24,VCC*%
%TO.N,VCC*%
X182070000Y-58324800D03*
%TD*%
D17*
%TO.P,J4,1,Pin_1*%
%TO.N,SPICS*%
X223300000Y-131310000D03*
%TO.P,J4,2,Pin_2*%
%TO.N,SPICLK*%
X223300000Y-128770000D03*
%TO.P,J4,3,Pin_3*%
%TO.N,SPIMOSI*%
X223300000Y-126230000D03*
%TO.P,J4,4,Pin_4*%
%TO.N,SPIMISO*%
X223300000Y-123690000D03*
%TO.P,J4,5,Pin_5*%
%TO.N,VCC*%
X223300000Y-121150000D03*
%TO.P,J4,6,Pin_6*%
%TO.N,GND*%
X223300000Y-118610000D03*
%TD*%
D12*
%TO.P,C14,+,+*%
%TO.N,VCC*%
X208946000Y-110296000D03*
%TO.P,C14,-,-*%
%TO.N,GND*%
X211486000Y-110296000D03*
%TD*%
%TO.P,C15,+,+*%
%TO.N,VCC*%
X145149000Y-104943000D03*
%TO.P,C15,-,-*%
%TO.N,GND*%
X147689000Y-104943000D03*
%TD*%
D17*
%TO.P,J2,1,Pin_1*%
%TO.N,GND*%
X216564000Y-112258000D03*
%TO.P,J2,2,Pin_2*%
%TO.N,RTSB*%
X216564000Y-109718000D03*
%TO.P,J2,3,Pin_3*%
%TO.N,VCCUB*%
X216564000Y-107178000D03*
%TO.P,J2,4,Pin_4*%
%TO.N,RXDB*%
X216564000Y-104638000D03*
%TO.P,J2,5,Pin_5*%
%TO.N,TXDB*%
X216564000Y-102098000D03*
%TO.P,J2,6,Pin_6*%
%TO.N,CTSB*%
X216564000Y-99558000D03*
%TD*%
%TO.P,J1,1,Pin_1*%
%TO.N,GND*%
X223300000Y-112258000D03*
%TO.P,J1,2,Pin_2*%
%TO.N,RTSA*%
X223300000Y-109718000D03*
%TO.P,J1,3,Pin_3*%
%TO.N,VCCUA*%
X223300000Y-107178000D03*
%TO.P,J1,4,Pin_4*%
%TO.N,RXDA*%
X223300000Y-104638000D03*
%TO.P,J1,5,Pin_5*%
%TO.N,TXDA*%
X223300000Y-102098000D03*
%TO.P,J1,6,Pin_6*%
%TO.N,CTSA*%
X223300000Y-99558000D03*
%TD*%
D11*
%TO.P,J5,1,1*%
%TO.N,VCC*%
X214730000Y-151000000D03*
%TO.P,J5,2,2*%
%TO.N,GND*%
X217270000Y-151000000D03*
%TD*%
D15*
%TO.P,IC15,1,GND*%
%TO.N,GND*%
X209230000Y-78724800D03*
D16*
%TO.P,IC15,2,TR*%
%TO.N,Net-(IC15-THR)*%
X209230000Y-81264800D03*
%TO.P,IC15,3,Q*%
%TO.N,HWRST*%
X209230000Y-83804800D03*
%TO.P,IC15,4,R*%
%TO.N,VCC*%
X209230000Y-86344800D03*
%TO.P,IC15,5,CV*%
%TO.N,Net-(IC15-CV)*%
X216850000Y-86344800D03*
%TO.P,IC15,6,THR*%
%TO.N,Net-(IC15-THR)*%
X216850000Y-83804800D03*
%TO.P,IC15,7,DIS*%
%TO.N,unconnected-(IC15-DIS-Pad7)*%
X216850000Y-81264800D03*
%TO.P,IC15,8,V+*%
%TO.N,VCC*%
X216850000Y-78724800D03*
%TD*%
D17*
%TO.P,JP2,1,A*%
%TO.N,VCCUB*%
X216564000Y-91159000D03*
%TO.P,JP2,2,B*%
%TO.N,VCC*%
X216564000Y-93699000D03*
%TD*%
%TO.P,JP3,1,A*%
%TO.N,RW*%
X104703000Y-91393000D03*
%TO.P,JP3,2,B*%
%TO.N,ROM_RW*%
X104703000Y-93933000D03*
%TD*%
D18*
%TO.P,LED1,A,A*%
%TO.N,Net-(LED1-PadA)*%
X186706800Y-146098800D03*
%TO.P,LED1,K,C*%
%TO.N,Net-(IC4-OP5)*%
X184166800Y-146098800D03*
%TD*%
%TO.P,LED2,A,A*%
%TO.N,Net-(LED2-PadA)*%
X195072000Y-146100800D03*
%TO.P,LED2,K,C*%
%TO.N,Net-(IC4-OP3)*%
X192532000Y-146100800D03*
%TD*%
D17*
%TO.P,JP4,1,A*%
%TO.N,LGEXP*%
X109018000Y-93933000D03*
%TO.P,JP4,2,B*%
%TO.N,GND*%
X109018000Y-91393000D03*
%TD*%
D15*
%TO.P,U1,1,A18*%
%TO.N,A19*%
X87200000Y-111823600D03*
D16*
%TO.P,U1,2,A16*%
%TO.N,A17*%
X87200000Y-114363600D03*
%TO.P,U1,3,A15*%
%TO.N,A16*%
X87200000Y-116903600D03*
%TO.P,U1,4,A12*%
%TO.N,A13*%
X87200000Y-119443600D03*
%TO.P,U1,5,A7*%
%TO.N,A8*%
X87200000Y-121983600D03*
%TO.P,U1,6,A6*%
%TO.N,A7*%
X87200000Y-124523600D03*
%TO.P,U1,7,A5*%
%TO.N,A6*%
X87200000Y-127063600D03*
%TO.P,U1,8,A4*%
%TO.N,A5*%
X87200000Y-129603600D03*
%TO.P,U1,9,A3*%
%TO.N,A4*%
X87200000Y-132143600D03*
%TO.P,U1,10,A2*%
%TO.N,A3*%
X87200000Y-134683600D03*
%TO.P,U1,11,A1*%
%TO.N,A2*%
X87200000Y-137223600D03*
%TO.P,U1,12,A0*%
%TO.N,A1*%
X87200000Y-139763600D03*
%TO.P,U1,13,D0*%
%TO.N,D0*%
X87200000Y-142303600D03*
%TO.P,U1,14,D1*%
%TO.N,D1*%
X87200000Y-144843600D03*
%TO.P,U1,15,D2*%
%TO.N,D2*%
X87200000Y-147383600D03*
%TO.P,U1,16,GND*%
%TO.N,GND*%
X87200000Y-149923600D03*
%TO.P,U1,17,D3*%
%TO.N,D3*%
X102440000Y-149923600D03*
%TO.P,U1,18,D4*%
%TO.N,D4*%
X102440000Y-147383600D03*
%TO.P,U1,19,D5*%
%TO.N,D5*%
X102440000Y-144843600D03*
%TO.P,U1,20,D6*%
%TO.N,D6*%
X102440000Y-142303600D03*
%TO.P,U1,21,D7*%
%TO.N,D7*%
X102440000Y-139763600D03*
%TO.P,U1,22,CE*%
%TO.N,ODDROMSEL*%
X102440000Y-137223600D03*
%TO.P,U1,23,A10*%
%TO.N,A11*%
X102440000Y-134683600D03*
%TO.P,U1,24,OE*%
%TO.N,WR*%
X102440000Y-132143600D03*
%TO.P,U1,25,A11*%
%TO.N,A12*%
X102440000Y-129603600D03*
%TO.P,U1,26,A9*%
%TO.N,A10*%
X102440000Y-127063600D03*
%TO.P,U1,27,A8*%
%TO.N,A9*%
X102440000Y-124523600D03*
%TO.P,U1,28,A13*%
%TO.N,A14*%
X102440000Y-121983600D03*
%TO.P,U1,29,A14*%
%TO.N,A15*%
X102440000Y-119443600D03*
%TO.P,U1,30,A17*%
%TO.N,A18*%
X102440000Y-116903600D03*
%TO.P,U1,31,PGM*%
%TO.N,ROM_RW*%
X102440000Y-114363600D03*
%TO.P,U1,32,VCC*%
%TO.N,VCC*%
X102440000Y-111823600D03*
%TD*%
D12*
%TO.P,C11,+,+*%
%TO.N,Net-(IC15-THR)*%
X221459000Y-80910000D03*
%TO.P,C11,-,-*%
%TO.N,GND*%
X223999000Y-80910000D03*
%TD*%
D15*
%TO.P,IC3,1,I1/CLK*%
%TO.N,A6*%
X197703332Y-58324800D03*
D16*
%TO.P,IC3,2,I2*%
%TO.N,A7*%
X197703332Y-60864800D03*
%TO.P,IC3,3,I3*%
%TO.N,A8*%
X197703332Y-63404800D03*
%TO.P,IC3,4,I4/PD*%
%TO.N,A9*%
X197703332Y-65944800D03*
%TO.P,IC3,5,I5*%
%TO.N,A10*%
X197703332Y-68484800D03*
%TO.P,IC3,6,I6*%
%TO.N,A11*%
X197703332Y-71024800D03*
%TO.P,IC3,7,I7*%
%TO.N,A12*%
X197703332Y-73564800D03*
%TO.P,IC3,8,I8*%
%TO.N,A13*%
X197703332Y-76104800D03*
%TO.P,IC3,9,I9*%
%TO.N,A14*%
X197703332Y-78644800D03*
%TO.P,IC3,10,I10*%
%TO.N,A15*%
X197703332Y-81184800D03*
%TO.P,IC3,11,I11*%
%TO.N,A16*%
X197703332Y-83724800D03*
%TO.P,IC3,12,GND*%
%TO.N,GND*%
X197703332Y-86264800D03*
%TO.P,IC3,13,I13*%
%TO.N,unconnected-(IC3-I13-Pad13)*%
X205323332Y-86264800D03*
%TO.P,IC3,14,IO1*%
%TO.N,A19*%
X205323332Y-83724800D03*
%TO.P,IC3,15,IO2*%
%TO.N,unconnected-(IC3-IO2-Pad15)*%
X205323332Y-81184800D03*
%TO.P,IC3,16,IO3*%
%TO.N,A17*%
X205323332Y-78644800D03*
%TO.P,IC3,17,I04*%
%TO.N,A18*%
X205323332Y-76104800D03*
%TO.P,IC3,18,IO5*%
%TO.N,LDS*%
X205323332Y-73564800D03*
%TO.P,IC3,19,IO6*%
%TO.N,IOSEL*%
X205323332Y-71024800D03*
%TO.P,IC3,20,IO7*%
%TO.N,DUASEL*%
X205323332Y-68484800D03*
%TO.P,IC3,21,IO8*%
%TO.N,FC0*%
X205323332Y-65944800D03*
%TO.P,IC3,22,IO9*%
%TO.N,FC1*%
X205323332Y-63404800D03*
%TO.P,IC3,23,IO10*%
%TO.N,FC2*%
X205323332Y-60864800D03*
%TO.P,IC3,24,VCC*%
%TO.N,VCC*%
X205323332Y-58324800D03*
%TD*%
D24*
%TO.P,IC2,1,I1/CLK*%
%TO.N,A18*%
X86787000Y-105081000D03*
D25*
%TO.P,IC2,2,I2*%
%TO.N,A19*%
X89327000Y-105081000D03*
%TO.P,IC2,3,I3*%
%TO.N,A20*%
X91867000Y-105081000D03*
%TO.P,IC2,4,I4/PD*%
%TO.N,A21*%
X94407000Y-105081000D03*
%TO.P,IC2,5,I5*%
%TO.N,A22*%
X96947000Y-105081000D03*
%TO.P,IC2,6,I6*%
%TO.N,A23*%
X99487000Y-105081000D03*
%TO.P,IC2,7,I7*%
%TO.N,UDS*%
X102027000Y-105081000D03*
%TO.P,IC2,8,I8*%
%TO.N,LDS*%
X104567000Y-105081000D03*
%TO.P,IC2,9,I9*%
%TO.N,BOOT*%
X107107000Y-105081000D03*
%TO.P,IC2,10,I10*%
%TO.N,LGEXP*%
X109647000Y-105081000D03*
%TO.P,IC2,11,I11*%
%TO.N,RW*%
X112187000Y-105081000D03*
%TO.P,IC2,12,GND*%
%TO.N,GND*%
X114727000Y-105081000D03*
%TO.P,IC2,13,I13*%
%TO.N,AS*%
X114727000Y-97461000D03*
%TO.P,IC2,14,IO1*%
%TO.N,EVENRAMSEL*%
X112187000Y-97461000D03*
%TO.P,IC2,15,IO2*%
%TO.N,ODDRAMSEL*%
X109647000Y-97461000D03*
%TO.P,IC2,16,IO3*%
%TO.N,EVENROMSEL*%
X107107000Y-97461000D03*
%TO.P,IC2,17,I04*%
%TO.N,ODDROMSEL*%
X104567000Y-97461000D03*
%TO.P,IC2,18,IO5*%
%TO.N,IOSEL*%
X102027000Y-97461000D03*
%TO.P,IC2,19,IO6*%
%TO.N,EXPSEL*%
X99487000Y-97461000D03*
%TO.P,IC2,20,IO7*%
%TO.N,CPUSP*%
X96947000Y-97461000D03*
%TO.P,IC2,21,IO8*%
%TO.N,unconnected-(IC2-IO8-Pad21)*%
X94407000Y-97461000D03*
%TO.P,IC2,22,IO9*%
%TO.N,DTACK*%
X91867000Y-97461000D03*
%TO.P,IC2,23,IO10*%
%TO.N,WR*%
X89327000Y-97461000D03*
%TO.P,IC2,24,VCC*%
%TO.N,VCC*%
X86787000Y-97461000D03*
%TD*%
D22*
%TO.P,J6,1,Pin_1*%
%TO.N,EXPSEL*%
X106970000Y-122130000D03*
D23*
%TO.P,J6,2,Pin_2*%
%TO.N,A20*%
X106970000Y-119590000D03*
%TO.P,J6,3,Pin_3*%
%TO.N,A21*%
X106970000Y-117050000D03*
%TO.P,J6,4,Pin_4*%
%TO.N,A22*%
X106970000Y-114510000D03*
%TO.P,J6,5,Pin_5*%
%TO.N,A23*%
X106970000Y-111970000D03*
%TD*%
D22*
%TO.P,J7,1,Pin_1*%
%TO.N,SPICS2*%
X216564000Y-131310000D03*
%TD*%
D24*
%TO.P,IC7,1,I4*%
%TO.N,DUAIRQ*%
X137830000Y-98100000D03*
D25*
%TO.P,IC7,2,I5*%
%TO.N,IRQ5*%
X140370000Y-98100000D03*
%TO.P,IC7,3,I6*%
%TO.N,IRQ6*%
X142910000Y-98100000D03*
%TO.P,IC7,4,I7*%
%TO.N,VCC*%
X145450000Y-98100000D03*
%TO.P,IC7,5,EI*%
%TO.N,GND*%
X147990000Y-98100000D03*
%TO.P,IC7,6,S2*%
%TO.N,IPL2*%
X150530000Y-98100000D03*
%TO.P,IC7,7,S1*%
%TO.N,IPL1*%
X153070000Y-98100000D03*
%TO.P,IC7,8,GND*%
%TO.N,GND*%
X155610000Y-98100000D03*
%TO.P,IC7,9,S0*%
%TO.N,IPL0*%
X155610000Y-90480000D03*
%TO.P,IC7,10,IO*%
%TO.N,GND*%
X153070000Y-90480000D03*
%TO.P,IC7,11,I1*%
%TO.N,VCC*%
X150530000Y-90480000D03*
%TO.P,IC7,12,I2*%
%TO.N,IRQ2*%
X147990000Y-90480000D03*
%TO.P,IC7,13,I3*%
%TO.N,IRQ3*%
X145450000Y-90480000D03*
%TO.P,IC7,14,GS*%
%TO.N,unconnected-(IC7-GS-Pad14)*%
X142910000Y-90480000D03*
%TO.P,IC7,15,EO*%
%TO.N,unconnected-(IC7-EO-Pad15)*%
X140370000Y-90480000D03*
%TO.P,IC7,16,VCC*%
%TO.N,VCC*%
X137830000Y-90480000D03*
%TD*%
D22*
%TO.P,J8,1,Pin_1*%
%TO.N,HALT*%
X187380000Y-94020000D03*
D23*
%TO.P,J8,2,Pin_2*%
%TO.N,RESET*%
X187380000Y-96560000D03*
%TD*%
D26*
%TO.P,IC1,1,D4*%
%TO.N,D4*%
X87030000Y-84530000D03*
%TO.P,IC1,2,D3*%
%TO.N,D3*%
X89570000Y-84530000D03*
%TO.P,IC1,3,D2*%
%TO.N,D2*%
X92110000Y-84530000D03*
%TO.P,IC1,4,D1*%
%TO.N,D1*%
X94650000Y-84530000D03*
%TO.P,IC1,5,D0*%
%TO.N,D0*%
X97190000Y-84530000D03*
%TO.P,IC1,6,AS*%
%TO.N,AS*%
X99730000Y-84530000D03*
%TO.P,IC1,7,UDS*%
%TO.N,UDS*%
X102270000Y-84530000D03*
%TO.P,IC1,8,LDS*%
%TO.N,LDS*%
X104810000Y-84530000D03*
%TO.P,IC1,9,R/W*%
%TO.N,RW*%
X107350000Y-84530000D03*
%TO.P,IC1,10,DTACK*%
%TO.N,DTACK*%
X109890000Y-84530000D03*
%TO.P,IC1,11,BG*%
%TO.N,BG*%
X112430000Y-84530000D03*
%TO.P,IC1,12,BGACK*%
%TO.N,BGACK*%
X114970000Y-84530000D03*
%TO.P,IC1,13,BR*%
%TO.N,BR*%
X117510000Y-84530000D03*
%TO.P,IC1,14,VCC@1*%
%TO.N,VCC*%
X120050000Y-84530000D03*
%TO.P,IC1,15,CLK*%
%TO.N,CLK*%
X122590000Y-84530000D03*
%TO.P,IC1,16,GND@1*%
%TO.N,GND*%
X125130000Y-84530000D03*
%TO.P,IC1,17,HALT*%
%TO.N,HALT*%
X127670000Y-84530000D03*
%TO.P,IC1,18,RESET*%
%TO.N,RESET*%
X130210000Y-84530000D03*
%TO.P,IC1,19,VMA*%
%TO.N,VMA*%
X132750000Y-84530000D03*
%TO.P,IC1,20,E*%
%TO.N,E*%
X135290000Y-84530000D03*
%TO.P,IC1,21,VPA*%
%TO.N,VPA*%
X137830000Y-84530000D03*
%TO.P,IC1,22,BERR*%
%TO.N,BERR*%
X140370000Y-84530000D03*
%TO.P,IC1,23,IPL2*%
%TO.N,IPL2*%
X142910000Y-84530000D03*
%TO.P,IC1,24,IPL1*%
%TO.N,IPL1*%
X145450000Y-84530000D03*
%TO.P,IC1,25,IPL0*%
%TO.N,IPL0*%
X147990000Y-84530000D03*
%TO.P,IC1,26,FC2*%
%TO.N,FC2*%
X150530000Y-84530000D03*
%TO.P,IC1,27,FC1*%
%TO.N,FC1*%
X153070000Y-84530000D03*
%TO.P,IC1,28,FC0*%
%TO.N,FC0*%
X155610000Y-84530000D03*
%TO.P,IC1,29,A1*%
%TO.N,A1*%
X158150000Y-84530000D03*
%TO.P,IC1,30,A2*%
%TO.N,A2*%
X160690000Y-84530000D03*
%TO.P,IC1,31,A3*%
%TO.N,A3*%
X163230000Y-84530000D03*
%TO.P,IC1,32,A4*%
%TO.N,A4*%
X165770000Y-84530000D03*
%TO.P,IC1,33,A5*%
%TO.N,A5*%
X165770000Y-61670000D03*
%TO.P,IC1,34,A6*%
%TO.N,A6*%
X163230000Y-61670000D03*
%TO.P,IC1,35,A7*%
%TO.N,A7*%
X160690000Y-61670000D03*
%TO.P,IC1,36,A8*%
%TO.N,A8*%
X158150000Y-61670000D03*
%TO.P,IC1,37,A9*%
%TO.N,A9*%
X155610000Y-61670000D03*
%TO.P,IC1,38,A10*%
%TO.N,A10*%
X153070000Y-61670000D03*
%TO.P,IC1,39,A11*%
%TO.N,A11*%
X150530000Y-61670000D03*
%TO.P,IC1,40,A12*%
%TO.N,A12*%
X147990000Y-61670000D03*
%TO.P,IC1,41,A13*%
%TO.N,A13*%
X145450000Y-61670000D03*
%TO.P,IC1,42,A14*%
%TO.N,A14*%
X142910000Y-61670000D03*
%TO.P,IC1,43,A15*%
%TO.N,A15*%
X140370000Y-61670000D03*
%TO.P,IC1,44,A16*%
%TO.N,A16*%
X137830000Y-61670000D03*
%TO.P,IC1,45,A17*%
%TO.N,A17*%
X135290000Y-61670000D03*
%TO.P,IC1,46,A18*%
%TO.N,A18*%
X132750000Y-61670000D03*
%TO.P,IC1,47,A19*%
%TO.N,A19*%
X130210000Y-61670000D03*
%TO.P,IC1,48,A20*%
%TO.N,A20*%
X127670000Y-61670000D03*
%TO.P,IC1,49,VCC@2*%
%TO.N,VCC*%
X125130000Y-61670000D03*
%TO.P,IC1,50,A21*%
%TO.N,A21*%
X122590000Y-61670000D03*
%TO.P,IC1,51,A22*%
%TO.N,A22*%
X120050000Y-61670000D03*
%TO.P,IC1,52,A23*%
%TO.N,A23*%
X117510000Y-61670000D03*
%TO.P,IC1,53,GND@2*%
%TO.N,GND*%
X114970000Y-61670000D03*
%TO.P,IC1,54,D15*%
%TO.N,D15*%
X112430000Y-61670000D03*
%TO.P,IC1,55,D14*%
%TO.N,D14*%
X109890000Y-61670000D03*
%TO.P,IC1,56,D13*%
%TO.N,D13*%
X107350000Y-61670000D03*
%TO.P,IC1,57,D12*%
%TO.N,D12*%
X104810000Y-61670000D03*
%TO.P,IC1,58,D11*%
%TO.N,D11*%
X102270000Y-61670000D03*
%TO.P,IC1,59,D10*%
%TO.N,D10*%
X99730000Y-61670000D03*
%TO.P,IC1,60,D9*%
%TO.N,D9*%
X97190000Y-61670000D03*
%TO.P,IC1,61,D8*%
%TO.N,D8*%
X94650000Y-61670000D03*
%TO.P,IC1,62,D7*%
%TO.N,D7*%
X92110000Y-61670000D03*
%TO.P,IC1,63,D6*%
%TO.N,D6*%
X89570000Y-61670000D03*
%TO.P,IC1,64,D5*%
%TO.N,D5*%
X87030000Y-61670000D03*
%TD*%
D27*
%TO.P,J9,1*%
%TO.N,VCC*%
X203969700Y-141193000D03*
D28*
%TO.P,J9,2*%
%TO.N,GND*%
X203969700Y-147193000D03*
D29*
%TO.P,J9,3*%
%TO.N,N/C*%
X208669700Y-144193000D03*
%TD*%
D30*
%TO.P,J10,S1,SHIELD*%
%TO.N,GND*%
X225230000Y-135690000D03*
D31*
X221060000Y-135690000D03*
D30*
X225230000Y-144330000D03*
D31*
X221060000Y-144330000D03*
%TD*%
D32*
%TO.N,A18*%
X171447000Y-82575400D03*
%TO.N,IPL2*%
X143427000Y-94915000D03*
%TO.N,IPL1*%
X148804000Y-100198000D03*
%TO.N,IPL0*%
X150337000Y-88427400D03*
%TO.N,DTACK*%
X111190000Y-58440000D03*
X112173790Y-89925000D03*
X196770000Y-99620000D03*
X108083012Y-77358012D03*
%TO.N,BGACK*%
X114950000Y-78000000D03*
%TO.N,BR*%
X117550000Y-77328600D03*
%TO.N,RESET*%
X197703332Y-89303000D03*
X74600000Y-92025000D03*
X187970000Y-79150000D03*
%TO.N,BERR*%
X140320000Y-80010000D03*
X179913000Y-59192400D03*
X141650000Y-60078600D03*
%TO.N,CLK*%
X122375000Y-71702465D03*
X175404000Y-88658600D03*
%TO.N,LDS*%
X104567000Y-100789780D03*
X207330000Y-100250000D03*
%TO.N,UDS*%
X102322514Y-99796600D03*
X78198746Y-100072032D03*
%TO.N,AS*%
X99701000Y-88877000D03*
X172201707Y-79279132D03*
X114914000Y-88877000D03*
%TO.N,BG*%
X112450000Y-79147350D03*
%TO.N,FC2*%
X81775000Y-84400000D03*
X150550000Y-80671400D03*
X208892400Y-75395430D03*
X81754073Y-93297201D03*
X188653800Y-76526000D03*
%TO.N,FC1*%
X81025000Y-83750000D03*
X153050000Y-80328600D03*
X188349000Y-74436000D03*
X207600000Y-74700000D03*
X81000000Y-90750000D03*
%TO.N,FC0*%
X155650000Y-79700000D03*
X207653800Y-67806834D03*
X80292086Y-88207914D03*
X80325000Y-83075000D03*
X188044200Y-73217000D03*
%TO.N,VCC*%
X182880000Y-116332000D03*
X126000000Y-107300000D03*
X194460000Y-90760000D03*
X199723800Y-133572000D03*
X160020000Y-105156000D03*
X221480000Y-87620000D03*
X219600000Y-64370000D03*
X105610000Y-78690000D03*
X201590000Y-106000000D03*
X95990000Y-77915800D03*
X106820000Y-58420000D03*
X101820000Y-109830000D03*
X132720000Y-104390000D03*
X92910000Y-79620000D03*
X129000000Y-77360000D03*
X198140000Y-144550000D03*
X113610000Y-90670000D03*
X178816000Y-131064000D03*
X213020000Y-64420000D03*
X189660000Y-144630000D03*
X100150000Y-78490000D03*
X133550000Y-96210000D03*
X134170000Y-91990000D03*
%TO.N,GND*%
X213032637Y-137357289D03*
X200780000Y-59690000D03*
X178816000Y-126492000D03*
X199723800Y-132048000D03*
X125989025Y-105029000D03*
X168402000Y-112014000D03*
X160274000Y-109474000D03*
X203890000Y-105970000D03*
X176330000Y-57780000D03*
X145034000Y-111760000D03*
X113610000Y-94510000D03*
X135840000Y-96390000D03*
X188976000Y-132842000D03*
X118053800Y-112014000D03*
X198020000Y-132780000D03*
X98540000Y-111200000D03*
X190080000Y-57930000D03*
%TO.N,EVENROMSEL*%
X119385996Y-101584004D03*
%TO.N,ODDRAMSEL*%
X149044266Y-102908111D03*
X109632000Y-101874000D03*
%TO.N,EVENRAMSEL*%
X176770000Y-99339998D03*
X112167000Y-101280761D03*
%TO.N,IOSEL*%
X98222000Y-86978601D03*
X98550000Y-59290000D03*
%TO.N,EXPSEL*%
X95225000Y-86978600D03*
X98470000Y-122100000D03*
X96064210Y-93424000D03*
%TO.N,HALT*%
X193696666Y-89303000D03*
X127650000Y-87200000D03*
%TO.N,RW*%
X181314000Y-123986000D03*
X107350000Y-76449998D03*
X103472000Y-86127000D03*
X117410000Y-119600000D03*
%TO.N,BOOT*%
X105710000Y-57055809D03*
X191062498Y-57559592D03*
%TO.N,VPA*%
X137900000Y-72975000D03*
X134190000Y-89260000D03*
%TO.N,E*%
X135300000Y-73603600D03*
X79034886Y-75475000D03*
%TO.N,VMA*%
X78894000Y-83320000D03*
X132750000Y-79756970D03*
%TO.N,A6*%
X202378590Y-70003000D03*
X163250000Y-73937730D03*
X163254000Y-65811800D03*
X138800000Y-127100000D03*
X138850000Y-73937730D03*
X77675000Y-127625000D03*
%TO.N,A7*%
X141700000Y-124550000D03*
X201749990Y-69271179D03*
X139531763Y-73272697D03*
X160678000Y-65183200D03*
X160700000Y-73309130D03*
X77675000Y-125050000D03*
%TO.N,A8*%
X141400000Y-72644097D03*
X77625000Y-122500000D03*
X158150000Y-72644097D03*
X143200000Y-121950000D03*
X201124400Y-67452000D03*
X158154000Y-64554600D03*
%TO.N,A9*%
X145450000Y-124500000D03*
X155650000Y-72015497D03*
X155662000Y-63926000D03*
X142950000Y-72015497D03*
%TO.N,A10*%
X146650000Y-127150000D03*
X143950000Y-71386897D03*
X199958000Y-65391000D03*
X153050000Y-71386897D03*
%TO.N,A11*%
X153433600Y-134683600D03*
X200495800Y-64310000D03*
X150550000Y-70758297D03*
X145250000Y-70758297D03*
%TO.N,A12*%
X154900000Y-129600000D03*
X196315600Y-59720000D03*
%TO.N,A13*%
X153510996Y-69689004D03*
X146950000Y-69500000D03*
X154565000Y-88637000D03*
X202100723Y-91110872D03*
X156150000Y-119400000D03*
%TO.N,A14*%
X157352000Y-94285000D03*
X156567833Y-64554600D03*
X202042400Y-92423272D03*
X157450000Y-120700000D03*
%TO.N,A15*%
X77675000Y-120578600D03*
X157365000Y-65337000D03*
X140400000Y-64700000D03*
X201386200Y-93176000D03*
X161221000Y-92343000D03*
%TO.N,A16*%
X156785801Y-113334990D03*
X136825000Y-73937730D03*
X81400000Y-76450000D03*
X172201000Y-84980000D03*
X114119000Y-113185000D03*
X137800000Y-65750000D03*
X154400000Y-65750000D03*
%TO.N,A17*%
X152350000Y-67600000D03*
X135300000Y-67600000D03*
X135300000Y-70758297D03*
X155528600Y-115550000D03*
X81785340Y-70300000D03*
X153404000Y-92490000D03*
X205943000Y-89243000D03*
X79663486Y-107075000D03*
%TO.N,A3*%
X202459000Y-100713380D03*
X164200000Y-100943800D03*
X77650000Y-135225000D03*
X164200000Y-134700000D03*
%TO.N,A2*%
X163450000Y-96400000D03*
X184691000Y-96400000D03*
X203711000Y-97768000D03*
X163383410Y-137250000D03*
X77675000Y-137700000D03*
%TO.N,A1*%
X121728601Y-140252896D03*
X204329000Y-95230000D03*
X162700000Y-93950000D03*
X77675000Y-139646400D03*
X183697000Y-95230000D03*
%TO.N,D5*%
X83967800Y-136475000D03*
X88600000Y-75200000D03*
X168800000Y-105000000D03*
X166600000Y-75550000D03*
X139000000Y-144900000D03*
X92911780Y-144850000D03*
X130550000Y-146450000D03*
%TO.N,D6*%
X167804344Y-104428600D03*
X84596400Y-133925000D03*
X165950000Y-76250000D03*
X90337415Y-75441603D03*
X95461780Y-142300000D03*
%TO.N,D7*%
X90733800Y-76366864D03*
X95461780Y-139750000D03*
X166800001Y-103800000D03*
X165178600Y-76971400D03*
X85225000Y-131425000D03*
%TO.N,D8*%
X82175000Y-128850000D03*
X117764200Y-141618780D03*
X118100000Y-70349999D03*
%TO.N,D9*%
X81600000Y-126300000D03*
X118392800Y-143850000D03*
X118914285Y-69757142D03*
%TO.N,D10*%
X119728570Y-69164285D03*
X119021400Y-146400000D03*
X81075000Y-123775000D03*
%TO.N,D11*%
X76471655Y-148108992D03*
X119650000Y-149950000D03*
X128450000Y-154147840D03*
X120542855Y-68571428D03*
%TO.N,D12*%
X77423472Y-147337994D03*
X124750000Y-153843030D03*
X120350000Y-147450000D03*
X121357140Y-67978571D03*
%TO.N,D13*%
X120900000Y-144850000D03*
X122171425Y-67385714D03*
X78350000Y-146444600D03*
%TO.N,D14*%
X79323205Y-145120998D03*
X121423791Y-141923590D03*
X122985710Y-66792857D03*
%TO.N,D15*%
X80275000Y-144350000D03*
X123800000Y-66200000D03*
X122069488Y-139363590D03*
%TO.N,A23*%
X110150000Y-67750000D03*
X83250000Y-65700000D03*
X82413940Y-99751438D03*
X99487000Y-110555000D03*
X82075000Y-119950000D03*
%TO.N,A22*%
X110970732Y-68423816D03*
X83049540Y-100484164D03*
X95254000Y-115780000D03*
X83025000Y-116875000D03*
X83846134Y-66445315D03*
%TO.N,A21*%
X111791464Y-69097632D03*
X83775000Y-114550000D03*
X83742799Y-101207000D03*
X93829020Y-117098000D03*
X84452299Y-67179912D03*
%TO.N,A20*%
X112612196Y-69771448D03*
X91882000Y-120015000D03*
X84988166Y-67967259D03*
X84371398Y-102137000D03*
X84371399Y-111146399D03*
%TO.N,A19*%
X178150000Y-65940000D03*
X111410000Y-107749998D03*
X178150000Y-83100000D03*
X85000000Y-109600000D03*
X113432930Y-70445264D03*
X184840000Y-103190000D03*
X85700000Y-68600000D03*
X189894000Y-83649734D03*
%TO.N,A18*%
X85657000Y-103296316D03*
X132700000Y-70100000D03*
X86300000Y-69350000D03*
X148671400Y-70129697D03*
X154200000Y-116900000D03*
X172830307Y-71715000D03*
%TO.N,A5*%
X77675000Y-130150000D03*
X165200000Y-129600000D03*
%TO.N,A4*%
X190871000Y-103926000D03*
X77675000Y-132625000D03*
X166200000Y-132350000D03*
X166171401Y-102850000D03*
%TO.N,D0*%
X123900000Y-142750000D03*
X97200001Y-72717073D03*
X173800000Y-107400000D03*
X97200000Y-143350000D03*
X169750000Y-71950000D03*
%TO.N,D1*%
X137750000Y-152928600D03*
X97148665Y-148717020D03*
X172750000Y-106850000D03*
X169150000Y-72700000D03*
X94650000Y-73185000D03*
%TO.N,D2*%
X171800000Y-106350000D03*
X89325000Y-143925000D03*
X168550000Y-73450000D03*
X92143492Y-74256508D03*
X133900000Y-153538220D03*
X92399400Y-151250600D03*
%TO.N,D3*%
X167850000Y-74100000D03*
X82710599Y-141550000D03*
X170750000Y-105950000D03*
X93005512Y-149755512D03*
X89550000Y-73732838D03*
%TO.N,D4*%
X88052390Y-74361438D03*
X169800000Y-105500000D03*
X167209713Y-74818344D03*
X92911780Y-146750000D03*
X148713512Y-151976210D03*
X83339199Y-139000000D03*
%TO.N,CPUSP*%
X103724000Y-56751000D03*
X195687000Y-57367000D03*
X104994402Y-99473402D03*
%TO.N,DUAIACK*%
X203010000Y-62232000D03*
%TO.N,RUNLED*%
X208080000Y-76960000D03*
%TO.N,WR*%
X88781000Y-130925000D03*
%TO.N,ROM_RW*%
X105161000Y-108593000D03*
X128135000Y-109213000D03*
%TO.N,SPICS2*%
X189700000Y-115500000D03*
X215700000Y-115400000D03*
%TO.N,DUAIRQ*%
X177920000Y-98027600D03*
%TO.N,IRQ3*%
X144567210Y-99577000D03*
X113620512Y-87592199D03*
X113622000Y-79120000D03*
%TO.N,IRQ2*%
X98840000Y-78850000D03*
X78044852Y-80601995D03*
X147456000Y-100215000D03*
X101043000Y-88248400D03*
%TO.N,IRQ6*%
X78991716Y-81055816D03*
X101914400Y-87080000D03*
X101700000Y-78708100D03*
%TO.N,IRQ5*%
X140240442Y-102936200D03*
X99930000Y-102760000D03*
X78123645Y-79496200D03*
X96077422Y-79503224D03*
%TO.N,Net-(J10-VBUS-PadA4)*%
X216795343Y-138105000D03*
X216640000Y-142810000D03*
%TD*%
D33*
%TO.N,A10*%
X153070000Y-69201993D02*
X153070000Y-61670000D01*
X152854796Y-69417197D02*
X153070000Y-69201993D01*
X152854796Y-71191693D02*
X152854796Y-69417197D01*
%TO.N,A13*%
X154100000Y-70278008D02*
X153510996Y-69689004D01*
X154100000Y-88172000D02*
X154100000Y-70278008D01*
%TO.N,A10*%
X153050000Y-71386897D02*
X152854796Y-71191693D01*
%TO.N,A13*%
X154565000Y-88637000D02*
X154100000Y-88172000D01*
D34*
%TO.N,CLK*%
X175451000Y-88472000D02*
X175451000Y-88611600D01*
X175451000Y-88611600D02*
X175404000Y-88658600D01*
X176878000Y-87045000D02*
X176878000Y-59302800D01*
X175451000Y-88472000D02*
X176878000Y-87045000D01*
X175900000Y-58324800D02*
X174450000Y-58324800D01*
X176878000Y-59302800D02*
X175900000Y-58324800D01*
D33*
%TO.N,A18*%
X172830307Y-71715000D02*
X172830307Y-70104493D01*
X172830307Y-70104493D02*
X174450000Y-68484800D01*
%TO.N,IPL2*%
X143938610Y-94403390D02*
X143427000Y-94915000D01*
X142910000Y-87640000D02*
X143938610Y-88668610D01*
X142910000Y-87640000D02*
X142910000Y-84530000D01*
X143938610Y-88668610D02*
X143938610Y-94403390D01*
%TO.N,IPL1*%
X145450000Y-86085326D02*
X145450000Y-84530000D01*
X149151190Y-89786516D02*
X149151190Y-99850810D01*
X145450000Y-86085326D02*
X149151190Y-89786516D01*
X149151190Y-99850810D02*
X148804000Y-100198000D01*
%TO.N,IPL0*%
X150337000Y-88427400D02*
X147990000Y-86080400D01*
X147990000Y-86080400D02*
X147990000Y-84530000D01*
%TO.N,DTACK*%
X109890000Y-84530000D02*
X109890000Y-79165000D01*
X111200000Y-58430000D02*
X111190000Y-58440000D01*
X109890000Y-79165000D02*
X108083012Y-77358012D01*
X111230000Y-58430000D02*
X111200000Y-58430000D01*
X109890000Y-86003200D02*
X109890000Y-84530000D01*
X198274000Y-111337000D02*
X200194000Y-111337000D01*
X108514001Y-67685999D02*
X111230000Y-64970000D01*
X112173790Y-88288790D02*
X112173790Y-89925000D01*
X111230000Y-64970000D02*
X111230000Y-58430000D01*
X111850000Y-87963200D02*
X109890000Y-86003200D01*
X200746000Y-109045000D02*
X200140000Y-108439000D01*
X200194000Y-111337000D02*
X200746000Y-110785000D01*
X108514001Y-76927023D02*
X108514001Y-67685999D01*
X111850000Y-87963200D02*
X111850000Y-87965000D01*
X200746000Y-110785000D02*
X200746000Y-109045000D01*
X200140000Y-108439000D02*
X200140000Y-102990000D01*
X197032000Y-112579000D02*
X198274000Y-111337000D01*
X108083012Y-77358012D02*
X108514001Y-76927023D01*
X200140000Y-102990000D02*
X196770000Y-99620000D01*
X111850000Y-87965000D02*
X112173790Y-88288790D01*
%TO.N,BGACK*%
X114950000Y-78000000D02*
X114950000Y-84510000D01*
%TO.N,BR*%
X117550000Y-84490000D02*
X117550000Y-77328600D01*
%TO.N,RESET*%
X198297000Y-124014000D02*
X200271000Y-124014000D01*
X195741000Y-87340668D02*
X197703332Y-89303000D01*
D34*
X190446332Y-96560000D02*
X197703332Y-89303000D01*
X189380000Y-67550000D02*
X189760000Y-67930000D01*
D33*
X75865000Y-108530000D02*
X74708411Y-107373411D01*
D34*
X191090000Y-56662000D02*
X190058000Y-56662000D01*
X187380000Y-96560000D02*
X190446332Y-96560000D01*
D33*
X195049066Y-78644800D02*
X195741000Y-79336734D01*
X197032000Y-125279000D02*
X198297000Y-124014000D01*
D34*
X215660000Y-60840000D02*
X211482000Y-56662000D01*
D33*
X201280000Y-108790000D02*
X200730000Y-108240000D01*
X74708411Y-107373411D02*
X74708411Y-92133411D01*
D34*
X189760000Y-77360000D02*
X187970000Y-79150000D01*
D33*
X200730000Y-108240000D02*
X200730000Y-92329668D01*
X200932000Y-123353000D02*
X200932000Y-111703000D01*
D34*
X190058000Y-56662000D02*
X189380000Y-57340000D01*
D33*
X74708411Y-92133411D02*
X74600000Y-92025000D01*
D34*
X211482000Y-56662000D02*
X191090000Y-56662000D01*
X189380000Y-57340000D02*
X189380000Y-67550000D01*
D33*
X195741000Y-79336734D02*
X195741000Y-87340668D01*
X200730000Y-92329668D02*
X197703332Y-89303000D01*
X201280000Y-111355000D02*
X201280000Y-108790000D01*
X193696666Y-78644800D02*
X195049066Y-78644800D01*
X200932000Y-111703000D02*
X201280000Y-111355000D01*
D34*
X189760000Y-67930000D02*
X189760000Y-77360000D01*
D33*
X200271000Y-124014000D02*
X200932000Y-123353000D01*
%TO.N,BERR*%
X179913000Y-59192400D02*
X181585400Y-60864800D01*
X140350000Y-79980000D02*
X140320000Y-80010000D01*
X140350000Y-65680330D02*
X140350000Y-79980000D01*
X140370000Y-84530000D02*
X140370000Y-80060000D01*
X141650000Y-64380330D02*
X140350000Y-65680330D01*
X141650000Y-60078600D02*
X141650000Y-64380330D01*
X140370000Y-80060000D02*
X140320000Y-80010000D01*
%TO.N,CLK*%
X122590000Y-84530000D02*
X122590000Y-71917465D01*
X122590000Y-71917465D02*
X122375000Y-71702465D01*
%TO.N,LDS*%
X108313580Y-99982020D02*
X104567000Y-103728600D01*
X108313580Y-96533646D02*
X108313580Y-99982020D01*
X205323332Y-73707539D02*
X207330000Y-75714207D01*
X106926191Y-95146257D02*
X108313580Y-96533646D01*
X104567000Y-100789780D02*
X104567000Y-105081000D01*
X104810000Y-85625066D02*
X106926190Y-87741256D01*
X106926190Y-87741256D02*
X106926191Y-95146257D01*
X207330000Y-75714207D02*
X207330000Y-100250000D01*
%TO.N,UDS*%
X102027000Y-100113000D02*
X102027000Y-105081000D01*
X102270000Y-86003200D02*
X102543000Y-86276200D01*
X103055610Y-96634936D02*
X103055610Y-99063504D01*
X102322514Y-99796600D02*
X102322514Y-99817486D01*
X102322514Y-99817486D02*
X102027000Y-100113000D01*
X102322514Y-99796600D02*
X103055610Y-99063504D01*
X102270000Y-84530000D02*
X102270000Y-86003200D01*
X102543000Y-86276200D02*
X102543000Y-96122326D01*
X78198746Y-100072032D02*
X78198746Y-103656254D01*
X102543000Y-96122326D02*
X103055610Y-96634936D01*
X78198746Y-103656254D02*
X75865000Y-105990000D01*
%TO.N,AS*%
X173097600Y-60864800D02*
X172614000Y-60381200D01*
X172614000Y-60381200D02*
X172614000Y-57702000D01*
X114914000Y-88877000D02*
X114914000Y-97274000D01*
X99691000Y-88867000D02*
X99701000Y-88877000D01*
X173097600Y-60864800D02*
X174450000Y-60864800D01*
X172614000Y-57702000D02*
X173186000Y-57130000D01*
X172201707Y-61760693D02*
X173097600Y-60864800D01*
X99691000Y-88867000D02*
X99691000Y-84569000D01*
X185834266Y-57130000D02*
X186076666Y-57372400D01*
X172201707Y-79279132D02*
X172201707Y-61760693D01*
X186076666Y-57372400D02*
X186076666Y-58324800D01*
X173186000Y-57130000D02*
X185834266Y-57130000D01*
%TO.N,BG*%
X112430000Y-79167350D02*
X112450000Y-79147350D01*
X112430000Y-84530000D02*
X112430000Y-79167350D01*
%TO.N,FC2*%
X189300000Y-68768134D02*
X189300000Y-75547715D01*
X208910000Y-64051468D02*
X208910000Y-75377830D01*
X188653800Y-76193915D02*
X188653800Y-76526000D01*
X208910000Y-75377830D02*
X208892400Y-75395430D01*
X205723332Y-60864800D02*
X208910000Y-64051468D01*
X81775000Y-84400000D02*
X81775000Y-93276274D01*
X150530000Y-84530000D02*
X150530000Y-80691400D01*
X186476666Y-65944800D02*
X189300000Y-68768134D01*
X189300000Y-75547715D02*
X188653800Y-76193915D01*
X81775000Y-93276274D02*
X81754073Y-93297201D01*
X150530000Y-80691400D02*
X150550000Y-80671400D01*
%TO.N,FC1*%
X81025000Y-83750000D02*
X81025000Y-90725000D01*
X208310000Y-66391468D02*
X208310000Y-73990000D01*
X188840000Y-73612905D02*
X188349000Y-74103905D01*
X208310000Y-73990000D02*
X207600000Y-74700000D01*
X186476666Y-68484800D02*
X188840000Y-70848134D01*
X188840000Y-70848134D02*
X188840000Y-73612905D01*
X205323332Y-63404800D02*
X208310000Y-66391468D01*
X153070000Y-84530000D02*
X153070000Y-80348600D01*
X188349000Y-74103905D02*
X188349000Y-74436000D01*
X81025000Y-90725000D02*
X81000000Y-90750000D01*
X153070000Y-80348600D02*
X153050000Y-80328600D01*
%TO.N,FC0*%
X188044200Y-72592334D02*
X188044200Y-73217000D01*
X155610000Y-79740000D02*
X155650000Y-79700000D01*
X205791766Y-65944800D02*
X207653800Y-67806834D01*
X80325000Y-88175000D02*
X80292086Y-88207914D01*
X155610000Y-84530000D02*
X155610000Y-79740000D01*
X186476666Y-71024800D02*
X188044200Y-72592334D01*
X80325000Y-83075000D02*
X80325000Y-88175000D01*
D35*
%TO.N,GND*%
X206636000Y-126590000D02*
X209713000Y-126590000D01*
X199572000Y-117659000D02*
X198566212Y-117659000D01*
X197602529Y-126630399D02*
X198383399Y-127411269D01*
X198383399Y-127411269D02*
X198383399Y-128796399D01*
X196624269Y-126630399D02*
X197602529Y-126630399D01*
X209713000Y-126590000D02*
X211486000Y-128363000D01*
X204083000Y-129143000D02*
X206636000Y-126590000D01*
X198730000Y-129143000D02*
X204083000Y-129143000D01*
X198566212Y-117659000D02*
X195843399Y-120381813D01*
X198383399Y-128796399D02*
X198730000Y-129143000D01*
X195843399Y-120381813D02*
X195843399Y-125849529D01*
X195843399Y-125849529D02*
X196624269Y-126630399D01*
D33*
%TO.N,ODDROMSEL*%
X103538390Y-106356390D02*
X103538390Y-99842010D01*
X103792400Y-137223600D02*
X109200000Y-131816000D01*
X104242000Y-107060000D02*
X103538390Y-106356390D01*
X109200000Y-131800000D02*
X109700000Y-131300000D01*
X109700000Y-112200000D02*
X108483000Y-110983000D01*
X104567000Y-98813400D02*
X104567000Y-97461000D01*
X109200000Y-131816000D02*
X109200000Y-131800000D01*
X109700000Y-131300000D02*
X109700000Y-112200000D01*
X108483000Y-110143000D02*
X106956000Y-108616000D01*
X106951000Y-108616000D02*
X105395000Y-107060000D01*
X105395000Y-107060000D02*
X104242000Y-107060000D01*
X103538390Y-99842010D02*
X104567000Y-98813400D01*
X108483000Y-110983000D02*
X108483000Y-110143000D01*
X102440000Y-137223600D02*
X103792400Y-137223600D01*
X106956000Y-108616000D02*
X106951000Y-108616000D01*
%TO.N,EVENROMSEL*%
X121364004Y-101584004D02*
X119385996Y-101584004D01*
X126640000Y-137223600D02*
X126240000Y-137223600D01*
X126240000Y-137223600D02*
X122541000Y-133524600D01*
X122541000Y-102761000D02*
X121364004Y-101584004D01*
X122541000Y-133524600D02*
X122541000Y-102761000D01*
%TO.N,ODDRAMSEL*%
X150840000Y-137223600D02*
X150440000Y-137223600D01*
X149150000Y-135933600D02*
X149150000Y-116424285D01*
X109632000Y-101874000D02*
X109632000Y-97476000D01*
X149158600Y-103022445D02*
X149044266Y-102908111D01*
X149150000Y-116424285D02*
X149158600Y-116415685D01*
X150440000Y-137223600D02*
X149150000Y-135933600D01*
X149158600Y-116415685D02*
X149158600Y-103022445D01*
%TO.N,EVENRAMSEL*%
X112167000Y-101280761D02*
X112167000Y-97481000D01*
X175440000Y-137223600D02*
X176770000Y-135893600D01*
X176770000Y-135893600D02*
X176770000Y-99339998D01*
X175040000Y-137223600D02*
X175440000Y-137223600D01*
%TO.N,IOSEL*%
X102027000Y-93098000D02*
X102027000Y-97461000D01*
X98222000Y-83172000D02*
X98222000Y-86978601D01*
X98222000Y-89293000D02*
X102027000Y-93098000D01*
X97828601Y-66971399D02*
X97828601Y-82778601D01*
X97828601Y-82778601D02*
X98222000Y-83172000D01*
X98550000Y-59290000D02*
X98550000Y-66250000D01*
X98550000Y-66250000D02*
X97828601Y-66971399D01*
X98222000Y-86978601D02*
X98222000Y-89293000D01*
%TO.N,EXPSEL*%
X95740420Y-93100210D02*
X96064210Y-93424000D01*
X100516100Y-111983900D02*
X100516100Y-103953900D01*
X100042200Y-103480000D02*
X99350000Y-103480000D01*
X99070000Y-103200000D02*
X99070000Y-97878000D01*
X95740420Y-90316156D02*
X95740420Y-93100210D01*
X98470000Y-122100000D02*
X98470000Y-114030000D01*
X98470000Y-114030000D02*
X100516100Y-111983900D01*
X100516100Y-103953900D02*
X100042200Y-103480000D01*
X95225000Y-86978600D02*
X95225000Y-89800736D01*
X95225000Y-89800736D02*
X95740420Y-90316156D01*
X99350000Y-103480000D02*
X99070000Y-103200000D01*
D35*
%TO.N,Net-(IC4-X1{slash}CLK)*%
X190750800Y-135661400D02*
X193140601Y-133271599D01*
X193140601Y-133271599D02*
X193140601Y-126630399D01*
X193140601Y-126630399D02*
X194492000Y-125279000D01*
%TO.N,Net-(IC4-X2)*%
X197032000Y-134260200D02*
X197032000Y-127819000D01*
X195630800Y-135661400D02*
X197032000Y-134260200D01*
D33*
%TO.N,HALT*%
X195436190Y-81571924D02*
X195049066Y-81184800D01*
X193696666Y-89303000D02*
X195436190Y-87563476D01*
D34*
X188979666Y-94020000D02*
X193696666Y-89303000D01*
D33*
X127670000Y-87180000D02*
X127650000Y-87200000D01*
X127670000Y-84530000D02*
X127670000Y-87180000D01*
X195436190Y-87563476D02*
X195436190Y-81571924D01*
X195049066Y-81184800D02*
X193696666Y-81184800D01*
D34*
X187380000Y-94020000D02*
X188979666Y-94020000D01*
D33*
%TO.N,RW*%
X112187000Y-102231091D02*
X111158390Y-101202481D01*
X195574000Y-111497000D02*
X197032000Y-110039000D01*
X104703000Y-87358000D02*
X103472000Y-86127000D01*
X112187000Y-105081000D02*
X112587000Y-105081000D01*
X104703000Y-91393000D02*
X104703000Y-87358000D01*
X195574000Y-119331000D02*
X195574000Y-111497000D01*
X111158390Y-101202481D02*
X111158390Y-93916610D01*
X111158390Y-93916610D02*
X111545190Y-93529810D01*
X108268933Y-86922133D02*
X107350000Y-86003200D01*
X107350000Y-86003200D02*
X107350000Y-84530000D01*
X107350000Y-84530000D02*
X107350000Y-76449998D01*
X190919000Y-123986000D02*
X195574000Y-119331000D01*
X110377867Y-86922133D02*
X108268933Y-86922133D01*
X181314000Y-123986000D02*
X190919000Y-123986000D01*
X112187000Y-105081000D02*
X112187000Y-102231091D01*
X112587000Y-105081000D02*
X117410000Y-109904000D01*
X111545190Y-88089456D02*
X110377867Y-86922133D01*
X111545190Y-93529810D02*
X111545190Y-88089456D01*
X117410000Y-109904000D02*
X117410000Y-119600000D01*
%TO.N,BOOT*%
X107231000Y-87615000D02*
X107231000Y-95020000D01*
X105710000Y-57055809D02*
X105710000Y-57728326D01*
X108618390Y-103969610D02*
X107507000Y-105081000D01*
X106326200Y-78379198D02*
X106336200Y-78389198D01*
X105710000Y-57728326D02*
X105953600Y-57971926D01*
X105953600Y-77936598D02*
X106326200Y-78309198D01*
X106336200Y-78389198D02*
X106336200Y-86720200D01*
X105953600Y-57971926D02*
X105953600Y-77936598D01*
X107231000Y-95020000D02*
X108618390Y-96407390D01*
X106336200Y-86720200D02*
X107231000Y-87615000D01*
X193296666Y-65944800D02*
X191062498Y-63710632D01*
X108618390Y-96407390D02*
X108618390Y-103969610D01*
X191062498Y-63710632D02*
X191062498Y-57559592D01*
X106326200Y-78309198D02*
X106326200Y-78379198D01*
D34*
%TO.N,VPA*%
X136396390Y-89353530D02*
X134283530Y-89353530D01*
X137830000Y-87919920D02*
X136396390Y-89353530D01*
D33*
X137900000Y-72975000D02*
X137900000Y-84460000D01*
D34*
X137830000Y-84530000D02*
X137830000Y-87919920D01*
X134283530Y-89353530D02*
X134190000Y-89260000D01*
D33*
%TO.N,E*%
X135300000Y-73603600D02*
X135300000Y-84520000D01*
X79034886Y-75475000D02*
X75900000Y-75475000D01*
%TO.N,VMA*%
X132750000Y-79756970D02*
X132750000Y-84530000D01*
%TO.N,A6*%
X202378590Y-70003000D02*
X202378590Y-59863590D01*
X163250000Y-65815800D02*
X163254000Y-65811800D01*
X137662000Y-125962000D02*
X138800000Y-127100000D01*
X138850000Y-73937730D02*
X138850000Y-87400000D01*
X138850000Y-87400000D02*
X136750000Y-89500000D01*
X137662000Y-102500000D02*
X137662000Y-125962000D01*
X136750000Y-101588000D02*
X137662000Y-102500000D01*
X136750000Y-89500000D02*
X136750000Y-101588000D01*
X200839800Y-58324800D02*
X197703332Y-58324800D01*
X163250000Y-73937730D02*
X163250000Y-65843000D01*
X163250000Y-65843000D02*
X163250000Y-61690000D01*
X202378590Y-59863590D02*
X200839800Y-58324800D01*
%TO.N,A7*%
X138928610Y-121778610D02*
X141700000Y-124550000D01*
X201753000Y-68702484D02*
X201753000Y-61750000D01*
X139154810Y-78205190D02*
X139154810Y-88019190D01*
X201753000Y-61750000D02*
X200867800Y-60864800D01*
X201749990Y-68705494D02*
X201753000Y-68702484D01*
X201749990Y-69271179D02*
X201749990Y-68705494D01*
X138928610Y-88245390D02*
X138928610Y-121778610D01*
X160700000Y-73309130D02*
X160700000Y-65005000D01*
X139531763Y-73272697D02*
X139531763Y-77828237D01*
X139531763Y-77828237D02*
X139154810Y-78205190D01*
X160700000Y-65161200D02*
X160678000Y-65183200D01*
X160700000Y-65005000D02*
X160700000Y-61680000D01*
X200867800Y-60864800D02*
X197703332Y-60864800D01*
X139154810Y-88019190D02*
X138928610Y-88245390D01*
%TO.N,A8*%
X158150000Y-64550600D02*
X158150000Y-61670000D01*
X141400000Y-120150000D02*
X143200000Y-121950000D01*
X158150000Y-72644097D02*
X158150000Y-64366000D01*
X201124400Y-67452000D02*
X201124400Y-64022400D01*
X200506800Y-63404800D02*
X197703332Y-63404800D01*
X158154000Y-64554600D02*
X158150000Y-64550600D01*
X201124400Y-64022400D02*
X200506800Y-63404800D01*
X141400000Y-72644097D02*
X141400000Y-120150000D01*
%TO.N,A9*%
X145450000Y-121930000D02*
X145450000Y-124500000D01*
X141800000Y-118280000D02*
X145450000Y-121930000D01*
X155650000Y-63914000D02*
X155662000Y-63926000D01*
X155650000Y-63693000D02*
X155650000Y-61710000D01*
X141800000Y-73165497D02*
X141800000Y-118280000D01*
X155650000Y-72015497D02*
X155650000Y-63693000D01*
X142950000Y-72015497D02*
X141800000Y-73165497D01*
%TO.N,A10*%
X143950000Y-88248934D02*
X144243420Y-88542354D01*
X143938610Y-96232390D02*
X143938610Y-107559610D01*
X144243420Y-88542354D02*
X144243420Y-95927580D01*
X146650000Y-110271000D02*
X146650000Y-127150000D01*
X199055732Y-68484800D02*
X199958000Y-67582532D01*
X199958000Y-67582532D02*
X199958000Y-65391000D01*
X143950000Y-71386897D02*
X143950000Y-88248934D01*
X143938610Y-107559610D02*
X146650000Y-110271000D01*
X197703332Y-68484800D02*
X199055732Y-68484800D01*
X144243420Y-95927580D02*
X143938610Y-96232390D01*
%TO.N,A11*%
X146478610Y-100588610D02*
X147110000Y-101220000D01*
X147110000Y-101220000D02*
X151070000Y-101220000D01*
X150550000Y-70758297D02*
X151600000Y-69708297D01*
X200819590Y-66826480D02*
X200819590Y-64633790D01*
X151070000Y-101220000D02*
X153450000Y-103600000D01*
X153450000Y-134667200D02*
X153433600Y-134683600D01*
X197703332Y-71024800D02*
X199055732Y-71024800D01*
X200819590Y-64633790D02*
X200495800Y-64310000D01*
X146478610Y-89178610D02*
X146478610Y-100588610D01*
X151600000Y-69708297D02*
X151600000Y-64850000D01*
X144254810Y-86954810D02*
X146478610Y-89178610D01*
X200495799Y-67150271D02*
X200819590Y-66826480D01*
X150530000Y-63780000D02*
X150530000Y-61670000D01*
X200495799Y-69584733D02*
X200495799Y-67150271D01*
X145250000Y-70758297D02*
X145250000Y-71017227D01*
X144254810Y-72012417D02*
X144254810Y-86954810D01*
X199055732Y-71024800D02*
X200495799Y-69584733D01*
X151600000Y-64850000D02*
X150530000Y-63780000D01*
X153450000Y-103600000D02*
X153450000Y-134667200D01*
X145250000Y-71017227D02*
X144254810Y-72012417D01*
%TO.N,A12*%
X195991810Y-73205678D02*
X196350932Y-73564800D01*
X147990000Y-61670000D02*
X147990000Y-65740000D01*
X151600000Y-100868934D02*
X154900000Y-104168934D01*
X149800000Y-73550000D02*
X149800000Y-73600000D01*
X147990000Y-65740000D02*
X149300000Y-67050000D01*
X149800000Y-73600000D02*
X151600000Y-75400000D01*
X154900000Y-129600000D02*
X154900000Y-104168934D01*
X149300000Y-73050000D02*
X149800000Y-73550000D01*
X151600000Y-75400000D02*
X151600000Y-100868934D01*
X196315600Y-59720000D02*
X195991810Y-60043790D01*
X196350932Y-73564800D02*
X197703332Y-73564800D01*
X195991810Y-60043790D02*
X195991810Y-73205678D01*
X149300000Y-67050000D02*
X149300000Y-73050000D01*
%TO.N,A13*%
X198103332Y-76104800D02*
X202100000Y-80101468D01*
X146262800Y-61670000D02*
X145450000Y-61670000D01*
X202100000Y-80101468D02*
X202100000Y-91110149D01*
X202100000Y-91110149D02*
X202100723Y-91110872D01*
X156157201Y-101302201D02*
X156157201Y-119392799D01*
X197703332Y-76104800D02*
X198103332Y-76104800D01*
X146950000Y-62357200D02*
X146262800Y-61670000D01*
X154565000Y-99710000D02*
X156157201Y-101302201D01*
X146950000Y-69500000D02*
X146950000Y-62357200D01*
X154565000Y-88637000D02*
X154565000Y-99710000D01*
X156157201Y-119392799D02*
X156150000Y-119400000D01*
%TO.N,A14*%
X156550000Y-64572433D02*
X156567833Y-64554600D01*
X197703332Y-78644800D02*
X198103332Y-78644800D01*
X158690000Y-97810000D02*
X158690000Y-100941066D01*
X157347000Y-91625000D02*
X157347000Y-88403000D01*
X157347000Y-96467000D02*
X158690000Y-97810000D01*
X157347000Y-94290000D02*
X157352000Y-94285000D01*
X157450000Y-102181066D02*
X157450000Y-120700000D01*
X156550000Y-87600000D02*
X156550000Y-64572433D01*
X157347000Y-96467000D02*
X157347000Y-94290000D01*
X201468399Y-91901065D02*
X201990606Y-92423272D01*
X157347000Y-88403000D02*
X157350000Y-88400000D01*
X157347000Y-91625000D02*
X157352000Y-91630000D01*
X157350000Y-88400000D02*
X156550000Y-87600000D01*
X158690000Y-100941066D02*
X157450000Y-102181066D01*
X157352000Y-91630000D02*
X157352000Y-94285000D01*
X198103332Y-78644800D02*
X201468399Y-82009867D01*
X201468399Y-82009867D02*
X201468399Y-91901065D01*
X201990606Y-92423272D02*
X202042400Y-92423272D01*
%TO.N,A15*%
X158350000Y-87500000D02*
X160013200Y-87500000D01*
X160013200Y-87500000D02*
X161230000Y-88716800D01*
X74425000Y-119375000D02*
X75000000Y-119950000D01*
X140370000Y-64670000D02*
X140400000Y-64700000D01*
X162450000Y-115606000D02*
X161152400Y-116903600D01*
X198103332Y-81184800D02*
X199369000Y-82450468D01*
X157260990Y-86410990D02*
X157260990Y-65441010D01*
X74403601Y-110396399D02*
X74425000Y-110417798D01*
X157260990Y-65441010D02*
X157365000Y-65337000D01*
X161152400Y-116903600D02*
X159800000Y-116903600D01*
X161230000Y-92352000D02*
X161221000Y-92343000D01*
X161230000Y-92352000D02*
X161230000Y-95480000D01*
X73325000Y-100910000D02*
X74403601Y-101988601D01*
X74425000Y-110417798D02*
X74425000Y-119375000D01*
X74403601Y-101988601D02*
X74403601Y-110396399D01*
X77046400Y-119950000D02*
X77675000Y-120578600D01*
X161230000Y-95480000D02*
X162450000Y-96700000D01*
X199369000Y-82450468D02*
X199369000Y-90397000D01*
X161230000Y-88716800D02*
X161230000Y-92352000D01*
X201386200Y-92414200D02*
X201386200Y-93176000D01*
X199369000Y-90397000D02*
X201386200Y-92414200D01*
X75000000Y-119950000D02*
X77046400Y-119950000D01*
X162450000Y-96700000D02*
X162450000Y-115606000D01*
X140370000Y-61670000D02*
X140370000Y-64670000D01*
X158350000Y-87500000D02*
X157260990Y-86410990D01*
X197703332Y-81184800D02*
X198103332Y-81184800D01*
%TO.N,A16*%
X172201000Y-84980000D02*
X172201000Y-85545685D01*
X175081000Y-100698934D02*
X175081000Y-108024066D01*
X114119000Y-113185000D02*
X113719001Y-113584999D01*
X154400000Y-65750000D02*
X154400000Y-69868934D01*
X154404810Y-69873744D02*
X154404810Y-86854810D01*
X137830000Y-61670000D02*
X137830000Y-65720000D01*
X154400000Y-69868934D02*
X154404810Y-69873744D01*
X112752400Y-116903600D02*
X111400000Y-116903600D01*
X113719001Y-115936999D02*
X112752400Y-116903600D01*
X137800000Y-65750000D02*
X136825000Y-66725000D01*
X154404810Y-86854810D02*
X156661000Y-89111000D01*
X156785801Y-102414199D02*
X156785801Y-113334990D01*
X173687600Y-114363600D02*
X175040000Y-114363600D01*
X175081000Y-108024066D02*
X172837000Y-110268066D01*
X172505511Y-98123445D02*
X175081000Y-100698934D01*
X172201000Y-85545685D02*
X172505511Y-85850196D01*
X136825000Y-66725000D02*
X136825000Y-73937730D01*
X172837000Y-113513000D02*
X173687600Y-114363600D01*
X156661000Y-102289398D02*
X156785801Y-102414199D01*
X172837000Y-110268066D02*
X172837000Y-113513000D01*
X172505511Y-85850196D02*
X172505511Y-98123445D01*
X156661000Y-89111000D02*
X156661000Y-102289398D01*
X137830000Y-65720000D02*
X137800000Y-65750000D01*
X113719001Y-113584999D02*
X113719001Y-115936999D01*
%TO.N,A17*%
X154850000Y-101800000D02*
X154850000Y-101785000D01*
X154257000Y-96979000D02*
X154260190Y-96975810D01*
X203970932Y-78644800D02*
X205323332Y-78644800D01*
X203616810Y-86916810D02*
X203616810Y-78998922D01*
X135300000Y-67600000D02*
X135300000Y-61680000D01*
X203616810Y-78998922D02*
X203970932Y-78644800D01*
X81785340Y-70300000D02*
X79663486Y-72421856D01*
X154850000Y-101800000D02*
X155528600Y-102478600D01*
X154850000Y-101785000D02*
X154257000Y-101192000D01*
X153610000Y-88826000D02*
X154260190Y-89476190D01*
X154260190Y-89476190D02*
X154260190Y-91494810D01*
X135300000Y-67600000D02*
X135300000Y-70758297D01*
X154257000Y-101192000D02*
X154257000Y-96979000D01*
X153610000Y-88810000D02*
X153610000Y-88826000D01*
X152350000Y-71617227D02*
X152350000Y-67600000D01*
X154260190Y-96975810D02*
X154260190Y-93346190D01*
X154260190Y-93346190D02*
X153404000Y-92490000D01*
X155528600Y-102478600D02*
X155528600Y-115550000D01*
X151904810Y-72062417D02*
X152350000Y-71617227D01*
X151904810Y-87104810D02*
X151904810Y-72062417D01*
X79663486Y-72421856D02*
X79663486Y-107075000D01*
X153610000Y-88810000D02*
X151904810Y-87104810D01*
X154260190Y-91494810D02*
X153404000Y-92351000D01*
X205943000Y-89243000D02*
X203616810Y-86916810D01*
X153404000Y-92351000D02*
X153404000Y-92490000D01*
%TO.N,A3*%
X202483701Y-111201511D02*
X202483701Y-100738081D01*
X164200000Y-96219670D02*
X164200000Y-100943800D01*
X202483701Y-100738081D02*
X202459000Y-100713380D01*
X163754810Y-86528010D02*
X163754810Y-95774480D01*
X163230000Y-86003200D02*
X163754810Y-86528010D01*
X202112000Y-112579000D02*
X202112000Y-111573212D01*
X163754810Y-95774480D02*
X164200000Y-96219670D01*
X202112000Y-111573212D02*
X202483701Y-111201511D01*
X163230000Y-84530000D02*
X163230000Y-86003200D01*
X164200000Y-134700000D02*
X164200000Y-100943800D01*
%TO.N,A2*%
X202112000Y-115119000D02*
X203051801Y-114179199D01*
X203051801Y-114179199D02*
X203051801Y-107227801D01*
X202788511Y-103686489D02*
X203711000Y-102764000D01*
X184019000Y-94621670D02*
X184691000Y-95293670D01*
X163450000Y-89118934D02*
X163450000Y-96400000D01*
X160690000Y-86358934D02*
X163450000Y-89118934D01*
X203711000Y-102764000D02*
X203711000Y-97768000D01*
X184019000Y-76810066D02*
X184019000Y-94621670D01*
X184724266Y-76104800D02*
X184019000Y-76810066D01*
X160690000Y-84530000D02*
X160690000Y-86358934D01*
X163450000Y-96400000D02*
X163450000Y-137183410D01*
X163450000Y-137183410D02*
X163383410Y-137250000D01*
X184691000Y-95293670D02*
X184691000Y-96400000D01*
X203051801Y-107227801D02*
X202788511Y-106964511D01*
X202788511Y-106964511D02*
X202788511Y-103686489D01*
X186076666Y-76104800D02*
X184724266Y-76104800D01*
%TO.N,A1*%
X124167000Y-138595000D02*
X135383800Y-138595000D01*
X160152839Y-87195190D02*
X160157649Y-87200000D01*
X162700000Y-93950000D02*
X162700000Y-96518934D01*
X158545190Y-87195190D02*
X160152839Y-87195190D01*
X183697000Y-74592066D02*
X183697000Y-95230000D01*
X162700000Y-96518934D02*
X162754810Y-96573744D01*
X202112000Y-117659000D02*
X205023701Y-114747299D01*
X162754810Y-96573744D02*
X162754810Y-138161190D01*
X205023701Y-95924701D02*
X204329000Y-95230000D01*
X122509104Y-140252896D02*
X124167000Y-138595000D01*
X205023701Y-114747299D02*
X205023701Y-95924701D01*
X162700000Y-88800000D02*
X162700000Y-93950000D01*
X122509104Y-140252896D02*
X121728601Y-140252896D01*
X162754810Y-138161190D02*
X161152400Y-139763600D01*
X158100000Y-86750000D02*
X158545190Y-87195190D01*
X135383800Y-138595000D02*
X135600000Y-138811200D01*
X186076666Y-73564800D02*
X184724266Y-73564800D01*
X161152400Y-139763600D02*
X159800000Y-139763600D01*
X135600000Y-138811200D02*
X135600000Y-139763600D01*
X161100000Y-87200000D02*
X162700000Y-88800000D01*
X158100000Y-85240400D02*
X158100000Y-86750000D01*
X160157649Y-87200000D02*
X161100000Y-87200000D01*
X184724266Y-73564800D02*
X183697000Y-74592066D01*
%TO.N,D5*%
X88600000Y-85763285D02*
X88600000Y-75200000D01*
X102440000Y-144863600D02*
X101087600Y-144863600D01*
X98857132Y-152680000D02*
X86320000Y-152680000D01*
X91078510Y-95177556D02*
X91078511Y-88241796D01*
X88680990Y-75119010D02*
X88600000Y-75200000D01*
X83967800Y-150327800D02*
X83967800Y-136475000D01*
X90660420Y-95595646D02*
X91078510Y-95177556D01*
X91078511Y-88241796D02*
X88600000Y-85763285D01*
X133400000Y-143600000D02*
X130550000Y-146450000D01*
X139043600Y-144843600D02*
X137800000Y-143600000D01*
X87030000Y-61670000D02*
X87030000Y-63143200D01*
X168800000Y-104018934D02*
X168800000Y-105000000D01*
X139043600Y-144843600D02*
X139043600Y-144856400D01*
X88680990Y-64794190D02*
X88680990Y-75119010D01*
X90660420Y-142598640D02*
X90660420Y-95595646D01*
X137800000Y-143600000D02*
X133400000Y-143600000D01*
X139043600Y-144856400D02*
X139000000Y-144900000D01*
X101087600Y-144863600D02*
X99790380Y-146160820D01*
X99790380Y-146160820D02*
X99790378Y-151746754D01*
X99790378Y-151746754D02*
X98857132Y-152680000D01*
X167409619Y-102628553D02*
X167409618Y-81747486D01*
X92911780Y-144850000D02*
X90660420Y-142598640D01*
X166600000Y-80937868D02*
X166600000Y-75550000D01*
X167409618Y-81747486D02*
X166600000Y-80937868D01*
X86320000Y-152680000D02*
X83967800Y-150327800D01*
X87030000Y-63143200D02*
X88680990Y-64794190D01*
X167409619Y-102628553D02*
X168800000Y-104018934D01*
%TO.N,D6*%
X90532998Y-75637186D02*
X90337415Y-75441603D01*
X93845190Y-138564476D02*
X93200420Y-137919706D01*
X89570000Y-61670000D02*
X90230400Y-61670000D01*
X84596400Y-150286400D02*
X86590000Y-152280000D01*
X86590000Y-152280000D02*
X98826066Y-152280000D01*
X90621400Y-62061000D02*
X90621400Y-75157618D01*
X90532998Y-85970866D02*
X90532998Y-77193064D01*
X99485569Y-151620497D02*
X99485570Y-143925630D01*
X90230400Y-61670000D02*
X90621400Y-62061000D01*
X167104809Y-102754809D02*
X167104809Y-81873743D01*
X167804344Y-103454344D02*
X167804344Y-104428600D01*
X93200420Y-137919706D02*
X93200420Y-88638288D01*
X90007600Y-76667666D02*
X90007600Y-76166062D01*
X165937375Y-80706309D02*
X167104809Y-81873743D01*
X165937375Y-76362625D02*
X165950000Y-76350000D01*
X90532998Y-77193064D02*
X90007600Y-76667666D01*
X95461780Y-142300000D02*
X93845190Y-140683410D01*
X165937375Y-76395787D02*
X165937375Y-76362625D01*
X93200420Y-88638288D02*
X90532998Y-85970866D01*
X90532998Y-75640664D02*
X90532998Y-75637186D01*
X93845190Y-140683410D02*
X93845190Y-138564476D01*
X99485570Y-143925630D02*
X101087600Y-142323600D01*
X165937375Y-80706309D02*
X165937375Y-76395787D01*
X98826066Y-152280000D02*
X99485569Y-151620497D01*
X101087600Y-142323600D02*
X102420000Y-142323600D01*
X90621400Y-75157618D02*
X90337415Y-75441603D01*
X167104809Y-102754809D02*
X167804344Y-103454344D01*
X84596400Y-133925000D02*
X84596400Y-150286400D01*
X90007600Y-76166062D02*
X90532998Y-75640664D01*
%TO.N,D7*%
X95890001Y-111386933D02*
X95890001Y-107105001D01*
X95435610Y-90442412D02*
X90876209Y-85883011D01*
X94457621Y-138745841D02*
X94457621Y-112819313D01*
X166800000Y-82000000D02*
X166800001Y-103800000D01*
X165178600Y-80378600D02*
X165178600Y-76971400D01*
X166800000Y-82000000D02*
X165178600Y-80378600D01*
X99180760Y-151494240D02*
X98795799Y-151879201D01*
X98795799Y-151879201D02*
X86849201Y-151879201D01*
X91449600Y-61670000D02*
X91115200Y-62004400D01*
X101696730Y-139783600D02*
X99180760Y-142299570D01*
X91115200Y-75985464D02*
X90733800Y-76366864D01*
X90876209Y-85883011D02*
X90876209Y-76509273D01*
X90876209Y-76509273D02*
X90733800Y-76366864D01*
X94457621Y-112819313D02*
X95890001Y-111386933D01*
X95435610Y-106650610D02*
X95435610Y-90442412D01*
X92110000Y-61670000D02*
X91449600Y-61670000D01*
X91115200Y-62004400D02*
X91115200Y-75985464D01*
X86849201Y-151879201D02*
X85225000Y-150255000D01*
X95890001Y-107105001D02*
X95435610Y-106650610D01*
X95461780Y-139750000D02*
X94457621Y-138745841D01*
X99180760Y-142299570D02*
X99180760Y-151494240D01*
X85225000Y-150255000D02*
X85225000Y-131425000D01*
%TO.N,D8*%
X115800000Y-103750000D02*
X118710000Y-106660000D01*
X82081998Y-128943002D02*
X82175000Y-128850000D01*
X118710000Y-106660000D02*
X118710000Y-137710000D01*
X108040000Y-152070000D02*
X106290000Y-153820000D01*
X118100000Y-70349999D02*
X115800000Y-72649999D01*
X115800000Y-72649999D02*
X115800000Y-83442364D01*
X110047600Y-142323600D02*
X108040000Y-144331200D01*
X111400000Y-142323600D02*
X110047600Y-142323600D01*
X108040000Y-144331200D02*
X108040000Y-152070000D01*
X115800000Y-85617636D02*
X115800000Y-103750000D01*
X106290000Y-153820000D02*
X85260000Y-153820000D01*
X115859000Y-85558636D02*
X115800000Y-85617636D01*
X117764200Y-138655800D02*
X117764200Y-141618780D01*
X85260000Y-153820000D02*
X82081998Y-150641998D01*
X115859000Y-83501364D02*
X115859000Y-85558636D01*
X118710000Y-137710000D02*
X117764200Y-138655800D01*
X82081998Y-150641998D02*
X82081998Y-128943002D01*
X115800000Y-83442364D02*
X115859000Y-83501364D01*
%TO.N,D9*%
X116180000Y-88529000D02*
X116180000Y-103500000D01*
X108660000Y-152790000D02*
X107270000Y-154180000D01*
X118600000Y-80150000D02*
X118600000Y-86109000D01*
X81546399Y-126353601D02*
X81600000Y-126300000D01*
X108660000Y-146251200D02*
X108660000Y-152790000D01*
X119160000Y-138050000D02*
X118392800Y-138817200D01*
X118600000Y-86109000D02*
X116180000Y-88529000D01*
X110047600Y-144863600D02*
X108660000Y-146251200D01*
X107270000Y-154180000D02*
X84950000Y-154180000D01*
X81546399Y-150776399D02*
X81546399Y-126353601D01*
X116180000Y-103500000D02*
X119160000Y-106480000D01*
X84950000Y-154180000D02*
X81546399Y-150776399D01*
X119160000Y-106480000D02*
X119160000Y-138050000D01*
X118392800Y-138817200D02*
X118392800Y-143850000D01*
X118914285Y-79835715D02*
X118600000Y-80150000D01*
X111400000Y-144863600D02*
X110047600Y-144863600D01*
X118914285Y-69757142D02*
X118914285Y-79835715D01*
%TO.N,D10*%
X116560000Y-88593000D02*
X116560000Y-103280000D01*
X84620000Y-154520000D02*
X108167132Y-154520000D01*
X118904810Y-80276256D02*
X118904809Y-86235257D01*
X118904809Y-86235257D02*
X117231533Y-87908533D01*
X117231533Y-87908533D02*
X117231533Y-87921467D01*
X81075000Y-123775000D02*
X80971399Y-123878601D01*
X108167132Y-154520000D02*
X109340000Y-153347132D01*
X109340000Y-148111200D02*
X110047600Y-147403600D01*
X117231533Y-87921467D02*
X116560000Y-88593000D01*
X119640000Y-138380000D02*
X119021400Y-138998600D01*
X119728570Y-79452496D02*
X118904810Y-80276256D01*
X119728570Y-69164285D02*
X119728570Y-79452496D01*
X80971399Y-123878601D02*
X80971399Y-150871399D01*
X80971399Y-150871399D02*
X84620000Y-154520000D01*
X116560000Y-103280000D02*
X119640000Y-106360000D01*
X109340000Y-153347132D02*
X109340000Y-148111200D01*
X119640000Y-106360000D02*
X119640000Y-138380000D01*
X110047600Y-147403600D02*
X111400000Y-147403600D01*
X119021400Y-138998600D02*
X119021400Y-146400000D01*
%TO.N,D11*%
X79055760Y-143182108D02*
X76471655Y-145766213D01*
X117536342Y-88047724D02*
X116960000Y-88624066D01*
X119171134Y-86400000D02*
X117536343Y-88034789D01*
X120080000Y-106170000D02*
X120080000Y-138500000D01*
X127992400Y-149943600D02*
X126640000Y-149943600D01*
X119650000Y-138930000D02*
X119650000Y-149950000D01*
X117536343Y-88034789D02*
X117536342Y-88047724D01*
X121100000Y-69128573D02*
X121100000Y-85850000D01*
X120550000Y-86400000D02*
X119171134Y-86400000D01*
X75865000Y-121230000D02*
X78630000Y-121230000D01*
X116960000Y-103050000D02*
X120080000Y-106170000D01*
X120080000Y-138500000D02*
X119650000Y-138930000D01*
X76471655Y-145766213D02*
X76471655Y-148108992D01*
X78630000Y-121230000D02*
X79055760Y-121655760D01*
X120542855Y-68571428D02*
X121100000Y-69128573D01*
X116960000Y-88624066D02*
X116960000Y-103050000D01*
X121100000Y-85850000D02*
X120550000Y-86400000D01*
X128450000Y-154147840D02*
X128450000Y-150401200D01*
X79055760Y-121655760D02*
X79055760Y-143182108D01*
X128450000Y-150401200D02*
X127992400Y-149943600D01*
%TO.N,D12*%
X121404809Y-85976257D02*
X120676256Y-86704810D01*
X76714999Y-119539999D02*
X78514999Y-119539999D01*
X117960100Y-88055032D02*
X117410000Y-88605132D01*
X117410000Y-88605132D02*
X117410000Y-102870000D01*
X79360570Y-120385570D02*
X79360570Y-143308364D01*
X120350000Y-146884315D02*
X120350000Y-147450000D01*
X121357140Y-67978571D02*
X121357140Y-68544256D01*
X120560000Y-106020000D02*
X120560000Y-138777868D01*
X124750000Y-153843030D02*
X124750000Y-149293600D01*
X117410000Y-102870000D02*
X120560000Y-106020000D01*
X117960100Y-88042099D02*
X117960100Y-88055032D01*
X120271399Y-146805714D02*
X120350000Y-146884315D01*
X121404810Y-68591926D02*
X121404809Y-85976257D01*
X120560000Y-138777868D02*
X120271399Y-139066469D01*
X120676256Y-86704810D02*
X119297390Y-86704810D01*
X78514999Y-119539999D02*
X79360570Y-120385570D01*
X79360570Y-143308364D02*
X77423472Y-145245462D01*
X75865000Y-118690000D02*
X76714999Y-119539999D01*
X77423472Y-145245462D02*
X77423472Y-147337994D01*
X119297390Y-86704810D02*
X117960100Y-88042099D01*
X120271399Y-139066469D02*
X120271399Y-146805714D01*
X121357140Y-68544256D02*
X121404810Y-68591926D01*
X124750000Y-149293600D02*
X126640000Y-147403600D01*
%TO.N,D13*%
X79665380Y-116700000D02*
X79665380Y-143434620D01*
X79665380Y-143434620D02*
X78350000Y-144750000D01*
X123700000Y-81250000D02*
X123700000Y-85800000D01*
X75865000Y-116150000D02*
X79115380Y-116150000D01*
X122171425Y-67385714D02*
X123080899Y-68295188D01*
X118257633Y-88175632D02*
X118257633Y-88189367D01*
X123080899Y-80630899D02*
X123700000Y-81250000D01*
X120795191Y-144745191D02*
X120900000Y-144850000D01*
X117790000Y-102650000D02*
X121030000Y-105890000D01*
X123700000Y-85800000D02*
X122490380Y-87009620D01*
X79115380Y-116150000D02*
X79665380Y-116700000D01*
X118257633Y-88189367D02*
X117790000Y-88657000D01*
X121030000Y-105890000D02*
X121030000Y-138738934D01*
X122490380Y-87009620D02*
X119423646Y-87009620D01*
X121030000Y-138738934D02*
X120795192Y-138973742D01*
X78350000Y-144750000D02*
X78350000Y-146444600D01*
X117790000Y-88657000D02*
X117790000Y-102650000D01*
X119423646Y-87009620D02*
X118257633Y-88175632D01*
X120795192Y-138973742D02*
X120795191Y-144745191D01*
X123080899Y-68295188D02*
X123080899Y-80630899D01*
%TO.N,D14*%
X79678934Y-113610000D02*
X79970190Y-113901256D01*
X121510000Y-138690000D02*
X121510000Y-105730000D01*
X75865000Y-113610000D02*
X79678934Y-113610000D01*
X118180000Y-102400000D02*
X118180000Y-88698066D01*
X121510000Y-105730000D02*
X118180000Y-102400000D01*
X122616636Y-87314430D02*
X124004809Y-85926257D01*
X121100001Y-141034114D02*
X121100001Y-139099999D01*
X118180000Y-88698066D02*
X118562442Y-88315624D01*
X121423791Y-141357905D02*
X121100001Y-141034114D01*
X121423791Y-141923590D02*
X121423791Y-141357905D01*
X79323205Y-144371465D02*
X79323205Y-145120998D01*
X123385709Y-67192856D02*
X122985710Y-66792857D01*
X79970190Y-143724480D02*
X79323205Y-144371465D01*
X121100001Y-139099999D02*
X121510000Y-138690000D01*
X118562443Y-88301888D02*
X119549902Y-87314430D01*
X123385709Y-80504643D02*
X123385709Y-67192856D01*
X79970190Y-113901256D02*
X79970190Y-143724480D01*
X124004810Y-81123744D02*
X123385709Y-80504643D01*
X124004809Y-85926257D02*
X124004810Y-81123744D01*
X119549902Y-87314430D02*
X122616636Y-87314430D01*
X118562442Y-88315624D02*
X118562443Y-88301888D01*
%TO.N,D15*%
X125080760Y-87619240D02*
X126300000Y-86400000D01*
X126300000Y-86400000D02*
X126300000Y-68700000D01*
X122069488Y-138519488D02*
X122000000Y-138450000D01*
X122069488Y-139363590D02*
X122069488Y-138519488D01*
X119180199Y-88128933D02*
X119180199Y-88115198D01*
X77072081Y-111075000D02*
X77067081Y-111070000D01*
X79275000Y-111075000D02*
X77072081Y-111075000D01*
X118583663Y-102283663D02*
X118583663Y-88725469D01*
X118583663Y-88725469D02*
X119180199Y-88128933D01*
X122000000Y-138450000D02*
X122000000Y-105700000D01*
X77067081Y-111070000D02*
X75865000Y-111070000D01*
X119180199Y-88115198D02*
X119676158Y-87619240D01*
X126300000Y-68700000D02*
X123800000Y-66200000D01*
X80275000Y-112075000D02*
X79275000Y-111075000D01*
X119676158Y-87619240D02*
X125080760Y-87619240D01*
X122000000Y-105700000D02*
X118583663Y-102283663D01*
X80275000Y-144350000D02*
X80275000Y-112075000D01*
%TO.N,A23*%
X112903200Y-67750000D02*
X117510000Y-63143200D01*
X82420940Y-113809390D02*
X82075000Y-114155330D01*
X82075000Y-114155330D02*
X82075000Y-119950000D01*
X82413940Y-66536060D02*
X83250000Y-65700000D01*
X99487000Y-105081000D02*
X99487000Y-110555000D01*
X117510000Y-63143200D02*
X117510000Y-61670000D01*
X82420940Y-99751438D02*
X82420940Y-113809390D01*
X82420940Y-99751438D02*
X82420940Y-92617438D01*
X82413940Y-92610438D02*
X82413940Y-66536060D01*
X82420940Y-92617438D02*
X82413940Y-92610438D01*
X110150000Y-67750000D02*
X112903200Y-67750000D01*
%TO.N,A22*%
X83042540Y-116857460D02*
X83042540Y-67248909D01*
X83042540Y-67248909D02*
X83846134Y-66445315D01*
X83042540Y-116857460D02*
X83025000Y-116875000D01*
X96947000Y-105081000D02*
X96947000Y-110955802D01*
X96947000Y-110955802D02*
X95254000Y-112648802D01*
X95254000Y-112648802D02*
X95254000Y-115780000D01*
X110970732Y-68423816D02*
X113956584Y-68423816D01*
X113956584Y-68423816D02*
X120050000Y-62330400D01*
%TO.N,A21*%
X94407000Y-105081000D02*
X94407000Y-106433400D01*
X111791464Y-69097632D02*
X113713834Y-69097632D01*
X93662000Y-107178400D02*
X93662000Y-116930980D01*
X83744744Y-98269744D02*
X83744744Y-67887467D01*
X83744744Y-67887467D02*
X84452299Y-67179912D01*
X83742798Y-101099202D02*
X83742799Y-114517798D01*
X94407000Y-106433400D02*
X93662000Y-107178400D01*
X83744744Y-98269744D02*
X83742798Y-98271690D01*
X120615590Y-64304810D02*
X118506656Y-64304810D01*
X83742798Y-98271690D02*
X83742798Y-101099202D01*
X83742798Y-114517798D02*
X83775000Y-114550000D01*
X122590000Y-62330400D02*
X120615590Y-64304810D01*
X118506656Y-64304810D02*
X113713834Y-69097632D01*
X93662000Y-116930980D02*
X93829020Y-117098000D01*
%TO.N,A20*%
X84371399Y-102137001D02*
X84371398Y-102137000D01*
X84392589Y-68562836D02*
X84988166Y-67967259D01*
X112612196Y-69771448D02*
X113471084Y-69771448D01*
X84371399Y-99153601D02*
X84371399Y-102151399D01*
X84392589Y-68562836D02*
X84392589Y-99132411D01*
X127670000Y-63143200D02*
X127670000Y-61670000D01*
X91867000Y-105081000D02*
X91867000Y-120000000D01*
X84392589Y-99132411D02*
X84371399Y-99153601D01*
X84371399Y-102151399D02*
X84371399Y-111146399D01*
X126203580Y-64609620D02*
X127670000Y-63143200D01*
X91867000Y-120000000D02*
X91882000Y-120015000D01*
X113471084Y-69771448D02*
X118632912Y-64609620D01*
X118632912Y-64609620D02*
X126203580Y-64609620D01*
%TO.N,A19*%
X129345570Y-64914430D02*
X130210000Y-64050000D01*
X186076666Y-81184800D02*
X187429066Y-81184800D01*
X130210000Y-64050000D02*
X130210000Y-61670000D01*
X187429066Y-81184800D02*
X189894000Y-83649734D01*
X111400000Y-111823600D02*
X111400000Y-107759998D01*
X85021400Y-69288385D02*
X85696903Y-68612882D01*
X118963764Y-64914430D02*
X129345570Y-64914430D01*
X85021400Y-109578600D02*
X85021400Y-69288385D01*
X189894000Y-83649734D02*
X189894000Y-85186000D01*
X189894000Y-85186000D02*
X185560000Y-89520000D01*
X185560000Y-89520000D02*
X185560000Y-102470000D01*
X85000000Y-111418000D02*
X85405600Y-111823600D01*
X85405600Y-111823600D02*
X87200000Y-111823600D01*
X185560000Y-102470000D02*
X184840000Y-103190000D01*
X113432930Y-70445264D02*
X118963764Y-64914430D01*
X85021400Y-109578600D02*
X85000000Y-109600000D01*
X178150000Y-65940000D02*
X178150000Y-83100000D01*
X111400000Y-107759998D02*
X111410000Y-107749998D01*
X85000000Y-109600000D02*
X85000000Y-111418000D01*
%TO.N,A18*%
X174745000Y-107929000D02*
X174745000Y-100794000D01*
X172200701Y-98249701D02*
X172200701Y-87134701D01*
X149260000Y-88300000D02*
X149456000Y-88496000D01*
X85650000Y-70000000D02*
X86300000Y-69350000D01*
X172500000Y-110174000D02*
X174745000Y-107929000D01*
X173687600Y-116903600D02*
X172500000Y-115716000D01*
X146750000Y-79450000D02*
X146750000Y-85800000D01*
X148671400Y-77528600D02*
X146750000Y-79450000D01*
X148851000Y-87900000D02*
X149251000Y-88300000D01*
X149456000Y-99789000D02*
X150582190Y-100915190D01*
X172830307Y-81051693D02*
X172830307Y-71715000D01*
X85657000Y-96141800D02*
X85657000Y-103296316D01*
X172200701Y-87134701D02*
X171447000Y-86381000D01*
X172500000Y-115716000D02*
X172500000Y-110174000D01*
X85650000Y-96134800D02*
X85650000Y-70000000D01*
X149251000Y-88300000D02*
X149260000Y-88300000D01*
X154200000Y-103918934D02*
X154200000Y-116900000D01*
X151196256Y-100915190D02*
X154200000Y-103918934D01*
X148671400Y-70129697D02*
X148671400Y-77528600D01*
X175040000Y-116903600D02*
X173687600Y-116903600D01*
X85650000Y-96134800D02*
X85657000Y-96141800D01*
X174745000Y-100794000D02*
X172200701Y-98249701D01*
X146750000Y-85800000D02*
X148850000Y-87900000D01*
X149456000Y-88496000D02*
X149456000Y-99789000D01*
X150582190Y-100915190D02*
X151196256Y-100915190D01*
X132700000Y-70100000D02*
X132700000Y-61720000D01*
X148850000Y-87900000D02*
X148851000Y-87900000D01*
X171447000Y-86381000D02*
X171447000Y-82435000D01*
X171447000Y-82435000D02*
X172830307Y-81051693D01*
%TO.N,A5*%
X166190382Y-91590382D02*
X166190382Y-100609618D01*
X164550000Y-64363200D02*
X164550000Y-89950000D01*
X165770000Y-63143200D02*
X164550000Y-64363200D01*
X165200000Y-101600000D02*
X165200000Y-129600000D01*
X164550000Y-89950000D02*
X166190382Y-91590382D01*
X166190382Y-100609618D02*
X165200000Y-101600000D01*
X165770000Y-61670000D02*
X165770000Y-63143200D01*
%TO.N,A4*%
X191436685Y-103926000D02*
X193801685Y-106291000D01*
X198676000Y-106291000D02*
X199572000Y-107187000D01*
X199572000Y-107187000D02*
X199572000Y-110039000D01*
X166495192Y-101960525D02*
X166171401Y-102284315D01*
X193801685Y-106291000D02*
X198676000Y-106291000D01*
X166171401Y-102284315D02*
X166171401Y-102850000D01*
X165770000Y-84530000D02*
X165770000Y-88570000D01*
X166495192Y-89295192D02*
X166495192Y-101960525D01*
X166171401Y-132321401D02*
X166171401Y-102850000D01*
X165770000Y-88570000D02*
X166495192Y-89295192D01*
X190871000Y-103926000D02*
X191436685Y-103926000D01*
X166200000Y-132350000D02*
X166171401Y-132321401D01*
%TO.N,D0*%
X168933669Y-75278463D02*
X168933669Y-101997273D01*
X130547790Y-143352210D02*
X131596400Y-142303600D01*
X124465685Y-142750000D02*
X125067895Y-143352210D01*
X99230000Y-141320000D02*
X97200000Y-143350000D01*
X97190000Y-84530000D02*
X97190000Y-90249000D01*
X169778601Y-71978601D02*
X169750000Y-71950000D01*
X123900000Y-142750000D02*
X124465685Y-142750000D01*
X168933669Y-101997273D02*
X173800000Y-106863604D01*
X125067895Y-143352210D02*
X130547790Y-143352210D01*
X97200001Y-72717073D02*
X97200001Y-84519999D01*
X131596400Y-142303600D02*
X135600000Y-142303600D01*
X100515610Y-93575610D02*
X100820420Y-93880420D01*
X100820420Y-93880420D02*
X100820420Y-112159580D01*
X99230000Y-113750000D02*
X99230000Y-141320000D01*
X100820420Y-112159580D02*
X99230000Y-113750000D01*
X169778601Y-74433531D02*
X169778601Y-71978601D01*
X173800000Y-106863604D02*
X173800000Y-107400000D01*
X100515610Y-93574610D02*
X100515610Y-93575610D01*
X97190000Y-90249000D02*
X100515610Y-93574610D01*
X168933669Y-75278463D02*
X169778601Y-74433531D01*
%TO.N,D1*%
X98280420Y-92752354D02*
X96395190Y-90867124D01*
X96395191Y-112369743D02*
X98280419Y-110484515D01*
X169178601Y-74602465D02*
X169178601Y-72728601D01*
X168628859Y-75152207D02*
X169178601Y-74602465D01*
X96395190Y-86445190D02*
X95900000Y-85950000D01*
X95900000Y-85950000D02*
X95900000Y-84967200D01*
X136952400Y-144843600D02*
X135600000Y-144843600D01*
X137750000Y-152928600D02*
X137750000Y-145641200D01*
X137750000Y-145641200D02*
X136952400Y-144843600D01*
X97148665Y-148717020D02*
X96395190Y-147963545D01*
X95462800Y-84530000D02*
X94650000Y-84530000D01*
X96395190Y-147963545D02*
X96395191Y-112369743D01*
X168628859Y-102123529D02*
X168628859Y-75152207D01*
X98280419Y-110484515D02*
X98280420Y-92752354D01*
X168628859Y-102123529D02*
X172750000Y-106244670D01*
X94650000Y-84530000D02*
X94650000Y-73185000D01*
X169178601Y-72728601D02*
X169150000Y-72700000D01*
X95900000Y-84967200D02*
X95462800Y-84530000D01*
X172750000Y-106244670D02*
X172750000Y-106850000D01*
X96395190Y-90867124D02*
X96395190Y-86445190D01*
%TO.N,D2*%
X92110000Y-86003200D02*
X92110000Y-84530000D01*
X96090380Y-147559620D02*
X96090382Y-112243486D01*
X91420000Y-75545685D02*
X92143492Y-74822193D01*
X92110000Y-83056800D02*
X91420000Y-82366800D01*
X87200000Y-147403600D02*
X88552400Y-147403600D01*
X89325000Y-146631000D02*
X89325000Y-143925000D01*
X92110000Y-84530000D02*
X92110000Y-83056800D01*
X95793934Y-86275000D02*
X92381800Y-86275000D01*
X168324049Y-102249785D02*
X171800000Y-105725736D01*
X96090380Y-90993380D02*
X96090380Y-86571446D01*
X168324049Y-75025951D02*
X168550000Y-74800000D01*
X92399400Y-151250600D02*
X96090380Y-147559620D01*
X96090380Y-86571446D02*
X95793934Y-86275000D01*
X168550000Y-74800000D02*
X168550000Y-73450000D01*
X171800000Y-105725736D02*
X171800000Y-106350000D01*
X133900000Y-153538220D02*
X133900000Y-149083600D01*
X168324049Y-102249785D02*
X168324049Y-75025951D01*
X88552400Y-147403600D02*
X89325000Y-146631000D01*
X92381800Y-86275000D02*
X92110000Y-86003200D01*
X91420000Y-82366800D02*
X91420000Y-75545685D01*
X96090382Y-112243486D02*
X97975610Y-110358258D01*
X92143492Y-74822193D02*
X92143492Y-74256508D01*
X97975610Y-92878610D02*
X96090380Y-90993380D01*
X97975610Y-110358258D02*
X97975610Y-92878610D01*
X133900000Y-149083600D02*
X135600000Y-147383600D01*
%TO.N,D3*%
X168019239Y-102376041D02*
X170750000Y-105106802D01*
X89570000Y-73752838D02*
X89550000Y-73732838D01*
X102440000Y-149943600D02*
X101087600Y-149943600D01*
X93005512Y-149755512D02*
X93540380Y-149220644D01*
X168019239Y-102376041D02*
X168019239Y-74269239D01*
X100400000Y-150631200D02*
X100400000Y-151999258D01*
X92895610Y-88764544D02*
X91226257Y-87095191D01*
X82710599Y-150530599D02*
X82710599Y-141550000D01*
X91226257Y-87095191D02*
X90661990Y-87095190D01*
X85640000Y-153460000D02*
X82710599Y-150530599D01*
X168019239Y-74269239D02*
X167850000Y-74100000D01*
X89570000Y-86003200D02*
X89570000Y-84530000D01*
X90661990Y-87095190D02*
X89570000Y-86003200D01*
X170750000Y-105106802D02*
X170750000Y-105950000D01*
X98939258Y-153460000D02*
X85640000Y-153460000D01*
X93540380Y-138690732D02*
X92895610Y-138045962D01*
X92895610Y-138045962D02*
X92895610Y-88764544D01*
X101087600Y-149943600D02*
X100400000Y-150631200D01*
X100400000Y-151999258D02*
X98939258Y-153460000D01*
X89570000Y-84530000D02*
X89570000Y-73752838D01*
X93540380Y-149220644D02*
X93540380Y-138690732D01*
%TO.N,D4*%
X167714429Y-102502297D02*
X167714429Y-81621231D01*
X100095186Y-151873011D02*
X98878197Y-153090000D01*
X90355610Y-144193830D02*
X92911780Y-146750000D01*
X83339199Y-150449199D02*
X83339199Y-139000000D01*
X167228601Y-81135403D02*
X167228601Y-74837232D01*
X100095190Y-150504944D02*
X100095186Y-151873011D01*
X87030000Y-75383828D02*
X88052390Y-74361438D01*
X90773701Y-95051299D02*
X90355610Y-95469390D01*
X100095190Y-148396010D02*
X100095190Y-150504944D01*
X85980000Y-153090000D02*
X83339199Y-150449199D01*
X90773701Y-88368052D02*
X90773701Y-95051299D01*
X98878197Y-153090000D02*
X85980000Y-153090000D01*
X167714429Y-102502297D02*
X169800000Y-104587868D01*
X90355610Y-95469390D02*
X90355610Y-144193830D01*
X167714429Y-81621231D02*
X167228601Y-81135403D01*
X101087600Y-147403600D02*
X100095190Y-148396010D01*
X149487600Y-147383600D02*
X150840000Y-147383600D01*
X87030000Y-84624351D02*
X90773701Y-88368052D01*
X167228601Y-74837232D02*
X167209713Y-74818344D01*
X87030000Y-84530000D02*
X87030000Y-75383828D01*
X149113511Y-151576211D02*
X149113511Y-147757689D01*
X169800000Y-104587868D02*
X169800000Y-105500000D01*
X149113511Y-147757689D02*
X149487600Y-147383600D01*
X148713512Y-151976210D02*
X149113511Y-151576211D01*
X102440000Y-147403600D02*
X101087600Y-147403600D01*
%TO.N,CPUSP*%
X103902000Y-85539649D02*
X106621382Y-88259031D01*
X103724000Y-79346998D02*
X104116200Y-79739198D01*
X194096666Y-63404800D02*
X195687000Y-61814466D01*
X193696666Y-63404800D02*
X194096666Y-63404800D01*
X106621382Y-95041618D02*
X105629809Y-96033191D01*
X104116200Y-80340802D02*
X103902000Y-80555002D01*
X104116200Y-79739198D02*
X104116200Y-80340802D01*
X105629809Y-98837995D02*
X104994402Y-99473402D01*
X103724000Y-56751000D02*
X103724000Y-79346998D01*
X195687000Y-61814466D02*
X195687000Y-57367000D01*
X103902000Y-80555002D02*
X103902000Y-85539649D01*
X105629809Y-96033191D02*
X105629809Y-98837995D01*
X106621382Y-88259031D02*
X106621382Y-95041618D01*
%TO.N,LGEXP*%
X109018000Y-93933000D02*
X109018000Y-94847400D01*
X110853580Y-96682980D02*
X110853580Y-102310580D01*
X109647000Y-103517160D02*
X109647000Y-105081000D01*
X109018000Y-94847400D02*
X110853580Y-96682980D01*
X110853580Y-102310580D02*
X109647000Y-103517160D01*
D34*
%TO.N,Net-(IC4-OP3)*%
X177840499Y-140523499D02*
X180717000Y-143400000D01*
X177840499Y-125059501D02*
X177840499Y-140523499D01*
X190963399Y-111590399D02*
X190963399Y-121046601D01*
X180717000Y-143400000D02*
X189831200Y-143400000D01*
X189412000Y-110039000D02*
X190963399Y-111590399D01*
X190963399Y-121046601D02*
X190259601Y-121750399D01*
X190259601Y-121750399D02*
X181149601Y-121750399D01*
X181149601Y-121750399D02*
X177840499Y-125059501D01*
X189831200Y-143400000D02*
X192532000Y-146100800D01*
%TO.N,Net-(IC4-OP5)*%
X189682919Y-121347989D02*
X180412011Y-121347989D01*
X177230000Y-124530000D02*
X177230000Y-142430000D01*
X180898800Y-146098800D02*
X184166800Y-146098800D01*
X190560989Y-120469919D02*
X189682919Y-121347989D01*
X189412000Y-112579000D02*
X190560989Y-113727989D01*
X177230000Y-142430000D02*
X180898800Y-146098800D01*
X180412011Y-121347989D02*
X177230000Y-124530000D01*
X190560989Y-113727989D02*
X190560989Y-120469919D01*
D33*
%TO.N,DUASEL*%
X203312000Y-87779000D02*
X205739000Y-90206000D01*
X203756000Y-127819000D02*
X199572000Y-127819000D01*
X205323332Y-68484800D02*
X203970932Y-68484800D01*
X203970932Y-68484800D02*
X203312000Y-69143732D01*
X205739000Y-125836000D02*
X203756000Y-127819000D01*
X203312000Y-69143732D02*
X203312000Y-87779000D01*
X205739000Y-90206000D02*
X205739000Y-125836000D01*
%TO.N,DUAIACK*%
X200511801Y-124339199D02*
X202071801Y-124339199D01*
X203007190Y-87905256D02*
X203007190Y-62234810D01*
X205341000Y-90239066D02*
X203007190Y-87905256D01*
X205341000Y-121070000D02*
X205341000Y-90239066D01*
X199572000Y-125279000D02*
X200511801Y-124339199D01*
X202071801Y-124339199D02*
X205341000Y-121070000D01*
X203007190Y-62234810D02*
X203010000Y-62232000D01*
D34*
%TO.N,RUNLED*%
X209060000Y-60930000D02*
X209720400Y-61590400D01*
X208840000Y-76960000D02*
X208080000Y-76960000D01*
X209720400Y-76079600D02*
X208840000Y-76960000D01*
X209720400Y-61590400D02*
X209720400Y-76079600D01*
D35*
%TO.N,HWRST*%
X214652000Y-64878000D02*
X216929000Y-62601000D01*
X188065000Y-57705090D02*
X188065000Y-61816466D01*
X216929000Y-62601000D02*
X216929000Y-59003078D01*
X189710490Y-56059600D02*
X188065000Y-57705090D01*
X214652000Y-78782800D02*
X214652000Y-64878000D01*
X216929000Y-59003078D02*
X213985522Y-56059600D01*
X188065000Y-61816466D02*
X186476666Y-63404800D01*
X209630000Y-83804800D02*
X214652000Y-78782800D01*
X213985522Y-56059600D02*
X189710490Y-56059600D01*
D36*
%TO.N,VCCUA*%
X223300000Y-91159000D02*
X225674000Y-91159000D01*
X225674000Y-91159000D02*
X226547000Y-92032000D01*
X226547000Y-92032000D02*
X226547000Y-106305000D01*
X225674000Y-107178000D02*
X223300000Y-107178000D01*
X226547000Y-106305000D02*
X225674000Y-107178000D01*
%TO.N,VCCUB*%
X219995000Y-92216000D02*
X219995000Y-106121000D01*
X219995000Y-106121000D02*
X218938000Y-107178000D01*
X218938000Y-91159000D02*
X219995000Y-92216000D01*
X216564000Y-91159000D02*
X218938000Y-91159000D01*
X218938000Y-107178000D02*
X216564000Y-107178000D01*
D33*
%TO.N,WR*%
X87815601Y-98019999D02*
X87815601Y-105424275D01*
X88781000Y-106389674D02*
X87815601Y-105424275D01*
X88781000Y-130925000D02*
X88781000Y-106389674D01*
X88374600Y-97461000D02*
X87815601Y-98019999D01*
X89327000Y-97461000D02*
X88374600Y-97461000D01*
%TO.N,ROM_RW*%
X103139000Y-106571000D02*
X105161000Y-108593000D01*
X103399000Y-99550334D02*
X103139000Y-99810334D01*
X105161000Y-112995000D02*
X103792400Y-114363600D01*
X105161000Y-108593000D02*
X105161000Y-112995000D01*
X103792400Y-114363600D02*
X102440000Y-114363600D01*
X127992400Y-114363600D02*
X126640000Y-114363600D01*
X104703000Y-94847400D02*
X103399000Y-96151400D01*
X128135000Y-109213000D02*
X128135000Y-114221000D01*
X128135000Y-114221000D02*
X127992400Y-114363600D01*
X103139000Y-99810334D02*
X103139000Y-106571000D01*
X103399000Y-96151400D02*
X103399000Y-99550334D01*
X104703000Y-93933000D02*
X104703000Y-94847400D01*
D34*
%TO.N,SPICS2*%
X186872000Y-110039000D02*
X187860601Y-111027601D01*
X187860601Y-111027601D02*
X187860601Y-113660601D01*
X216564000Y-116264000D02*
X215700000Y-115400000D01*
X187860601Y-113660601D02*
X189700000Y-115500000D01*
X216564000Y-131310000D02*
X216564000Y-116264000D01*
D33*
%TO.N,DUAIRQ*%
X177920000Y-118661800D02*
X177920000Y-98027600D01*
X179324000Y-120065800D02*
X177920000Y-118661800D01*
X184198800Y-120065800D02*
X179324000Y-120065800D01*
%TO.N,IRQ3*%
X144243420Y-99253210D02*
X144567210Y-99577000D01*
X113620512Y-79121488D02*
X113620512Y-87592199D01*
X145450000Y-90480000D02*
X145450000Y-95152066D01*
X144243420Y-96358646D02*
X144243420Y-99253210D01*
X145450000Y-95152066D02*
X144243420Y-96358646D01*
X113622000Y-79120000D02*
X113620512Y-79121488D01*
%TO.N,IRQ2*%
X101043000Y-81017768D02*
X98875232Y-78850000D01*
X146783420Y-99542420D02*
X147456000Y-100215000D01*
X77548810Y-96686190D02*
X77548810Y-81098037D01*
X77548810Y-81098037D02*
X78044852Y-80601995D01*
X147990000Y-91832400D02*
X146783420Y-93038980D01*
X146783420Y-93038980D02*
X146783420Y-99542420D01*
X101043000Y-88248400D02*
X101043000Y-81017768D01*
X147990000Y-90480000D02*
X147990000Y-91832400D01*
X75865000Y-98370000D02*
X77548810Y-96686190D01*
X98875232Y-78850000D02*
X98840000Y-78850000D01*
%TO.N,IRQ6*%
X101914400Y-87080000D02*
X101380990Y-86546590D01*
X101380990Y-79961056D02*
X101700000Y-79642046D01*
X101380990Y-86546590D02*
X101380990Y-79961056D01*
X75865000Y-100910000D02*
X77859620Y-98915380D01*
X77859620Y-98915380D02*
X77859620Y-82187912D01*
X77859620Y-82187912D02*
X78991716Y-81055816D01*
X101700000Y-79642046D02*
X101700000Y-78708100D01*
%TO.N,IRQ5*%
X96885190Y-86504124D02*
X96885190Y-90855190D01*
X140240000Y-102935758D02*
X140240442Y-102936200D01*
X140240000Y-98230000D02*
X140240000Y-102935758D01*
X95766666Y-84402800D02*
X95766666Y-79813980D01*
X96204810Y-85823744D02*
X96885190Y-86504124D01*
X96885190Y-90855190D02*
X100515610Y-94485610D01*
X100515610Y-102174390D02*
X99930000Y-102760000D01*
X96204810Y-84840944D02*
X96204810Y-85823744D01*
X75865000Y-95830000D02*
X77244000Y-94451000D01*
X100515610Y-94485610D02*
X100515610Y-102174390D01*
X95766666Y-84402800D02*
X96204810Y-84840944D01*
X95766666Y-79813980D02*
X96077422Y-79503224D01*
X77244000Y-94451000D02*
X77244000Y-80375845D01*
X77244000Y-80375845D02*
X78123645Y-79496200D01*
D35*
%TO.N,Net-(J10-VBUS-PadA4)*%
X216260000Y-142810000D02*
X215770000Y-142320000D01*
X216640000Y-142810000D02*
X216260000Y-142810000D01*
X215770000Y-142320000D02*
X215770000Y-138970000D01*
X215770000Y-138970000D02*
X216635000Y-138105000D01*
X216635000Y-138105000D02*
X216795343Y-138105000D01*
%TD*%
M02*
