%TF.GenerationSoftware,KiCad,Pcbnew,7.0.9*%
%TF.CreationDate,2024-04-15T20:34:35+01:00*%
%TF.ProjectId,rosco_m68k,726f7363-6f5f-46d3-9638-6b2e6b696361,2.2*%
%TF.SameCoordinates,Original*%
%TF.FileFunction,Paste,Bot*%
%TF.FilePolarity,Positive*%
%FSLAX46Y46*%
G04 Gerber Fmt 4.6, Leading zero omitted, Abs format (unit mm)*
G04 Created by KiCad (PCBNEW 7.0.9) date 2024-04-15 20:34:35*
%MOMM*%
%LPD*%
G01*
G04 APERTURE LIST*
G04 Aperture macros list*
%AMRoundRect*
0 Rectangle with rounded corners*
0 $1 Rounding radius*
0 $2 $3 $4 $5 $6 $7 $8 $9 X,Y pos of 4 corners*
0 Add a 4 corners polygon primitive as box body*
4,1,4,$2,$3,$4,$5,$6,$7,$8,$9,$2,$3,0*
0 Add four circle primitives for the rounded corners*
1,1,$1+$1,$2,$3*
1,1,$1+$1,$4,$5*
1,1,$1+$1,$6,$7*
1,1,$1+$1,$8,$9*
0 Add four rect primitives between the rounded corners*
20,1,$1+$1,$2,$3,$4,$5,0*
20,1,$1+$1,$4,$5,$6,$7,0*
20,1,$1+$1,$6,$7,$8,$9,0*
20,1,$1+$1,$8,$9,$2,$3,0*%
G04 Aperture macros list end*
%ADD10RoundRect,0.200000X0.275000X-0.200000X0.275000X0.200000X-0.275000X0.200000X-0.275000X-0.200000X0*%
%ADD11RoundRect,0.225000X-0.250000X0.225000X-0.250000X-0.225000X0.250000X-0.225000X0.250000X0.225000X0*%
%ADD12RoundRect,0.225000X0.225000X0.250000X-0.225000X0.250000X-0.225000X-0.250000X0.225000X-0.250000X0*%
%ADD13RoundRect,0.200000X0.200000X0.275000X-0.200000X0.275000X-0.200000X-0.275000X0.200000X-0.275000X0*%
%ADD14RoundRect,0.225000X0.250000X-0.225000X0.250000X0.225000X-0.250000X0.225000X-0.250000X-0.225000X0*%
%ADD15RoundRect,0.200000X-0.275000X0.200000X-0.275000X-0.200000X0.275000X-0.200000X0.275000X0.200000X0*%
%ADD16RoundRect,0.200000X-0.200000X-0.275000X0.200000X-0.275000X0.200000X0.275000X-0.200000X0.275000X0*%
%ADD17RoundRect,0.225000X-0.225000X-0.250000X0.225000X-0.250000X0.225000X0.250000X-0.225000X0.250000X0*%
%ADD18R,1.160000X0.600000*%
%ADD19R,1.160000X0.300000*%
%ADD20RoundRect,0.243750X0.243750X0.456250X-0.243750X0.456250X-0.243750X-0.456250X0.243750X-0.456250X0*%
%ADD21RoundRect,0.150000X-0.512500X-0.150000X0.512500X-0.150000X0.512500X0.150000X-0.512500X0.150000X0*%
%ADD22RoundRect,0.218750X0.218750X0.256250X-0.218750X0.256250X-0.218750X-0.256250X0.218750X-0.256250X0*%
%ADD23RoundRect,0.135000X-0.135000X-0.185000X0.135000X-0.185000X0.135000X0.185000X-0.135000X0.185000X0*%
%ADD24RoundRect,0.075000X0.075000X-0.700000X0.075000X0.700000X-0.075000X0.700000X-0.075000X-0.700000X0*%
%ADD25RoundRect,0.075000X0.700000X-0.075000X0.700000X0.075000X-0.700000X0.075000X-0.700000X-0.075000X0*%
%ADD26RoundRect,0.140000X-0.140000X-0.170000X0.140000X-0.170000X0.140000X0.170000X-0.140000X0.170000X0*%
%ADD27R,4.500000X2.000000*%
%ADD28RoundRect,0.243750X-0.243750X-0.456250X0.243750X-0.456250X0.243750X0.456250X-0.243750X0.456250X0*%
%ADD29RoundRect,0.150000X0.512500X0.150000X-0.512500X0.150000X-0.512500X-0.150000X0.512500X-0.150000X0*%
%ADD30RoundRect,0.140000X-0.170000X0.140000X-0.170000X-0.140000X0.170000X-0.140000X0.170000X0.140000X0*%
%ADD31RoundRect,0.135000X0.135000X0.185000X-0.135000X0.185000X-0.135000X-0.185000X0.135000X-0.185000X0*%
%ADD32RoundRect,0.135000X0.185000X-0.135000X0.185000X0.135000X-0.185000X0.135000X-0.185000X-0.135000X0*%
%ADD33RoundRect,0.140000X0.140000X0.170000X-0.140000X0.170000X-0.140000X-0.170000X0.140000X-0.170000X0*%
G04 APERTURE END LIST*
D10*
%TO.C,R19*%
X135410000Y-91945000D03*
X135410000Y-90295000D03*
%TD*%
D11*
%TO.C,C1*%
X186817000Y-118154200D03*
X186817000Y-119704200D03*
%TD*%
%TO.C,C7*%
X137720000Y-93465000D03*
X137720000Y-95015000D03*
%TD*%
%TO.C,C8*%
X113593000Y-91761000D03*
X113593000Y-93311000D03*
%TD*%
%TO.C,C9*%
X156599600Y-108114200D03*
X156599600Y-109664200D03*
%TD*%
D12*
%TO.C,C24*%
X190865000Y-59040000D03*
X189315000Y-59040000D03*
%TD*%
D13*
%TO.C,R8*%
X131535000Y-104350000D03*
X129885000Y-104350000D03*
%TD*%
%TO.C,R7*%
X108305000Y-79100000D03*
X106655000Y-79100000D03*
%TD*%
D10*
%TO.C,R9*%
X104580000Y-79335000D03*
X104580000Y-77685000D03*
%TD*%
D11*
%TO.C,C22*%
X192557400Y-140142700D03*
X192557400Y-141692700D03*
%TD*%
D14*
%TO.C,C26*%
X124750000Y-106875000D03*
X124750000Y-105325000D03*
%TD*%
D11*
%TO.C,C2*%
X199567800Y-118154200D03*
X199567800Y-119704200D03*
%TD*%
D12*
%TO.C,C13*%
X221465000Y-86340000D03*
X219915000Y-86340000D03*
%TD*%
D11*
%TO.C,C27*%
X197408800Y-106362200D03*
X197408800Y-107912200D03*
%TD*%
%TO.C,C28*%
X204063600Y-105803400D03*
X204063600Y-107353400D03*
%TD*%
D12*
%TO.C,C31*%
X179005000Y-58310000D03*
X177455000Y-58310000D03*
%TD*%
D15*
%TO.C,R27*%
X213230000Y-82555000D03*
X213230000Y-84205000D03*
%TD*%
D10*
%TO.C,R28*%
X225200000Y-78095000D03*
X225200000Y-76445000D03*
%TD*%
D15*
%TO.C,R13*%
X211580000Y-62965000D03*
X211580000Y-64615000D03*
%TD*%
D16*
%TO.C,R21*%
X107825000Y-58420000D03*
X109475000Y-58420000D03*
%TD*%
D10*
%TO.C,R10*%
X130160000Y-79005000D03*
X130160000Y-77355000D03*
%TD*%
D15*
%TO.C,R14*%
X218210000Y-62945000D03*
X218210000Y-64595000D03*
%TD*%
D16*
%TO.C,R11*%
X101825000Y-108640000D03*
X103475000Y-108640000D03*
%TD*%
%TO.C,R1*%
X182478200Y-152323800D03*
X184128200Y-152323800D03*
%TD*%
%TO.C,R2*%
X190843400Y-152323800D03*
X192493400Y-152323800D03*
%TD*%
D14*
%TO.C,C6*%
X186289800Y-147040600D03*
X186289800Y-145490600D03*
%TD*%
D12*
%TO.C,C25*%
X202325000Y-58340000D03*
X200775000Y-58340000D03*
%TD*%
D15*
%TO.C,R32*%
X190423800Y-78410800D03*
X190423800Y-80060800D03*
%TD*%
D17*
%TO.C,C29*%
X121840000Y-82370000D03*
X123390000Y-82370000D03*
%TD*%
D12*
%TO.C,C12*%
X121005000Y-59080000D03*
X119455000Y-59080000D03*
%TD*%
%TO.C,C10*%
X171717000Y-111760000D03*
X170167000Y-111760000D03*
%TD*%
%TO.C,C5*%
X147841000Y-111760000D03*
X146291000Y-111760000D03*
%TD*%
%TO.C,C4*%
X122441000Y-112014000D03*
X120891000Y-112014000D03*
%TD*%
%TO.C,C3*%
X99175000Y-112190000D03*
X97625000Y-112190000D03*
%TD*%
D15*
%TO.C,R31*%
X190398400Y-81572600D03*
X190398400Y-83222600D03*
%TD*%
D16*
%TO.C,R12*%
X100965000Y-77900000D03*
X102615000Y-77900000D03*
%TD*%
D13*
%TO.C,R15*%
X99815000Y-79880000D03*
X98165000Y-79880000D03*
%TD*%
%TO.C,R17*%
X96825000Y-78650000D03*
X95175000Y-78650000D03*
%TD*%
%TO.C,R18*%
X93685000Y-78770000D03*
X92035000Y-78770000D03*
%TD*%
D15*
%TO.C,R3*%
X133540000Y-97315000D03*
X133540000Y-98965000D03*
%TD*%
%TO.C,R16*%
X182180000Y-104143000D03*
X182180000Y-105793000D03*
%TD*%
D17*
%TO.C,C32*%
X86601000Y-93726000D03*
X88151000Y-93726000D03*
%TD*%
D12*
%TO.C,C42*%
X205753000Y-139344400D03*
X204203000Y-139344400D03*
%TD*%
D15*
%TO.C,R4*%
X214910000Y-143955000D03*
X214910000Y-145605000D03*
%TD*%
D18*
%TO.C,J10*%
X220480000Y-136810000D03*
X220480000Y-137610000D03*
D19*
X220480000Y-138760000D03*
X220480000Y-139760000D03*
X220480000Y-140260000D03*
X220480000Y-141260000D03*
D18*
X220480000Y-142410000D03*
X220480000Y-143210000D03*
X220480000Y-143210000D03*
X220480000Y-142410000D03*
D19*
X220480000Y-141760000D03*
X220480000Y-140760000D03*
X220480000Y-139260000D03*
X220480000Y-138260000D03*
D18*
X220480000Y-137610000D03*
X220480000Y-136810000D03*
%TD*%
D20*
%TO.C,LED5*%
X198552000Y-122664600D03*
X196677000Y-122664600D03*
%TD*%
D21*
%TO.C,IC13*%
X215655000Y-137600000D03*
X215655000Y-136650000D03*
X215655000Y-135700000D03*
X217930000Y-135700000D03*
X217930000Y-136650000D03*
X217930000Y-137600000D03*
%TD*%
D22*
%TO.C,FB1*%
X211556600Y-113614200D03*
X209981600Y-113614200D03*
%TD*%
D23*
%TO.C,R6*%
X197894500Y-124284700D03*
X198914500Y-124284700D03*
%TD*%
D24*
%TO.C,IC12*%
X210744200Y-130302000D03*
X210244200Y-130302000D03*
X209744200Y-130302000D03*
X209244200Y-130302000D03*
X208744200Y-130302000D03*
X208244200Y-130302000D03*
X207744200Y-130302000D03*
X207244200Y-130302000D03*
X206744200Y-130302000D03*
X206244200Y-130302000D03*
X205744200Y-130302000D03*
X205244200Y-130302000D03*
X204744200Y-130302000D03*
X204244200Y-130302000D03*
X203744200Y-130302000D03*
X203244200Y-130302000D03*
D25*
X201319200Y-128377000D03*
X201319200Y-127877000D03*
X201319200Y-127377000D03*
X201319200Y-126877000D03*
X201319200Y-126377000D03*
X201319200Y-125877000D03*
X201319200Y-125377000D03*
X201319200Y-124877000D03*
X201319200Y-124377000D03*
X201319200Y-123877000D03*
X201319200Y-123377000D03*
X201319200Y-122877000D03*
X201319200Y-122377000D03*
X201319200Y-121877000D03*
X201319200Y-121377000D03*
X201319200Y-120877000D03*
D24*
X203244200Y-118952000D03*
X203744200Y-118952000D03*
X204244200Y-118952000D03*
X204744200Y-118952000D03*
X205244200Y-118952000D03*
X205744200Y-118952000D03*
X206244200Y-118952000D03*
X206744200Y-118952000D03*
X207244200Y-118952000D03*
X207744200Y-118952000D03*
X208244200Y-118952000D03*
X208744200Y-118952000D03*
X209244200Y-118952000D03*
X209744200Y-118952000D03*
X210244200Y-118952000D03*
X210744200Y-118952000D03*
D25*
X212669200Y-120877000D03*
X212669200Y-121377000D03*
X212669200Y-121877000D03*
X212669200Y-122377000D03*
X212669200Y-122877000D03*
X212669200Y-123377000D03*
X212669200Y-123877000D03*
X212669200Y-124377000D03*
X212669200Y-124877000D03*
X212669200Y-125377000D03*
X212669200Y-125877000D03*
X212669200Y-126377000D03*
X212669200Y-126877000D03*
X212669200Y-127377000D03*
X212669200Y-127877000D03*
X212669200Y-128377000D03*
%TD*%
D26*
%TO.C,C33*%
X209984400Y-114909600D03*
X210944400Y-114909600D03*
%TD*%
D13*
%TO.C,R33*%
X204482200Y-132435600D03*
X202832200Y-132435600D03*
%TD*%
D17*
%TO.C,C23*%
X209740200Y-116230400D03*
X211290200Y-116230400D03*
%TD*%
D27*
%TO.C,Y2*%
X195698800Y-135864600D03*
X204198800Y-135864600D03*
%TD*%
D28*
%TO.C,LED7*%
X214591500Y-121081800D03*
X216466500Y-121081800D03*
%TD*%
D29*
%TO.C,IC11*%
X191202000Y-129631400D03*
X191202000Y-130581400D03*
X191202000Y-131531400D03*
X188927000Y-131531400D03*
X188927000Y-130581400D03*
X188927000Y-129631400D03*
%TD*%
D30*
%TO.C,C35*%
X187477400Y-130076000D03*
X187477400Y-131036000D03*
%TD*%
D23*
%TO.C,R25*%
X214865000Y-132562600D03*
X215885000Y-132562600D03*
%TD*%
D12*
%TO.C,C16*%
X220695000Y-115360000D03*
X219145000Y-115360000D03*
%TD*%
D29*
%TO.C,IC9*%
X191202000Y-124526000D03*
X191202000Y-125476000D03*
X191202000Y-126426000D03*
X188927000Y-126426000D03*
X188927000Y-125476000D03*
X188927000Y-124526000D03*
%TD*%
D31*
%TO.C,R22*%
X216789000Y-122605800D03*
X215769000Y-122605800D03*
%TD*%
D13*
%TO.C,R30*%
X210510400Y-132486400D03*
X208860400Y-132486400D03*
%TD*%
D32*
%TO.C,R26*%
X226009200Y-124792200D03*
X226009200Y-123772200D03*
%TD*%
D12*
%TO.C,C40*%
X200368200Y-131927600D03*
X198818200Y-131927600D03*
%TD*%
D17*
%TO.C,C41*%
X190283800Y-135864600D03*
X191833800Y-135864600D03*
%TD*%
D33*
%TO.C,C38*%
X195013900Y-131061200D03*
X194053900Y-131061200D03*
%TD*%
%TO.C,C37*%
X195018600Y-128422400D03*
X194058600Y-128422400D03*
%TD*%
D12*
%TO.C,C20*%
X215608200Y-114884200D03*
X214058200Y-114884200D03*
%TD*%
%TO.C,C39*%
X200342800Y-130403600D03*
X198792800Y-130403600D03*
%TD*%
D29*
%TO.C,U6*%
X215821400Y-117388600D03*
X215821400Y-118338600D03*
X215821400Y-119288600D03*
X213546400Y-119288600D03*
X213546400Y-117388600D03*
%TD*%
D31*
%TO.C,R24*%
X215871800Y-131343400D03*
X214851800Y-131343400D03*
%TD*%
D28*
%TO.C,LED8*%
X214591500Y-125171200D03*
X216466500Y-125171200D03*
%TD*%
D12*
%TO.C,C30*%
X213790000Y-78720000D03*
X212240000Y-78720000D03*
%TD*%
D22*
%TO.C,FB2*%
X195021300Y-129768600D03*
X193446300Y-129768600D03*
%TD*%
D23*
%TO.C,R20*%
X197894500Y-125379900D03*
X198914500Y-125379900D03*
%TD*%
D26*
%TO.C,C36*%
X200967400Y-118567200D03*
X201927400Y-118567200D03*
%TD*%
D10*
%TO.C,R5*%
X212810000Y-145560000D03*
X212810000Y-143910000D03*
%TD*%
D20*
%TO.C,LED6*%
X198552000Y-127000000D03*
X196677000Y-127000000D03*
%TD*%
D32*
%TO.C,R29*%
X226009200Y-126775400D03*
X226009200Y-125755400D03*
%TD*%
D33*
%TO.C,C34*%
X187474800Y-123113800D03*
X186514800Y-123113800D03*
%TD*%
D29*
%TO.C,IC8*%
X185846300Y-124526000D03*
X185846300Y-125476000D03*
X185846300Y-126426000D03*
X183571300Y-126426000D03*
X183571300Y-125476000D03*
X183571300Y-124526000D03*
%TD*%
D22*
%TO.C,FB3*%
X194995800Y-132283200D03*
X193420800Y-132283200D03*
%TD*%
D31*
%TO.C,R23*%
X216789000Y-123672600D03*
X215769000Y-123672600D03*
%TD*%
D29*
%TO.C,U8*%
X216905000Y-126970000D03*
X216905000Y-127920000D03*
X216905000Y-128870000D03*
X214630000Y-128870000D03*
X214630000Y-127920000D03*
X214630000Y-126970000D03*
%TD*%
%TO.C,IC10*%
X185846300Y-129631400D03*
X185846300Y-130581400D03*
X185846300Y-131531400D03*
X183571300Y-131531400D03*
X183571300Y-130581400D03*
X183571300Y-129631400D03*
%TD*%
M02*
