G04 #@! TF.GenerationSoftware,KiCad,Pcbnew,(5.1.5-0-10_14)*
G04 #@! TF.CreationDate,2020-03-17T19:24:24+00:00*
G04 #@! TF.ProjectId,rosco_m68k,726f7363-6f5f-46d3-9638-6b2e6b696361,rev?*
G04 #@! TF.SameCoordinates,Original*
G04 #@! TF.FileFunction,Copper,L1,Top*
G04 #@! TF.FilePolarity,Positive*
%FSLAX46Y46*%
G04 Gerber Fmt 4.6, Leading zero omitted, Abs format (unit mm)*
G04 Created by KiCad (PCBNEW (5.1.5-0-10_14)) date 2020-03-17 19:24:24*
%MOMM*%
%LPD*%
G04 APERTURE LIST*
%ADD10O,1.700000X1.700000*%
%ADD11R,1.700000X1.700000*%
%ADD12C,1.600200*%
%ADD13C,1.320800*%
%ADD14O,2.641600X1.320800*%
%ADD15O,1.524000X3.048000*%
%ADD16O,1.320800X2.641600*%
%ADD17C,1.270000*%
%ADD18O,3.048000X1.524000*%
%ADD19C,1.524000*%
%ADD20C,1.676400*%
%ADD21R,1.676400X1.676400*%
%ADD22C,0.756400*%
%ADD23C,0.800000*%
%ADD24C,0.152400*%
G04 APERTURE END LIST*
D10*
X218360000Y-128620000D03*
X220900000Y-128620000D03*
X218360000Y-131160000D03*
X220900000Y-131160000D03*
X218360000Y-133700000D03*
X220900000Y-133700000D03*
X218360000Y-136240000D03*
X220900000Y-136240000D03*
X218360000Y-138780000D03*
X220900000Y-138780000D03*
X218360000Y-141320000D03*
X220900000Y-141320000D03*
X218360000Y-143860000D03*
X220900000Y-143860000D03*
X218360000Y-146400000D03*
D11*
X220900000Y-146400000D03*
D12*
X214122000Y-95021400D03*
X216662000Y-95021400D03*
D13*
X143510000Y-107500000D03*
X153670000Y-107500000D03*
X213296500Y-100761800D03*
X213296500Y-110921800D03*
X213600000Y-145480000D03*
X213600000Y-135320000D03*
D14*
X207020100Y-90283600D03*
X207020100Y-92823600D03*
X207020100Y-95363600D03*
X207020100Y-97903600D03*
X207020100Y-100443600D03*
X207020100Y-102983600D03*
X207020100Y-105523600D03*
X207020100Y-108063600D03*
X207020100Y-110603600D03*
X207020100Y-113143600D03*
X207020100Y-115683600D03*
X207020100Y-118223600D03*
X207020100Y-120763600D03*
X207020100Y-123303600D03*
X207020100Y-125843600D03*
X207020100Y-128383600D03*
X207020100Y-130923600D03*
X207020100Y-133463600D03*
X207020100Y-136003600D03*
X207020100Y-138543600D03*
X207020100Y-141083600D03*
X207020100Y-143623600D03*
X207020100Y-146163600D03*
X207020100Y-148703600D03*
X191780100Y-148703600D03*
X191780100Y-146163600D03*
X191780100Y-143623600D03*
X191780100Y-141083600D03*
X191780100Y-138543600D03*
X191780100Y-136003600D03*
X191780100Y-133463600D03*
X191780100Y-130923600D03*
X191780100Y-128383600D03*
X191780100Y-125843600D03*
X191780100Y-123303600D03*
X191780100Y-120763600D03*
X191780100Y-118223600D03*
X191780100Y-115683600D03*
X191780100Y-113143600D03*
X191780100Y-110603600D03*
X191780100Y-108063600D03*
X191780100Y-105523600D03*
X191780100Y-102983600D03*
X191780100Y-100443600D03*
X191780100Y-97903600D03*
X191780100Y-95363600D03*
X191780100Y-92823600D03*
X191780100Y-90283600D03*
D15*
X224260600Y-65498800D03*
X219739400Y-65498800D03*
X224260600Y-72001200D03*
X219739400Y-72001200D03*
D13*
X213830000Y-67360000D03*
X213830000Y-77520000D03*
D12*
X183525100Y-79488600D03*
X180985100Y-79488600D03*
X186700100Y-107746100D03*
X184160100Y-107746100D03*
X181620100Y-107746100D03*
X179080100Y-107746100D03*
X177810100Y-79488600D03*
X175270100Y-79488600D03*
X199352000Y-80822000D03*
X196812000Y-80822000D03*
X193177100Y-80885600D03*
X190637100Y-80885600D03*
X203162000Y-82854000D03*
X205702000Y-82854000D03*
X168920100Y-88378600D03*
X171460100Y-88378600D03*
X212530000Y-151200000D03*
X215070000Y-151200000D03*
X170825100Y-65836100D03*
X170825100Y-68376100D03*
X204520000Y-71000000D03*
X201980000Y-71000000D03*
X135265100Y-106793600D03*
X132725100Y-106793600D03*
X125105100Y-108698600D03*
X122565100Y-108698600D03*
X135265100Y-101713600D03*
X132725100Y-101713600D03*
X214084000Y-82092000D03*
X214084000Y-84632000D03*
X222478600Y-95186500D03*
X222478600Y-97726500D03*
X169237600Y-60121100D03*
X171777600Y-60121100D03*
X83500000Y-137900000D03*
X86040000Y-137900000D03*
X81470500Y-147929600D03*
X85026500Y-147929600D03*
X170825100Y-74091100D03*
X170825100Y-76631100D03*
X83500000Y-130250000D03*
X86040000Y-130250000D03*
X111135100Y-151243600D03*
X108595100Y-151243600D03*
X133995100Y-151243600D03*
X131455100Y-151243600D03*
X156855100Y-151243600D03*
X154315100Y-151243600D03*
X179715100Y-151243600D03*
X177175100Y-151243600D03*
D16*
X120025100Y-88378600D03*
X122565100Y-88378600D03*
X125105100Y-88378600D03*
X127645100Y-88378600D03*
X130185100Y-88378600D03*
X132725100Y-88378600D03*
X130185100Y-95998600D03*
X132725100Y-95998600D03*
X127645100Y-95998600D03*
X125105100Y-95998600D03*
X135265100Y-88378600D03*
X135265100Y-95998600D03*
X122565100Y-95998600D03*
X120025100Y-95998600D03*
D17*
X226276000Y-90728000D03*
X226276000Y-88188000D03*
X218656000Y-90728000D03*
X218656000Y-88188000D03*
X226276000Y-83108000D03*
X226276000Y-85648000D03*
X218656000Y-85648000D03*
X218656000Y-83108000D03*
D14*
X183525100Y-86473600D03*
X183525100Y-89013600D03*
X183525100Y-91553600D03*
X183525100Y-94093600D03*
X183525100Y-96633600D03*
X183525100Y-99173600D03*
X175905100Y-96633600D03*
X175905100Y-99173600D03*
X175905100Y-94093600D03*
X175905100Y-91553600D03*
X183525100Y-101713600D03*
X175905100Y-101713600D03*
X175905100Y-89013600D03*
X175905100Y-86473600D03*
D16*
X161935100Y-61073600D03*
X159395100Y-61073600D03*
X156855100Y-61073600D03*
X154315100Y-61073600D03*
X151775100Y-61073600D03*
X149235100Y-61073600D03*
X146695100Y-61073600D03*
X144155100Y-61073600D03*
X141615100Y-61073600D03*
X139075100Y-61073600D03*
X136535100Y-61073600D03*
X133995100Y-61073600D03*
X161935100Y-83933600D03*
X159395100Y-83933600D03*
X156855100Y-83933600D03*
X154315100Y-83933600D03*
X151775100Y-83933600D03*
X149235100Y-83933600D03*
X146695100Y-83933600D03*
X144155100Y-83933600D03*
X141615100Y-83933600D03*
X139075100Y-83933600D03*
X136535100Y-83933600D03*
X133995100Y-83933600D03*
X85735100Y-61073600D03*
X88275100Y-61073600D03*
X90815100Y-61073600D03*
X93355100Y-61073600D03*
X95895100Y-61073600D03*
X98435100Y-61073600D03*
X100975100Y-61073600D03*
X103515100Y-61073600D03*
X106055100Y-61073600D03*
X108595100Y-61073600D03*
X111135100Y-61073600D03*
X113675100Y-61073600D03*
X116215100Y-61073600D03*
X118755100Y-61073600D03*
X121295100Y-61073600D03*
X123835100Y-61073600D03*
X126375100Y-61073600D03*
X128915100Y-61073600D03*
X131455100Y-61073600D03*
X164475100Y-61073600D03*
X164475100Y-83933600D03*
X131455100Y-83933600D03*
X128915100Y-83933600D03*
X126375100Y-83933600D03*
X123835100Y-83933600D03*
X121295100Y-83933600D03*
X118755100Y-83933600D03*
X116215100Y-83933600D03*
X113675100Y-83933600D03*
X111135100Y-83933600D03*
X108595100Y-83933600D03*
X106055100Y-83933600D03*
X103515100Y-83933600D03*
X100975100Y-83933600D03*
X98435100Y-83933600D03*
X95895100Y-83933600D03*
X93355100Y-83933600D03*
X90815100Y-83933600D03*
X88275100Y-83933600D03*
X85735100Y-83933600D03*
X140980100Y-88378600D03*
X143520100Y-88378600D03*
X146060100Y-88378600D03*
X148600100Y-88378600D03*
X151140100Y-88378600D03*
X153680100Y-88378600D03*
X156220100Y-88378600D03*
X158760100Y-88378600D03*
X161300100Y-88378600D03*
X163840100Y-88378600D03*
X163840100Y-95998600D03*
X161300100Y-95998600D03*
X158760100Y-95998600D03*
X156220100Y-95998600D03*
X153680100Y-95998600D03*
X151140100Y-95998600D03*
X148600100Y-95998600D03*
X146060100Y-95998600D03*
X143520100Y-95998600D03*
X140980100Y-95998600D03*
D14*
X183525100Y-58533600D03*
X183525100Y-61073600D03*
X183525100Y-63613600D03*
X183525100Y-66153600D03*
X183525100Y-68693600D03*
X183525100Y-71233600D03*
X175905100Y-68693600D03*
X175905100Y-71233600D03*
X175905100Y-66153600D03*
X175905100Y-63613600D03*
X183525100Y-73773600D03*
X175905100Y-73773600D03*
X175905100Y-61073600D03*
X175905100Y-58533600D03*
X197495100Y-58533600D03*
X197495100Y-61073600D03*
X197495100Y-63613600D03*
X197495100Y-66153600D03*
X197495100Y-68693600D03*
X197495100Y-71233600D03*
X197495100Y-73773600D03*
X197495100Y-76313600D03*
X189875100Y-68693600D03*
X189875100Y-71233600D03*
X189875100Y-66153600D03*
X189875100Y-63613600D03*
X189875100Y-76313600D03*
X189875100Y-73773600D03*
X189875100Y-61073600D03*
X189875100Y-58533600D03*
D18*
X224040700Y-109664500D03*
X224040700Y-107124500D03*
X224040700Y-104584500D03*
X224040700Y-102044500D03*
X75600000Y-147170000D03*
X75600000Y-144630000D03*
D19*
X78115100Y-135368600D03*
X75575100Y-135368600D03*
X78115100Y-132828600D03*
X75575100Y-132828600D03*
X78115100Y-130288600D03*
X75575100Y-130288600D03*
X78115100Y-127748600D03*
X75575100Y-127748600D03*
X78115100Y-125208600D03*
X75575100Y-125208600D03*
X78115100Y-122668600D03*
X75575100Y-122668600D03*
X78115100Y-120128600D03*
X75575100Y-120128600D03*
X78115100Y-117588600D03*
X75575100Y-117588600D03*
X78115100Y-115048600D03*
X75575100Y-115048600D03*
X78115100Y-112508600D03*
X75575100Y-112508600D03*
X78115100Y-109968600D03*
X75575100Y-109968600D03*
X78115100Y-107428600D03*
X75575100Y-107428600D03*
X78115100Y-104888600D03*
X75575100Y-104888600D03*
X78115100Y-102348600D03*
X75575100Y-102348600D03*
X78115100Y-99808600D03*
X75575100Y-99808600D03*
X78115100Y-97268600D03*
X75575100Y-97268600D03*
X78115100Y-94728600D03*
X75575100Y-94728600D03*
X78115100Y-92188600D03*
X75575100Y-92188600D03*
X78115100Y-89648600D03*
X75575100Y-89648600D03*
X78115100Y-87108600D03*
X75575100Y-87108600D03*
X78115100Y-84568600D03*
X75575100Y-84568600D03*
X78115100Y-82028600D03*
X75575100Y-82028600D03*
X78115100Y-79488600D03*
X75575100Y-79488600D03*
X78115100Y-76948600D03*
X75575100Y-76948600D03*
X78115100Y-74408600D03*
X75575100Y-74408600D03*
X78115100Y-71868600D03*
X75575100Y-71868600D03*
X78115100Y-69328600D03*
X75575100Y-69328600D03*
X78115100Y-66788600D03*
X75575100Y-66788600D03*
X78115100Y-64248600D03*
X75575100Y-64248600D03*
X78115100Y-61708600D03*
X75575100Y-61708600D03*
X78115100Y-140448600D03*
X75575100Y-140448600D03*
X78115100Y-137908600D03*
X75575100Y-137908600D03*
D13*
X186065100Y-132193600D03*
X183525100Y-132193600D03*
X186382600Y-146163600D03*
X183842600Y-146163600D03*
X214005100Y-60692600D03*
X211465100Y-60692600D03*
X202892600Y-60692600D03*
X205432600Y-60692600D03*
X179842100Y-116001100D03*
X184668100Y-116001100D03*
X126248100Y-101713600D03*
X121422100Y-101713600D03*
X103238300Y-67348100D03*
X103238300Y-77508100D03*
X115897600Y-97268600D03*
X115897600Y-107428600D03*
X128841500Y-67462400D03*
X128841500Y-77622400D03*
X218363800Y-110921800D03*
X218363800Y-100761800D03*
X226276000Y-78790000D03*
X216116000Y-78790000D03*
X209000000Y-77520000D03*
X209000000Y-67360000D03*
X187970100Y-91553600D03*
X187970100Y-101713600D03*
X171460100Y-107428600D03*
X171460100Y-97268600D03*
X178445100Y-122033600D03*
X178445100Y-132193600D03*
X178445100Y-134733600D03*
X178445100Y-144893600D03*
X141615100Y-67423600D03*
X141615100Y-77583600D03*
X112722600Y-107428600D03*
X112722600Y-97268600D03*
X144155100Y-67423600D03*
X144155100Y-77583600D03*
X149235100Y-67423600D03*
X149235100Y-77583600D03*
X105981500Y-67348100D03*
X105981500Y-77508100D03*
D20*
X106055100Y-116953600D03*
X106055100Y-119493600D03*
X106055100Y-122033600D03*
X106055100Y-124573600D03*
X106055100Y-127113600D03*
X106055100Y-129653600D03*
X106055100Y-132193600D03*
X106055100Y-134733600D03*
X106055100Y-137273600D03*
X106055100Y-139813600D03*
X106055100Y-142353600D03*
X106055100Y-144893600D03*
X106055100Y-147433600D03*
X106055100Y-149973600D03*
X90815100Y-149973600D03*
X90815100Y-147433600D03*
X90815100Y-144893600D03*
X90815100Y-142353600D03*
X90815100Y-139813600D03*
X90815100Y-137273600D03*
X90815100Y-134733600D03*
X90815100Y-132193600D03*
X90815100Y-129653600D03*
X90815100Y-127113600D03*
X90815100Y-124573600D03*
X90815100Y-122033600D03*
X90815100Y-119493600D03*
D21*
X90815100Y-116953600D03*
D20*
X128915100Y-116953600D03*
X128915100Y-119493600D03*
X128915100Y-122033600D03*
X128915100Y-124573600D03*
X128915100Y-127113600D03*
X128915100Y-129653600D03*
X128915100Y-132193600D03*
X128915100Y-134733600D03*
X128915100Y-137273600D03*
X128915100Y-139813600D03*
X128915100Y-142353600D03*
X128915100Y-144893600D03*
X128915100Y-147433600D03*
X128915100Y-149973600D03*
X113675100Y-149973600D03*
X113675100Y-147433600D03*
X113675100Y-144893600D03*
X113675100Y-142353600D03*
X113675100Y-139813600D03*
X113675100Y-137273600D03*
X113675100Y-134733600D03*
X113675100Y-132193600D03*
X113675100Y-129653600D03*
X113675100Y-127113600D03*
X113675100Y-124573600D03*
X113675100Y-122033600D03*
X113675100Y-119493600D03*
D21*
X113675100Y-116953600D03*
D20*
X151775100Y-111873600D03*
X151775100Y-114413600D03*
X151775100Y-116953600D03*
X151775100Y-119493600D03*
X151775100Y-122033600D03*
X151775100Y-124573600D03*
X151775100Y-127113600D03*
X151775100Y-129653600D03*
X151775100Y-132193600D03*
X151775100Y-134733600D03*
X151775100Y-137273600D03*
X151775100Y-139813600D03*
X151775100Y-142353600D03*
X151775100Y-144893600D03*
X151775100Y-147433600D03*
X151775100Y-149973600D03*
X136535100Y-149973600D03*
X136535100Y-147433600D03*
X136535100Y-144893600D03*
X136535100Y-142353600D03*
X136535100Y-139813600D03*
X136535100Y-137273600D03*
X136535100Y-134733600D03*
X136535100Y-132193600D03*
X136535100Y-129653600D03*
X136535100Y-127113600D03*
X136535100Y-124573600D03*
X136535100Y-122033600D03*
X136535100Y-119493600D03*
X136535100Y-116953600D03*
X136535100Y-114413600D03*
D21*
X136535100Y-111873600D03*
D20*
X174635100Y-111873600D03*
X174635100Y-114413600D03*
X174635100Y-116953600D03*
X174635100Y-119493600D03*
X174635100Y-122033600D03*
X174635100Y-124573600D03*
X174635100Y-127113600D03*
X174635100Y-129653600D03*
X174635100Y-132193600D03*
X174635100Y-134733600D03*
X174635100Y-137273600D03*
X174635100Y-139813600D03*
X174635100Y-142353600D03*
X174635100Y-144893600D03*
X174635100Y-147433600D03*
X174635100Y-149973600D03*
X159395100Y-149973600D03*
X159395100Y-147433600D03*
X159395100Y-144893600D03*
X159395100Y-142353600D03*
X159395100Y-139813600D03*
X159395100Y-137273600D03*
X159395100Y-134733600D03*
X159395100Y-132193600D03*
X159395100Y-129653600D03*
X159395100Y-127113600D03*
X159395100Y-124573600D03*
X159395100Y-122033600D03*
X159395100Y-119493600D03*
X159395100Y-116953600D03*
X159395100Y-114413600D03*
D21*
X159395100Y-111873600D03*
D16*
X85735100Y-96633600D03*
X88275100Y-96633600D03*
X90815100Y-96633600D03*
X93355100Y-96633600D03*
X95895100Y-96633600D03*
X98435100Y-96633600D03*
X100975100Y-96633600D03*
X103515100Y-96633600D03*
X106055100Y-96633600D03*
X108595100Y-96633600D03*
X108595100Y-104253600D03*
X106055100Y-104253600D03*
X103515100Y-104253600D03*
X100975100Y-104253600D03*
X98435100Y-104253600D03*
X95895100Y-104253600D03*
X93355100Y-104253600D03*
X90815100Y-104253600D03*
X88275100Y-104253600D03*
X85735100Y-104253600D03*
D12*
X100975100Y-108063600D03*
X100975100Y-110603600D03*
X113040100Y-93458600D03*
X113040100Y-90918600D03*
D22*
X206385100Y-79012350D03*
X80352900Y-76581000D03*
X85258850Y-91712350D03*
X86370100Y-74726100D03*
X149235100Y-74408600D03*
X101610100Y-90918600D03*
X74146350Y-97268600D03*
X101610100Y-93934850D03*
X102562600Y-127272350D03*
X77003850Y-126796100D03*
X104626350Y-126002350D03*
D23*
X117335300Y-77495400D03*
D22*
X173365100Y-94569850D03*
X129232600Y-91077350D03*
X167332600Y-91394850D03*
X127010100Y-106793600D03*
X104626350Y-121557350D03*
X114627600Y-82504850D03*
D23*
X138772900Y-77584300D03*
D22*
X126375100Y-93934850D03*
X129867600Y-73138600D03*
X102562600Y-99173600D03*
X108753850Y-92188600D03*
X99705100Y-102348600D03*
X155585100Y-100126000D03*
X188605100Y-87584850D03*
X93990100Y-119652350D03*
X162887600Y-79171100D03*
X100022600Y-75043600D03*
X109388850Y-93934850D03*
X76210100Y-98538600D03*
X90180100Y-89807350D03*
X150505100Y-78853600D03*
X80496350Y-78536100D03*
X87957600Y-88061100D03*
X88592600Y-81552350D03*
X81131350Y-103618600D03*
X97482600Y-131717350D03*
X94307600Y-92664850D03*
D23*
X221335600Y-87299800D03*
D22*
X98117600Y-133146100D03*
X155267600Y-133146100D03*
X83671350Y-98538600D03*
X98117600Y-98538600D03*
D23*
X163626800Y-144729200D03*
X171157900Y-144716500D03*
X183629300Y-153930300D03*
D22*
X158125100Y-138067350D03*
X158125100Y-103301100D03*
D23*
X185318400Y-138341100D03*
X198196200Y-144932400D03*
D22*
X103832600Y-109968600D03*
X162252600Y-110286100D03*
D23*
X183464200Y-137299700D03*
X185115200Y-147574000D03*
D22*
X110182600Y-88696100D03*
X151457600Y-92029850D03*
X83671350Y-79488600D03*
X83671350Y-99808600D03*
X101610100Y-100126100D03*
D23*
X212153500Y-90398600D03*
X220484700Y-86575900D03*
X209880200Y-109677200D03*
D22*
X211518500Y-88176100D03*
D23*
X205854300Y-77152500D03*
D22*
X100657600Y-135844850D03*
D23*
X197345300Y-139115800D03*
D22*
X85893850Y-143464850D03*
D23*
X196570600Y-138404600D03*
D22*
X155585100Y-109651100D03*
X100022600Y-127907350D03*
D23*
X194983100Y-109588300D03*
D22*
X82401350Y-125684850D03*
X111928850Y-126002350D03*
X155902600Y-126478600D03*
X83036350Y-123144850D03*
X100657600Y-123144850D03*
X153838850Y-131558600D03*
X107801350Y-131399850D03*
D23*
X153936700Y-144894300D03*
D22*
X95577600Y-89331100D03*
X80496350Y-90442350D03*
X88910100Y-145528600D03*
X139075100Y-148862350D03*
X130978850Y-146957350D03*
X99705100Y-116794850D03*
X107483850Y-149814850D03*
D23*
X148805900Y-152768300D03*
D22*
X98752600Y-114572350D03*
X127962600Y-114254850D03*
X143996350Y-145369850D03*
X90180100Y-111714850D03*
X128597600Y-112984850D03*
X130661350Y-144099850D03*
X94942600Y-109016100D03*
X131137600Y-114254850D03*
X97165100Y-112826100D03*
X94983300Y-66713100D03*
X130343850Y-138384850D03*
X97165100Y-107428600D03*
X130502600Y-99173600D03*
X96847600Y-100761100D03*
D23*
X97793700Y-67221100D03*
D22*
X93990100Y-88696100D03*
D23*
X205105000Y-136949810D03*
D22*
X138122600Y-82504850D03*
D23*
X204842090Y-131419678D03*
D22*
X182016400Y-139179300D03*
X134788850Y-152513600D03*
D23*
X200114000Y-141528000D03*
D22*
X81766350Y-137432350D03*
D23*
X199390000Y-153301700D03*
D22*
X82401350Y-85679850D03*
X81766350Y-135368600D03*
X100022600Y-136638600D03*
X165633400Y-137121900D03*
D23*
X198723400Y-121805700D03*
D22*
X87005100Y-75519850D03*
X87005100Y-126954850D03*
X165586350Y-125208600D03*
X72876350Y-120128600D03*
X156220100Y-122986100D03*
X76686350Y-121874850D03*
X160982600Y-62819850D03*
X161458850Y-121239850D03*
X151616350Y-79647350D03*
X153362600Y-80282350D03*
X73511350Y-111873600D03*
X108595100Y-113937350D03*
X149393850Y-129653600D03*
X74463850Y-95998600D03*
X141297600Y-117588600D03*
X166697600Y-63454850D03*
X140345100Y-75996100D03*
X133995100Y-107587350D03*
X147806350Y-102348600D03*
X167332600Y-67582350D03*
X83353850Y-105999850D03*
X86052600Y-115683600D03*
X164157600Y-98379850D03*
X161300100Y-73773600D03*
X164316350Y-132828600D03*
X74146350Y-135368600D03*
D23*
X189700000Y-83108000D03*
D22*
X157490100Y-105364850D03*
X80178850Y-138702350D03*
D23*
X191478000Y-84124000D03*
D22*
X152727600Y-72503600D03*
X105102600Y-115524850D03*
X117961350Y-92664850D03*
X100340100Y-116001100D03*
X103197600Y-108698600D03*
X108912600Y-107428600D03*
X109706350Y-113302350D03*
X141932600Y-112984850D03*
X133518850Y-94252350D03*
X134947600Y-109333600D03*
X142240000Y-111841850D03*
X140662600Y-116477350D03*
X137805100Y-94887350D03*
X140662600Y-110127350D03*
X73828850Y-127431100D03*
X188446350Y-114889850D03*
X71606350Y-127748600D03*
X164951350Y-130288600D03*
D23*
X164957750Y-100380000D03*
D22*
X93355100Y-91077350D03*
X72558850Y-90283600D03*
X146218850Y-99173600D03*
X107960100Y-98538600D03*
X105578850Y-92029850D03*
X147965100Y-91077350D03*
D23*
X204597000Y-91198700D03*
D22*
X186223850Y-92982350D03*
X111452600Y-97903600D03*
X96847600Y-93299850D03*
X145742600Y-93299850D03*
D23*
X137811500Y-106680000D03*
X136525000Y-68948300D03*
X83896200Y-68986400D03*
X134010400Y-69576900D03*
X84488052Y-69732577D03*
X131432300Y-70205500D03*
X85161503Y-70406026D03*
X135813800Y-78225000D03*
X137182900Y-100863400D03*
X210515200Y-103955900D03*
X210508800Y-128587500D03*
D24*
X141615100Y-77583600D02*
X141615100Y-83933600D01*
X209083850Y-128859850D02*
X207020100Y-130923600D01*
X209083850Y-82981100D02*
X209083850Y-128859850D01*
X206385100Y-80282350D02*
X209083850Y-82981100D01*
X206385100Y-79012350D02*
X206385100Y-80282350D01*
X77003850Y-96157350D02*
X78115100Y-97268600D01*
X77003850Y-79171100D02*
X77003850Y-96157350D01*
X78235750Y-77939200D02*
X77003850Y-79171100D01*
X79029500Y-77939200D02*
X78235750Y-77939200D01*
X80352900Y-76581000D02*
X79029500Y-77939200D01*
X144155100Y-83933600D02*
X144155100Y-77583600D01*
X86687600Y-90283600D02*
X85258850Y-91712350D01*
X86687600Y-76154850D02*
X86687600Y-90283600D01*
X86370100Y-75837350D02*
X86687600Y-76154850D01*
X86370100Y-74726100D02*
X86370100Y-75837350D01*
X149235100Y-77583600D02*
X149235100Y-74408600D01*
X146695100Y-83933600D02*
X146695100Y-80123600D01*
X146695100Y-80123600D02*
X149235100Y-77583600D01*
X101610100Y-95998600D02*
X100975100Y-96633600D01*
X101610100Y-90918600D02*
X101610100Y-93934850D01*
X101610100Y-93934850D02*
X101610100Y-95998600D01*
X74463850Y-131717350D02*
X75575100Y-132828600D01*
X74463850Y-124573600D02*
X74463850Y-131717350D01*
X74146350Y-124256100D02*
X74463850Y-124573600D01*
X74146350Y-97268600D02*
X74146350Y-124256100D01*
X103991350Y-125843600D02*
X102562600Y-127272350D01*
X103991350Y-110762350D02*
X103991350Y-125843600D01*
X105102600Y-109651100D02*
X103991350Y-110762350D01*
X105102600Y-103142350D02*
X105102600Y-109651100D01*
X111770100Y-96474850D02*
X105102600Y-103142350D01*
X111770100Y-85838600D02*
X111770100Y-96474850D01*
X113675100Y-83933600D02*
X111770100Y-85838600D01*
X113675100Y-83933600D02*
X113675100Y-83273200D01*
X113675100Y-82460400D02*
X110869100Y-79654400D01*
X113675100Y-83933600D02*
X113675100Y-82460400D01*
X105384600Y-79654400D02*
X103238300Y-77508100D01*
X110869100Y-79654400D02*
X105384600Y-79654400D01*
X77003850Y-128859850D02*
X75575100Y-130288600D01*
X77003850Y-126796100D02*
X77003850Y-128859850D01*
X117167600Y-84886100D02*
X116215100Y-83933600D01*
X107960100Y-107428600D02*
X117167600Y-98221100D01*
X117167600Y-98221100D02*
X117167600Y-84886100D01*
X107960100Y-113143600D02*
X107642600Y-113461100D01*
X107960100Y-113143600D02*
X107960100Y-107428600D01*
X107642600Y-113461100D02*
X107642600Y-124891100D01*
X107642600Y-124891100D02*
X106486900Y-126046800D01*
X104670800Y-126046800D02*
X104626350Y-126002350D01*
X106486900Y-126046800D02*
X104670800Y-126046800D01*
X117342350Y-77742350D02*
X117373400Y-77711300D01*
X117326350Y-77742350D02*
X117342350Y-77742350D01*
X117335300Y-82813400D02*
X117335300Y-77495400D01*
X116215100Y-83933600D02*
X117335300Y-82813400D01*
X187017600Y-136321100D02*
X191780100Y-141083600D01*
X187017600Y-129132157D02*
X187017600Y-136321100D01*
X171460100Y-96474850D02*
X173365100Y-94569850D01*
X171460100Y-97268600D02*
X171460100Y-96474850D01*
X129232600Y-84251100D02*
X128915100Y-83933600D01*
X129232600Y-91077350D02*
X129232600Y-84251100D01*
X185271350Y-63137350D02*
X189875100Y-58533600D01*
X128915100Y-104888600D02*
X127010100Y-106793600D01*
X128915100Y-91394850D02*
X128915100Y-104888600D01*
X129232600Y-91077350D02*
X128915100Y-91394850D01*
X173060300Y-98868800D02*
X173060300Y-119427488D01*
X173060300Y-119427488D02*
X174193212Y-120560400D01*
X174193212Y-120560400D02*
X178445843Y-120560400D01*
X178445843Y-120560400D02*
X187017600Y-129132157D01*
X171460100Y-97268600D02*
X173060300Y-98868800D01*
X171460100Y-97268600D02*
X169237600Y-97268600D01*
X169237600Y-97268600D02*
X167332600Y-95363600D01*
X167332600Y-95363600D02*
X167332600Y-91394850D01*
X174355700Y-92544200D02*
X174355700Y-84530500D01*
X175905100Y-94093600D02*
X174355700Y-92544200D01*
X174355700Y-84530500D02*
X176222600Y-82663600D01*
X176222600Y-82663600D02*
X183207600Y-82663600D01*
X183207600Y-82663600D02*
X185271350Y-80599850D01*
X185271350Y-80599850D02*
X185271350Y-63137350D01*
X138757600Y-77583600D02*
X138757600Y-83616100D01*
X138757600Y-83616100D02*
X139075100Y-83933600D01*
X104467600Y-121398600D02*
X104626350Y-121557350D01*
X104467600Y-110762350D02*
X104467600Y-121398600D01*
X107325100Y-107904850D02*
X104467600Y-110762350D01*
X107325100Y-103459850D02*
X107325100Y-107904850D01*
X112246350Y-98538600D02*
X112166975Y-98617975D01*
X112166975Y-98617975D02*
X107325100Y-103459850D01*
X114627600Y-82504850D02*
X114627600Y-93458600D01*
X114627600Y-93458600D02*
X114627600Y-93617350D01*
X113090837Y-98157600D02*
X112627350Y-98157600D01*
X112627350Y-98157600D02*
X112246350Y-98538600D01*
X114627600Y-93617350D02*
X114627600Y-96620838D01*
X114627600Y-96620838D02*
X113090837Y-98157600D01*
X138772200Y-77583600D02*
X138772900Y-77584300D01*
X138757600Y-77583600D02*
X138772200Y-77583600D01*
X121295100Y-92823600D02*
X121295100Y-83933600D01*
X121295100Y-81711100D02*
X129867600Y-73138600D01*
X121295100Y-83933600D02*
X121295100Y-81711100D01*
X126375100Y-93934850D02*
X122406350Y-93934850D01*
X122406350Y-93934850D02*
X121295100Y-92823600D01*
X102562600Y-84886100D02*
X103515100Y-83933600D01*
X102562600Y-99173600D02*
X102562600Y-84886100D01*
X107325100Y-90759850D02*
X108753850Y-92188600D01*
X107325100Y-83139850D02*
X107325100Y-90759850D01*
X107325100Y-83139850D02*
X106531350Y-82346100D01*
X106531350Y-82346100D02*
X105102600Y-82346100D01*
X105102600Y-82346100D02*
X103515100Y-83933600D01*
X99705100Y-85203600D02*
X100975100Y-83933600D01*
X99705100Y-102348600D02*
X99705100Y-85203600D01*
X155585100Y-100126000D02*
X155585100Y-96633600D01*
X155585100Y-96633600D02*
X156220100Y-95998600D01*
X97800100Y-84568600D02*
X98435100Y-83933600D01*
X97800100Y-95204850D02*
X97800100Y-84568600D01*
X97482600Y-95522350D02*
X97800100Y-95204850D01*
X97482600Y-100443600D02*
X97482600Y-95522350D01*
X97800100Y-100761100D02*
X97482600Y-100443600D01*
X97800100Y-102824850D02*
X97800100Y-100761100D01*
X97482600Y-103142350D02*
X97800100Y-102824850D01*
X97482600Y-106793600D02*
X97482600Y-103142350D01*
X97800100Y-107111100D02*
X97482600Y-106793600D01*
X97800100Y-115842350D02*
X97800100Y-107111100D01*
X93990100Y-119652350D02*
X97800100Y-115842350D01*
X162887600Y-87426100D02*
X163840100Y-88378600D01*
X162887600Y-79171100D02*
X162887600Y-87426100D01*
X98435100Y-76631100D02*
X100022600Y-75043600D01*
X98435100Y-83933600D02*
X98435100Y-76631100D01*
X193192400Y-76313600D02*
X197495100Y-76313600D01*
X188605100Y-80900900D02*
X193192400Y-76313600D01*
X188605100Y-87584850D02*
X188605100Y-80900900D01*
X109388850Y-85679850D02*
X111135100Y-83933600D01*
X109388850Y-93934850D02*
X109388850Y-85679850D01*
X74463850Y-124097350D02*
X75575100Y-125208600D01*
X76210100Y-98538600D02*
X75930700Y-98818000D01*
X75930700Y-98818000D02*
X75164775Y-98818000D01*
X75164775Y-98818000D02*
X74463850Y-99518925D01*
X74463850Y-99518925D02*
X74463850Y-124097350D01*
X89862600Y-103301100D02*
X90815100Y-104253600D01*
X89862600Y-90124850D02*
X89862600Y-103301100D01*
X90180100Y-89807350D02*
X89862600Y-90124850D01*
X150505100Y-82663600D02*
X149235100Y-83933600D01*
X150505100Y-78853600D02*
X150505100Y-82663600D01*
X79861350Y-79171100D02*
X80496350Y-78536100D01*
X79861350Y-87902350D02*
X79861350Y-79171100D01*
X78115100Y-89648600D02*
X79861350Y-87902350D01*
X88275100Y-104253600D02*
X87322600Y-103301100D01*
X88592600Y-81552350D02*
X87322600Y-82822350D01*
X87322600Y-103301100D02*
X87322600Y-95046100D01*
X87322600Y-95046100D02*
X87957600Y-94411100D01*
X87957600Y-94411100D02*
X87957600Y-88061100D01*
X87322600Y-82822350D02*
X87322600Y-85838600D01*
X87322600Y-85838600D02*
X87957600Y-86473600D01*
X87957600Y-86473600D02*
X87957600Y-88061100D01*
X81131350Y-78218600D02*
X81131350Y-103618600D01*
X80813850Y-77901100D02*
X81131350Y-78218600D01*
X80245000Y-77929300D02*
X80785650Y-77929300D01*
X80785650Y-77929300D02*
X80813850Y-77901100D01*
X79556550Y-83127150D02*
X79556550Y-78617750D01*
X79556550Y-78617750D02*
X80245000Y-77929300D01*
X78115100Y-84568600D02*
X79556550Y-83127150D01*
X93355100Y-127589850D02*
X93355100Y-104253600D01*
X97482600Y-131717350D02*
X93355100Y-127589850D01*
X94307600Y-103301100D02*
X94307600Y-92664850D01*
X93355100Y-104253600D02*
X94307600Y-103301100D01*
X219209999Y-137930001D02*
X218360000Y-138780000D01*
X219438601Y-137701399D02*
X219209999Y-137930001D01*
X219438601Y-135970899D02*
X219438601Y-137701399D01*
X220248101Y-135161399D02*
X219438601Y-135970899D01*
X221034931Y-135161399D02*
X220248101Y-135161399D01*
X221978601Y-134217729D02*
X221034931Y-135161399D01*
X221978601Y-128102271D02*
X221978601Y-134217729D01*
X221335600Y-127459270D02*
X221978601Y-128102271D01*
X221335600Y-87299800D02*
X221335600Y-127459270D01*
X98117600Y-104571100D02*
X98435100Y-104253600D01*
X98117600Y-133146100D02*
X98117600Y-104571100D01*
X157172600Y-89331100D02*
X156220100Y-88378600D01*
X157172600Y-101872350D02*
X157172600Y-89331100D01*
X156855100Y-102189850D02*
X157172600Y-101872350D01*
X156855100Y-124573600D02*
X156855100Y-102189850D01*
X155267600Y-126161100D02*
X156855100Y-124573600D01*
X155267600Y-133146100D02*
X155267600Y-126161100D01*
X83671350Y-82981100D02*
X84306350Y-82346100D01*
X83671350Y-98538600D02*
X83671350Y-82981100D01*
X98435100Y-98856100D02*
X98117600Y-98538600D01*
X98435100Y-104253600D02*
X98435100Y-98856100D01*
X159289433Y-143826799D02*
X162724399Y-143826799D01*
X155267600Y-139804966D02*
X159289433Y-143826799D01*
X162724399Y-143826799D02*
X163626800Y-144729200D01*
X155267600Y-133146100D02*
X155267600Y-139804966D01*
X181725135Y-138572499D02*
X182307665Y-138572499D01*
X172047601Y-143826799D02*
X176470835Y-143826799D01*
X182307665Y-138572499D02*
X182905400Y-139170234D01*
X176470835Y-143826799D02*
X181725135Y-138572499D01*
X171157900Y-144716500D02*
X172047601Y-143826799D01*
X182905400Y-139170234D02*
X182905400Y-149288500D01*
X182905400Y-153206400D02*
X183629300Y-153930300D01*
X182905400Y-149288500D02*
X182905400Y-153206400D01*
X157807600Y-89331100D02*
X158760100Y-88378600D01*
X157807600Y-101872350D02*
X157807600Y-89331100D01*
X158125100Y-102189850D02*
X157807600Y-101872350D01*
X158125100Y-138067350D02*
X158125100Y-103301100D01*
X158125100Y-103301100D02*
X158125100Y-102189850D01*
X191171251Y-144932400D02*
X198196200Y-144932400D01*
X185318400Y-139079549D02*
X191171251Y-144932400D01*
X185318400Y-138341100D02*
X185318400Y-139079549D01*
X162252600Y-89331100D02*
X161300100Y-88378600D01*
X162252600Y-131717350D02*
X162252600Y-110286100D01*
X162252600Y-110286100D02*
X162252600Y-89331100D01*
X167808850Y-137273600D02*
X162252600Y-131717350D01*
X174635100Y-137273600D02*
X167808850Y-137273600D01*
X103832600Y-107111100D02*
X100975100Y-104253600D01*
X103832600Y-109968600D02*
X103832600Y-107111100D01*
X185115200Y-147574000D02*
X185115200Y-139516385D01*
X183464200Y-137865385D02*
X183464200Y-137299700D01*
X185115200Y-139516385D02*
X183464200Y-137865385D01*
X110658850Y-97109850D02*
X104626350Y-103142350D01*
X104626350Y-103142350D02*
X103515100Y-104253600D01*
X110658850Y-91553600D02*
X110658850Y-97109850D01*
X110182600Y-91077350D02*
X110658850Y-91553600D01*
X110182600Y-88696100D02*
X110182600Y-91077350D01*
X151140100Y-91712350D02*
X151457600Y-92029850D01*
X151140100Y-88378600D02*
X151140100Y-91712350D01*
X83353850Y-79806100D02*
X83671350Y-79488600D01*
X83353850Y-97903600D02*
X83353850Y-79806100D01*
X83036350Y-98221100D02*
X83353850Y-97903600D01*
X83036350Y-99173600D02*
X83036350Y-98221100D01*
X83671350Y-99808600D02*
X83036350Y-99173600D01*
X104626350Y-103142350D02*
X101610100Y-100126100D01*
X217281399Y-135161399D02*
X217266899Y-135161399D01*
X218360000Y-136240000D02*
X217281399Y-135161399D01*
X212153500Y-130048000D02*
X212153500Y-90398600D01*
X217266899Y-135161399D02*
X212153500Y-130048000D01*
X219438601Y-132621399D02*
X219209999Y-132850001D01*
X219209999Y-132850001D02*
X218360000Y-133700000D01*
X219438601Y-128102271D02*
X219438601Y-132621399D01*
X220484700Y-127056172D02*
X219438601Y-128102271D01*
X220484700Y-86575900D02*
X220484700Y-127056172D01*
X208493300Y-138543600D02*
X207020100Y-138543600D01*
X209880200Y-137156700D02*
X208493300Y-138543600D01*
X209880200Y-109677200D02*
X209880200Y-137156700D01*
X186065100Y-137908600D02*
X191780100Y-143623600D01*
X186065100Y-132193600D02*
X186065100Y-137908600D01*
X191780100Y-133463600D02*
X179842100Y-121525600D01*
X179080100Y-107746100D02*
X179080100Y-115239100D01*
X179080100Y-115239100D02*
X179842100Y-116001100D01*
X179842100Y-121525600D02*
X179842100Y-116001100D01*
X184160100Y-107746100D02*
X184160100Y-115493100D01*
X184160100Y-115493100D02*
X184668100Y-116001100D01*
X184668100Y-123811600D02*
X184668100Y-116001100D01*
X191780100Y-130923600D02*
X184668100Y-123811600D01*
X191780100Y-128383600D02*
X190033850Y-126637350D01*
X190033850Y-107269850D02*
X191780100Y-105523600D01*
X190033850Y-126637350D02*
X190033850Y-113143600D01*
X190033850Y-113143600D02*
X190033850Y-107269850D01*
X191780100Y-113143600D02*
X190033850Y-113143600D01*
X183525100Y-132193600D02*
X178445100Y-132193600D01*
X199241350Y-72027350D02*
X197495100Y-73773600D01*
X199241350Y-65359850D02*
X199241350Y-72027350D01*
X197495100Y-63613600D02*
X199241350Y-65359850D01*
X188128850Y-69487350D02*
X189875100Y-71233600D01*
X188128850Y-62819850D02*
X188128850Y-69487350D01*
X189875100Y-61073600D02*
X188128850Y-62819850D01*
X120025100Y-100443600D02*
X121295100Y-101713600D01*
X120025100Y-95998600D02*
X120025100Y-100443600D01*
X121295100Y-101713600D02*
X121422100Y-101713600D01*
X126375100Y-97268600D02*
X127645100Y-95998600D01*
X126375100Y-101713600D02*
X126375100Y-97268600D01*
X126375100Y-101713600D02*
X126248100Y-101713600D01*
X125105100Y-108698600D02*
X125105100Y-95998600D01*
X122723850Y-96157350D02*
X122565100Y-95998600D01*
X122723850Y-108539850D02*
X122723850Y-96157350D01*
X122565100Y-108698600D02*
X122723850Y-108539850D01*
X226276000Y-90728000D02*
X226276000Y-93510000D01*
X224599500Y-95186500D02*
X222478600Y-95186500D01*
X226276000Y-93510000D02*
X224599500Y-95186500D01*
X223736000Y-85648000D02*
X226276000Y-88188000D01*
X218656000Y-85648000D02*
X223736000Y-85648000D01*
X219739400Y-84564600D02*
X218656000Y-85648000D01*
X219739400Y-81931700D02*
X219739400Y-84564600D01*
X219739400Y-72001200D02*
X219739400Y-81931700D01*
X219739400Y-81931700D02*
X219739400Y-82071400D01*
X218363800Y-99263200D02*
X218363800Y-100761800D01*
X214122000Y-95021400D02*
X218363800Y-99263200D01*
X214122000Y-90182000D02*
X218656000Y-85648000D01*
X214122000Y-95021400D02*
X214122000Y-90182000D01*
X175905100Y-96633600D02*
X175905100Y-99173600D01*
X175905100Y-89013600D02*
X175905100Y-91553600D01*
X175905100Y-91553600D02*
X176222600Y-91553600D01*
X176222600Y-91553600D02*
X178127600Y-93458600D01*
X178127600Y-93458600D02*
X178127600Y-94411100D01*
X178127600Y-94411100D02*
X175905100Y-96633600D01*
X211465100Y-87108600D02*
X211465100Y-60692600D01*
X211518500Y-88176100D02*
X211465100Y-87108600D01*
X202730800Y-60692600D02*
X202892600Y-60692600D01*
X195431350Y-61073600D02*
X196383850Y-60121100D01*
X202159300Y-60121100D02*
X202730800Y-60692600D01*
X195431350Y-72821100D02*
X195431350Y-61073600D01*
X196383850Y-60121100D02*
X202159300Y-60121100D01*
X185430100Y-82822350D02*
X195431350Y-72821100D01*
X185430100Y-95363600D02*
X185430100Y-82822350D01*
X184160100Y-96633600D02*
X185430100Y-95363600D01*
X183525100Y-96633600D02*
X184160100Y-96633600D01*
X226276000Y-77856054D02*
X226276000Y-78790000D01*
X226276000Y-73102200D02*
X226276000Y-77856054D01*
X225175000Y-72001200D02*
X226276000Y-73102200D01*
X224260600Y-72001200D02*
X225175000Y-72001200D01*
X214005100Y-67184900D02*
X213830000Y-67360000D01*
X214005100Y-60692600D02*
X214005100Y-67184900D01*
X205432600Y-63792600D02*
X205432600Y-60692600D01*
X209000000Y-67360000D02*
X205432600Y-63792600D01*
X207020100Y-123303600D02*
X207429800Y-123303600D01*
X207429800Y-123303600D02*
X208711800Y-122021600D01*
X208711800Y-84295120D02*
X208737200Y-84269720D01*
X208737200Y-84269720D02*
X208737200Y-83065516D01*
X208711800Y-122021600D02*
X208711800Y-84295120D01*
X205778299Y-80106615D02*
X205778299Y-77228501D01*
X205778299Y-77228501D02*
X205854300Y-77152500D01*
X208737200Y-83065516D02*
X205778299Y-80106615D01*
X193253300Y-110603600D02*
X191780100Y-110603600D01*
X193253300Y-108063600D02*
X191780100Y-108063600D01*
X104943850Y-140131100D02*
X100657600Y-135844850D01*
X104943850Y-143782350D02*
X104943850Y-140131100D01*
X106055100Y-144893600D02*
X104943850Y-143782350D01*
X205546900Y-105523600D02*
X207020100Y-105523600D01*
X197345300Y-113725200D02*
X205546900Y-105523600D01*
X197345300Y-139115800D02*
X197345300Y-113725200D01*
X86370100Y-62978600D02*
X88275100Y-61073600D01*
X74305100Y-136479850D02*
X70018850Y-132193600D01*
X78908850Y-136479850D02*
X76845100Y-136479850D01*
X76845100Y-136479850D02*
X74305100Y-136479850D01*
X70018850Y-132193600D02*
X70018850Y-65359850D01*
X70018850Y-65359850D02*
X72400100Y-62978600D01*
X72400100Y-62978600D02*
X86370100Y-62978600D01*
X78908850Y-136479850D02*
X85893850Y-143464850D01*
X78115100Y-130288600D02*
X76845100Y-131558600D01*
X76845100Y-131558600D02*
X76845100Y-136479850D01*
X205546900Y-102983600D02*
X207020100Y-102983600D01*
X196570600Y-111959900D02*
X205546900Y-102983600D01*
X196570600Y-138404600D02*
X196570600Y-111959900D01*
X154950100Y-110286100D02*
X155585100Y-109651100D01*
X154950100Y-129494850D02*
X154950100Y-110286100D01*
X152886350Y-131558600D02*
X154950100Y-129494850D01*
X152886350Y-138702350D02*
X152886350Y-131558600D01*
X151775100Y-139813600D02*
X152886350Y-138702350D01*
X104785100Y-132669850D02*
X100022600Y-127907350D01*
X104785100Y-138543600D02*
X104785100Y-132669850D01*
X106055100Y-139813600D02*
X104785100Y-138543600D01*
X206359700Y-100443600D02*
X207020100Y-100443600D01*
X205546900Y-101916800D02*
X205546900Y-101256400D01*
X197875400Y-109588300D02*
X205546900Y-101916800D01*
X205546900Y-101256400D02*
X206359700Y-100443600D01*
X194983100Y-109588300D02*
X197875400Y-109588300D01*
X87163850Y-67264850D02*
X93355100Y-61073600D01*
X87163850Y-70598600D02*
X87163850Y-67264850D01*
X84623850Y-73138600D02*
X87163850Y-70598600D01*
X84623850Y-82504850D02*
X84623850Y-73138600D01*
X84306350Y-82822350D02*
X84623850Y-82504850D01*
X84306350Y-102348600D02*
X84306350Y-82822350D01*
X84623850Y-102666100D02*
X84306350Y-102348600D01*
X84623850Y-103777350D02*
X84623850Y-102666100D01*
X82401350Y-105999850D02*
X84623850Y-103777350D01*
X82401350Y-125684850D02*
X82401350Y-105999850D01*
X111928850Y-140607350D02*
X113675100Y-142353600D01*
X111928850Y-126002350D02*
X111928850Y-140607350D01*
X155902600Y-138861100D02*
X159395100Y-142353600D01*
X155902600Y-126478600D02*
X155902600Y-138861100D01*
X87481350Y-69487350D02*
X95895100Y-61073600D01*
X87481350Y-70757350D02*
X87481350Y-69487350D01*
X84941350Y-73297350D02*
X87481350Y-70757350D01*
X84941350Y-82663600D02*
X84941350Y-73297350D01*
X84623850Y-82981100D02*
X84941350Y-82663600D01*
X84623850Y-101078600D02*
X84623850Y-82981100D01*
X86687600Y-103142350D02*
X84623850Y-101078600D01*
X86687600Y-119493600D02*
X86687600Y-103142350D01*
X83036350Y-123144850D02*
X86687600Y-119493600D01*
X107325100Y-138543600D02*
X113675100Y-144893600D01*
X107325100Y-131876100D02*
X107325100Y-138543600D01*
X107325100Y-131876100D02*
X106372600Y-130923600D01*
X100657600Y-126319850D02*
X100657600Y-123144850D01*
X153838850Y-131558600D02*
X153838850Y-139337350D01*
X107325100Y-131876100D02*
X107801350Y-131399850D01*
X106372600Y-130923600D02*
X105261350Y-130923600D01*
X105261350Y-130923600D02*
X100657600Y-126319850D01*
X153838850Y-144796450D02*
X153936700Y-144894300D01*
X153838850Y-139337350D02*
X153838850Y-144796450D01*
X97165100Y-62343600D02*
X98435100Y-61073600D01*
X97165100Y-87743600D02*
X97165100Y-62343600D01*
X95577600Y-89331100D02*
X97165100Y-87743600D01*
X79543850Y-91394850D02*
X80496350Y-90442350D01*
X79543850Y-120128600D02*
X79543850Y-91394850D01*
X137646350Y-147433600D02*
X139075100Y-148862350D01*
X137646350Y-146957350D02*
X137646350Y-147433600D01*
X137646350Y-146957350D02*
X137011350Y-146322350D01*
X137011350Y-146322350D02*
X131613850Y-146322350D01*
X131613850Y-146322350D02*
X130978850Y-146957350D01*
X79543850Y-120128600D02*
X79543850Y-136162350D01*
X79543850Y-136162350D02*
X88910100Y-145528600D01*
X78115100Y-120128600D02*
X79543850Y-120128600D01*
X102245100Y-62343600D02*
X100975100Y-61073600D01*
X102245100Y-98538600D02*
X102245100Y-62343600D01*
X100340100Y-100443600D02*
X102245100Y-98538600D01*
X100340100Y-102824850D02*
X100340100Y-100443600D01*
X99705100Y-103459850D02*
X100340100Y-102824850D01*
X99705100Y-116794850D02*
X99705100Y-103459850D01*
X105587484Y-148544850D02*
X106213850Y-148544850D01*
X99326901Y-142284267D02*
X105587484Y-148544850D01*
X99326901Y-117173049D02*
X99326901Y-142284267D01*
X106213850Y-148544850D02*
X107483850Y-149814850D01*
X99705100Y-116794850D02*
X99326901Y-117173049D01*
X171840400Y-152768300D02*
X148805900Y-152768300D01*
X174635100Y-149973600D02*
X171840400Y-152768300D01*
X100657600Y-82187350D02*
X99387600Y-83457350D01*
X99387600Y-101713600D02*
X99387600Y-83457350D01*
X99070100Y-102031100D02*
X99387600Y-101713600D01*
X99070100Y-102824850D02*
X99070100Y-102031100D01*
X99387600Y-103142350D02*
X99070100Y-102824850D01*
X99387600Y-113937350D02*
X99387600Y-103142350D01*
X98752600Y-114572350D02*
X99387600Y-113937350D01*
X127327600Y-145846100D02*
X128915100Y-147433600D01*
X127327600Y-115207350D02*
X127327600Y-145846100D01*
X127962600Y-114572350D02*
X127327600Y-115207350D01*
X127962600Y-114254850D02*
X127962600Y-114572350D01*
X99705100Y-66153600D02*
X100657600Y-67106100D01*
X100657600Y-67106100D02*
X100657600Y-82187350D01*
X101343337Y-59524200D02*
X100606862Y-59524200D01*
X103515100Y-61073600D02*
X102892737Y-61073600D01*
X102892737Y-61073600D02*
X101343337Y-59524200D01*
X100606862Y-59524200D02*
X99705100Y-60425963D01*
X99705100Y-60425963D02*
X99705100Y-66153600D01*
X166017406Y-148862350D02*
X167446156Y-147433600D01*
X167446156Y-147433600D02*
X174635100Y-147433600D01*
X131772600Y-148386100D02*
X132725100Y-149338600D01*
X132725100Y-149338600D02*
X132725100Y-151719850D01*
X134125651Y-153120401D02*
X145579599Y-153120401D01*
X132725100Y-151719850D02*
X134125651Y-153120401D01*
X128915100Y-147433600D02*
X129867600Y-148386100D01*
X129867600Y-148386100D02*
X131772600Y-148386100D01*
X152185500Y-148856700D02*
X149796500Y-148856700D01*
X152191150Y-148862350D02*
X152185500Y-148856700D01*
X149796500Y-148856700D02*
X149837650Y-148862350D01*
X166017406Y-148862350D02*
X152191150Y-148862350D01*
X145579599Y-153120401D02*
X149796500Y-148856700D01*
X106055100Y-61073600D02*
X104150100Y-59168600D01*
X92085100Y-68693600D02*
X92085100Y-109809850D01*
X90180100Y-111714850D02*
X92085100Y-109809850D01*
X127645100Y-143623600D02*
X128915100Y-144893600D01*
X127645100Y-115524850D02*
X127645100Y-143623600D01*
X128597600Y-114572350D02*
X127645100Y-115524850D01*
X128597600Y-112984850D02*
X128597600Y-114572350D01*
X143361350Y-146004850D02*
X136058850Y-146004850D01*
X143361350Y-146004850D02*
X143996350Y-145369850D01*
X134947600Y-144893600D02*
X128915100Y-144893600D01*
X136058850Y-146004850D02*
X134947600Y-144893600D01*
X96860300Y-60730763D02*
X96860300Y-63918400D01*
X98422462Y-59168600D02*
X96860300Y-60730763D01*
X104150100Y-59168600D02*
X98422462Y-59168600D01*
X96860300Y-63918400D02*
X92085100Y-68693600D01*
X130661350Y-144099850D02*
X128915100Y-142353600D01*
X131137600Y-140131100D02*
X128915100Y-142353600D01*
X131137600Y-114254850D02*
X131137600Y-140131100D01*
X94942600Y-110603600D02*
X97165100Y-112826100D01*
X94942600Y-109016100D02*
X94942600Y-110603600D01*
X94942600Y-109016100D02*
X94983300Y-66713100D01*
X130343850Y-138384850D02*
X128915100Y-139813600D01*
X97165100Y-107428600D02*
X97165100Y-100761100D01*
X130502600Y-138226100D02*
X130343850Y-138384850D01*
X130502600Y-99173600D02*
X130502600Y-138226100D01*
X97165100Y-100761100D02*
X96847600Y-100761100D01*
X97482600Y-73238300D02*
X97469910Y-73225610D01*
X97482600Y-95046100D02*
X97482600Y-73238300D01*
X97165100Y-95363600D02*
X97482600Y-95046100D01*
X97165100Y-100761100D02*
X97165100Y-95363600D01*
X97482600Y-67532200D02*
X97793700Y-67221100D01*
X97482600Y-73238300D02*
X97482600Y-67532200D01*
X92402600Y-90283600D02*
X93990100Y-88696100D01*
X92402600Y-140766100D02*
X92402600Y-90283600D01*
X90815100Y-142353600D02*
X92402600Y-140766100D01*
X205470690Y-118299810D02*
X205470690Y-132166290D01*
X205546900Y-118223600D02*
X205470690Y-118299810D01*
X207020100Y-118223600D02*
X205546900Y-118223600D01*
X205470690Y-136018435D02*
X205470690Y-132166290D01*
X205105000Y-136384125D02*
X205470690Y-136018435D01*
X205105000Y-136949810D02*
X205105000Y-136384125D01*
X138122600Y-94252350D02*
X138122600Y-82504850D01*
X138122600Y-94252350D02*
X138440100Y-94569850D01*
X136535100Y-144893600D02*
X136665650Y-144763050D01*
X138440100Y-142988600D02*
X136665650Y-144763050D01*
X138440100Y-94569850D02*
X138440100Y-142988600D01*
X205546900Y-115683600D02*
X207020100Y-115683600D01*
X204842090Y-116388410D02*
X205546900Y-115683600D01*
X204842090Y-131419678D02*
X204842090Y-116388410D01*
X146882050Y-144763050D02*
X136665650Y-144763050D01*
X150619400Y-148500400D02*
X146882050Y-144763050D01*
X165859400Y-148500400D02*
X150619400Y-148500400D01*
X168354950Y-146004850D02*
X165859400Y-148500400D01*
X175111350Y-146004850D02*
X168354950Y-146004850D01*
X181937600Y-139178600D02*
X175111350Y-146004850D01*
X182016400Y-139179300D02*
X181937600Y-139178600D01*
X89545100Y-85203600D02*
X90815100Y-83933600D01*
X89545100Y-146163600D02*
X89545100Y-85203600D01*
X90815100Y-147433600D02*
X89545100Y-146163600D01*
X135265100Y-152037350D02*
X134788850Y-152513600D01*
X135265100Y-148703600D02*
X135265100Y-152037350D01*
X136535100Y-147433600D02*
X135265100Y-148703600D01*
X200114000Y-141528000D02*
X201892000Y-139750000D01*
X205546900Y-113143600D02*
X207020100Y-113143600D01*
X201892000Y-116798500D02*
X205546900Y-113143600D01*
X201892000Y-139750000D02*
X201892000Y-116798500D01*
X88964534Y-147433600D02*
X90815100Y-147433600D01*
X81979534Y-140448600D02*
X88964534Y-147433600D01*
X78115100Y-140448600D02*
X81979534Y-140448600D01*
X89227600Y-84886100D02*
X88275100Y-83933600D01*
X89227600Y-129971100D02*
X89227600Y-84886100D01*
X81766350Y-137432350D02*
X89227600Y-129971100D01*
X77003850Y-139019850D02*
X77003850Y-140766100D01*
X78115100Y-137908600D02*
X77003850Y-139019850D01*
X92561350Y-149973600D02*
X106055100Y-149973600D01*
X206702600Y-110286100D02*
X207020100Y-110603600D01*
X205546900Y-110603600D02*
X207020100Y-110603600D01*
X199352000Y-116798500D02*
X205546900Y-110603600D01*
X199352000Y-148894000D02*
X199352000Y-116798500D01*
X81906751Y-145669001D02*
X81978501Y-145669001D01*
X77003850Y-140766100D02*
X81906751Y-145669001D01*
X81978501Y-145669001D02*
X82905600Y-146596100D01*
X91494549Y-148906799D02*
X92561350Y-149973600D01*
X90006667Y-148906799D02*
X91494549Y-148906799D01*
X87695968Y-146596100D02*
X90006667Y-148906799D01*
X82905600Y-146596100D02*
X87695968Y-146596100D01*
X199352000Y-153263700D02*
X199390000Y-153301700D01*
X199352000Y-148894000D02*
X199352000Y-153263700D01*
X81766350Y-86314850D02*
X82401350Y-85679850D01*
X81766350Y-135368600D02*
X81766350Y-86314850D01*
X104626350Y-141242350D02*
X100022600Y-136638600D01*
X104626350Y-146004850D02*
X104626350Y-141242350D01*
X106055100Y-147433600D02*
X104626350Y-146004850D01*
X205546900Y-108063600D02*
X207020100Y-108063600D01*
X198723400Y-114887100D02*
X205546900Y-108063600D01*
X198723400Y-121805700D02*
X198723400Y-114887100D01*
X164592701Y-146366799D02*
X152841901Y-146366799D01*
X152841901Y-146366799D02*
X152613299Y-146595401D01*
X152613299Y-146595401D02*
X151775100Y-147433600D01*
X165255201Y-137500099D02*
X165255201Y-145704299D01*
X165255201Y-145704299D02*
X164592701Y-146366799D01*
X165633400Y-137121900D02*
X165255201Y-137500099D01*
X87005100Y-126954850D02*
X87005100Y-75519850D01*
X165586350Y-64724850D02*
X161935100Y-61073600D01*
X165586350Y-125208600D02*
X165586350Y-64724850D01*
X73511350Y-79012350D02*
X75575100Y-76948600D01*
X73511350Y-96474850D02*
X73511350Y-79012350D01*
X72876350Y-97109850D02*
X73511350Y-96474850D01*
X72876350Y-120128600D02*
X72876350Y-97109850D01*
X155267600Y-65201100D02*
X159395100Y-61073600D01*
X155267600Y-98221100D02*
X155267600Y-65201100D01*
X154950100Y-98538600D02*
X155267600Y-98221100D01*
X154950100Y-108063600D02*
X154950100Y-98538600D01*
X156220100Y-109333600D02*
X154950100Y-108063600D01*
X156220100Y-122986100D02*
X156220100Y-109333600D01*
X74463850Y-80599850D02*
X75575100Y-79488600D01*
X74463850Y-80599850D02*
X74463850Y-87426100D01*
X160665100Y-63137350D02*
X160982600Y-62819850D01*
X160665100Y-86949850D02*
X160665100Y-63137350D01*
X160347600Y-87267350D02*
X160665100Y-86949850D01*
X160347600Y-99808600D02*
X160347600Y-87267350D01*
X161458850Y-100919850D02*
X160347600Y-99808600D01*
X161458850Y-121239850D02*
X161458850Y-100919850D01*
X76816900Y-98538600D02*
X76816900Y-121744300D01*
X76816900Y-121744300D02*
X76686350Y-121874850D01*
X74463850Y-87426100D02*
X75695750Y-88658000D01*
X75695750Y-88658000D02*
X75985425Y-88658000D01*
X75985425Y-88658000D02*
X76565700Y-89238275D01*
X76565700Y-96354200D02*
X76845100Y-96633600D01*
X76845100Y-96633600D02*
X76845100Y-98510400D01*
X76845100Y-98510400D02*
X76816900Y-98538600D01*
X76565700Y-89238275D02*
X76565700Y-96354200D01*
X152727600Y-59486100D02*
X154315100Y-61073600D01*
X151298850Y-59486100D02*
X152727600Y-59486100D01*
X150822600Y-59962350D02*
X151298850Y-59486100D01*
X150822600Y-66312350D02*
X150822600Y-59962350D01*
X151616350Y-67106100D02*
X150822600Y-66312350D01*
X151616350Y-82028600D02*
X151616350Y-79647350D01*
X151616350Y-79647350D02*
X151616350Y-67106100D01*
X150822600Y-82822350D02*
X151616350Y-82028600D01*
X150822600Y-85997350D02*
X150822600Y-82822350D01*
X152410100Y-87584850D02*
X150822600Y-85997350D01*
X152410100Y-110762350D02*
X152410100Y-87584850D01*
X153045100Y-111397350D02*
X152410100Y-110762350D01*
X153045100Y-123303600D02*
X153045100Y-111397350D01*
X151775100Y-124573600D02*
X153045100Y-123303600D01*
X153362600Y-62661100D02*
X151775100Y-61073600D01*
X153362600Y-85997350D02*
X153362600Y-80282350D01*
X153362600Y-80282350D02*
X153362600Y-62661100D01*
X154632600Y-87267350D02*
X153362600Y-85997350D01*
X154632600Y-124256100D02*
X154632600Y-87267350D01*
X151775100Y-127113600D02*
X154632600Y-124256100D01*
X76686350Y-85997350D02*
X75575100Y-87108600D01*
X76686350Y-69328600D02*
X76686350Y-85997350D01*
X78115100Y-67899850D02*
X76686350Y-69328600D01*
X86846350Y-67899850D02*
X78115100Y-67899850D01*
X86846350Y-67106100D02*
X86846350Y-67899850D01*
X92402600Y-61549850D02*
X86846350Y-67106100D01*
X92402600Y-59962350D02*
X92402600Y-61549850D01*
X94069475Y-58295475D02*
X92402600Y-59962350D01*
X94069475Y-58295475D02*
X123642168Y-58295475D01*
X123642168Y-58295475D02*
X123708843Y-58228800D01*
X123708843Y-58228800D02*
X147342800Y-58228800D01*
X149235100Y-60121100D02*
X149235100Y-61073600D01*
X147342800Y-58228800D02*
X149235100Y-60121100D01*
X151127400Y-59181300D02*
X164500437Y-59181300D01*
X149235100Y-61073600D02*
X151127400Y-59181300D01*
X164500437Y-59181300D02*
X166062600Y-60743463D01*
X166062600Y-124826700D02*
X166193150Y-124957250D01*
X167332600Y-134733600D02*
X174635100Y-134733600D01*
X166062600Y-60743463D02*
X166062600Y-124826700D01*
X166193150Y-133594150D02*
X167332600Y-134733600D01*
X166193150Y-124957250D02*
X166193150Y-133594150D01*
X73828850Y-91394850D02*
X75575100Y-89648600D01*
X73828850Y-96633600D02*
X73828850Y-91394850D01*
X73511350Y-96951100D02*
X73828850Y-96633600D01*
X73511350Y-111873600D02*
X73511350Y-96951100D01*
X108277600Y-114254850D02*
X108595100Y-113937350D01*
X108277600Y-127431100D02*
X108277600Y-114254850D01*
X106055100Y-129653600D02*
X108277600Y-127431100D01*
X140027600Y-87267350D02*
X140027600Y-77901100D01*
X139868850Y-87426100D02*
X140027600Y-87267350D01*
X139868850Y-120128600D02*
X139868850Y-87426100D01*
X149393850Y-129653600D02*
X139868850Y-120128600D01*
X142739050Y-75189650D02*
X142739050Y-60572013D01*
X142739050Y-60572013D02*
X143786862Y-59524200D01*
X140027600Y-77901100D02*
X142739050Y-75189650D01*
X145145700Y-59524200D02*
X146695100Y-61073600D01*
X143786862Y-59524200D02*
X145145700Y-59524200D01*
X74463850Y-93299850D02*
X75575100Y-92188600D01*
X74463850Y-95998600D02*
X74463850Y-93299850D01*
X143043850Y-62184850D02*
X144155100Y-61073600D01*
X143043850Y-86791100D02*
X143043850Y-62184850D01*
X142091350Y-87743600D02*
X143043850Y-86791100D01*
X142091350Y-96951100D02*
X142091350Y-87743600D01*
X141615100Y-97427350D02*
X142091350Y-96951100D01*
X141615100Y-112349850D02*
X141615100Y-97427350D01*
X141297600Y-112667350D02*
X141615100Y-112349850D01*
X141297600Y-117588600D02*
X141297600Y-112667350D01*
X166697600Y-115207350D02*
X166697600Y-63454850D01*
X173523850Y-122033600D02*
X166697600Y-115207350D01*
X174635100Y-122033600D02*
X173523850Y-122033600D01*
X140503850Y-75837350D02*
X140345100Y-75996100D01*
X140503850Y-62184850D02*
X140503850Y-75837350D01*
X141615100Y-61073600D02*
X140503850Y-62184850D01*
X133995100Y-114413600D02*
X133995100Y-107587350D01*
X136535100Y-116953600D02*
X133995100Y-114413600D01*
X133106100Y-62102238D02*
X133121975Y-62118113D01*
X134125650Y-94503700D02*
X133995100Y-94634250D01*
X134125650Y-87072150D02*
X134125650Y-94503700D01*
X133106100Y-86052600D02*
X134125650Y-87072150D01*
X133106100Y-60044963D02*
X133106100Y-86052600D01*
X137525700Y-59524200D02*
X133626862Y-59524200D01*
X133626862Y-59524200D02*
X133106100Y-60044963D01*
X133995100Y-94634250D02*
X133995100Y-107587350D01*
X139075100Y-61073600D02*
X137525700Y-59524200D01*
X150505100Y-105047350D02*
X147806350Y-102348600D01*
X150505100Y-113143600D02*
X150505100Y-105047350D01*
X151775100Y-114413600D02*
X150505100Y-113143600D01*
X174000100Y-74249850D02*
X167332600Y-67582350D01*
X174000100Y-110762350D02*
X174000100Y-74249850D01*
X173365100Y-111397350D02*
X174000100Y-110762350D01*
X173365100Y-113143600D02*
X173365100Y-111397350D01*
X174635100Y-114413600D02*
X173365100Y-113143600D01*
X134947600Y-62026100D02*
X133995100Y-61073600D01*
X134947600Y-85997350D02*
X134947600Y-62026100D01*
X137646350Y-110921100D02*
X137170100Y-110444850D01*
X137646350Y-113302350D02*
X137646350Y-110921100D01*
X136535100Y-114413600D02*
X137646350Y-113302350D01*
X86052600Y-108698600D02*
X83353850Y-105999850D01*
X86052600Y-115683600D02*
X86052600Y-108698600D01*
X137170100Y-104150100D02*
X137160000Y-104140000D01*
X134947600Y-85997350D02*
X136154110Y-87203860D01*
X136154110Y-101080132D02*
X137160000Y-102086022D01*
X136154110Y-87203860D02*
X136154110Y-101080132D01*
X137160000Y-102086022D02*
X137160000Y-107895148D01*
X137160000Y-107895148D02*
X137160000Y-110490000D01*
X162570100Y-96792350D02*
X164157600Y-98379850D01*
X162570100Y-84568600D02*
X162570100Y-96792350D01*
X161935100Y-83933600D02*
X162570100Y-84568600D01*
X161935100Y-74408600D02*
X161300100Y-73773600D01*
X161935100Y-83933600D02*
X161935100Y-74408600D01*
X164157600Y-132669850D02*
X164316350Y-132828600D01*
X164157600Y-98379850D02*
X164157600Y-132669850D01*
X70336350Y-69487350D02*
X75575100Y-64248600D01*
X70336350Y-131558600D02*
X70336350Y-69487350D01*
X74146350Y-135368600D02*
X70336350Y-131558600D01*
X191906357Y-95668409D02*
X191780100Y-95668409D01*
X160030100Y-84568600D02*
X159395100Y-83933600D01*
X160030100Y-100380000D02*
X160030100Y-84568600D01*
X160823850Y-135844850D02*
X159395100Y-137273600D01*
X160030100Y-109968600D02*
X160823850Y-110762350D01*
X160823850Y-110762350D02*
X160823850Y-135844850D01*
X160030100Y-100380000D02*
X160030100Y-109968600D01*
X193253300Y-95363600D02*
X191780100Y-95363600D01*
X194322810Y-94294090D02*
X193253300Y-95363600D01*
X191392330Y-83108000D02*
X194322810Y-86038480D01*
X194322810Y-86038480D02*
X194322810Y-94294090D01*
X189700000Y-83108000D02*
X191392330Y-83108000D01*
X157490100Y-84568600D02*
X156855100Y-83933600D01*
X157490100Y-105364850D02*
X157490100Y-138384850D01*
X157490100Y-105364850D02*
X157490100Y-84568600D01*
X158918850Y-139813600D02*
X157490100Y-138384850D01*
X159395100Y-139813600D02*
X158918850Y-139813600D01*
X80178850Y-138543600D02*
X80178850Y-138702350D01*
X69714050Y-132339650D02*
X69701350Y-132352350D01*
X78419900Y-136784650D02*
X80178850Y-138543600D01*
X69701350Y-132352350D02*
X74133650Y-136784650D01*
X74133650Y-136784650D02*
X78419900Y-136784650D01*
X191478000Y-84124000D02*
X194018000Y-86664000D01*
X193253300Y-92823600D02*
X191780100Y-92823600D01*
X194018000Y-92058900D02*
X193253300Y-92823600D01*
X194018000Y-86664000D02*
X194018000Y-92058900D01*
X69701350Y-65246284D02*
X72514434Y-62433200D01*
X69701350Y-132352350D02*
X69701350Y-65246284D01*
X72514434Y-62433200D02*
X73266300Y-62433200D01*
X73990900Y-61708600D02*
X75575100Y-61708600D01*
X73266300Y-62433200D02*
X73990900Y-61708600D01*
X152727600Y-95046100D02*
X153680100Y-95998600D01*
X152727600Y-72503600D02*
X152727600Y-95046100D01*
X107642600Y-112984850D02*
X105102600Y-115524850D01*
X107642600Y-112984850D02*
X107642600Y-107269850D01*
X115262600Y-62026100D02*
X116215100Y-61073600D01*
X115262600Y-96646363D02*
X115262600Y-62026100D01*
X114514043Y-97394919D02*
X115262600Y-96646363D01*
X114514043Y-100398407D02*
X114514043Y-97394919D01*
X107642600Y-107269850D02*
X114514043Y-100398407D01*
X117643850Y-92347350D02*
X117961350Y-92664850D01*
X117643850Y-78694850D02*
X117643850Y-92347350D01*
X118755100Y-77583600D02*
X117643850Y-78694850D01*
X118755100Y-61073600D02*
X118755100Y-77583600D01*
X103197600Y-113143600D02*
X100340100Y-116001100D01*
X103197600Y-108698600D02*
X103197600Y-113143600D01*
X117961350Y-98379850D02*
X108912600Y-107428600D01*
X117961350Y-92664850D02*
X117961350Y-98379850D01*
X148600100Y-90442350D02*
X148600100Y-95998600D01*
X147012600Y-88854850D02*
X148600100Y-90442350D01*
X147012600Y-86314850D02*
X147012600Y-88854850D01*
X145742600Y-85044850D02*
X147012600Y-86314850D01*
X145742600Y-79171100D02*
X145742600Y-85044850D01*
X147647600Y-77266100D02*
X145742600Y-79171100D01*
X147647600Y-62661100D02*
X147647600Y-77266100D01*
X147965100Y-62343600D02*
X147647600Y-62661100D01*
X147965100Y-62343600D02*
X147965100Y-59803600D01*
X118596350Y-86156100D02*
X118596350Y-104253600D01*
X118596350Y-104253600D02*
X118596350Y-104412350D01*
X120342600Y-84409850D02*
X118596350Y-86156100D01*
X120342600Y-62026100D02*
X120342600Y-84409850D01*
X121295100Y-61073600D02*
X120342600Y-62026100D01*
X146695100Y-58533600D02*
X147965100Y-59803600D01*
X121295100Y-61073600D02*
X123835100Y-58533600D01*
X123835100Y-58533600D02*
X146695100Y-58533600D01*
X118596350Y-104412350D02*
X118596350Y-111397350D01*
X118596350Y-111397350D02*
X116532600Y-113461100D01*
X116532600Y-113461100D02*
X109865100Y-113461100D01*
X109865100Y-113461100D02*
X109706350Y-113302350D01*
X145107600Y-95046100D02*
X146060100Y-95998600D01*
X145107600Y-69804850D02*
X145107600Y-95046100D01*
X147330100Y-67582350D02*
X145107600Y-69804850D01*
X147330100Y-62502350D02*
X147330100Y-67582350D01*
X147647600Y-62184850D02*
X147330100Y-62502350D01*
X147647600Y-62184850D02*
X147647600Y-59962350D01*
X144948850Y-111873600D02*
X143837600Y-112984850D01*
X143837600Y-112984850D02*
X141932600Y-112984850D01*
X144948850Y-97109850D02*
X144948850Y-111873600D01*
X146060100Y-95998600D02*
X144948850Y-97109850D01*
X128610300Y-58838400D02*
X126375100Y-61073600D01*
X146523650Y-58838400D02*
X128610300Y-58838400D01*
X147647600Y-59962350D02*
X146523650Y-58838400D01*
X130502600Y-62661100D02*
X128915100Y-61073600D01*
X130502600Y-86632350D02*
X130502600Y-62661100D01*
X131613850Y-87743600D02*
X130502600Y-86632350D01*
X131613850Y-92347350D02*
X131613850Y-87743600D01*
X133518850Y-94252350D02*
X131613850Y-92347350D01*
X136535100Y-109968600D02*
X135900100Y-109333600D01*
X135900100Y-109333600D02*
X134947600Y-109333600D01*
X136535100Y-111873600D02*
X136535100Y-109968600D01*
X142240000Y-111841850D02*
X142240000Y-106680000D01*
X143520100Y-105399900D02*
X143520100Y-95998600D01*
X142240000Y-106680000D02*
X143520100Y-105399900D01*
X140662600Y-96316100D02*
X140980100Y-95998600D01*
X140662600Y-116477350D02*
X140662600Y-110127350D01*
X140662600Y-110127350D02*
X140662600Y-96316100D01*
X137805100Y-94887350D02*
X137487600Y-94569850D01*
X139138537Y-59219400D02*
X133309300Y-59219400D01*
X140027600Y-60108463D02*
X139138537Y-59219400D01*
X140027600Y-73456100D02*
X140027600Y-60108463D01*
X133309300Y-59219400D02*
X131455100Y-61073600D01*
X137487600Y-75996100D02*
X140027600Y-73456100D01*
X137487600Y-94569850D02*
X137487600Y-75996100D01*
X73193850Y-74249850D02*
X75575100Y-71868600D01*
X73193850Y-95681100D02*
X73193850Y-74249850D01*
X72241350Y-96633600D02*
X73193850Y-95681100D01*
X72241350Y-120446100D02*
X72241350Y-96633600D01*
X73828850Y-122033600D02*
X72241350Y-120446100D01*
X73828850Y-127431100D02*
X73828850Y-122033600D01*
X158442600Y-85997350D02*
X158442600Y-82822350D01*
X159712600Y-87267350D02*
X158442600Y-85997350D01*
X159712600Y-99808600D02*
X159712600Y-87267350D01*
X159395100Y-100126100D02*
X159712600Y-99808600D01*
X159395100Y-109809850D02*
X159395100Y-100126100D01*
X160506350Y-110921100D02*
X159395100Y-109809850D01*
X160506350Y-128542350D02*
X160506350Y-110921100D01*
X159395100Y-129653600D02*
X160506350Y-128542350D01*
X160360300Y-80904650D02*
X160360300Y-60730763D01*
X160360300Y-60730763D02*
X161566862Y-59524200D01*
X158442600Y-82822350D02*
X160360300Y-80904650D01*
X162925700Y-59524200D02*
X164475100Y-61073600D01*
X161566862Y-59524200D02*
X162925700Y-59524200D01*
X189729050Y-113607150D02*
X188446350Y-114889850D01*
X190306900Y-102983600D02*
X191780100Y-102983600D01*
X189729050Y-103561450D02*
X190306900Y-102983600D01*
X189729050Y-113607150D02*
X189729050Y-103561450D01*
X71606350Y-73297350D02*
X75575100Y-69328600D01*
X71606350Y-127748600D02*
X71606350Y-73297350D01*
X164951350Y-84409850D02*
X164475100Y-83933600D01*
X164951350Y-130288600D02*
X164951350Y-84409850D01*
X183525100Y-99173600D02*
X183525100Y-101713600D01*
X181778850Y-97427350D02*
X181778850Y-92506100D01*
X181778850Y-92506100D02*
X181778850Y-92347350D01*
X183525100Y-99173600D02*
X181778850Y-97427350D01*
X175905100Y-86473600D02*
X180667600Y-86473600D01*
X181778850Y-87584850D02*
X181778850Y-92347350D01*
X180667600Y-86473600D02*
X181778850Y-87584850D01*
X175905100Y-118223600D02*
X174635100Y-119493600D01*
X93355100Y-91077350D02*
X93355100Y-96633600D01*
X72241350Y-132034850D02*
X75575100Y-135368600D01*
X72241350Y-120922350D02*
X72241350Y-132034850D01*
X71923850Y-120604850D02*
X72241350Y-120922350D01*
X71923850Y-90918600D02*
X71923850Y-120604850D01*
X72558850Y-90283600D02*
X71923850Y-90918600D01*
X146218850Y-113937350D02*
X151775100Y-119493600D01*
X146218850Y-99173600D02*
X146218850Y-113937350D01*
X107007600Y-97586100D02*
X107960100Y-98538600D01*
X107007600Y-84886100D02*
X107007600Y-97586100D01*
X106055100Y-83933600D02*
X107007600Y-84886100D01*
X175905100Y-108513794D02*
X177930093Y-106488800D01*
X175905100Y-108513794D02*
X175905100Y-118223600D01*
X188592400Y-106488800D02*
X189424250Y-105656950D01*
X189424250Y-92639450D02*
X191780100Y-90283600D01*
X177930093Y-106488800D02*
X188592400Y-106488800D01*
X189424250Y-105656950D02*
X189424250Y-92639450D01*
X105578850Y-94569850D02*
X103515100Y-96633600D01*
X105578850Y-92029850D02*
X105578850Y-94569850D01*
X146060100Y-89172350D02*
X147965100Y-91077350D01*
X146060100Y-88378600D02*
X146060100Y-89172350D01*
X204597000Y-96953700D02*
X204597000Y-91198700D01*
X205546900Y-97903600D02*
X204597000Y-96953700D01*
X207020100Y-97903600D02*
X205546900Y-97903600D01*
X195748850Y-62819850D02*
X195748850Y-72979850D01*
X197495100Y-61073600D02*
X195748850Y-62819850D01*
X186223850Y-82504850D02*
X186223850Y-92982350D01*
X195748850Y-72979850D02*
X186223850Y-82504850D01*
X111452600Y-97903600D02*
X106055100Y-103301100D01*
X106055100Y-103301100D02*
X106055100Y-104253600D01*
X96847600Y-95681100D02*
X95895100Y-96633600D01*
X96847600Y-93299850D02*
X96847600Y-95681100D01*
X147012600Y-94569850D02*
X145742600Y-93299850D01*
X145266350Y-101713600D02*
X145266350Y-124573600D01*
X150663850Y-129971100D02*
X145266350Y-124573600D01*
X150663850Y-131082350D02*
X150663850Y-129971100D01*
X151775100Y-132193600D02*
X150663850Y-131082350D01*
X146428337Y-97548000D02*
X145926750Y-97548000D01*
X145926750Y-97548000D02*
X145253650Y-98221100D01*
X147012600Y-96963738D02*
X146428337Y-97548000D01*
X147012600Y-94569850D02*
X147012600Y-96963738D01*
X145253650Y-98221100D02*
X145253650Y-101700900D01*
X145253650Y-101700900D02*
X145266350Y-101713600D01*
X136535100Y-83933600D02*
X136217600Y-83616100D01*
X136535100Y-68958400D02*
X136525000Y-68948300D01*
X136535100Y-83933600D02*
X136535100Y-68958400D01*
X78457300Y-68986400D02*
X78115100Y-69328600D01*
X83896200Y-68986400D02*
X78457300Y-68986400D01*
X137182790Y-95163106D02*
X137182790Y-86715600D01*
X137513835Y-95494151D02*
X137182790Y-95163106D01*
X136535100Y-86067910D02*
X136535100Y-83933600D01*
X137620051Y-95494151D02*
X137513835Y-95494151D01*
X137811500Y-95685600D02*
X137620051Y-95494151D01*
X137182790Y-86715600D02*
X136535100Y-86067910D01*
X137811500Y-106680000D02*
X137811500Y-95685600D01*
X133995100Y-69592200D02*
X134010400Y-69576900D01*
X133995100Y-83933600D02*
X133995100Y-69592200D01*
X77810291Y-71994857D02*
X77899567Y-72084133D01*
X77988843Y-71563791D02*
X77810291Y-71742343D01*
X80251123Y-69732577D02*
X78115100Y-71868600D01*
X84488052Y-69732577D02*
X80251123Y-69732577D01*
X131455100Y-70228300D02*
X131432300Y-70205500D01*
X131455100Y-83933600D02*
X131455100Y-70228300D01*
X82117674Y-70406026D02*
X85161503Y-70406026D01*
X78115100Y-74408600D02*
X82117674Y-70406026D01*
X135252410Y-85871094D02*
X136512300Y-87130984D01*
X135252410Y-78786390D02*
X135252410Y-85871094D01*
X135813800Y-78225000D02*
X135252410Y-78786390D01*
X136512300Y-87130984D02*
X136512300Y-99999800D01*
X136512300Y-100192800D02*
X137182900Y-100863400D01*
X136512300Y-99999800D02*
X136512300Y-100192800D01*
X210515200Y-128581100D02*
X210508800Y-128587500D01*
X210515200Y-103955900D02*
X210515200Y-128581100D01*
X213296500Y-126096500D02*
X218360000Y-131160000D01*
X213296500Y-110921800D02*
X213296500Y-126096500D01*
M02*
