G04 EAGLE Gerber RS-274X export*
G75*
%MOMM*%
%FSLAX34Y34*%
%LPD*%
%INTop Copper*%
%IPPOS*%
%AMOC8*
5,1,8,0,0,1.08239X$1,22.5*%
G01*
%ADD10P,1.732040X8X22.500000*%
%ADD11C,1.600200*%
%ADD12P,1.732040X8X112.500000*%
%ADD13P,1.732040X8X292.500000*%
%ADD14C,1.320800*%
%ADD15C,1.320800*%
%ADD16C,1.524000*%
%ADD17P,1.649562X8X292.500000*%
%ADD18P,1.429621X8X22.500000*%
%ADD19P,1.429621X8X202.500000*%
%ADD20P,1.429621X8X112.500000*%
%ADD21P,1.429621X8X292.500000*%
%ADD22R,1.676400X1.676400*%
%ADD23C,1.676400*%
%ADD24C,0.152400*%
%ADD25C,0.756400*%
%ADD26C,0.254000*%


D10*
X1130300Y755650D03*
X1155700Y755650D03*
X1162050Y473075D03*
X1187450Y473075D03*
X1111250Y473075D03*
X1136650Y473075D03*
X1073150Y755650D03*
X1098550Y755650D03*
X1339850Y723900D03*
X1365250Y723900D03*
X1257300Y723900D03*
X1282700Y723900D03*
X1549400Y714375D03*
D11*
X1524000Y714375D03*
D10*
X1035050Y666750D03*
D11*
X1009650Y666750D03*
D10*
X184150Y31750D03*
D11*
X158750Y31750D03*
D12*
X1028700Y866775D03*
X1028700Y892175D03*
D10*
X1333500Y815975D03*
X1358900Y815975D03*
X647700Y482600D03*
X673100Y482600D03*
X546100Y463550D03*
X571500Y463550D03*
X647700Y533400D03*
X673100Y533400D03*
X1498600Y622300D03*
X1524000Y622300D03*
X1549400Y412750D03*
D11*
X1524000Y412750D03*
D10*
X1549400Y622300D03*
X1574800Y622300D03*
X1038225Y949325D03*
D11*
X1012825Y949325D03*
D10*
X1482725Y177800D03*
D11*
X1457325Y177800D03*
D13*
X1473200Y39370D03*
D11*
X1473200Y74930D03*
D12*
X1028700Y784225D03*
X1028700Y809625D03*
D10*
X1549400Y177800D03*
D11*
X1524000Y177800D03*
D10*
X406400Y38100D03*
X431800Y38100D03*
X635000Y38100D03*
X660400Y38100D03*
X863600Y38100D03*
X889000Y38100D03*
X1092200Y38100D03*
X1117600Y38100D03*
D14*
X520700Y583946D02*
X520700Y597154D01*
X546100Y597154D02*
X546100Y583946D01*
X673100Y583946D02*
X673100Y597154D01*
X673100Y660146D02*
X673100Y673354D01*
X571500Y597154D02*
X571500Y583946D01*
X596900Y583946D02*
X596900Y597154D01*
X647700Y597154D02*
X647700Y583946D01*
X622300Y583946D02*
X622300Y597154D01*
X647700Y660146D02*
X647700Y673354D01*
X622300Y673354D02*
X622300Y660146D01*
X596900Y660146D02*
X596900Y673354D01*
X571500Y673354D02*
X571500Y660146D01*
X546100Y660146D02*
X546100Y673354D01*
X520700Y673354D02*
X520700Y660146D01*
D15*
X1495425Y558800D03*
X1495425Y533400D03*
X1571625Y533400D03*
X1571625Y558800D03*
X1495425Y508000D03*
X1495425Y482600D03*
X1571625Y508000D03*
X1571625Y482600D03*
D14*
X1086104Y685800D02*
X1072896Y685800D01*
X1072896Y660400D02*
X1086104Y660400D01*
X1086104Y533400D02*
X1072896Y533400D01*
X1149096Y533400D02*
X1162304Y533400D01*
X1086104Y635000D02*
X1072896Y635000D01*
X1072896Y609600D02*
X1086104Y609600D01*
X1086104Y558800D02*
X1072896Y558800D01*
X1072896Y584200D02*
X1086104Y584200D01*
X1149096Y558800D02*
X1162304Y558800D01*
X1162304Y584200D02*
X1149096Y584200D01*
X1149096Y609600D02*
X1162304Y609600D01*
X1162304Y635000D02*
X1149096Y635000D01*
X1149096Y660400D02*
X1162304Y660400D01*
X1162304Y685800D02*
X1149096Y685800D01*
X177800Y704596D02*
X177800Y717804D01*
X203200Y717804D02*
X203200Y704596D01*
X228600Y704596D02*
X228600Y717804D01*
X254000Y717804D02*
X254000Y704596D01*
X279400Y704596D02*
X279400Y717804D01*
X304800Y717804D02*
X304800Y704596D01*
X330200Y704596D02*
X330200Y717804D01*
X355600Y717804D02*
X355600Y704596D01*
X381000Y704596D02*
X381000Y717804D01*
X406400Y717804D02*
X406400Y704596D01*
X431800Y704596D02*
X431800Y717804D01*
X457200Y717804D02*
X457200Y704596D01*
X482600Y704596D02*
X482600Y717804D01*
X508000Y717804D02*
X508000Y704596D01*
X533400Y704596D02*
X533400Y717804D01*
X558800Y717804D02*
X558800Y704596D01*
X584200Y704596D02*
X584200Y717804D01*
X609600Y717804D02*
X609600Y704596D01*
X635000Y704596D02*
X635000Y717804D01*
X965200Y717804D02*
X965200Y704596D01*
X965200Y933196D02*
X965200Y946404D01*
X635000Y946404D02*
X635000Y933196D01*
X609600Y933196D02*
X609600Y946404D01*
X584200Y946404D02*
X584200Y933196D01*
X558800Y933196D02*
X558800Y946404D01*
X533400Y946404D02*
X533400Y933196D01*
X508000Y933196D02*
X508000Y946404D01*
X482600Y946404D02*
X482600Y933196D01*
X457200Y933196D02*
X457200Y946404D01*
X431800Y946404D02*
X431800Y933196D01*
X406400Y933196D02*
X406400Y946404D01*
X381000Y946404D02*
X381000Y933196D01*
X355600Y933196D02*
X355600Y946404D01*
X330200Y946404D02*
X330200Y933196D01*
X304800Y933196D02*
X304800Y946404D01*
X279400Y946404D02*
X279400Y933196D01*
X254000Y933196D02*
X254000Y946404D01*
X228600Y946404D02*
X228600Y933196D01*
X203200Y933196D02*
X203200Y946404D01*
X177800Y946404D02*
X177800Y933196D01*
X660400Y717804D02*
X660400Y704596D01*
X685800Y704596D02*
X685800Y717804D01*
X711200Y717804D02*
X711200Y704596D01*
X736600Y704596D02*
X736600Y717804D01*
X762000Y717804D02*
X762000Y704596D01*
X787400Y704596D02*
X787400Y717804D01*
X812800Y717804D02*
X812800Y704596D01*
X838200Y704596D02*
X838200Y717804D01*
X863600Y717804D02*
X863600Y704596D01*
X889000Y704596D02*
X889000Y717804D01*
X914400Y717804D02*
X914400Y704596D01*
X939800Y704596D02*
X939800Y717804D01*
X660400Y933196D02*
X660400Y946404D01*
X685800Y946404D02*
X685800Y933196D01*
X711200Y933196D02*
X711200Y946404D01*
X736600Y946404D02*
X736600Y933196D01*
X762000Y933196D02*
X762000Y946404D01*
X787400Y946404D02*
X787400Y933196D01*
X812800Y933196D02*
X812800Y946404D01*
X838200Y946404D02*
X838200Y933196D01*
X863600Y933196D02*
X863600Y946404D01*
X889000Y946404D02*
X889000Y933196D01*
X914400Y933196D02*
X914400Y946404D01*
X939800Y946404D02*
X939800Y933196D01*
X730250Y597154D02*
X730250Y583946D01*
X755650Y583946D02*
X755650Y597154D01*
X781050Y597154D02*
X781050Y583946D01*
X806450Y583946D02*
X806450Y597154D01*
X831850Y597154D02*
X831850Y583946D01*
X857250Y583946D02*
X857250Y597154D01*
X882650Y597154D02*
X882650Y583946D01*
X908050Y583946D02*
X908050Y597154D01*
X933450Y597154D02*
X933450Y583946D01*
X958850Y583946D02*
X958850Y597154D01*
X958850Y660146D02*
X958850Y673354D01*
X933450Y673354D02*
X933450Y660146D01*
X908050Y660146D02*
X908050Y673354D01*
X882650Y673354D02*
X882650Y660146D01*
X857250Y660146D02*
X857250Y673354D01*
X831850Y673354D02*
X831850Y660146D01*
X806450Y660146D02*
X806450Y673354D01*
X781050Y673354D02*
X781050Y660146D01*
X755650Y660146D02*
X755650Y673354D01*
X730250Y673354D02*
X730250Y660146D01*
X1072896Y965200D02*
X1086104Y965200D01*
X1086104Y939800D02*
X1072896Y939800D01*
X1072896Y812800D02*
X1086104Y812800D01*
X1149096Y812800D02*
X1162304Y812800D01*
X1086104Y914400D02*
X1072896Y914400D01*
X1072896Y889000D02*
X1086104Y889000D01*
X1086104Y838200D02*
X1072896Y838200D01*
X1072896Y863600D02*
X1086104Y863600D01*
X1149096Y838200D02*
X1162304Y838200D01*
X1162304Y863600D02*
X1149096Y863600D01*
X1149096Y889000D02*
X1162304Y889000D01*
X1162304Y914400D02*
X1149096Y914400D01*
X1149096Y939800D02*
X1162304Y939800D01*
X1162304Y965200D02*
X1149096Y965200D01*
X1231646Y647700D02*
X1244854Y647700D01*
X1244854Y622300D02*
X1231646Y622300D01*
X1231646Y596900D02*
X1244854Y596900D01*
X1244854Y571500D02*
X1231646Y571500D01*
X1231646Y546100D02*
X1244854Y546100D01*
X1244854Y520700D02*
X1231646Y520700D01*
X1231646Y495300D02*
X1244854Y495300D01*
X1244854Y469900D02*
X1231646Y469900D01*
X1231646Y444500D02*
X1244854Y444500D01*
X1244854Y419100D02*
X1231646Y419100D01*
X1231646Y393700D02*
X1244854Y393700D01*
X1244854Y368300D02*
X1231646Y368300D01*
X1231646Y342900D02*
X1244854Y342900D01*
X1244854Y317500D02*
X1231646Y317500D01*
X1231646Y292100D02*
X1244854Y292100D01*
X1244854Y266700D02*
X1231646Y266700D01*
X1231646Y241300D02*
X1244854Y241300D01*
X1244854Y215900D02*
X1231646Y215900D01*
X1231646Y190500D02*
X1244854Y190500D01*
X1244854Y165100D02*
X1231646Y165100D01*
X1231646Y139700D02*
X1244854Y139700D01*
X1244854Y114300D02*
X1231646Y114300D01*
X1231646Y88900D02*
X1244854Y88900D01*
X1244854Y63500D02*
X1231646Y63500D01*
X1384046Y63500D02*
X1397254Y63500D01*
X1397254Y88900D02*
X1384046Y88900D01*
X1384046Y114300D02*
X1397254Y114300D01*
X1397254Y139700D02*
X1384046Y139700D01*
X1384046Y165100D02*
X1397254Y165100D01*
X1397254Y190500D02*
X1384046Y190500D01*
X1384046Y215900D02*
X1397254Y215900D01*
X1397254Y241300D02*
X1384046Y241300D01*
X1384046Y266700D02*
X1397254Y266700D01*
X1397254Y292100D02*
X1384046Y292100D01*
X1384046Y317500D02*
X1397254Y317500D01*
X1397254Y342900D02*
X1384046Y342900D01*
X1384046Y368300D02*
X1397254Y368300D01*
X1397254Y393700D02*
X1384046Y393700D01*
X1384046Y419100D02*
X1397254Y419100D01*
X1397254Y444500D02*
X1384046Y444500D01*
X1384046Y469900D02*
X1397254Y469900D01*
X1397254Y495300D02*
X1384046Y495300D01*
X1384046Y520700D02*
X1397254Y520700D01*
X1397254Y546100D02*
X1384046Y546100D01*
X1384046Y571500D02*
X1397254Y571500D01*
X1397254Y596900D02*
X1384046Y596900D01*
X1384046Y622300D02*
X1397254Y622300D01*
X1397254Y647700D02*
X1384046Y647700D01*
X1225804Y965200D02*
X1212596Y965200D01*
X1212596Y939800D02*
X1225804Y939800D01*
X1225804Y812800D02*
X1212596Y812800D01*
X1212596Y787400D02*
X1225804Y787400D01*
X1225804Y914400D02*
X1212596Y914400D01*
X1212596Y889000D02*
X1225804Y889000D01*
X1225804Y838200D02*
X1212596Y838200D01*
X1212596Y863600D02*
X1225804Y863600D01*
X1288796Y787400D02*
X1302004Y787400D01*
X1302004Y812800D02*
X1288796Y812800D01*
X1288796Y838200D02*
X1302004Y838200D01*
X1302004Y863600D02*
X1288796Y863600D01*
X1288796Y889000D02*
X1302004Y889000D01*
X1302004Y914400D02*
X1288796Y914400D01*
X1288796Y939800D02*
X1302004Y939800D01*
X1302004Y965200D02*
X1288796Y965200D01*
D16*
X38100Y58420D02*
X38100Y43180D01*
X63500Y43180D02*
X63500Y58420D01*
X88900Y58420D02*
X88900Y43180D01*
X114300Y43180D02*
X114300Y58420D01*
X1554480Y63500D02*
X1569720Y63500D01*
X1569720Y38100D02*
X1554480Y38100D01*
D17*
X76200Y933450D03*
X101600Y933450D03*
X76200Y908050D03*
X101600Y908050D03*
X76200Y882650D03*
X101600Y882650D03*
X76200Y857250D03*
X101600Y857250D03*
X76200Y831850D03*
X101600Y831850D03*
X76200Y806450D03*
X101600Y806450D03*
X76200Y781050D03*
X101600Y781050D03*
X76200Y755650D03*
X101600Y755650D03*
X76200Y730250D03*
X101600Y730250D03*
X76200Y704850D03*
X101600Y704850D03*
X76200Y679450D03*
X101600Y679450D03*
X76200Y654050D03*
X101600Y654050D03*
X76200Y628650D03*
X101600Y628650D03*
X76200Y603250D03*
X101600Y603250D03*
X76200Y577850D03*
X101600Y577850D03*
X76200Y552450D03*
X101600Y552450D03*
X76200Y527050D03*
X101600Y527050D03*
X76200Y501650D03*
X101600Y501650D03*
X76200Y476250D03*
X101600Y476250D03*
X76200Y450850D03*
X101600Y450850D03*
X76200Y425450D03*
X101600Y425450D03*
X76200Y400050D03*
X101600Y400050D03*
X76200Y374650D03*
X101600Y374650D03*
X76200Y349250D03*
X101600Y349250D03*
X76200Y323850D03*
X101600Y323850D03*
X76200Y298450D03*
X101600Y298450D03*
X76200Y273050D03*
X101600Y273050D03*
X76200Y247650D03*
X101600Y247650D03*
X76200Y222250D03*
X101600Y222250D03*
X76200Y196850D03*
X101600Y196850D03*
X76200Y171450D03*
X101600Y171450D03*
X76200Y146050D03*
X101600Y146050D03*
D18*
X1155700Y228600D03*
X1181100Y228600D03*
X1158875Y88900D03*
X1184275Y88900D03*
X1435100Y920750D03*
X1460500Y920750D03*
D19*
X1374775Y920750D03*
X1349375Y920750D03*
D15*
X1167130Y390525D03*
X1118870Y390525D03*
X534670Y533400D03*
X582930Y533400D03*
D20*
X682625Y774700D03*
X682625Y876300D03*
X444500Y774700D03*
X444500Y876300D03*
X479425Y476250D03*
X479425Y577850D03*
X708025Y774700D03*
X708025Y876300D03*
X1463675Y381000D03*
X1463675Y482600D03*
X1568450Y774700D03*
X1568450Y876300D03*
X1473200Y749300D03*
X1473200Y850900D03*
D21*
X1397000Y850900D03*
X1397000Y749300D03*
D20*
X1200150Y533400D03*
X1200150Y635000D03*
D21*
X1035050Y577850D03*
X1035050Y476250D03*
D20*
X1104900Y228600D03*
X1104900Y330200D03*
X1104900Y101600D03*
X1104900Y203200D03*
X736600Y774700D03*
X736600Y876300D03*
D21*
X447675Y577850D03*
X447675Y476250D03*
D20*
X762000Y774700D03*
X762000Y876300D03*
X812800Y774700D03*
X812800Y876300D03*
X495300Y774700D03*
X495300Y876300D03*
D16*
X1526794Y899668D02*
X1526794Y914908D01*
X1572006Y914908D02*
X1572006Y899668D01*
X1526794Y964692D02*
X1526794Y979932D01*
X1572006Y979932D02*
X1572006Y964692D01*
D22*
X228600Y381000D03*
D23*
X228600Y355600D03*
X228600Y330200D03*
X228600Y304800D03*
X228600Y279400D03*
X228600Y254000D03*
X228600Y228600D03*
X228600Y203200D03*
X228600Y177800D03*
X228600Y152400D03*
X228600Y127000D03*
X228600Y101600D03*
X228600Y76200D03*
X228600Y50800D03*
X381000Y50800D03*
X381000Y76200D03*
X381000Y101600D03*
X381000Y127000D03*
X381000Y152400D03*
X381000Y177800D03*
X381000Y203200D03*
X381000Y228600D03*
X381000Y254000D03*
X381000Y279400D03*
X381000Y304800D03*
X381000Y330200D03*
X381000Y355600D03*
X381000Y381000D03*
D22*
X457200Y381000D03*
D23*
X457200Y355600D03*
X457200Y330200D03*
X457200Y304800D03*
X457200Y279400D03*
X457200Y254000D03*
X457200Y228600D03*
X457200Y203200D03*
X457200Y177800D03*
X457200Y152400D03*
X457200Y127000D03*
X457200Y101600D03*
X457200Y76200D03*
X457200Y50800D03*
X609600Y50800D03*
X609600Y76200D03*
X609600Y101600D03*
X609600Y127000D03*
X609600Y152400D03*
X609600Y177800D03*
X609600Y203200D03*
X609600Y228600D03*
X609600Y254000D03*
X609600Y279400D03*
X609600Y304800D03*
X609600Y330200D03*
X609600Y355600D03*
X609600Y381000D03*
D22*
X685800Y431800D03*
D23*
X685800Y406400D03*
X685800Y381000D03*
X685800Y355600D03*
X685800Y330200D03*
X685800Y304800D03*
X685800Y279400D03*
X685800Y254000D03*
X685800Y228600D03*
X685800Y203200D03*
X685800Y177800D03*
X685800Y152400D03*
X685800Y127000D03*
X685800Y101600D03*
X685800Y76200D03*
X685800Y50800D03*
X838200Y50800D03*
X838200Y76200D03*
X838200Y101600D03*
X838200Y127000D03*
X838200Y152400D03*
X838200Y177800D03*
X838200Y203200D03*
X838200Y228600D03*
X838200Y254000D03*
X838200Y279400D03*
X838200Y304800D03*
X838200Y330200D03*
X838200Y355600D03*
X838200Y381000D03*
X838200Y406400D03*
X838200Y431800D03*
D22*
X914400Y431800D03*
D23*
X914400Y406400D03*
X914400Y381000D03*
X914400Y355600D03*
X914400Y330200D03*
X914400Y304800D03*
X914400Y279400D03*
X914400Y254000D03*
X914400Y228600D03*
X914400Y203200D03*
X914400Y177800D03*
X914400Y152400D03*
X914400Y127000D03*
X914400Y101600D03*
X914400Y76200D03*
X914400Y50800D03*
X1066800Y50800D03*
X1066800Y76200D03*
X1066800Y101600D03*
X1066800Y127000D03*
X1066800Y152400D03*
X1066800Y177800D03*
X1066800Y203200D03*
X1066800Y228600D03*
X1066800Y254000D03*
X1066800Y279400D03*
X1066800Y304800D03*
X1066800Y330200D03*
X1066800Y355600D03*
X1066800Y381000D03*
X1066800Y406400D03*
X1066800Y431800D03*
D14*
X177800Y501396D02*
X177800Y514604D01*
X203200Y514604D02*
X203200Y501396D01*
X228600Y501396D02*
X228600Y514604D01*
X254000Y514604D02*
X254000Y501396D01*
X279400Y501396D02*
X279400Y514604D01*
X304800Y514604D02*
X304800Y501396D01*
X330200Y501396D02*
X330200Y514604D01*
X355600Y514604D02*
X355600Y501396D01*
X381000Y501396D02*
X381000Y514604D01*
X406400Y514604D02*
X406400Y501396D01*
X406400Y577596D02*
X406400Y590804D01*
X381000Y590804D02*
X381000Y577596D01*
X355600Y577596D02*
X355600Y590804D01*
X330200Y590804D02*
X330200Y577596D01*
X304800Y577596D02*
X304800Y590804D01*
X279400Y590804D02*
X279400Y577596D01*
X254000Y577596D02*
X254000Y590804D01*
X228600Y590804D02*
X228600Y577596D01*
X203200Y577596D02*
X203200Y590804D01*
X177800Y590804D02*
X177800Y577596D01*
D12*
X330200Y444500D03*
X330200Y469900D03*
D13*
X450850Y641350D03*
X450850Y615950D03*
D24*
X623888Y166688D02*
X609600Y152400D01*
X295275Y814388D02*
X314325Y833438D01*
X295275Y814388D02*
X295275Y600075D01*
X292100Y596900D01*
X292100Y542925D02*
X292100Y476250D01*
X292100Y542925D02*
X292100Y596900D01*
X625475Y168275D02*
X623888Y166688D01*
X625475Y168275D02*
X625475Y558800D01*
X292100Y542925D02*
X288925Y542925D01*
D25*
X623888Y166688D03*
X314325Y833438D03*
X292100Y476250D03*
X625475Y558800D03*
X288925Y542925D03*
D24*
X609600Y127000D02*
X627063Y109538D01*
X269875Y460375D02*
X269875Y858838D01*
X631825Y149225D02*
X609600Y127000D01*
X631825Y149225D02*
X631825Y407988D01*
X292100Y422275D02*
X269875Y444500D01*
X269875Y460375D01*
D25*
X627063Y109538D03*
X269875Y858838D03*
X269875Y460375D03*
X631825Y407988D03*
X292100Y422275D03*
D24*
X381000Y939800D02*
X361950Y958850D01*
X241300Y863600D02*
X241300Y452438D01*
X222250Y433388D01*
X596900Y114300D02*
X609600Y101600D01*
X596900Y114300D02*
X596900Y395288D01*
X606425Y404813D01*
X606425Y420688D01*
D25*
X760413Y96838D03*
X222250Y433388D03*
X606425Y420688D03*
D24*
X681038Y90488D02*
X754063Y90488D01*
X760413Y96838D01*
X669925Y101600D02*
X609600Y101600D01*
X669925Y101600D02*
X681038Y90488D01*
X289052Y911352D02*
X289052Y943228D01*
X304674Y958850D01*
X361950Y958850D01*
X289052Y911352D02*
X241300Y863600D01*
X647700Y33338D02*
X661988Y19050D01*
X827088Y19050D01*
X827088Y55563D01*
X314325Y715963D02*
X327025Y728663D01*
X314325Y715963D02*
X314325Y533400D01*
X311150Y530225D01*
X311150Y522288D01*
X314325Y519113D01*
X314325Y411163D01*
X307975Y404813D01*
X593725Y92075D02*
X609600Y76200D01*
X593725Y92075D02*
X593725Y398463D01*
X600075Y404813D01*
X600075Y407988D01*
D25*
X307975Y404813D03*
X600075Y407988D03*
D24*
X994911Y76200D02*
X1066800Y76200D01*
X647700Y57150D02*
X647700Y33338D01*
X647700Y57150D02*
X638175Y66675D01*
X619125Y66675D02*
X609600Y76200D01*
X619125Y66675D02*
X638175Y66675D01*
X327025Y879475D02*
X317500Y889000D01*
X327025Y879475D02*
X327025Y728663D01*
X326518Y955294D02*
X333882Y955294D01*
X349376Y939800D02*
X355600Y939800D01*
X349376Y939800D02*
X333882Y955294D01*
X326518Y955294D02*
X317500Y946276D01*
X317500Y889000D01*
X994911Y76200D02*
X980623Y61913D01*
X909560Y62484D02*
X908989Y61913D01*
X909560Y62484D02*
X919240Y62484D01*
X919811Y61913D01*
X980623Y61913D01*
X908989Y61913D02*
X835025Y61913D01*
X833438Y61913D02*
X827088Y55563D01*
X833438Y61913D02*
X835025Y61913D01*
X342900Y927100D02*
X330200Y939800D01*
X342900Y927100D02*
X342900Y565150D01*
X323850Y546100D01*
X323850Y522288D01*
X317500Y515938D01*
X317500Y382588D01*
X382588Y65088D02*
X395288Y52388D01*
X382588Y65088D02*
X314325Y65088D01*
X314325Y379413D01*
X317500Y382588D01*
D25*
X317500Y382588D03*
X395288Y52388D03*
D24*
X292100Y927100D02*
X304800Y939800D01*
X292100Y927100D02*
X292100Y673100D01*
X276225Y657225D01*
X125413Y646113D02*
X115888Y636588D01*
X115888Y349250D01*
X696913Y76200D02*
X711200Y61913D01*
X696913Y76200D02*
X696913Y80963D01*
X690563Y87313D01*
D25*
X276225Y657225D03*
X125413Y646113D03*
X209550Y95250D03*
X711200Y61913D03*
X630238Y80963D03*
D24*
X636588Y87313D02*
X690563Y87313D01*
X636588Y87313D02*
X630238Y80963D01*
X115888Y188913D02*
X115888Y349250D01*
X115888Y188913D02*
X209550Y95250D01*
X115888Y349250D02*
X101600Y349250D01*
X195263Y855663D02*
X279400Y939800D01*
X195263Y855663D02*
X195263Y842963D01*
X169863Y817563D01*
X169863Y723900D01*
X166688Y720725D01*
X166688Y539750D01*
X187325Y519113D01*
X187325Y355600D01*
X150813Y319088D01*
X393700Y165100D02*
X457200Y101600D01*
X393700Y165100D02*
X393700Y231775D01*
X384175Y241300D01*
X327025Y287338D02*
X327025Y319088D01*
X858838Y157163D02*
X914400Y101600D01*
X858838Y157163D02*
X858838Y234950D01*
X398463Y236538D02*
X393700Y231775D01*
D25*
X150813Y319088D03*
X327025Y319088D03*
X858838Y234950D03*
X398463Y236538D03*
D24*
X384175Y241300D02*
X373063Y241300D01*
X327025Y287338D01*
X192088Y877888D02*
X254000Y939800D01*
X192088Y877888D02*
X192088Y844550D01*
X166688Y819150D01*
X166688Y725488D01*
X163513Y722313D01*
X163513Y527050D01*
X166688Y523875D01*
X166688Y512763D01*
X144463Y490538D01*
X144463Y293688D01*
X439738Y144463D02*
X457200Y127000D01*
X439738Y144463D02*
X439738Y290513D01*
X879475Y161925D02*
X914400Y127000D01*
X879475Y161925D02*
X879475Y285750D01*
D25*
X144463Y293688D03*
X439738Y290513D03*
X879475Y285750D03*
D24*
X869950Y447675D02*
X876300Y454025D01*
X869950Y447675D02*
X869950Y255588D01*
X849313Y234950D01*
X849313Y163513D01*
X838200Y152400D01*
X368300Y223838D02*
X320675Y271463D01*
X368300Y223838D02*
X368300Y165100D01*
X381000Y152400D01*
D25*
X876300Y454025D03*
X320675Y271463D03*
D24*
X184150Y920750D02*
X203200Y939800D01*
X20638Y228600D02*
X63500Y185738D01*
X88900Y185738D02*
X109538Y185738D01*
X88900Y185738D02*
X63500Y185738D01*
D25*
X1265238Y168275D03*
X179388Y115888D03*
D24*
X20638Y228600D02*
X20638Y896938D01*
X44450Y920750D01*
X184150Y920750D01*
X109538Y185738D02*
X179388Y115888D01*
X88900Y234950D02*
X101600Y247650D01*
X88900Y234950D02*
X88900Y185738D01*
X1282700Y520700D02*
X1390650Y520700D01*
X1265238Y503238D02*
X1265238Y168275D01*
X1265238Y503238D02*
X1282700Y520700D01*
X369888Y149225D02*
X327025Y192088D01*
X369888Y149225D02*
X369888Y112713D01*
X381000Y101600D01*
D25*
X1271588Y149225D03*
X327025Y192088D03*
D24*
X1289050Y495300D02*
X1390650Y495300D01*
X1271588Y477838D02*
X1271588Y149225D01*
X1271588Y477838D02*
X1289050Y495300D01*
X144463Y693738D02*
X138113Y687388D01*
X138113Y196850D01*
X320675Y184150D02*
X366713Y138113D01*
X366713Y90488D01*
X381000Y76200D01*
D25*
X144463Y693738D03*
X138113Y196850D03*
X1001713Y169863D03*
X320675Y184150D03*
D24*
X838200Y76200D02*
X850900Y88900D01*
X990600Y88900D02*
X1000125Y98425D01*
X1000125Y168275D01*
X1001713Y169863D01*
X990600Y88900D02*
X850900Y88900D01*
X212725Y701675D02*
X203200Y711200D01*
X212725Y701675D02*
X212725Y250825D01*
X138113Y176213D01*
X232569Y64294D02*
X246063Y50800D01*
X90488Y142875D02*
X90488Y160338D01*
X101600Y171450D01*
X1277938Y69850D02*
X1277938Y330200D01*
X1277938Y331788D01*
X1277938Y69850D02*
X1233488Y25400D01*
D25*
X138113Y176213D03*
D24*
X246063Y50800D02*
X381000Y50800D01*
X838200Y50800D02*
X838200Y38100D01*
X850900Y25400D01*
X1233488Y25400D01*
X232569Y64294D02*
X169069Y64294D01*
X90488Y142875D01*
X1277938Y331788D02*
X1277938Y433388D01*
X1292225Y447675D01*
X1387475Y447675D01*
X1390650Y444500D01*
X228600Y711200D02*
X215900Y698500D01*
X215900Y88900D01*
X228600Y76200D01*
X158750Y88900D02*
X101600Y146050D01*
X158750Y88900D02*
X215900Y88900D01*
X668338Y25400D02*
X673100Y30163D01*
X673100Y63500D01*
X685800Y76200D01*
D25*
X668338Y25400D03*
X1285875Y139700D03*
D24*
X1285875Y409575D01*
X1295400Y419100D01*
X1390650Y419100D01*
X1165225Y158750D02*
X1139825Y158750D01*
X1071563Y90488D01*
X701675Y608013D02*
X701675Y725488D01*
X701675Y608013D02*
X704850Y604838D01*
D25*
X1165225Y158750D03*
X701675Y725488D03*
D24*
X1003999Y90488D02*
X1071563Y90488D01*
X687106Y102906D02*
X685800Y101600D01*
X826643Y65532D02*
X979043Y65532D01*
X1003999Y90488D01*
X789270Y102906D02*
X687106Y102906D01*
X789270Y102906D02*
X826643Y65532D01*
X704850Y120650D02*
X687106Y102906D01*
X704850Y120650D02*
X704850Y604838D01*
X260350Y663575D02*
X244475Y647700D01*
X244475Y142875D01*
X228600Y127000D01*
D25*
X260350Y663575D03*
D24*
X847725Y600075D02*
X857250Y590550D01*
X847725Y600075D02*
X847725Y825500D01*
X396875Y420688D02*
X371475Y395288D01*
X396875Y420688D02*
X396875Y477838D01*
X473075Y930275D02*
X482600Y939800D01*
D25*
X847725Y825500D03*
X371475Y395288D03*
D24*
X473075Y584072D02*
X473075Y930275D01*
X473075Y584072D02*
X465589Y576587D01*
X465589Y546552D01*
X396875Y477838D01*
X500063Y623888D02*
X496888Y627063D01*
X496888Y763588D01*
X508000Y774700D01*
X508000Y939800D01*
X352425Y419100D02*
X323850Y390525D01*
X352425Y419100D02*
X352425Y463550D01*
X409575Y476250D02*
X500063Y566738D01*
X500063Y623888D01*
D25*
X500063Y623888D03*
X323850Y390525D03*
X352425Y463550D03*
X409575Y476250D03*
D24*
X806450Y590550D02*
X806450Y646113D01*
X790575Y661988D01*
X790575Y687388D01*
X777875Y700088D01*
X777875Y758825D01*
X796925Y777875D01*
X796925Y923925D01*
X800100Y927100D01*
X800100Y952500D01*
X506413Y688975D02*
X506413Y508000D01*
X506413Y506413D01*
X506413Y688975D02*
X523875Y706438D01*
X523875Y930275D01*
X533400Y939800D01*
D25*
X417513Y417513D03*
D24*
X800100Y952500D02*
X787400Y965200D01*
X558800Y965200D02*
X533400Y939800D01*
X558800Y965200D02*
X787400Y965200D01*
X506413Y506413D02*
X506413Y436563D01*
X485775Y415925D01*
X419100Y415925D01*
X417513Y417513D01*
X771525Y600075D02*
X781050Y590550D01*
X771525Y600075D02*
X771525Y852488D01*
X793750Y874713D01*
X793750Y925513D01*
X796925Y928688D01*
X796925Y950913D01*
X769938Y431800D02*
X758825Y420688D01*
X739775Y420688D01*
X769938Y431800D02*
X769938Y579438D01*
X781050Y590550D01*
D25*
X739775Y420688D03*
D24*
X584200Y939800D02*
X606552Y962152D01*
X785686Y962152D01*
X796925Y950913D01*
X730250Y590550D02*
X727075Y587375D01*
X727075Y449263D02*
X727075Y385763D01*
X727075Y449263D02*
X727075Y587375D01*
X698500Y601663D02*
X695325Y604838D01*
D25*
X727075Y385763D03*
X698500Y601663D03*
X727075Y449263D03*
D24*
X711834Y958342D02*
X653542Y958342D01*
X711834Y958342D02*
X720725Y949451D01*
X720725Y815975D01*
X635000Y939800D02*
X653542Y958342D01*
X720725Y815975D02*
X695325Y790575D01*
X695325Y604838D01*
X669925Y930275D02*
X660400Y939800D01*
X669925Y930275D02*
X669925Y690563D01*
X692150Y668338D01*
X692150Y446088D01*
X696913Y441325D01*
X696913Y417513D01*
X685800Y406400D01*
X180975Y463550D02*
X153988Y490538D01*
X180975Y463550D02*
X180975Y393700D01*
D25*
X153988Y490538D03*
X180975Y393700D03*
D24*
X798513Y527050D02*
X825500Y500063D01*
X825500Y419100D01*
X838200Y406400D01*
X1060450Y808038D02*
X993775Y874713D01*
X1060450Y808038D02*
X1060450Y442913D01*
X1054100Y436563D01*
X1054100Y419100D01*
X1066800Y406400D01*
D25*
X798513Y527050D03*
X993775Y874713D03*
D24*
X658813Y879475D02*
X651669Y886619D01*
X658813Y879475D02*
X658813Y730250D01*
X650875Y722313D01*
X650875Y684213D01*
X660400Y474663D02*
X660400Y406400D01*
X685800Y381000D01*
D25*
X660400Y474663D03*
D24*
X651510Y950086D02*
X656718Y955294D01*
X651510Y950086D02*
X651510Y929514D01*
X651669Y929355D01*
X651669Y886619D01*
X711200Y939800D02*
X695706Y955294D01*
X656718Y955294D01*
X661516Y605309D02*
X660400Y604194D01*
X660400Y474663D01*
X661516Y605309D02*
X661706Y605499D01*
X661706Y673382D01*
X650875Y684213D01*
X987425Y915988D02*
X987425Y398463D01*
X1055688Y330200D01*
X1066800Y330200D01*
X723900Y790575D02*
X725488Y792163D01*
X725488Y928688D01*
X736600Y939800D01*
D25*
X987425Y915988D03*
X723900Y790575D03*
D24*
X76200Y628650D02*
X65088Y617538D01*
X65088Y590550D01*
X750888Y928688D02*
X762000Y939800D01*
X750888Y928688D02*
X750888Y682625D01*
X741363Y673100D01*
X741363Y581025D01*
X736600Y576263D01*
X736600Y427038D01*
X733425Y423863D01*
X733425Y374650D01*
D25*
X65088Y590550D03*
X733425Y374650D03*
D24*
X76200Y654050D02*
X58738Y636588D01*
X58738Y584200D01*
X55563Y581025D01*
X55563Y431800D01*
X403225Y407988D02*
X406400Y411163D01*
X403225Y407988D02*
X403225Y276225D01*
X381000Y254000D01*
X720725Y677863D02*
X720725Y771525D01*
X720725Y677863D02*
X719138Y676275D01*
X719138Y349250D01*
X814388Y254000D01*
D25*
X55563Y431800D03*
X406400Y411163D03*
X814388Y254000D03*
D24*
X747840Y798640D02*
X747840Y944816D01*
X758318Y955294D01*
X747840Y798640D02*
X720725Y771525D01*
X787400Y939800D02*
X771906Y955294D01*
X758318Y955294D01*
X87313Y690563D02*
X76200Y679450D01*
X87313Y690563D02*
X87313Y857250D01*
X101600Y871538D01*
X188913Y871538D01*
X188913Y879475D01*
X244475Y935038D01*
X244475Y950913D01*
X261144Y967581D01*
X556871Y967581D01*
X557537Y968248D01*
X793877Y968248D01*
X812800Y949325D02*
X812800Y939800D01*
X812800Y949325D02*
X793877Y968248D01*
X831723Y958723D02*
X965453Y958723D01*
X831723Y958723D02*
X812800Y939800D01*
X965453Y958723D02*
X981075Y943101D01*
X981075Y302269D02*
X982381Y300964D01*
X993775Y203200D02*
X1066800Y203200D01*
X981075Y302269D02*
X981075Y943101D01*
X982381Y214595D02*
X993775Y203200D01*
X982381Y214595D02*
X982381Y300964D01*
X854075Y923925D02*
X838200Y939800D01*
X854075Y747713D02*
X854075Y690563D01*
X854075Y747713D02*
X854075Y923925D01*
X854075Y690563D02*
X866775Y677863D01*
X866775Y307975D01*
X838200Y279400D01*
D25*
X854075Y747713D03*
D24*
X863600Y939800D02*
X847725Y955675D01*
X833438Y955675D01*
X828675Y950913D01*
X828675Y887413D01*
X836613Y879475D01*
X836613Y754063D02*
X836613Y730250D01*
X836613Y754063D02*
X836613Y879475D01*
X836613Y730250D02*
X828675Y722313D01*
X828675Y690563D01*
X844550Y674688D01*
X844550Y442913D01*
X850900Y436563D01*
X850900Y317500D01*
X838200Y304800D01*
D25*
X836613Y754063D03*
D24*
X76200Y755650D02*
X65088Y744538D01*
X65088Y676275D01*
X927100Y919163D02*
X930275Y922338D01*
X927100Y919163D02*
X927100Y681038D01*
X923925Y677863D01*
X923925Y552450D01*
X935038Y541338D01*
X935038Y338138D01*
D25*
X87313Y331788D03*
X930275Y922338D03*
X935038Y338138D03*
D24*
X88618Y333093D02*
X88618Y565150D01*
X88618Y333093D02*
X87313Y331788D01*
X77407Y663956D02*
X65088Y676275D01*
X77407Y663956D02*
X80303Y663956D01*
X86106Y658153D01*
X86106Y586994D02*
X88900Y584200D01*
X88900Y565432D01*
X88618Y565150D01*
X86106Y586994D02*
X86106Y658153D01*
X55563Y760413D02*
X76200Y781050D01*
X55563Y760413D02*
X55563Y585788D01*
X49213Y579438D01*
X49213Y349250D01*
X873125Y898525D02*
X914400Y939800D01*
X873125Y898525D02*
X873125Y568325D01*
X869950Y565150D01*
X869950Y469900D01*
X882650Y457200D01*
X882650Y320675D01*
D25*
X49213Y349250D03*
X882650Y320675D03*
D24*
X190500Y280988D02*
X190500Y795338D01*
X939800Y939800D02*
X976313Y903288D01*
X976313Y298450D01*
D25*
X190500Y795338D03*
X190500Y280988D03*
X976313Y298450D03*
D24*
X76200Y831850D02*
X52388Y808038D01*
X52388Y593725D01*
X42863Y584200D01*
X42863Y346075D01*
X58738Y330200D01*
X58738Y276225D01*
X904875Y690563D02*
X904875Y722313D01*
X904875Y690563D02*
X917575Y677863D01*
X917575Y552450D01*
X914400Y549275D01*
X914400Y452438D01*
X925513Y441325D01*
X925513Y265113D01*
X914400Y254000D01*
D25*
X58738Y276225D03*
X1204913Y401638D03*
D24*
X924052Y741490D02*
X924052Y943228D01*
X936118Y955294D01*
X924052Y741490D02*
X904875Y722313D01*
X965200Y939800D02*
X949706Y955294D01*
X936118Y955294D01*
X1238250Y622300D02*
X1217740Y601790D01*
X1217740Y414465D02*
X1204913Y401638D01*
X1217740Y414465D02*
X1217740Y601790D01*
X1254125Y690563D02*
X1238250Y706438D01*
X1254125Y690563D02*
X1254125Y612775D01*
X1238250Y596900D01*
X76200Y857250D02*
X36513Y817563D01*
X36513Y273050D01*
X965200Y711200D02*
X969963Y706438D01*
X969963Y247650D01*
D25*
X1238250Y706438D03*
X36513Y273050D03*
X969963Y247650D03*
D24*
X962025Y566738D02*
X946150Y582613D01*
X946150Y704850D01*
X939800Y711200D01*
X939800Y806450D02*
X933450Y812800D01*
X939800Y806450D02*
X939800Y711200D01*
X962025Y223838D02*
X963613Y222250D01*
X962025Y223838D02*
X962025Y566738D01*
D25*
X962025Y566738D03*
X933450Y812800D03*
X963613Y222250D03*
D24*
X76200Y908050D02*
X23813Y855663D01*
X23813Y234950D01*
X61913Y196850D01*
X914400Y711200D02*
X920750Y704850D01*
X920750Y504825D02*
X920750Y450850D01*
X920750Y504825D02*
X920750Y704850D01*
X920750Y450850D02*
X928688Y442913D01*
X928688Y192088D01*
X914400Y177800D01*
D25*
X61913Y196850D03*
X920750Y504825D03*
D24*
X895350Y704850D02*
X889000Y711200D01*
X895350Y496888D02*
X895350Y166688D01*
X895350Y496888D02*
X895350Y704850D01*
X895350Y166688D02*
X909638Y152400D01*
X914400Y152400D01*
X122238Y163513D02*
X122238Y165100D01*
D25*
X895350Y496888D03*
X122238Y163513D03*
D24*
X76200Y933450D02*
X44450Y933450D01*
X17590Y906590D01*
X17590Y227140D02*
X17463Y227013D01*
X17590Y227140D02*
X17590Y906590D01*
X104648Y182690D02*
X122238Y165100D01*
X61786Y182690D02*
X17463Y227013D01*
X61786Y182690D02*
X104648Y182690D01*
X755650Y432118D02*
X755650Y590550D01*
X625475Y923925D02*
X609600Y939800D01*
X625475Y923925D02*
X625475Y684213D01*
X636588Y673100D01*
X636588Y627063D01*
X655638Y608013D01*
X679450Y457200D02*
X685800Y450850D01*
X679450Y457200D02*
X669925Y457200D01*
X685800Y450850D02*
X685800Y431800D01*
D25*
X755650Y432118D03*
X655638Y608013D03*
X669925Y457200D03*
D24*
X736600Y711200D02*
X736600Y774700D01*
X1390650Y241300D02*
X1411288Y261938D01*
X1411288Y720725D01*
X1384300Y747713D01*
X1384300Y760413D01*
X101600Y577850D02*
X90488Y588963D01*
X90488Y758825D01*
D25*
X1384300Y760413D03*
X123825Y784225D03*
D24*
X110744Y771144D02*
X102807Y771144D01*
X110744Y771144D02*
X123825Y784225D01*
X102807Y771144D02*
X90488Y758825D01*
X762000Y774700D02*
X762000Y711200D01*
X187325Y647700D02*
X173038Y633413D01*
X187325Y647700D02*
X187325Y788988D01*
X184150Y792163D01*
X184150Y803275D01*
X812800Y806450D02*
X812800Y774700D01*
D25*
X173038Y633413D03*
X184150Y803275D03*
X812800Y806450D03*
D24*
X787400Y749300D02*
X787400Y711200D01*
X787400Y749300D02*
X812800Y774700D01*
X336550Y590550D02*
X330200Y584200D01*
X336550Y611188D02*
X336550Y641350D01*
X336550Y611188D02*
X336550Y590550D01*
X65088Y233363D02*
X76200Y222250D01*
X65088Y233363D02*
X65088Y304800D01*
X61913Y307975D01*
X61913Y577850D01*
D25*
X336550Y641350D03*
X61913Y577850D03*
X336550Y611188D03*
D24*
X444500Y723900D02*
X457200Y711200D01*
X444500Y723900D02*
X444500Y774700D01*
X360363Y292100D02*
X346075Y277813D01*
X360363Y292100D02*
X360363Y442913D01*
X371475Y454025D01*
X371475Y519113D01*
X438150Y585788D01*
X438150Y692150D01*
X457200Y711200D01*
D25*
X346075Y277813D03*
D24*
X482600Y711200D02*
X493713Y722313D01*
X493713Y773113D01*
X495300Y774700D01*
X90488Y261938D02*
X76200Y247650D01*
X90488Y261938D02*
X90488Y282575D01*
D25*
X90488Y282575D03*
X366713Y290513D03*
D24*
X492125Y701675D02*
X482600Y711200D01*
X492125Y568325D02*
X400050Y476250D01*
X492125Y568325D02*
X492125Y701675D01*
X400050Y419100D02*
X396875Y415925D01*
X400050Y419100D02*
X400050Y476250D01*
X396875Y415925D02*
X396875Y301625D01*
X385318Y290068D01*
X367157Y290068D02*
X366713Y290513D01*
X367157Y290068D02*
X385318Y290068D01*
X1190625Y187325D02*
X1238250Y139700D01*
X1190625Y187325D02*
X1190625Y259214D01*
X1035050Y585788D02*
X1054100Y604838D01*
X1035050Y585788D02*
X1035050Y577850D01*
X612775Y708025D02*
X609600Y711200D01*
X612775Y708025D02*
X612775Y639763D01*
X1173163Y919163D02*
X1219200Y965200D01*
X609600Y501650D02*
X590550Y482600D01*
X609600Y501650D02*
X609600Y636588D01*
X612775Y639763D01*
D25*
X1054100Y604838D03*
X612775Y639763D03*
X993775Y636588D03*
X590550Y482600D03*
D24*
X1051052Y561848D02*
X1051052Y356261D01*
X1062381Y344932D01*
X1104907Y344932D01*
X1190625Y259214D01*
X1051052Y561848D02*
X1035050Y577850D01*
X1012825Y577850D01*
X993775Y596900D01*
X993775Y636588D01*
X1064006Y625094D02*
X1064006Y705231D01*
X1064006Y625094D02*
X1079500Y609600D01*
X1064006Y705231D02*
X1082675Y723900D01*
X1152525Y723900D01*
X1173163Y744538D01*
X1173163Y919163D01*
X708025Y774700D02*
X708025Y714375D01*
X711200Y711200D01*
X365125Y336550D02*
X366713Y334963D01*
X365125Y336550D02*
X365125Y442913D01*
X393700Y471488D01*
X393700Y515938D01*
X442119Y564356D02*
X442913Y565150D01*
X442119Y564356D02*
X393700Y515938D01*
X466725Y615950D02*
X466725Y725488D01*
X466725Y615950D02*
X466725Y614363D01*
D25*
X366713Y334963D03*
X466725Y725488D03*
D24*
X451357Y568960D02*
X446723Y568960D01*
X442913Y565150D01*
X466725Y584328D02*
X466725Y614363D01*
X466725Y584328D02*
X451357Y568960D01*
X533400Y622300D02*
X533400Y711200D01*
X533400Y733425D02*
X619125Y819150D01*
X533400Y733425D02*
X533400Y711200D01*
D25*
X584200Y611188D03*
X619125Y819150D03*
D24*
X584200Y611188D02*
X544513Y611188D01*
X533400Y622300D01*
X355600Y711200D02*
X346075Y701675D01*
X346075Y558800D01*
X407988Y628650D02*
X393700Y642938D01*
X393700Y719138D01*
X385763Y727075D01*
D25*
X346075Y558800D03*
X407988Y628650D03*
D24*
X385763Y727075D02*
X371475Y727075D01*
X355600Y711200D01*
X330200Y711200D02*
X317500Y698500D01*
X317500Y527050D01*
X876300Y584200D02*
X882650Y590550D01*
X876300Y584200D02*
X876300Y561975D01*
D25*
X317500Y527050D03*
X876300Y561975D03*
D24*
X1079500Y368300D02*
X1066800Y355600D01*
X254000Y584200D02*
X254000Y639763D01*
X42863Y230188D02*
X76200Y196850D01*
X42863Y230188D02*
X42863Y341313D01*
X39688Y344488D01*
X39688Y641350D01*
X46038Y647700D01*
X782638Y411163D02*
X838200Y355600D01*
X782638Y411163D02*
X782638Y558800D01*
X400050Y565150D02*
X390525Y574675D01*
X390525Y701675D01*
X381000Y711200D01*
D25*
X254000Y639763D03*
X46038Y647700D03*
X782638Y558800D03*
X400050Y565150D03*
D24*
X1079500Y465398D02*
X1099750Y485648D01*
X1079500Y465398D02*
X1079500Y368300D01*
X1206373Y485648D02*
X1214692Y493967D01*
X1214692Y624142D02*
X1238250Y647700D01*
X1206373Y485648D02*
X1099750Y485648D01*
X1214692Y493967D02*
X1214692Y624142D01*
X1206500Y698500D02*
X1295400Y787400D01*
X1206500Y698500D02*
X1206500Y674688D01*
X304800Y711200D02*
X298450Y704850D01*
X298450Y598488D01*
X295275Y595313D01*
X295275Y546100D01*
X298450Y542925D01*
X298450Y522288D01*
X295275Y519113D01*
X295275Y482600D01*
X298450Y479425D01*
X298450Y392113D01*
X260350Y354013D01*
X949325Y676275D02*
X958850Y666750D01*
X949325Y676275D02*
X949325Y758825D01*
X320675Y800100D02*
X304800Y784225D01*
X304800Y711200D01*
D25*
X1206500Y674688D03*
X260350Y354013D03*
X949325Y758825D03*
X320675Y800100D03*
D24*
X414338Y693738D02*
X431800Y711200D01*
X414338Y693738D02*
X414338Y611188D01*
X76200Y298450D02*
X65088Y309563D01*
D25*
X414338Y611188D03*
X82550Y565150D03*
D24*
X79756Y562356D01*
X72097Y562356D01*
X65088Y555347D01*
X65088Y309563D01*
X228600Y508000D02*
X219075Y517525D01*
X219075Y649288D01*
X222250Y652463D01*
X812800Y711200D02*
X825500Y723900D01*
X825500Y762000D01*
X125413Y765175D02*
X119063Y758825D01*
X119063Y671513D01*
X101600Y654050D01*
D25*
X222250Y652463D03*
X825500Y762000D03*
X125413Y765175D03*
D24*
X193675Y517525D02*
X203200Y508000D01*
X193675Y722313D02*
X206375Y735013D01*
D25*
X200025Y669925D03*
X206375Y735013D03*
D24*
X193675Y600075D02*
X193675Y517525D01*
X193675Y600075D02*
X200025Y606425D01*
X200025Y669925D01*
X193675Y692150D02*
X193675Y722313D01*
X193675Y692150D02*
X200025Y685800D01*
X200025Y669925D01*
X131763Y768350D02*
X131763Y514350D01*
X131763Y768350D02*
X128588Y771525D01*
D25*
X131763Y514350D03*
D24*
X128306Y771243D02*
X122899Y771243D01*
X128306Y771243D02*
X128588Y771525D01*
X116015Y764359D02*
X116015Y719265D01*
X116015Y764359D02*
X122899Y771243D01*
X116015Y719265D02*
X101600Y704850D01*
X254000Y508000D02*
X254000Y274638D01*
X295275Y233363D01*
X263525Y517525D02*
X263525Y623888D01*
X263525Y517525D02*
X254000Y508000D01*
X266700Y755650D02*
X247650Y774700D01*
X266700Y755650D02*
X266700Y627063D01*
X263525Y623888D01*
D25*
X295275Y233363D03*
X263525Y623888D03*
X247650Y774700D03*
D24*
X304800Y508000D02*
X301625Y504825D01*
X301625Y219075D01*
X882650Y666750D02*
X892175Y657225D01*
X892175Y531813D01*
X889000Y528638D01*
X889000Y304800D01*
X873125Y288925D01*
X873125Y219075D01*
X163513Y769938D02*
X101600Y831850D01*
X163513Y769938D02*
X163513Y727075D01*
X157163Y720725D01*
X157163Y565150D01*
X301625Y565150D02*
X304800Y561975D01*
X304800Y508000D01*
D25*
X301625Y219075D03*
X873125Y219075D03*
X157163Y565150D03*
X301625Y565150D03*
D24*
X279400Y584200D02*
X288925Y593725D01*
X288925Y617538D01*
X777875Y617538D02*
X790575Y604838D01*
X773113Y533400D02*
X773113Y304800D01*
X827088Y250825D01*
X827088Y239713D01*
X838200Y228600D01*
D25*
X288925Y617538D03*
X777875Y617538D03*
D24*
X779717Y575056D02*
X784732Y575056D01*
X779717Y575056D02*
X772986Y568325D01*
X784732Y575056D02*
X790575Y580899D01*
X790575Y604838D01*
X772986Y568325D02*
X772986Y533527D01*
X773113Y533400D01*
X160338Y520700D02*
X147638Y533400D01*
X147638Y687388D01*
X150813Y690563D01*
X150813Y766763D01*
X111125Y806450D01*
X101600Y806450D01*
X898525Y657225D02*
X908050Y666750D01*
X898525Y657225D02*
X898525Y531813D01*
X901700Y528638D01*
X901700Y517525D02*
X901700Y169863D01*
X901700Y517525D02*
X901700Y528638D01*
D25*
X160338Y520700D03*
X901700Y169863D03*
X901700Y517525D03*
D24*
X238125Y493713D02*
X234950Y490538D01*
X238125Y493713D02*
X238125Y758825D01*
X179388Y817563D01*
X933450Y666750D02*
X942975Y657225D01*
X942975Y447675D02*
X942975Y233363D01*
X942975Y447675D02*
X942975Y657225D01*
X942975Y233363D02*
X998538Y177800D01*
X1066800Y177800D01*
X358775Y479425D02*
X330200Y508000D01*
X358775Y479425D02*
X358775Y450850D01*
D25*
X234950Y490538D03*
X179388Y817563D03*
X358775Y450850D03*
X942975Y447675D03*
D24*
X682625Y714375D02*
X682625Y774700D01*
X682625Y714375D02*
X685800Y711200D01*
X1155700Y558800D02*
X1155700Y533400D01*
X1138238Y576263D02*
X1138238Y625475D01*
X1138238Y627063D01*
X1138238Y576263D02*
X1155700Y558800D01*
X1127125Y685800D02*
X1079500Y685800D01*
X1138238Y674688D02*
X1138238Y627063D01*
X1138238Y674688D02*
X1127125Y685800D01*
X1162050Y473075D02*
X1162050Y395605D01*
X1167130Y390525D01*
X1167130Y312420D01*
X1238250Y241300D01*
X1238250Y215900D02*
X1118870Y335280D01*
X1111250Y398145D02*
X1111250Y473075D01*
X1111250Y398145D02*
X1118870Y390525D01*
X1118870Y335280D01*
X376238Y604838D02*
X355600Y584200D01*
X376238Y604838D02*
X376238Y630238D01*
X781050Y658813D02*
X800100Y639763D01*
X781050Y658813D02*
X781050Y666750D01*
D25*
X376238Y630238D03*
X800100Y639763D03*
D24*
X1220788Y284163D02*
X1238250Y266700D01*
X1220788Y477838D02*
X1238250Y495300D01*
X1220788Y419100D02*
X1220788Y284163D01*
X1220788Y419100D02*
X1220788Y477838D01*
X1220788Y419100D02*
X1238250Y419100D01*
X427038Y579438D02*
X366713Y519113D01*
X355600Y508000D01*
X427038Y579438D02*
X427038Y635000D01*
X422275Y639763D01*
X422275Y663575D01*
X831850Y633413D02*
X835025Y630238D01*
X831850Y633413D02*
X831850Y666750D01*
X157163Y755650D02*
X153988Y752475D01*
X153988Y571500D01*
X150813Y568325D01*
X150813Y558800D01*
X157163Y552450D01*
X336550Y549275D02*
X366713Y519113D01*
D25*
X422275Y663575D03*
X835025Y630238D03*
X157163Y755650D03*
X157163Y552450D03*
X336550Y549275D03*
D24*
X1277938Y820738D02*
X1277938Y922338D01*
X1295400Y939800D01*
D25*
X1182688Y620713D03*
D24*
X1182688Y725488D01*
X1277938Y820738D01*
X1155700Y228600D02*
X1104900Y228600D01*
X1181100Y171450D02*
X1238250Y114300D01*
X1181100Y171450D02*
X1181100Y228600D01*
X1368425Y142875D02*
X1390650Y165100D01*
X660725Y16002D02*
X654375Y22352D01*
X660725Y16002D02*
X828350Y16002D01*
X834700Y22352D01*
X654375Y22352D02*
X212725Y22352D01*
X834700Y22352D02*
X1355598Y22352D01*
X184277Y50800D02*
X114300Y50800D01*
X184277Y50800D02*
X212725Y22352D01*
X1355598Y22352D02*
X1355725Y22225D01*
X1368425Y34925D02*
X1368425Y142875D01*
X1368425Y34925D02*
X1355725Y22225D01*
X434975Y571500D02*
X381000Y517525D01*
X381000Y508000D01*
D25*
X434975Y571500D03*
D24*
X1238250Y469900D02*
X1258761Y449390D01*
X1258761Y68390D02*
X1260475Y66675D01*
X1261781Y66675D01*
D25*
X1261781Y66675D03*
D24*
X1258761Y68390D02*
X1258761Y449390D01*
X1238250Y444500D02*
X1255713Y427038D01*
X1255713Y57150D01*
D25*
X1255713Y57150D03*
D24*
X1295400Y812800D02*
X1312863Y830263D01*
X1312863Y896938D01*
X1295400Y914400D01*
X1219200Y838200D02*
X1201738Y855663D01*
X1201738Y922338D01*
X1219200Y939800D01*
X547688Y588963D02*
X546100Y590550D01*
X547688Y588963D02*
X547688Y465138D01*
X546100Y463550D01*
X571500Y463550D02*
X571500Y590550D01*
X584200Y577850D02*
X596900Y590550D01*
X584200Y577850D02*
X584200Y533400D01*
X582930Y533400D01*
X533400Y533400D02*
X520700Y546100D01*
X520700Y590550D01*
X533400Y533400D02*
X534670Y533400D01*
X1574800Y622300D02*
X1589078Y608022D01*
X1589078Y498475D02*
X1571625Y482600D01*
X1589078Y498475D02*
X1589078Y608022D01*
X1473200Y850900D02*
X1460500Y863600D01*
X1460500Y920750D01*
X1274763Y939800D02*
X1274763Y822325D01*
X1274763Y939800D02*
X1284288Y949325D01*
X1174750Y722313D02*
X1174750Y596900D01*
X1162050Y584200D01*
X1155700Y584200D01*
X1174750Y722313D02*
X1274763Y822325D01*
X1349375Y920750D02*
X1320800Y949325D01*
X1284288Y949325D01*
X1374775Y920750D02*
X1374775Y873125D01*
X1397000Y850900D01*
X1079500Y584200D02*
X1079500Y558800D01*
X1079500Y635000D02*
X1079500Y660400D01*
D25*
X1419225Y663575D03*
D24*
X1435100Y717550D02*
X1435100Y920750D01*
X1435100Y717550D02*
X1419225Y701675D01*
X1419225Y663575D01*
X1419225Y584200D01*
X1495425Y508000D01*
X1082675Y635000D02*
X1079500Y635000D01*
X1082675Y635000D02*
X1101725Y615950D01*
X1101725Y606425D01*
X1079500Y584200D01*
X1568450Y876300D02*
X1571625Y879475D01*
X1571625Y906463D01*
X1572006Y907288D01*
X1525588Y906463D02*
X1484313Y865188D01*
X1484313Y544513D01*
X1495425Y533400D01*
X1525588Y906463D02*
X1526794Y907288D01*
X1520825Y508000D02*
X1571625Y508000D01*
X1520825Y508000D02*
X1495425Y533400D01*
X1524000Y460375D02*
X1571625Y508000D01*
X1524000Y460375D02*
X1524000Y412750D01*
D26*
X1504950Y381000D02*
X1463675Y381000D01*
X1504950Y381000D02*
X1524000Y400050D01*
X1524000Y412750D01*
M02*
