G04 #@! TF.GenerationSoftware,KiCad,Pcbnew,(6.0.0-0)*
G04 #@! TF.CreationDate,2022-04-12T18:18:14+01:00*
G04 #@! TF.ProjectId,rosco_m68k,726f7363-6f5f-46d3-9638-6b2e6b696361,2.12*
G04 #@! TF.SameCoordinates,Original*
G04 #@! TF.FileFunction,Copper,L4,Bot*
G04 #@! TF.FilePolarity,Positive*
%FSLAX46Y46*%
G04 Gerber Fmt 4.6, Leading zero omitted, Abs format (unit mm)*
G04 Created by KiCad (PCBNEW (6.0.0-0)) date 2022-04-12 18:18:14*
%MOMM*%
%LPD*%
G01*
G04 APERTURE LIST*
G04 #@! TA.AperFunction,ComponentPad*
%ADD10C,6.400000*%
G04 #@! TD*
G04 #@! TA.AperFunction,ComponentPad*
%ADD11O,1.524000X3.048000*%
G04 #@! TD*
G04 #@! TA.AperFunction,ComponentPad*
%ADD12C,1.320800*%
G04 #@! TD*
G04 #@! TA.AperFunction,ComponentPad*
%ADD13C,1.600200*%
G04 #@! TD*
G04 #@! TA.AperFunction,ComponentPad*
%ADD14R,1.422400X1.422400*%
G04 #@! TD*
G04 #@! TA.AperFunction,ComponentPad*
%ADD15C,1.422400*%
G04 #@! TD*
G04 #@! TA.AperFunction,ComponentPad*
%ADD16R,2.400000X1.600000*%
G04 #@! TD*
G04 #@! TA.AperFunction,ComponentPad*
%ADD17O,2.400000X1.600000*%
G04 #@! TD*
G04 #@! TA.AperFunction,ComponentPad*
%ADD18O,3.048000X1.524000*%
G04 #@! TD*
G04 #@! TA.AperFunction,ComponentPad*
%ADD19C,1.500000*%
G04 #@! TD*
G04 #@! TA.AperFunction,ComponentPad*
%ADD20R,1.600000X1.600000*%
G04 #@! TD*
G04 #@! TA.AperFunction,ComponentPad*
%ADD21C,1.600000*%
G04 #@! TD*
G04 #@! TA.AperFunction,ComponentPad*
%ADD22R,1.700000X1.700000*%
G04 #@! TD*
G04 #@! TA.AperFunction,ComponentPad*
%ADD23O,1.700000X1.700000*%
G04 #@! TD*
G04 #@! TA.AperFunction,ComponentPad*
%ADD24R,1.600000X2.400000*%
G04 #@! TD*
G04 #@! TA.AperFunction,ComponentPad*
%ADD25O,1.600000X2.400000*%
G04 #@! TD*
G04 #@! TA.AperFunction,ComponentPad*
%ADD26R,1.524000X1.524000*%
G04 #@! TD*
G04 #@! TA.AperFunction,ComponentPad*
%ADD27C,1.524000*%
G04 #@! TD*
G04 #@! TA.AperFunction,ComponentPad*
%ADD28O,1.600000X1.600000*%
G04 #@! TD*
G04 #@! TA.AperFunction,ComponentPad*
%ADD29O,1.320800X2.641600*%
G04 #@! TD*
G04 #@! TA.AperFunction,ViaPad*
%ADD30C,0.800000*%
G04 #@! TD*
G04 #@! TA.AperFunction,Conductor*
%ADD31C,0.152400*%
G04 #@! TD*
G04 #@! TA.AperFunction,Conductor*
%ADD32C,0.250000*%
G04 #@! TD*
G04 #@! TA.AperFunction,Conductor*
%ADD33C,0.175000*%
G04 #@! TD*
G04 #@! TA.AperFunction,Conductor*
%ADD34C,0.650000*%
G04 #@! TD*
G04 APERTURE END LIST*
D10*
X71500000Y-151500000D03*
X71500000Y-58700000D03*
X224300000Y-151500000D03*
D11*
X219659400Y-73701200D03*
X219659400Y-67198800D03*
X224180600Y-73701200D03*
X224180600Y-67198800D03*
D10*
X224300000Y-58700000D03*
D12*
X163920000Y-72520000D03*
X153760000Y-72520000D03*
D13*
X180306000Y-138443000D03*
X182846000Y-138443000D03*
X185386000Y-138443000D03*
X163495000Y-94930000D03*
X163495000Y-97470000D03*
X100300000Y-81930000D03*
X100300000Y-84470000D03*
X159800000Y-106019000D03*
X159800000Y-108559000D03*
X223005000Y-142925000D03*
X225545000Y-142925000D03*
X87205000Y-91100000D03*
X89745000Y-91100000D03*
X208946000Y-119329500D03*
X211486000Y-119329500D03*
X168547000Y-58300000D03*
X171087000Y-58300000D03*
X176980000Y-89929000D03*
X179520000Y-89929000D03*
X188606700Y-89929000D03*
X191146700Y-89929000D03*
X208946000Y-128363000D03*
X211486000Y-128363000D03*
X214122000Y-142850000D03*
X217678000Y-142850000D03*
D14*
X199572000Y-120199000D03*
D15*
X202112000Y-117659000D03*
X199572000Y-117659000D03*
X202112000Y-115119000D03*
X199572000Y-115119000D03*
X202112000Y-112579000D03*
X199572000Y-110039000D03*
X199572000Y-112579000D03*
X197032000Y-110039000D03*
X197032000Y-112579000D03*
X194492000Y-110039000D03*
X194492000Y-112579000D03*
X191952000Y-110039000D03*
X191952000Y-112579000D03*
X189412000Y-110039000D03*
X189412000Y-112579000D03*
X186872000Y-110039000D03*
X184332000Y-112579000D03*
X186872000Y-112579000D03*
X184332000Y-115119000D03*
X186872000Y-115119000D03*
X184332000Y-117659000D03*
X186872000Y-117659000D03*
X184332000Y-120199000D03*
X186872000Y-120199000D03*
X184332000Y-122739000D03*
X186872000Y-122739000D03*
X184332000Y-125279000D03*
X186872000Y-127819000D03*
X186872000Y-125279000D03*
X189412000Y-127819000D03*
X189412000Y-125279000D03*
X191952000Y-127819000D03*
X191952000Y-125279000D03*
X194492000Y-127819000D03*
X194492000Y-125279000D03*
X197032000Y-127819000D03*
X197032000Y-125279000D03*
X199572000Y-127819000D03*
X202112000Y-125279000D03*
X199572000Y-125279000D03*
X202112000Y-122739000D03*
X199572000Y-122739000D03*
X202112000Y-120199000D03*
D16*
X186076700Y-58324800D03*
D17*
X186076700Y-60864800D03*
X186076700Y-63404800D03*
X186076700Y-65944800D03*
X186076700Y-68484800D03*
X186076700Y-71024800D03*
X186076700Y-73564800D03*
X186076700Y-76104800D03*
X186076700Y-78644800D03*
X186076700Y-81184800D03*
X186076700Y-83724800D03*
X186076700Y-86264800D03*
X193696700Y-86264800D03*
X193696700Y-83724800D03*
X193696700Y-81184800D03*
X193696700Y-78644800D03*
X193696700Y-76104800D03*
X193696700Y-73564800D03*
X193696700Y-71024800D03*
X193696700Y-68484800D03*
X193696700Y-65944800D03*
X193696700Y-63404800D03*
X193696700Y-60864800D03*
X193696700Y-58324800D03*
D18*
X223300000Y-91159000D03*
X223300000Y-93699000D03*
D12*
X211600000Y-60930000D03*
X209060000Y-60930000D03*
X218200000Y-60840000D03*
X215660000Y-60840000D03*
D19*
X190772000Y-138442000D03*
X195652000Y-138442000D03*
D20*
X141990000Y-79910000D03*
D21*
X149610000Y-79910000D03*
X149610000Y-72290000D03*
X141990000Y-72290000D03*
D16*
X159800000Y-111823600D03*
D17*
X159800000Y-114363600D03*
X159800000Y-116903600D03*
X159800000Y-119443600D03*
X159800000Y-121983600D03*
X159800000Y-124523600D03*
X159800000Y-127063600D03*
X159800000Y-129603600D03*
X159800000Y-132143600D03*
X159800000Y-134683600D03*
X159800000Y-137223600D03*
X159800000Y-139763600D03*
X159800000Y-142303600D03*
X159800000Y-144843600D03*
X159800000Y-147383600D03*
X159800000Y-149923600D03*
X175040000Y-149923600D03*
X175040000Y-147383600D03*
X175040000Y-144843600D03*
X175040000Y-142303600D03*
X175040000Y-139763600D03*
X175040000Y-137223600D03*
X175040000Y-134683600D03*
X175040000Y-132143600D03*
X175040000Y-129603600D03*
X175040000Y-127063600D03*
X175040000Y-124523600D03*
X175040000Y-121983600D03*
X175040000Y-119443600D03*
X175040000Y-116903600D03*
X175040000Y-114363600D03*
X175040000Y-111823600D03*
D16*
X135600000Y-111823600D03*
D17*
X135600000Y-114363600D03*
X135600000Y-116903600D03*
X135600000Y-119443600D03*
X135600000Y-121983600D03*
X135600000Y-124523600D03*
X135600000Y-127063600D03*
X135600000Y-129603600D03*
X135600000Y-132143600D03*
X135600000Y-134683600D03*
X135600000Y-137223600D03*
X135600000Y-139763600D03*
X135600000Y-142303600D03*
X135600000Y-144843600D03*
X135600000Y-147383600D03*
X135600000Y-149923600D03*
X150840000Y-149923600D03*
X150840000Y-147383600D03*
X150840000Y-144843600D03*
X150840000Y-142303600D03*
X150840000Y-139763600D03*
X150840000Y-137223600D03*
X150840000Y-134683600D03*
X150840000Y-132143600D03*
X150840000Y-129603600D03*
X150840000Y-127063600D03*
X150840000Y-124523600D03*
X150840000Y-121983600D03*
X150840000Y-119443600D03*
X150840000Y-116903600D03*
X150840000Y-114363600D03*
X150840000Y-111823600D03*
D16*
X111400000Y-111823600D03*
D17*
X111400000Y-114363600D03*
X111400000Y-116903600D03*
X111400000Y-119443600D03*
X111400000Y-121983600D03*
X111400000Y-124523600D03*
X111400000Y-127063600D03*
X111400000Y-129603600D03*
X111400000Y-132143600D03*
X111400000Y-134683600D03*
X111400000Y-137223600D03*
X111400000Y-139763600D03*
X111400000Y-142303600D03*
X111400000Y-144843600D03*
X111400000Y-147383600D03*
X111400000Y-149923600D03*
X126640000Y-149923600D03*
X126640000Y-147383600D03*
X126640000Y-144843600D03*
X126640000Y-142303600D03*
X126640000Y-139763600D03*
X126640000Y-137223600D03*
X126640000Y-134683600D03*
X126640000Y-132143600D03*
X126640000Y-129603600D03*
X126640000Y-127063600D03*
X126640000Y-124523600D03*
X126640000Y-121983600D03*
X126640000Y-119443600D03*
X126640000Y-116903600D03*
X126640000Y-114363600D03*
X126640000Y-111823600D03*
D22*
X73325000Y-65350000D03*
D23*
X75865000Y-65350000D03*
X73325000Y-67890000D03*
X75865000Y-67890000D03*
X73325000Y-70430000D03*
X75865000Y-70430000D03*
X73325000Y-72970000D03*
X75865000Y-72970000D03*
X73325000Y-75510000D03*
X75865000Y-75510000D03*
X73325000Y-78050000D03*
X75865000Y-78050000D03*
X73325000Y-80590000D03*
X75865000Y-80590000D03*
X73325000Y-83130000D03*
X75865000Y-83130000D03*
X73325000Y-85670000D03*
X75865000Y-85670000D03*
X73325000Y-88210000D03*
X75865000Y-88210000D03*
X73325000Y-90750000D03*
X75865000Y-90750000D03*
X73325000Y-93290000D03*
X75865000Y-93290000D03*
X73325000Y-95830000D03*
X75865000Y-95830000D03*
X73325000Y-98370000D03*
X75865000Y-98370000D03*
X73325000Y-100910000D03*
X75865000Y-100910000D03*
X73325000Y-103450000D03*
X75865000Y-103450000D03*
X73325000Y-105990000D03*
X75865000Y-105990000D03*
X73325000Y-108530000D03*
X75865000Y-108530000D03*
X73325000Y-111070000D03*
X75865000Y-111070000D03*
X73325000Y-113610000D03*
X75865000Y-113610000D03*
X73325000Y-116150000D03*
X75865000Y-116150000D03*
X73325000Y-118690000D03*
X75865000Y-118690000D03*
X73325000Y-121230000D03*
X75865000Y-121230000D03*
X73325000Y-123770000D03*
X75865000Y-123770000D03*
X73325000Y-126310000D03*
X75865000Y-126310000D03*
X73325000Y-128850000D03*
X75865000Y-128850000D03*
X73325000Y-131390000D03*
X75865000Y-131390000D03*
X73325000Y-133930000D03*
X75865000Y-133930000D03*
X73325000Y-136470000D03*
X75865000Y-136470000D03*
X73325000Y-139010000D03*
X75865000Y-139010000D03*
X73325000Y-141550000D03*
X75865000Y-141550000D03*
X73325000Y-144090000D03*
X75865000Y-144090000D03*
D12*
X139980000Y-104324000D03*
X129820000Y-104324000D03*
D16*
X174450000Y-58324800D03*
D17*
X174450000Y-60864800D03*
X174450000Y-63404800D03*
X174450000Y-65944800D03*
X174450000Y-68484800D03*
X174450000Y-71024800D03*
X174450000Y-73564800D03*
X174450000Y-76104800D03*
X174450000Y-78644800D03*
X174450000Y-81184800D03*
X174450000Y-83724800D03*
X174450000Y-86264800D03*
X182070000Y-86264800D03*
X182070000Y-83724800D03*
X182070000Y-81184800D03*
X182070000Y-78644800D03*
X182070000Y-76104800D03*
X182070000Y-73564800D03*
X182070000Y-71024800D03*
X182070000Y-68484800D03*
X182070000Y-65944800D03*
X182070000Y-63404800D03*
X182070000Y-60864800D03*
X182070000Y-58324800D03*
D13*
X178918000Y-129962000D03*
X178918000Y-127422000D03*
X124750000Y-107370000D03*
X124750000Y-104830000D03*
X203510000Y-138443000D03*
X206050000Y-138443000D03*
X200970000Y-138443000D03*
X223999000Y-79525000D03*
X221459000Y-79525000D03*
X196069000Y-104952000D03*
X198609000Y-104952000D03*
D18*
X223300000Y-131310000D03*
X223300000Y-128770000D03*
X223300000Y-126230000D03*
X223300000Y-123690000D03*
X223300000Y-121150000D03*
X223300000Y-118610000D03*
D13*
X208946000Y-110296000D03*
X211486000Y-110296000D03*
X145149000Y-104943000D03*
X147689000Y-104943000D03*
D18*
X216564000Y-112258000D03*
X216564000Y-109718000D03*
X216564000Y-107178000D03*
X216564000Y-104638000D03*
X216564000Y-102098000D03*
X216564000Y-99558000D03*
X223300000Y-112258000D03*
X223300000Y-109718000D03*
X223300000Y-107178000D03*
X223300000Y-104638000D03*
X223300000Y-102098000D03*
X223300000Y-99558000D03*
D11*
X214730000Y-151000000D03*
X217270000Y-151000000D03*
D13*
X201455000Y-104952000D03*
X203995000Y-104952000D03*
X100300000Y-64470000D03*
X100300000Y-61930000D03*
X170550000Y-76203000D03*
X170550000Y-78743000D03*
D16*
X209230000Y-78724800D03*
D17*
X209230000Y-81264800D03*
X209230000Y-83804800D03*
X209230000Y-86344800D03*
X216850000Y-86344800D03*
X216850000Y-83804800D03*
X216850000Y-81264800D03*
X216850000Y-78724800D03*
D18*
X216564000Y-91159000D03*
X216564000Y-93699000D03*
D12*
X209362000Y-89353000D03*
X209362000Y-99513000D03*
X213078000Y-65450000D03*
X213078000Y-75610000D03*
X209230000Y-65450000D03*
X209230000Y-75610000D03*
X86820000Y-62200000D03*
X96980000Y-62200000D03*
X166545000Y-81680000D03*
X166545000Y-71520000D03*
X216850000Y-65450000D03*
X216850000Y-75610000D03*
D18*
X91385000Y-83430000D03*
X91385000Y-85970000D03*
D12*
X95001000Y-108593000D03*
X105161000Y-108593000D03*
X193006000Y-146120000D03*
X190466000Y-146120000D03*
X206704000Y-146122000D03*
X204164000Y-146122000D03*
X193006000Y-152746000D03*
X182846000Y-152746000D03*
X206704000Y-152746000D03*
X196544000Y-152746000D03*
D18*
X95700000Y-85970000D03*
X95700000Y-83430000D03*
D16*
X87200000Y-111823600D03*
D17*
X87200000Y-114363600D03*
X87200000Y-116903600D03*
X87200000Y-119443600D03*
X87200000Y-121983600D03*
X87200000Y-124523600D03*
X87200000Y-127063600D03*
X87200000Y-129603600D03*
X87200000Y-132143600D03*
X87200000Y-134683600D03*
X87200000Y-137223600D03*
X87200000Y-139763600D03*
X87200000Y-142303600D03*
X87200000Y-144843600D03*
X87200000Y-147383600D03*
X87200000Y-149923600D03*
X102440000Y-149923600D03*
X102440000Y-147383600D03*
X102440000Y-144843600D03*
X102440000Y-142303600D03*
X102440000Y-139763600D03*
X102440000Y-137223600D03*
X102440000Y-134683600D03*
X102440000Y-132143600D03*
X102440000Y-129603600D03*
X102440000Y-127063600D03*
X102440000Y-124523600D03*
X102440000Y-121983600D03*
X102440000Y-119443600D03*
X102440000Y-116903600D03*
X102440000Y-114363600D03*
X102440000Y-111823600D03*
D13*
X221459000Y-86101000D03*
X223999000Y-86101000D03*
X182846000Y-146143000D03*
X185386000Y-146143000D03*
X202959000Y-89929000D03*
X200419000Y-89929000D03*
D16*
X197703300Y-58324800D03*
D17*
X197703300Y-60864800D03*
X197703300Y-63404800D03*
X197703300Y-65944800D03*
X197703300Y-68484800D03*
X197703300Y-71024800D03*
X197703300Y-73564800D03*
X197703300Y-76104800D03*
X197703300Y-78644800D03*
X197703300Y-81184800D03*
X197703300Y-83724800D03*
X197703300Y-86264800D03*
X205323300Y-86264800D03*
X205323300Y-83724800D03*
X205323300Y-81184800D03*
X205323300Y-78644800D03*
X205323300Y-76104800D03*
X205323300Y-73564800D03*
X205323300Y-71024800D03*
X205323300Y-68484800D03*
X205323300Y-65944800D03*
X205323300Y-63404800D03*
X205323300Y-60864800D03*
X205323300Y-58324800D03*
D12*
X197703300Y-89303000D03*
X197703300Y-99463000D03*
D13*
X170550000Y-67810000D03*
X170550000Y-70350000D03*
X170543000Y-62680000D03*
X170543000Y-65220000D03*
D24*
X86787000Y-105081000D03*
D25*
X89327000Y-105081000D03*
X91867000Y-105081000D03*
X94407000Y-105081000D03*
X96947000Y-105081000D03*
X99487000Y-105081000D03*
X102027000Y-105081000D03*
X104567000Y-105081000D03*
X107107000Y-105081000D03*
X109647000Y-105081000D03*
X112187000Y-105081000D03*
X114727000Y-105081000D03*
X114727000Y-97461000D03*
X112187000Y-97461000D03*
X109647000Y-97461000D03*
X107107000Y-97461000D03*
X104567000Y-97461000D03*
X102027000Y-97461000D03*
X99487000Y-97461000D03*
X96947000Y-97461000D03*
X94407000Y-97461000D03*
X91867000Y-97461000D03*
X89327000Y-97461000D03*
X86787000Y-97461000D03*
D22*
X106971000Y-119607000D03*
D23*
X106971000Y-117067000D03*
X106971000Y-114527000D03*
X106971000Y-111987000D03*
D13*
X180750000Y-151263000D03*
X178210000Y-151263000D03*
X154030000Y-151263000D03*
X156570000Y-151263000D03*
X129852000Y-151263000D03*
X132392000Y-151263000D03*
X105701000Y-123400000D03*
X108241000Y-123400000D03*
D12*
X193696700Y-89303000D03*
X193696700Y-99463000D03*
D22*
X216564000Y-131310000D03*
D24*
X142225000Y-100025000D03*
D25*
X144765000Y-100025000D03*
X147305000Y-100025000D03*
X149845000Y-100025000D03*
X152385000Y-100025000D03*
X154925000Y-100025000D03*
X157465000Y-100025000D03*
X160005000Y-100025000D03*
X160005000Y-92405000D03*
X157465000Y-92405000D03*
X154925000Y-92405000D03*
X152385000Y-92405000D03*
X149845000Y-92405000D03*
X147305000Y-92405000D03*
X144765000Y-92405000D03*
X142225000Y-92405000D03*
D12*
X139700000Y-93880000D03*
X139700000Y-83720000D03*
X188080000Y-105500000D03*
X177920000Y-105500000D03*
D13*
X197840000Y-146143000D03*
X200380000Y-146143000D03*
D12*
X153760000Y-76120000D03*
X163920000Y-76120000D03*
D22*
X78405000Y-65350000D03*
D23*
X78405000Y-67890000D03*
X78405000Y-70430000D03*
X78405000Y-72970000D03*
D26*
X105360000Y-62460000D03*
D27*
X107900000Y-62460000D03*
X110440000Y-62460000D03*
X112980000Y-62460000D03*
X115520000Y-62460000D03*
X118060000Y-62460000D03*
X120600000Y-62460000D03*
X123140000Y-62460000D03*
X125680000Y-62460000D03*
X128220000Y-62460000D03*
X130760000Y-62460000D03*
X133300000Y-62460000D03*
X135840000Y-62460000D03*
X105360000Y-65000000D03*
X107900000Y-65000000D03*
X110440000Y-65000000D03*
X112980000Y-65000000D03*
X115520000Y-65000000D03*
X118060000Y-65000000D03*
X120600000Y-65000000D03*
X123140000Y-65000000D03*
X125680000Y-65000000D03*
X128220000Y-65000000D03*
X130760000Y-65000000D03*
X133300000Y-65000000D03*
X135840000Y-65000000D03*
X105360000Y-67540000D03*
X107900000Y-67540000D03*
X110440000Y-67540000D03*
X112980000Y-67540000D03*
X115520000Y-67540000D03*
X118060000Y-67540000D03*
X120600000Y-67540000D03*
X123140000Y-67540000D03*
X125680000Y-67540000D03*
X128220000Y-67540000D03*
X130760000Y-67540000D03*
X133300000Y-67540000D03*
X135840000Y-67540000D03*
X105360000Y-70080000D03*
X107900000Y-70080000D03*
X110440000Y-70080000D03*
X133300000Y-70080000D03*
X135840000Y-70080000D03*
X105360000Y-72620000D03*
X107900000Y-72620000D03*
X110440000Y-72620000D03*
X133300000Y-72620000D03*
X135840000Y-72620000D03*
X105360000Y-75160000D03*
X107900000Y-75160000D03*
X110440000Y-75160000D03*
X133300000Y-75160000D03*
X135840000Y-75160000D03*
X105360000Y-77700000D03*
X107900000Y-77700000D03*
X110440000Y-77700000D03*
X130760000Y-77700000D03*
X133300000Y-77700000D03*
X135840000Y-77700000D03*
X105360000Y-80240000D03*
X107900000Y-80240000D03*
X110440000Y-80240000D03*
X133300000Y-80240000D03*
X135840000Y-80240000D03*
X105360000Y-82780000D03*
X107900000Y-82780000D03*
X110440000Y-82780000D03*
X133300000Y-82780000D03*
X135840000Y-82780000D03*
X105360000Y-85320000D03*
X107900000Y-85320000D03*
X110440000Y-85320000D03*
X133300000Y-85320000D03*
X135840000Y-85320000D03*
X105360000Y-87860000D03*
X107900000Y-87860000D03*
X110440000Y-87860000D03*
X112980000Y-87860000D03*
X115520000Y-87860000D03*
X118060000Y-87860000D03*
X120600000Y-87860000D03*
X123140000Y-87860000D03*
X125680000Y-87860000D03*
X128220000Y-87860000D03*
X130760000Y-87860000D03*
X133300000Y-87860000D03*
X135840000Y-87860000D03*
X105360000Y-90400000D03*
X107900000Y-90400000D03*
X110440000Y-90400000D03*
X112980000Y-90400000D03*
X115520000Y-90400000D03*
X118060000Y-90400000D03*
X120600000Y-90400000D03*
X123140000Y-90400000D03*
X125680000Y-90400000D03*
X128220000Y-90400000D03*
X130760000Y-90400000D03*
X133300000Y-90400000D03*
X135840000Y-90400000D03*
X105360000Y-92940000D03*
X107900000Y-92940000D03*
X110440000Y-92940000D03*
X112980000Y-92940000D03*
X115520000Y-92940000D03*
X118060000Y-92940000D03*
X120600000Y-92940000D03*
X123140000Y-92940000D03*
X125680000Y-92940000D03*
X128220000Y-92940000D03*
X130760000Y-92940000D03*
X133300000Y-92940000D03*
X135840000Y-92940000D03*
D13*
X102210000Y-57600000D03*
X104750000Y-57600000D03*
X134130000Y-98300000D03*
X136670000Y-98300000D03*
D20*
X146225000Y-88300000D03*
D28*
X148765000Y-88300000D03*
X151305000Y-88300000D03*
X153845000Y-88300000D03*
X156385000Y-88300000D03*
X158925000Y-88300000D03*
X161465000Y-88300000D03*
X164005000Y-88300000D03*
X166545000Y-88300000D03*
D13*
X127830000Y-98300000D03*
X130370000Y-98300000D03*
D20*
X146225000Y-84900000D03*
D28*
X148765000Y-84900000D03*
X151305000Y-84900000D03*
X153845000Y-84900000D03*
X156385000Y-84900000D03*
X158925000Y-84900000D03*
X161465000Y-84900000D03*
X164005000Y-84900000D03*
X166545000Y-84900000D03*
D29*
X142470000Y-67510000D03*
X145010000Y-67510000D03*
X147550000Y-67510000D03*
X150090000Y-67510000D03*
X152630000Y-67510000D03*
X155170000Y-67510000D03*
X157710000Y-67510000D03*
X160250000Y-67510000D03*
X162790000Y-67510000D03*
X165330000Y-67510000D03*
X165330000Y-59890000D03*
X162790000Y-59890000D03*
X160250000Y-59890000D03*
X157710000Y-59890000D03*
X155170000Y-59890000D03*
X152630000Y-59890000D03*
X150090000Y-59890000D03*
X147550000Y-59890000D03*
X145010000Y-59890000D03*
X142470000Y-59890000D03*
D20*
X79490000Y-77460000D03*
D28*
X82030000Y-77460000D03*
X84570000Y-77460000D03*
X87110000Y-77460000D03*
X89650000Y-77460000D03*
X92190000Y-77460000D03*
X94730000Y-77460000D03*
X97270000Y-77460000D03*
X99810000Y-77460000D03*
D13*
X121530000Y-98300000D03*
X124070000Y-98300000D03*
D30*
X131040000Y-82337800D03*
X129904100Y-94922300D03*
X131862600Y-96880800D03*
X143954600Y-84178000D03*
X157853600Y-87387000D03*
X146860000Y-80648400D03*
X138880000Y-80336300D03*
X99809500Y-89410500D03*
X92160000Y-93439900D03*
X190177300Y-61714500D03*
X106567100Y-57350300D03*
X102050000Y-63700000D03*
X96020400Y-75743300D03*
X106628200Y-58302900D03*
X82020000Y-81060000D03*
X106764000Y-71465700D03*
X103626400Y-66654400D03*
X103292300Y-68216800D03*
X107668700Y-59472200D03*
X188050000Y-79150000D03*
X170423200Y-59561100D03*
X89240000Y-72850000D03*
X84500000Y-73000000D03*
X117067600Y-64119200D03*
X169865500Y-80501000D03*
X103496700Y-62621300D03*
X122100000Y-59004700D03*
X108858000Y-60835100D03*
X104567000Y-100790000D03*
X206992000Y-100464000D03*
X161052100Y-101796000D03*
X78198700Y-100072000D03*
X152290300Y-81564900D03*
X102323000Y-99796600D03*
X109014300Y-94177800D03*
X118041000Y-75897300D03*
X106475300Y-86520700D03*
X113075000Y-84706900D03*
X77641500Y-75270700D03*
X192054600Y-65117900D03*
X97185800Y-81136400D03*
X88456300Y-58314000D03*
X101838400Y-65087400D03*
X88394400Y-64676800D03*
X102939310Y-76750200D03*
X207904800Y-57601900D03*
X97452700Y-89741700D03*
X152720248Y-71075500D03*
X100787500Y-88647300D03*
X134830900Y-71013700D03*
X151208800Y-71266100D03*
X114165500Y-71850200D03*
X160653000Y-78942700D03*
X179745100Y-77746500D03*
X166929900Y-68451000D03*
X93136200Y-80551300D03*
X90769100Y-66041600D03*
X82964200Y-88883900D03*
X184321800Y-63808100D03*
X88036400Y-65955700D03*
X118518000Y-98979000D03*
X109632000Y-101874000D03*
X149159000Y-101925000D03*
X117537500Y-96786000D03*
X170751800Y-111080000D03*
X118527200Y-109229800D03*
X112816400Y-94574700D03*
X98550000Y-59290000D03*
X98222000Y-86978600D03*
X96064200Y-93424000D03*
X95200000Y-87606700D03*
X119965000Y-76865100D03*
X98550000Y-69800000D03*
X119965000Y-73695500D03*
X151510500Y-79700000D03*
X112544200Y-78368400D03*
X86950000Y-70600000D03*
X140440000Y-73125800D03*
X102150000Y-83350000D03*
X93380000Y-73476700D03*
X181314000Y-123986000D03*
X85900000Y-73470380D03*
X95508400Y-123844000D03*
X111398700Y-88972300D03*
X118803000Y-119493000D03*
X83239900Y-121865000D03*
X85771200Y-123272800D03*
X113214200Y-109865500D03*
X91980200Y-81140700D03*
X94374800Y-110989000D03*
X112533200Y-73003800D03*
X179116400Y-68351900D03*
X174635300Y-93004900D03*
X138812000Y-77331000D03*
X115933600Y-75599400D03*
X99610000Y-75100000D03*
X131978600Y-75679600D03*
X103140000Y-81250000D03*
X138868000Y-82339800D03*
X139317000Y-59690900D03*
X77675000Y-127625000D03*
X172024600Y-124631600D03*
X169173100Y-60606100D03*
X178389400Y-57003500D03*
X184036600Y-59199000D03*
X155059200Y-96876500D03*
X162731200Y-93077100D03*
X167369700Y-57556700D03*
X77675000Y-125050000D03*
X184073400Y-60937700D03*
X140053100Y-57858100D03*
X156454000Y-98133500D03*
X165183600Y-93395700D03*
X165183600Y-70112800D03*
X77625000Y-122500000D03*
X187831100Y-68212800D03*
X128473300Y-77161100D03*
X152887400Y-65484100D03*
X168687500Y-73696400D03*
X160787800Y-74036900D03*
X186713400Y-105629800D03*
X191783300Y-80320000D03*
X187838100Y-83577300D03*
X80025300Y-75030800D03*
X122317200Y-63507600D03*
X95602000Y-66270900D03*
X90437800Y-95921400D03*
X180300400Y-73477400D03*
X163477500Y-119503000D03*
X167728400Y-74605800D03*
X140811800Y-69586200D03*
X139567000Y-79049300D03*
X180196400Y-79835300D03*
X161671400Y-77923600D03*
X162000000Y-91900000D03*
X77675000Y-120579000D03*
X162978100Y-82534300D03*
X200810000Y-93176000D03*
X145537600Y-82818500D03*
X94874400Y-121767400D03*
X114119000Y-113185000D03*
X94098300Y-118415000D03*
X126767600Y-88697200D03*
X110827000Y-100043300D03*
X172201000Y-84980000D03*
X84752300Y-121701700D03*
X158735000Y-97524000D03*
X121702600Y-87080300D03*
X124817000Y-113679800D03*
X91077600Y-113129000D03*
X120521500Y-94446300D03*
X91077600Y-107479400D03*
X137300000Y-79326800D03*
X192175500Y-99495500D03*
X164200000Y-101029000D03*
X137713800Y-72551200D03*
X202459000Y-100713000D03*
X164200000Y-134700000D03*
X77650000Y-135225000D03*
X134542270Y-78786700D03*
X186025800Y-111037700D03*
X188800000Y-97768000D03*
X77675000Y-137700000D03*
X203711000Y-97768000D03*
X187300000Y-95200000D03*
X204329000Y-95230000D03*
X166800000Y-95200000D03*
X121729000Y-140253000D03*
X84800000Y-71300000D03*
X77675000Y-139646000D03*
X106780300Y-68598400D03*
X139000000Y-144900000D03*
X130550000Y-146450000D03*
X83967800Y-136475000D03*
X140943800Y-115092500D03*
X181499700Y-114734000D03*
X154028800Y-140325500D03*
X136469100Y-102220000D03*
X84596400Y-133925000D03*
X112619900Y-101639000D03*
X154820200Y-109445200D03*
X132455900Y-137903200D03*
X116739100Y-89513900D03*
X85225000Y-131425000D03*
X82175000Y-128850000D03*
X125927900Y-96216900D03*
X140950400Y-144125900D03*
X117878800Y-98026500D03*
X81600000Y-126300000D03*
X120334800Y-109644100D03*
X117462100Y-109230600D03*
X81075000Y-123775000D03*
X118490500Y-96591300D03*
X111450700Y-91729000D03*
X113648200Y-107544500D03*
X76471700Y-148109000D03*
X119650000Y-149950000D03*
X97583300Y-121414000D03*
X97583300Y-107683300D03*
X84734100Y-94373600D03*
X120350000Y-147450000D03*
X82797800Y-116821100D03*
X106461400Y-91573000D03*
X77423500Y-147338000D03*
X84807100Y-115138400D03*
X103844700Y-92074400D03*
X120900000Y-144850000D03*
X86902800Y-94627500D03*
X78350000Y-146445000D03*
X121254900Y-95688400D03*
X114569000Y-86492800D03*
X121424000Y-141924000D03*
X126978800Y-106675600D03*
X79323200Y-145121000D03*
X121830000Y-107542900D03*
X116208600Y-86686700D03*
X122069000Y-139364000D03*
X85446400Y-106778000D03*
X86201100Y-95277200D03*
X80275000Y-144350000D03*
X93450000Y-62826700D03*
X99487000Y-110555000D03*
X110108300Y-59634600D03*
X82075000Y-119950000D03*
X82413900Y-99751400D03*
X95254000Y-115780000D03*
X122179700Y-95090200D03*
X108376800Y-112437800D03*
X126159600Y-110087000D03*
X120905000Y-85582700D03*
X113577300Y-99613000D03*
X83775000Y-114550000D03*
X83742800Y-101207000D03*
X93829000Y-117098000D03*
X84371400Y-111146000D03*
X84371400Y-102137000D03*
X91882000Y-120015000D03*
X85000000Y-109600000D03*
X126516200Y-95076100D03*
X189889000Y-103173000D03*
X128867100Y-84100900D03*
X109200000Y-106900000D03*
X132780800Y-103811100D03*
X189894000Y-83649700D03*
X129593300Y-117386100D03*
X124251000Y-89125200D03*
X99805700Y-115149000D03*
X172830000Y-71715000D03*
X122943400Y-95700900D03*
X77675000Y-130150000D03*
X130400000Y-57550000D03*
X166171000Y-102850000D03*
X190871000Y-103926000D03*
X77675000Y-132625000D03*
X129142500Y-58415366D03*
X166200000Y-132350000D03*
X144706700Y-142851200D03*
X163477500Y-133002500D03*
X123900000Y-142750000D03*
X181499700Y-128756900D03*
X137750000Y-152929000D03*
X124126000Y-109658400D03*
X181811800Y-113658400D03*
X133900000Y-153538000D03*
X89325000Y-143925000D03*
X132272100Y-109384800D03*
X168357100Y-91192000D03*
X82710600Y-141550000D03*
X178589900Y-91730300D03*
X152635000Y-150136100D03*
X148714000Y-151976000D03*
X83339200Y-139000000D03*
X106679800Y-95311000D03*
X203010000Y-62232000D03*
X207621000Y-77364000D03*
X191407700Y-63655100D03*
X204706400Y-91118400D03*
X88781000Y-130925000D03*
X128135000Y-109213000D03*
X93378200Y-95690700D03*
X95435800Y-103351600D03*
X91612600Y-95636100D03*
X96222000Y-108340800D03*
X93378200Y-101294000D03*
X215700000Y-115400000D03*
X189700000Y-115500000D03*
X178812600Y-100379200D03*
X126083600Y-76828700D03*
X116759200Y-77197000D03*
X116749281Y-69658646D03*
X77955300Y-80372400D03*
X115797700Y-109231600D03*
X152385000Y-96898600D03*
X94248500Y-81769400D03*
X115797700Y-101585100D03*
X92764500Y-110880100D03*
X131257200Y-106751600D03*
X116080200Y-117519900D03*
X131257200Y-117754600D03*
X78869000Y-80997000D03*
X100021100Y-93204500D03*
X146479300Y-106675600D03*
X105711600Y-95232400D03*
X87827600Y-59366500D03*
X122292800Y-91670000D03*
X97895000Y-57247600D03*
X111769000Y-69633700D03*
X86833300Y-66093800D03*
X129489400Y-99340400D03*
X78102000Y-79336700D03*
X81570100Y-75197000D03*
X124919572Y-69418572D03*
X125959900Y-85378700D03*
X114250100Y-60819100D03*
X137900000Y-69700000D03*
X109002600Y-75927900D03*
X147977700Y-71565400D03*
X111557600Y-76654200D03*
X99010000Y-81470000D03*
X102460000Y-78860000D03*
X142277300Y-86677500D03*
X150276200Y-83666000D03*
X142815500Y-85165100D03*
X131922100Y-94138400D03*
X134819300Y-91989900D03*
X142932200Y-88693900D03*
X129428200Y-77437500D03*
X103782300Y-85417100D03*
X137301600Y-94313800D03*
X164263900Y-86719400D03*
X142818800Y-83104100D03*
X144206300Y-82688500D03*
X139607600Y-89214600D03*
X128903900Y-96185600D03*
X134792900Y-93991300D03*
D31*
X128105800Y-91390800D02*
X127741600Y-91390800D01*
X143387100Y-101223200D02*
X143156500Y-101453800D01*
X143156500Y-101453800D02*
X138316500Y-101453800D01*
X154925000Y-100025000D02*
X154925000Y-98596300D01*
X135482200Y-98619500D02*
X135482200Y-98123900D01*
X138316500Y-101453800D02*
X135482200Y-98619500D01*
X129490100Y-88075900D02*
X129490100Y-86589900D01*
X144313000Y-98596300D02*
X143387100Y-99522200D01*
X127222200Y-89967300D02*
X127974900Y-89214600D01*
X129674100Y-94692300D02*
X129674100Y-92959100D01*
X129904100Y-94922300D02*
X129674100Y-94692300D01*
X154925000Y-98596300D02*
X144313000Y-98596300D01*
X127222200Y-90871400D02*
X127222200Y-89967300D01*
X135482200Y-98123900D02*
X134239100Y-96880800D01*
X134239100Y-96880800D02*
X131862600Y-96880800D01*
X128351400Y-89214600D02*
X129490100Y-88075900D01*
X143387100Y-99522200D02*
X143387100Y-101223200D01*
X131040000Y-85040000D02*
X131040000Y-82337800D01*
X127741600Y-91390800D02*
X127222200Y-90871400D01*
X129674100Y-92959100D02*
X128105800Y-91390800D01*
X127974900Y-89214600D02*
X128351400Y-89214600D01*
X129490100Y-86589900D02*
X131040000Y-85040000D01*
X157853600Y-87387000D02*
X158368500Y-86872100D01*
X145798100Y-83447200D02*
X144920500Y-83447200D01*
X164269200Y-86090700D02*
X165033700Y-85326200D01*
X146235100Y-83010200D02*
X145798100Y-83447200D01*
X165033700Y-85326200D02*
X165033700Y-84473800D01*
X162564900Y-83010200D02*
X146235100Y-83010200D01*
X144189700Y-84178000D02*
X143954600Y-84178000D01*
X158368500Y-86872100D02*
X163222100Y-86872100D01*
X144920500Y-83447200D02*
X144189700Y-84178000D01*
X163722900Y-83163000D02*
X162717700Y-83163000D01*
X164003500Y-86090700D02*
X164269200Y-86090700D01*
X165033700Y-84473800D02*
X163722900Y-83163000D01*
X162717700Y-83163000D02*
X162564900Y-83010200D01*
X163222100Y-86872100D02*
X164003500Y-86090700D01*
X143741400Y-80970200D02*
X143150900Y-81560700D01*
X140627600Y-81560700D02*
X139401200Y-80334300D01*
X139401200Y-80334300D02*
X138882000Y-80334300D01*
X138882000Y-80334300D02*
X138880000Y-80336300D01*
X146860000Y-80648400D02*
X146538200Y-80970200D01*
X143150900Y-81560700D02*
X140627600Y-81560700D01*
X146538200Y-80970200D02*
X143741400Y-80970200D01*
X96331800Y-90862600D02*
X93754500Y-93439900D01*
X180296700Y-59835900D02*
X177039200Y-56578400D01*
X99809500Y-89410500D02*
X98357400Y-90862600D01*
X93754500Y-93439900D02*
X92160000Y-93439900D01*
X188298700Y-59835900D02*
X180296700Y-59835900D01*
X177039200Y-56578400D02*
X107339000Y-56578400D01*
X107339000Y-56578400D02*
X106567100Y-57350300D01*
X190177300Y-61714500D02*
X188298700Y-59835900D01*
X98357400Y-90862600D02*
X96331800Y-90862600D01*
X86240000Y-75790000D02*
X95973700Y-75790000D01*
X84570000Y-77460000D02*
X86240000Y-75790000D01*
X102050000Y-63181696D02*
X103239096Y-61992600D01*
X71135600Y-129201000D02*
X71135600Y-77664400D01*
X71225000Y-77575000D02*
X71225000Y-77570100D01*
X73325000Y-131390000D02*
X71135600Y-129201000D01*
X77938600Y-76971400D02*
X78607160Y-76302840D01*
X71225000Y-77570100D02*
X71823700Y-76971400D01*
X83412840Y-76302840D02*
X84570000Y-77460000D01*
X102050000Y-63700000D02*
X102050000Y-63181696D01*
X71823700Y-76971400D02*
X77938600Y-76971400D01*
X103239096Y-61992600D02*
X103901900Y-61992600D01*
X95973700Y-75790000D02*
X96020400Y-75743300D01*
X104369300Y-62460000D02*
X103901900Y-61992600D01*
X71135600Y-77664400D02*
X71225000Y-77575000D01*
X78607160Y-76302840D02*
X83412840Y-76302840D01*
X105360000Y-62460000D02*
X104369300Y-62460000D01*
X100320000Y-79025000D02*
X100900000Y-78445000D01*
X100900000Y-75657100D02*
X105091400Y-71465700D01*
X99208140Y-60265560D02*
X81734440Y-60265560D01*
X73190200Y-132851300D02*
X73325000Y-132851300D01*
X72250000Y-63000000D02*
X70796900Y-64453100D01*
X100900000Y-78445000D02*
X100900000Y-75657100D01*
X105091400Y-71465700D02*
X106764000Y-71465700D01*
X81734440Y-60265560D02*
X79000000Y-63000000D01*
X106628200Y-58302900D02*
X105773300Y-59157800D01*
X105773300Y-59157800D02*
X100315900Y-59157800D01*
X70796900Y-64453100D02*
X70796900Y-130458000D01*
X92328394Y-80290000D02*
X93593394Y-79025000D01*
X70796900Y-130458000D02*
X73190200Y-132851300D01*
X82790000Y-80290000D02*
X92328394Y-80290000D01*
X79000000Y-63000000D02*
X72250000Y-63000000D01*
X73325000Y-132851300D02*
X73325000Y-133930000D01*
X93593394Y-79025000D02*
X100320000Y-79025000D01*
X82020000Y-81060000D02*
X82790000Y-80290000D01*
X100315900Y-59157800D02*
X99208140Y-60265560D01*
X141153900Y-57646500D02*
X140313600Y-58486800D01*
X103626400Y-66654400D02*
X104474400Y-66654400D01*
D32*
X188050000Y-79150000D02*
X188555200Y-78644800D01*
D31*
X139632000Y-58486800D02*
X138487400Y-59631400D01*
X140313600Y-58486800D02*
X139632000Y-58486800D01*
X84500000Y-73000000D02*
X84656331Y-72843669D01*
X89233669Y-72843669D02*
X89240000Y-72850000D01*
X108135000Y-59005900D02*
X107668700Y-59472200D01*
X89240000Y-72850000D02*
X98659100Y-72850000D01*
X104474400Y-66654400D02*
X105360000Y-67540000D01*
X111010200Y-59631400D02*
X110384700Y-59005900D01*
X166360000Y-57646500D02*
X141153900Y-57646500D01*
X110384700Y-59005900D02*
X108135000Y-59005900D01*
X170423200Y-59561100D02*
X168274600Y-59561100D01*
X168274600Y-59561100D02*
X166360000Y-57646500D01*
X98659100Y-72850000D02*
X103292300Y-68216800D01*
D32*
X188555200Y-78644800D02*
X193696700Y-78644800D01*
D31*
X138487400Y-59631400D02*
X111010200Y-59631400D01*
X84656331Y-72843669D02*
X89233669Y-72843669D01*
X133215800Y-56884200D02*
X131057923Y-59042077D01*
X116678400Y-63730000D02*
X104605400Y-63730000D01*
X175789500Y-56884200D02*
X133215800Y-56884200D01*
X117067600Y-64119200D02*
X116678400Y-63730000D01*
X179770100Y-60864800D02*
X175789500Y-56884200D01*
X182070000Y-60864800D02*
X179770100Y-60864800D01*
X104605400Y-63730000D02*
X103496700Y-62621300D01*
X166545000Y-81680000D02*
X168686500Y-81680000D01*
X131057923Y-59042077D02*
X122137377Y-59042077D01*
X122137377Y-59042077D02*
X122100000Y-59004700D01*
X168686500Y-81680000D02*
X169865500Y-80501000D01*
D32*
X97604312Y-63048280D02*
X100702865Y-63048280D01*
X149610000Y-71158630D02*
X149151370Y-70700000D01*
X153700000Y-69600000D02*
X153700000Y-66996010D01*
X140950000Y-70700000D02*
X141000000Y-70700000D01*
X149610000Y-71290000D02*
X150500000Y-70400000D01*
X77100000Y-66200000D02*
X77100000Y-64403978D01*
X107900000Y-67540000D02*
X108937511Y-68577511D01*
X102916045Y-60835100D02*
X108858000Y-60835100D01*
X80792441Y-63957559D02*
X81051631Y-63698369D01*
X100702865Y-63048280D02*
X102916045Y-60835100D01*
X153700000Y-66996010D02*
X159209690Y-61486320D01*
X77100000Y-64403978D02*
X77546419Y-63957559D01*
X172945792Y-58324800D02*
X174450000Y-58324800D01*
X88876209Y-63698369D02*
X89200000Y-64022160D01*
X149151370Y-70700000D02*
X141000000Y-70700000D01*
D33*
X141000000Y-70700000D02*
X140987285Y-70700000D01*
D32*
X75865000Y-67435000D02*
X77100000Y-66200000D01*
X89200000Y-64022160D02*
X96630432Y-64022160D01*
X77546419Y-63957559D02*
X80792441Y-63957559D01*
X150500000Y-70400000D02*
X152900000Y-70400000D01*
X159209690Y-61486320D02*
X169784272Y-61486320D01*
X169784272Y-61486320D02*
X172945792Y-58324800D01*
X152900000Y-70400000D02*
X153700000Y-69600000D01*
X81051631Y-63698369D02*
X88876209Y-63698369D01*
X138827511Y-68577511D02*
X140950000Y-70700000D01*
X96630432Y-64022160D02*
X97604312Y-63048280D01*
X108937511Y-68577511D02*
X138827511Y-68577511D01*
X149610000Y-72290000D02*
X149610000Y-71158630D01*
D31*
X104567000Y-105081000D02*
X104567000Y-103729000D01*
X157914000Y-103164000D02*
X159282000Y-101796000D01*
X159282000Y-101796000D02*
X161052100Y-101796000D01*
X97822700Y-100790000D02*
X104567000Y-100790000D01*
X161052100Y-101796000D02*
X193566000Y-101796000D01*
X194020000Y-101342000D02*
X206114000Y-101342000D01*
X82722700Y-99122800D02*
X83046500Y-99446600D01*
X206114000Y-101342000D02*
X206992000Y-100464000D01*
X104567000Y-103729000D02*
X105131000Y-103164000D01*
X75865000Y-103450000D02*
X77792000Y-103450000D01*
X105131000Y-103164000D02*
X157914000Y-103164000D01*
X82119200Y-99122800D02*
X82722700Y-99122800D01*
X83046500Y-99446600D02*
X96479600Y-99446600D01*
X193566000Y-101796000D02*
X194020000Y-101342000D01*
X96479600Y-99446600D02*
X97822700Y-100790000D01*
X77792000Y-103450000D02*
X82119200Y-99122800D01*
X133395000Y-91390800D02*
X132030100Y-92755700D01*
X102027000Y-105081000D02*
X102027000Y-103652300D01*
X123699300Y-97159200D02*
X122558800Y-98299700D01*
X151665400Y-82189800D02*
X145277200Y-82189800D01*
X135109400Y-91390800D02*
X135079800Y-91361200D01*
X114807400Y-100672000D02*
X106436000Y-100672000D01*
X106436000Y-100672000D02*
X103455700Y-103652300D01*
X143174000Y-84069600D02*
X143012300Y-84069600D01*
X130164600Y-95551000D02*
X128648000Y-95551000D01*
X122558800Y-98726300D02*
X120738500Y-100546600D01*
X96605800Y-99141800D02*
X97260600Y-99796600D01*
X134529300Y-91390800D02*
X133395000Y-91390800D01*
X143174000Y-84069500D02*
X143174000Y-84069600D01*
X120738500Y-100546600D02*
X114932800Y-100546600D01*
X132030100Y-93094600D02*
X130532800Y-94591900D01*
X141343700Y-85738200D02*
X141343700Y-86298500D01*
X144234700Y-83549300D02*
X143694200Y-83549300D01*
X128648000Y-95551000D02*
X127039800Y-97159200D01*
X152290300Y-81564900D02*
X151665400Y-82189800D01*
X135079800Y-91361200D02*
X134558900Y-91361200D01*
X83172700Y-99141800D02*
X96605800Y-99141800D01*
X144908900Y-82875100D02*
X144234700Y-83549300D01*
X132030100Y-92755700D02*
X132030100Y-93094600D01*
X130532800Y-95182800D02*
X130164600Y-95551000D01*
X134558900Y-91361200D02*
X134529300Y-91390800D01*
X114932800Y-100546600D02*
X114807400Y-100672000D01*
X143694200Y-83549300D02*
X143174000Y-84069500D01*
X81993000Y-98818000D02*
X82848900Y-98818000D01*
X130532800Y-94591900D02*
X130532800Y-95182800D01*
X144908900Y-82558100D02*
X144908900Y-82875100D01*
X97260600Y-99796600D02*
X102323000Y-99796600D01*
X82848900Y-98818000D02*
X83172700Y-99141800D01*
X136251400Y-91390800D02*
X135109400Y-91390800D01*
X122558800Y-98299700D02*
X122558800Y-98726300D01*
X79328000Y-98942800D02*
X81868200Y-98942800D01*
X141343700Y-86298500D02*
X136251400Y-91390800D01*
X143012300Y-84069600D02*
X141343700Y-85738200D01*
X103455700Y-103652300D02*
X102027000Y-103652300D01*
X145277200Y-82189800D02*
X144908900Y-82558100D01*
X127039800Y-97159200D02*
X123699300Y-97159200D01*
X78198700Y-100072000D02*
X79328000Y-98942800D01*
X81868200Y-98942800D02*
X81993000Y-98818000D01*
X109014300Y-94177800D02*
X110868800Y-96032300D01*
X111261200Y-86520700D02*
X113075000Y-84706900D01*
X131718200Y-76308300D02*
X151055400Y-76308300D01*
X106475300Y-86520700D02*
X111261200Y-86520700D01*
X151055400Y-76308300D02*
X152080000Y-75283700D01*
X114727000Y-97461000D02*
X114727000Y-96032300D01*
X98270900Y-87860000D02*
X105360000Y-87860000D01*
X155170000Y-69550000D02*
X155170000Y-67510000D01*
X131022200Y-75612300D02*
X131718200Y-76308300D01*
X72500000Y-86800000D02*
X76563900Y-86800000D01*
X152080000Y-75283700D02*
X152080000Y-72640000D01*
X72050300Y-122495000D02*
X72054300Y-87245700D01*
X110868800Y-96032300D02*
X114727000Y-96032300D01*
X73325000Y-123770000D02*
X72050300Y-122495000D01*
X72054300Y-87245700D02*
X72500000Y-86800000D01*
X118041000Y-75897300D02*
X118326000Y-75612300D01*
X170903200Y-60864800D02*
X174450000Y-60864800D01*
X155170000Y-67510000D02*
X156719600Y-65960400D01*
X97896100Y-88234800D02*
X98270900Y-87860000D01*
X165807600Y-65960400D02*
X170903200Y-60864800D01*
X156719600Y-65960400D02*
X165807600Y-65960400D01*
X118326000Y-75612300D02*
X131022200Y-75612300D01*
X77998700Y-88234800D02*
X97896100Y-88234800D01*
X152080000Y-72640000D02*
X155170000Y-69550000D01*
X76563900Y-86800000D02*
X77998700Y-88234800D01*
X77252920Y-67375474D02*
X77898763Y-66729631D01*
X104013300Y-65720800D02*
X104283200Y-65990700D01*
X106761200Y-65000000D02*
X107900000Y-65000000D01*
X77252920Y-73773314D02*
X77252920Y-67375474D01*
X99335800Y-65873300D02*
X101302400Y-65873300D01*
X86476394Y-65327000D02*
X98789500Y-65327000D01*
X101454900Y-65720800D02*
X104013300Y-65720800D01*
X98789500Y-65327000D02*
X99335800Y-65873300D01*
X85073763Y-66729631D02*
X86476394Y-65327000D01*
X104283200Y-65990700D02*
X105770500Y-65990700D01*
X77641500Y-74161894D02*
X77252920Y-73773314D01*
X105770500Y-65990700D02*
X106761200Y-65000000D01*
X77641500Y-75270700D02*
X77641500Y-74161894D01*
X101302400Y-65873300D02*
X101454900Y-65720800D01*
X77898763Y-66729631D02*
X85073763Y-66729631D01*
X92420500Y-92811200D02*
X91899600Y-92811200D01*
X90797740Y-55972560D02*
X88456300Y-58314000D01*
X188332300Y-65117900D02*
X187505400Y-65944800D01*
X101808760Y-77880750D02*
X102939310Y-76750200D01*
X97021400Y-89741700D02*
X93793500Y-92969600D01*
X206275460Y-55972560D02*
X90797740Y-55972560D01*
X103540799Y-76148711D02*
X106911289Y-76148711D01*
X192054600Y-65117900D02*
X188332300Y-65117900D01*
X101808760Y-78821421D02*
X101808760Y-77880750D01*
X101211400Y-65087400D02*
X101838400Y-65087400D01*
X207904800Y-57601900D02*
X206275460Y-55972560D01*
X92578900Y-92969600D02*
X92420500Y-92811200D01*
X102939310Y-76750200D02*
X103540799Y-76148711D01*
X93793500Y-92969600D02*
X92578900Y-92969600D01*
X98723200Y-64676800D02*
X99563700Y-65517300D01*
X186076700Y-65944800D02*
X187505400Y-65944800D01*
X106911289Y-76148711D02*
X107900000Y-75160000D01*
X97322900Y-81136400D02*
X98255300Y-80204000D01*
X100781500Y-65517300D02*
X101211400Y-65087400D01*
X97185800Y-81136400D02*
X97322900Y-81136400D01*
X97452700Y-89741700D02*
X97021400Y-89741700D01*
X100426181Y-80204000D02*
X101808760Y-78821421D01*
X91899600Y-92811200D02*
X91420800Y-93290000D01*
X75865000Y-93290000D02*
X91420800Y-93290000D01*
X98255300Y-80204000D02*
X100426181Y-80204000D01*
X99563700Y-65517300D02*
X100781500Y-65517300D01*
X88394400Y-64676800D02*
X98723200Y-64676800D01*
X75865000Y-90750000D02*
X76943700Y-90750000D01*
X78864200Y-92670500D02*
X76943700Y-90750000D01*
X161995200Y-77294900D02*
X161411000Y-77294900D01*
X84979200Y-92201400D02*
X84510100Y-92670500D01*
X152720248Y-71075500D02*
X151399400Y-71075500D01*
X84510100Y-92670500D02*
X78864200Y-92670500D01*
X162300200Y-77599900D02*
X161995200Y-77294900D01*
X134602500Y-71242100D02*
X134830900Y-71013700D01*
X151399400Y-71075500D02*
X151208800Y-71266100D01*
X161411000Y-77294900D02*
X160653100Y-78052800D01*
X100787500Y-88647300D02*
X96337400Y-88647300D01*
X160653100Y-78942700D02*
X160653000Y-78942700D01*
X114165500Y-71850200D02*
X124682000Y-71850200D01*
X125290100Y-71242100D02*
X134602500Y-71242100D01*
X124682000Y-71850200D02*
X125290100Y-71242100D01*
X179598500Y-77599900D02*
X162300200Y-77599900D01*
X92783300Y-92201400D02*
X84979200Y-92201400D01*
X160653100Y-78052800D02*
X160653100Y-78942700D01*
X96337400Y-88647300D02*
X92783300Y-92201400D01*
X179745100Y-77746500D02*
X179598500Y-77599900D01*
X75865000Y-88210000D02*
X76943700Y-88210000D01*
X172021500Y-67810700D02*
X172021500Y-66476900D01*
X101202920Y-76777080D02*
X101202920Y-78570473D01*
X93788900Y-79898600D02*
X93136200Y-80551300D01*
X105360000Y-72620000D02*
X101202920Y-76777080D01*
X76943700Y-88210000D02*
X77617600Y-88883900D01*
X167358000Y-68879100D02*
X170953100Y-68879100D01*
X183825000Y-63808100D02*
X184321800Y-63808100D01*
X174063100Y-64435300D02*
X183197800Y-64435300D01*
X88122300Y-66041600D02*
X88036400Y-65955700D01*
X97541800Y-79594100D02*
X97237300Y-79898600D01*
X100179293Y-79594100D02*
X97541800Y-79594100D01*
X170953100Y-68879100D02*
X172021500Y-67810700D01*
X172021500Y-66476900D02*
X174063100Y-64435300D01*
X97237300Y-79898600D02*
X93788900Y-79898600D01*
X101202920Y-78570473D02*
X100179293Y-79594100D01*
X183197800Y-64435300D02*
X183825000Y-63808100D01*
X166929900Y-68451000D02*
X167358000Y-68879100D01*
X77617600Y-88883900D02*
X82964200Y-88883900D01*
X90769100Y-66041600D02*
X88122300Y-66041600D01*
X107273000Y-98979000D02*
X107107000Y-98813400D01*
X118518000Y-98979000D02*
X107273000Y-98979000D01*
X107107000Y-98813400D02*
X107107000Y-97461000D01*
X148224000Y-102860000D02*
X148713500Y-102370000D01*
X148714000Y-102370000D02*
X149159000Y-101925000D01*
X109632000Y-101874000D02*
X110618000Y-102860000D01*
X148713500Y-102370000D02*
X148714000Y-102370000D01*
X110618000Y-102860000D02*
X148224000Y-102860000D01*
X148713500Y-102370000D02*
X149203000Y-101880000D01*
X127467000Y-110073900D02*
X169745700Y-110073900D01*
X126394200Y-109001100D02*
X127467000Y-110073900D01*
X118755900Y-109001100D02*
X126394200Y-109001100D01*
X169745700Y-110073900D02*
X170751800Y-111080000D01*
X112816400Y-94574700D02*
X115326200Y-94574700D01*
X118527200Y-109229800D02*
X118755900Y-109001100D01*
X115326200Y-94574700D02*
X117537500Y-96786000D01*
X99014520Y-56275480D02*
X98550000Y-56740000D01*
X206676000Y-71024800D02*
X207267000Y-70433500D01*
X79713600Y-86978600D02*
X98222000Y-86978600D01*
X75865000Y-83130000D02*
X79713600Y-86978600D01*
X207267000Y-70433500D02*
X207267000Y-57548000D01*
X205994480Y-56275480D02*
X99014520Y-56275480D01*
X207267000Y-57548000D02*
X205994480Y-56275480D01*
X205323300Y-71024800D02*
X206676000Y-71024800D01*
X98550000Y-56740000D02*
X98550000Y-59290000D01*
X96064200Y-93424000D02*
X98877000Y-93424000D01*
X75865000Y-85670000D02*
X77801700Y-87606700D01*
X77801700Y-87606700D02*
X95200000Y-87606700D01*
X99487000Y-94034000D02*
X99487000Y-97461000D01*
X98877000Y-93424000D02*
X99487000Y-94034000D01*
X119965000Y-73695500D02*
X123268000Y-73695500D01*
X152794294Y-80320000D02*
X153060074Y-80585780D01*
X106758250Y-85320000D02*
X105645270Y-86432980D01*
X140382100Y-73183700D02*
X140440000Y-73125800D01*
X152120000Y-80309500D02*
X151510500Y-79700000D01*
X172329000Y-88797800D02*
X164114900Y-80583700D01*
X118461700Y-78368400D02*
X119965000Y-76865100D01*
X98550000Y-69800000D02*
X97750000Y-70600000D01*
X137365800Y-73183700D02*
X140382100Y-73183700D01*
X112544200Y-78368400D02*
X118461700Y-78368400D01*
X193696700Y-89303000D02*
X193191500Y-88797800D01*
X135402100Y-71646900D02*
X135486100Y-71562900D01*
X125416400Y-71547100D02*
X134475100Y-71547100D01*
X159655700Y-80583700D02*
X159653620Y-80585780D01*
X102443374Y-86432980D02*
X102150000Y-86139606D01*
X153060074Y-80585780D02*
X159653620Y-80585780D01*
X152120000Y-80320000D02*
X152120000Y-80309500D01*
X193191500Y-88797800D02*
X172329000Y-88797800D01*
X134475100Y-71547100D02*
X134574900Y-71646900D01*
X97750000Y-70600000D02*
X86950000Y-70600000D01*
X136976200Y-72244900D02*
X136976200Y-72794100D01*
X152794294Y-80320000D02*
X152120000Y-80320000D01*
X136976200Y-72794100D02*
X137365800Y-73183700D01*
X102150000Y-86139606D02*
X102150000Y-83350000D01*
X105645270Y-86432980D02*
X102443374Y-86432980D01*
X164114900Y-80583700D02*
X159655700Y-80583700D01*
X135486100Y-71562900D02*
X136294200Y-71562900D01*
X123268000Y-73695500D02*
X125416400Y-71547100D01*
X107900000Y-85320000D02*
X106758250Y-85320000D01*
X134574900Y-71646900D02*
X135402100Y-71646900D01*
X136294200Y-71562900D02*
X136976200Y-72244900D01*
X173688000Y-119444000D02*
X172659000Y-118415000D01*
X90407500Y-123272800D02*
X90978700Y-123844000D01*
X118836000Y-119460000D02*
X118803000Y-119493000D01*
X73460000Y-137931300D02*
X73325000Y-137931300D01*
X102496500Y-76123500D02*
X101505840Y-77114160D01*
X97655300Y-80372700D02*
X94756100Y-80372700D01*
X105508000Y-73610800D02*
X102995300Y-76123500D01*
X75356100Y-122691200D02*
X74403700Y-123643600D01*
X76334700Y-122691200D02*
X75356100Y-122691200D01*
X112533200Y-73003800D02*
X111117600Y-71588200D01*
X90978700Y-123844000D02*
X95508400Y-123844000D01*
X123878000Y-119460000D02*
X118836000Y-119460000D01*
X177020000Y-120071000D02*
X176392000Y-119444000D01*
X108890800Y-73093000D02*
X108373000Y-73610800D01*
X93380000Y-73476700D02*
X85906320Y-73476700D01*
X177020000Y-121134000D02*
X177020000Y-120071000D01*
X108373000Y-73610800D02*
X105508000Y-73610800D01*
X148459000Y-118415000D02*
X133697000Y-118415000D01*
X175040000Y-119444000D02*
X173688000Y-119444000D01*
X95476800Y-109887000D02*
X94374800Y-110989000D01*
X94756100Y-80372700D02*
X93948700Y-81180100D01*
X108890800Y-72752800D02*
X108890800Y-73093000D01*
X93948700Y-81180100D02*
X92019600Y-81180100D01*
X85771200Y-123272800D02*
X90407500Y-123272800D01*
X133697000Y-118415000D02*
X131533000Y-120579000D01*
X110055400Y-71588200D02*
X108890800Y-72752800D01*
X100302687Y-79899100D02*
X98128900Y-79899100D01*
X154356000Y-119444000D02*
X150840400Y-119444000D01*
X149488000Y-119444000D02*
X148459000Y-118415000D01*
X111117600Y-71588200D02*
X110055400Y-71588200D01*
X179872000Y-123986000D02*
X177020000Y-121134000D01*
X131533000Y-120579000D02*
X124997000Y-120579000D01*
X73325000Y-139010000D02*
X73325000Y-137931300D01*
X102995300Y-76123500D02*
X102496500Y-76123500D01*
X181314000Y-123986000D02*
X179872000Y-123986000D01*
X111398700Y-88972300D02*
X109012300Y-88972300D01*
X77160900Y-121865000D02*
X76334700Y-122691200D01*
X98128900Y-79899100D02*
X97655300Y-80372700D01*
X172659000Y-118415000D02*
X155385000Y-118415000D01*
X176392000Y-119444000D02*
X175040000Y-119444000D01*
X150840400Y-119444000D02*
X149488000Y-119444000D01*
X85906320Y-73476700D02*
X85900000Y-73470380D01*
X74403700Y-123643600D02*
X74403700Y-136987600D01*
X124997000Y-120579000D02*
X123878000Y-119460000D01*
X109012300Y-88972300D02*
X107900000Y-87860000D01*
X113214200Y-109865500D02*
X113192700Y-109887000D01*
X101505840Y-77114160D02*
X101505840Y-78695947D01*
X101505840Y-78695947D02*
X100302687Y-79899100D01*
X113192700Y-109887000D02*
X95476800Y-109887000D01*
X83239900Y-121865000D02*
X77160900Y-121865000D01*
X74403700Y-136987600D02*
X73460000Y-137931300D01*
X155385000Y-118415000D02*
X154356000Y-119444000D01*
X92019600Y-81180100D02*
X91980200Y-81140700D01*
X123790300Y-100851500D02*
X115059200Y-100851500D01*
X174635300Y-93004900D02*
X174078800Y-92448400D01*
X150030800Y-96552700D02*
X141975600Y-96552700D01*
X150335700Y-96247800D02*
X150030800Y-96552700D01*
X114900500Y-101010200D02*
X106713400Y-101010200D01*
X115059200Y-100851500D02*
X114900500Y-101010200D01*
X174078800Y-92448400D02*
X162470800Y-92448400D01*
X131099600Y-95942900D02*
X130153800Y-96888700D01*
X106713400Y-101010200D02*
X103500300Y-104223300D01*
X180253500Y-67214800D02*
X179116400Y-68351900D01*
X141365800Y-95942900D02*
X131099600Y-95942900D01*
X104068600Y-106509700D02*
X107107000Y-106509700D01*
X127753100Y-96888700D02*
X123790300Y-100851500D01*
X107107000Y-105081000D02*
X107107000Y-106509700D01*
X141975600Y-96552700D02*
X141365800Y-95942900D01*
X191778400Y-65944800D02*
X190508400Y-67214800D01*
X158671400Y-96247800D02*
X150335700Y-96247800D01*
X191778400Y-65944800D02*
X193696700Y-65944800D01*
X130153800Y-96888700D02*
X127753100Y-96888700D01*
X190508400Y-67214800D02*
X180253500Y-67214800D01*
X103500300Y-104223300D02*
X103500300Y-105941400D01*
X162470800Y-92448400D02*
X158671400Y-96247800D01*
X103500300Y-105941400D02*
X104068600Y-106509700D01*
X138821000Y-77340000D02*
X138812000Y-77331000D01*
X103140000Y-81250000D02*
X106890000Y-81250000D01*
X106890000Y-81250000D02*
X107900000Y-80240000D01*
X155340000Y-74100000D02*
X155340000Y-76760000D01*
X78440080Y-75999920D02*
X77773600Y-76666400D01*
X116264400Y-75268600D02*
X115933600Y-75599400D01*
X75417600Y-76666400D02*
X74786300Y-76035100D01*
X77773600Y-76666400D02*
X75417600Y-76666400D01*
X131978600Y-75679600D02*
X131567600Y-75268600D01*
X153760000Y-72520000D02*
X155340000Y-74100000D01*
X74786300Y-74048700D02*
X75865000Y-72970000D01*
X99610000Y-75100000D02*
X85159840Y-75100000D01*
X155340000Y-76760000D02*
X154760000Y-77340000D01*
X85159840Y-75100000D02*
X84259920Y-75999920D01*
X154760000Y-77340000D02*
X138821000Y-77340000D01*
X84259920Y-75999920D02*
X78440080Y-75999920D01*
X74786300Y-76035100D02*
X74786300Y-74048700D01*
X131567600Y-75268600D02*
X116264400Y-75268600D01*
X151056100Y-61463900D02*
X152630000Y-59890000D01*
X88977784Y-64373880D02*
X96776120Y-64373880D01*
X75865000Y-75510000D02*
X76950000Y-74425000D01*
X79673289Y-66426711D02*
X82049911Y-64050089D01*
X96776120Y-64373880D02*
X97750000Y-63400000D01*
X76950000Y-74425000D02*
X76950000Y-67250000D01*
X77773289Y-66426711D02*
X79673289Y-66426711D01*
X82049911Y-64050089D02*
X88653993Y-64050089D01*
X76950000Y-67250000D02*
X77773289Y-66426711D01*
X88653993Y-64050089D02*
X88977784Y-64373880D01*
X97750000Y-63400000D02*
X101100000Y-63400000D01*
X101100000Y-63400000D02*
X103036100Y-61463900D01*
X103036100Y-61463900D02*
X151056100Y-61463900D01*
X139700000Y-83171800D02*
X138868000Y-82339800D01*
D34*
X190772000Y-138442000D02*
X185387000Y-138442000D01*
X216850000Y-83804800D02*
X214640000Y-83804800D01*
X212100000Y-81264800D02*
X209230000Y-81264800D01*
X214640000Y-83804800D02*
X212100000Y-81264800D01*
D32*
X218300000Y-86344800D02*
X216850000Y-86344800D01*
X221459000Y-83185800D02*
X218300000Y-86344800D01*
X221459000Y-79525000D02*
X221459000Y-83185800D01*
D31*
X139540900Y-59690900D02*
X141280400Y-57951400D01*
X139800000Y-128100000D02*
X138764000Y-127064000D01*
X165368400Y-57951400D02*
X168023100Y-60606100D01*
X108750000Y-128200000D02*
X94100000Y-128200000D01*
X133061000Y-128250000D02*
X124550000Y-128250000D01*
X168023100Y-60606100D02*
X169173100Y-60606100D01*
X139317000Y-59690900D02*
X139540900Y-59690900D01*
X111400000Y-127063600D02*
X109886400Y-127063600D01*
X77675000Y-127625000D02*
X86658600Y-127625000D01*
X138764000Y-127064000D02*
X135600400Y-127064000D01*
X197703300Y-58324800D02*
X196274600Y-58324800D01*
X109886400Y-127063600D02*
X109866000Y-127084000D01*
X172763800Y-127063600D02*
X173810100Y-128109900D01*
X94100000Y-128200000D02*
X92983600Y-127084000D01*
X135600400Y-127064000D02*
X134248000Y-127064000D01*
X159800000Y-127063600D02*
X172763800Y-127063600D01*
X141280400Y-57951400D02*
X165368400Y-57951400D01*
X176494300Y-126576100D02*
X175711800Y-125793600D01*
X173186600Y-125793600D02*
X172024600Y-124631600D01*
X109866000Y-127084000D02*
X108750000Y-128200000D01*
X159799600Y-127064000D02*
X158448000Y-127064000D01*
X158448000Y-127064000D02*
X157411000Y-128100000D01*
X173810100Y-128109900D02*
X175971300Y-128109900D01*
X134248000Y-127064000D02*
X133061000Y-128250000D01*
X175711800Y-125793600D02*
X173186600Y-125793600D01*
X123384000Y-127084000D02*
X109866000Y-127084000D01*
X175971300Y-128109900D02*
X176494300Y-127586900D01*
X124550000Y-128250000D02*
X123384000Y-127084000D01*
X196274600Y-58324800D02*
X194953300Y-57003500D01*
X176494300Y-127586900D02*
X176494300Y-126576100D01*
X194953300Y-57003500D02*
X178389400Y-57003500D01*
X92983600Y-127084000D02*
X87200000Y-127084000D01*
X157411000Y-128100000D02*
X139800000Y-128100000D01*
X159218000Y-96590300D02*
X155345400Y-96590300D01*
X130650000Y-125800000D02*
X131926000Y-124524000D01*
X183117500Y-61893600D02*
X180367500Y-61893600D01*
X110068400Y-124523600D02*
X110048000Y-124544000D01*
X140580800Y-57330400D02*
X140053100Y-57858100D01*
X141674000Y-124524000D02*
X142702000Y-125552000D01*
X175726300Y-57252400D02*
X167426200Y-57252400D01*
X167348200Y-57535200D02*
X167369700Y-57556700D01*
X154445000Y-124524000D02*
X159799600Y-124524000D01*
X135600400Y-124524000D02*
X141674000Y-124524000D01*
X153417000Y-125552000D02*
X154445000Y-124524000D01*
X197703300Y-60864800D02*
X196274600Y-60864800D01*
X184073400Y-60937700D02*
X183117500Y-61893600D01*
X94400000Y-125800000D02*
X108791000Y-125800000D01*
X77675000Y-125050000D02*
X86673600Y-125050000D01*
X167426200Y-57252400D02*
X167348200Y-57330400D01*
X108791000Y-125800000D02*
X110048000Y-124544000D01*
X93143600Y-124544000D02*
X94400000Y-125800000D01*
X184273700Y-59436100D02*
X184036600Y-59199000D01*
X87200000Y-124544000D02*
X93143600Y-124544000D01*
X194845900Y-59436100D02*
X184273700Y-59436100D01*
X162731200Y-93077100D02*
X159218000Y-96590300D01*
X131926000Y-124524000D02*
X135600400Y-124524000D01*
X180367500Y-61893600D02*
X175726300Y-57252400D01*
X196274600Y-60864800D02*
X194845900Y-59436100D01*
X167348200Y-57330400D02*
X140580800Y-57330400D01*
X111400000Y-124523600D02*
X110068400Y-124523600D01*
X155345400Y-96590300D02*
X155059200Y-96876500D01*
X110048000Y-124544000D02*
X123144000Y-124544000D01*
X167348200Y-57330400D02*
X167348200Y-57535200D01*
X142702000Y-125552000D02*
X153417000Y-125552000D01*
X124400000Y-125800000D02*
X130650000Y-125800000D01*
X123144000Y-124544000D02*
X124400000Y-125800000D01*
X166036200Y-69260200D02*
X171552800Y-69260200D01*
X159799600Y-121984000D02*
X158448000Y-121984000D01*
X94700000Y-123200000D02*
X93503600Y-122004000D01*
X143200000Y-121950000D02*
X143166000Y-121984000D01*
X183472800Y-64794100D02*
X183777700Y-64489200D01*
X197703300Y-63404800D02*
X196274600Y-63404800D01*
X195190200Y-64489200D02*
X196274600Y-63404800D01*
X135600400Y-121984000D02*
X132116000Y-121984000D01*
X165183600Y-70112800D02*
X166036200Y-69260200D01*
X163301800Y-93395700D02*
X165183600Y-93395700D01*
X157692300Y-96895200D02*
X159802300Y-96895200D01*
X183777700Y-64489200D02*
X195190200Y-64489200D01*
X86683600Y-122500000D02*
X77625000Y-122500000D01*
X158448000Y-121984000D02*
X157419000Y-123012000D01*
X123054000Y-122004000D02*
X111379600Y-122004000D01*
X111379600Y-122004000D02*
X109377000Y-122004000D01*
X93503600Y-122004000D02*
X87200000Y-122004000D01*
X109377000Y-122004000D02*
X109073000Y-122308000D01*
X132116000Y-121984000D02*
X130750000Y-123350000D01*
X177586700Y-67214800D02*
X180007400Y-64794100D01*
X156454000Y-98133500D02*
X157692300Y-96895200D01*
X180007400Y-64794100D02*
X183472800Y-64794100D01*
X159802300Y-96895200D02*
X163301800Y-93395700D01*
X144262000Y-123012000D02*
X143200000Y-121950000D01*
X124400000Y-123350000D02*
X123054000Y-122004000D01*
X173598200Y-67214800D02*
X177586700Y-67214800D01*
X104692000Y-122308000D02*
X103800000Y-123200000D01*
X130750000Y-123350000D02*
X124400000Y-123350000D01*
X103800000Y-123200000D02*
X94700000Y-123200000D01*
X143166000Y-121984000D02*
X135600400Y-121984000D01*
X157419000Y-123012000D02*
X144262000Y-123012000D01*
X109073000Y-122308000D02*
X104692000Y-122308000D01*
X171552800Y-69260200D02*
X173598200Y-67214800D01*
X126640000Y-124544000D02*
X125163000Y-124544000D01*
X101957000Y-80508900D02*
X98699604Y-80508900D01*
X112207300Y-78920600D02*
X112283800Y-78997100D01*
X126716900Y-77161100D02*
X128473300Y-77161100D01*
X96808504Y-82400000D02*
X93600000Y-82400000D01*
X110100000Y-123350000D02*
X108906000Y-124544000D01*
X197703300Y-65944800D02*
X196274600Y-65944800D01*
X145450000Y-124500000D02*
X144884000Y-124500000D01*
X126344100Y-77533900D02*
X126716900Y-77161100D01*
X78172320Y-82072320D02*
X77950000Y-81850000D01*
X118671600Y-78997100D02*
X120134800Y-77533900D01*
X175039600Y-124524000D02*
X173688000Y-124524000D01*
X143879000Y-123495000D02*
X131605000Y-123495000D01*
X172659000Y-123495000D02*
X154255000Y-123495000D01*
X74600000Y-84395000D02*
X73325000Y-85670000D01*
X194858200Y-67361200D02*
X190945900Y-67361200D01*
X120134800Y-77533900D02*
X126344100Y-77533900D01*
X190945900Y-67361200D02*
X190094300Y-68212800D01*
X154255000Y-123495000D02*
X153226000Y-124524000D01*
X145474000Y-124524000D02*
X145450000Y-124500000D01*
X190094300Y-68212800D02*
X187831100Y-68212800D01*
X93600000Y-82400000D02*
X93272320Y-82072320D01*
X125163000Y-124544000D02*
X123969000Y-123350000D01*
X131605000Y-123495000D02*
X130556000Y-124544000D01*
X130556000Y-124544000D02*
X126640000Y-124544000D01*
X173688000Y-124524000D02*
X172659000Y-123495000D01*
X144884000Y-124500000D02*
X143879000Y-123495000D01*
X112283800Y-78997100D02*
X118671600Y-78997100D01*
X103545300Y-78920600D02*
X112207300Y-78920600D01*
X123969000Y-123350000D02*
X110100000Y-123350000D01*
X108906000Y-124544000D02*
X102440000Y-124544000D01*
X196274600Y-65944800D02*
X194858200Y-67361200D01*
X101957000Y-80508900D02*
X103545300Y-78920600D01*
X93272320Y-82072320D02*
X78172320Y-82072320D01*
X75000000Y-81850000D02*
X74600000Y-82250000D01*
X77950000Y-81850000D02*
X75000000Y-81850000D01*
X150839600Y-124524000D02*
X145474000Y-124524000D01*
X153226000Y-124524000D02*
X150839600Y-124524000D01*
X98699604Y-80508900D02*
X96808504Y-82400000D01*
X74600000Y-82250000D02*
X74600000Y-84395000D01*
X173688000Y-127064000D02*
X172529000Y-125905000D01*
X131715000Y-126035000D02*
X130666000Y-127084000D01*
X130666000Y-127084000D02*
X126640000Y-127084000D01*
X150839600Y-127064000D02*
X146736000Y-127064000D01*
X140754800Y-66036700D02*
X141307400Y-65484100D01*
X141307400Y-65484100D02*
X152887400Y-65484100D01*
X146650000Y-127150000D02*
X145535000Y-126035000D01*
X110050000Y-125900000D02*
X108866000Y-127084000D01*
X161128300Y-73696400D02*
X168687500Y-73696400D01*
X146736000Y-127064000D02*
X146650000Y-127150000D01*
X195004600Y-69754800D02*
X172629100Y-69754800D01*
X160787800Y-74036900D02*
X161128300Y-73696400D01*
X172629100Y-69754800D02*
X168687500Y-73696400D01*
X175039600Y-127064000D02*
X173688000Y-127064000D01*
X126640000Y-127084000D02*
X125253000Y-127084000D01*
X145535000Y-126035000D02*
X131715000Y-126035000D01*
X153495000Y-125905000D02*
X152336000Y-127064000D01*
X124069000Y-125900000D02*
X110050000Y-125900000D01*
X134336700Y-66036700D02*
X140754800Y-66036700D01*
X152336000Y-127064000D02*
X150839600Y-127064000D01*
X197703300Y-68484800D02*
X196274600Y-68484800D01*
X133300000Y-65000000D02*
X134336700Y-66036700D01*
X172529000Y-125905000D02*
X153495000Y-125905000D01*
X108866000Y-127084000D02*
X102440000Y-127084000D01*
X196274600Y-68484800D02*
X195004600Y-69754800D01*
X125253000Y-127084000D02*
X124069000Y-125900000D01*
X126640000Y-134704000D02*
X131146000Y-134704000D01*
X117623000Y-134704000D02*
X126640000Y-134704000D01*
X88455600Y-66600500D02*
X90438900Y-66600500D01*
X122149300Y-64858300D02*
X122149300Y-64576100D01*
X131146000Y-134704000D02*
X132195000Y-133655000D01*
X182128400Y-129023900D02*
X182128400Y-114994500D01*
X102440000Y-134704000D02*
X108596000Y-134704000D01*
X132195000Y-133655000D02*
X138355000Y-133655000D01*
X150839600Y-134684000D02*
X153434000Y-134684000D01*
X109625000Y-133675000D02*
X109625000Y-133667000D01*
X173671000Y-134700000D02*
X173688000Y-134684000D01*
X91121500Y-67283100D02*
X103702000Y-67283100D01*
X107470500Y-66549200D02*
X120458400Y-66549200D01*
X103702000Y-67283100D02*
X104949600Y-68530700D01*
X138355000Y-133655000D02*
X139384000Y-134684000D01*
X191783300Y-80320000D02*
X188526000Y-83577300D01*
X90438900Y-66600500D02*
X91121500Y-67283100D01*
X122995400Y-63730000D02*
X132030000Y-63730000D01*
X106626500Y-67393200D02*
X107470500Y-66549200D01*
X154462000Y-133655000D02*
X172626000Y-133655000D01*
X153434000Y-134684000D02*
X154462000Y-133655000D01*
X139384000Y-134684000D02*
X150839600Y-134684000D01*
X132030000Y-63730000D02*
X133300000Y-62460000D01*
X176468700Y-134683600D02*
X182128400Y-129023900D01*
X109625000Y-133667000D02*
X109824000Y-133468000D01*
X182440500Y-109902700D02*
X186713400Y-105629800D01*
X105770500Y-68530700D02*
X106626500Y-67674700D01*
X122149300Y-64576100D02*
X122995400Y-63730000D01*
X106626500Y-67674700D02*
X106626500Y-67393200D01*
X104949600Y-68530700D02*
X105770500Y-68530700D01*
X188526000Y-83577300D02*
X187838100Y-83577300D01*
X175040000Y-134683600D02*
X176468700Y-134683600D01*
X120458400Y-66549200D02*
X122149300Y-64858300D01*
X109824000Y-133468000D02*
X116387000Y-133468000D01*
X108596000Y-134704000D02*
X109625000Y-133675000D01*
X80025300Y-75030800D02*
X88455600Y-66600500D01*
X173688000Y-134684000D02*
X175039600Y-134684000D01*
X116387000Y-133468000D02*
X117623000Y-134704000D01*
X182440500Y-114682400D02*
X182440500Y-109902700D01*
X182128400Y-114994500D02*
X182440500Y-114682400D01*
X172626000Y-133655000D02*
X173671000Y-134700000D01*
X106201700Y-65990800D02*
X105896900Y-66295600D01*
X104156800Y-66295600D02*
X103886900Y-66025700D01*
X173688000Y-129604000D02*
X175039600Y-129604000D01*
X196274600Y-73564800D02*
X195245800Y-72536000D01*
X172300000Y-128216000D02*
X173688000Y-129604000D01*
X181241800Y-72536000D02*
X180300400Y-73477400D01*
X122317200Y-63507600D02*
X120673100Y-63507600D01*
X103886900Y-66025700D02*
X101581400Y-66025700D01*
X119330100Y-65135800D02*
X118475100Y-65990800D01*
X195245800Y-72536000D02*
X181241800Y-72536000D01*
X101581400Y-66025700D02*
X101336200Y-66270900D01*
X152196000Y-129600000D02*
X157942000Y-129600000D01*
X132876000Y-129624000D02*
X133925000Y-128575000D01*
X157945000Y-129604000D02*
X159333000Y-128216000D01*
X133925000Y-128575000D02*
X138625000Y-128575000D01*
X126640000Y-129603600D02*
X125308400Y-129603600D01*
X105896900Y-66295600D02*
X104156800Y-66295600D01*
X101336200Y-66270900D02*
X95602000Y-66270900D01*
X125288000Y-129624000D02*
X132876000Y-129624000D01*
X83840100Y-94368700D02*
X74403700Y-94368700D01*
X90437800Y-95921400D02*
X85392800Y-95921400D01*
X85392800Y-95921400D02*
X83840100Y-94368700D01*
X125308400Y-129603600D02*
X125288000Y-129624000D01*
X150839600Y-129604000D02*
X152192000Y-129604000D01*
X124239000Y-128575000D02*
X125288000Y-129624000D01*
X139654000Y-129604000D02*
X150839600Y-129604000D01*
X152192000Y-129604000D02*
X152196000Y-129600000D01*
X138625000Y-128575000D02*
X139654000Y-129604000D01*
X157942000Y-129600000D02*
X157945000Y-129604000D01*
X159333000Y-128216000D02*
X172300000Y-128216000D01*
X108776000Y-129624000D02*
X109825000Y-128575000D01*
X102440000Y-129624000D02*
X108776000Y-129624000D01*
X109825000Y-128575000D02*
X124239000Y-128575000D01*
X197703300Y-73564800D02*
X196274600Y-73564800D01*
X120673100Y-63507600D02*
X119330100Y-64850600D01*
X119330100Y-64850600D02*
X119330100Y-65135800D01*
X118475100Y-65990800D02*
X106201700Y-65990800D01*
X74403700Y-94368700D02*
X73325000Y-93290000D01*
X131714000Y-120955000D02*
X124680000Y-120955000D01*
X141082700Y-80950900D02*
X142898100Y-80950900D01*
X132101700Y-66341700D02*
X137567300Y-66341700D01*
X89145600Y-119444000D02*
X87200000Y-119444000D01*
X161288100Y-119503000D02*
X161228700Y-119443600D01*
X133225000Y-119444000D02*
X131714000Y-120955000D01*
X148728000Y-120472000D02*
X147699000Y-119444000D01*
X163477500Y-119503000D02*
X161288100Y-119503000D01*
X142898100Y-80950900D02*
X144306800Y-79542200D01*
X156527640Y-78264160D02*
X160109700Y-74682100D01*
X90479000Y-120777000D02*
X89145600Y-119444000D01*
X144306800Y-79542200D02*
X146373300Y-79542200D01*
X194851900Y-74682100D02*
X196274600Y-76104800D01*
X130760000Y-65000000D02*
X132101700Y-66341700D01*
X124680000Y-120955000D02*
X124077000Y-120352000D01*
X155078000Y-120472000D02*
X148728000Y-120472000D01*
X135600400Y-119444000D02*
X133225000Y-119444000D01*
X167728400Y-74682100D02*
X194851900Y-74682100D01*
X139567000Y-79049300D02*
X139567000Y-79435200D01*
X107912000Y-120777000D02*
X90479000Y-120777000D01*
X156150000Y-119400000D02*
X155078000Y-120472000D01*
X159800000Y-119443600D02*
X161228700Y-119443600D01*
X137567300Y-66341700D02*
X140811800Y-69586200D01*
X147651340Y-78264160D02*
X156527640Y-78264160D01*
X147699000Y-119444000D02*
X135600400Y-119444000D01*
X124077000Y-120352000D02*
X117153000Y-120352000D01*
X110724000Y-119444000D02*
X109246000Y-119444000D01*
X116245000Y-119444000D02*
X111400400Y-119444000D01*
X160109700Y-74682100D02*
X167728400Y-74682100D01*
X146373300Y-79542200D02*
X147651340Y-78264160D01*
X139567000Y-79435200D02*
X141082700Y-80950900D01*
X109246000Y-119444000D02*
X107912000Y-120777000D01*
X159756000Y-119400000D02*
X156150000Y-119400000D01*
X117153000Y-120352000D02*
X116245000Y-119444000D01*
X167728400Y-74682100D02*
X167728400Y-74605800D01*
X197703300Y-76104800D02*
X196274600Y-76104800D01*
X166629400Y-77923600D02*
X168541100Y-79835300D01*
X126640000Y-122004000D02*
X124873000Y-122004000D01*
X197703300Y-78644800D02*
X196274600Y-78644800D01*
X196274600Y-78644800D02*
X195228100Y-79691300D01*
X110150000Y-120800000D02*
X123669000Y-120800000D01*
X168541100Y-79835300D02*
X180196400Y-79835300D01*
X149488000Y-121984000D02*
X148459000Y-120955000D01*
X173688000Y-121984000D02*
X172404000Y-120700000D01*
X124873000Y-122004000D02*
X123669000Y-120800000D01*
X132145000Y-120955000D02*
X131096000Y-122004000D01*
X175039600Y-121984000D02*
X173688000Y-121984000D01*
X131096000Y-122004000D02*
X126640000Y-122004000D01*
X108946000Y-122004000D02*
X102440000Y-122004000D01*
X148459000Y-120955000D02*
X132145000Y-120955000D01*
X195228100Y-79691300D02*
X191522900Y-79691300D01*
X156100000Y-120700000D02*
X154816000Y-121984000D01*
X110150000Y-120800000D02*
X108946000Y-122004000D01*
X191522900Y-79691300D02*
X191378900Y-79835300D01*
X161671400Y-77923600D02*
X166629400Y-77923600D01*
X191378900Y-79835300D02*
X180196400Y-79835300D01*
X150840400Y-121984000D02*
X149488000Y-121984000D01*
X154816000Y-121984000D02*
X150840400Y-121984000D01*
X172404000Y-120700000D02*
X156100000Y-120700000D01*
X85677000Y-118223000D02*
X90236000Y-118223000D01*
X162000000Y-91900000D02*
X174075000Y-91900000D01*
X115984000Y-118415000D02*
X116024000Y-118455000D01*
X174537000Y-92362400D02*
X199284000Y-92362400D01*
X157241000Y-118110000D02*
X158448000Y-116904000D01*
X135600400Y-116904000D02*
X138254000Y-116904000D01*
X103792000Y-119444000D02*
X104731000Y-118505000D01*
X124276000Y-118432000D02*
X125288000Y-119444000D01*
X110574000Y-118415000D02*
X115984000Y-118415000D01*
X110484000Y-118505000D02*
X110574000Y-118415000D01*
X104731000Y-118505000D02*
X110484000Y-118505000D01*
X91171800Y-119159000D02*
X100803000Y-119159000D01*
X134248000Y-116904000D02*
X135600400Y-116904000D01*
X101088000Y-119444000D02*
X102440000Y-119444000D01*
X90236000Y-118223000D02*
X91171800Y-119159000D01*
X145821800Y-82534300D02*
X162978100Y-82534300D01*
X131708000Y-119444000D02*
X134248000Y-116904000D01*
X139460000Y-118110000D02*
X157241000Y-118110000D01*
X77675000Y-120579000D02*
X83321400Y-120579000D01*
X199284000Y-92362400D02*
X200098000Y-93176000D01*
X174075000Y-91900000D02*
X174537000Y-92362400D01*
X83321400Y-120579000D02*
X85677000Y-118223000D01*
X138254000Y-116904000D02*
X139460000Y-118110000D01*
X124253000Y-118455000D02*
X124276000Y-118432000D01*
X100803000Y-119159000D02*
X101088000Y-119444000D01*
X116024000Y-118455000D02*
X124253000Y-118455000D01*
X200098000Y-93176000D02*
X200810000Y-93176000D01*
X125288000Y-119444000D02*
X126640400Y-119444000D01*
X102440000Y-119444000D02*
X103792000Y-119444000D01*
X158448000Y-116904000D02*
X159799600Y-116904000D01*
X145537600Y-82818500D02*
X145821800Y-82534300D01*
X126640400Y-119444000D02*
X131708000Y-119444000D01*
X114119000Y-113185000D02*
X114685000Y-113185000D01*
X126767700Y-94438400D02*
X127144900Y-94815600D01*
X85550600Y-120903400D02*
X88450200Y-120903400D01*
X88450200Y-120903400D02*
X88979900Y-121433100D01*
X84752300Y-121701700D02*
X85550600Y-120903400D01*
X119218900Y-99062700D02*
X119218900Y-99197600D01*
X111025400Y-100241700D02*
X110827000Y-100043300D01*
X104605000Y-118200000D02*
X104390000Y-118415000D01*
X173688000Y-114364000D02*
X175039600Y-114364000D01*
X154736000Y-114364000D02*
X155765000Y-113335000D01*
X119218900Y-99197600D02*
X118174800Y-100241700D01*
X155765000Y-113335000D02*
X172659000Y-113335000D01*
X114685000Y-113185000D02*
X114840000Y-113030000D01*
X121427400Y-96854200D02*
X119218900Y-99062700D01*
X140554000Y-113185000D02*
X148309000Y-113185000D01*
X127144900Y-94815600D02*
X127144900Y-95957700D01*
X172201000Y-84980000D02*
X197401000Y-84980000D01*
X172659000Y-113335000D02*
X173688000Y-114364000D01*
X197703000Y-84677200D02*
X197703000Y-84201000D01*
X94540100Y-121433100D02*
X94874400Y-121767400D01*
X140399000Y-113030000D02*
X140554000Y-113185000D01*
X126767600Y-94438400D02*
X126767700Y-94438400D01*
X127144900Y-95957700D02*
X126248400Y-96854200D01*
X126767600Y-88697200D02*
X126767600Y-94438400D01*
X118174800Y-100241700D02*
X111025400Y-100241700D01*
X94098300Y-118415000D02*
X92265000Y-118415000D01*
X90753600Y-116904000D02*
X87200400Y-116904000D01*
X114840000Y-113030000D02*
X140399000Y-113030000D01*
X108771000Y-118200000D02*
X104605000Y-118200000D01*
X149488000Y-114364000D02*
X150840400Y-114364000D01*
X197401000Y-84980000D02*
X197703000Y-84677200D01*
X150840400Y-114364000D02*
X154736000Y-114364000D01*
X88979900Y-121433100D02*
X94540100Y-121433100D01*
X92265000Y-118415000D02*
X90753600Y-116904000D01*
X126248400Y-96854200D02*
X121427400Y-96854200D01*
X148309000Y-113185000D02*
X149488000Y-114364000D01*
X111379600Y-116924000D02*
X110048000Y-116924000D01*
X104390000Y-118415000D02*
X94098300Y-118415000D01*
X110048000Y-116924000D02*
X108771000Y-118200000D01*
X115355000Y-113335000D02*
X125318600Y-113335000D01*
X88552400Y-114364000D02*
X89787000Y-113129000D01*
X155416000Y-115550000D02*
X156602000Y-114364000D01*
X121664100Y-93303700D02*
X120521500Y-94446300D01*
X166987400Y-93856700D02*
X164406400Y-96437700D01*
X164406400Y-96437700D02*
X162618700Y-96437700D01*
X74403700Y-105990000D02*
X74403700Y-105855000D01*
X111400000Y-114364000D02*
X114326000Y-114364000D01*
X161532400Y-97524000D02*
X158735000Y-97524000D01*
X114326000Y-114364000D02*
X115355000Y-113335000D01*
X89787000Y-113129000D02*
X91077600Y-113129000D01*
X135600000Y-114364000D02*
X148664000Y-114364000D01*
X201046000Y-93856700D02*
X166987400Y-93856700D01*
X87200400Y-114364000D02*
X88552400Y-114364000D01*
X89120600Y-102951100D02*
X90624400Y-104454900D01*
X162618700Y-96437700D02*
X161532400Y-97524000D01*
X148664000Y-114364000D02*
X149850000Y-115550000D01*
X149850000Y-115550000D02*
X155416000Y-115550000D01*
X111400000Y-113411000D02*
X111400000Y-114363600D01*
X75347400Y-104911300D02*
X81930000Y-104911300D01*
X124973800Y-113679800D02*
X124817000Y-113679800D01*
X121664100Y-87118800D02*
X121664100Y-93303700D01*
X74403700Y-105855000D02*
X75347400Y-104911300D01*
X205323300Y-78644800D02*
X206752000Y-78644800D01*
X135524000Y-113335000D02*
X135600000Y-113411000D01*
X125318600Y-113335000D02*
X135524000Y-113335000D01*
X81930000Y-104911300D02*
X83890200Y-102951100D01*
X111118000Y-113129000D02*
X111400000Y-113411000D01*
X125318600Y-113335000D02*
X124973800Y-113679800D01*
X135600000Y-113411000D02*
X135600000Y-114363600D01*
X206752000Y-88150700D02*
X201046000Y-93856700D01*
X90624400Y-104454900D02*
X90624400Y-107026200D01*
X73325000Y-105990000D02*
X74403700Y-105990000D01*
X206752000Y-78644800D02*
X206752000Y-88150700D01*
X83890200Y-102951100D02*
X89120600Y-102951100D01*
X90624400Y-107026200D02*
X91077600Y-107479400D01*
X91077600Y-113129000D02*
X111118000Y-113129000D01*
X156602000Y-114364000D02*
X159799600Y-114364000D01*
X121702600Y-87080300D02*
X121664100Y-87118800D01*
X158448000Y-134684000D02*
X156936000Y-136195000D01*
X140906200Y-81255800D02*
X139328400Y-79678000D01*
X132931000Y-136000000D02*
X117200000Y-136000000D01*
X162499680Y-74985020D02*
X158917620Y-78567080D01*
X146204800Y-80294100D02*
X143986100Y-80294100D01*
X168261700Y-75260000D02*
X167210000Y-75260000D01*
X201164000Y-101029000D02*
X201479000Y-100713000D01*
X164200000Y-101029000D02*
X190642000Y-101029000D01*
X190642000Y-101029000D02*
X201164000Y-101029000D01*
X85746400Y-134704000D02*
X85225000Y-135225000D01*
X167210000Y-75260000D02*
X166935020Y-74985020D01*
X147931820Y-78567080D02*
X146204800Y-80294100D01*
X111400000Y-134683600D02*
X110068400Y-134683600D01*
X187505400Y-75664900D02*
X186914000Y-75073500D01*
X143024500Y-81255800D02*
X140906200Y-81255800D01*
X139328400Y-79678000D02*
X137651200Y-79678000D01*
X187505400Y-78644800D02*
X187505400Y-75664900D01*
X137651200Y-79678000D02*
X137300000Y-79326800D01*
X115904000Y-134704000D02*
X110048000Y-134704000D01*
X92403600Y-134704000D02*
X87200000Y-134704000D01*
X110048000Y-134704000D02*
X108751000Y-136000000D01*
X156936000Y-136195000D02*
X139395000Y-136195000D01*
X186076700Y-78644800D02*
X187505400Y-78644800D01*
X110068400Y-134683600D02*
X110048000Y-134704000D01*
X190642000Y-101029000D02*
X192175500Y-99495500D01*
X143986100Y-80294100D02*
X143986100Y-80294200D01*
X139395000Y-136195000D02*
X137884000Y-134684000D01*
X168448200Y-75073500D02*
X168261700Y-75260000D01*
X159799600Y-134684000D02*
X158448000Y-134684000D01*
X166935020Y-74985020D02*
X162499680Y-74985020D01*
X135600000Y-134684000D02*
X134248000Y-134684000D01*
X85225000Y-135225000D02*
X77650000Y-135225000D01*
X186914000Y-75073500D02*
X168448200Y-75073500D01*
X137884000Y-134684000D02*
X135600000Y-134684000D01*
X164200000Y-134700000D02*
X159816400Y-134700000D01*
X108751000Y-136000000D02*
X93700000Y-136000000D01*
X201479000Y-100713000D02*
X202459000Y-100713000D01*
X93700000Y-136000000D02*
X92403600Y-134704000D01*
X135840000Y-70677400D02*
X137713800Y-72551200D01*
X117200000Y-136000000D02*
X115904000Y-134704000D01*
X143986100Y-80294200D02*
X143024500Y-81255800D01*
X134248000Y-134684000D02*
X132931000Y-136000000D01*
X158917620Y-78567080D02*
X147931820Y-78567080D01*
X87200000Y-134704000D02*
X85746400Y-134704000D01*
X138480000Y-138430000D02*
X137274000Y-137224000D01*
X203711000Y-97768000D02*
X192232000Y-97768000D01*
X114700000Y-138430000D02*
X113513000Y-137244000D01*
X137274100Y-80187204D02*
X137274100Y-80594700D01*
X180094100Y-77206300D02*
X183546500Y-77206300D01*
X179307600Y-77294900D02*
X179484700Y-77117800D01*
X159404600Y-78870000D02*
X161284600Y-76990000D01*
X158448000Y-137224000D02*
X157241000Y-138430000D01*
X192230000Y-97770000D02*
X188802000Y-97770000D01*
X159800000Y-137223600D02*
X161228700Y-137223600D01*
X85656400Y-137244000D02*
X85200000Y-137700000D01*
X157241000Y-138430000D02*
X138480000Y-138430000D01*
X92493600Y-137244000D02*
X87200000Y-137244000D01*
X179484700Y-77117800D02*
X180005600Y-77117800D01*
X184648000Y-76104800D02*
X186076700Y-76104800D01*
X139598500Y-80963000D02*
X140501100Y-81865600D01*
X93750000Y-138500000D02*
X92493600Y-137244000D01*
X182433300Y-118227600D02*
X184271900Y-116389000D01*
X111400000Y-137244000D02*
X110048000Y-137244000D01*
X135004770Y-79249200D02*
X136336096Y-79249200D01*
X185272100Y-115514600D02*
X185272100Y-111791400D01*
X188802000Y-97770000D02*
X188800000Y-97768000D01*
X182433300Y-129172600D02*
X182433300Y-118227600D01*
X184397700Y-116389000D02*
X185272100Y-115514600D01*
X140501100Y-81865600D02*
X143277300Y-81865600D01*
X130900000Y-138430000D02*
X114700000Y-138430000D01*
X135599600Y-137224000D02*
X132107000Y-137224000D01*
X162274200Y-76990000D02*
X162579100Y-77294900D01*
X175652300Y-135953600D02*
X182433300Y-129172600D01*
X183546500Y-77206300D02*
X184648000Y-76104800D01*
X136336096Y-79249200D02*
X137274100Y-80187204D01*
X143867800Y-81275100D02*
X147164900Y-81275100D01*
X159799600Y-137224000D02*
X158448000Y-137224000D01*
X113513000Y-137244000D02*
X111400000Y-137244000D01*
X85200000Y-137700000D02*
X77675000Y-137700000D01*
X147164900Y-81275100D02*
X147810000Y-80630000D01*
X137274000Y-137224000D02*
X135599600Y-137224000D01*
X148280000Y-78870000D02*
X159404600Y-78870000D01*
X110048000Y-137244000D02*
X108791000Y-138500000D01*
X108791000Y-138500000D02*
X93750000Y-138500000D01*
X180005600Y-77117800D02*
X180094100Y-77206300D01*
X132107000Y-137224000D02*
X130900000Y-138430000D01*
X87200000Y-137244000D02*
X85656400Y-137244000D01*
X162579100Y-77294900D02*
X179307600Y-77294900D01*
X192232000Y-97768000D02*
X192230000Y-97770000D01*
X184271900Y-116389000D02*
X184397700Y-116389000D01*
X137642400Y-80963000D02*
X139598500Y-80963000D01*
X147810000Y-79340000D02*
X148280000Y-78870000D01*
X161284600Y-76990000D02*
X162274200Y-76990000D01*
X161228700Y-137223600D02*
X162498700Y-135953600D01*
X147810000Y-80630000D02*
X147810000Y-79340000D01*
X137274100Y-80594700D02*
X137642400Y-80963000D01*
X162498700Y-135953600D02*
X175652300Y-135953600D01*
X143277300Y-81865600D02*
X143867800Y-81275100D01*
X185272100Y-111791400D02*
X186025800Y-111037700D01*
X134542270Y-78786700D02*
X135004770Y-79249200D01*
X137193000Y-139764000D02*
X135600000Y-139764000D01*
X158448000Y-139764000D02*
X157241000Y-140970000D01*
X187330000Y-95230000D02*
X187300000Y-95200000D01*
X204329000Y-95230000D02*
X187330000Y-95230000D01*
X88552400Y-139784000D02*
X89581000Y-140812000D01*
X106543100Y-68835600D02*
X106780300Y-68598400D01*
X99300000Y-71300000D02*
X103012000Y-67588000D01*
X103575600Y-67588000D02*
X103012000Y-67588000D01*
X104823200Y-68835600D02*
X106543100Y-68835600D01*
X159799600Y-139764000D02*
X158448000Y-139764000D01*
X103575600Y-67588000D02*
X104823200Y-68835600D01*
X87220400Y-139784000D02*
X88552400Y-139784000D01*
X121729000Y-140253000D02*
X111889000Y-140253000D01*
X99300000Y-71300000D02*
X84800000Y-71300000D01*
X138400000Y-140970000D02*
X137193000Y-139764000D01*
X109466000Y-139784000D02*
X110433000Y-139784000D01*
X108438000Y-140812000D02*
X109466000Y-139784000D01*
X157241000Y-140970000D02*
X138400000Y-140970000D01*
X77675000Y-139646000D02*
X87062800Y-139646000D01*
X187300000Y-95200000D02*
X166800000Y-95200000D01*
X89581000Y-140812000D02*
X108438000Y-140812000D01*
X156700400Y-115855000D02*
X149144400Y-115855000D01*
X105442000Y-145892000D02*
X118599000Y-145892000D01*
X125820000Y-145878000D02*
X129978000Y-145878000D01*
X157042300Y-115513100D02*
X156700400Y-115855000D01*
X104414000Y-144864000D02*
X105442000Y-145892000D01*
X118720000Y-145771000D02*
X125713000Y-145771000D01*
X180720600Y-115513100D02*
X157042300Y-115513100D01*
X181499700Y-114734000D02*
X180720600Y-115513100D01*
X149144400Y-115855000D02*
X148381900Y-115092500D01*
X139000000Y-144900000D02*
X150783600Y-144900000D01*
X129978000Y-145878000D02*
X130550000Y-146450000D01*
X148381900Y-115092500D02*
X140943800Y-115092500D01*
X102460400Y-144864000D02*
X104414000Y-144864000D01*
X118599000Y-145892000D02*
X118720000Y-145771000D01*
X83967800Y-136475000D02*
X75870000Y-136475000D01*
X125713000Y-145771000D02*
X125820000Y-145878000D01*
X157838800Y-138493600D02*
X156006900Y-140325500D01*
X109930000Y-140970000D02*
X108576000Y-142324000D01*
X175672200Y-138493600D02*
X157838800Y-138493600D01*
X148296000Y-143495000D02*
X131727000Y-143495000D01*
X112619900Y-101639000D02*
X113200900Y-102220000D01*
X156006900Y-140325500D02*
X154028800Y-140325500D01*
X131727000Y-143495000D02*
X129202000Y-140970000D01*
X150839600Y-142304000D02*
X149488000Y-142304000D01*
X149488000Y-142304000D02*
X148296000Y-143495000D01*
X108576000Y-142324000D02*
X102440000Y-142324000D01*
X129202000Y-140970000D02*
X109930000Y-140970000D01*
X84596400Y-133925000D02*
X75870000Y-133925000D01*
X186872000Y-120199000D02*
X185602000Y-121469000D01*
X113200900Y-102220000D02*
X136469100Y-102220000D01*
X185602000Y-121469000D02*
X185602000Y-128563800D01*
X185602000Y-128563800D02*
X175672200Y-138493600D01*
X148459000Y-138735000D02*
X137498000Y-138735000D01*
X132455900Y-137903200D02*
X133135100Y-138582400D01*
X137345400Y-138582400D02*
X137498000Y-138735000D01*
X187812000Y-107073400D02*
X188970300Y-105915100D01*
X150839600Y-139764000D02*
X149488000Y-139764000D01*
X116739100Y-89079100D02*
X116739100Y-89513900D01*
X155017700Y-109642700D02*
X154820200Y-109445200D01*
X149488000Y-139764000D02*
X148459000Y-138735000D01*
X115520000Y-87860000D02*
X116739100Y-89079100D01*
X188970300Y-105915100D02*
X188970300Y-105132700D01*
X188403200Y-104565600D02*
X177574300Y-104565600D01*
X133135100Y-138582400D02*
X137345400Y-138582400D01*
X137498000Y-138735000D02*
X109165000Y-138735000D01*
X187812000Y-114179000D02*
X187812000Y-107073400D01*
X188970300Y-105132700D02*
X188403200Y-104565600D01*
X108116000Y-139784000D02*
X102460400Y-139784000D01*
X186872000Y-115119000D02*
X187812000Y-114179000D01*
X172497200Y-109642700D02*
X155017700Y-109642700D01*
X109165000Y-138735000D02*
X108116000Y-139784000D01*
X85225000Y-131425000D02*
X75900000Y-131425000D01*
X177574300Y-104565600D02*
X172497200Y-109642700D01*
X142475100Y-143800000D02*
X156950000Y-143800000D01*
X125815200Y-96329600D02*
X125927900Y-96216900D01*
X112980000Y-90400000D02*
X114529200Y-91949200D01*
X118674000Y-141275000D02*
X129076000Y-141275000D01*
X117764000Y-141619000D02*
X118330000Y-141619000D01*
X142149200Y-144125900D02*
X140950400Y-144125900D01*
X157419000Y-143332000D02*
X158448000Y-142304000D01*
X117059000Y-142324000D02*
X117764000Y-141619000D01*
X118330000Y-141619000D02*
X118674000Y-141275000D01*
X120043900Y-96329600D02*
X125815200Y-96329600D01*
X82175000Y-128850000D02*
X75865000Y-128850000D01*
X156950000Y-143800000D02*
X157418000Y-143332000D01*
X129076000Y-141275000D02*
X131601000Y-143800000D01*
X158448000Y-142304000D02*
X159799600Y-142304000D01*
X142475100Y-143800000D02*
X142149200Y-144125900D01*
X115948600Y-91949200D02*
X116790100Y-92790700D01*
X157418000Y-143332000D02*
X157419000Y-143332000D01*
X111420400Y-142324000D02*
X117059000Y-142324000D01*
X114529200Y-91949200D02*
X115948600Y-91949200D01*
X116790100Y-92790700D02*
X116790100Y-93075800D01*
X131601000Y-143800000D02*
X142475100Y-143800000D01*
X116790100Y-93075800D02*
X120043900Y-96329600D01*
X115322500Y-95470200D02*
X117878800Y-98026500D01*
X117379000Y-144864000D02*
X111400000Y-144864000D01*
X128871000Y-143450000D02*
X118793000Y-143450000D01*
X131771000Y-146350000D02*
X128871000Y-143450000D01*
X118793000Y-143450000D02*
X117379000Y-144864000D01*
X110440000Y-93087400D02*
X112822800Y-95470200D01*
X158448000Y-144844000D02*
X156941000Y-146350000D01*
X112822800Y-95470200D02*
X115322500Y-95470200D01*
X81600000Y-126300000D02*
X75875000Y-126300000D01*
X159799600Y-144844000D02*
X158448000Y-144844000D01*
X156941000Y-146350000D02*
X131771000Y-146350000D01*
X120120300Y-109858600D02*
X118090100Y-109858600D01*
X120334800Y-109644100D02*
X120120300Y-109858600D01*
X119804000Y-146183000D02*
X119587000Y-146400000D01*
X111450700Y-92845700D02*
X111450700Y-91729000D01*
X118996000Y-146375000D02*
X117825000Y-146375000D01*
X155235000Y-147384000D02*
X153768000Y-148850000D01*
X112550900Y-93945900D02*
X111450700Y-92845700D01*
X153768000Y-148850000D02*
X130200000Y-148850000D01*
X116796000Y-147404000D02*
X111420400Y-147404000D01*
X127533000Y-146183000D02*
X119804000Y-146183000D01*
X81075000Y-123775000D02*
X75870000Y-123775000D01*
X118490500Y-96591300D02*
X115845100Y-93945900D01*
X119587000Y-146400000D02*
X119021000Y-146400000D01*
X159799600Y-147384000D02*
X155235000Y-147384000D01*
X115845100Y-93945900D02*
X112550900Y-93945900D01*
X118996000Y-146375000D02*
X119021000Y-146400000D01*
X117825000Y-146375000D02*
X116796000Y-147404000D01*
X130200000Y-148850000D02*
X127533000Y-146183000D01*
X118090100Y-109858600D02*
X117462100Y-109230600D01*
X126619600Y-149944000D02*
X119656000Y-149944000D01*
X83101700Y-121230000D02*
X83733200Y-120598500D01*
X97297500Y-121128200D02*
X97583300Y-121414000D01*
X113509400Y-107683300D02*
X113648200Y-107544500D01*
X88576600Y-120598500D02*
X89106300Y-121128200D01*
X89106300Y-121128200D02*
X97297500Y-121128200D01*
X97583300Y-107683300D02*
X113509400Y-107683300D01*
X119656000Y-149944000D02*
X119650000Y-149950000D01*
X75865000Y-121230000D02*
X83101700Y-121230000D01*
X83733200Y-120598500D02*
X88576600Y-120598500D01*
X106461400Y-91573000D02*
X106334100Y-91445700D01*
X87787500Y-93998800D02*
X85108900Y-93998800D01*
X96180000Y-91445700D02*
X93534900Y-94090800D01*
X126619600Y-147404000D02*
X120396000Y-147404000D01*
X85108900Y-93998800D02*
X84734100Y-94373600D01*
X93534900Y-94090800D02*
X87879500Y-94090800D01*
X75865000Y-118690000D02*
X80928900Y-118690000D01*
X106334100Y-91445700D02*
X96180000Y-91445700D01*
X80928900Y-118690000D02*
X82797800Y-116821100D01*
X87879500Y-94090800D02*
X87787500Y-93998800D01*
X120396000Y-147404000D02*
X120350000Y-147450000D01*
X126640000Y-144864000D02*
X120914000Y-144864000D01*
X158974000Y-146355000D02*
X158250000Y-147079000D01*
X120914000Y-144864000D02*
X120900000Y-144850000D01*
X93429500Y-94627500D02*
X86902800Y-94627500D01*
X173688000Y-144844000D02*
X172176000Y-146355000D01*
X158250000Y-147079000D02*
X155108000Y-147079000D01*
X153642000Y-148545000D02*
X133535000Y-148545000D01*
X129854000Y-144864000D02*
X126640000Y-144864000D01*
X155108000Y-147079000D02*
X153642000Y-148545000D01*
X172176000Y-146355000D02*
X158974000Y-146355000D01*
X175039600Y-144844000D02*
X173688000Y-144844000D01*
X103844700Y-92074400D02*
X95982600Y-92074400D01*
X133535000Y-148545000D02*
X129854000Y-144864000D01*
X75865000Y-116150000D02*
X76943700Y-116150000D01*
X95982600Y-92074400D02*
X93429500Y-94627500D01*
X77618700Y-115475000D02*
X84470500Y-115475000D01*
X76943700Y-116150000D02*
X77618700Y-115475000D01*
X84470500Y-115475000D02*
X84807100Y-115138400D01*
X173688000Y-142304000D02*
X172176000Y-143815000D01*
X156744000Y-146045000D02*
X133415000Y-146045000D01*
X119192400Y-90101900D02*
X119192400Y-94437600D01*
X116674900Y-87935400D02*
X117954100Y-89214600D01*
X133415000Y-146045000D02*
X129694000Y-142324000D01*
X111807200Y-86492800D02*
X114569000Y-86492800D01*
X129694000Y-142324000D02*
X126640000Y-142324000D01*
X175039600Y-142304000D02*
X173688000Y-142304000D01*
X124564000Y-141600000D02*
X121748000Y-141600000D01*
X117954100Y-89214600D02*
X118305100Y-89214600D01*
X172176000Y-143815000D02*
X158974000Y-143815000D01*
X126644200Y-106341000D02*
X126978800Y-106675600D01*
X121748000Y-141600000D02*
X121424000Y-141924000D01*
X119192400Y-94437600D02*
X120443200Y-95688400D01*
X126640000Y-142324000D02*
X125288000Y-142324000D01*
X110440000Y-87860000D02*
X111807200Y-86492800D01*
X116674900Y-87153000D02*
X116674900Y-87935400D01*
X123031900Y-106341000D02*
X126644200Y-106341000D01*
X121830000Y-107542900D02*
X123031900Y-106341000D01*
X118305100Y-89214600D02*
X119192400Y-90101900D01*
X125288000Y-142324000D02*
X124564000Y-141600000D01*
X116208600Y-86686700D02*
X116674900Y-87153000D01*
X120443200Y-95688400D02*
X121254900Y-95688400D01*
X158974000Y-143815000D02*
X156744000Y-146045000D01*
X96020200Y-92575800D02*
X103457000Y-92575800D01*
X85111200Y-110434000D02*
X85675100Y-109870100D01*
X128447000Y-139784000D02*
X126640000Y-139784000D01*
X122489000Y-139784000D02*
X122069000Y-139364000D01*
X88043700Y-95000000D02*
X93596000Y-95000000D01*
X85675100Y-107006700D02*
X85446400Y-106778000D01*
X85675100Y-109870100D02*
X85675100Y-107006700D01*
X172176000Y-141275000D02*
X129938000Y-141275000D01*
X87766500Y-95277200D02*
X88043700Y-95000000D01*
X126640000Y-139784000D02*
X122489000Y-139784000D01*
X93596000Y-95000000D02*
X96020200Y-92575800D01*
X75865000Y-111070000D02*
X76943700Y-111070000D01*
X103457000Y-92575800D02*
X103821200Y-92940000D01*
X86201100Y-95277200D02*
X87766500Y-95277200D01*
X103821200Y-92940000D02*
X105360000Y-92940000D01*
X76943700Y-111070000D02*
X77579700Y-110434000D01*
X175039600Y-139764000D02*
X173688000Y-139764000D01*
X129938000Y-141275000D02*
X128447000Y-139784000D01*
X77579700Y-110434000D02*
X85111200Y-110434000D01*
X173688000Y-139764000D02*
X172176000Y-141275000D01*
X99591300Y-61176300D02*
X95100400Y-61176300D01*
X99591300Y-61176300D02*
X100695000Y-60072600D01*
X74600000Y-119950000D02*
X82075000Y-119950000D01*
X73325000Y-121230000D02*
X74175000Y-120380000D01*
X100695000Y-60072600D02*
X107380000Y-60072600D01*
X107408300Y-60100900D02*
X109642000Y-60100900D01*
X74175000Y-120375000D02*
X74600000Y-119950000D01*
X107380000Y-60072600D02*
X107408300Y-60100900D01*
X74175000Y-120380000D02*
X74175000Y-120375000D01*
X99487000Y-110555000D02*
X105539000Y-110555000D01*
X82413900Y-99751400D02*
X95509800Y-99751400D01*
X109642000Y-60100900D02*
X110108300Y-59634600D01*
X99487000Y-103729000D02*
X99487000Y-105081000D01*
X95509800Y-99751400D02*
X99487000Y-103729000D01*
X95100400Y-61176300D02*
X93450000Y-62826700D01*
X105539000Y-110555000D02*
X106971000Y-111987000D01*
X95254000Y-115780000D02*
X82303000Y-115780000D01*
X104131000Y-114527000D02*
X106971000Y-114527000D01*
X125959500Y-110287100D02*
X126159600Y-110087000D01*
X121014500Y-95039600D02*
X120937300Y-95116800D01*
X82303000Y-115780000D02*
X80471700Y-117611300D01*
X120937300Y-95116800D02*
X120302900Y-95116800D01*
X113474700Y-110494200D02*
X113681800Y-110287100D01*
X122179700Y-95090200D02*
X122129100Y-95039600D01*
X75347400Y-117611300D02*
X74403700Y-118555000D01*
X108376800Y-112437800D02*
X110320400Y-110494200D01*
X113681800Y-110287100D02*
X125959500Y-110287100D01*
X80471700Y-117611300D02*
X75347400Y-117611300D01*
X73325000Y-118690000D02*
X74403700Y-118690000D01*
X122129100Y-95039600D02*
X121014500Y-95039600D01*
X119609200Y-94423100D02*
X119609200Y-86878500D01*
X110320400Y-110494200D02*
X113474700Y-110494200D01*
X119609200Y-86878500D02*
X120905000Y-85582700D01*
X95254000Y-115780000D02*
X102878000Y-115780000D01*
X102878000Y-115780000D02*
X104131000Y-114527000D01*
X120302900Y-95116800D02*
X119609200Y-94423100D01*
X74403700Y-118555000D02*
X74403700Y-118690000D01*
X93829000Y-117098000D02*
X94841200Y-118110000D01*
X96311100Y-106534700D02*
X94407000Y-104630600D01*
X94841200Y-118110000D02*
X104264000Y-118110000D01*
X83375000Y-114950000D02*
X74525000Y-114950000D01*
X100757000Y-105693400D02*
X99915700Y-106534700D01*
X104264000Y-118110000D02*
X105307000Y-117067000D01*
X104544300Y-102101300D02*
X103111600Y-102101300D01*
X103111600Y-102101300D02*
X100757000Y-104455900D01*
X105307000Y-117067000D02*
X106971000Y-117067000D01*
X94407000Y-103729000D02*
X94407000Y-104630600D01*
X83775000Y-114550000D02*
X83375000Y-114950000D01*
X91885400Y-101207000D02*
X94407000Y-103729000D01*
X113577300Y-99613000D02*
X113378900Y-99414600D01*
X113378900Y-99414600D02*
X107231000Y-99414600D01*
X100757000Y-104455900D02*
X100757000Y-105693400D01*
X74525000Y-114950000D02*
X73325000Y-116150000D01*
X107231000Y-99414600D02*
X104544300Y-102101300D01*
X99915700Y-106534700D02*
X96311100Y-106534700D01*
X83742800Y-101207000D02*
X91885400Y-101207000D01*
X92339200Y-120472000D02*
X105103000Y-120472000D01*
X84371400Y-102137000D02*
X90275400Y-102137000D01*
X84371400Y-111146000D02*
X77803600Y-111146000D01*
X74585000Y-112350000D02*
X73325000Y-113610000D01*
X105969000Y-119607000D02*
X106971000Y-119607000D01*
X90275400Y-102137000D02*
X91867000Y-103729000D01*
X76600000Y-112350000D02*
X74585000Y-112350000D01*
X105103000Y-120472000D02*
X105969000Y-119607000D01*
X77803600Y-111146000D02*
X76600000Y-112350000D01*
X91867000Y-103729000D02*
X91867000Y-105081000D01*
X91882000Y-120015000D02*
X92339200Y-120472000D01*
X202696000Y-82450000D02*
X191094000Y-82450000D01*
X93476000Y-106900000D02*
X109200000Y-106900000D01*
X191094000Y-82450000D02*
X189894000Y-83649700D01*
X85000000Y-109600000D02*
X84434300Y-109600000D01*
X87200000Y-111824000D02*
X88552400Y-111824000D01*
X124665000Y-89835400D02*
X124897500Y-89602900D01*
X139624000Y-111824000D02*
X135600000Y-111824000D01*
X169176000Y-103190000D02*
X189560000Y-103190000D01*
X189560000Y-103190000D02*
X189560000Y-103170000D01*
X87200000Y-110220000D02*
X87200000Y-111823600D01*
X135600000Y-110871000D02*
X135524000Y-110795000D01*
X156845000Y-111824000D02*
X155817000Y-112852000D01*
X116745000Y-106900000D02*
X117609000Y-106036000D01*
X84434300Y-109600000D02*
X84159300Y-109875000D01*
X126960600Y-86007400D02*
X128867100Y-84100900D01*
X126131400Y-86007400D02*
X126960600Y-86007400D01*
X74520000Y-109875000D02*
X73325000Y-111070000D01*
X156945000Y-106036000D02*
X160476000Y-102505000D01*
X124680800Y-87458000D02*
X126131400Y-86007400D01*
X113781000Y-110795000D02*
X112752000Y-111824000D01*
X88552400Y-111824000D02*
X93476000Y-106900000D01*
X126516200Y-95076100D02*
X126392100Y-95076100D01*
X203971000Y-83724800D02*
X202696000Y-82450000D01*
X155817000Y-112852000D02*
X140652000Y-112852000D01*
X117609000Y-106036000D02*
X131422900Y-106036000D01*
X160476000Y-102505000D02*
X165226000Y-102505000D01*
X84159300Y-109875000D02*
X74520000Y-109875000D01*
X165530000Y-102200000D02*
X168186000Y-102200000D01*
X131422900Y-106036000D02*
X132780800Y-104678100D01*
X124897500Y-88819200D02*
X124680800Y-88602500D01*
X131422900Y-106036000D02*
X156945000Y-106036000D01*
X126392100Y-95076100D02*
X124665000Y-93349000D01*
X189570000Y-103160000D02*
X189580000Y-103150000D01*
X135524000Y-110795000D02*
X113781000Y-110795000D01*
X132780800Y-104678100D02*
X132780800Y-103811100D01*
X124897500Y-89602900D02*
X124897500Y-88819200D01*
X135600000Y-111823600D02*
X135600000Y-110871000D01*
X165226000Y-102505000D02*
X165530000Y-102200000D01*
X124680800Y-88602500D02*
X124680800Y-87458000D01*
X189570000Y-103160000D02*
X189876000Y-103160000D01*
X140652000Y-112852000D02*
X139624000Y-111824000D01*
X124665000Y-93349000D02*
X124665000Y-89835400D01*
X189560000Y-103170000D02*
X189570000Y-103160000D01*
X109200000Y-106900000D02*
X116745000Y-106900000D01*
X89327000Y-105081000D02*
X89327000Y-108093000D01*
X89327000Y-108093000D02*
X87200000Y-110220000D01*
X205323000Y-83724800D02*
X203971000Y-83724800D01*
X159799600Y-111824000D02*
X156845000Y-111824000D01*
X112752000Y-111824000D02*
X111400400Y-111824000D01*
X168186000Y-102200000D02*
X169176000Y-103190000D01*
X189876000Y-103160000D02*
X189889000Y-103173000D01*
X158575000Y-115875000D02*
X172659000Y-115875000D01*
X148405000Y-115821000D02*
X149488000Y-116904000D01*
X85704100Y-110361800D02*
X85704100Y-114795100D01*
X127992000Y-116904000D02*
X128551600Y-116344400D01*
X129593300Y-117386100D02*
X128551600Y-116344400D01*
X173230000Y-72115000D02*
X172830000Y-71715000D01*
X173688000Y-116904000D02*
X175039600Y-116904000D01*
X88567000Y-115149000D02*
X99805700Y-115149000D01*
X84488700Y-103296000D02*
X86354700Y-103296000D01*
X207124000Y-73151200D02*
X206088000Y-72115000D01*
X88323600Y-115392400D02*
X88567000Y-115149000D01*
X152196000Y-116900000D02*
X154766000Y-116900000D01*
X122943400Y-95700900D02*
X124251000Y-94393300D01*
X73325000Y-108530000D02*
X74475200Y-107380000D01*
X77849100Y-107380000D02*
X78172900Y-107704000D01*
X86787000Y-103729000D02*
X86787000Y-109278900D01*
X157546000Y-116904000D02*
X158575000Y-115875000D01*
X103488000Y-116904000D02*
X104695000Y-115697000D01*
X124251000Y-94393300D02*
X124251000Y-89125200D01*
X74475200Y-107380000D02*
X77849100Y-107380000D01*
X150840000Y-116904000D02*
X152192000Y-116904000D01*
X206088000Y-72115000D02*
X173230000Y-72115000D01*
X126640000Y-115951000D02*
X126640000Y-116903600D01*
X78172900Y-107704000D02*
X80081400Y-107704000D01*
X126640000Y-116904000D02*
X127992000Y-116904000D01*
X129075000Y-115821000D02*
X148405000Y-115821000D01*
X80081400Y-107704000D02*
X84488700Y-103296000D01*
X86354700Y-103296000D02*
X86787000Y-103729000D01*
X85704100Y-114795100D02*
X86301400Y-115392400D01*
X128551600Y-116344400D02*
X129075000Y-115821000D01*
X206676000Y-76104800D02*
X207124000Y-75656500D01*
X205323300Y-76104800D02*
X206676000Y-76104800D01*
X86787000Y-109278900D02*
X85704100Y-110361800D01*
X152192000Y-116904000D02*
X152196000Y-116900000D01*
X86301400Y-115392400D02*
X88323600Y-115392400D01*
X172659000Y-115875000D02*
X173688000Y-116904000D01*
X154766000Y-116900000D02*
X154769000Y-116904000D01*
X149488000Y-116904000D02*
X150840000Y-116904000D01*
X126386000Y-115697000D02*
X126640000Y-115951000D01*
X207124000Y-75656500D02*
X207124000Y-73151200D01*
X154769000Y-116904000D02*
X157546000Y-116904000D01*
X104695000Y-115697000D02*
X126386000Y-115697000D01*
X106357800Y-59462700D02*
X108541000Y-57279500D01*
X158448000Y-129604000D02*
X157419000Y-130632000D01*
X108600000Y-130900000D02*
X93750000Y-130900000D01*
X77675000Y-130150000D02*
X86653600Y-130150000D01*
X108541000Y-57279500D02*
X130129500Y-57279500D01*
X92473600Y-129624000D02*
X87200000Y-129624000D01*
X93750000Y-130900000D02*
X92473600Y-129624000D01*
X133001000Y-130850000D02*
X117300000Y-130850000D01*
X139332000Y-130632000D02*
X138304000Y-129604000D01*
X134248000Y-129604000D02*
X133001000Y-130850000D01*
X159799600Y-129604000D02*
X158448000Y-129604000D01*
X130129500Y-57279500D02*
X130400000Y-57550000D01*
X116074000Y-129624000D02*
X111400000Y-129624000D01*
X73325000Y-75510000D02*
X71600000Y-73785000D01*
X109876000Y-129624000D02*
X108600000Y-130900000D01*
X99336520Y-60568480D02*
X100442300Y-59462700D01*
X100442300Y-59462700D02*
X106357800Y-59462700D01*
X138304000Y-129604000D02*
X135600400Y-129604000D01*
X71600000Y-73785000D02*
X71600000Y-64500000D01*
X111400000Y-129624000D02*
X109876000Y-129624000D01*
X71600000Y-64500000D02*
X72797080Y-63302920D01*
X157419000Y-130632000D02*
X139332000Y-130632000D01*
X135600400Y-129604000D02*
X134248000Y-129604000D01*
X117300000Y-130850000D02*
X116074000Y-129624000D01*
X81859913Y-60568480D02*
X99336520Y-60568480D01*
X79125474Y-63302920D02*
X81859913Y-60568480D01*
X72797080Y-63302920D02*
X79125474Y-63302920D01*
X100568700Y-59767600D02*
X106484200Y-59767600D01*
X166200000Y-132350000D02*
X160006400Y-132350000D01*
X108234100Y-58017700D02*
X128744834Y-58017700D01*
X138244000Y-132144000D02*
X139272000Y-133172000D01*
X87200000Y-132164000D02*
X92463600Y-132164000D01*
X106484200Y-59767600D02*
X108234100Y-58017700D01*
X99464900Y-60871400D02*
X100568700Y-59767600D01*
X134241000Y-132150000D02*
X134248000Y-132144000D01*
X139272000Y-133172000D02*
X157419000Y-133172000D01*
X74600000Y-64500000D02*
X75494160Y-63605840D01*
X74600000Y-71695000D02*
X74600000Y-64500000D01*
X134248000Y-132144000D02*
X135600000Y-132144000D01*
X168270000Y-103955000D02*
X190899000Y-103955000D01*
X116522000Y-133172000D02*
X131628000Y-133172000D01*
X115514000Y-132164000D02*
X116522000Y-133172000D01*
X110048000Y-132164000D02*
X110912500Y-132164000D01*
X131628000Y-133172000D02*
X132650000Y-132150000D01*
X158448000Y-132144000D02*
X159799600Y-132144000D01*
X79250948Y-63605839D02*
X81985387Y-60871400D01*
X190899000Y-103954000D02*
X190871000Y-103926000D01*
X135600000Y-132144000D02*
X138244000Y-132144000D01*
X132650000Y-132150000D02*
X134241000Y-132150000D01*
X167817000Y-103502000D02*
X168270000Y-103955000D01*
X167808000Y-103502000D02*
X167817000Y-103502000D01*
X166171000Y-102850000D02*
X167156000Y-102850000D01*
X167156000Y-102850000D02*
X167808000Y-103502000D01*
X81985387Y-60871400D02*
X99464900Y-60871400D01*
X157419000Y-133172000D02*
X158448000Y-132144000D01*
X110912500Y-132164000D02*
X115514000Y-132164000D01*
X108761000Y-133450000D02*
X110048000Y-132164000D01*
X92463600Y-132164000D02*
X93750000Y-133450000D01*
X75494160Y-63605840D02*
X79250948Y-63605839D01*
X73325000Y-72970000D02*
X74600000Y-71695000D01*
X77675000Y-132625000D02*
X86718600Y-132625000D01*
X128744834Y-58017700D02*
X129142500Y-58415366D01*
X190899000Y-103955000D02*
X190899000Y-103954000D01*
X93750000Y-133450000D02*
X108761000Y-133450000D01*
X163477500Y-133002500D02*
X163700300Y-133225300D01*
X100150000Y-143750000D02*
X116064000Y-143750000D01*
X177115300Y-133225300D02*
X181499700Y-128840900D01*
X74600000Y-140275000D02*
X83799000Y-140275000D01*
X99750000Y-143350000D02*
X100150000Y-143750000D01*
X181499700Y-128840900D02*
X181499700Y-128756900D01*
X144159100Y-142303600D02*
X144706700Y-142851200D01*
X89952200Y-143352000D02*
X99750000Y-143350000D01*
X83799000Y-140275000D02*
X85847600Y-142324000D01*
X116064000Y-143750000D02*
X117064000Y-142750000D01*
X87200000Y-142324000D02*
X88923600Y-142324000D01*
X73325000Y-141550000D02*
X74600000Y-140275000D01*
X85847600Y-142324000D02*
X87200000Y-142324000D01*
X135600000Y-142303600D02*
X144159100Y-142303600D01*
X117064000Y-142750000D02*
X123900000Y-142750000D01*
X163700300Y-133225300D02*
X177115300Y-133225300D01*
X88923600Y-142324000D02*
X89952200Y-143352000D01*
X85847600Y-144864000D02*
X87200000Y-144864000D01*
X124340300Y-109444100D02*
X126405900Y-109444100D01*
X75051000Y-145816000D02*
X84895200Y-145816000D01*
X124126000Y-109658400D02*
X124340300Y-109444100D01*
X127340600Y-110378800D02*
X168145300Y-110378800D01*
X126405900Y-109444100D02*
X127340600Y-110378800D01*
X84895200Y-145816000D02*
X85847600Y-144864000D01*
X73325000Y-144090000D02*
X75051000Y-145816000D01*
X170618900Y-112852400D02*
X181005800Y-112852400D01*
X93717000Y-148717000D02*
X113717000Y-148717000D01*
X87200000Y-144864000D02*
X89863600Y-144864000D01*
X168145300Y-110378800D02*
X170618900Y-112852400D01*
X137426000Y-152605000D02*
X137750000Y-152929000D01*
X181005800Y-112852400D02*
X181811800Y-113658400D01*
X117605000Y-152605000D02*
X137426000Y-152605000D01*
X113717000Y-148717000D02*
X117605000Y-152605000D01*
X89863600Y-144864000D02*
X93717000Y-148717000D01*
X77582100Y-143575000D02*
X77067100Y-144090000D01*
X77067100Y-144090000D02*
X75865000Y-144090000D01*
X88409300Y-143575000D02*
X77582100Y-143575000D01*
X163086500Y-104260700D02*
X159976100Y-107371100D01*
X88552400Y-147404000D02*
X94363200Y-153214000D01*
X186872000Y-122739000D02*
X188142000Y-121469000D01*
X188142000Y-107327000D02*
X189275200Y-106193800D01*
X133576000Y-153214000D02*
X133900000Y-153538000D01*
X188529600Y-104260700D02*
X163086500Y-104260700D01*
X88759300Y-143925000D02*
X88409300Y-143575000D01*
X152506400Y-107371100D02*
X150492700Y-109384800D01*
X159976100Y-107371100D02*
X152506400Y-107371100D01*
X87220400Y-147404000D02*
X88552400Y-147404000D01*
X188142000Y-121469000D02*
X188142000Y-107327000D01*
X189275200Y-106193800D02*
X189275200Y-105006300D01*
X189275200Y-105006300D02*
X188529600Y-104260700D01*
X150492700Y-109384800D02*
X132272100Y-109384800D01*
X89325000Y-143925000D02*
X88759300Y-143925000D01*
X94363200Y-153214000D02*
X133576000Y-153214000D01*
X163988600Y-80888700D02*
X152934600Y-80888700D01*
X139004000Y-152605000D02*
X149111000Y-152605000D01*
X143994200Y-81580000D02*
X143403700Y-82170500D01*
X137448000Y-153557000D02*
X138052000Y-153557000D01*
X102440000Y-151240000D02*
X104110000Y-152910000D01*
X139581300Y-81406200D02*
X124192400Y-81406200D01*
X124192400Y-81406200D02*
X118060000Y-87538600D01*
X102440000Y-149944000D02*
X102440000Y-151240000D01*
X178589900Y-91730300D02*
X174830200Y-91730300D01*
X171324500Y-88224600D02*
X163988600Y-80888700D01*
X136801000Y-152910000D02*
X137448000Y-153557000D01*
X149111000Y-152605000D02*
X150840000Y-150876000D01*
X151819900Y-80631300D02*
X150871200Y-81580000D01*
X104110000Y-152910000D02*
X136801000Y-152910000D01*
X152934600Y-80888700D02*
X152677200Y-80631300D01*
X168357100Y-91192000D02*
X171324500Y-88224600D01*
X174830200Y-91730300D02*
X171324500Y-88224600D01*
X150871200Y-81580000D02*
X143994200Y-81580000D01*
X138052000Y-153557000D02*
X139004000Y-152605000D01*
X140345600Y-82170500D02*
X139581300Y-81406200D01*
X150840000Y-150876000D02*
X150840000Y-149924000D01*
X152677200Y-80631300D02*
X151819900Y-80631300D01*
X143403700Y-82170500D02*
X140345600Y-82170500D01*
X82710600Y-141550000D02*
X75865000Y-141550000D01*
X185907000Y-130356400D02*
X185907000Y-122318700D01*
X170458400Y-148504900D02*
X172849700Y-146113600D01*
X186426700Y-121799000D02*
X186636700Y-121799000D01*
X154545400Y-148504900D02*
X170458400Y-148504900D01*
X113843000Y-148412000D02*
X102516000Y-148412000D01*
X148714000Y-151976000D02*
X148390000Y-152300000D01*
X187819900Y-120615800D02*
X187819900Y-119751200D01*
X178849300Y-137414100D02*
X185907000Y-130356400D01*
X186515400Y-119207600D02*
X185297000Y-120426000D01*
X102440000Y-148336000D02*
X102440000Y-147384000D01*
X172849700Y-146113600D02*
X175677100Y-146113600D01*
X83339200Y-139000000D02*
X75875000Y-139000000D01*
X187276300Y-119207600D02*
X186515400Y-119207600D01*
X102516000Y-148412000D02*
X102440000Y-148336000D01*
X185297000Y-120426000D02*
X185297000Y-121774000D01*
X148390000Y-152300000D02*
X117731000Y-152300000D01*
X117731000Y-152300000D02*
X113843000Y-148412000D01*
X186636700Y-121799000D02*
X187819900Y-120615800D01*
X175677100Y-146113600D02*
X178849300Y-142941400D01*
X185297000Y-121774000D02*
X184332000Y-122739000D01*
X187819900Y-119751200D02*
X187276300Y-119207600D01*
X185907000Y-122318700D02*
X186426700Y-121799000D01*
X152635000Y-150136100D02*
X152914200Y-150136100D01*
X152914200Y-150136100D02*
X154545400Y-148504900D01*
X178849300Y-142941400D02*
X178849300Y-137414100D01*
X155978760Y-77961240D02*
X137268760Y-77961240D01*
X111989200Y-90301400D02*
X111989200Y-89937800D01*
X103404900Y-96722700D02*
X104187900Y-95939700D01*
X114529200Y-87446200D02*
X123239000Y-78736400D01*
X96947000Y-98889700D02*
X102476800Y-98889700D01*
X107308500Y-95571500D02*
X107308500Y-94972300D01*
X191316000Y-62376200D02*
X192344000Y-63404800D01*
X156469600Y-77459600D02*
X156469600Y-77470400D01*
X166301200Y-68190600D02*
X166301200Y-68469500D01*
X174450000Y-63404800D02*
X175802000Y-63404800D01*
X109076600Y-93204200D02*
X109076600Y-92884100D01*
X110011600Y-91949100D02*
X110341600Y-91949100D01*
X164445100Y-69484100D02*
X156469600Y-77459600D01*
X113164300Y-89130000D02*
X114529200Y-87765100D01*
X170711200Y-66518500D02*
X167973300Y-66518500D01*
X110341600Y-91949100D02*
X110341600Y-91949000D01*
X134238250Y-78160000D02*
X134820000Y-78160000D01*
X173021300Y-63404800D02*
X173021300Y-64208400D01*
X112797000Y-89130000D02*
X113164300Y-89130000D01*
X102476800Y-98889700D02*
X103404900Y-97961600D01*
X96947000Y-97461000D02*
X96947000Y-98889700D01*
X109076600Y-92884100D02*
X110011600Y-91949100D01*
X134820000Y-78160000D02*
X135396400Y-78736400D01*
X167973300Y-66518500D02*
X166301200Y-68190600D01*
X135396400Y-78736400D02*
X136493600Y-78736400D01*
X114529200Y-87765100D02*
X114529200Y-87446200D01*
X192344000Y-63404800D02*
X193696700Y-63404800D01*
X173021300Y-64208400D02*
X170711200Y-66518500D01*
X106940300Y-95939700D02*
X107308500Y-95571500D01*
X111989200Y-89937800D02*
X112797000Y-89130000D01*
X175802000Y-63404800D02*
X176831000Y-62376200D01*
X133661850Y-78736400D02*
X134238250Y-78160000D01*
X174450000Y-63404800D02*
X173021300Y-63404800D01*
X166301200Y-68469500D02*
X165286600Y-69484100D01*
X136493600Y-78736400D02*
X137268760Y-77961240D01*
X176831000Y-62376200D02*
X191316000Y-62376200D01*
X165286600Y-69484100D02*
X164445100Y-69484100D01*
X103404900Y-97961600D02*
X103404900Y-96722700D01*
X110341600Y-91949000D02*
X111989200Y-90301400D01*
X107308500Y-94972300D02*
X109076600Y-93204200D01*
X156469600Y-77470400D02*
X155978760Y-77961240D01*
X104187900Y-95939700D02*
X106940300Y-95939700D01*
X123239000Y-78736400D02*
X133661850Y-78736400D01*
D32*
X109760000Y-103518000D02*
X109647000Y-103631000D01*
D31*
X106679800Y-95311000D02*
X106679800Y-92243800D01*
X95700000Y-85970000D02*
X101552000Y-85970000D01*
X107090100Y-91833500D02*
X107090100Y-91312500D01*
X106679800Y-90902300D02*
X106679800Y-87760300D01*
X102317900Y-86735900D02*
X101552000Y-85970000D01*
D32*
X128080000Y-103518000D02*
X109760000Y-103518000D01*
D31*
X106679800Y-92243800D02*
X107090100Y-91833500D01*
D32*
X128886000Y-104324000D02*
X128080000Y-103518000D01*
D31*
X107090100Y-91312500D02*
X106679900Y-90902300D01*
X106679900Y-90902300D02*
X106679800Y-90902300D01*
D32*
X129820000Y-104324000D02*
X128886000Y-104324000D01*
D31*
X106679800Y-87760300D02*
X105655400Y-86735900D01*
D32*
X109647000Y-103631000D02*
X109647000Y-105081000D01*
D31*
X105655400Y-86735900D02*
X102317900Y-86735900D01*
D32*
X225893000Y-114139000D02*
X222634000Y-117398000D01*
X223300000Y-104638000D02*
X225074000Y-104638000D01*
X225893000Y-105457000D02*
X225893000Y-114139000D01*
X222634000Y-117398000D02*
X208376000Y-117398000D01*
X208376000Y-117398000D02*
X204316000Y-121458000D01*
X193178000Y-126505000D02*
X194492000Y-127819000D01*
X193178000Y-123595000D02*
X193178000Y-126505000D01*
X225074000Y-104638000D02*
X225893000Y-105457000D01*
X204316000Y-121458000D02*
X195315000Y-121458000D01*
X195315000Y-121458000D02*
X193178000Y-123595000D01*
X188223000Y-124417000D02*
X188223000Y-126056000D01*
X188783000Y-126616000D02*
X190749000Y-126616000D01*
X206064000Y-116236000D02*
X205630000Y-116670000D01*
X190749000Y-126616000D02*
X191952000Y-127819000D01*
X188223000Y-126056000D02*
X188783000Y-126616000D01*
X216436000Y-116236000D02*
X206064000Y-116236000D01*
X220032000Y-112639000D02*
X216436000Y-116236000D01*
X223300000Y-102098000D02*
X221526000Y-102098000D01*
X205630000Y-116670000D02*
X191182000Y-116670000D01*
X191182000Y-116670000D02*
X190118000Y-117734000D01*
X221526000Y-102098000D02*
X220032000Y-103592000D01*
X190118000Y-122522000D02*
X188223000Y-124417000D01*
X220032000Y-103592000D02*
X220032000Y-112639000D01*
X190118000Y-117734000D02*
X190118000Y-122522000D01*
X189412000Y-127819000D02*
X189412000Y-129215000D01*
X193077000Y-132880000D02*
X222742000Y-132880000D01*
X189412000Y-129215000D02*
X193077000Y-132880000D01*
X222742000Y-132880000D02*
X223300000Y-132322000D01*
X223300000Y-132322000D02*
X223300000Y-131310000D01*
X223300000Y-123690000D02*
X203701000Y-123690000D01*
X203701000Y-123690000D02*
X202112000Y-125279000D01*
X218358000Y-105677000D02*
X214447000Y-105677000D01*
X223300000Y-99558000D02*
X220395000Y-99558000D01*
X220395000Y-99558000D02*
X219629000Y-100324000D01*
X219629000Y-104406000D02*
X218358000Y-105677000D01*
X219629000Y-100324000D02*
X219629000Y-104406000D01*
X206464000Y-105687000D02*
X199572000Y-112579000D01*
X214447000Y-105677000D02*
X214438000Y-105687000D01*
X214438000Y-105687000D02*
X206464000Y-105687000D01*
X226138000Y-129653000D02*
X225255000Y-128770000D01*
X193028000Y-133400000D02*
X225147000Y-133400000D01*
X225147000Y-133400000D02*
X226138000Y-132409000D01*
X188166000Y-126573000D02*
X188166000Y-128538000D01*
X226138000Y-132409000D02*
X226138000Y-129653000D01*
X186872000Y-125279000D02*
X188166000Y-126573000D01*
X188166000Y-128538000D02*
X193028000Y-133400000D01*
X225255000Y-128770000D02*
X223300000Y-128770000D01*
X223300000Y-126230000D02*
X225074000Y-126230000D01*
X225642000Y-126803000D02*
X226881000Y-128042000D01*
X193228000Y-134175000D02*
X186872000Y-127819000D01*
X226881000Y-128042000D02*
X226881000Y-132843000D01*
X225074000Y-126230000D02*
X225642000Y-126798000D01*
X226881000Y-132843000D02*
X225549000Y-134175000D01*
X225549000Y-134175000D02*
X193228000Y-134175000D01*
X225642000Y-126798000D02*
X225642000Y-126803000D01*
X191952000Y-110039000D02*
X191952000Y-104479000D01*
X191952000Y-104479000D02*
X194333000Y-102098000D01*
X194333000Y-102098000D02*
X216564000Y-102098000D01*
X216564000Y-103626000D02*
X216564000Y-104638000D01*
X195576000Y-103494000D02*
X216432000Y-103494000D01*
X216432000Y-103494000D02*
X216564000Y-103626000D01*
X194492000Y-104578000D02*
X195576000Y-103494000D01*
X194492000Y-110039000D02*
X194492000Y-104578000D01*
X214790000Y-99558000D02*
X212652000Y-101696000D01*
X216564000Y-99558000D02*
X214790000Y-99558000D01*
X212652000Y-101696000D02*
X194166000Y-101696000D01*
X190699000Y-113409000D02*
X192409000Y-115119000D01*
X194166000Y-101696000D02*
X190699000Y-105163000D01*
X192409000Y-115119000D02*
X199572000Y-115119000D01*
X190699000Y-105163000D02*
X190699000Y-113409000D01*
X190520000Y-124171000D02*
X189412000Y-125279000D01*
X223300000Y-109718000D02*
X225074000Y-109718000D01*
X190520000Y-119581000D02*
X190520000Y-124171000D01*
X222467000Y-116996000D02*
X206240000Y-116996000D01*
X225074000Y-109718000D02*
X225491000Y-110135000D01*
X225491000Y-113972000D02*
X222467000Y-116996000D01*
X206240000Y-116996000D02*
X204588000Y-118648000D01*
X204588000Y-118648000D02*
X191453000Y-118648000D01*
X191453000Y-118648000D02*
X190520000Y-119581000D01*
X225491000Y-110135000D02*
X225491000Y-113972000D01*
D31*
X195064000Y-62232000D02*
X194380500Y-61548400D01*
X194380500Y-61548400D02*
X194380300Y-61548400D01*
X203010000Y-62232000D02*
X195064000Y-62232000D01*
X194380300Y-61548400D02*
X193696700Y-60864800D01*
X194380500Y-61548400D02*
X193697000Y-60864800D01*
D32*
X214790000Y-109718000D02*
X216564000Y-109718000D01*
X191952000Y-112579000D02*
X192941000Y-113568000D01*
X192941000Y-113568000D02*
X210940000Y-113568000D01*
X210940000Y-113568000D02*
X214790000Y-109718000D01*
X207619000Y-77366000D02*
X207621000Y-77364000D01*
X193697000Y-76104800D02*
X195147000Y-76104800D01*
X195147000Y-76104800D02*
X196408000Y-77366000D01*
X196408000Y-77366000D02*
X207619000Y-77366000D01*
D31*
X209230000Y-83804800D02*
X207801300Y-83804800D01*
X207801300Y-83804800D02*
X207801300Y-88023500D01*
X191407700Y-63655100D02*
X187755700Y-63655100D01*
X207801300Y-88023500D02*
X204706400Y-91118400D01*
X186076700Y-63404800D02*
X187505400Y-63404800D01*
X187755700Y-63655100D02*
X187505400Y-63404800D01*
D34*
X215360000Y-71305000D02*
X223958000Y-71305000D01*
X223958000Y-71305000D02*
X224181000Y-71527200D01*
X224181000Y-71527200D02*
X224181000Y-72614200D01*
X213078000Y-73587000D02*
X215360000Y-71305000D01*
X213078000Y-75610000D02*
X213078000Y-73587000D01*
D31*
X107787000Y-132144000D02*
X102440400Y-132144000D01*
X139293000Y-131024000D02*
X133258000Y-131024000D01*
X112368000Y-131257000D02*
X112226000Y-131115000D01*
X102426000Y-132150000D02*
X94032000Y-132150000D01*
X173688000Y-132144000D02*
X172659000Y-131115000D01*
X175039600Y-132144000D02*
X173688000Y-132144000D01*
X126640400Y-132144000D02*
X125288000Y-132144000D01*
X112226000Y-131115000D02*
X108816000Y-131115000D01*
X157685000Y-131115000D02*
X156656000Y-132144000D01*
X133258000Y-131024000D02*
X132139000Y-132144000D01*
X108816000Y-131115000D02*
X107787000Y-132144000D01*
X156656000Y-132144000D02*
X150839600Y-132144000D01*
X125288000Y-132144000D02*
X124401000Y-131257000D01*
X172659000Y-131115000D02*
X157685000Y-131115000D01*
X150839600Y-132144000D02*
X140413000Y-132144000D01*
X124401000Y-131257000D02*
X112368000Y-131257000D01*
X94032000Y-132150000D02*
X92807000Y-130925000D01*
X132139000Y-132144000D02*
X126640400Y-132144000D01*
X140413000Y-132144000D02*
X139293000Y-131024000D01*
X92807000Y-130925000D02*
X88781000Y-130925000D01*
X93323600Y-95636100D02*
X93378200Y-95690700D01*
X91612600Y-95636100D02*
X93323600Y-95636100D01*
X127515000Y-108593000D02*
X128135000Y-109213000D01*
X105161000Y-108593000D02*
X127515000Y-108593000D01*
X95435800Y-103351600D02*
X93378200Y-101294000D01*
X105161000Y-108593000D02*
X96474200Y-108593000D01*
X96474200Y-108593000D02*
X96222000Y-108340800D01*
D32*
X190266000Y-115500000D02*
X191034000Y-116268000D01*
X189700000Y-115500000D02*
X190266000Y-115500000D01*
X206331000Y-115400000D02*
X215700000Y-115400000D01*
X191034000Y-116268000D02*
X205463000Y-116268000D01*
X205463000Y-116268000D02*
X206331000Y-115400000D01*
D31*
X142225000Y-98596300D02*
X142529900Y-98291400D01*
X156880400Y-98596300D02*
X177029700Y-98596300D01*
X156193600Y-98762200D02*
X156714500Y-98762200D01*
X156714500Y-98762200D02*
X156880400Y-98596300D01*
X142529900Y-98291400D02*
X155722800Y-98291400D01*
X142225000Y-100025000D02*
X142225000Y-98596300D01*
X155722800Y-98291400D02*
X156193600Y-98762200D01*
X177029700Y-98596300D02*
X178812600Y-100379200D01*
X77746900Y-78708100D02*
X85861900Y-78708100D01*
X106738000Y-70153000D02*
X106738000Y-69838000D01*
X100460000Y-75410000D02*
X100460000Y-71900000D01*
X125477000Y-76222100D02*
X119641200Y-76222100D01*
X119641200Y-76222100D02*
X118666300Y-77197000D01*
X106738000Y-69838000D02*
X107571000Y-69005000D01*
X105820200Y-71070800D02*
X106738000Y-70153000D01*
X99500000Y-76370000D02*
X100460000Y-75410000D01*
X107571000Y-69005000D02*
X116095635Y-69005000D01*
X85861900Y-78708100D02*
X87110000Y-77460000D01*
X75865000Y-80590000D02*
X77746900Y-78708100D01*
X118666300Y-77197000D02*
X116759200Y-77197000D01*
X100460000Y-71900000D02*
X101289200Y-71070800D01*
X87110000Y-77460000D02*
X88200000Y-76370000D01*
X116095635Y-69005000D02*
X116749281Y-69658646D01*
X101289200Y-71070800D02*
X105820200Y-71070800D01*
X126083600Y-76828700D02*
X125477000Y-76222100D01*
X88200000Y-76370000D02*
X99500000Y-76370000D01*
X79253780Y-79639620D02*
X90010380Y-79639620D01*
X78521000Y-80372400D02*
X79253780Y-79639620D01*
X112959000Y-109231600D02*
X115797700Y-109231600D01*
X94248500Y-81769400D02*
X78736000Y-81769400D01*
X141737900Y-96898600D02*
X141087100Y-96247800D01*
X78174100Y-80372400D02*
X77955300Y-80372400D01*
X90010380Y-79639620D02*
X92190000Y-77460000D01*
X129100100Y-98114800D02*
X129100100Y-98494300D01*
X152385000Y-96898600D02*
X141737900Y-96898600D01*
X129100100Y-98494300D02*
X126009300Y-101585100D01*
X78736000Y-81769400D02*
X78174100Y-81207500D01*
X92764500Y-110880100D02*
X94062600Y-109582000D01*
X131226000Y-96247800D02*
X130280200Y-97193600D01*
X130280200Y-97193600D02*
X130021300Y-97193600D01*
X78174100Y-80372400D02*
X78521000Y-80372400D01*
X94062600Y-109582000D02*
X112608600Y-109582000D01*
X130021300Y-97193600D02*
X129100100Y-98114800D01*
X112608600Y-109582000D02*
X112959000Y-109231600D01*
X78174100Y-81207500D02*
X78174100Y-80372400D01*
X126009300Y-101585100D02*
X115797700Y-101585100D01*
X141087100Y-96247800D02*
X131226000Y-96247800D01*
X146403300Y-106751600D02*
X131257200Y-106751600D01*
X79923460Y-79942540D02*
X92247460Y-79942540D01*
X130927000Y-118084800D02*
X131257200Y-117754600D01*
X146479300Y-106675600D02*
X146403300Y-106751600D01*
X92247460Y-79942540D02*
X94730000Y-77460000D01*
X102049000Y-95232400D02*
X100021100Y-93204500D01*
X78869000Y-80997000D02*
X79923460Y-79942540D01*
X116080200Y-117519900D02*
X116645100Y-118084800D01*
X116645100Y-118084800D02*
X130927000Y-118084800D01*
X105711600Y-95232400D02*
X102049000Y-95232400D01*
X124919572Y-69418572D02*
X118181428Y-69418572D01*
X134679500Y-99340400D02*
X129489400Y-99340400D01*
X86833300Y-66093800D02*
X86374735Y-66093800D01*
X122842400Y-89214500D02*
X122149200Y-89907700D01*
X87827600Y-59366500D02*
X95776100Y-59366500D01*
X86374735Y-66093800D02*
X79850000Y-72618535D01*
X116285357Y-70285357D02*
X115633700Y-69633700D01*
X125959900Y-85378700D02*
X124361200Y-86977400D01*
X87773300Y-79336700D02*
X89650000Y-77460000D01*
X144765000Y-100025000D02*
X144765000Y-101453700D01*
X115633700Y-69633700D02*
X111769000Y-69633700D01*
X79764400Y-75697000D02*
X81070100Y-75697000D01*
X124361200Y-86977400D02*
X124361200Y-88111800D01*
X122149200Y-89907700D02*
X122149200Y-91526400D01*
X123258500Y-89214500D02*
X122842400Y-89214500D01*
X144423300Y-101795400D02*
X137134500Y-101795400D01*
X137134500Y-101795400D02*
X134679500Y-99340400D01*
X78102000Y-79336700D02*
X87773300Y-79336700D01*
X79350000Y-74150000D02*
X79350000Y-75282600D01*
X79350000Y-75282600D02*
X79764400Y-75697000D01*
X118181428Y-69418572D02*
X117314643Y-70285357D01*
X81070100Y-75697000D02*
X81570100Y-75197000D01*
X79850000Y-73650000D02*
X79350000Y-74150000D01*
X122149200Y-91526400D02*
X122292800Y-91670000D01*
X95776100Y-59366500D02*
X97895000Y-57247600D01*
X79850000Y-72618535D02*
X79850000Y-73650000D01*
X117314643Y-70285357D02*
X116285357Y-70285357D01*
X124361200Y-88111800D02*
X123258500Y-89214500D01*
X144765000Y-101453700D02*
X144423300Y-101795400D01*
D34*
X195652000Y-138442000D02*
X200969000Y-138442000D01*
D31*
X141603000Y-58294100D02*
X152989700Y-58294100D01*
X114250100Y-60819100D02*
X139078000Y-60819100D01*
X153522000Y-66618000D02*
X152630000Y-67510000D01*
X139078000Y-60819100D02*
X141603000Y-58294100D01*
X153522000Y-58826400D02*
X153522000Y-66618000D01*
X152989700Y-58294100D02*
X153522000Y-58826400D01*
X127700000Y-70850000D02*
X114223500Y-70850000D01*
X114223500Y-70850000D02*
X113514500Y-71559000D01*
X129600000Y-68950000D02*
X127700000Y-70850000D01*
X137150000Y-68950000D02*
X129600000Y-68950000D01*
X106604300Y-73915700D02*
X105360000Y-75160000D01*
X137900000Y-69700000D02*
X137150000Y-68950000D01*
X112797700Y-73632500D02*
X109148000Y-73632500D01*
X113514500Y-71559000D02*
X113514500Y-72915700D01*
X113514500Y-72915700D02*
X112797700Y-73632500D01*
X108864800Y-73915700D02*
X106604300Y-73915700D01*
X109148000Y-73632500D02*
X108864800Y-73915700D01*
X112375800Y-74324200D02*
X131763500Y-74324200D01*
X111151289Y-76148711D02*
X111650000Y-75650000D01*
X132335200Y-73752500D02*
X145790600Y-73752500D01*
X109002600Y-75927900D02*
X109223411Y-76148711D01*
X111650000Y-75650000D02*
X111650000Y-75050000D01*
X111650000Y-75050000D02*
X112375800Y-74324200D01*
X145790600Y-73752500D02*
X147977700Y-71565400D01*
X131763500Y-74324200D02*
X132335200Y-73752500D01*
X109223411Y-76148711D02*
X111151289Y-76148711D01*
X131074500Y-76613200D02*
X151456800Y-76613200D01*
X111557600Y-76654200D02*
X111643500Y-76568300D01*
X130378500Y-75917200D02*
X131074500Y-76613200D01*
X111643500Y-76568300D02*
X118711100Y-76568300D01*
X118711100Y-76568300D02*
X119362200Y-75917200D01*
X119362200Y-75917200D02*
X130378500Y-75917200D01*
X151456800Y-76613200D02*
X151950000Y-76120000D01*
X151950000Y-76120000D02*
X153760000Y-76120000D01*
X102310000Y-80890000D02*
X99590000Y-80890000D01*
X105360000Y-80240000D02*
X102960000Y-80240000D01*
X102960000Y-80240000D02*
X102310000Y-80890000D01*
X99590000Y-80890000D02*
X99010000Y-81470000D01*
X104100000Y-76580000D02*
X109320000Y-76580000D01*
X102460000Y-78220000D02*
X104100000Y-76580000D01*
X110440000Y-77700000D02*
X109320000Y-76580000D01*
X102460000Y-78220000D02*
X102460000Y-78860000D01*
X152816300Y-84900000D02*
X151482700Y-86233600D01*
X142721200Y-86233600D02*
X142277300Y-86677500D01*
X151482700Y-86233600D02*
X142721200Y-86233600D01*
X153845000Y-84900000D02*
X152816300Y-84900000D01*
X144019500Y-85165100D02*
X145432500Y-83752100D01*
X142815500Y-85165100D02*
X144019500Y-85165100D01*
X145432500Y-83752100D02*
X150190100Y-83752100D01*
X150190100Y-83752100D02*
X150276200Y-83666000D01*
X143530100Y-82475400D02*
X139892800Y-82475400D01*
X151946300Y-80936200D02*
X150997600Y-81884900D01*
X166545000Y-84900000D02*
X165516300Y-84900000D01*
X162526600Y-81193600D02*
X152808200Y-81193600D01*
X152808200Y-81193600D02*
X152550800Y-80936200D01*
X165516300Y-84900000D02*
X165516300Y-84183300D01*
X150997600Y-81884900D02*
X144120600Y-81884900D01*
X152550800Y-80936200D02*
X151946300Y-80936200D01*
X165516300Y-84183300D02*
X162526600Y-81193600D01*
X128738400Y-81711100D02*
X123140000Y-87309500D01*
X139892800Y-82475400D02*
X139128500Y-81711100D01*
X144120600Y-81884900D02*
X143530100Y-82475400D01*
X139128500Y-81711100D02*
X128738400Y-81711100D01*
X166545000Y-88300000D02*
X165516300Y-88300000D01*
X142657300Y-90096200D02*
X163720100Y-90096200D01*
X163720100Y-90096200D02*
X165516300Y-88300000D01*
X140589100Y-92164400D02*
X142657300Y-90096200D01*
X132744000Y-94960300D02*
X139877200Y-94960300D01*
X131922100Y-94138400D02*
X132744000Y-94960300D01*
X139877200Y-94960300D02*
X140589100Y-94248400D01*
X140589100Y-94248400D02*
X140589100Y-92164400D01*
X160436300Y-84900000D02*
X158797800Y-86538500D01*
X161465000Y-84900000D02*
X160436300Y-84900000D01*
X143305700Y-86538500D02*
X138148400Y-91695800D01*
X158797800Y-86538500D02*
X143305700Y-86538500D01*
X138148400Y-91695800D02*
X135113400Y-91695800D01*
X135113400Y-91695800D02*
X134819300Y-91989900D01*
X154327500Y-89328800D02*
X143567100Y-89328800D01*
X143567100Y-89328800D02*
X142932200Y-88693900D01*
X156385000Y-88300000D02*
X155356300Y-88300000D01*
X155356300Y-88300000D02*
X154327500Y-89328800D01*
X114890200Y-84050000D02*
X120508700Y-78431500D01*
X105149400Y-84050000D02*
X114890200Y-84050000D01*
X128434200Y-78431500D02*
X129428200Y-77437500D01*
X120508700Y-78431500D02*
X128434200Y-78431500D01*
X103782300Y-85417100D02*
X105149400Y-84050000D01*
X141981600Y-89633800D02*
X137301600Y-94313800D01*
X164263900Y-86719400D02*
X163752500Y-87230800D01*
X160195000Y-88115000D02*
X160195000Y-88512900D01*
X159074100Y-89633800D02*
X141981600Y-89633800D01*
X160195000Y-88512900D02*
X159074100Y-89633800D01*
X163752500Y-87230800D02*
X161079200Y-87230800D01*
X161079200Y-87230800D02*
X160195000Y-88115000D01*
X139593400Y-86329500D02*
X142818800Y-83104100D01*
X133411300Y-86329500D02*
X139593400Y-86329500D01*
X129490000Y-89130000D02*
X130917100Y-89130000D01*
X128220000Y-90400000D02*
X129490000Y-89130000D01*
X132030100Y-87710700D02*
X133411300Y-86329500D01*
X132030100Y-88017000D02*
X132030100Y-87710700D01*
X130917100Y-89130000D02*
X132030100Y-88017000D01*
X134290900Y-87989800D02*
X134290900Y-88288500D01*
X139784700Y-86735800D02*
X135544900Y-86735800D01*
X143047500Y-83764700D02*
X142755800Y-83764700D01*
X133449400Y-89130000D02*
X132030000Y-89130000D01*
X132030000Y-89130000D02*
X130760000Y-90400000D01*
X135544900Y-86735800D02*
X134290900Y-87989800D01*
X142755800Y-83764700D02*
X139784700Y-86735800D01*
X134290900Y-88288500D02*
X133449400Y-89130000D01*
X144206300Y-82688500D02*
X144123700Y-82688500D01*
X144123700Y-82688500D02*
X143047500Y-83764700D01*
X151305000Y-84900000D02*
X150276300Y-84900000D01*
X141648600Y-87173600D02*
X139607600Y-89214600D01*
X149247600Y-85928700D02*
X142137000Y-85928700D01*
X142137000Y-85928700D02*
X141648600Y-86417100D01*
X150276300Y-84900000D02*
X149247600Y-85928700D01*
X141648600Y-86417100D02*
X141648600Y-87173600D01*
X167586100Y-88755000D02*
X165427200Y-90913900D01*
X149984000Y-95942900D02*
X149679100Y-96247800D01*
X167586100Y-87793800D02*
X167586100Y-88755000D01*
X164005000Y-88300000D02*
X165033700Y-88300000D01*
X130973200Y-95638000D02*
X130425600Y-96185600D01*
X155802800Y-95942900D02*
X149984000Y-95942900D01*
X165033700Y-88300000D02*
X166070700Y-87263000D01*
X149679100Y-96247800D02*
X142102000Y-96247800D01*
X166070700Y-87263000D02*
X167055300Y-87263000D01*
X165427200Y-90913900D02*
X159628400Y-90913900D01*
X158735000Y-91807300D02*
X158735000Y-93010700D01*
X141492200Y-95638000D02*
X130973200Y-95638000D01*
X159628400Y-90913900D02*
X158735000Y-91807300D01*
X158735000Y-93010700D02*
X155802800Y-95942900D01*
X142102000Y-96247800D02*
X141492200Y-95638000D01*
X167055300Y-87263000D02*
X167586100Y-87793800D01*
X130425600Y-96185600D02*
X128903900Y-96185600D01*
X136284300Y-93991300D02*
X136284300Y-93991200D01*
X156543800Y-86966300D02*
X157877500Y-88300000D01*
X143309200Y-86966300D02*
X156543800Y-86966300D01*
X134792900Y-93991300D02*
X136284300Y-93991300D01*
X136284300Y-93991200D02*
X143309200Y-86966300D01*
X157877500Y-88300000D02*
X157896300Y-88300000D01*
X158925000Y-88300000D02*
X157896300Y-88300000D01*
X136206300Y-94620800D02*
X134532600Y-94620800D01*
X153845000Y-88300000D02*
X152816300Y-88300000D01*
X152816300Y-88300000D02*
X151787600Y-87271300D01*
X151787600Y-87271300D02*
X143435500Y-87271300D01*
X143435500Y-87271300D02*
X136626000Y-94080800D01*
X134532600Y-94620800D02*
X133300000Y-93388200D01*
X136626000Y-94201100D02*
X136206300Y-94620800D01*
X136626000Y-94080800D02*
X136626000Y-94201100D01*
M02*
