M48
; DRILL file {KiCad 7.0.9} date Sunday, December 10, 2023 at 05:26:11 PM
; FORMAT={-:-/ absolute / inch / decimal}
; #@! TF.CreationDate,2023-12-10T17:26:11+00:00
; #@! TF.GenerationSoftware,Kicad,Pcbnew,7.0.9
; #@! TF.FileFunction,Plated,1,4,PTH
FMAT,2
INCH
; #@! TA.AperFunction,Plated,PTH,ViaDrill
T1C0.0157
; #@! TA.AperFunction,Plated,PTH,ComponentDrill
T2C0.0276
; #@! TA.AperFunction,Plated,PTH,ComponentDrill
T3C0.0315
; #@! TA.AperFunction,Plated,PTH,ComponentDrill
T4C0.0320
; #@! TA.AperFunction,Plated,PTH,ComponentDrill
T5C0.0394
; #@! TA.AperFunction,Plated,PTH,ComponentDrill
T6C0.0400
; #@! TA.AperFunction,Plated,PTH,ComponentDrill
T7C0.1260
%
G90
G05
T1
X3.0107Y-5.8311
X3.0482Y-5.8007
X3.0561Y-4.8228
X3.0568Y-2.9634
X3.0571Y-5.3238
X3.0581Y-4.7472
X3.0581Y-4.9232
X3.0581Y-5.0246
X3.0581Y-5.124
X3.0581Y-5.2215
X3.0581Y-5.4213
X3.0581Y-5.4979
X3.0691Y-3.1643
X3.0749Y-3.1235
X3.0787Y-3.9398
X3.0846Y-5.7656
X3.1051Y-3.1889
X3.123Y-5.7134
X3.1506Y-2.954
X3.1604Y-5.6831
X3.1919Y-4.873
X3.2114Y-2.9605
X3.2126Y-4.9724
X3.2291Y-3.1913
X3.2313Y-4.7224
X3.2352Y-5.0728
X3.2446Y-3.9272
X3.2563Y-5.5728
X3.2598Y-4.5993
X3.2663Y-3.4994
X3.2772Y-4.7978
X3.2811Y-5.4724
X3.297Y-3.9845
X3.2982Y-4.5098
X3.3058Y-5.373
X3.3217Y-4.0211
X3.3217Y-4.3758
X3.3268Y-2.874
X3.3306Y-5.2726
X3.336Y-3.7155
X3.3367Y-4.7914
X3.3386Y-2.8071
X3.3389Y-4.533
X3.3465Y-4.315
X3.3553Y-5.1742
X3.364Y-4.2039
X3.3768Y-4.8533
X3.3819Y-2.8925
X3.3937Y-3.7511
X3.4186Y-2.6021
X3.4214Y-3.7255
X3.4232Y-2.7795
X3.4578Y-2.3373
X3.466Y-2.5967
X3.4801Y-2.5463
X3.4825Y-2.2958
X3.4953Y-5.1545
X3.5134Y-2.8681
X3.5167Y-5.6663
X3.5605Y-3.7764
X3.5736Y-2.6001
X3.5857Y-4.2315
X3.5857Y-4.4539
X3.6068Y-3.7652
X3.6174Y-4.725
X3.6213Y-3.1945
X3.6283Y-3.6787
X3.6521Y-4.3654
X3.6668Y-3.1713
X3.6763Y-3.7674
X3.6763Y-3.988
X3.6764Y-2.8928
X3.6791Y-2.4735
X3.6941Y-4.6102
X3.7047Y-4.662
X3.7106Y-3.2193
X3.7155Y-4.3696
X3.7352Y-4.794
X3.748Y-3.4491
X3.7502Y-4.5583
X3.7573Y-4.069
X3.7602Y-4.8757
X3.7639Y-2.6091
X3.7803Y-2.982
X3.7821Y-3.6781
X3.7883Y-4.2654
X3.8262Y-3.1943
X3.8367Y-3.5331
X3.8419Y-4.2395
X3.8419Y-4.7801
X3.8541Y-2.2538
X3.867Y-3.4244
X3.8799Y-2.3343
X3.8799Y-2.748
X3.898Y-3.2075
X3.9168Y-4.3526
X3.9217Y-2.9567
X3.9294Y-4.5334
X3.9295Y-3.5201
X3.9378Y-3.6695
X3.968Y-3.4901
X4.0094Y-2.5625
X4.0177Y-2.5079
X4.0217Y-3.2815
X4.0285Y-3.929
X4.0339Y-3.1047
X4.0527Y-3.0217
X4.0606Y-3.1988
X4.0666Y-2.6857
X4.0747Y-2.4654
X4.0798Y-2.6242
X4.0859Y-3.3629
X4.0884Y-3.625
X4.1168Y-3.9681
X4.1619Y-3.7493
X4.1914Y-3.6052
X4.1919Y-3.4063
X4.1956Y-2.2579
X4.198Y-2.2954
X4.2Y-3.7524
X4.2033Y-2.8136
X4.2039Y-2.7007
X4.2389Y-2.3414
X4.2668Y-4.4267
X4.2857Y-2.3951
X4.2914Y-2.9893
X4.2919Y-3.7078
X4.2992Y-4.2087
X4.3162Y-4.0108
X4.335Y-2.3478
X4.3633Y-3.9387
X4.3858Y-3.5028
X4.3878Y-3.6114
X4.392Y-3.0179
X4.4004Y-2.7415
X4.4304Y-2.8742
X4.4309Y-3.0854
X4.4339Y-4.0015
X4.4416Y-3.7234
X4.4518Y-3.3349
X4.4573Y-4.3254
X4.4715Y-3.9218
X4.4743Y-4.234
X4.4929Y-4.4561
X4.4947Y-2.8287
X4.498Y-2.3945
X4.5106Y-3.4052
X4.559Y-3.9994
X4.559Y-4.3005
X4.5643Y-2.9764
X4.5701Y-4.6268
X4.5751Y-3.4129
X4.596Y-3.5242
X4.5964Y-2.7425
X4.5968Y-3.0393
X4.609Y-2.5244
X4.6245Y-4.3004
X4.6275Y-3.8105
X4.6409Y-3.8593
X4.6473Y-2.9881
X4.665Y-3.8028
X4.6661Y-3.8968
X4.6664Y-4.3004
X4.6773Y-4.7044
X4.7106Y-5.9035
X4.723Y-2.9014
X4.723Y-3.0262
X4.7376Y-4.3167
X4.7382Y-5.8051
X4.7449Y-3.7184
X4.7598Y-5.7028
X4.76Y-3.3694
X4.7738Y-3.7673
X4.7805Y-5.5876
X4.7914Y-3.4284
X4.7925Y-5.5218
X4.7965Y-4.234
X4.8059Y-5.4868
X4.8071Y-2.323
X4.8102Y-3.7437
X4.8147Y-3.6091
X4.8156Y-2.5003
X4.8403Y-3.7678
X4.878Y-5.6201
X4.8869Y-4.3173
X4.8918Y-3.5089
X4.9141Y-4.4756
X4.9181Y-2.733
X4.9578Y-3.7881
X4.9591Y-3.3614
X4.9639Y-3.0248
X4.9669Y-4.3341
X4.981Y-3.7432
X4.9909Y-3.492
X4.9992Y-4.1998
X5.0447Y-4.2997
X5.058Y-3.0378
X5.0735Y-3.3111
X5.075Y-3.7868
X5.0844Y-2.2998
X5.0956Y-3.0487
X5.098Y-3.911
X5.1021Y-4.6215
X5.1143Y-3.7371
X5.1339Y-2.2657
X5.1398Y-5.7657
X5.1591Y-3.2416
X5.1676Y-4.2028
X5.1676Y-4.636
X5.1914Y-3.8142
X5.1938Y-3.7062
X5.196Y-2.9795
X5.2076Y-4.3065
X5.2148Y-5.4293
X5.2276Y-4.0871
X5.2717Y-6.0448
X5.2969Y-3.1018
X5.3068Y-3.7004
X5.3078Y-3.6216
X5.3083Y-2.7958
X5.3728Y-4.0244
X5.4055Y-3.1231
X5.4056Y-3.7131
X5.4218Y-2.8563
X5.4232Y-6.0208
X5.4291Y-2.7441
X5.465Y-3.0445
X5.4672Y-3.2417
X5.4677Y-3.1628
X5.4724Y-5.7047
X5.4849Y-2.35
X5.4948Y-3.1122
X5.4964Y-3.5124
X5.5139Y-2.2779
X5.5291Y-2.879
X5.5438Y-2.7396
X5.549Y-4.5312
X5.5492Y-5.6742
X5.6015Y-3.4125
X5.6227Y-3.353
X5.6228Y-3.2718
X5.6273Y-3.4919
X5.6675Y-3.3141
X5.6774Y-3.2555
X5.6971Y-5.6241
X5.7298Y-3.2606
X5.7669Y-4.1998
X5.7819Y-3.1751
X5.8259Y-2.8175
X5.8549Y-5.9833
X5.8724Y-4.0128
X5.9164Y-3.2939
X5.9531Y-2.8058
X5.965Y-3.1378
X5.9957Y-3.2112
X5.9994Y-3.8149
X6.0093Y-5.9109
X6.0126Y-2.7982
X6.0192Y-2.5781
X6.0641Y-5.5246
X6.0953Y-4.3089
X6.1047Y-3.814
X6.1596Y-3.8635
X6.2147Y-3.4404
X6.2494Y-3.8395
X6.3249Y-3.108
X6.3302Y-2.9148
X6.3406Y-4.0077
X6.365Y-3.0679
X6.378Y-3.6181
X6.4067Y-3.6645
X6.4165Y-3.2494
X6.4361Y-4.7048
X6.4361Y-5.2363
X6.4646Y-3.9775
X6.4646Y-5.3031
X6.4671Y-3.4141
X6.5033Y-2.7603
X6.5033Y-3.677
X6.5422Y-4.0492
X6.5433Y-5.2106
X6.5669Y-3.748
X6.572Y-2.6949
X6.5894Y-2.266
X6.6035Y-2.9372
X6.6282Y-3.5902
X6.6412Y-2.9014
X6.6604Y-2.3861
X6.6876Y-3.1693
X6.7096Y-2.3449
X6.7225Y-4.3732
X6.7726Y-4.9068
X6.7796Y-3.3457
X6.8043Y-2.8234
X6.8754Y-3.6616
X7.0232Y-2.2442
X7.0311Y-3.6114
X7.0399Y-3.9519
X7.0518Y-2.691
X7.0766Y-3.0609
X7.0943Y-3.1431
X7.0984Y-2.8928
X7.1383Y-4.8813
X7.1457Y-4.5171
X7.1457Y-5.0692
X7.1579Y-4.4747
X7.2455Y-2.3307
X7.247Y-2.3991
X7.2568Y-2.5121
X7.3239Y-4.3716
X7.3509Y-4.1587
X7.374Y-3.748
X7.3949Y-2.6855
X7.3952Y-3.2904
X7.4035Y-3.1161
X7.4331Y-3.8491
X7.4685Y-4.5472
X7.4759Y-4.0619
X7.4761Y-3.2933
X7.4873Y-2.4297
X7.5146Y-4.0916
X7.5357Y-2.5061
X7.5505Y-3.1622
X7.5612Y-2.5637
X7.566Y-3.9171
X7.9059Y-3.6683
X7.9708Y-3.9651
X7.9925Y-2.4501
X8.0201Y-3.8491
X8.0444Y-3.7492
X8.0593Y-3.5873
X8.1493Y-3.9553
X8.1741Y-3.0458
X8.1852Y-2.2678
X8.4921Y-4.5433
T2
X4.148Y-2.4591
X4.148Y-2.5591
X4.148Y-2.6591
X4.148Y-2.7591
X4.148Y-2.8591
X4.148Y-2.9591
X4.148Y-3.0591
X4.148Y-3.1591
X4.148Y-3.2591
X4.148Y-3.3591
X4.148Y-3.4591
X4.148Y-3.5591
X4.148Y-3.6591
X4.248Y-2.4591
X4.248Y-2.5591
X4.248Y-2.6591
X4.248Y-2.7591
X4.248Y-2.8591
X4.248Y-2.9591
X4.248Y-3.0591
X4.248Y-3.1591
X4.248Y-3.2591
X4.248Y-3.3591
X4.248Y-3.4591
X4.248Y-3.5591
X4.248Y-3.6591
X4.348Y-2.4591
X4.348Y-2.5591
X4.348Y-2.6591
X4.348Y-2.7591
X4.348Y-2.8591
X4.348Y-2.9591
X4.348Y-3.0591
X4.348Y-3.1591
X4.348Y-3.2591
X4.348Y-3.3591
X4.348Y-3.4591
X4.348Y-3.5591
X4.348Y-3.6591
X4.448Y-2.4591
X4.448Y-2.5591
X4.448Y-2.6591
X4.448Y-3.4591
X4.448Y-3.5591
X4.448Y-3.6591
X4.548Y-2.4591
X4.548Y-2.5591
X4.548Y-2.6591
X4.548Y-3.4591
X4.548Y-3.5591
X4.548Y-3.6591
X4.648Y-2.4591
X4.648Y-2.5591
X4.648Y-2.6591
X4.648Y-3.4591
X4.648Y-3.5591
X4.648Y-3.6591
X4.748Y-2.4591
X4.748Y-2.5591
X4.748Y-2.6591
X4.748Y-3.4591
X4.748Y-3.5591
X4.748Y-3.6591
X4.848Y-2.4591
X4.848Y-2.5591
X4.848Y-2.6591
X4.848Y-3.4591
X4.848Y-3.5591
X4.848Y-3.6591
X4.948Y-2.4591
X4.948Y-2.5591
X4.948Y-2.6591
X4.948Y-3.4591
X4.948Y-3.5591
X4.948Y-3.6591
X5.048Y-2.4591
X5.048Y-2.5591
X5.048Y-2.6591
X5.048Y-3.4591
X5.048Y-3.5591
X5.048Y-3.6591
X5.148Y-2.4591
X5.148Y-2.5591
X5.148Y-2.6591
X5.148Y-3.0591
X5.148Y-3.4591
X5.148Y-3.5591
X5.148Y-3.6591
X5.248Y-2.4591
X5.248Y-2.5591
X5.248Y-2.6591
X5.248Y-2.7591
X5.248Y-2.8591
X5.248Y-2.9591
X5.248Y-3.0591
X5.248Y-3.1591
X5.248Y-3.2591
X5.248Y-3.3591
X5.248Y-3.4591
X5.248Y-3.5591
X5.248Y-3.6591
X5.348Y-2.4591
X5.348Y-2.5591
X5.348Y-2.6591
X5.348Y-2.7591
X5.348Y-2.8591
X5.348Y-2.9591
X5.348Y-3.0591
X5.348Y-3.1591
X5.348Y-3.2591
X5.348Y-3.3591
X5.348Y-3.4591
X5.348Y-3.5591
X5.348Y-3.6591
T3
X3.1295Y-3.0496
X3.2295Y-3.0496
X3.3295Y-3.0496
X3.4168Y-3.837
X3.4168Y-4.137
X3.4295Y-3.0496
X3.4331Y-4.4025
X3.4331Y-4.5025
X3.4331Y-4.6025
X3.4331Y-4.7025
X3.4331Y-4.8025
X3.4331Y-4.9025
X3.4331Y-5.0025
X3.4331Y-5.1025
X3.4331Y-5.2025
X3.4331Y-5.3025
X3.4331Y-5.4025
X3.4331Y-5.5025
X3.4331Y-5.6025
X3.4331Y-5.7025
X3.4331Y-5.8025
X3.4331Y-5.9025
X3.5168Y-3.837
X3.5168Y-4.137
X3.5295Y-3.0496
X3.6168Y-3.837
X3.6168Y-4.137
X3.6295Y-3.0496
X3.7168Y-3.837
X3.7168Y-4.137
X3.7295Y-3.0496
X3.8168Y-3.837
X3.8168Y-4.137
X3.8295Y-3.0496
X3.9168Y-3.837
X3.9168Y-4.137
X3.9295Y-3.0496
X4.0168Y-3.837
X4.0168Y-4.137
X4.0331Y-4.4025
X4.0331Y-4.5025
X4.0331Y-4.6025
X4.0331Y-4.7025
X4.0331Y-4.8025
X4.0331Y-4.9025
X4.0331Y-5.0025
X4.0331Y-5.1025
X4.0331Y-5.2025
X4.0331Y-5.3025
X4.0331Y-5.4025
X4.0331Y-5.5025
X4.0331Y-5.6025
X4.0331Y-5.7025
X4.0331Y-5.8025
X4.0331Y-5.9025
X4.1168Y-3.837
X4.1168Y-4.137
X4.2168Y-3.837
X4.2168Y-4.137
X4.3168Y-3.837
X4.3168Y-4.137
X4.3858Y-4.4025
X4.3858Y-4.5025
X4.3858Y-4.6025
X4.3858Y-4.7025
X4.3858Y-4.8025
X4.3858Y-4.9025
X4.3858Y-5.0025
X4.3858Y-5.1025
X4.3858Y-5.2025
X4.3858Y-5.3025
X4.3858Y-5.4025
X4.3858Y-5.5025
X4.3858Y-5.6025
X4.3858Y-5.7025
X4.3858Y-5.8025
X4.3858Y-5.9025
X4.4168Y-3.837
X4.4168Y-4.137
X4.5168Y-3.837
X4.5168Y-4.137
X4.9858Y-4.4025
X4.9858Y-4.5025
X4.9858Y-4.6025
X4.9858Y-4.7025
X4.9858Y-4.8025
X4.9858Y-4.9025
X4.9858Y-5.0025
X4.9858Y-5.1025
X4.9858Y-5.2025
X4.9858Y-5.3025
X4.9858Y-5.4025
X4.9858Y-5.5025
X4.9858Y-5.6025
X4.9858Y-5.7025
X4.9858Y-5.8025
X4.9858Y-5.9025
X5.3386Y-4.4025
X5.3386Y-4.5025
X5.3386Y-4.6025
X5.3386Y-4.7025
X5.3386Y-4.8025
X5.3386Y-4.9025
X5.3386Y-5.0025
X5.3386Y-5.1025
X5.3386Y-5.2025
X5.3386Y-5.3025
X5.3386Y-5.4025
X5.3386Y-5.5025
X5.3386Y-5.6025
X5.3386Y-5.7025
X5.3386Y-5.8025
X5.3386Y-5.9025
X5.5902Y-2.8461
X5.5902Y-3.1461
X5.5994Y-3.638
X5.5994Y-3.938
X5.6994Y-3.638
X5.6994Y-3.938
X5.7569Y-3.3425
X5.7569Y-3.4764
X5.7994Y-3.638
X5.7994Y-3.938
X5.8569Y-3.3425
X5.8569Y-3.4764
X5.8902Y-2.8461
X5.8902Y-3.1461
X5.8994Y-3.638
X5.8994Y-3.938
X5.9386Y-4.4025
X5.9386Y-4.5025
X5.9386Y-4.6025
X5.9386Y-4.7025
X5.9386Y-4.8025
X5.9386Y-4.9025
X5.9386Y-5.0025
X5.9386Y-5.1025
X5.9386Y-5.2025
X5.9386Y-5.3025
X5.9386Y-5.4025
X5.9386Y-5.5025
X5.9386Y-5.6025
X5.9386Y-5.7025
X5.9386Y-5.8025
X5.9386Y-5.9025
X5.9569Y-3.3425
X5.9569Y-3.4764
X5.9994Y-3.638
X5.9994Y-3.938
X6.0569Y-3.3425
X6.0569Y-3.4764
X6.0994Y-3.638
X6.0994Y-3.938
X6.1569Y-3.3425
X6.1569Y-3.4764
X6.1994Y-3.638
X6.1994Y-3.938
X6.2569Y-3.3425
X6.2569Y-3.4764
X6.2913Y-4.4025
X6.2913Y-4.5025
X6.2913Y-4.6025
X6.2913Y-4.7025
X6.2913Y-4.8025
X6.2913Y-4.9025
X6.2913Y-5.0025
X6.2913Y-5.1025
X6.2913Y-5.2025
X6.2913Y-5.3025
X6.2913Y-5.4025
X6.2913Y-5.5025
X6.2913Y-5.6025
X6.2913Y-5.7025
X6.2913Y-5.8025
X6.2913Y-5.9025
X6.2994Y-3.638
X6.2994Y-3.938
X6.3569Y-3.3425
X6.3569Y-3.4764
X6.4569Y-3.3425
X6.4569Y-3.4764
X6.5569Y-3.3425
X6.5569Y-3.4764
X6.8681Y-2.2963
X6.8681Y-2.3963
X6.8681Y-2.4963
X6.8681Y-2.5963
X6.8681Y-2.6963
X6.8681Y-2.7963
X6.8681Y-2.8963
X6.8681Y-2.9963
X6.8681Y-3.0963
X6.8681Y-3.1963
X6.8681Y-3.2963
X6.8681Y-3.3963
X6.8913Y-4.4025
X6.8913Y-4.5025
X6.8913Y-4.6025
X6.8913Y-4.7025
X6.8913Y-4.8025
X6.8913Y-4.9025
X6.8913Y-5.0025
X6.8913Y-5.1025
X6.8913Y-5.2025
X6.8913Y-5.3025
X6.8913Y-5.4025
X6.8913Y-5.5025
X6.8913Y-5.6025
X6.8913Y-5.7025
X6.8913Y-5.8025
X6.8913Y-5.9025
X7.1681Y-2.2963
X7.1681Y-2.3963
X7.1681Y-2.4963
X7.1681Y-2.5963
X7.1681Y-2.6963
X7.1681Y-2.7963
X7.1681Y-2.8963
X7.1681Y-2.9963
X7.1681Y-3.0963
X7.1681Y-3.1963
X7.1681Y-3.2963
X7.1681Y-3.3963
X7.2572Y-4.4322
X7.2572Y-4.5322
X7.2572Y-4.6322
X7.2572Y-4.7322
X7.2572Y-4.8322
X7.2572Y-4.9322
X7.3259Y-2.2963
X7.3259Y-2.3963
X7.3259Y-2.4963
X7.3259Y-2.5963
X7.3259Y-2.6963
X7.3259Y-2.7963
X7.3259Y-2.8963
X7.3259Y-2.9963
X7.3259Y-3.0963
X7.3259Y-3.1963
X7.3259Y-3.2963
X7.3259Y-3.3963
X7.3572Y-4.3322
X7.3572Y-4.4322
X7.3572Y-4.5322
X7.3572Y-4.6322
X7.3572Y-4.7322
X7.3572Y-4.8322
X7.3572Y-4.9322
X7.3572Y-5.0322
X7.4572Y-4.3322
X7.4572Y-4.4322
X7.4572Y-4.9322
X7.4572Y-5.0322
X7.5107Y-5.4505
X7.5572Y-4.3322
X7.5572Y-4.4322
X7.5572Y-4.9322
X7.5572Y-5.0322
X7.6259Y-2.2963
X7.6259Y-2.3963
X7.6259Y-2.4963
X7.6259Y-2.5963
X7.6259Y-2.6963
X7.6259Y-2.7963
X7.6259Y-2.8963
X7.6259Y-2.9963
X7.6259Y-3.0963
X7.6259Y-3.1963
X7.6259Y-3.2963
X7.6259Y-3.3963
X7.6572Y-4.3322
X7.6572Y-4.4322
X7.6572Y-4.9322
X7.6572Y-5.0322
X7.7028Y-5.4505
X7.7572Y-4.3322
X7.7572Y-4.4322
X7.7572Y-4.9322
X7.7572Y-5.0322
X7.7836Y-2.2963
X7.7836Y-2.3963
X7.7836Y-2.4963
X7.7836Y-2.5963
X7.7836Y-2.6963
X7.7836Y-2.7963
X7.7836Y-2.8963
X7.7836Y-2.9963
X7.7836Y-3.0963
X7.7836Y-3.1963
X7.7836Y-3.2963
X7.7836Y-3.3963
X7.8572Y-4.3322
X7.8572Y-4.4322
X7.8572Y-4.5322
X7.8572Y-4.6322
X7.8572Y-4.7322
X7.8572Y-4.8322
X7.8572Y-4.9322
X7.8572Y-5.0322
X7.9572Y-4.4322
X7.9572Y-4.5322
X7.9572Y-4.6322
X7.9572Y-4.7322
X7.9572Y-4.8322
X7.9572Y-4.9322
X8.0836Y-2.2963
X8.0836Y-2.3963
X8.0836Y-2.4963
X8.0836Y-2.5963
X8.0836Y-2.6963
X8.0836Y-2.7963
X8.0836Y-2.8963
X8.0836Y-2.9963
X8.0836Y-3.0963
X8.0836Y-3.1963
X8.0836Y-3.2963
X8.0836Y-3.3963
X8.2374Y-3.0994
X8.2374Y-3.1994
X8.2374Y-3.2994
X8.2374Y-3.3994
X8.5374Y-3.0994
X8.5374Y-3.1994
X8.5374Y-3.2994
X8.5374Y-3.3994
T4
X3.4181Y-2.4488
X3.4333Y-3.5866
X3.5333Y-3.5866
X3.7402Y-4.2753
X3.8181Y-2.4488
X3.9488Y-2.4382
X3.9488Y-2.5382
X3.9488Y-3.2256
X3.9488Y-3.3256
X4.024Y-2.2677
X4.124Y-2.2677
X4.1402Y-4.2753
X4.1615Y-4.8583
X4.2615Y-4.8583
X4.7846Y-3.8701
X4.8846Y-3.8701
X4.9114Y-4.1272
X4.9114Y-4.2272
X5.0327Y-3.8701
X5.111Y-4.1072
X5.1123Y-5.9552
X5.1327Y-3.8701
X5.2123Y-5.9552
X5.2807Y-3.8701
X5.3807Y-3.8701
X5.5Y-3.2961
X5.5Y-3.6961
X5.511Y-4.1072
X5.6091Y-2.3579
X5.6091Y-2.6579
X5.7091Y-2.3579
X5.7091Y-2.6579
X5.7145Y-4.1316
X5.8091Y-2.3579
X5.8091Y-2.6579
X5.8145Y-4.1316
X5.9091Y-2.3579
X5.9091Y-2.6579
X6.0091Y-2.3579
X6.0091Y-2.6579
X6.0535Y-2.8551
X6.0535Y-2.9969
X6.0642Y-5.9552
X6.1091Y-2.3579
X6.1091Y-2.6579
X6.1642Y-5.9552
X6.2091Y-2.3579
X6.2091Y-2.6579
X6.2913Y-4.174
X6.2913Y-4.274
X6.3091Y-2.3579
X6.3091Y-2.6579
X6.4091Y-2.3579
X6.4091Y-2.6579
X6.4368Y-3.7374
X6.4368Y-3.8374
X6.4535Y-2.8551
X6.4535Y-2.9969
X6.5091Y-2.3579
X6.5091Y-2.6579
X6.5569Y-2.8157
X6.5569Y-3.2157
X6.6357Y-2.2953
X6.7143Y-2.4677
X6.7143Y-2.5677
X6.7146Y-2.6697
X6.7146Y-2.7697
X6.7146Y-3.0001
X6.7146Y-3.1001
X6.7357Y-2.2953
X6.9677Y-3.5405
X7.0047Y-4.1535
X7.0161Y-5.9552
X7.044Y-5.0166
X7.044Y-5.1166
X7.0677Y-3.5405
X7.0987Y-5.4505
X7.1161Y-5.9552
X7.1987Y-5.4505
X7.1987Y-5.7537
X7.1987Y-6.0136
X7.2987Y-5.4505
X7.2987Y-5.7537
X7.4047Y-4.1535
X7.4255Y-3.5405
X7.4987Y-5.7528
X7.5255Y-3.5405
X7.5987Y-5.7528
X7.5987Y-6.0136
X7.6259Y-3.5159
X7.6259Y-3.9159
X7.7193Y-4.132
X7.738Y-6.0136
X7.7836Y-3.5159
X7.7836Y-3.9159
X7.789Y-5.7537
X7.8193Y-4.132
X7.889Y-5.7537
X7.8905Y-3.5405
X7.9122Y-5.4505
X7.9313Y-4.132
X7.9905Y-3.5405
X8.0122Y-5.4505
X8.0313Y-4.132
X8.038Y-5.7528
X8.1122Y-5.4505
X8.138Y-5.7528
X8.138Y-6.0136
X8.2262Y-4.3424
X8.2262Y-4.698
X8.2262Y-5.0537
X8.2307Y-2.3988
X8.2374Y-2.5768
X8.2374Y-2.9768
X8.2426Y-3.5178
X8.2426Y-3.9178
X8.3262Y-4.3424
X8.3262Y-4.698
X8.3262Y-5.0537
X8.3307Y-2.3988
X8.3889Y-2.5768
X8.3889Y-2.9768
X8.43Y-5.624
X8.4906Y-2.3953
X8.5374Y-2.5768
X8.5374Y-2.9768
X8.57Y-5.624
X8.5906Y-2.3953
X8.7189Y-3.1309
X8.7189Y-3.3898
X8.7797Y-5.627
X8.8189Y-3.1309
X8.8189Y-3.3898
X8.8797Y-5.627
T5
X2.8868Y-2.5728
X2.8868Y-2.6728
X2.8868Y-2.7728
X2.8868Y-2.8728
X2.8868Y-2.9728
X2.8868Y-3.0728
X2.8868Y-3.1728
X2.8868Y-3.2728
X2.8868Y-3.3728
X2.8868Y-3.4728
X2.8868Y-3.5728
X2.8868Y-3.6728
X2.8868Y-3.7728
X2.8868Y-3.8728
X2.8868Y-3.9728
X2.8868Y-4.0728
X2.8868Y-4.1728
X2.8868Y-4.2728
X2.8868Y-4.3728
X2.8868Y-4.4728
X2.8868Y-4.5728
X2.8868Y-4.6728
X2.8868Y-4.7728
X2.8868Y-4.8728
X2.8868Y-4.9728
X2.8868Y-5.0728
X2.8868Y-5.1728
X2.8868Y-5.2728
X2.8868Y-5.3728
X2.8868Y-5.4728
X2.8868Y-5.5728
X2.8868Y-5.6728
X2.9868Y-2.5728
X2.9868Y-2.6728
X2.9868Y-2.7728
X2.9868Y-2.8728
X2.9868Y-2.9728
X2.9868Y-3.0728
X2.9868Y-3.1728
X2.9868Y-3.2728
X2.9868Y-3.3728
X2.9868Y-3.4728
X2.9868Y-3.5728
X2.9868Y-3.6728
X2.9868Y-3.7728
X2.9868Y-3.8728
X2.9868Y-3.9728
X2.9868Y-4.0728
X2.9868Y-4.1728
X2.9868Y-4.2728
X2.9868Y-4.3728
X2.9868Y-4.4728
X2.9868Y-4.5728
X2.9868Y-4.6728
X2.9868Y-4.7728
X2.9868Y-4.8728
X2.9868Y-4.9728
X2.9868Y-5.0728
X2.9868Y-5.1728
X2.9868Y-5.2728
X2.9868Y-5.3728
X2.9868Y-5.4728
X2.9868Y-5.5728
X2.9868Y-5.6728
X3.0868Y-2.5728
X3.0868Y-2.6728
X3.0868Y-2.7728
X3.0868Y-2.8728
X4.2115Y-4.4089
X4.2115Y-4.5089
X4.2115Y-4.6089
X4.2115Y-4.7089
X8.5261Y-5.1697
T6
X3.5978Y-3.2846
X3.5978Y-3.3846
X3.7677Y-3.2846
X3.7677Y-3.3846
X8.4539Y-5.9449
X8.5261Y-3.5889
X8.5261Y-3.6889
X8.5261Y-3.9196
X8.5261Y-4.0196
X8.5261Y-4.1196
X8.5261Y-4.2196
X8.5261Y-4.3196
X8.5261Y-4.4196
X8.5539Y-5.9449
X8.648Y-2.6456
X8.648Y-2.9016
X8.7913Y-3.5889
X8.7913Y-3.6889
X8.7913Y-3.9196
X8.7913Y-4.0196
X8.7913Y-4.1196
X8.7913Y-4.2196
X8.7913Y-4.3196
X8.7913Y-4.4196
X8.7913Y-4.6697
X8.7913Y-4.7697
X8.7913Y-4.8697
X8.7913Y-4.9697
X8.7913Y-5.0697
X8.7913Y-5.1697
X8.826Y-2.6456
X8.826Y-2.9016
T7
X2.815Y-2.311
X2.815Y-5.9646
X8.8307Y-2.311
X8.8307Y-5.9646
T0
M30
