G04 #@! TF.GenerationSoftware,KiCad,Pcbnew,7.0.9*
G04 #@! TF.CreationDate,2024-03-17T13:34:45+00:00*
G04 #@! TF.ProjectId,rosco_m68k,726f7363-6f5f-46d3-9638-6b2e6b696361,020-1.13*
G04 #@! TF.SameCoordinates,Original*
G04 #@! TF.FileFunction,Soldermask,Top*
G04 #@! TF.FilePolarity,Negative*
%FSLAX46Y46*%
G04 Gerber Fmt 4.6, Leading zero omitted, Abs format (unit mm)*
G04 Created by KiCad (PCBNEW 7.0.9) date 2024-03-17 13:34:45*
%MOMM*%
%LPD*%
G01*
G04 APERTURE LIST*
G04 Aperture macros list*
%AMRoundRect*
0 Rectangle with rounded corners*
0 $1 Rounding radius*
0 $2 $3 $4 $5 $6 $7 $8 $9 X,Y pos of 4 corners*
0 Add a 4 corners polygon primitive as box body*
4,1,4,$2,$3,$4,$5,$6,$7,$8,$9,$2,$3,0*
0 Add four circle primitives for the rounded corners*
1,1,$1+$1,$2,$3*
1,1,$1+$1,$4,$5*
1,1,$1+$1,$6,$7*
1,1,$1+$1,$8,$9*
0 Add four rect primitives between the rounded corners*
20,1,$1+$1,$2,$3,$4,$5,0*
20,1,$1+$1,$4,$5,$6,$7,0*
20,1,$1+$1,$6,$7,$8,$9,0*
20,1,$1+$1,$8,$9,$2,$3,0*%
G04 Aperture macros list end*
%ADD10C,6.400000*%
%ADD11O,1.727200X3.251200*%
%ADD12C,1.524000*%
%ADD13C,1.803400*%
%ADD14R,1.422400X1.422400*%
%ADD15C,1.422400*%
%ADD16R,2.400000X1.600000*%
%ADD17O,2.400000X1.600000*%
%ADD18O,3.251200X1.727200*%
%ADD19C,1.500000*%
%ADD20R,1.600000X1.600000*%
%ADD21C,1.600000*%
%ADD22R,1.700000X1.700000*%
%ADD23O,1.700000X1.700000*%
%ADD24R,1.600000X2.400000*%
%ADD25O,1.600000X2.400000*%
%ADD26R,1.524000X1.524000*%
%ADD27R,3.500000X3.500000*%
%ADD28RoundRect,0.750000X1.000000X-0.750000X1.000000X0.750000X-1.000000X0.750000X-1.000000X-0.750000X0*%
%ADD29RoundRect,0.875000X0.875000X-0.875000X0.875000X0.875000X-0.875000X0.875000X-0.875000X-0.875000X0*%
%ADD30O,1.600000X1.600000*%
%ADD31O,1.524000X2.844800*%
G04 APERTURE END LIST*
D10*
X71500000Y-151500000D03*
X71500000Y-58700000D03*
X224300000Y-151500000D03*
D11*
X219659400Y-73701200D03*
X219659400Y-67198800D03*
X224180600Y-73701200D03*
X224180600Y-67198800D03*
D10*
X224300000Y-58700000D03*
D12*
X163920000Y-72520000D03*
X153760000Y-72520000D03*
D13*
X180313400Y-135433800D03*
X182853400Y-135433800D03*
X185393400Y-135433800D03*
X163495000Y-94930000D03*
X163495000Y-97470000D03*
X100300000Y-81930000D03*
X100300000Y-84470000D03*
X159800000Y-106019000D03*
X159800000Y-108559000D03*
X223005000Y-142925000D03*
X225545000Y-142925000D03*
X87205000Y-91100000D03*
X89745000Y-91100000D03*
X208946000Y-119329500D03*
X211486000Y-119329500D03*
X168547000Y-58300000D03*
X171087000Y-58300000D03*
X170550000Y-84140600D03*
X170550000Y-86680600D03*
X191998600Y-91922600D03*
X191998600Y-89382600D03*
X208946000Y-128363000D03*
X211486000Y-128363000D03*
X214122000Y-142850000D03*
X217678000Y-142850000D03*
D14*
X199572000Y-120199000D03*
D15*
X202112000Y-117659000D03*
X199572000Y-117659000D03*
X202112000Y-115119000D03*
X199572000Y-115119000D03*
X202112000Y-112579000D03*
X199572000Y-110039000D03*
X199572000Y-112579000D03*
X197032000Y-110039000D03*
X197032000Y-112579000D03*
X194492000Y-110039000D03*
X194492000Y-112579000D03*
X191952000Y-110039000D03*
X191952000Y-112579000D03*
X189412000Y-110039000D03*
X189412000Y-112579000D03*
X186872000Y-110039000D03*
X184332000Y-112579000D03*
X186872000Y-112579000D03*
X184332000Y-115119000D03*
X186872000Y-115119000D03*
X184332000Y-117659000D03*
X186872000Y-117659000D03*
X184332000Y-120199000D03*
X186872000Y-120199000D03*
X184332000Y-122739000D03*
X186872000Y-122739000D03*
X184332000Y-125279000D03*
X186872000Y-127819000D03*
X186872000Y-125279000D03*
X189412000Y-127819000D03*
X189412000Y-125279000D03*
X191952000Y-127819000D03*
X191952000Y-125279000D03*
X194492000Y-127819000D03*
X194492000Y-125279000D03*
X197032000Y-127819000D03*
X197032000Y-125279000D03*
X199572000Y-127819000D03*
X202112000Y-125279000D03*
X199572000Y-125279000D03*
X202112000Y-122739000D03*
X199572000Y-122739000D03*
X202112000Y-120199000D03*
D16*
X186076700Y-58324800D03*
D17*
X186076700Y-60864800D03*
X186076700Y-63404800D03*
X186076700Y-65944800D03*
X186076700Y-68484800D03*
X186076700Y-71024800D03*
X186076700Y-73564800D03*
X186076700Y-76104800D03*
X186076700Y-78644800D03*
X186076700Y-81184800D03*
X186076700Y-83724800D03*
X186076700Y-86264800D03*
X193696700Y-86264800D03*
X193696700Y-83724800D03*
X193696700Y-81184800D03*
X193696700Y-78644800D03*
X193696700Y-76104800D03*
X193696700Y-73564800D03*
X193696700Y-71024800D03*
X193696700Y-68484800D03*
X193696700Y-65944800D03*
X193696700Y-63404800D03*
X193696700Y-60864800D03*
X193696700Y-58324800D03*
D18*
X223300000Y-91159000D03*
X223300000Y-93699000D03*
D12*
X211600000Y-60930000D03*
X209060000Y-60930000D03*
X218200000Y-60840000D03*
X215660000Y-60840000D03*
D19*
X190779400Y-135432800D03*
X195659400Y-135432800D03*
D20*
X141990000Y-79910000D03*
D21*
X149610000Y-79910000D03*
X149610000Y-72290000D03*
X141990000Y-72290000D03*
D16*
X159800000Y-111823600D03*
D17*
X159800000Y-114363600D03*
X159800000Y-116903600D03*
X159800000Y-119443600D03*
X159800000Y-121983600D03*
X159800000Y-124523600D03*
X159800000Y-127063600D03*
X159800000Y-129603600D03*
X159800000Y-132143600D03*
X159800000Y-134683600D03*
X159800000Y-137223600D03*
X159800000Y-139763600D03*
X159800000Y-142303600D03*
X159800000Y-144843600D03*
X159800000Y-147383600D03*
X159800000Y-149923600D03*
X175040000Y-149923600D03*
X175040000Y-147383600D03*
X175040000Y-144843600D03*
X175040000Y-142303600D03*
X175040000Y-139763600D03*
X175040000Y-137223600D03*
X175040000Y-134683600D03*
X175040000Y-132143600D03*
X175040000Y-129603600D03*
X175040000Y-127063600D03*
X175040000Y-124523600D03*
X175040000Y-121983600D03*
X175040000Y-119443600D03*
X175040000Y-116903600D03*
X175040000Y-114363600D03*
X175040000Y-111823600D03*
D16*
X135600000Y-111823600D03*
D17*
X135600000Y-114363600D03*
X135600000Y-116903600D03*
X135600000Y-119443600D03*
X135600000Y-121983600D03*
X135600000Y-124523600D03*
X135600000Y-127063600D03*
X135600000Y-129603600D03*
X135600000Y-132143600D03*
X135600000Y-134683600D03*
X135600000Y-137223600D03*
X135600000Y-139763600D03*
X135600000Y-142303600D03*
X135600000Y-144843600D03*
X135600000Y-147383600D03*
X135600000Y-149923600D03*
X150840000Y-149923600D03*
X150840000Y-147383600D03*
X150840000Y-144843600D03*
X150840000Y-142303600D03*
X150840000Y-139763600D03*
X150840000Y-137223600D03*
X150840000Y-134683600D03*
X150840000Y-132143600D03*
X150840000Y-129603600D03*
X150840000Y-127063600D03*
X150840000Y-124523600D03*
X150840000Y-121983600D03*
X150840000Y-119443600D03*
X150840000Y-116903600D03*
X150840000Y-114363600D03*
X150840000Y-111823600D03*
D16*
X111400000Y-111823600D03*
D17*
X111400000Y-114363600D03*
X111400000Y-116903600D03*
X111400000Y-119443600D03*
X111400000Y-121983600D03*
X111400000Y-124523600D03*
X111400000Y-127063600D03*
X111400000Y-129603600D03*
X111400000Y-132143600D03*
X111400000Y-134683600D03*
X111400000Y-137223600D03*
X111400000Y-139763600D03*
X111400000Y-142303600D03*
X111400000Y-144843600D03*
X111400000Y-147383600D03*
X111400000Y-149923600D03*
X126640000Y-149923600D03*
X126640000Y-147383600D03*
X126640000Y-144843600D03*
X126640000Y-142303600D03*
X126640000Y-139763600D03*
X126640000Y-137223600D03*
X126640000Y-134683600D03*
X126640000Y-132143600D03*
X126640000Y-129603600D03*
X126640000Y-127063600D03*
X126640000Y-124523600D03*
X126640000Y-121983600D03*
X126640000Y-119443600D03*
X126640000Y-116903600D03*
X126640000Y-114363600D03*
X126640000Y-111823600D03*
D22*
X73325000Y-65350000D03*
D23*
X75865000Y-65350000D03*
X73325000Y-67890000D03*
X75865000Y-67890000D03*
X73325000Y-70430000D03*
X75865000Y-70430000D03*
X73325000Y-72970000D03*
X75865000Y-72970000D03*
X73325000Y-75510000D03*
X75865000Y-75510000D03*
X73325000Y-78050000D03*
X75865000Y-78050000D03*
X73325000Y-80590000D03*
X75865000Y-80590000D03*
X73325000Y-83130000D03*
X75865000Y-83130000D03*
X73325000Y-85670000D03*
X75865000Y-85670000D03*
X73325000Y-88210000D03*
X75865000Y-88210000D03*
X73325000Y-90750000D03*
X75865000Y-90750000D03*
X73325000Y-93290000D03*
X75865000Y-93290000D03*
X73325000Y-95830000D03*
X75865000Y-95830000D03*
X73325000Y-98370000D03*
X75865000Y-98370000D03*
X73325000Y-100910000D03*
X75865000Y-100910000D03*
X73325000Y-103450000D03*
X75865000Y-103450000D03*
X73325000Y-105990000D03*
X75865000Y-105990000D03*
X73325000Y-108530000D03*
X75865000Y-108530000D03*
X73325000Y-111070000D03*
X75865000Y-111070000D03*
X73325000Y-113610000D03*
X75865000Y-113610000D03*
X73325000Y-116150000D03*
X75865000Y-116150000D03*
X73325000Y-118690000D03*
X75865000Y-118690000D03*
X73325000Y-121230000D03*
X75865000Y-121230000D03*
X73325000Y-123770000D03*
X75865000Y-123770000D03*
X73325000Y-126310000D03*
X75865000Y-126310000D03*
X73325000Y-128850000D03*
X75865000Y-128850000D03*
X73325000Y-131390000D03*
X75865000Y-131390000D03*
X73325000Y-133930000D03*
X75865000Y-133930000D03*
X73325000Y-136470000D03*
X75865000Y-136470000D03*
X73325000Y-139010000D03*
X75865000Y-139010000D03*
X73325000Y-141550000D03*
X75865000Y-141550000D03*
X73325000Y-144090000D03*
X75865000Y-144090000D03*
D12*
X139980000Y-104324000D03*
X129820000Y-104324000D03*
D16*
X174450000Y-58324800D03*
D17*
X174450000Y-60864800D03*
X174450000Y-63404800D03*
X174450000Y-65944800D03*
X174450000Y-68484800D03*
X174450000Y-71024800D03*
X174450000Y-73564800D03*
X174450000Y-76104800D03*
X174450000Y-78644800D03*
X174450000Y-81184800D03*
X174450000Y-83724800D03*
X174450000Y-86264800D03*
X182070000Y-86264800D03*
X182070000Y-83724800D03*
X182070000Y-81184800D03*
X182070000Y-78644800D03*
X182070000Y-76104800D03*
X182070000Y-73564800D03*
X182070000Y-71024800D03*
X182070000Y-68484800D03*
X182070000Y-65944800D03*
X182070000Y-63404800D03*
X182070000Y-60864800D03*
X182070000Y-58324800D03*
D13*
X178918000Y-129962000D03*
X178918000Y-127422000D03*
X124750000Y-107370000D03*
X124750000Y-104830000D03*
X206057400Y-135433800D03*
X203517400Y-135433800D03*
X200977400Y-135433800D03*
X223999000Y-79525000D03*
X221459000Y-79525000D03*
X196069000Y-104952000D03*
X198609000Y-104952000D03*
D18*
X223300000Y-131310000D03*
X223300000Y-128770000D03*
X223300000Y-126230000D03*
X223300000Y-123690000D03*
X223300000Y-121150000D03*
X223300000Y-118610000D03*
D13*
X208946000Y-110296000D03*
X211486000Y-110296000D03*
X145149000Y-104943000D03*
X147689000Y-104943000D03*
D18*
X216564000Y-112258000D03*
X216564000Y-109718000D03*
X216564000Y-107178000D03*
X216564000Y-104638000D03*
X216564000Y-102098000D03*
X216564000Y-99558000D03*
X223300000Y-112258000D03*
X223300000Y-109718000D03*
X223300000Y-107178000D03*
X223300000Y-104638000D03*
X223300000Y-102098000D03*
X223300000Y-99558000D03*
D11*
X214730000Y-151000000D03*
X217270000Y-151000000D03*
D13*
X201455000Y-104952000D03*
X203995000Y-104952000D03*
X100300000Y-64470000D03*
X100300000Y-61930000D03*
X170550000Y-76203000D03*
X170550000Y-78743000D03*
D16*
X209230000Y-78724800D03*
D17*
X209230000Y-81264800D03*
X209230000Y-83804800D03*
X209230000Y-86344800D03*
X216850000Y-86344800D03*
X216850000Y-83804800D03*
X216850000Y-81264800D03*
X216850000Y-78724800D03*
D18*
X216564000Y-91159000D03*
X216564000Y-93699000D03*
D12*
X209362000Y-89353000D03*
X209362000Y-99513000D03*
X213078000Y-65450000D03*
X213078000Y-75610000D03*
X209230000Y-65450000D03*
X209230000Y-75610000D03*
X86820000Y-62200000D03*
X96980000Y-62200000D03*
X166545000Y-81680000D03*
X166545000Y-71520000D03*
X216850000Y-65450000D03*
X216850000Y-75610000D03*
D18*
X91385000Y-83430000D03*
X91385000Y-85970000D03*
D12*
X95001000Y-108593000D03*
X105161000Y-108593000D03*
X187198000Y-146200400D03*
X184658000Y-146200400D03*
X196197000Y-146202400D03*
X193657000Y-146202400D03*
X185514200Y-152831800D03*
X175354200Y-152831800D03*
X197815200Y-152831800D03*
X187655200Y-152831800D03*
D18*
X95700000Y-85970000D03*
X95700000Y-83430000D03*
D16*
X87200000Y-111823600D03*
D17*
X87200000Y-114363600D03*
X87200000Y-116903600D03*
X87200000Y-119443600D03*
X87200000Y-121983600D03*
X87200000Y-124523600D03*
X87200000Y-127063600D03*
X87200000Y-129603600D03*
X87200000Y-132143600D03*
X87200000Y-134683600D03*
X87200000Y-137223600D03*
X87200000Y-139763600D03*
X87200000Y-142303600D03*
X87200000Y-144843600D03*
X87200000Y-147383600D03*
X87200000Y-149923600D03*
X102440000Y-149923600D03*
X102440000Y-147383600D03*
X102440000Y-144843600D03*
X102440000Y-142303600D03*
X102440000Y-139763600D03*
X102440000Y-137223600D03*
X102440000Y-134683600D03*
X102440000Y-132143600D03*
X102440000Y-129603600D03*
X102440000Y-127063600D03*
X102440000Y-124523600D03*
X102440000Y-121983600D03*
X102440000Y-119443600D03*
X102440000Y-116903600D03*
X102440000Y-114363600D03*
X102440000Y-111823600D03*
D13*
X221459000Y-86101000D03*
X223999000Y-86101000D03*
X180750000Y-143840200D03*
X178210000Y-143840200D03*
X202959000Y-89929000D03*
X200419000Y-89929000D03*
D16*
X197703300Y-58324800D03*
D17*
X197703300Y-60864800D03*
X197703300Y-63404800D03*
X197703300Y-65944800D03*
X197703300Y-68484800D03*
X197703300Y-71024800D03*
X197703300Y-73564800D03*
X197703300Y-76104800D03*
X197703300Y-78644800D03*
X197703300Y-81184800D03*
X197703300Y-83724800D03*
X197703300Y-86264800D03*
X205323300Y-86264800D03*
X205323300Y-83724800D03*
X205323300Y-81184800D03*
X205323300Y-78644800D03*
X205323300Y-76104800D03*
X205323300Y-73564800D03*
X205323300Y-71024800D03*
X205323300Y-68484800D03*
X205323300Y-65944800D03*
X205323300Y-63404800D03*
X205323300Y-60864800D03*
X205323300Y-58324800D03*
D12*
X197703300Y-89303000D03*
X197703300Y-99463000D03*
D13*
X170550000Y-67810000D03*
X170550000Y-70350000D03*
X170543000Y-62680000D03*
X170543000Y-65220000D03*
D24*
X86787000Y-105081000D03*
D25*
X89327000Y-105081000D03*
X91867000Y-105081000D03*
X94407000Y-105081000D03*
X96947000Y-105081000D03*
X99487000Y-105081000D03*
X102027000Y-105081000D03*
X104567000Y-105081000D03*
X107107000Y-105081000D03*
X109647000Y-105081000D03*
X112187000Y-105081000D03*
X114727000Y-105081000D03*
X114727000Y-97461000D03*
X112187000Y-97461000D03*
X109647000Y-97461000D03*
X107107000Y-97461000D03*
X104567000Y-97461000D03*
X102027000Y-97461000D03*
X99487000Y-97461000D03*
X96947000Y-97461000D03*
X94407000Y-97461000D03*
X91867000Y-97461000D03*
X89327000Y-97461000D03*
X86787000Y-97461000D03*
D22*
X106971000Y-122120000D03*
D23*
X106971000Y-119580000D03*
X106971000Y-117040000D03*
X106971000Y-114500000D03*
X106971000Y-111960000D03*
D13*
X180750000Y-149021800D03*
X178210000Y-149021800D03*
X154030000Y-151263000D03*
X156570000Y-151263000D03*
X129852000Y-151263000D03*
X132392000Y-151263000D03*
X105701000Y-128540000D03*
X108241000Y-128540000D03*
D12*
X194995800Y-89303000D03*
X194995800Y-99463000D03*
D22*
X216564000Y-131310000D03*
D24*
X142225000Y-100025000D03*
D25*
X144765000Y-100025000D03*
X147305000Y-100025000D03*
X149845000Y-100025000D03*
X152385000Y-100025000D03*
X154925000Y-100025000D03*
X157465000Y-100025000D03*
X160005000Y-100025000D03*
X160005000Y-92405000D03*
X157465000Y-92405000D03*
X154925000Y-92405000D03*
X152385000Y-92405000D03*
X149845000Y-92405000D03*
X147305000Y-92405000D03*
X144765000Y-92405000D03*
X142225000Y-92405000D03*
D12*
X139700000Y-93880000D03*
X139700000Y-83720000D03*
X179146200Y-121031000D03*
X179146200Y-110871000D03*
D13*
X222351600Y-136575800D03*
X219811600Y-136575800D03*
D12*
X153760000Y-76120000D03*
X163920000Y-76120000D03*
D22*
X78405000Y-65350000D03*
D23*
X78405000Y-67890000D03*
X78405000Y-70430000D03*
X78405000Y-72970000D03*
D26*
X105360000Y-62460000D03*
D12*
X107900000Y-62460000D03*
X110440000Y-62460000D03*
X112980000Y-62460000D03*
X115520000Y-62460000D03*
X118060000Y-62460000D03*
X120600000Y-62460000D03*
X123140000Y-62460000D03*
X125680000Y-62460000D03*
X128220000Y-62460000D03*
X130760000Y-62460000D03*
X133300000Y-62460000D03*
X135840000Y-62460000D03*
X105360000Y-65000000D03*
X107900000Y-65000000D03*
X110440000Y-65000000D03*
X112980000Y-65000000D03*
X115520000Y-65000000D03*
X118060000Y-65000000D03*
X120600000Y-65000000D03*
X123140000Y-65000000D03*
X125680000Y-65000000D03*
X128220000Y-65000000D03*
X130760000Y-65000000D03*
X133300000Y-65000000D03*
X135840000Y-65000000D03*
X105360000Y-67540000D03*
X107900000Y-67540000D03*
X110440000Y-67540000D03*
X112980000Y-67540000D03*
X115520000Y-67540000D03*
X118060000Y-67540000D03*
X120600000Y-67540000D03*
X123140000Y-67540000D03*
X125680000Y-67540000D03*
X128220000Y-67540000D03*
X130760000Y-67540000D03*
X133300000Y-67540000D03*
X135840000Y-67540000D03*
X105360000Y-70080000D03*
X107900000Y-70080000D03*
X110440000Y-70080000D03*
X133300000Y-70080000D03*
X135840000Y-70080000D03*
X105360000Y-72620000D03*
X107900000Y-72620000D03*
X110440000Y-72620000D03*
X133300000Y-72620000D03*
X135840000Y-72620000D03*
X105360000Y-75160000D03*
X107900000Y-75160000D03*
X110440000Y-75160000D03*
X133300000Y-75160000D03*
X135840000Y-75160000D03*
X105360000Y-77700000D03*
X107900000Y-77700000D03*
X110440000Y-77700000D03*
X130760000Y-77700000D03*
X133300000Y-77700000D03*
X135840000Y-77700000D03*
X105360000Y-80240000D03*
X107900000Y-80240000D03*
X110440000Y-80240000D03*
X133300000Y-80240000D03*
X135840000Y-80240000D03*
X105360000Y-82780000D03*
X107900000Y-82780000D03*
X110440000Y-82780000D03*
X133300000Y-82780000D03*
X135840000Y-82780000D03*
X105360000Y-85320000D03*
X107900000Y-85320000D03*
X110440000Y-85320000D03*
X133300000Y-85320000D03*
X135840000Y-85320000D03*
X105360000Y-87860000D03*
X107900000Y-87860000D03*
X110440000Y-87860000D03*
X112980000Y-87860000D03*
X115520000Y-87860000D03*
X118060000Y-87860000D03*
X120600000Y-87860000D03*
X123140000Y-87860000D03*
X125680000Y-87860000D03*
X128220000Y-87860000D03*
X130760000Y-87860000D03*
X133300000Y-87860000D03*
X135840000Y-87860000D03*
X105360000Y-90400000D03*
X107900000Y-90400000D03*
X110440000Y-90400000D03*
X112980000Y-90400000D03*
X115520000Y-90400000D03*
X118060000Y-90400000D03*
X120600000Y-90400000D03*
X123140000Y-90400000D03*
X125680000Y-90400000D03*
X128220000Y-90400000D03*
X130760000Y-90400000D03*
X133300000Y-90400000D03*
X135840000Y-90400000D03*
X105360000Y-92940000D03*
X107900000Y-92940000D03*
X110440000Y-92940000D03*
X112980000Y-92940000D03*
X115520000Y-92940000D03*
X118060000Y-92940000D03*
X120600000Y-92940000D03*
X123140000Y-92940000D03*
X125680000Y-92940000D03*
X128220000Y-92940000D03*
X130760000Y-92940000D03*
X133300000Y-92940000D03*
X135840000Y-92940000D03*
D27*
X204045900Y-141142200D03*
D28*
X204045900Y-147142200D03*
D29*
X208745900Y-144142200D03*
D13*
X102210000Y-57600000D03*
X104750000Y-57600000D03*
X134130000Y-98300000D03*
X136670000Y-98300000D03*
D20*
X146225000Y-88300000D03*
D30*
X148765000Y-88300000D03*
X151305000Y-88300000D03*
X153845000Y-88300000D03*
X156385000Y-88300000D03*
X158925000Y-88300000D03*
X161465000Y-88300000D03*
X164005000Y-88300000D03*
X166545000Y-88300000D03*
D13*
X127830000Y-98300000D03*
X130370000Y-98300000D03*
D20*
X146225000Y-84900000D03*
D30*
X148765000Y-84900000D03*
X151305000Y-84900000D03*
X153845000Y-84900000D03*
X156385000Y-84900000D03*
X158925000Y-84900000D03*
X161465000Y-84900000D03*
X164005000Y-84900000D03*
X166545000Y-84900000D03*
D31*
X142470000Y-67510000D03*
X145010000Y-67510000D03*
X147550000Y-67510000D03*
X150090000Y-67510000D03*
X152630000Y-67510000D03*
X155170000Y-67510000D03*
X157710000Y-67510000D03*
X160250000Y-67510000D03*
X162790000Y-67510000D03*
X165330000Y-67510000D03*
X165330000Y-59890000D03*
X162790000Y-59890000D03*
X160250000Y-59890000D03*
X157710000Y-59890000D03*
X155170000Y-59890000D03*
X152630000Y-59890000D03*
X150090000Y-59890000D03*
X147550000Y-59890000D03*
X145010000Y-59890000D03*
X142470000Y-59890000D03*
D20*
X79490000Y-77460000D03*
D30*
X82030000Y-77460000D03*
X84570000Y-77460000D03*
X87110000Y-77460000D03*
X89650000Y-77460000D03*
X92190000Y-77460000D03*
X94730000Y-77460000D03*
X97270000Y-77460000D03*
X99810000Y-77460000D03*
D13*
X121530000Y-98300000D03*
X124070000Y-98300000D03*
M02*
