M48
; DRILL file {KiCad (5.1.5-0-10_14)} date Saturday, 30 October 2021 at 21:11:39
; FORMAT={-:-/ absolute / inch / decimal}
; #@! TF.CreationDate,2021-10-30T21:11:39+01:00
; #@! TF.GenerationSoftware,Kicad,Pcbnew,(5.1.5-0-10_14)
; #@! TF.FileFunction,Plated,1,4,PTH
FMAT,2
INCH
T1C0.0157
T2C0.0315
T3C0.0320
T4C0.0394
T5C0.0400
%
G90
G05
T1
X2.937Y-3.623
X3.0107Y-5.8311
X3.0482Y-5.8007
X3.0551Y-4.6722
X3.0561Y-4.8228
X3.0571Y-5.3238
X3.0581Y-4.7472
X3.0581Y-4.9232
X3.0581Y-5.0246
X3.0581Y-5.124
X3.0581Y-5.2215
X3.0581Y-5.4213
X3.0581Y-5.4979
X3.0691Y-3.1643
X3.0749Y-3.1235
X3.0787Y-3.9398
X3.0846Y-5.7655
X3.1051Y-3.1889
X3.1061Y-3.2803
X3.1116Y-2.9715
X3.123Y-5.7134
X3.1364Y-4.2156
X3.1604Y-5.6831
X3.1611Y-3.4728
X3.1624Y-3.2707
X3.189Y-3.5728
X3.19Y-3.2972
X3.1919Y-4.873
X3.2047Y-3.0098
X3.2126Y-4.9724
X3.2187Y-3.6731
X3.2195Y-3.3228
X3.2199Y-2.7677
X3.2313Y-4.7224
X3.2352Y-5.0728
X3.2446Y-3.9272
X3.2563Y-5.5728
X3.2687Y-4.6014
X3.2697Y-3.9561
X3.2776Y-2.5866
X3.2811Y-5.4724
X3.297Y-3.9845
X3.2982Y-4.5098
X3.301Y-2.616
X3.3058Y-5.373
X3.3217Y-4.0211
X3.3217Y-4.3758
X3.3249Y-2.6449
X3.3306Y-5.2726
X3.346Y-2.6759
X3.3465Y-4.315
X3.3553Y-5.1742
X3.3723Y-4.0668
X3.374Y-2.7008
X3.3976Y-2.7303
X3.4666Y-2.9276
X3.4882Y-2.9606
X3.4953Y-5.1545
X3.5167Y-5.6663
X3.5256Y-2.9029
X3.5678Y-2.9861
X3.5906Y-3.0197
X3.6174Y-4.725
X3.6277Y-2.9235
X3.6378Y-5.9547
X3.6579Y-5.7028
X3.6579Y-5.7776
X3.6616Y-5.8959
X3.6941Y-4.6102
X3.7264Y-2.8878
X3.749Y-3.4244
X3.7502Y-4.5583
X3.7583Y-5.502
X3.7583Y-5.6024
X3.7821Y-3.6781
X3.8248Y-5.855
X3.8268Y-5.6437
X3.8268Y-2.8629
X3.867Y-3.4244
X3.8781Y-2.2145
X3.9168Y-4.3526
X3.9252Y-3.4991
X3.9343Y-4.0457
X3.9781Y-3.4743
X4.0124Y-3.4283
X4.0284Y-3.929
X4.0737Y-3.3908
X4.0836Y-2.2343
X4.1168Y-3.9681
X4.1336Y-3.9163
X4.153Y-2.2813
X4.185Y-3.0463
X4.2552Y-3.0456
X4.2992Y-4.2087
X4.3162Y-4.0108
X4.3366Y-2.6673
X4.3689Y-2.6939
X4.4012Y-2.7204
X4.416Y-3.9874
X4.4163Y-3.5404
X4.4272Y-3.116
X4.4336Y-2.7469
X4.4659Y-2.7734
X4.4732Y-3.4607
X4.4733Y-3.115
X4.4929Y-4.4561
X4.5242Y-3.4991
X4.5256Y-3.0709
X4.628Y-3.0444
X4.6364Y-5.5755
X4.6496Y-2.7697
X4.6611Y-5.6634
X4.6661Y-3.8968
X4.6773Y-4.7044
X4.6817Y-2.7463
X4.6859Y-5.7638
X4.7106Y-5.9035
X4.7137Y-2.723
X4.7382Y-5.8051
X4.7458Y-2.6997
X4.7598Y-5.7028
X4.7778Y-2.6763
X4.7805Y-5.5875
X4.7925Y-5.5218
X4.8059Y-5.4868
X4.8099Y-2.653
X4.8179Y-2.8229
X4.842Y-2.6296
X4.874Y-2.6063
X4.878Y-5.6201
X4.9114Y-6.0568
X5.0256Y-3.4331
X5.0447Y-4.2997
X5.0571Y-6.0688
X5.1398Y-5.7657
X5.2244Y-2.7598
X5.2264Y-3.14
X5.2717Y-6.0448
X5.3268Y-2.6614
X5.3268Y-2.7858
X5.3268Y-2.8978
X5.3868Y-2.9109
X5.4232Y-6.0208
X5.4252Y-2.5886
X5.4291Y-2.873
X5.4646Y-5.0039
X5.4665Y-2.9109
X5.4724Y-5.7047
X5.4934Y-2.8848
X5.5213Y-4.0248
X5.5256Y-3.1024
X5.5276Y-2.5472
X5.5669Y-2.86
X5.5768Y-2.3653
X5.5787Y-4.9035
X5.628Y-2.8353
X5.6378Y-4.8012
X5.6467Y-3.7368
X5.6673Y-2.8105
X5.6916Y-3.9204
X5.7185Y-2.7858
X5.7264Y-4.9016
X5.7736Y-5.0059
X5.7854Y-2.7362
X5.8054Y-3.9455
X5.8532Y-2.761
X5.8549Y-5.9833
X5.8584Y-3.9448
X5.8724Y-4.0128
X5.9188Y-3.4814
X5.9272Y-2.7858
X5.9272Y-3.176
X5.998Y-2.6614
X6.0256Y-2.8105
X6.0256Y-3.1625
X6.0395Y-3.6413
X6.0407Y-5.3025
X6.0492Y-2.7382
X6.0709Y-4.6024
X6.0787Y-2.5886
X6.0852Y-3.4896
X6.0984Y-5.1024
X6.1232Y-4.5492
X6.128Y-2.8353
X6.128Y-3.1378
X6.1284Y-2.5168
X6.1476Y-4.7008
X6.1641Y-2.5415
X6.1727Y-4.462
X6.195Y-3.712
X6.1955Y-2.5723
X6.1988Y-4.752
X6.2264Y-2.86
X6.2265Y-2.5415
X6.3259Y-2.5663
X6.3268Y-2.8862
X6.3473Y-3.6356
X6.4055Y-3.6988
X6.4272Y-2.9109
X6.4273Y-2.591
X6.4324Y-5.4035
X6.435Y-3.7953
X6.4646Y-3.9775
X6.4646Y-5.3031
X6.5031Y-3.0304
X6.5039Y-5.1024
X6.5335Y-3.002
X6.5422Y-4.0492
X6.5433Y-5.2106
X6.5591Y-2.9744
X6.5669Y-4.0866
X6.5831Y-2.9456
X6.6065Y-4.1114
X6.6083Y-2.9173
X6.6358Y-2.8917
X6.6457Y-4.1339
X6.6594Y-2.8622
X6.6831Y-2.8327
X6.685Y-4.1535
X6.7224Y-4.1713
X6.7638Y-4.187
X6.7796Y-3.3457
X6.7796Y-3.1212
X6.8012Y-4.2067
X6.8043Y-2.8234
X6.8425Y-4.2283
X6.9057Y-3.4905
X6.9584Y-3.9488
X7.0047Y-3.8705
X7.0832Y-2.3304
X7.1383Y-4.8813
X7.2322Y-3.7492
X7.2713Y-3.7953
X7.4004Y-3.1161
X7.4119Y-2.8826
X7.4245Y-2.9306
X7.4365Y-3.0128
X7.4685Y-4.5472
X7.4759Y-4.0619
X7.4761Y-3.2933
X7.4811Y-2.279
X7.5146Y-4.0916
X7.7042Y-2.2555
X7.729Y-2.3512
X7.7357Y-3.9528
X7.8724Y-2.5744
X7.8935Y-2.5319
X7.9059Y-3.6683
X7.9183Y-2.6556
X7.9409Y-3.6495
X7.9429Y-2.7272
X7.9566Y-3.6
X7.9677Y-2.756
X7.9708Y-3.9651
X7.9925Y-2.4501
X8.0201Y-3.8491
X8.0444Y-3.7492
X8.108Y-3.5135
X8.1493Y-3.9553
X8.174Y-3.0458
X8.4921Y-4.5433
T2
X7.3259Y-2.2963
X7.3259Y-2.3963
X7.3259Y-2.4963
X7.3259Y-2.5963
X7.3259Y-2.6963
X7.3259Y-2.7963
X7.3259Y-2.8963
X7.3259Y-2.9963
X7.3259Y-3.0963
X7.3259Y-3.1963
X7.3259Y-3.2963
X7.3259Y-3.3963
X7.6259Y-2.2963
X7.6259Y-2.3963
X7.6259Y-2.4963
X7.6259Y-2.5963
X7.6259Y-2.6963
X7.6259Y-2.7963
X7.6259Y-2.8963
X7.6259Y-2.9963
X7.6259Y-3.0963
X7.6259Y-3.1963
X7.6259Y-3.2963
X7.6259Y-3.3963
X6.2913Y-4.4025
X6.2913Y-4.5025
X6.2913Y-4.6025
X6.2913Y-4.7025
X6.2913Y-4.8025
X6.2913Y-4.9025
X6.2913Y-5.0025
X6.2913Y-5.1025
X6.2913Y-5.2025
X6.2913Y-5.3025
X6.2913Y-5.4025
X6.2913Y-5.5025
X6.2913Y-5.6025
X6.2913Y-5.7025
X6.2913Y-5.8025
X6.2913Y-5.9025
X6.8913Y-4.4025
X6.8913Y-4.5025
X6.8913Y-4.6025
X6.8913Y-4.7025
X6.8913Y-4.8025
X6.8913Y-4.9025
X6.8913Y-5.0025
X6.8913Y-5.1025
X6.8913Y-5.2025
X6.8913Y-5.3025
X6.8913Y-5.4025
X6.8913Y-5.5025
X6.8913Y-5.6025
X6.8913Y-5.7025
X6.8913Y-5.8025
X6.8913Y-5.9025
X5.3386Y-4.4025
X5.3386Y-4.5025
X5.3386Y-4.6025
X5.3386Y-4.7025
X5.3386Y-4.8025
X5.3386Y-4.9025
X5.3386Y-5.0025
X5.3386Y-5.1025
X5.3386Y-5.2025
X5.3386Y-5.3025
X5.3386Y-5.4025
X5.3386Y-5.5025
X5.3386Y-5.6025
X5.3386Y-5.7025
X5.3386Y-5.8025
X5.3386Y-5.9025
X5.9386Y-4.4025
X5.9386Y-4.5025
X5.9386Y-4.6025
X5.9386Y-4.7025
X5.9386Y-4.8025
X5.9386Y-4.9025
X5.9386Y-5.0025
X5.9386Y-5.1025
X5.9386Y-5.2025
X5.9386Y-5.3025
X5.9386Y-5.4025
X5.9386Y-5.5025
X5.9386Y-5.6025
X5.9386Y-5.7025
X5.9386Y-5.8025
X5.9386Y-5.9025
X7.7252Y-5.4505
X7.9174Y-5.4505
X7.2572Y-4.4322
X7.2572Y-4.5322
X7.2572Y-4.6322
X7.2572Y-4.7322
X7.2572Y-4.8322
X7.2572Y-4.9322
X7.3572Y-4.3322
X7.3572Y-4.4322
X7.3572Y-4.5322
X7.3572Y-4.6322
X7.3572Y-4.7322
X7.3572Y-4.8322
X7.3572Y-4.9322
X7.3572Y-5.0322
X7.4572Y-4.3322
X7.4572Y-4.4322
X7.4572Y-4.9322
X7.4572Y-5.0322
X7.5572Y-4.3322
X7.5572Y-4.4322
X7.5572Y-4.9322
X7.5572Y-5.0322
X7.6572Y-4.3322
X7.6572Y-4.4322
X7.6572Y-4.9322
X7.6572Y-5.0322
X7.7572Y-4.3322
X7.7572Y-4.4322
X7.7572Y-4.9322
X7.7572Y-5.0322
X7.8572Y-4.3322
X7.8572Y-4.4322
X7.8572Y-4.5322
X7.8572Y-4.6322
X7.8572Y-4.7322
X7.8572Y-4.8322
X7.8572Y-4.9322
X7.8572Y-5.0322
X7.9572Y-4.4322
X7.9572Y-4.5322
X7.9572Y-4.6322
X7.9572Y-4.7322
X7.9572Y-4.8322
X7.9572Y-4.9322
X6.8681Y-2.2963
X6.8681Y-2.3963
X6.8681Y-2.4963
X6.8681Y-2.5963
X6.8681Y-2.6963
X6.8681Y-2.7963
X6.8681Y-2.8963
X6.8681Y-2.9963
X6.8681Y-3.0963
X6.8681Y-3.1963
X6.8681Y-3.2963
X6.8681Y-3.3963
X7.1681Y-2.2963
X7.1681Y-2.3963
X7.1681Y-2.4963
X7.1681Y-2.5963
X7.1681Y-2.6963
X7.1681Y-2.7963
X7.1681Y-2.8963
X7.1681Y-2.9963
X7.1681Y-3.0963
X7.1681Y-3.1963
X7.1681Y-3.2963
X7.1681Y-3.3963
X4.7835Y-3.5701
X4.7835Y-3.8701
X5.0835Y-3.5701
X5.0835Y-3.8701
X8.2374Y-3.0994
X8.2374Y-3.1994
X8.2374Y-3.2994
X8.2374Y-3.3994
X8.5374Y-3.0994
X8.5374Y-3.1994
X8.5374Y-3.2994
X8.5374Y-3.3994
X3.4331Y-4.4025
X3.4331Y-4.5025
X3.4331Y-4.6025
X3.4331Y-4.7025
X3.4331Y-4.8025
X3.4331Y-4.9025
X3.4331Y-5.0025
X3.4331Y-5.1025
X3.4331Y-5.2025
X3.4331Y-5.3025
X3.4331Y-5.4025
X3.4331Y-5.5025
X3.4331Y-5.6025
X3.4331Y-5.7025
X3.4331Y-5.8025
X3.4331Y-5.9025
X4.0331Y-4.4025
X4.0331Y-4.5025
X4.0331Y-4.6025
X4.0331Y-4.7025
X4.0331Y-4.8025
X4.0331Y-4.9025
X4.0331Y-5.0025
X4.0331Y-5.1025
X4.0331Y-5.2025
X4.0331Y-5.3025
X4.0331Y-5.4025
X4.0331Y-5.5025
X4.0331Y-5.6025
X4.0331Y-5.7025
X4.0331Y-5.8025
X4.0331Y-5.9025
X4.3858Y-4.4025
X4.3858Y-4.5025
X4.3858Y-4.6025
X4.3858Y-4.7025
X4.3858Y-4.8025
X4.3858Y-4.9025
X4.3858Y-5.0025
X4.3858Y-5.1025
X4.3858Y-5.2025
X4.3858Y-5.3025
X4.3858Y-5.4025
X4.3858Y-5.5025
X4.3858Y-5.6025
X4.3858Y-5.7025
X4.3858Y-5.8025
X4.3858Y-5.9025
X4.9858Y-4.4025
X4.9858Y-4.5025
X4.9858Y-4.6025
X4.9858Y-4.7025
X4.9858Y-4.8025
X4.9858Y-4.9025
X4.9858Y-5.0025
X4.9858Y-5.1025
X4.9858Y-5.2025
X4.9858Y-5.3025
X4.9858Y-5.4025
X4.9858Y-5.5025
X4.9858Y-5.6025
X4.9858Y-5.7025
X4.9858Y-5.8025
X4.9858Y-5.9025
X3.4168Y-3.837
X3.4168Y-4.137
X3.5168Y-3.837
X3.5168Y-4.137
X3.6168Y-3.837
X3.6168Y-4.137
X3.7168Y-3.837
X3.7168Y-4.137
X3.8168Y-3.837
X3.8168Y-4.137
X3.9168Y-3.837
X3.9168Y-4.137
X4.0168Y-3.837
X4.0168Y-4.137
X4.1168Y-3.837
X4.1168Y-4.137
X4.2168Y-3.837
X4.2168Y-4.137
X4.3168Y-3.837
X4.3168Y-4.137
X4.4168Y-3.837
X4.4168Y-4.137
X4.5168Y-3.837
X4.5168Y-4.137
X7.7836Y-2.2963
X7.7836Y-2.3963
X7.7836Y-2.4963
X7.7836Y-2.5963
X7.7836Y-2.6963
X7.7836Y-2.7963
X7.7836Y-2.8963
X7.7836Y-2.9963
X7.7836Y-3.0963
X7.7836Y-3.1963
X7.7836Y-3.2963
X7.7836Y-3.3963
X8.0836Y-2.2963
X8.0836Y-2.3963
X8.0836Y-2.4963
X8.0836Y-2.5963
X8.0836Y-2.6963
X8.0836Y-2.7963
X8.0836Y-2.8963
X8.0836Y-2.9963
X8.0836Y-3.0963
X8.0836Y-3.1963
X8.0836Y-3.2963
X8.0836Y-3.3963
X5.4264Y-3.5622
X5.4264Y-3.8622
X5.5264Y-3.5622
X5.5264Y-3.8622
X5.6264Y-3.5622
X5.6264Y-3.8622
X5.7264Y-3.5622
X5.7264Y-3.8622
X5.8264Y-3.5622
X5.8264Y-3.8622
X5.9264Y-3.5622
X5.9264Y-3.8622
X6.0264Y-3.5622
X6.0264Y-3.8622
X6.1264Y-3.5622
X6.1264Y-3.8622
T3
X7.4987Y-5.7528
X7.5987Y-5.7528
X6.7146Y-3.0001
X6.7146Y-3.1001
X6.9677Y-3.5405
X7.0677Y-3.5405
X7.1987Y-5.4505
X7.2987Y-5.4505
X6.6357Y-2.2866
X6.7357Y-2.2866
X4.1615Y-4.8583
X4.2615Y-4.8583
X8.3889Y-2.5768
X8.3889Y-2.9768
X5.111Y-4.2677
X5.511Y-4.2677
X8.7189Y-3.3898
X8.8189Y-3.3898
X7.9313Y-4.132
X8.0313Y-4.132
X4.0039Y-2.6987
X4.0039Y-3.0987
X7.1987Y-5.7537
X7.2987Y-5.7537
X8.2374Y-2.5768
X8.2374Y-2.9768
X5.111Y-4.1072
X5.511Y-4.1072
X6.7146Y-2.6697
X6.7146Y-2.7697
X6.2913Y-4.174
X6.2913Y-4.274
X8.038Y-5.7528
X8.138Y-5.7528
X8.2262Y-4.3424
X8.3262Y-4.3424
X5.2559Y-3.5008
X5.2559Y-3.9008
X3.2046Y-2.4481
X3.3046Y-2.4481
X7.8905Y-3.5405
X7.9905Y-3.5405
X8.4906Y-2.3953
X8.5906Y-2.3953
X6.0642Y-5.9552
X6.1642Y-5.9552
X3.8871Y-2.6987
X3.8871Y-3.0987
X3.7703Y-2.6987
X3.7703Y-3.0987
X7.6259Y-3.5159
X7.6259Y-3.9159
X3.4264Y-2.428
X3.4264Y-3.328
X3.5264Y-2.428
X3.5264Y-3.328
X3.6264Y-2.428
X3.6264Y-3.328
X3.7264Y-2.428
X3.7264Y-3.328
X3.8264Y-2.428
X3.8264Y-3.328
X3.9264Y-2.428
X3.9264Y-3.328
X4.0264Y-2.428
X4.0264Y-3.328
X4.1264Y-2.428
X4.1264Y-3.328
X4.2264Y-2.428
X4.2264Y-3.328
X4.3264Y-2.428
X4.3264Y-3.328
X4.4264Y-2.428
X4.4264Y-3.328
X4.5264Y-2.428
X4.5264Y-3.328
X4.6264Y-2.428
X4.6264Y-3.328
X4.7264Y-2.428
X4.7264Y-3.328
X4.8264Y-2.428
X4.8264Y-3.328
X4.9264Y-2.428
X4.9264Y-3.328
X5.0264Y-2.428
X5.0264Y-3.328
X5.1264Y-2.428
X5.1264Y-3.328
X5.2264Y-2.428
X5.2264Y-3.328
X5.3264Y-2.428
X5.3264Y-3.328
X5.4264Y-2.428
X5.4264Y-3.328
X5.5264Y-2.428
X5.5264Y-3.328
X5.6264Y-2.428
X5.6264Y-3.328
X5.7264Y-2.428
X5.7264Y-3.328
X5.8264Y-2.428
X5.8264Y-3.328
X5.9264Y-2.428
X5.9264Y-3.328
X6.0264Y-2.428
X6.0264Y-3.328
X6.1264Y-2.428
X6.1264Y-3.328
X6.2264Y-2.428
X6.2264Y-3.328
X6.3264Y-2.428
X6.3264Y-3.328
X6.4264Y-2.428
X6.4264Y-3.328
X6.5264Y-2.428
X6.5264Y-3.328
X8.5374Y-2.5768
X8.5374Y-2.9768
X7.1987Y-6.0136
X7.5987Y-6.0136
X7.7193Y-4.132
X7.8193Y-4.132
X8.2262Y-5.0537
X8.3262Y-5.0537
X7.0161Y-5.9552
X7.1161Y-5.9552
X8.2307Y-2.3988
X8.3307Y-2.3988
X7.7717Y-5.7537
X7.8717Y-5.7537
X8.7189Y-3.1309
X8.8189Y-3.1309
X5.1123Y-5.9552
X5.2123Y-5.9552
X7.044Y-5.0166
X7.044Y-5.1166
X3.6535Y-2.6987
X3.6535Y-3.0987
X7.7836Y-3.5159
X7.7836Y-3.9159
X8.2426Y-3.5178
X8.2426Y-3.9178
X3.9791Y-2.3004
X4.3791Y-2.3004
X3.4333Y-3.5612
X3.5333Y-3.5612
X5.7145Y-4.1316
X5.8145Y-4.1316
X4.9114Y-4.1272
X4.9114Y-4.2272
X4.2372Y-2.6986
X4.2372Y-3.0986
X8.7797Y-5.627
X8.8797Y-5.627
X6.7143Y-2.4677
X6.7143Y-2.5677
X8.1366Y-5.4505
X8.2366Y-5.4505
X7.4255Y-3.5405
X7.5255Y-3.5405
X4.1157Y-2.6987
X4.1157Y-3.0987
X5.1244Y-2.7017
X5.1244Y-3.1017
X7.0047Y-4.1535
X7.4047Y-4.1535
X6.2638Y-3.6616
X6.2638Y-3.7616
X8.2262Y-4.698
X8.3262Y-4.698
X4.4722Y-3.5931
X4.4722Y-3.6931
X3.7402Y-4.2753
X4.1402Y-4.2753
X8.43Y-5.624
X8.57Y-5.624
X7.738Y-6.0136
X8.138Y-6.0136
T4
X8.5261Y-5.1697
X2.8868Y-2.5728
X2.8868Y-2.6728
X2.8868Y-2.7728
X2.8868Y-2.8728
X2.8868Y-2.9728
X2.8868Y-3.0728
X2.8868Y-3.1728
X2.8868Y-3.2728
X2.8868Y-3.3728
X2.8868Y-3.4728
X2.8868Y-3.5728
X2.8868Y-3.6728
X2.8868Y-3.7728
X2.8868Y-3.8728
X2.8868Y-3.9728
X2.8868Y-4.0728
X2.8868Y-4.1728
X2.8868Y-4.2728
X2.8868Y-4.3728
X2.8868Y-4.4728
X2.8868Y-4.5728
X2.8868Y-4.6728
X2.8868Y-4.7728
X2.8868Y-4.8728
X2.8868Y-4.9728
X2.8868Y-5.0728
X2.8868Y-5.1728
X2.8868Y-5.2728
X2.8868Y-5.3728
X2.8868Y-5.4728
X2.8868Y-5.5728
X2.8868Y-5.6728
X2.9868Y-2.5728
X2.9868Y-2.6728
X2.9868Y-2.7728
X2.9868Y-2.8728
X2.9868Y-2.9728
X2.9868Y-3.0728
X2.9868Y-3.1728
X2.9868Y-3.2728
X2.9868Y-3.3728
X2.9868Y-3.4728
X2.9868Y-3.5728
X2.9868Y-3.6728
X2.9868Y-3.7728
X2.9868Y-3.8728
X2.9868Y-3.9728
X2.9868Y-4.0728
X2.9868Y-4.1728
X2.9868Y-4.2728
X2.9868Y-4.3728
X2.9868Y-4.4728
X2.9868Y-4.5728
X2.9868Y-4.6728
X2.9868Y-4.7728
X2.9868Y-4.8728
X2.9868Y-4.9728
X2.9868Y-5.0728
X2.9868Y-5.1728
X2.9868Y-5.2728
X2.9868Y-5.3728
X2.9868Y-5.4728
X2.9868Y-5.5728
X2.9868Y-5.6728
X4.2115Y-4.4089
X4.2115Y-4.5089
X4.2115Y-4.6089
X4.2115Y-4.7089
T5
X8.648Y-2.6456
X8.648Y-2.9016
X8.826Y-2.6456
X8.826Y-2.9016
X8.4539Y-5.9449
X8.5539Y-5.9449
X8.7913Y-4.6697
X8.7913Y-4.7697
X8.7913Y-4.8697
X8.7913Y-4.9697
X8.7913Y-5.0697
X8.7913Y-5.1697
X8.7913Y-3.9196
X8.7913Y-4.0196
X8.7913Y-4.1196
X8.7913Y-4.2196
X8.7913Y-4.3196
X8.7913Y-4.4196
X8.5261Y-3.5889
X8.5261Y-3.6889
X8.5261Y-3.9196
X8.5261Y-4.0196
X8.5261Y-4.1196
X8.5261Y-4.2196
X8.5261Y-4.3196
X8.5261Y-4.4196
X4.292Y-3.5981
X4.292Y-3.6981
X8.7913Y-3.5889
X8.7913Y-3.6889
X4.1222Y-3.5981
X4.1222Y-3.6981
T0
M30
