G04 #@! TF.GenerationSoftware,KiCad,Pcbnew,(5.1.5-0-10_14)*
G04 #@! TF.CreationDate,2021-10-22T23:07:22+01:00*
G04 #@! TF.ProjectId,rosco_m68k,726f7363-6f5f-46d3-9638-6b2e6b696361,2.1*
G04 #@! TF.SameCoordinates,Original*
G04 #@! TF.FileFunction,Copper,L4,Bot*
G04 #@! TF.FilePolarity,Positive*
%FSLAX46Y46*%
G04 Gerber Fmt 4.6, Leading zero omitted, Abs format (unit mm)*
G04 Created by KiCad (PCBNEW (5.1.5-0-10_14)) date 2021-10-22 23:07:22*
%MOMM*%
%LPD*%
G04 APERTURE LIST*
%ADD10O,1.320800X2.641600*%
%ADD11C,1.600200*%
%ADD12C,1.320800*%
%ADD13O,1.600000X2.400000*%
%ADD14R,1.600000X2.400000*%
%ADD15R,1.700000X1.700000*%
%ADD16O,1.700000X1.700000*%
%ADD17O,3.048000X1.524000*%
%ADD18O,2.400000X1.600000*%
%ADD19R,2.400000X1.600000*%
%ADD20C,1.422400*%
%ADD21R,1.422400X1.422400*%
%ADD22C,1.500000*%
%ADD23O,1.524000X3.048000*%
%ADD24C,1.600000*%
%ADD25R,1.600000X1.600000*%
%ADD26C,0.800000*%
%ADD27C,0.152400*%
%ADD28C,0.250000*%
%ADD29C,0.650000*%
G04 APERTURE END LIST*
D10*
X163230000Y-61670000D03*
X160690000Y-61670000D03*
X158150000Y-61670000D03*
X155610000Y-61670000D03*
X153070000Y-61670000D03*
X150530000Y-61670000D03*
X147990000Y-61670000D03*
X145450000Y-61670000D03*
X142910000Y-61670000D03*
X140370000Y-61670000D03*
X137830000Y-61670000D03*
X135290000Y-61670000D03*
X163230000Y-84530000D03*
X160690000Y-84530000D03*
X158150000Y-84530000D03*
X155610000Y-84530000D03*
X153070000Y-84530000D03*
X150530000Y-84530000D03*
X147990000Y-84530000D03*
X145450000Y-84530000D03*
X142910000Y-84530000D03*
X140370000Y-84530000D03*
X137830000Y-84530000D03*
X135290000Y-84530000D03*
X87030000Y-61670000D03*
X89570000Y-61670000D03*
X92110000Y-61670000D03*
X94650000Y-61670000D03*
X97190000Y-61670000D03*
X99730000Y-61670000D03*
X102270000Y-61670000D03*
X104810000Y-61670000D03*
X107350000Y-61670000D03*
X109890000Y-61670000D03*
X112430000Y-61670000D03*
X114970000Y-61670000D03*
X117510000Y-61670000D03*
X120050000Y-61670000D03*
X122590000Y-61670000D03*
X125130000Y-61670000D03*
X127670000Y-61670000D03*
X130210000Y-61670000D03*
X132750000Y-61670000D03*
X165770000Y-61670000D03*
X165770000Y-84530000D03*
X132750000Y-84530000D03*
X130210000Y-84530000D03*
X127670000Y-84530000D03*
X125130000Y-84530000D03*
X122590000Y-84530000D03*
X120050000Y-84530000D03*
X117510000Y-84530000D03*
X114970000Y-84530000D03*
X112430000Y-84530000D03*
X109890000Y-84530000D03*
X107350000Y-84530000D03*
X104810000Y-84530000D03*
X102270000Y-84530000D03*
X99730000Y-84530000D03*
X97190000Y-84530000D03*
X94650000Y-84530000D03*
X92110000Y-84530000D03*
X89570000Y-84530000D03*
X87030000Y-84530000D03*
D11*
X159100000Y-95545000D03*
X159100000Y-93005000D03*
D12*
X92800000Y-78708100D03*
X92800000Y-68548100D03*
X95766666Y-78708100D03*
X95766666Y-68548100D03*
X177920000Y-105500000D03*
X188080000Y-105500000D03*
X98733332Y-78708100D03*
X98733332Y-68548100D03*
X101700000Y-78708100D03*
X101700000Y-68548100D03*
D13*
X137830000Y-90480000D03*
X155610000Y-98100000D03*
X140370000Y-90480000D03*
X153070000Y-98100000D03*
X142910000Y-90480000D03*
X150530000Y-98100000D03*
X145450000Y-90480000D03*
X147990000Y-98100000D03*
X147990000Y-90480000D03*
X145450000Y-98100000D03*
X150530000Y-90480000D03*
X142910000Y-98100000D03*
X153070000Y-90480000D03*
X140370000Y-98100000D03*
X155610000Y-90480000D03*
D14*
X137830000Y-98100000D03*
D15*
X216564000Y-131310000D03*
D16*
X106971000Y-111987000D03*
X106971000Y-114527000D03*
X106971000Y-117067000D03*
D15*
X106971000Y-119607000D03*
D12*
X105161000Y-108593000D03*
X95001000Y-108593000D03*
D17*
X104703000Y-93933000D03*
X104703000Y-91393000D03*
X109018000Y-91393000D03*
X109018000Y-93933000D03*
D18*
X102440000Y-111823600D03*
X87200000Y-149923600D03*
X102440000Y-114363600D03*
X87200000Y-147383600D03*
X102440000Y-116903600D03*
X87200000Y-144843600D03*
X102440000Y-119443600D03*
X87200000Y-142303600D03*
X102440000Y-121983600D03*
X87200000Y-139763600D03*
X102440000Y-124523600D03*
X87200000Y-137223600D03*
X102440000Y-127063600D03*
X87200000Y-134683600D03*
X102440000Y-129603600D03*
X87200000Y-132143600D03*
X102440000Y-132143600D03*
X87200000Y-129603600D03*
X102440000Y-134683600D03*
X87200000Y-127063600D03*
X102440000Y-137223600D03*
X87200000Y-124523600D03*
X102440000Y-139763600D03*
X87200000Y-121983600D03*
X102440000Y-142303600D03*
X87200000Y-119443600D03*
X102440000Y-144843600D03*
X87200000Y-116903600D03*
X102440000Y-147383600D03*
X87200000Y-114363600D03*
X102440000Y-149923600D03*
D19*
X87200000Y-111823600D03*
D18*
X182070000Y-58324800D03*
X174450000Y-86264800D03*
X182070000Y-60864800D03*
X174450000Y-83724800D03*
X182070000Y-63404800D03*
X174450000Y-81184800D03*
X182070000Y-65944800D03*
X174450000Y-78644800D03*
X182070000Y-68484800D03*
X174450000Y-76104800D03*
X182070000Y-71024800D03*
X174450000Y-73564800D03*
X182070000Y-73564800D03*
X174450000Y-71024800D03*
X182070000Y-76104800D03*
X174450000Y-68484800D03*
X182070000Y-78644800D03*
X174450000Y-65944800D03*
X182070000Y-81184800D03*
X174450000Y-63404800D03*
X182070000Y-83724800D03*
X174450000Y-60864800D03*
X182070000Y-86264800D03*
D19*
X174450000Y-58324800D03*
D20*
X199572000Y-127819000D03*
X197032000Y-127819000D03*
X194492000Y-127819000D03*
X191952000Y-127819000D03*
X189412000Y-127819000D03*
X202112000Y-125279000D03*
X197032000Y-125279000D03*
X194492000Y-125279000D03*
X191952000Y-125279000D03*
X189412000Y-125279000D03*
X186872000Y-125279000D03*
X184332000Y-125279000D03*
X184332000Y-122739000D03*
X184332000Y-120199000D03*
X184332000Y-117659000D03*
X184332000Y-115119000D03*
X184332000Y-112579000D03*
X186872000Y-127819000D03*
X186872000Y-122739000D03*
X186872000Y-120199000D03*
X186872000Y-117659000D03*
X186872000Y-115119000D03*
X186872000Y-112579000D03*
X186872000Y-110039000D03*
X189412000Y-110039000D03*
X191952000Y-110039000D03*
X194492000Y-110039000D03*
X197032000Y-110039000D03*
X199572000Y-110039000D03*
X189412000Y-112579000D03*
X191952000Y-112579000D03*
X194492000Y-112579000D03*
X197032000Y-112579000D03*
X199572000Y-112579000D03*
X202112000Y-122739000D03*
X202112000Y-120199000D03*
X202112000Y-112579000D03*
X202112000Y-115119000D03*
X202112000Y-117659000D03*
X199572000Y-125279000D03*
X199572000Y-122739000D03*
X199572000Y-115119000D03*
X199572000Y-117659000D03*
D21*
X199572000Y-120199000D03*
D12*
X129820000Y-104324000D03*
X139980000Y-104324000D03*
D13*
X86787000Y-97461000D03*
X114727000Y-105081000D03*
X89327000Y-97461000D03*
X112187000Y-105081000D03*
X91867000Y-97461000D03*
X109647000Y-105081000D03*
X94407000Y-97461000D03*
X107107000Y-105081000D03*
X96947000Y-97461000D03*
X104567000Y-105081000D03*
X99487000Y-97461000D03*
X102027000Y-105081000D03*
X102027000Y-97461000D03*
X99487000Y-105081000D03*
X104567000Y-97461000D03*
X96947000Y-105081000D03*
X107107000Y-97461000D03*
X94407000Y-105081000D03*
X109647000Y-97461000D03*
X91867000Y-105081000D03*
X112187000Y-97461000D03*
X89327000Y-105081000D03*
X114727000Y-97461000D03*
D14*
X86787000Y-105081000D03*
D11*
X191146666Y-89929000D03*
X188606666Y-89929000D03*
X221459000Y-79525000D03*
X223999000Y-79525000D03*
D12*
X215660000Y-60840000D03*
X218200000Y-60840000D03*
D18*
X193696666Y-58324800D03*
X186076666Y-86264800D03*
X193696666Y-60864800D03*
X186076666Y-83724800D03*
X193696666Y-63404800D03*
X186076666Y-81184800D03*
X193696666Y-65944800D03*
X186076666Y-78644800D03*
X193696666Y-68484800D03*
X186076666Y-76104800D03*
X193696666Y-71024800D03*
X186076666Y-73564800D03*
X193696666Y-73564800D03*
X186076666Y-71024800D03*
X193696666Y-76104800D03*
X186076666Y-68484800D03*
X193696666Y-78644800D03*
X186076666Y-65944800D03*
X193696666Y-81184800D03*
X186076666Y-63404800D03*
X193696666Y-83724800D03*
X186076666Y-60864800D03*
X193696666Y-86264800D03*
D19*
X186076666Y-58324800D03*
D12*
X111230000Y-58430000D03*
X101070000Y-58430000D03*
X216850000Y-75610000D03*
X216850000Y-65450000D03*
X209230000Y-75610000D03*
X209230000Y-65450000D03*
D11*
X170550000Y-78743000D03*
X170550000Y-76203000D03*
X170543000Y-65220000D03*
X170543000Y-62680000D03*
X178210000Y-151263000D03*
X180750000Y-151263000D03*
D17*
X216564000Y-93699000D03*
X216564000Y-91159000D03*
X223300000Y-93699000D03*
X223300000Y-91159000D03*
X216564000Y-102098000D03*
X216564000Y-99558000D03*
X216564000Y-104638000D03*
X216564000Y-107178000D03*
X216564000Y-109718000D03*
X216564000Y-112258000D03*
X223300000Y-102098000D03*
X223300000Y-99558000D03*
X223300000Y-104638000D03*
X223300000Y-107178000D03*
X223300000Y-109718000D03*
X223300000Y-112258000D03*
D11*
X197401000Y-146143000D03*
X199941000Y-146143000D03*
X185386000Y-138443000D03*
X182846000Y-138443000D03*
D12*
X130160000Y-68623600D03*
X130160000Y-78783600D03*
X204164000Y-146122000D03*
X206704000Y-146122000D03*
X190466000Y-146120000D03*
X193006000Y-146120000D03*
D18*
X126640000Y-111823600D03*
X111400000Y-149923600D03*
X126640000Y-114363600D03*
X111400000Y-147383600D03*
X126640000Y-116903600D03*
X111400000Y-144843600D03*
X126640000Y-119443600D03*
X111400000Y-142303600D03*
X126640000Y-121983600D03*
X111400000Y-139763600D03*
X126640000Y-124523600D03*
X111400000Y-137223600D03*
X126640000Y-127063600D03*
X111400000Y-134683600D03*
X126640000Y-129603600D03*
X111400000Y-132143600D03*
X126640000Y-132143600D03*
X111400000Y-129603600D03*
X126640000Y-134683600D03*
X111400000Y-127063600D03*
X126640000Y-137223600D03*
X111400000Y-124523600D03*
X126640000Y-139763600D03*
X111400000Y-121983600D03*
X126640000Y-142303600D03*
X111400000Y-119443600D03*
X126640000Y-144843600D03*
X111400000Y-116903600D03*
X126640000Y-147383600D03*
X111400000Y-114363600D03*
X126640000Y-149923600D03*
D19*
X111400000Y-111823600D03*
D12*
X197703332Y-99463000D03*
X197703332Y-89303000D03*
X193696666Y-99463000D03*
X193696666Y-89303000D03*
X213078000Y-75610000D03*
X213078000Y-65450000D03*
X209362000Y-99513000D03*
X209362000Y-89353000D03*
D22*
X201101000Y-138442000D03*
X196221000Y-138442000D03*
D23*
X217270000Y-151000000D03*
X214730000Y-151000000D03*
D18*
X216850000Y-78724800D03*
X209230000Y-86344800D03*
X216850000Y-81264800D03*
X209230000Y-83804800D03*
X216850000Y-83804800D03*
X209230000Y-81264800D03*
X216850000Y-86344800D03*
D19*
X209230000Y-78724800D03*
D18*
X205323332Y-58324800D03*
X197703332Y-86264800D03*
X205323332Y-60864800D03*
X197703332Y-83724800D03*
X205323332Y-63404800D03*
X197703332Y-81184800D03*
X205323332Y-65944800D03*
X197703332Y-78644800D03*
X205323332Y-68484800D03*
X197703332Y-76104800D03*
X205323332Y-71024800D03*
X197703332Y-73564800D03*
X205323332Y-73564800D03*
X197703332Y-71024800D03*
X205323332Y-76104800D03*
X197703332Y-68484800D03*
X205323332Y-78644800D03*
X197703332Y-65944800D03*
X205323332Y-81184800D03*
X197703332Y-63404800D03*
X205323332Y-83724800D03*
X197703332Y-60864800D03*
X205323332Y-86264800D03*
D19*
X197703332Y-58324800D03*
D11*
X209209000Y-138443000D03*
X206669000Y-138443000D03*
X83936000Y-62182000D03*
X81396000Y-62182000D03*
X170550000Y-70350000D03*
X170550000Y-67810000D03*
X203995000Y-104952000D03*
X201455000Y-104952000D03*
X221459000Y-86101000D03*
X223999000Y-86101000D03*
D17*
X223300000Y-121150000D03*
X223300000Y-118610000D03*
X223300000Y-123690000D03*
X223300000Y-126230000D03*
X223300000Y-128770000D03*
X223300000Y-131310000D03*
D12*
X104538300Y-68548100D03*
X104538300Y-78708100D03*
X209060000Y-60930000D03*
X211600000Y-60930000D03*
D24*
X129120000Y-98300000D03*
X129120000Y-90680000D03*
X121500000Y-90680000D03*
D25*
X121500000Y-98300000D03*
D12*
X133500000Y-99080000D03*
X133500000Y-88920000D03*
D18*
X175040000Y-111823600D03*
X159800000Y-149923600D03*
X175040000Y-114363600D03*
X159800000Y-147383600D03*
X175040000Y-116903600D03*
X159800000Y-144843600D03*
X175040000Y-119443600D03*
X159800000Y-142303600D03*
X175040000Y-121983600D03*
X159800000Y-139763600D03*
X175040000Y-124523600D03*
X159800000Y-137223600D03*
X175040000Y-127063600D03*
X159800000Y-134683600D03*
X175040000Y-129603600D03*
X159800000Y-132143600D03*
X175040000Y-132143600D03*
X159800000Y-129603600D03*
X175040000Y-134683600D03*
X159800000Y-127063600D03*
X175040000Y-137223600D03*
X159800000Y-124523600D03*
X175040000Y-139763600D03*
X159800000Y-121983600D03*
X175040000Y-142303600D03*
X159800000Y-119443600D03*
X175040000Y-144843600D03*
X159800000Y-116903600D03*
X175040000Y-147383600D03*
X159800000Y-114363600D03*
X175040000Y-149923600D03*
D19*
X159800000Y-111823600D03*
D18*
X150840000Y-111823600D03*
X135600000Y-149923600D03*
X150840000Y-114363600D03*
X135600000Y-147383600D03*
X150840000Y-116903600D03*
X135600000Y-144843600D03*
X150840000Y-119443600D03*
X135600000Y-142303600D03*
X150840000Y-121983600D03*
X135600000Y-139763600D03*
X150840000Y-124523600D03*
X135600000Y-137223600D03*
X150840000Y-127063600D03*
X135600000Y-134683600D03*
X150840000Y-129603600D03*
X135600000Y-132143600D03*
X150840000Y-132143600D03*
X135600000Y-129603600D03*
X150840000Y-134683600D03*
X135600000Y-127063600D03*
X150840000Y-137223600D03*
X135600000Y-124523600D03*
X150840000Y-139763600D03*
X135600000Y-121983600D03*
X150840000Y-142303600D03*
X135600000Y-119443600D03*
X150840000Y-144843600D03*
X135600000Y-116903600D03*
X150840000Y-147383600D03*
X135600000Y-114363600D03*
X150840000Y-149923600D03*
D19*
X135600000Y-111823600D03*
D12*
X196544000Y-152746000D03*
X206704000Y-152746000D03*
X182846000Y-152746000D03*
X193006000Y-152746000D03*
D11*
X159800000Y-108559000D03*
X159800000Y-106019000D03*
X113593000Y-93806000D03*
X113593000Y-91266000D03*
D23*
X224180600Y-67198800D03*
X219659400Y-67198800D03*
X224180600Y-73701200D03*
X219659400Y-73701200D03*
D11*
X108241000Y-123400000D03*
X105701000Y-123400000D03*
X132392000Y-151263000D03*
X129852000Y-151263000D03*
X156570000Y-151263000D03*
X154030000Y-151263000D03*
X185386000Y-146143000D03*
X182846000Y-146143000D03*
D12*
X107625000Y-68545000D03*
X107625000Y-78705000D03*
D11*
X198609000Y-104952000D03*
X196069000Y-104952000D03*
D16*
X75865000Y-144090000D03*
X73325000Y-144090000D03*
X75865000Y-141550000D03*
X73325000Y-141550000D03*
X75865000Y-139010000D03*
X73325000Y-139010000D03*
X75865000Y-136470000D03*
X73325000Y-136470000D03*
X75865000Y-133930000D03*
X73325000Y-133930000D03*
X75865000Y-131390000D03*
X73325000Y-131390000D03*
X75865000Y-128850000D03*
X73325000Y-128850000D03*
X75865000Y-126310000D03*
X73325000Y-126310000D03*
X75865000Y-123770000D03*
X73325000Y-123770000D03*
X75865000Y-121230000D03*
X73325000Y-121230000D03*
X75865000Y-118690000D03*
X73325000Y-118690000D03*
X75865000Y-116150000D03*
X73325000Y-116150000D03*
X75865000Y-113610000D03*
X73325000Y-113610000D03*
X75865000Y-111070000D03*
X73325000Y-111070000D03*
X75865000Y-108530000D03*
X73325000Y-108530000D03*
X75865000Y-105990000D03*
X73325000Y-105990000D03*
X75865000Y-103450000D03*
X73325000Y-103450000D03*
X75865000Y-100910000D03*
X73325000Y-100910000D03*
X75865000Y-98370000D03*
X73325000Y-98370000D03*
X75865000Y-95830000D03*
X73325000Y-95830000D03*
X75865000Y-93290000D03*
X73325000Y-93290000D03*
X75865000Y-90750000D03*
X73325000Y-90750000D03*
X75865000Y-88210000D03*
X73325000Y-88210000D03*
X75865000Y-85670000D03*
X73325000Y-85670000D03*
X75865000Y-83130000D03*
X73325000Y-83130000D03*
X75865000Y-80590000D03*
X73325000Y-80590000D03*
X75865000Y-78050000D03*
X73325000Y-78050000D03*
X75865000Y-75510000D03*
X73325000Y-75510000D03*
X75865000Y-72970000D03*
X73325000Y-72970000D03*
X75865000Y-70430000D03*
X73325000Y-70430000D03*
X75865000Y-67890000D03*
X73325000Y-67890000D03*
X75865000Y-65350000D03*
D15*
X73325000Y-65350000D03*
D11*
X214122000Y-142850000D03*
X217678000Y-142850000D03*
X124750000Y-104830000D03*
X124750000Y-107370000D03*
X208946000Y-128363000D03*
X211486000Y-128363000D03*
X200419000Y-89929000D03*
X202959000Y-89929000D03*
X179520000Y-89929000D03*
X176980000Y-89929000D03*
X178918000Y-127422000D03*
X178918000Y-129962000D03*
X168547000Y-58080000D03*
X171087000Y-58080000D03*
X208946000Y-119329500D03*
X211486000Y-119329500D03*
X87205000Y-90454000D03*
X89745000Y-90454000D03*
X223005000Y-142925000D03*
X225545000Y-142925000D03*
X145149000Y-104943000D03*
X147689000Y-104943000D03*
X208946000Y-110296000D03*
X211486000Y-110296000D03*
D12*
X129820000Y-108400000D03*
X139980000Y-108400000D03*
D26*
X143427000Y-94915000D03*
X148804000Y-100198000D03*
X150337000Y-88427400D03*
X108083012Y-77358012D03*
X196488000Y-100400000D03*
X112173790Y-89925000D03*
X114950000Y-78000000D03*
X117550000Y-77328600D03*
X74600000Y-92025000D03*
X187970000Y-79150000D03*
X140350000Y-78800000D03*
X141650000Y-60078600D03*
X179913000Y-59192400D03*
X122375000Y-71702465D03*
X175404000Y-88658600D03*
X206992000Y-100464000D03*
X104567000Y-100789780D03*
X78198746Y-100072032D03*
X102322514Y-99796600D03*
X172201707Y-79279132D03*
X99701000Y-88877000D03*
X114914000Y-88877000D03*
X112450000Y-79147350D03*
X150550000Y-80671400D03*
X81775000Y-84400000D03*
X81754073Y-93297201D03*
X188887400Y-76526000D03*
X153050000Y-80328600D03*
X81025000Y-83750000D03*
X81000000Y-90750000D03*
X188582590Y-74436000D03*
X155650000Y-79700000D03*
X80325000Y-83075000D03*
X80292086Y-88207914D03*
X188263000Y-73217000D03*
X118517880Y-98979000D03*
X149158600Y-101924550D03*
X109632000Y-101874000D03*
X112167000Y-101280761D03*
X176743000Y-100300000D03*
X98222000Y-86978601D03*
X98505000Y-56248000D03*
X95225000Y-86978600D03*
X96064210Y-93424000D03*
X127650000Y-87200000D03*
X118803000Y-119493000D03*
X181314000Y-123986000D03*
X106300000Y-77375000D03*
X103472000Y-86127000D03*
X105485000Y-57946000D03*
X190021000Y-57887000D03*
X137900000Y-72975000D03*
X135300000Y-73603600D03*
X79034886Y-75475000D03*
X132750000Y-79756970D03*
X78894000Y-83320000D03*
X138850000Y-73937730D03*
X163250000Y-73937730D03*
X77675000Y-127625000D03*
X163254000Y-65811800D03*
X202378590Y-70003000D03*
X138800000Y-127100000D03*
X141700000Y-124550000D03*
X139531763Y-73272697D03*
X160700000Y-73309130D03*
X77675000Y-125050000D03*
X160678000Y-65183200D03*
X201749990Y-69271179D03*
X143200000Y-121950000D03*
X158150000Y-72644097D03*
X141400000Y-72644097D03*
X77625000Y-122500000D03*
X158154000Y-64554600D03*
X201124400Y-67452000D03*
X145450000Y-124500000D03*
X142950000Y-72015497D03*
X155650000Y-72015497D03*
X155662000Y-63926000D03*
X146650000Y-127150000D03*
X143950000Y-71386897D03*
X153050000Y-71386897D03*
X199958000Y-65391000D03*
X153433600Y-134683600D03*
X145250000Y-70758297D03*
X150550000Y-70758297D03*
X200495800Y-64310000D03*
X154900000Y-129600000D03*
X196315600Y-59720000D03*
X156150000Y-119400000D03*
X153650000Y-69550000D03*
X146950000Y-69500000D03*
X77600000Y-118675000D03*
X202097000Y-91440151D03*
X154565000Y-88637000D03*
X157450000Y-120700000D03*
X156567833Y-64554600D03*
X201699000Y-92697351D03*
X157352000Y-94285000D03*
X140400000Y-64700000D03*
X77675000Y-120578600D03*
X157365000Y-65337000D03*
X161221000Y-92343000D03*
X200810220Y-93176000D03*
X156785801Y-113334990D03*
X137800000Y-65750000D03*
X154400000Y-65750000D03*
X136825000Y-73937730D03*
X81400000Y-76450000D03*
X114119000Y-113185000D03*
X172201000Y-84980000D03*
X155528600Y-115550000D03*
X135300000Y-67600000D03*
X152350000Y-67600000D03*
X135300000Y-70758297D03*
X81785340Y-70300000D03*
X79663486Y-107075000D03*
X205943000Y-89243000D03*
X153404000Y-92490000D03*
X164200000Y-101028600D03*
X164200000Y-134700000D03*
X77650000Y-135225000D03*
X202459000Y-100713380D03*
X163450000Y-96400000D03*
X163383410Y-137250000D03*
X77675000Y-137700000D03*
X203711000Y-97768000D03*
X184691000Y-96400000D03*
X162700000Y-93950000D03*
X77675000Y-139646400D03*
X121728601Y-140252896D03*
X204329000Y-95230000D03*
X183697000Y-95230000D03*
X130550000Y-146450000D03*
X92911780Y-144850000D03*
X168800000Y-105000000D03*
X139000000Y-144900000D03*
X83967800Y-136475000D03*
X88600000Y-75200000D03*
X166600000Y-75550000D03*
X95461780Y-142300000D03*
X90621400Y-75848146D03*
X167804344Y-104428600D03*
X84596400Y-133925000D03*
X165950000Y-76250000D03*
X95461780Y-139750000D03*
X91200000Y-76700000D03*
X166800001Y-103800000D03*
X85225000Y-131425000D03*
X165178600Y-76971400D03*
X118100000Y-70349999D03*
X117764200Y-141618780D03*
X82175000Y-128850000D03*
X118392800Y-143850000D03*
X118914285Y-69757142D03*
X81600000Y-126300000D03*
X119021400Y-146400000D03*
X119728570Y-69164285D03*
X81075000Y-123775000D03*
X119650000Y-149950000D03*
X120542855Y-68571428D03*
X128450000Y-154147840D03*
X76471655Y-148108992D03*
X120350000Y-147450000D03*
X121357140Y-67978571D03*
X124750000Y-153843030D03*
X77423472Y-147337994D03*
X120900000Y-144850000D03*
X122171425Y-67385714D03*
X78350000Y-146444600D03*
X122985710Y-66792857D03*
X121423791Y-141923590D03*
X79323205Y-145120998D03*
X123800000Y-66200000D03*
X122069488Y-139363590D03*
X80275000Y-144350000D03*
X110150000Y-67750000D03*
X83250000Y-65700000D03*
X82075000Y-119950000D03*
X82413940Y-99751438D03*
X99487000Y-110555000D03*
X110970732Y-68423816D03*
X83049540Y-100484164D03*
X83846134Y-66445315D03*
X83025000Y-116875000D03*
X95254000Y-115780000D03*
X111791464Y-69097632D03*
X84452299Y-67179912D03*
X83775000Y-114550000D03*
X83742799Y-101207000D03*
X93829020Y-117098000D03*
X112612196Y-69771448D03*
X84988166Y-67967259D03*
X84371399Y-111146399D03*
X84371398Y-102137000D03*
X91882000Y-120015000D03*
X109200000Y-106900000D03*
X113432930Y-70445264D03*
X85700000Y-68600000D03*
X85000000Y-109600000D03*
X189889000Y-103173000D03*
X154200000Y-116900000D03*
X148671400Y-70129697D03*
X132700000Y-70100000D03*
X86300000Y-69350000D03*
X85657000Y-103296316D03*
X172830307Y-71715000D03*
X165200000Y-129600000D03*
X77675000Y-130150000D03*
X166171401Y-102850000D03*
X166200000Y-132350000D03*
X77675000Y-132625000D03*
X190871000Y-103926000D03*
X123900000Y-142750000D03*
X97200000Y-143350000D03*
X173800000Y-107400000D03*
X169750000Y-71950000D03*
X97200001Y-72717073D03*
X172750000Y-106850000D03*
X137750000Y-152928600D03*
X169150000Y-72700000D03*
X97148665Y-148717020D03*
X94650000Y-73350000D03*
X92399400Y-151250600D03*
X92143492Y-74256508D03*
X171800000Y-106350000D03*
X133900000Y-153538220D03*
X89325000Y-143925000D03*
X168550000Y-73450000D03*
X93005512Y-149755512D03*
X89550000Y-73732838D03*
X170750000Y-105950000D03*
X82710599Y-141550000D03*
X167850000Y-74100000D03*
X92911780Y-146750000D03*
X88052390Y-74361438D03*
X169800000Y-105500000D03*
X148713512Y-151976210D03*
X83339199Y-139000000D03*
X167209713Y-74818344D03*
X104994402Y-99473402D03*
X103724000Y-56751000D03*
X195687000Y-57290600D03*
X203010000Y-62232000D03*
X207620600Y-77364000D03*
X88781000Y-130925000D03*
X128135000Y-109213000D03*
X189700000Y-115500000D03*
X215700000Y-115400000D03*
X177920000Y-98310000D03*
X144567210Y-99577000D03*
X113620512Y-87902512D03*
X113622000Y-79120000D03*
X77955310Y-80372353D03*
X147456000Y-100215000D03*
X101043000Y-88248400D03*
X78869000Y-80997000D03*
X101914400Y-87080000D03*
X78101987Y-79336700D03*
X99930000Y-102760000D03*
X140240000Y-102230980D03*
D27*
X142915100Y-84524900D02*
X142910000Y-84530000D01*
X150530000Y-96747600D02*
X150530000Y-98100000D01*
X148697400Y-94915000D02*
X150530000Y-96747600D01*
X143427000Y-94915000D02*
X148697400Y-94915000D01*
X145455100Y-84524900D02*
X145450000Y-84530000D01*
X152324400Y-100198000D02*
X153070000Y-99452400D01*
X153070000Y-99452400D02*
X153070000Y-98100000D01*
X148804000Y-100198000D02*
X152324400Y-100198000D01*
X155610000Y-90480000D02*
X155388000Y-90480000D01*
X153335400Y-88427400D02*
X150337000Y-88427400D01*
X155388000Y-90480000D02*
X153335400Y-88427400D01*
X191625001Y-100402001D02*
X196485999Y-100402001D01*
X196485999Y-100402001D02*
X196488000Y-100400000D01*
X190842000Y-99619000D02*
X191625001Y-100402001D01*
X159834596Y-100991140D02*
X161206736Y-99619000D01*
X119146481Y-100228481D02*
X119909140Y-100991140D01*
X115925000Y-89925000D02*
X119146481Y-93146481D01*
X119909140Y-100991140D02*
X159834596Y-100991140D01*
X161206736Y-99619000D02*
X190842000Y-99619000D01*
X119146481Y-93146481D02*
X119146481Y-100228481D01*
X112173790Y-89925000D02*
X115925000Y-89925000D01*
X95079000Y-89925000D02*
X112173790Y-89925000D01*
X91867000Y-93137000D02*
X95079000Y-89925000D01*
X91867000Y-97461000D02*
X91867000Y-93137000D01*
X70525950Y-133670950D02*
X73325000Y-136470000D01*
X70525950Y-75874050D02*
X70525950Y-133670950D01*
X70648796Y-75751204D02*
X70525950Y-75874050D01*
X70652207Y-75751204D02*
X70648796Y-75751204D01*
X72050000Y-74353411D02*
X70652207Y-75751204D01*
X91627985Y-77633411D02*
X79831900Y-77633410D01*
X77122345Y-74353411D02*
X72050000Y-74353411D01*
X77520190Y-75321700D02*
X77520190Y-74751256D01*
X108083012Y-77358012D02*
X107517327Y-77358012D01*
X79831900Y-77633410D02*
X77520190Y-75321700D01*
X92498822Y-76762574D02*
X91627985Y-77633411D01*
X104707244Y-76762574D02*
X92498822Y-76762574D01*
X106184835Y-78240165D02*
X104707244Y-76762574D01*
X77520190Y-74751256D02*
X77122345Y-74353411D01*
X106635174Y-78240165D02*
X106184835Y-78240165D01*
X107517327Y-77358012D02*
X106635174Y-78240165D01*
X71135570Y-129200570D02*
X73325000Y-131390000D01*
X71225000Y-77575000D02*
X71135570Y-77664430D01*
X71225000Y-77570143D02*
X71225000Y-77575000D01*
X71823744Y-76971399D02*
X71225000Y-77570143D01*
X78307757Y-76971399D02*
X71823744Y-76971399D01*
X71135570Y-77664430D02*
X71135570Y-129200570D01*
X79579386Y-78243028D02*
X78307757Y-76971399D01*
X79579386Y-78243028D02*
X79579388Y-78243028D01*
X79579388Y-78243028D02*
X86600000Y-78243029D01*
X86600000Y-78243029D02*
X86650000Y-78243029D01*
X92631066Y-77500000D02*
X103330200Y-77500000D01*
X103330200Y-77500000D02*
X104538300Y-78708100D01*
X91880496Y-78243029D02*
X92204287Y-77919240D01*
X92211827Y-77919239D02*
X92631066Y-77500000D01*
X92204287Y-77919240D02*
X92211827Y-77919239D01*
X86600000Y-78243029D02*
X91880496Y-78243029D01*
X104538300Y-78708100D02*
X105630200Y-79800000D01*
X105630200Y-79800000D02*
X108700000Y-79800000D01*
X110500000Y-78000000D02*
X114950000Y-78000000D01*
X108700000Y-79800000D02*
X110500000Y-78000000D01*
X107625000Y-78705000D02*
X108285399Y-78044601D01*
X117478600Y-77328600D02*
X117154810Y-77004810D01*
X117550000Y-77328600D02*
X117478600Y-77328600D01*
X109325190Y-77004810D02*
X108285399Y-78044601D01*
X117154810Y-77004810D02*
X109325190Y-77004810D01*
X106221704Y-78708100D02*
X107281500Y-78708100D01*
X70830760Y-77533317D02*
X71697487Y-76666590D01*
X70830760Y-131435760D02*
X70830760Y-77533317D01*
X92085570Y-77614430D02*
X92632616Y-77067384D01*
X92632616Y-77067384D02*
X104580988Y-77067384D01*
X92078032Y-77614430D02*
X92085570Y-77614430D01*
X104580988Y-77067384D02*
X106221704Y-78708100D01*
X78434013Y-76666589D02*
X79705643Y-77938219D01*
X91754240Y-77938220D02*
X92078032Y-77614430D01*
X79705643Y-77938219D02*
X91754240Y-77938220D01*
X71697487Y-76666590D02*
X78434013Y-76666589D01*
X73325000Y-133930000D02*
X70830760Y-131435760D01*
X193126666Y-79150000D02*
X193696666Y-78580000D01*
X187970000Y-79150000D02*
X193126666Y-79150000D01*
X187112000Y-77581000D02*
X187970000Y-78439000D01*
X131101990Y-86895190D02*
X161280810Y-86895190D01*
X176594000Y-80010000D02*
X179023000Y-77581000D01*
X172190000Y-80010000D02*
X176594000Y-80010000D01*
X179023000Y-77581000D02*
X187112000Y-77581000D01*
X161280810Y-86895190D02*
X161899000Y-86277000D01*
X162833399Y-81928601D02*
X170271400Y-81928600D01*
X161899000Y-82863000D02*
X162833399Y-81928601D01*
X161899000Y-86277000D02*
X161899000Y-82863000D01*
X187970000Y-78439000D02*
X187970000Y-79150000D01*
X130210000Y-84530000D02*
X130210000Y-86003200D01*
X170271400Y-81928600D02*
X172190000Y-80010000D01*
X130210000Y-86003200D02*
X131101990Y-86895190D01*
X74600000Y-89962000D02*
X74600000Y-92025000D01*
X130210000Y-83056800D02*
X129996231Y-82843031D01*
X93013000Y-87888000D02*
X81838000Y-87888000D01*
X93037011Y-87912011D02*
X93013000Y-87888000D01*
X75273399Y-89288601D02*
X74600000Y-89962000D01*
X101000000Y-86916000D02*
X100003989Y-87912011D01*
X80437399Y-89288601D02*
X75273399Y-89288601D01*
X81838000Y-87888000D02*
X80437399Y-89288601D01*
X101000000Y-83400000D02*
X101000000Y-86916000D01*
X130210000Y-84530000D02*
X130210000Y-83056800D01*
X101556969Y-82843031D02*
X101000000Y-83400000D01*
X129996231Y-82843031D02*
X101556969Y-82843031D01*
X100003989Y-87912011D02*
X93037011Y-87912011D01*
X141650000Y-60078600D02*
X141973790Y-59754810D01*
X142267600Y-59461000D02*
X141650000Y-60078600D01*
X142267600Y-59461000D02*
X142582600Y-59146000D01*
X142582600Y-59146000D02*
X150757000Y-59146000D01*
X150757000Y-59146000D02*
X168207000Y-59146000D01*
X168855191Y-59156191D02*
X169834868Y-59156192D01*
X168845000Y-59146000D02*
X168855191Y-59156191D01*
X168207000Y-59146000D02*
X168845000Y-59146000D01*
X179751999Y-59353401D02*
X179913000Y-59192400D01*
X170032077Y-59353401D02*
X179751999Y-59353401D01*
X169834868Y-59156192D02*
X170032077Y-59353401D01*
X111644929Y-80099741D02*
X111644926Y-80099744D01*
X73325000Y-126310000D02*
X71745190Y-124730190D01*
X72548601Y-82051399D02*
X71750000Y-82850000D01*
X110685827Y-81014173D02*
X80585827Y-81014173D01*
X140327600Y-78822400D02*
X130141500Y-78822400D01*
X111600257Y-80099743D02*
X110685827Y-81014173D01*
X79548601Y-82051399D02*
X72548601Y-82051399D01*
X113900259Y-80099741D02*
X113900257Y-80099743D01*
X80585827Y-81014173D02*
X79548601Y-82051399D01*
X128864159Y-80099741D02*
X113900259Y-80099741D01*
X130141500Y-78822400D02*
X128864159Y-80099741D01*
X140350000Y-78800000D02*
X140327600Y-78822400D01*
X113900257Y-80099743D02*
X111600257Y-80099743D01*
X71745190Y-124730190D02*
X71750000Y-82850000D01*
D28*
X127988630Y-90680000D02*
X129120000Y-90680000D01*
X127169200Y-90680000D02*
X127988630Y-90680000D01*
X122590000Y-86100800D02*
X127169200Y-90680000D01*
X122590000Y-84530000D02*
X122590000Y-86100800D01*
D27*
X83290000Y-67890000D02*
X75865000Y-67890000D01*
X85378601Y-69978601D02*
X83290000Y-67890000D01*
X91644972Y-70869236D02*
X90754337Y-69978601D01*
X103544972Y-70869236D02*
X91644972Y-70869236D01*
X107576039Y-70869237D02*
X103544972Y-70869236D01*
X90754337Y-69978601D02*
X85378601Y-69978601D01*
X107792676Y-71085874D02*
X107576039Y-70869237D01*
X121485525Y-71378675D02*
X112947608Y-71378674D01*
X112947608Y-71378674D02*
X112654809Y-71085875D01*
X112654809Y-71085875D02*
X107792676Y-71085874D01*
X121809315Y-71702465D02*
X121485525Y-71378675D01*
X122375000Y-71702465D02*
X121809315Y-71702465D01*
D28*
X175404000Y-88658600D02*
X171526386Y-88658600D01*
X171526386Y-88658600D02*
X170617786Y-87750000D01*
X132050000Y-87750000D02*
X129120000Y-90680000D01*
X170617786Y-87750000D02*
X132050000Y-87750000D01*
D27*
X77792048Y-103450000D02*
X75865000Y-103450000D01*
X82119211Y-99122837D02*
X77792048Y-103450000D01*
X83046460Y-99446628D02*
X82722669Y-99122837D01*
X82722669Y-99122837D02*
X82119211Y-99122837D01*
X97822714Y-100789780D02*
X104567000Y-100789780D01*
X96479562Y-99446628D02*
X97822714Y-100789780D01*
X83046460Y-99446628D02*
X96479562Y-99446628D01*
X206114020Y-101341980D02*
X206992000Y-100464000D01*
X193565827Y-101796000D02*
X194019847Y-101341980D01*
X157913610Y-103164390D02*
X159282000Y-101796000D01*
X194019847Y-101341980D02*
X206114020Y-101341980D01*
X104567000Y-105081000D02*
X104567000Y-103728600D01*
X104567000Y-103728600D02*
X105131210Y-103164390D01*
X159282000Y-101796000D02*
X193565827Y-101796000D01*
X105131210Y-103164390D02*
X157913610Y-103164390D01*
X97260600Y-99796600D02*
X102322514Y-99796600D01*
X79327979Y-98942799D02*
X81868183Y-98942799D01*
X81992955Y-98818027D02*
X82848926Y-98818028D01*
X78198746Y-100072032D02*
X79327979Y-98942799D01*
X81868183Y-98942799D02*
X81992955Y-98818027D01*
X96605818Y-99141818D02*
X97260600Y-99796600D01*
X83172716Y-99141818D02*
X96605818Y-99141818D01*
X82848926Y-98818028D02*
X83172716Y-99141818D01*
X99701000Y-88877000D02*
X114914000Y-88877000D01*
X99730000Y-83056800D02*
X99730000Y-84530000D01*
X111361779Y-82538221D02*
X100248578Y-82538222D01*
X100248578Y-82538222D02*
X99730000Y-83056800D01*
X112397486Y-81623789D02*
X112276211Y-81623789D01*
X170145143Y-81623791D02*
X112397488Y-81623791D01*
X112276211Y-81623789D02*
X111361779Y-82538221D01*
X172201707Y-79567227D02*
X170145143Y-81623791D01*
X112397488Y-81623791D02*
X112397486Y-81623789D01*
X172201707Y-79279132D02*
X172201707Y-79567227D01*
X72054304Y-87245696D02*
X72053443Y-94750011D01*
X72500000Y-86800000D02*
X72054304Y-87245696D01*
X76563934Y-86800000D02*
X72500000Y-86800000D01*
X77343247Y-87579313D02*
X76563934Y-86800000D01*
X72050257Y-122495256D02*
X73325000Y-123770000D01*
X72053443Y-94750011D02*
X72050257Y-122495256D01*
X94895383Y-87579313D02*
X77343247Y-87579313D01*
X99730000Y-84530000D02*
X99730000Y-86400931D01*
X94923271Y-87607201D02*
X94895383Y-87579313D01*
X99730000Y-86400931D02*
X98523729Y-87607202D01*
X98523729Y-87607202D02*
X94923271Y-87607201D01*
X112450000Y-79147350D02*
X111802419Y-79794931D01*
X111802419Y-79794931D02*
X111474000Y-79794934D01*
X111474000Y-79794934D02*
X110559571Y-80709363D01*
X110559571Y-80709363D02*
X102973744Y-80709363D01*
X102973744Y-80709363D02*
X104150000Y-80709363D01*
X71440380Y-126965380D02*
X73325000Y-128850000D01*
X71440380Y-82859620D02*
X71440380Y-126965380D01*
X71445191Y-82854809D02*
X71440380Y-82859620D01*
X79422345Y-81746589D02*
X72422344Y-81746590D01*
X71445191Y-82723743D02*
X71445191Y-82854809D01*
X72422344Y-81746590D02*
X71445191Y-82723743D01*
X80459570Y-80709364D02*
X79422345Y-81746589D01*
X102973744Y-80709363D02*
X80459570Y-80709364D01*
X81746872Y-93290000D02*
X81754073Y-93297201D01*
X75865000Y-93290000D02*
X81746872Y-93290000D01*
X149902419Y-81318981D02*
X150550000Y-80671400D01*
X149902419Y-81318981D02*
X112523744Y-81318981D01*
X112523744Y-81318981D02*
X113025000Y-81318981D01*
X188279990Y-77133410D02*
X188887400Y-76526000D01*
X172946590Y-77133410D02*
X188279990Y-77133410D01*
X167289132Y-77351000D02*
X172729000Y-77351000D01*
X163682931Y-80957201D02*
X167289132Y-77351000D01*
X172729000Y-77351000D02*
X172946590Y-77133410D01*
X150835801Y-80957201D02*
X163682931Y-80957201D01*
X150550000Y-80671400D02*
X150835801Y-80957201D01*
X83941587Y-82233413D02*
X81775000Y-84400000D01*
X111235521Y-82233413D02*
X83941587Y-82233413D01*
X112149954Y-81318980D02*
X111235521Y-82233413D01*
X112523742Y-81318979D02*
X112149954Y-81318980D01*
X112523744Y-81318981D02*
X112523742Y-81318979D01*
X75865000Y-90750000D02*
X81000000Y-90750000D01*
X153050000Y-80328600D02*
X163880466Y-80328600D01*
X163880466Y-80328600D02*
X169310846Y-74898220D01*
X169310846Y-74898220D02*
X175160000Y-74898220D01*
X175160000Y-74898220D02*
X187540780Y-74898220D01*
X188120370Y-74898220D02*
X188582590Y-74436000D01*
X187540780Y-74898220D02*
X188120370Y-74898220D01*
X82846397Y-81928603D02*
X81025000Y-83750000D01*
X111109265Y-81928603D02*
X82846397Y-81928603D01*
X112023697Y-81014171D02*
X111109265Y-81928603D01*
X149276899Y-81014171D02*
X112023697Y-81014171D01*
X150248271Y-80042799D02*
X149276899Y-81014171D01*
X150851729Y-80042799D02*
X150248271Y-80042799D01*
X151137530Y-80328600D02*
X150851729Y-80042799D01*
X153050000Y-80328600D02*
X151137530Y-80328600D01*
X80290000Y-88210000D02*
X80292086Y-88207914D01*
X75865000Y-88210000D02*
X80290000Y-88210000D01*
X155650000Y-79700000D02*
X150160004Y-79700000D01*
X150160004Y-79700000D02*
X149150643Y-80709361D01*
X155650000Y-79700000D02*
X164078000Y-79700000D01*
X169184590Y-74593410D02*
X175276064Y-74593410D01*
X164078000Y-79700000D02*
X169184590Y-74593410D01*
X175276064Y-74593410D02*
X187264590Y-74593410D01*
X187264590Y-74593410D02*
X187264590Y-74585410D01*
X188263000Y-73587000D02*
X188263000Y-73217000D01*
X187264590Y-74585410D02*
X188263000Y-73587000D01*
X149150643Y-80709361D02*
X126609360Y-80709360D01*
X111897440Y-80709362D02*
X110983009Y-81623793D01*
X126609360Y-80709360D02*
X111897440Y-80709362D01*
X81776207Y-81623793D02*
X80325000Y-83075000D01*
X110983009Y-81623793D02*
X81776207Y-81623793D01*
X107107000Y-98813400D02*
X107107000Y-97461000D01*
X107272600Y-98979000D02*
X107107000Y-98813400D01*
X118517880Y-98979000D02*
X107272600Y-98979000D01*
X149143411Y-101909361D02*
X149158600Y-101924550D01*
X109667361Y-101909361D02*
X109632000Y-101874000D01*
X109632000Y-101874000D02*
X110617580Y-102859580D01*
X148223570Y-102859580D02*
X149203150Y-101880000D01*
X110617580Y-102859580D02*
X148223570Y-102859580D01*
X112182189Y-101295950D02*
X112167000Y-101280761D01*
X114639148Y-101295950D02*
X114746050Y-101295950D01*
X114746050Y-101295950D02*
X112182189Y-101295950D01*
X114746050Y-101295950D02*
X159960852Y-101295950D01*
X160954802Y-100302000D02*
X176756000Y-100302000D01*
X159960852Y-101295950D02*
X160954802Y-100302000D01*
X102778000Y-97210000D02*
X102778000Y-97870400D01*
X79085000Y-86350000D02*
X75865000Y-83130000D01*
X95931200Y-86350000D02*
X79085000Y-86350000D01*
X97593399Y-86350000D02*
X98222000Y-86978601D01*
X95931200Y-86350000D02*
X97593399Y-86350000D01*
X206675732Y-71024800D02*
X205323332Y-71024800D01*
X207267000Y-70433532D02*
X206675732Y-71024800D01*
X205841399Y-56122399D02*
X207267000Y-57548000D01*
X99070685Y-56248000D02*
X99196286Y-56122399D01*
X207267000Y-57548000D02*
X207267000Y-70433532D01*
X99196286Y-56122399D02*
X205841399Y-56122399D01*
X98505000Y-56248000D02*
X99070685Y-56248000D01*
X76849810Y-86654810D02*
X76714999Y-86519999D01*
X93696010Y-86654810D02*
X76849810Y-86654810D01*
X76714999Y-86519999D02*
X75865000Y-85670000D01*
X94901210Y-86654810D02*
X95225000Y-86978600D01*
X93696010Y-86654810D02*
X94901210Y-86654810D01*
X99487000Y-94034000D02*
X99487000Y-97461000D01*
X98877000Y-93424000D02*
X99487000Y-94034000D01*
X96064210Y-93424000D02*
X98877000Y-93424000D01*
X192423666Y-88030000D02*
X193696666Y-89303000D01*
X170239265Y-86871399D02*
X171397866Y-88030000D01*
X166378601Y-86871399D02*
X170239265Y-86871399D01*
X166050000Y-87200000D02*
X166378601Y-86871399D01*
X171397866Y-88030000D02*
X192423666Y-88030000D01*
X127650000Y-87200000D02*
X166050000Y-87200000D01*
X172658990Y-118414990D02*
X155385010Y-118414990D01*
X173687600Y-119443600D02*
X172658990Y-118414990D01*
X175040000Y-119443600D02*
X173687600Y-119443600D01*
X154356400Y-119443600D02*
X150840000Y-119443600D01*
X155385010Y-118414990D02*
X154356400Y-119443600D01*
X148458990Y-118414990D02*
X133730010Y-118414990D01*
X149487600Y-119443600D02*
X148458990Y-118414990D01*
X150840000Y-119443600D02*
X149487600Y-119443600D01*
X133730010Y-118414990D02*
X133697010Y-118414990D01*
X133697010Y-118414990D02*
X131533000Y-120579000D01*
X131533000Y-120579000D02*
X124997000Y-120579000D01*
X124997000Y-120579000D02*
X123878000Y-119460000D01*
X118836000Y-119460000D02*
X118803000Y-119493000D01*
X123878000Y-119460000D02*
X118836000Y-119460000D01*
X176392400Y-119443600D02*
X177020000Y-120071200D01*
X175040000Y-119443600D02*
X176392400Y-119443600D01*
X177020000Y-120071200D02*
X177020000Y-121134000D01*
X179872000Y-123986000D02*
X181314000Y-123986000D01*
X177020000Y-121134000D02*
X179872000Y-123986000D01*
X70221140Y-135906140D02*
X73325000Y-139010000D01*
X70221140Y-75747794D02*
X70221140Y-135906140D01*
X70525950Y-75446395D02*
X70522539Y-75446395D01*
X77248601Y-74048601D02*
X71923743Y-74048602D01*
X77825000Y-74625000D02*
X77248601Y-74048601D01*
X77825000Y-75195444D02*
X77825000Y-74625000D01*
X70522539Y-75446395D02*
X70221140Y-75747794D01*
X71923743Y-74048602D02*
X70525950Y-75446395D01*
X91501729Y-77328601D02*
X79958157Y-77328601D01*
X106300000Y-77375000D02*
X105382764Y-76457764D01*
X79958157Y-77328601D02*
X77825000Y-75195444D01*
X92372566Y-76457764D02*
X91501729Y-77328601D01*
X105382764Y-76457764D02*
X92372566Y-76457764D01*
X107226200Y-86127000D02*
X107350000Y-86003200D01*
X107350000Y-86003200D02*
X107350000Y-84530000D01*
X103472000Y-86127000D02*
X107226200Y-86127000D01*
X189189810Y-57055810D02*
X190021000Y-57887000D01*
X188866019Y-56732019D02*
X189189810Y-57055810D01*
X106682981Y-56732019D02*
X188866019Y-56732019D01*
X105890001Y-57524999D02*
X106682981Y-56732019D01*
X105890001Y-57540999D02*
X105890001Y-57524999D01*
X105485000Y-57946000D02*
X105890001Y-57540999D01*
X137895000Y-72970000D02*
X137900000Y-72975000D01*
X84742132Y-72970000D02*
X75865000Y-72970000D01*
X130825000Y-72635876D02*
X121859217Y-72635875D01*
X131164124Y-72975000D02*
X130825000Y-72635876D01*
X121859217Y-72635875D02*
X121211635Y-71988293D01*
X137900000Y-72975000D02*
X131164124Y-72975000D01*
X112695094Y-71988292D02*
X112402296Y-71695494D01*
X121211635Y-71988293D02*
X112695094Y-71988292D01*
X107520494Y-71695494D02*
X107303855Y-71478855D01*
X112402296Y-71695494D02*
X107520494Y-71695494D01*
X107303855Y-71478855D02*
X103292458Y-71478854D01*
X86233278Y-71478854D02*
X84742132Y-72970000D01*
X103292458Y-71478854D02*
X86233278Y-71478854D01*
X79069886Y-75510000D02*
X79034886Y-75475000D01*
X107177597Y-71783663D02*
X86359535Y-71783663D01*
X112276040Y-72000304D02*
X107394238Y-72000304D01*
X121085377Y-72293101D02*
X112568839Y-72293101D01*
X107394238Y-72000304D02*
X107177597Y-71783663D01*
X121732962Y-72940684D02*
X121085377Y-72293101D01*
X130698742Y-72940684D02*
X121732962Y-72940684D01*
X112568839Y-72293101D02*
X112276040Y-72000304D01*
X131037868Y-73279810D02*
X130698742Y-72940684D01*
X134976210Y-73279810D02*
X131037868Y-73279810D01*
X86359535Y-71783663D02*
X82633198Y-75510000D01*
X82633198Y-75510000D02*
X79069886Y-75510000D01*
X135300000Y-73603600D02*
X134976210Y-73279810D01*
X117795447Y-80404553D02*
X111771183Y-80404553D01*
X111771183Y-80404553D02*
X110856753Y-81318983D01*
X117795450Y-80404550D02*
X117795447Y-80404553D01*
X132102419Y-80404551D02*
X117795450Y-80404550D01*
X132750000Y-79756970D02*
X132102419Y-80404551D01*
X80888017Y-81318983D02*
X110856753Y-81318983D01*
X80888017Y-81325983D02*
X78894000Y-83320000D01*
X80888017Y-81318983D02*
X80888017Y-81325983D01*
X132839601Y-99740399D02*
X133500000Y-99080000D01*
X121500000Y-99252400D02*
X121987999Y-99740399D01*
X121987999Y-99740399D02*
X132839601Y-99740399D01*
X121500000Y-98300000D02*
X121500000Y-99252400D01*
D29*
X196220000Y-138443000D02*
X196221000Y-138442000D01*
X185386000Y-138443000D02*
X196220000Y-138443000D01*
X216850000Y-83804800D02*
X214639800Y-83804800D01*
X212099800Y-81264800D02*
X209230000Y-81264800D01*
X214639800Y-83804800D02*
X212099800Y-81264800D01*
D28*
X221459000Y-83185800D02*
X218300000Y-86344800D01*
X218300000Y-86344800D02*
X216850000Y-86344800D01*
X221459000Y-79525000D02*
X221459000Y-83185800D01*
D27*
X158447600Y-127063600D02*
X159800000Y-127063600D01*
X157411200Y-128100000D02*
X158447600Y-127063600D01*
X138763600Y-127063600D02*
X138800000Y-127100000D01*
X135600000Y-127063600D02*
X138763600Y-127063600D01*
X139800000Y-128100000D02*
X138800000Y-127100000D01*
X157411200Y-128100000D02*
X139800000Y-128100000D01*
X134247600Y-127063600D02*
X133061200Y-128250000D01*
X135600000Y-127063600D02*
X134247600Y-127063600D01*
X133061200Y-128250000D02*
X124550000Y-128250000D01*
X123383600Y-127083600D02*
X111400000Y-127083600D01*
X124550000Y-128250000D02*
X123383600Y-127083600D01*
X87200000Y-127083600D02*
X92983600Y-127083600D01*
X92983600Y-127083600D02*
X94100000Y-128200000D01*
X94100000Y-128200000D02*
X108750000Y-128200000D01*
X109866400Y-127083600D02*
X111400000Y-127083600D01*
X108750000Y-128200000D02*
X109866400Y-127083600D01*
X138850000Y-73937730D02*
X163250000Y-73937730D01*
X86658600Y-127625000D02*
X87200000Y-127083600D01*
X77675000Y-127625000D02*
X86658600Y-127625000D01*
X166197814Y-69321299D02*
X171354299Y-69321299D01*
X163254000Y-66377485D02*
X166197814Y-69321299D01*
X163254000Y-65811800D02*
X163254000Y-66377485D01*
X202371780Y-69996190D02*
X202378590Y-70003000D01*
X172029190Y-69996190D02*
X202371780Y-69996190D01*
X171354299Y-69321299D02*
X172029190Y-69996190D01*
X154445334Y-124523600D02*
X153416724Y-125552210D01*
X159800000Y-124523600D02*
X154445334Y-124523600D01*
X141673600Y-124523600D02*
X141700000Y-124550000D01*
X135600000Y-124523600D02*
X141673600Y-124523600D01*
X142702210Y-125552210D02*
X153416724Y-125552210D01*
X141700000Y-124550000D02*
X142702210Y-125552210D01*
X135600000Y-124523600D02*
X131926400Y-124523600D01*
X131926400Y-124523600D02*
X130650000Y-125800000D01*
X130650000Y-125800000D02*
X124400000Y-125800000D01*
X123143600Y-124543600D02*
X111400000Y-124543600D01*
X124400000Y-125800000D02*
X123143600Y-124543600D01*
X87200000Y-124543600D02*
X93143600Y-124543600D01*
X93143600Y-124543600D02*
X94400000Y-125800000D01*
X110047600Y-124543600D02*
X111400000Y-124543600D01*
X108791200Y-125800000D02*
X110047600Y-124543600D01*
X94400000Y-125800000D02*
X108791200Y-125800000D01*
X160663567Y-73272697D02*
X160700000Y-73309130D01*
X139531763Y-73272697D02*
X160663567Y-73272697D01*
X86693600Y-125050000D02*
X87200000Y-124543600D01*
X77675000Y-125050000D02*
X86693600Y-125050000D01*
X160678000Y-65183200D02*
X163547200Y-65183200D01*
X163547200Y-65183200D02*
X167380489Y-69016489D01*
X171480556Y-69016490D02*
X172155446Y-69691380D01*
X167380489Y-69016489D02*
X171480556Y-69016490D01*
X201329789Y-69691380D02*
X201749990Y-69271179D01*
X172155446Y-69691380D02*
X201329789Y-69691380D01*
X158447600Y-121983600D02*
X157418990Y-123012210D01*
X159800000Y-121983600D02*
X158447600Y-121983600D01*
X143166400Y-121983600D02*
X143200000Y-121950000D01*
X135600000Y-121983600D02*
X143166400Y-121983600D01*
X144262210Y-123012210D02*
X143200000Y-121950000D01*
X157418990Y-123012210D02*
X144262210Y-123012210D01*
X141850000Y-72644097D02*
X158150000Y-72644097D01*
X141400000Y-72644097D02*
X141850000Y-72644097D01*
X158154000Y-64554600D02*
X163712600Y-64554600D01*
X163712600Y-64554600D02*
X165939299Y-66781299D01*
X165939299Y-66781299D02*
X171357299Y-66781299D01*
X172032190Y-67456190D02*
X199448810Y-67456190D01*
X171357299Y-66781299D02*
X172032190Y-67456190D01*
X199453000Y-67452000D02*
X201124400Y-67452000D01*
X199448810Y-67456190D02*
X199453000Y-67452000D01*
X87200000Y-122003600D02*
X86703600Y-122500000D01*
X104691590Y-122308410D02*
X103800000Y-123200000D01*
X103800000Y-123200000D02*
X94700000Y-123200000D01*
X135600000Y-121983600D02*
X132116400Y-121983600D01*
X109072656Y-122308410D02*
X104691590Y-122308410D01*
X94700000Y-123200000D02*
X93503600Y-122003600D01*
X109377466Y-122003600D02*
X109072656Y-122308410D01*
X123053600Y-122003600D02*
X109377466Y-122003600D01*
X124400000Y-123350000D02*
X123053600Y-122003600D01*
X130750000Y-123350000D02*
X124400000Y-123350000D01*
X86703600Y-122500000D02*
X77625000Y-122500000D01*
X93503600Y-122003600D02*
X87200000Y-122003600D01*
X132116400Y-121983600D02*
X130750000Y-123350000D01*
X173687600Y-124523600D02*
X172658990Y-123494990D01*
X172658990Y-123494990D02*
X154255010Y-123494990D01*
X175040000Y-124523600D02*
X173687600Y-124523600D01*
X153226400Y-124523600D02*
X150840000Y-124523600D01*
X154255010Y-123494990D02*
X153226400Y-124523600D01*
X145473600Y-124523600D02*
X145450000Y-124500000D01*
X150840000Y-124523600D02*
X145473600Y-124523600D01*
X144884315Y-124500000D02*
X143879305Y-123494990D01*
X145450000Y-124500000D02*
X144884315Y-124500000D01*
X143879305Y-123494990D02*
X131605010Y-123494990D01*
X130556400Y-124543600D02*
X126640000Y-124543600D01*
X131605010Y-123494990D02*
X130556400Y-124543600D01*
X125162534Y-124543600D02*
X123968934Y-123350000D01*
X126640000Y-124543600D02*
X125162534Y-124543600D01*
X123968934Y-123350000D02*
X110100000Y-123350000D01*
X108906400Y-124543600D02*
X102440000Y-124543600D01*
X110100000Y-123350000D02*
X108906400Y-124543600D01*
X142950000Y-72015497D02*
X155650000Y-72015497D01*
X197703332Y-66897200D02*
X197703332Y-65944800D01*
X197449152Y-67151380D02*
X197703332Y-66897200D01*
X172158446Y-67151380D02*
X197449152Y-67151380D01*
X155662000Y-63926000D02*
X163515066Y-63926000D01*
X171483556Y-66476490D02*
X172158446Y-67151380D01*
X166065555Y-66476489D02*
X171483556Y-66476490D01*
X163515066Y-63926000D02*
X166065555Y-66476489D01*
X152336400Y-127063600D02*
X150840000Y-127063600D01*
X153495190Y-125904810D02*
X152336400Y-127063600D01*
X172528810Y-125904810D02*
X153495190Y-125904810D01*
X173687600Y-127063600D02*
X172528810Y-125904810D01*
X175040000Y-127063600D02*
X173687600Y-127063600D01*
X146736400Y-127063600D02*
X146650000Y-127150000D01*
X150840000Y-127063600D02*
X146736400Y-127063600D01*
X145534990Y-126034990D02*
X131715010Y-126034990D01*
X146650000Y-127150000D02*
X145534990Y-126034990D01*
X130666400Y-127083600D02*
X126640000Y-127083600D01*
X131715010Y-126034990D02*
X130666400Y-127083600D01*
X125252534Y-127083600D02*
X124068934Y-125900000D01*
X126640000Y-127083600D02*
X125252534Y-127083600D01*
X124068934Y-125900000D02*
X110050000Y-125900000D01*
X108866400Y-127083600D02*
X102440000Y-127083600D01*
X110050000Y-125900000D02*
X108866400Y-127083600D01*
X143950000Y-71386897D02*
X153050000Y-71386897D01*
X153070000Y-60196800D02*
X153070000Y-61670000D01*
X153196180Y-60070620D02*
X153070000Y-60196800D01*
X169431620Y-60070620D02*
X153196180Y-60070620D01*
X169910000Y-60549000D02*
X169431620Y-60070620D01*
X169934478Y-60549000D02*
X169910000Y-60549000D01*
X171590000Y-62204522D02*
X169934478Y-60549000D01*
X199958000Y-65391000D02*
X199483190Y-64916190D01*
X199483190Y-64916190D02*
X172486190Y-64916190D01*
X172486190Y-64916190D02*
X171590000Y-64020000D01*
X171590000Y-64020000D02*
X171590000Y-62204522D01*
X153433600Y-134683600D02*
X153450000Y-134700000D01*
X172626190Y-133654990D02*
X154462210Y-133654990D01*
X154462210Y-133654990D02*
X153433600Y-134683600D01*
X173671200Y-134700000D02*
X172626190Y-133654990D01*
X173687600Y-134683600D02*
X173671200Y-134700000D01*
X175040000Y-134683600D02*
X173687600Y-134683600D01*
X153433600Y-134683600D02*
X150840000Y-134683600D01*
X145250000Y-70758297D02*
X150550000Y-70758297D01*
X139383600Y-134683600D02*
X150840000Y-134683600D01*
X131146400Y-134703600D02*
X132195010Y-133654990D01*
X117622554Y-134703600D02*
X131146400Y-134703600D01*
X109625010Y-133666990D02*
X109824000Y-133468000D01*
X138354990Y-133654990D02*
X139383600Y-134683600D01*
X109824000Y-133468000D02*
X116386954Y-133468000D01*
X109625010Y-133674990D02*
X109625010Y-133666990D01*
X116386954Y-133468000D02*
X117622554Y-134703600D01*
X108596400Y-134703600D02*
X109625010Y-133674990D01*
X132195010Y-133654990D02*
X138354990Y-133654990D01*
X102440000Y-134703600D02*
X108596400Y-134703600D01*
X150530000Y-60196800D02*
X150530000Y-61670000D01*
X150960990Y-59765810D02*
X150530000Y-60196800D01*
X171894809Y-62078265D02*
X169582354Y-59765810D01*
X169582354Y-59765810D02*
X150960990Y-59765810D01*
X199930115Y-64310000D02*
X199619090Y-64621024D01*
X172612446Y-64611380D02*
X171894810Y-63893744D01*
X199609446Y-64611380D02*
X172612446Y-64611380D01*
X171894810Y-63893744D02*
X171894809Y-62078265D01*
X199619090Y-64621024D02*
X199609446Y-64611380D01*
X200495800Y-64310000D02*
X199930115Y-64310000D01*
X173687600Y-129603600D02*
X172300000Y-128216000D01*
X175040000Y-129603600D02*
X173687600Y-129603600D01*
X152192400Y-129603600D02*
X150840000Y-129603600D01*
X159332926Y-128216000D02*
X157945326Y-129603600D01*
X172300000Y-128216000D02*
X159332926Y-128216000D01*
X157941726Y-129600000D02*
X157945326Y-129603600D01*
X152196000Y-129600000D02*
X154900000Y-129600000D01*
X152192400Y-129603600D02*
X152196000Y-129600000D01*
X154900000Y-129600000D02*
X157941726Y-129600000D01*
X139653600Y-129603600D02*
X150840000Y-129603600D01*
X133925010Y-128574990D02*
X138624990Y-128574990D01*
X108776400Y-129623600D02*
X109825010Y-128574990D01*
X125287600Y-129623600D02*
X132876400Y-129623600D01*
X138624990Y-128574990D02*
X139653600Y-129603600D01*
X124238990Y-128574990D02*
X125287600Y-129623600D01*
X132876400Y-129623600D02*
X133925010Y-128574990D01*
X109825010Y-128574990D02*
X124238990Y-128574990D01*
X102440000Y-129623600D02*
X108776400Y-129623600D01*
X147990000Y-60196800D02*
X148725800Y-59461000D01*
X147990000Y-61670000D02*
X147990000Y-60196800D01*
X148725800Y-59461000D02*
X169708611Y-59461001D01*
X169708611Y-59461001D02*
X170068610Y-59821000D01*
X170068610Y-59821000D02*
X182940000Y-59821000D01*
X196214600Y-59821000D02*
X196315600Y-59720000D01*
X182940000Y-59821000D02*
X196214600Y-59821000D01*
X137943600Y-119443600D02*
X135600000Y-119443600D01*
X159756400Y-119400000D02*
X159800000Y-119443600D01*
X156150000Y-119400000D02*
X159756400Y-119400000D01*
X156150000Y-119400000D02*
X155077790Y-120472210D01*
X147699180Y-119443600D02*
X137943600Y-119443600D01*
X148727790Y-120472210D02*
X147699180Y-119443600D01*
X155077790Y-120472210D02*
X148727790Y-120472210D01*
X146950000Y-69500000D02*
X149250000Y-69500000D01*
X149250000Y-69500000D02*
X149550000Y-69800000D01*
X149550000Y-69800000D02*
X151850000Y-69800000D01*
X152100000Y-69550000D02*
X153084315Y-69550000D01*
X153084315Y-69550000D02*
X153650000Y-69550000D01*
X151850000Y-69800000D02*
X152100000Y-69550000D01*
X134247600Y-119443600D02*
X135600000Y-119443600D01*
X131713944Y-120954990D02*
X133225334Y-119443600D01*
X133225334Y-119443600D02*
X134247600Y-119443600D01*
X111400000Y-119443600D02*
X116244600Y-119443600D01*
X124679990Y-120954990D02*
X131713944Y-120954990D01*
X117153000Y-120352000D02*
X124077000Y-120352000D01*
X124077000Y-120352000D02*
X124679990Y-120954990D01*
X116244600Y-119443600D02*
X117153000Y-120352000D01*
X161712000Y-91033610D02*
X174501610Y-91033610D01*
X174501610Y-91033610D02*
X174916000Y-91448000D01*
X174916000Y-91448000D02*
X200645342Y-91448000D01*
X201582151Y-91448000D02*
X201590000Y-91440151D01*
X200645342Y-91448000D02*
X201582151Y-91448000D01*
X202089151Y-91448000D02*
X202097000Y-91440151D01*
X201582151Y-91448000D02*
X202089151Y-91448000D01*
X89145600Y-119443600D02*
X87200000Y-119443600D01*
X111400000Y-119463600D02*
X110047600Y-119463600D01*
X89145600Y-119443600D02*
X90479020Y-120777020D01*
X109245882Y-119443600D02*
X110047600Y-119443600D01*
X110047600Y-119443600D02*
X111400000Y-119443600D01*
X107912462Y-120777020D02*
X109245882Y-119443600D01*
X90479020Y-120777020D02*
X107912462Y-120777020D01*
X159315390Y-88637000D02*
X161712000Y-91033610D01*
X154565000Y-88637000D02*
X159315390Y-88637000D01*
X154716400Y-121983600D02*
X150840000Y-121983600D01*
X175040000Y-121983600D02*
X173687600Y-121983600D01*
X148458990Y-120954990D02*
X132145010Y-120954990D01*
X149487600Y-121983600D02*
X148458990Y-120954990D01*
X150840000Y-121983600D02*
X149487600Y-121983600D01*
X131096400Y-122003600D02*
X126640000Y-122003600D01*
X132145010Y-120954990D02*
X131096400Y-122003600D01*
X154816400Y-121983600D02*
X156100000Y-120700000D01*
X154716400Y-121983600D02*
X154816400Y-121983600D01*
X172404000Y-120700000D02*
X173687600Y-121983600D01*
X157450000Y-120700000D02*
X172404000Y-120700000D01*
X156100000Y-120700000D02*
X157450000Y-120700000D01*
X124872534Y-122003600D02*
X123668934Y-120800000D01*
X126640000Y-122003600D02*
X124872534Y-122003600D01*
X123668934Y-120800000D02*
X110150000Y-120800000D01*
X108946400Y-122003600D02*
X102440000Y-122003600D01*
X110150000Y-120800000D02*
X108946400Y-122003600D01*
X142910000Y-63813000D02*
X142910000Y-63143200D01*
X143651600Y-64554600D02*
X142910000Y-63813000D01*
X142910000Y-63143200D02*
X142910000Y-61670000D01*
X156567833Y-64554600D02*
X143651600Y-64554600D01*
X201375210Y-92373561D02*
X201699000Y-92697351D01*
X174663488Y-92057620D02*
X199410554Y-92057620D01*
X199410554Y-92057620D02*
X199726495Y-92373561D01*
X174249098Y-91643230D02*
X174663488Y-92057620D01*
X199726495Y-92373561D02*
X201375210Y-92373561D01*
X160990440Y-91643230D02*
X174249098Y-91643230D01*
X160385000Y-93644000D02*
X160385000Y-92248670D01*
X159744000Y-94285000D02*
X160385000Y-93644000D01*
X160385000Y-92248670D02*
X160990440Y-91643230D01*
X157352000Y-94285000D02*
X159744000Y-94285000D01*
X158447600Y-116903600D02*
X157241020Y-118110180D01*
X159800000Y-116903600D02*
X158447600Y-116903600D01*
X157241020Y-118110180D02*
X139460180Y-118110180D01*
X138253600Y-116903600D02*
X135600000Y-116903600D01*
X139460180Y-118110180D02*
X138253600Y-116903600D01*
X159946400Y-117050000D02*
X159800000Y-116903600D01*
X131707600Y-119443600D02*
X126640000Y-119443600D01*
X134247600Y-116903600D02*
X131707600Y-119443600D01*
X135600000Y-116903600D02*
X134247600Y-116903600D01*
X125287600Y-119443600D02*
X124276000Y-118432000D01*
X126640000Y-119443600D02*
X125287600Y-119443600D01*
X103792400Y-119443600D02*
X104731190Y-118504810D01*
X102440000Y-119443600D02*
X103792400Y-119443600D01*
X124253191Y-118454809D02*
X124276000Y-118432000D01*
X116023743Y-118454809D02*
X124253191Y-118454809D01*
X115983924Y-118414990D02*
X116023743Y-118454809D01*
X110573936Y-118414990D02*
X115983924Y-118414990D01*
X110484116Y-118504810D02*
X110573936Y-118414990D01*
X104731190Y-118504810D02*
X110484116Y-118504810D01*
X100802790Y-119158790D02*
X101087600Y-119443600D01*
X91171790Y-119158790D02*
X100802790Y-119158790D01*
X85677000Y-118223000D02*
X90236000Y-118223000D01*
X90236000Y-118223000D02*
X91171790Y-119158790D01*
X101087600Y-119443600D02*
X102440000Y-119443600D01*
X83321400Y-120578600D02*
X85677000Y-118223000D01*
X77675000Y-120578600D02*
X83321400Y-120578600D01*
X156182902Y-65099999D02*
X156419903Y-65337000D01*
X140799999Y-65099999D02*
X156182902Y-65099999D01*
X156799315Y-65337000D02*
X157365000Y-65337000D01*
X156419903Y-65337000D02*
X156799315Y-65337000D01*
X140400000Y-64700000D02*
X140799999Y-65099999D01*
X161786685Y-92343000D02*
X162181645Y-91948040D01*
X161221000Y-92343000D02*
X161786685Y-92343000D01*
X174122842Y-91948040D02*
X174537232Y-92362430D01*
X162181645Y-91948040D02*
X174122842Y-91948040D01*
X174537232Y-92362430D02*
X183695488Y-92362430D01*
X183695488Y-92362430D02*
X193650744Y-92362430D01*
X193650744Y-92362430D02*
X197457000Y-92362430D01*
X197457000Y-92362430D02*
X199284298Y-92362430D01*
X200097868Y-93176000D02*
X200810220Y-93176000D01*
X199284298Y-92362430D02*
X200097868Y-93176000D01*
X172658990Y-113334990D02*
X155765010Y-113334990D01*
X173687600Y-114363600D02*
X172658990Y-113334990D01*
X175040000Y-114363600D02*
X173687600Y-114363600D01*
X154736400Y-114363600D02*
X150840000Y-114363600D01*
X155765010Y-113334990D02*
X154736400Y-114363600D01*
X154400000Y-65750000D02*
X137800000Y-65750000D01*
X149487600Y-114363600D02*
X148309000Y-113185000D01*
X150840000Y-114363600D02*
X149487600Y-114363600D01*
X140553934Y-113185000D02*
X148309000Y-113185000D01*
X114839504Y-113030181D02*
X140399115Y-113030181D01*
X114684685Y-113185000D02*
X114839504Y-113030181D01*
X140399115Y-113030181D02*
X140553934Y-113185000D01*
X114119000Y-113185000D02*
X114684685Y-113185000D01*
X197400532Y-84980000D02*
X197703332Y-84677200D01*
X197703332Y-84677200D02*
X197703332Y-83724800D01*
X172201000Y-84980000D02*
X197400532Y-84980000D01*
X90753600Y-116903600D02*
X87200000Y-116903600D01*
X92264990Y-118414990D02*
X90753600Y-116903600D01*
X104604933Y-118200001D02*
X104389944Y-118414990D01*
X108771200Y-118200000D02*
X104604933Y-118200001D01*
X110047600Y-116923600D02*
X108771200Y-118200000D01*
X104389944Y-118414990D02*
X92264990Y-118414990D01*
X111400000Y-116923600D02*
X110047600Y-116923600D01*
X88436527Y-72088473D02*
X84075000Y-76450000D01*
X107267981Y-72305113D02*
X107051341Y-72088473D01*
X112442583Y-72597911D02*
X112149786Y-72305114D01*
X114540511Y-72597911D02*
X112442583Y-72597911D01*
X135947045Y-74250000D02*
X116192600Y-74250000D01*
X84075000Y-76450000D02*
X81400000Y-76450000D01*
X107051341Y-72088473D02*
X88436527Y-72088473D01*
X136825000Y-73937730D02*
X136259315Y-73937730D01*
X136259315Y-73937730D02*
X135947045Y-74250000D01*
X112149786Y-72305114D02*
X107267981Y-72305113D01*
X116192600Y-74250000D02*
X114540511Y-72597911D01*
X159800000Y-114363600D02*
X158447600Y-114363600D01*
X149850000Y-115550000D02*
X154284315Y-115550000D01*
X154284315Y-115550000D02*
X154850000Y-115550000D01*
X148663600Y-114363600D02*
X149850000Y-115550000D01*
X135600000Y-114363600D02*
X148663600Y-114363600D01*
X156602085Y-114363600D02*
X158447600Y-114363600D01*
X155415685Y-115550000D02*
X156602085Y-114363600D01*
X154850000Y-115550000D02*
X155415685Y-115550000D01*
X135300000Y-67600000D02*
X152350000Y-67600000D01*
X74410000Y-107075000D02*
X73325000Y-105990000D01*
X79663486Y-107075000D02*
X74410000Y-107075000D01*
X111400000Y-113411200D02*
X111400000Y-114363600D01*
X111117800Y-113129000D02*
X111400000Y-113411200D01*
X89787000Y-113129000D02*
X111117800Y-113129000D01*
X135600000Y-113411200D02*
X135600000Y-114363600D01*
X135523790Y-113334990D02*
X135600000Y-113411200D01*
X115355010Y-113334990D02*
X135523790Y-113334990D01*
X114326400Y-114363600D02*
X115355010Y-113334990D01*
X111400000Y-114363600D02*
X114326400Y-114363600D01*
X88552400Y-114363600D02*
X87200000Y-114363600D01*
X89787000Y-113129000D02*
X88552400Y-114363600D01*
X82141822Y-70300000D02*
X81785340Y-70300000D01*
X121337892Y-71683484D02*
X112821351Y-71683483D01*
X107666420Y-71390684D02*
X107449782Y-71174046D01*
X90628081Y-70283411D02*
X82158411Y-70283411D01*
X112528552Y-71390684D02*
X107666420Y-71390684D01*
X112821351Y-71683483D02*
X112528552Y-71390684D01*
X132472769Y-70758297D02*
X130900000Y-72331066D01*
X91518715Y-71174045D02*
X90628081Y-70283411D01*
X82158411Y-70283411D02*
X82141822Y-70300000D01*
X107449782Y-71174046D02*
X91518715Y-71174045D01*
X121985474Y-72331066D02*
X121337892Y-71683484D01*
X130900000Y-72331066D02*
X121985474Y-72331066D01*
X135300000Y-70758297D02*
X132472769Y-70758297D01*
X199852751Y-92068751D02*
X203117249Y-92068751D01*
X174375354Y-91338420D02*
X174789744Y-91752810D01*
X203117249Y-92068751D02*
X205943000Y-89243000D01*
X157461580Y-91338420D02*
X174375354Y-91338420D01*
X174789744Y-91752810D02*
X199536810Y-91752810D01*
X199536810Y-91752810D02*
X199852751Y-92068751D01*
X156315000Y-92485000D02*
X157461580Y-91338420D01*
X154343000Y-92485000D02*
X156315000Y-92485000D01*
X154338000Y-92490000D02*
X154343000Y-92485000D01*
X153404000Y-92490000D02*
X154338000Y-92490000D01*
X156936210Y-136194990D02*
X139394990Y-136194990D01*
X158447600Y-134683600D02*
X156936210Y-136194990D01*
X137883600Y-134683600D02*
X135600000Y-134683600D01*
X139394990Y-136194990D02*
X137883600Y-134683600D01*
X159800000Y-134683600D02*
X158447600Y-134683600D01*
X134247600Y-134683600D02*
X132931200Y-136000000D01*
X135600000Y-134683600D02*
X134247600Y-134683600D01*
X132931200Y-136000000D02*
X117200000Y-136000000D01*
X115903600Y-134703600D02*
X111400000Y-134703600D01*
X117200000Y-136000000D02*
X115903600Y-134703600D01*
X110047600Y-134703600D02*
X108751200Y-136000000D01*
X111400000Y-134703600D02*
X110047600Y-134703600D01*
X108751200Y-136000000D02*
X93700000Y-136000000D01*
X92403600Y-134703600D02*
X87200000Y-134703600D01*
X93700000Y-136000000D02*
X92403600Y-134703600D01*
X159816400Y-134700000D02*
X159800000Y-134683600D01*
X164200000Y-134700000D02*
X159816400Y-134700000D01*
X85746400Y-134703600D02*
X87200000Y-134703600D01*
X85225000Y-135225000D02*
X85746400Y-134703600D01*
X77650000Y-135225000D02*
X85225000Y-135225000D01*
X201478820Y-100713380D02*
X202459000Y-100713380D01*
X201163600Y-101028600D02*
X201478820Y-100713380D01*
X164200000Y-101028600D02*
X201163600Y-101028600D01*
X163230000Y-83056800D02*
X164053391Y-82233409D01*
X163230000Y-84530000D02*
X163230000Y-83056800D01*
X164053391Y-82233409D02*
X183113591Y-82233409D01*
X183113591Y-82233409D02*
X184040000Y-81307000D01*
X184724266Y-78644800D02*
X186076666Y-78644800D01*
X184040000Y-79329066D02*
X184724266Y-78644800D01*
X184040000Y-81307000D02*
X184040000Y-79329066D01*
X158447600Y-137223600D02*
X157241020Y-138430180D01*
X159800000Y-137223600D02*
X158447600Y-137223600D01*
X157241020Y-138430180D02*
X138480180Y-138430180D01*
X137273600Y-137223600D02*
X135600000Y-137223600D01*
X138480180Y-138430180D02*
X137273600Y-137223600D01*
X135600000Y-137223600D02*
X132106580Y-137223600D01*
X132106580Y-137223600D02*
X130900000Y-138430180D01*
X130900000Y-138430180D02*
X114700000Y-138430180D01*
X113513420Y-137243600D02*
X111400000Y-137243600D01*
X114700000Y-138430180D02*
X113513420Y-137243600D01*
X110047600Y-137243600D02*
X108791200Y-138500000D01*
X111400000Y-137243600D02*
X110047600Y-137243600D01*
X92493600Y-137243600D02*
X87200000Y-137243600D01*
X93750000Y-138500000D02*
X92493600Y-137243600D01*
X108791200Y-138500000D02*
X93750000Y-138500000D01*
X159826400Y-137250000D02*
X159800000Y-137223600D01*
X163383410Y-137250000D02*
X159826400Y-137250000D01*
X190756800Y-97770000D02*
X189386800Y-96400000D01*
X192230000Y-97770000D02*
X190756800Y-97770000D01*
X85200000Y-137700000D02*
X85656400Y-137243600D01*
X85656400Y-137243600D02*
X87200000Y-137243600D01*
X77675000Y-137700000D02*
X85200000Y-137700000D01*
X192232000Y-97768000D02*
X192230000Y-97770000D01*
X203711000Y-97768000D02*
X192232000Y-97768000D01*
X184691000Y-96400000D02*
X163450000Y-96400000D01*
X189386800Y-96400000D02*
X184691000Y-96400000D01*
X158447600Y-139763600D02*
X157241020Y-140970180D01*
X159800000Y-139763600D02*
X158447600Y-139763600D01*
X157241020Y-140970180D02*
X138400000Y-140970180D01*
X137193420Y-139763600D02*
X135600000Y-139763600D01*
X138400000Y-140970180D02*
X137193420Y-139763600D01*
X89581010Y-140812210D02*
X108437790Y-140812210D01*
X88552400Y-139783600D02*
X89581010Y-140812210D01*
X87200000Y-139783600D02*
X88552400Y-139783600D01*
X109466400Y-139783600D02*
X111400000Y-139783600D01*
X108437790Y-140812210D02*
X109466400Y-139783600D01*
X87062800Y-139646400D02*
X87200000Y-139783600D01*
X77675000Y-139646400D02*
X87062800Y-139646400D01*
X111977980Y-140361580D02*
X111400000Y-139783600D01*
X111889296Y-140252896D02*
X111400000Y-139763600D01*
X121728601Y-140252896D02*
X111889296Y-140252896D01*
X165504810Y-93950000D02*
X162700000Y-93950000D01*
X166784810Y-95230000D02*
X165504810Y-93950000D01*
X183697000Y-95230000D02*
X166784810Y-95230000D01*
X204329000Y-95230000D02*
X183697000Y-95230000D01*
X150783600Y-144900000D02*
X150840000Y-144843600D01*
X139000000Y-144900000D02*
X150783600Y-144900000D01*
X75870000Y-136475000D02*
X75865000Y-136470000D01*
X83967800Y-136475000D02*
X75870000Y-136475000D01*
X130170180Y-146070180D02*
X130550000Y-146450000D01*
X129978000Y-145878000D02*
X130170180Y-146070180D01*
X125819726Y-145878000D02*
X129978000Y-145878000D01*
X118719671Y-145771399D02*
X125713125Y-145771399D01*
X118598860Y-145892210D02*
X118719671Y-145771399D01*
X125713125Y-145771399D02*
X125819726Y-145878000D01*
X105442210Y-145892210D02*
X118598860Y-145892210D01*
X104413600Y-144863600D02*
X105442210Y-145892210D01*
X102440000Y-144863600D02*
X104413600Y-144863600D01*
X102426400Y-144850000D02*
X102440000Y-144863600D01*
X92911780Y-144850000D02*
X102426400Y-144850000D01*
X178203620Y-110898488D02*
X178210488Y-110898488D01*
X172482153Y-109247838D02*
X176552969Y-109247837D01*
X168800000Y-105565685D02*
X172482153Y-109247838D01*
X176552969Y-109247837D02*
X178203620Y-110898488D01*
X168800000Y-105000000D02*
X168800000Y-105565685D01*
X179077512Y-121121380D02*
X178203620Y-120247488D01*
X182382620Y-121121380D02*
X179077512Y-121121380D01*
X183735000Y-118851000D02*
X183131000Y-119455000D01*
X183131000Y-120373000D02*
X182382620Y-121121380D01*
X184742000Y-118851000D02*
X183735000Y-118851000D01*
X183131000Y-119455000D02*
X183131000Y-120373000D01*
X185320190Y-118272810D02*
X184742000Y-118851000D01*
X178203620Y-120247488D02*
X178203620Y-110898488D01*
X185320190Y-116107190D02*
X185320190Y-118272810D01*
X184332000Y-115119000D02*
X185320190Y-116107190D01*
X166034315Y-75550000D02*
X166600000Y-75550000D01*
X164698224Y-76090380D02*
X165238604Y-75550000D01*
X103364393Y-74869721D02*
X112464392Y-74869721D01*
X165238604Y-75550000D02*
X166034315Y-75550000D01*
X95033580Y-75509618D02*
X95928768Y-74614430D01*
X103109103Y-74614430D02*
X103364393Y-74869721D01*
X113685051Y-76090380D02*
X164698224Y-76090380D01*
X91645497Y-75509619D02*
X95033580Y-75509618D01*
X95928768Y-74614430D02*
X103109103Y-74614430D01*
X91335876Y-75200000D02*
X91645497Y-75509619D01*
X112464392Y-74869721D02*
X113685051Y-76090380D01*
X88600000Y-75200000D02*
X91335876Y-75200000D01*
X75870000Y-133925000D02*
X75865000Y-133930000D01*
X84596400Y-133925000D02*
X75870000Y-133925000D01*
X102440000Y-142323600D02*
X102416400Y-142300000D01*
X108576400Y-142323600D02*
X102440000Y-142323600D01*
X109929820Y-140970180D02*
X108576400Y-142323600D01*
X102416400Y-142300000D02*
X95461780Y-142300000D01*
X150840000Y-142303600D02*
X149487600Y-142303600D01*
X131727342Y-143495190D02*
X129202332Y-140970180D01*
X129202332Y-140970180D02*
X109929820Y-140970180D01*
X148296010Y-143495190D02*
X131727342Y-143495190D01*
X149487600Y-142303600D02*
X148296010Y-143495190D01*
X185625000Y-114688131D02*
X185625000Y-120284000D01*
X188100000Y-113957000D02*
X188109664Y-113966664D01*
X186489520Y-113823611D02*
X187972507Y-113823611D01*
X185625000Y-120284000D02*
X185627389Y-120286389D01*
X167804344Y-104428600D02*
X167804344Y-105001095D01*
X188100000Y-113951104D02*
X188100000Y-113957000D01*
X167804344Y-105001095D02*
X172355896Y-109552647D01*
X186489520Y-113823611D02*
X185625000Y-114688131D01*
X187972507Y-113823611D02*
X188100000Y-113951104D01*
X188109664Y-113966664D02*
X188109664Y-118961336D01*
X188109664Y-118961336D02*
X186872000Y-120199000D01*
X176426712Y-109552646D02*
X177898810Y-111024744D01*
X172355896Y-109552647D02*
X176426712Y-109552646D01*
X177898810Y-111024744D02*
X177898810Y-120373744D01*
X177898810Y-120373744D02*
X178951256Y-121426190D01*
X184482810Y-121426190D02*
X185625000Y-120284000D01*
X178951256Y-121426190D02*
X184482810Y-121426190D01*
X164969670Y-76250000D02*
X165384315Y-76250000D01*
X112338136Y-75174531D02*
X113558795Y-76395190D01*
X103238137Y-75174531D02*
X112338136Y-75174531D01*
X165384315Y-76250000D02*
X165950000Y-76250000D01*
X164824480Y-76395190D02*
X164969670Y-76250000D01*
X102982848Y-74919240D02*
X103238137Y-75174531D01*
X113558795Y-76395190D02*
X164824480Y-76395190D01*
X96055024Y-74919240D02*
X102982848Y-74919240D01*
X95126118Y-75848146D02*
X96055024Y-74919240D01*
X90621400Y-75848146D02*
X95126118Y-75848146D01*
X148458990Y-138734990D02*
X109165010Y-138734990D01*
X149487600Y-139763600D02*
X148458990Y-138734990D01*
X150840000Y-139763600D02*
X149487600Y-139763600D01*
X108116400Y-139783600D02*
X102440000Y-139783600D01*
X109165010Y-138734990D02*
X108116400Y-139783600D01*
X102406400Y-139750000D02*
X102440000Y-139783600D01*
X95461780Y-139750000D02*
X102406400Y-139750000D01*
X75900000Y-131425000D02*
X75865000Y-131390000D01*
X85225000Y-131425000D02*
X75900000Y-131425000D01*
X166800001Y-104427818D02*
X166800001Y-103800000D01*
X176300456Y-109857456D02*
X172229639Y-109857456D01*
X177594000Y-111151000D02*
X176300456Y-109857456D01*
X172229639Y-109857456D02*
X166800001Y-104427818D01*
X178825000Y-121731000D02*
X177594000Y-120500000D01*
X184660000Y-121731000D02*
X178825000Y-121731000D01*
X177594000Y-120500000D02*
X177594000Y-111151000D01*
X185932199Y-120458801D02*
X184660000Y-121731000D01*
X185932199Y-116058801D02*
X185932199Y-120458801D01*
X186872000Y-115119000D02*
X185932199Y-116058801D01*
X164341515Y-76700000D02*
X164612915Y-76971400D01*
X115750000Y-76700000D02*
X164341515Y-76700000D01*
X113432538Y-76699999D02*
X115750000Y-76700000D01*
X103096562Y-75479341D02*
X112211880Y-75479341D01*
X164612915Y-76971400D02*
X165178600Y-76971400D01*
X102856592Y-75224050D02*
X103096562Y-75464020D01*
X103096562Y-75464020D02*
X103096562Y-75479341D01*
X95252375Y-76152955D02*
X96181280Y-75224050D01*
X96181280Y-75224050D02*
X102856592Y-75224050D01*
X91747044Y-76152956D02*
X95252375Y-76152955D01*
X112211880Y-75479341D02*
X113432538Y-76699999D01*
X91200000Y-76700000D02*
X91747044Y-76152956D01*
X111400000Y-142323600D02*
X117059380Y-142323600D01*
X94650000Y-63143200D02*
X94650000Y-61670000D01*
X98540470Y-67033670D02*
X94650000Y-63143200D01*
X117059380Y-142323600D02*
X117764200Y-141618780D01*
X114783671Y-67033670D02*
X118100000Y-70349999D01*
X98540470Y-67033670D02*
X114783671Y-67033670D01*
X82175000Y-128850000D02*
X75865000Y-128850000D01*
X158447600Y-142303600D02*
X159800000Y-142303600D01*
X157417790Y-143332210D02*
X157418990Y-143332210D01*
X156950000Y-143800000D02*
X157417790Y-143332210D01*
X129076076Y-141274990D02*
X131601086Y-143800000D01*
X131601086Y-143800000D02*
X156950000Y-143800000D01*
X118673675Y-141274990D02*
X129076076Y-141274990D01*
X118329885Y-141618780D02*
X118673675Y-141274990D01*
X157418990Y-143332210D02*
X158447600Y-142303600D01*
X117764200Y-141618780D02*
X118329885Y-141618780D01*
X117379200Y-144863600D02*
X118392800Y-143850000D01*
X111400000Y-144863600D02*
X117379200Y-144863600D01*
X97190000Y-63143200D02*
X97190000Y-61670000D01*
X100775660Y-66728860D02*
X97190000Y-63143200D01*
X118792799Y-143450001D02*
X118392800Y-143850000D01*
X158447600Y-144843600D02*
X156941200Y-146350000D01*
X128871087Y-143450001D02*
X118792799Y-143450001D01*
X131771086Y-146350000D02*
X128871087Y-143450001D01*
X156941200Y-146350000D02*
X131771086Y-146350000D01*
X159800000Y-144843600D02*
X158447600Y-144843600D01*
X115886003Y-66728860D02*
X118914285Y-69757142D01*
X100775660Y-66728860D02*
X115886003Y-66728860D01*
X75875000Y-126300000D02*
X75865000Y-126310000D01*
X81600000Y-126300000D02*
X75875000Y-126300000D01*
X118996390Y-146374990D02*
X119021400Y-146400000D01*
X117825010Y-146374990D02*
X118996390Y-146374990D01*
X158447600Y-147383600D02*
X159800000Y-147383600D01*
X116796400Y-147403600D02*
X111400000Y-147403600D01*
X117825010Y-146374990D02*
X116796400Y-147403600D01*
X99730000Y-63143200D02*
X99730000Y-61670000D01*
X103010850Y-66424050D02*
X99730000Y-63143200D01*
X119021400Y-146400000D02*
X119046410Y-146374990D01*
X116988335Y-66424050D02*
X119728570Y-69164285D01*
X103010850Y-66424050D02*
X116988335Y-66424050D01*
X75870000Y-123775000D02*
X75865000Y-123770000D01*
X81075000Y-123775000D02*
X75870000Y-123775000D01*
X119804275Y-146182810D02*
X119587085Y-146400000D01*
X159800000Y-147383600D02*
X155234674Y-147383600D01*
X127532810Y-146182810D02*
X119804275Y-146182810D01*
X153768274Y-148850000D02*
X130200000Y-148850000D01*
X119587085Y-146400000D02*
X119021400Y-146400000D01*
X130200000Y-148850000D02*
X127532810Y-146182810D01*
X155234674Y-147383600D02*
X153768274Y-148850000D01*
X119656400Y-149943600D02*
X119650000Y-149950000D01*
X126640000Y-149943600D02*
X119656400Y-149943600D01*
X102270000Y-63143200D02*
X102270000Y-61670000D01*
X105246040Y-66119240D02*
X102270000Y-63143200D01*
X126640000Y-150896000D02*
X126640000Y-149943600D01*
X171000000Y-152600000D02*
X169100000Y-154500000D01*
X171011200Y-152600000D02*
X171000000Y-152600000D01*
X173687600Y-149923600D02*
X171011200Y-152600000D01*
X175040000Y-149923600D02*
X173687600Y-149923600D01*
X118090667Y-66119240D02*
X120542855Y-68571428D01*
X105246040Y-66119240D02*
X118090667Y-66119240D01*
X133218933Y-154499999D02*
X132542984Y-153824050D01*
X169100000Y-154500000D02*
X133218933Y-154499999D01*
X128773790Y-153824050D02*
X128450000Y-154147840D01*
X132542984Y-153824050D02*
X128773790Y-153824050D01*
X120396400Y-147403600D02*
X120350000Y-147450000D01*
X126640000Y-147403600D02*
X120396400Y-147403600D01*
X107481230Y-65814430D02*
X104810000Y-63143200D01*
X104810000Y-63143200D02*
X104810000Y-61670000D01*
X173687600Y-147383600D02*
X175040000Y-147383600D01*
X126640000Y-147403600D02*
X126640000Y-148088926D01*
X119192999Y-65814430D02*
X121357140Y-67978571D01*
X107481230Y-65814430D02*
X119192999Y-65814430D01*
X133345190Y-154195190D02*
X132669240Y-153519240D01*
X166504810Y-154195190D02*
X133345190Y-154195190D01*
X173316400Y-147383600D02*
X166504810Y-154195190D01*
X173687600Y-147383600D02*
X173316400Y-147383600D01*
X125073790Y-153519240D02*
X124750000Y-153843030D01*
X132669240Y-153519240D02*
X125073790Y-153519240D01*
X120913600Y-144863600D02*
X120900000Y-144850000D01*
X126640000Y-144863600D02*
X120913600Y-144863600D01*
X109716420Y-65509620D02*
X107350000Y-63143200D01*
X107350000Y-63143200D02*
X107350000Y-61670000D01*
X129853620Y-144863600D02*
X126640000Y-144863600D01*
X133535210Y-148545190D02*
X129853620Y-144863600D01*
X155108418Y-147078790D02*
X153642018Y-148545190D01*
X158973936Y-146354990D02*
X158250136Y-147078790D01*
X158250136Y-147078790D02*
X155108418Y-147078790D01*
X173687600Y-144843600D02*
X172176210Y-146354990D01*
X172176210Y-146354990D02*
X158973936Y-146354990D01*
X153642018Y-148545190D02*
X133535210Y-148545190D01*
X175040000Y-144843600D02*
X173687600Y-144843600D01*
X120295331Y-65509620D02*
X122171425Y-67385714D01*
X109716420Y-65509620D02*
X120295331Y-65509620D01*
X109890000Y-63143200D02*
X109890000Y-61670000D01*
X111951610Y-65204810D02*
X109890000Y-63143200D01*
X127976400Y-142323600D02*
X126640000Y-142323600D01*
X129693620Y-142323600D02*
X127976400Y-142323600D01*
X133415210Y-146045190D02*
X129693620Y-142323600D01*
X156743736Y-146045190D02*
X133415210Y-146045190D01*
X172176210Y-143814990D02*
X158973936Y-143814990D01*
X173687600Y-142303600D02*
X172176210Y-143814990D01*
X158973936Y-143814990D02*
X156743736Y-146045190D01*
X175040000Y-142303600D02*
X173687600Y-142303600D01*
X125287600Y-142323600D02*
X124563800Y-141599800D01*
X126640000Y-142323600D02*
X125287600Y-142323600D01*
X124563800Y-141599800D02*
X122650000Y-141599800D01*
X121747581Y-141599800D02*
X121423791Y-141923590D01*
X122650000Y-141599800D02*
X121747581Y-141599800D01*
X121397663Y-65204810D02*
X122985710Y-66792857D01*
X111951610Y-65204810D02*
X121397663Y-65204810D01*
X112430000Y-63143200D02*
X112430000Y-61670000D01*
X114186800Y-64900000D02*
X112430000Y-63143200D01*
X128446818Y-139783600D02*
X126640000Y-139783600D01*
X129938208Y-141274990D02*
X128446818Y-139783600D01*
X173687600Y-139763600D02*
X172176210Y-141274990D01*
X172176210Y-141274990D02*
X129938208Y-141274990D01*
X175040000Y-139763600D02*
X173687600Y-139763600D01*
X122489498Y-139783600D02*
X122069488Y-139363590D01*
X126640000Y-139783600D02*
X122489498Y-139783600D01*
X122500000Y-64900000D02*
X123800000Y-66200000D01*
X114186800Y-64900000D02*
X122500000Y-64900000D01*
X110150000Y-67750000D02*
X109211520Y-67750000D01*
X109211520Y-67750000D02*
X108800000Y-67338480D01*
X83250000Y-65700000D02*
X85023528Y-65700000D01*
X85023528Y-65700000D02*
X86662008Y-67338480D01*
X73325000Y-121230000D02*
X74174999Y-120380001D01*
X74174999Y-120375001D02*
X74600000Y-119950000D01*
X74600000Y-119950000D02*
X81150000Y-119950000D01*
X74174999Y-120380001D02*
X74174999Y-120375001D01*
X81150000Y-119950000D02*
X82075000Y-119950000D01*
X99487000Y-103728600D02*
X99487000Y-105081000D01*
X95509838Y-99751438D02*
X99487000Y-103728600D01*
X82420940Y-99751438D02*
X95509838Y-99751438D01*
X82420940Y-99751438D02*
X82413940Y-99751438D01*
X105539000Y-110555000D02*
X106971000Y-111987000D01*
X99487000Y-110555000D02*
X105539000Y-110555000D01*
X86662008Y-67338480D02*
X108800000Y-67338480D01*
X74590000Y-117425000D02*
X73325000Y-118690000D01*
X82475000Y-117425000D02*
X74590000Y-117425000D01*
X83025000Y-116875000D02*
X82475000Y-117425000D01*
X96947000Y-103728600D02*
X96947000Y-105081000D01*
X93302565Y-100084165D02*
X96947000Y-103728600D01*
X83449539Y-100084165D02*
X93302565Y-100084165D01*
X83049540Y-100484164D02*
X83449539Y-100084165D01*
X105768919Y-114527000D02*
X106971000Y-114527000D01*
X104131274Y-114527000D02*
X105768919Y-114527000D01*
X102878274Y-115780000D02*
X104131274Y-114527000D01*
X95254000Y-115780000D02*
X102878274Y-115780000D01*
X84411819Y-66445315D02*
X83846134Y-66445315D01*
X85337777Y-66445315D02*
X84411819Y-66445315D01*
X86535752Y-67643290D02*
X85337777Y-66445315D01*
X108673744Y-67643290D02*
X86535752Y-67643290D01*
X109454270Y-68423816D02*
X108673744Y-67643290D01*
X110970732Y-68423816D02*
X109454270Y-68423816D01*
X74174999Y-115300001D02*
X73325000Y-116150000D01*
X83375001Y-114949999D02*
X74525001Y-114949999D01*
X74525001Y-114949999D02*
X74174999Y-115300001D01*
X83775000Y-114550000D02*
X83375001Y-114949999D01*
X94407000Y-103728600D02*
X94407000Y-105081000D01*
X91885400Y-101207000D02*
X94407000Y-103728600D01*
X83742799Y-101207000D02*
X91885400Y-101207000D01*
X105768919Y-117067000D02*
X106971000Y-117067000D01*
X105306868Y-117067000D02*
X105768919Y-117067000D01*
X94841200Y-118110180D02*
X104263688Y-118110180D01*
X104263688Y-118110180D02*
X105306868Y-117067000D01*
X93829020Y-117098000D02*
X94841200Y-118110180D01*
X85612449Y-67662449D02*
X85129912Y-67179912D01*
X86409496Y-67948100D02*
X86123845Y-67662449D01*
X92150000Y-69650000D02*
X90448099Y-67948099D01*
X109144652Y-69650000D02*
X92150000Y-69650000D01*
X109697020Y-69097632D02*
X109144652Y-69650000D01*
X85129912Y-67179912D02*
X84452299Y-67179912D01*
X86123845Y-67662449D02*
X85612449Y-67662449D01*
X90448099Y-67948099D02*
X86409496Y-67948100D01*
X111791464Y-69097632D02*
X109697020Y-69097632D01*
X84371399Y-111146399D02*
X77803601Y-111146399D01*
X77803601Y-111146399D02*
X76600000Y-112350000D01*
X74585000Y-112350000D02*
X73325000Y-113610000D01*
X76600000Y-112350000D02*
X74585000Y-112350000D01*
X91867000Y-103728600D02*
X91867000Y-105081000D01*
X90275400Y-102137000D02*
X91867000Y-103728600D01*
X84371398Y-102137000D02*
X90275400Y-102137000D01*
X105968600Y-119607000D02*
X106971000Y-119607000D01*
X105103390Y-120472210D02*
X105968600Y-119607000D01*
X92339210Y-120472210D02*
X105103390Y-120472210D01*
X91882000Y-120015000D02*
X92339210Y-120472210D01*
X85997589Y-67967259D02*
X84988166Y-67967259D01*
X90321844Y-68252910D02*
X86283240Y-68252910D01*
X92023743Y-69954809D02*
X90321844Y-68252910D01*
X103923743Y-69954809D02*
X92023743Y-69954809D01*
X112212197Y-70171447D02*
X108171447Y-70171447D01*
X86283240Y-68252910D02*
X85997589Y-67967259D01*
X107954810Y-69954810D02*
X103923743Y-69954809D01*
X108171447Y-70171447D02*
X107954810Y-69954810D01*
X112612196Y-69771448D02*
X112212197Y-70171447D01*
X155816724Y-112852210D02*
X140652210Y-112852210D01*
X156845334Y-111823600D02*
X155816724Y-112852210D01*
X159800000Y-111823600D02*
X156845334Y-111823600D01*
X139623600Y-111823600D02*
X135600000Y-111823600D01*
X140652210Y-112852210D02*
X139623600Y-111823600D01*
X85000000Y-109600000D02*
X84434315Y-109600000D01*
X84434315Y-109600000D02*
X84159315Y-109875000D01*
X74520000Y-109875000D02*
X73325000Y-111070000D01*
X84159315Y-109875000D02*
X74520000Y-109875000D01*
X189559620Y-103190380D02*
X189559620Y-103170380D01*
X169176256Y-103190380D02*
X189559620Y-103190380D01*
X168185876Y-102200000D02*
X169176256Y-103190380D01*
X189559620Y-103170380D02*
X189580000Y-103150000D01*
X165530330Y-102200000D02*
X168185876Y-102200000D01*
X165225520Y-102504810D02*
X165530330Y-102200000D01*
X109200000Y-106900000D02*
X116745000Y-106900000D01*
X160476256Y-102504810D02*
X165225520Y-102504810D01*
X116745000Y-106900000D02*
X117609000Y-106036000D01*
X156945066Y-106036000D02*
X160476256Y-102504810D01*
X117609000Y-106036000D02*
X156945066Y-106036000D01*
X108634315Y-106900000D02*
X109200000Y-106900000D01*
X88552400Y-111823600D02*
X93476000Y-106900000D01*
X93476000Y-106900000D02*
X108634315Y-106900000D01*
X87200000Y-111823600D02*
X88552400Y-111823600D01*
X87200000Y-111823600D02*
X87200000Y-110220000D01*
X89327000Y-108093000D02*
X89327000Y-105081000D01*
X87200000Y-110220000D02*
X89327000Y-108093000D01*
X135600000Y-110871200D02*
X135600000Y-111823600D01*
X135523790Y-110794990D02*
X135600000Y-110871200D01*
X113781010Y-110794990D02*
X135523790Y-110794990D01*
X112752400Y-111823600D02*
X113781010Y-110794990D01*
X111400000Y-111823600D02*
X112752400Y-111823600D01*
X86265685Y-68600000D02*
X85700000Y-68600000D01*
X90195589Y-68557721D02*
X86307965Y-68557720D01*
X86307965Y-68557720D02*
X86265685Y-68600000D01*
X91897486Y-70259618D02*
X90195589Y-68557721D01*
X107828553Y-70259619D02*
X103797486Y-70259618D01*
X113432930Y-70445264D02*
X113401937Y-70476257D01*
X103797486Y-70259618D02*
X91897486Y-70259618D01*
X108045190Y-70476256D02*
X107828553Y-70259619D01*
X113401937Y-70476257D02*
X108045190Y-70476256D01*
X150840000Y-116903600D02*
X152192400Y-116903600D01*
X158575010Y-115874990D02*
X172658990Y-115874990D01*
X157546400Y-116903600D02*
X158575010Y-115874990D01*
X173687600Y-116903600D02*
X175040000Y-116903600D01*
X172658990Y-115874990D02*
X173687600Y-116903600D01*
X152196000Y-116900000D02*
X154200000Y-116900000D01*
X152192400Y-116903600D02*
X152196000Y-116900000D01*
X154769285Y-116903600D02*
X157546400Y-116903600D01*
X154765685Y-116900000D02*
X154769285Y-116903600D01*
X154200000Y-116900000D02*
X154765685Y-116900000D01*
X132729697Y-70129697D02*
X132700000Y-70100000D01*
X148671400Y-70129697D02*
X132729697Y-70129697D01*
X84488684Y-103296316D02*
X85657000Y-103296316D01*
X80081400Y-107703600D02*
X84488684Y-103296316D01*
X77849150Y-107379810D02*
X78172940Y-107703600D01*
X78172940Y-107703600D02*
X80081400Y-107703600D01*
X74475190Y-107379810D02*
X77849150Y-107379810D01*
X73325000Y-108530000D02*
X74475190Y-107379810D01*
X85657000Y-103296316D02*
X86354716Y-103296316D01*
X86354716Y-103296316D02*
X86787000Y-103728600D01*
X86787000Y-103728600D02*
X86787000Y-105081000D01*
X127992400Y-116903600D02*
X129075000Y-115821000D01*
X126640000Y-116903600D02*
X127992400Y-116903600D01*
X149487600Y-116903600D02*
X150840000Y-116903600D01*
X148405000Y-115821000D02*
X149487600Y-116903600D01*
X129075000Y-115821000D02*
X148405000Y-115821000D01*
X103488174Y-116903600D02*
X104694754Y-115697020D01*
X102440000Y-116903600D02*
X103488174Y-116903600D01*
X126640000Y-115951200D02*
X126640000Y-116903600D01*
X126385820Y-115697020D02*
X126640000Y-115951200D01*
X104694754Y-115697020D02*
X126385820Y-115697020D01*
X207124000Y-73151192D02*
X206087807Y-72114999D01*
X207124000Y-75656532D02*
X207124000Y-73151192D01*
X173230306Y-72114999D02*
X172830307Y-71715000D01*
X206675732Y-76104800D02*
X207124000Y-75656532D01*
X206087807Y-72114999D02*
X173230306Y-72114999D01*
X205323332Y-76104800D02*
X206675732Y-76104800D01*
X131726135Y-71073865D02*
X132700000Y-70100000D01*
X113073865Y-71073865D02*
X131726135Y-71073865D01*
X107702296Y-70564428D02*
X107918933Y-70781065D01*
X112781066Y-70781066D02*
X113073865Y-71073865D01*
X107918933Y-70781065D02*
X112781066Y-70781066D01*
X91771229Y-70564427D02*
X107702296Y-70564428D01*
X90069332Y-68862530D02*
X91771229Y-70564427D01*
X86787470Y-68862530D02*
X90069332Y-68862530D01*
X86300000Y-69350000D02*
X86787470Y-68862530D01*
X157418990Y-130632210D02*
X139332210Y-130632210D01*
X158447600Y-129603600D02*
X157418990Y-130632210D01*
X159800000Y-129603600D02*
X158447600Y-129603600D01*
X138303600Y-129603600D02*
X135600000Y-129603600D01*
X139332210Y-130632210D02*
X138303600Y-129603600D01*
X134247600Y-129603600D02*
X133001200Y-130850000D01*
X135600000Y-129603600D02*
X134247600Y-129603600D01*
X133001200Y-130850000D02*
X117300000Y-130850000D01*
X116073600Y-129623600D02*
X111400000Y-129623600D01*
X117300000Y-130850000D02*
X116073600Y-129623600D01*
X87200000Y-129623600D02*
X92473600Y-129623600D01*
X92473600Y-129623600D02*
X93750000Y-130900000D01*
X93750000Y-130900000D02*
X108600000Y-130900000D01*
X109876400Y-129623600D02*
X111400000Y-129623600D01*
X108600000Y-130900000D02*
X109876400Y-129623600D01*
X159803600Y-129600000D02*
X159800000Y-129603600D01*
X165200000Y-129600000D02*
X159803600Y-129600000D01*
X86673600Y-130150000D02*
X87200000Y-129623600D01*
X77675000Y-130150000D02*
X86673600Y-130150000D01*
X157418990Y-133172210D02*
X139272210Y-133172210D01*
X158447600Y-132143600D02*
X157418990Y-133172210D01*
X159800000Y-132143600D02*
X158447600Y-132143600D01*
X138243600Y-132143600D02*
X135600000Y-132143600D01*
X139272210Y-133172210D02*
X138243600Y-132143600D01*
X160006400Y-132350000D02*
X159800000Y-132143600D01*
X166200000Y-132350000D02*
X160006400Y-132350000D01*
X134241200Y-132150000D02*
X134247600Y-132143600D01*
X108761200Y-133450000D02*
X110047600Y-132163600D01*
X132650000Y-132150000D02*
X134241200Y-132150000D01*
X115513620Y-132163600D02*
X116522230Y-133172210D01*
X110047600Y-132163600D02*
X115513620Y-132163600D01*
X116522230Y-133172210D02*
X131627790Y-133172210D01*
X92463600Y-132163600D02*
X93750000Y-133450000D01*
X77675000Y-132625000D02*
X86738600Y-132625000D01*
X86738600Y-132625000D02*
X87200000Y-132163600D01*
X131627790Y-133172210D02*
X132650000Y-132150000D01*
X93750000Y-133450000D02*
X108761200Y-133450000D01*
X134247600Y-132143600D02*
X135600000Y-132143600D01*
X87200000Y-132163600D02*
X92463600Y-132163600D01*
X167156074Y-102850000D02*
X167808074Y-103502000D01*
X166171401Y-102850000D02*
X167156074Y-102850000D01*
X167808074Y-103502000D02*
X167817000Y-103502000D01*
X167817000Y-103502000D02*
X168270000Y-103955000D01*
X168270000Y-103955000D02*
X190899000Y-103955000D01*
X190899000Y-103954000D02*
X190871000Y-103926000D01*
X190899000Y-103955000D02*
X190899000Y-103954000D01*
X88923600Y-142323600D02*
X87200000Y-142323600D01*
X89952210Y-143352210D02*
X88923600Y-142323600D01*
X99750000Y-143350000D02*
X89952210Y-143352210D01*
X116064047Y-143749999D02*
X117064046Y-142750000D01*
X100149999Y-143749999D02*
X116064047Y-143749999D01*
X117064046Y-142750000D02*
X123900000Y-142750000D01*
X99750000Y-143350000D02*
X100149999Y-143749999D01*
X73325000Y-141550000D02*
X74600000Y-140275000D01*
X85847600Y-142323600D02*
X87200000Y-142323600D01*
X83799000Y-140275000D02*
X85847600Y-142323600D01*
X74600000Y-140275000D02*
X83799000Y-140275000D01*
X185647000Y-123964000D02*
X184332000Y-125279000D01*
X188391000Y-112948906D02*
X189024094Y-113582000D01*
X188391000Y-108412000D02*
X188391000Y-112948906D01*
X187869390Y-107890390D02*
X188391000Y-108412000D01*
X187297000Y-123964000D02*
X185647000Y-123964000D01*
X187869390Y-107873390D02*
X187869390Y-107890390D01*
X189024094Y-122236906D02*
X187297000Y-123964000D01*
X187396000Y-107400000D02*
X187869390Y-107873390D01*
X189024094Y-113582000D02*
X189024094Y-122236906D01*
X173800000Y-107400000D02*
X187396000Y-107400000D01*
X166675798Y-71950000D02*
X169750000Y-71950000D01*
X114316330Y-74566330D02*
X164059468Y-74566330D01*
X113095674Y-73345674D02*
X114316330Y-74566330D01*
X164059468Y-74566330D02*
X166675798Y-71950000D01*
X104104326Y-73345674D02*
X113095674Y-73345674D01*
X104104326Y-73345674D02*
X103995674Y-73345674D01*
X103367073Y-72717073D02*
X97200001Y-72717073D01*
X103995674Y-73345674D02*
X103367073Y-72717073D01*
X137426210Y-152604810D02*
X137750000Y-152928600D01*
X135395190Y-152604810D02*
X137426210Y-152604810D01*
X135395190Y-152604810D02*
X135500000Y-152604810D01*
X169150000Y-72700000D02*
X166356864Y-72700000D01*
X166356864Y-72700000D02*
X165911673Y-73145191D01*
X165911673Y-73145191D02*
X164185724Y-74871140D01*
X164185724Y-74871140D02*
X159800000Y-74871140D01*
X127023744Y-152604810D02*
X135395190Y-152604810D01*
X113717020Y-148717020D02*
X117604810Y-152604810D01*
X97148665Y-148717020D02*
X113717020Y-148717020D01*
X117604810Y-152604810D02*
X127023744Y-152604810D01*
X93717020Y-148717020D02*
X97148665Y-148717020D01*
X89863600Y-144863600D02*
X93717020Y-148717020D01*
X85847600Y-144863600D02*
X89863600Y-144863600D01*
X84895200Y-145816000D02*
X85847600Y-144863600D01*
X75051000Y-145816000D02*
X84895200Y-145816000D01*
X73325000Y-144090000D02*
X75051000Y-145816000D01*
X184332000Y-112579000D02*
X184332000Y-108249810D01*
X172750000Y-107415685D02*
X172750000Y-106850000D01*
X173362916Y-108028601D02*
X172750000Y-107415685D01*
X184110791Y-108028601D02*
X173362916Y-108028601D01*
X184332000Y-108249810D02*
X184110791Y-108028601D01*
X159800000Y-74871140D02*
X140150000Y-74871140D01*
X140150000Y-74871140D02*
X114190073Y-74871139D01*
X114190073Y-74871139D02*
X112969418Y-73650484D01*
X112969418Y-73650484D02*
X103869417Y-73650483D01*
X103568934Y-73350000D02*
X94650000Y-73350000D01*
X103869417Y-73650483D02*
X103568934Y-73350000D01*
X87200000Y-147403600D02*
X88552400Y-147403600D01*
X88552400Y-147403600D02*
X92399400Y-151250600D01*
X94363230Y-153214430D02*
X103983364Y-153214430D01*
X92399400Y-151250600D02*
X94363230Y-153214430D01*
X103983364Y-153214430D02*
X126750000Y-153214430D01*
X133576210Y-153214430D02*
X133900000Y-153538220D01*
X126750000Y-153214430D02*
X133576210Y-153214430D01*
X88759315Y-143925000D02*
X88409315Y-143575000D01*
X89325000Y-143925000D02*
X88759315Y-143925000D01*
X77067081Y-144090000D02*
X75865000Y-144090000D01*
X77582081Y-143575000D02*
X77067081Y-144090000D01*
X88409315Y-143575000D02*
X77582081Y-143575000D01*
X180041411Y-108333411D02*
X173217726Y-108333411D01*
X182607000Y-110899000D02*
X180041411Y-108333411D01*
X183683801Y-113518801D02*
X182607000Y-112442000D01*
X185628000Y-111867000D02*
X185628000Y-112673906D01*
X186175000Y-111320000D02*
X185628000Y-111867000D01*
X184783105Y-113518801D02*
X183683801Y-113518801D01*
X187614000Y-111320000D02*
X186175000Y-111320000D01*
X182607000Y-112442000D02*
X182607000Y-110899000D01*
X185628000Y-112673906D02*
X184783105Y-113518801D01*
X171800000Y-106915685D02*
X171800000Y-106350000D01*
X173217726Y-108333411D02*
X171800000Y-106915685D01*
X188086190Y-111792190D02*
X187614000Y-111320000D01*
X186872000Y-122739000D02*
X188719284Y-120891716D01*
X188719284Y-120891716D02*
X188719284Y-113708256D01*
X188086190Y-113075162D02*
X188086190Y-111792190D01*
X188719284Y-113708256D02*
X188086190Y-113075162D01*
X95550000Y-73700000D02*
X94993492Y-74256508D01*
X103487868Y-73700000D02*
X95550000Y-73700000D01*
X166037930Y-73450000D02*
X164311980Y-75175950D01*
X112843161Y-73955293D02*
X103743160Y-73955292D01*
X103743160Y-73955292D02*
X103487868Y-73700000D01*
X114063816Y-75175948D02*
X112843161Y-73955293D01*
X94993492Y-74256508D02*
X92143492Y-74256508D01*
X164311980Y-75175950D02*
X114063816Y-75175948D01*
X168550000Y-73450000D02*
X166037930Y-73450000D01*
X102251912Y-149755512D02*
X102440000Y-149943600D01*
X93005512Y-149755512D02*
X102251912Y-149755512D01*
X139004120Y-152604810D02*
X149111190Y-152604810D01*
X138051729Y-153557201D02*
X139004120Y-152604810D01*
X149111190Y-152604810D02*
X150840000Y-150876000D01*
X104109620Y-152909620D02*
X136800690Y-152909620D01*
X137448271Y-153557201D02*
X138051729Y-153557201D01*
X150840000Y-150876000D02*
X150840000Y-149923600D01*
X136800690Y-152909620D02*
X137448271Y-153557201D01*
X102440000Y-151240000D02*
X104109620Y-152909620D01*
X102440000Y-149943600D02*
X102440000Y-151240000D01*
X82710599Y-141550000D02*
X75865000Y-141550000D01*
X164450000Y-75476472D02*
X164445712Y-75480760D01*
X165818996Y-74100000D02*
X164450000Y-75468996D01*
X164450000Y-75468996D02*
X164450000Y-75476472D01*
X167850000Y-74100000D02*
X165818996Y-74100000D01*
X186872000Y-112579000D02*
X185627389Y-113823611D01*
X185627389Y-113823611D02*
X183557544Y-113823610D01*
X183557544Y-113823610D02*
X182302190Y-112568256D01*
X182302190Y-112568256D02*
X182302190Y-111025256D01*
X182302190Y-111025256D02*
X179915155Y-108638221D01*
X170750000Y-106515685D02*
X170750000Y-105950000D01*
X172872535Y-108638220D02*
X170750000Y-106515685D01*
X179915155Y-108638221D02*
X172872535Y-108638220D01*
X164438236Y-75480760D02*
X164450000Y-75468996D01*
X112716903Y-74260101D02*
X113937561Y-75480757D01*
X117230760Y-75480760D02*
X164438236Y-75480760D01*
X103361612Y-74004810D02*
X103616905Y-74260101D01*
X94781066Y-74900000D02*
X95676256Y-74004810D01*
X117230757Y-75480757D02*
X117230760Y-75480760D01*
X89550000Y-73732838D02*
X90730846Y-73732838D01*
X113937561Y-75480757D02*
X117230757Y-75480757D01*
X95676256Y-74004810D02*
X103361612Y-74004810D01*
X90730846Y-73732838D02*
X91898008Y-74900000D01*
X91898008Y-74900000D02*
X94781066Y-74900000D01*
X103616905Y-74260101D02*
X112716903Y-74260101D01*
X93565380Y-147403600D02*
X102440000Y-147403600D01*
X92911780Y-146750000D02*
X93565380Y-147403600D01*
X75875000Y-139000000D02*
X75865000Y-139010000D01*
X83339199Y-139000000D02*
X75875000Y-139000000D01*
X102440000Y-148336000D02*
X102440000Y-147383600D01*
X117731066Y-152300000D02*
X113843276Y-148412210D01*
X102516210Y-148412210D02*
X102440000Y-148336000D01*
X148713512Y-151976210D02*
X148389722Y-152300000D01*
X113843276Y-148412210D02*
X102516210Y-148412210D01*
X148389722Y-152300000D02*
X117731066Y-152300000D01*
X169800000Y-106065685D02*
X169800000Y-105500000D01*
X172677344Y-108943029D02*
X169800000Y-106065685D01*
X179781030Y-108943030D02*
X172677344Y-108943029D01*
X181997381Y-112694513D02*
X181997381Y-111159381D01*
X183431287Y-114128419D02*
X181997381Y-112694513D01*
X185753644Y-114128420D02*
X183431287Y-114128419D01*
X181997381Y-111159381D02*
X179781030Y-108943030D01*
X184332000Y-122739000D02*
X185571000Y-121500000D01*
X186363265Y-113518801D02*
X185753644Y-114128420D01*
X188098763Y-113518801D02*
X186363265Y-113518801D01*
X188414474Y-113834512D02*
X188098763Y-113518801D01*
X188414474Y-120765460D02*
X188414474Y-113834512D01*
X187679934Y-121500000D02*
X188414474Y-120765460D01*
X185571000Y-121500000D02*
X187679934Y-121500000D01*
X165539194Y-74818344D02*
X167209713Y-74818344D01*
X164571968Y-75785570D02*
X165539194Y-74818344D01*
X112590648Y-74564911D02*
X113811307Y-75785570D01*
X103490649Y-74564911D02*
X112590648Y-74564911D01*
X103235357Y-74309620D02*
X103490649Y-74564911D01*
X91771752Y-75204810D02*
X94907323Y-75204809D01*
X94907323Y-75204809D02*
X95802512Y-74309620D01*
X90928380Y-74361438D02*
X91771752Y-75204810D01*
X113811307Y-75785570D02*
X164571968Y-75785570D01*
X95802512Y-74309620D02*
X103235357Y-74309620D01*
X88052390Y-74361438D02*
X90928380Y-74361438D01*
X96947000Y-98813400D02*
X97301600Y-99168000D01*
X96947000Y-97461000D02*
X96947000Y-98813400D01*
X104689000Y-99168000D02*
X104994402Y-99473402D01*
X97301600Y-99168000D02*
X104689000Y-99168000D01*
X103724000Y-56751000D02*
X104289685Y-56751000D01*
X191797000Y-62857534D02*
X192344266Y-63404800D01*
X192344266Y-63404800D02*
X193696666Y-63404800D01*
X104613476Y-56427209D02*
X190612209Y-56427209D01*
X104289685Y-56751000D02*
X104613476Y-56427209D01*
X191315656Y-62376190D02*
X192344266Y-63404800D01*
X176831010Y-62376190D02*
X191315656Y-62376190D01*
X175802400Y-63404800D02*
X176831010Y-62376190D01*
X174450000Y-63404800D02*
X175802400Y-63404800D01*
X194823609Y-56427209D02*
X195687000Y-57290600D01*
X190612209Y-56427209D02*
X194823609Y-56427209D01*
D28*
X109760000Y-103518000D02*
X109647000Y-103631000D01*
X128080054Y-103518000D02*
X109760000Y-103518000D01*
X128886054Y-104324000D02*
X128080054Y-103518000D01*
X109647000Y-103631000D02*
X109647000Y-105081000D01*
X129820000Y-104324000D02*
X128886054Y-104324000D01*
X193178000Y-126505000D02*
X194492000Y-127819000D01*
X204316000Y-121458000D02*
X195315000Y-121458000D01*
X193178000Y-123595000D02*
X193178000Y-126505000D01*
X222634000Y-117398000D02*
X208376000Y-117398000D01*
X195315000Y-121458000D02*
X193178000Y-123595000D01*
X225074000Y-104638000D02*
X225893000Y-105457000D01*
X225893000Y-105457000D02*
X225893000Y-114139000D01*
X225893000Y-114139000D02*
X222634000Y-117398000D01*
X208376000Y-117398000D02*
X204316000Y-121458000D01*
X223300000Y-104638000D02*
X225074000Y-104638000D01*
X221526000Y-102098000D02*
X220031820Y-103592180D01*
X223300000Y-102098000D02*
X221526000Y-102098000D01*
X220031820Y-103592180D02*
X220031820Y-112639180D01*
X188223000Y-126056000D02*
X188783000Y-126616000D01*
X190749000Y-126616000D02*
X191952000Y-127819000D01*
X188783000Y-126616000D02*
X190749000Y-126616000D01*
X188223000Y-126056000D02*
X188223000Y-124417000D01*
X188223000Y-124417000D02*
X190118000Y-122522000D01*
X190118000Y-122522000D02*
X190118000Y-117734000D01*
X216435500Y-116235500D02*
X206064500Y-116235500D01*
X220031820Y-112639180D02*
X216435500Y-116235500D01*
X191181601Y-116670399D02*
X190118000Y-117734000D01*
X205629601Y-116670399D02*
X191181601Y-116670399D01*
X206064500Y-116235500D02*
X205629601Y-116670399D01*
X189412000Y-127819000D02*
X189412000Y-129214908D01*
X189412000Y-129214908D02*
X193077092Y-132880000D01*
X223300000Y-132322000D02*
X223300000Y-131310000D01*
X222742000Y-132880000D02*
X223300000Y-132322000D01*
X193077092Y-132880000D02*
X222742000Y-132880000D01*
X203701000Y-123690000D02*
X202112000Y-125279000D01*
X223300000Y-123690000D02*
X203701000Y-123690000D01*
X214447410Y-105677410D02*
X214437820Y-105687000D01*
X219629410Y-104405590D02*
X218357590Y-105677410D01*
X220395410Y-99558000D02*
X219629410Y-100324000D01*
X206464000Y-105687000D02*
X199572000Y-112579000D01*
X219629410Y-100324000D02*
X219629410Y-104405590D01*
X218357590Y-105677410D02*
X214447410Y-105677410D01*
X223300000Y-99558000D02*
X220395410Y-99558000D01*
X214437820Y-105687000D02*
X206464000Y-105687000D01*
X226138000Y-129653000D02*
X225255000Y-128770000D01*
X226138000Y-132409000D02*
X226138000Y-129653000D01*
X225147000Y-133400000D02*
X226138000Y-132409000D01*
X188166000Y-128538000D02*
X193028000Y-133400000D01*
X225255000Y-128770000D02*
X223300000Y-128770000D01*
X188166000Y-126573000D02*
X188166000Y-128538000D01*
X193028000Y-133400000D02*
X225147000Y-133400000D01*
X186872000Y-125279000D02*
X188166000Y-126573000D01*
X225549000Y-134175000D02*
X193228000Y-134175000D01*
X225642000Y-126803000D02*
X226881000Y-128042000D01*
X193228000Y-134175000D02*
X186872000Y-127819000D01*
X226881000Y-132843000D02*
X225549000Y-134175000D01*
X226881000Y-128042000D02*
X226881000Y-132843000D01*
X225074000Y-126230000D02*
X225642000Y-126798000D01*
X225642000Y-126798000D02*
X225642000Y-126803000D01*
X223300000Y-126230000D02*
X225074000Y-126230000D01*
X191952000Y-110039000D02*
X191952000Y-104479000D01*
X194333000Y-102098000D02*
X216564000Y-102098000D01*
X191952000Y-104479000D02*
X194333000Y-102098000D01*
X194492000Y-104578000D02*
X195576000Y-103494000D01*
X216564000Y-103626000D02*
X216564000Y-104638000D01*
X216432000Y-103494000D02*
X216564000Y-103626000D01*
X194492000Y-110039000D02*
X194492000Y-104578000D01*
X195576000Y-103494000D02*
X216432000Y-103494000D01*
X214790000Y-99558000D02*
X212652410Y-101695590D01*
X216564000Y-99558000D02*
X214790000Y-99558000D01*
X194166317Y-101695590D02*
X190699000Y-105162907D01*
X212652410Y-101695590D02*
X194166317Y-101695590D01*
X190699000Y-105162907D02*
X190699000Y-113409000D01*
X192409000Y-115119000D02*
X199572000Y-115119000D01*
X190699000Y-113409000D02*
X192409000Y-115119000D01*
X190520410Y-124170590D02*
X189412000Y-125279000D01*
X204588399Y-118647601D02*
X191453399Y-118647601D01*
X206240410Y-116995590D02*
X204588399Y-118647601D01*
X225490590Y-113972318D02*
X222467318Y-116995590D01*
X190520410Y-119580590D02*
X190520410Y-124170590D01*
X191453399Y-118647601D02*
X190520410Y-119580590D01*
X225490590Y-110134590D02*
X225490590Y-113972318D01*
X225074000Y-109718000D02*
X225490590Y-110134590D01*
X222467318Y-116995590D02*
X206240410Y-116995590D01*
X223300000Y-109718000D02*
X225074000Y-109718000D01*
D27*
X195063866Y-62232000D02*
X193696666Y-60864800D01*
X203010000Y-62232000D02*
X195063866Y-62232000D01*
D28*
X210940399Y-113567601D02*
X214790000Y-109718000D01*
X191952000Y-112579000D02*
X192940601Y-113567601D01*
X192940601Y-113567601D02*
X210940399Y-113567601D01*
X214790000Y-109718000D02*
X216564000Y-109718000D01*
X195146666Y-76104800D02*
X196407866Y-77366000D01*
X193696666Y-76104800D02*
X195146666Y-76104800D01*
X207618600Y-77366000D02*
X207620600Y-77364000D01*
X196407866Y-77366000D02*
X207618600Y-77366000D01*
D27*
X181340000Y-84400000D02*
X181320000Y-84380000D01*
D29*
X213078000Y-75610000D02*
X213078000Y-73587000D01*
X213078000Y-73587000D02*
X215360000Y-71305000D01*
X224180600Y-71527200D02*
X224180600Y-73701200D01*
X223958400Y-71305000D02*
X224180600Y-71527200D01*
X215360000Y-71305000D02*
X223958400Y-71305000D01*
D27*
X95200000Y-132150000D02*
X102426400Y-132150000D01*
X172658990Y-131114990D02*
X157685010Y-131114990D01*
X173687600Y-132143600D02*
X172658990Y-131114990D01*
X175040000Y-132143600D02*
X173687600Y-132143600D01*
X156656400Y-132143600D02*
X150840000Y-132143600D01*
X157685010Y-131114990D02*
X156656400Y-132143600D01*
X127992400Y-132143600D02*
X126640000Y-132143600D01*
X132138666Y-132143600D02*
X127992400Y-132143600D01*
X133258266Y-131024000D02*
X132138666Y-132143600D01*
X139292934Y-131024000D02*
X133258266Y-131024000D01*
X140412534Y-132143600D02*
X139292934Y-131024000D01*
X150840000Y-132143600D02*
X140412534Y-132143600D01*
X103792400Y-132143600D02*
X102440000Y-132143600D01*
X107787466Y-132143600D02*
X103792400Y-132143600D01*
X108816076Y-131114990D02*
X107787466Y-132143600D01*
X112226064Y-131114990D02*
X108816076Y-131114990D01*
X124401000Y-131257000D02*
X112368074Y-131257000D01*
X125287600Y-132143600D02*
X124401000Y-131257000D01*
X112368074Y-131257000D02*
X112226064Y-131114990D01*
X126640000Y-132143600D02*
X125287600Y-132143600D01*
X95200000Y-132150000D02*
X94032000Y-132150000D01*
X92807000Y-130925000D02*
X88781000Y-130925000D01*
X94032000Y-132150000D02*
X92807000Y-130925000D01*
X127515000Y-108593000D02*
X128135000Y-109213000D01*
X105161000Y-108593000D02*
X127515000Y-108593000D01*
D28*
X190265685Y-115500000D02*
X191033674Y-116267989D01*
X189700000Y-115500000D02*
X190265685Y-115500000D01*
X206330908Y-115400000D02*
X215700000Y-115400000D01*
X205462919Y-116267989D02*
X206330908Y-115400000D01*
X191033674Y-116267989D02*
X205462919Y-116267989D01*
D27*
X137830000Y-96747600D02*
X137830000Y-98100000D01*
X140700600Y-93877000D02*
X137830000Y-96747600D01*
X177370685Y-97195000D02*
X157779000Y-97195000D01*
X154461000Y-93877000D02*
X140700600Y-93877000D01*
X157779000Y-97195000D02*
X154461000Y-93877000D01*
X177920000Y-97744315D02*
X177370685Y-97195000D01*
X177920000Y-98310000D02*
X177920000Y-97744315D01*
X77105000Y-79350000D02*
X75865000Y-80590000D01*
X77746900Y-78708100D02*
X77105000Y-79350000D01*
X92800000Y-78708100D02*
X77746900Y-78708100D01*
X144567210Y-99577000D02*
X143762690Y-100381520D01*
X143762690Y-100381520D02*
X131467000Y-100381520D01*
X131467000Y-100381520D02*
X120180586Y-100381520D01*
X120180586Y-100381520D02*
X119756099Y-99957033D01*
X119756099Y-99957033D02*
X119756099Y-92357703D01*
X115341985Y-87943589D02*
X114037344Y-87943590D01*
X119756099Y-92357703D02*
X115341985Y-87943589D01*
X113661590Y-87943590D02*
X113620512Y-87902512D01*
X114037344Y-87943590D02*
X113661590Y-87943590D01*
X112880000Y-78378000D02*
X113622000Y-79120000D01*
X111181000Y-78378000D02*
X112880000Y-78378000D01*
X104565622Y-80258000D02*
X109301000Y-80258000D01*
X102126721Y-77819099D02*
X104565622Y-80258000D01*
X109301000Y-80258000D02*
X111181000Y-78378000D01*
X93689001Y-77819099D02*
X102126721Y-77819099D01*
X92800000Y-78708100D02*
X93689001Y-77819099D01*
X99134315Y-79157460D02*
X98810525Y-78833670D01*
X98700000Y-79175000D02*
X98663480Y-79138480D01*
X98700000Y-79200000D02*
X98700000Y-79175000D01*
X97463313Y-79978119D02*
X98733332Y-78708100D01*
X78520995Y-80372353D02*
X77955310Y-80372353D01*
X78915229Y-79978119D02*
X78520995Y-80372353D01*
X97463313Y-79978119D02*
X78915229Y-79978119D01*
X146890315Y-100215000D02*
X146418985Y-100686330D01*
X147456000Y-100215000D02*
X146890315Y-100215000D01*
X146418985Y-100686330D02*
X130791330Y-100686330D01*
X120054330Y-100686330D02*
X119451291Y-100083291D01*
X130791330Y-100686330D02*
X120054330Y-100686330D01*
X119451291Y-100083291D02*
X119451290Y-93020224D01*
X114163601Y-88248399D02*
X113839810Y-88572190D01*
X115215729Y-88248399D02*
X114163601Y-88248399D01*
X119451290Y-92483960D02*
X115215729Y-88248399D01*
X119451290Y-93020224D02*
X119451290Y-92483960D01*
X113839810Y-88572190D02*
X110077000Y-88572190D01*
X101366790Y-88572190D02*
X101043000Y-88248400D01*
X110077000Y-88572190D02*
X101366790Y-88572190D01*
X100125171Y-80282929D02*
X101700000Y-78708100D01*
X79583071Y-80282929D02*
X100125171Y-80282929D01*
X78869000Y-80997000D02*
X79583071Y-80282929D01*
X142910000Y-99452400D02*
X142285690Y-100076710D01*
X142910000Y-98100000D02*
X142910000Y-99452400D01*
X120376710Y-100076710D02*
X120060909Y-99760909D01*
X142285690Y-100076710D02*
X120376710Y-100076710D01*
X120060909Y-99760909D02*
X120060908Y-92231446D01*
X114909462Y-87080000D02*
X101914400Y-87080000D01*
X120060908Y-92231446D02*
X114909462Y-87080000D01*
X94801457Y-79673309D02*
X95766666Y-78708100D01*
X79004281Y-79673309D02*
X94801457Y-79673309D01*
X78667672Y-79336700D02*
X79004281Y-79673309D01*
X78101987Y-79336700D02*
X78667672Y-79336700D01*
X99930000Y-102760000D02*
X101800000Y-102760000D01*
X103527110Y-102760000D02*
X105041711Y-101245399D01*
X101800000Y-102760000D02*
X103527110Y-102760000D01*
X109933729Y-101245399D02*
X111243100Y-102554770D01*
X139916210Y-102554770D02*
X140240000Y-102230980D01*
X111243100Y-102554770D02*
X139916210Y-102554770D01*
X109933729Y-101245399D02*
X105041711Y-101245399D01*
M02*
