<?xml version="1.0" encoding="UTF-8" standalone="no"?>
<svg
   xmlns:dc="http://purl.org/dc/elements/1.1/"
   xmlns:cc="http://creativecommons.org/ns#"
   xmlns:rdf="http://www.w3.org/1999/02/22-rdf-syntax-ns#"
   xmlns:svg="http://www.w3.org/2000/svg"
   xmlns="http://www.w3.org/2000/svg"
   id="svg4331"
   version="1.1"
   viewBox="0 0 210 297"
   height="297mm"
   width="210mm">
  <defs
     id="defs4325" />
  <metadata
     id="metadata4328">
    <rdf:RDF>
      <cc:Work
         rdf:about="">
        <dc:format>image/svg+xml</dc:format>
        <dc:type
           rdf:resource="http://purl.org/dc/dcmitype/StillImage" />
        <dc:title></dc:title>
      </cc:Work>
    </rdf:RDF>
  </metadata>
  <g
     id="layer1">
    <g
       transform="translate(5.6897962,145.39463)"
       id="g4483">
      <g
         transform="matrix(1.0484049,0,0,1.0484049,-723.41115,-268.04993)"
         id="g4079"
         style="fill:#333333">
        <path
           style="color:#000000;text-indent:0;text-transform:none"
           d="m 713.09,278.5 v 3 62.062 3 h 3 141.56 3 v -3 -65.062 h -5.8712 l -0.12879,62.062 h -135.56 V 284.5 h 115.34 v -6 h -118.34 z"
           id="path4069" />
        <path
           d="m 747.71,313.26 c -2e-5,-5.1406 -0.53127,-8.8125 -1.5938,-11.016 -1.0469,-2.2031 -2.7735,-3.3047 -5.1797,-3.3047 -2.3906,3e-5 -4.1172,1.1016 -5.1797,3.3047 -1.0469,2.2032 -1.5703,5.875 -1.5703,11.016 -10e-6,5.125 0.52343,8.7891 1.5703,10.992 1.0625,2.2031 2.789,3.3047 5.1797,3.3047 2.4062,0 4.1328,-1.0938 5.1797,-3.2812 1.0625,-2.2031 1.5937,-5.875 1.5938,-11.016 m 4.9453,0 c -3e-5,6.0938 -0.96878,10.641 -2.9062,13.641 -1.9219,3 -4.8594,4.5 -8.8125,4.5 -3.9531,0 -6.8906,-1.4922 -8.8125,-4.4766 -1.9219,-2.9844 -2.8828,-7.539 -2.8828,-13.664 0,-6.1094 0.96093,-10.664 2.8828,-13.664 1.9375,-3 4.875,-4.5 8.8125,-4.5 3.9531,4e-5 6.8906,1.5 8.8125,4.5 1.9375,3 2.9062,7.5547 2.9062,13.664"
           id="path4071" />
        <path
           d="m 779.1,296.93 v 4.8047 c -1.4375,-0.92184 -2.8828,-1.6172 -4.3359,-2.0859 -1.4375,-0.46871 -2.8906,-0.70309 -4.3594,-0.70312 -2.2344,3e-5 -4,0.52347 -5.2969,1.5703 -1.2969,1.0313 -1.9453,2.4297 -1.9453,4.1953 -10e-6,1.5469 0.42187,2.7266 1.2656,3.5391 0.85936,0.81252 2.4531,1.4922 4.7812,2.0391 l 2.4844,0.5625 c 3.2812,0.76564 5.6718,1.9688 7.1719,3.6094 1.5,1.6406 2.25,3.875 2.25,6.7031 -3e-5,3.3281 -1.0313,5.8672 -3.0938,7.6172 -2.0625,1.75 -5.0625,2.625 -9,2.625 -1.6406,0 -3.2891,-0.17969 -4.9453,-0.53907 -1.6562,-0.34375 -3.3203,-0.86718 -4.9922,-1.5703 v -5.0391 c 1.7969,1.1406 3.4922,1.9766 5.0859,2.5078 1.6094,0.53126 3.2266,0.79688 4.8516,0.79688 2.3906,0 4.25,-0.53125 5.5781,-1.5938 1.3281,-1.0781 1.9922,-2.5781 1.9922,-4.5 -2e-5,-1.75 -0.46096,-3.0859 -1.3828,-4.0078 -0.90627,-0.92186 -2.4922,-1.6328 -4.7578,-2.1328 l -2.5312,-0.58594 c -3.25,-0.73435 -5.6094,-1.8437 -7.0781,-3.3281 -1.4688,-1.4844 -2.2031,-3.4765 -2.2031,-5.9766 0,-3.125 1.0469,-5.625 3.1406,-7.5 2.1094,-1.8906 4.9062,-2.8359 8.3906,-2.8359 1.3437,4e-5 2.7578,0.15629 4.2422,0.46875 1.4844,0.29691 3.0468,0.75003 4.6875,1.3594"
           id="path4073" />
        <path
           d="m 787.46,295.73 h 4.7578 v 14.344 h 12.961 V 295.73 h 4.7578 v 34.992 h -4.7578 v -16.664 h -12.961 v 16.664 H 787.46 V 295.73"
           id="path4075" />
        <path
           d="m 813.13,295.73 h 4.6172 l 3.3516,28.406 3.9844,-18.797 h 4.9453 l 4.0312,18.844 11.352,-54.453 h 4.6172 l -13.227,60.992 h -4.4766 l -4.7578,-20.789 -4.7344,20.789 h -4.4766 l -5.2266,-34.992"
           id="path4077" />
      </g>
      <flowRoot
         style="font-weight:300;font-size:40px;line-height:125%;font-family:Junction;letter-spacing:0px;word-spacing:0px;fill:#333333"
         font-weight="300"
         xml:space="preserve"
         font-size="40px"
         transform="matrix(0.93201099,0,0,0.93201099,-578.59113,-380.46949)"
         line-height="125%"
         id="flowRoot4087"><flowRegion
           id="flowRegion4083"><rect
             height="55.789001"
             width="189.06"
             y="515.15997"
             x="638.46997"
             id="rect4081"
             style="fill:#333333" /></flowRegion><flowPara
           font-weight="normal"
           id="flowPara4085"
           style="font-weight:normal;font-size:37.85124588px;font-family:'Andale Mono';fill:#333333">UK000006</flowPara></flowRoot>    </g>
    <g
       transform="translate(200.10774,0.53453905)"
       id="g4495">
      <g
         id="g4471"
         transform="matrix(0.95394184,0,0,0.95394184,-191.52095,-131.50119)">
        <path
           id="path4101"
           d="m 22.173051,162.95491 v 3.30334 68.33733 3.30335 h 3.303342 155.873687 3.30334 v -3.30335 -71.64067 h -6.46486 l -0.14181,68.33733 H 28.779745 V 169.56159 H 155.78222 v -6.60668 H 25.476404 Z"
           style="color:#000000;text-indent:0;text-transform:none;fill:#333333;stroke-width:1.10111392" />
        <path
           id="path4103"
           d="m 60.293614,201.22963 c -2.2e-5,-5.66039 -0.584989,-9.70357 -1.754955,-12.12987 -1.152756,-2.42586 -3.05394,-3.63885 -5.70344,-3.63885 -2.632323,3e-5 -4.533506,1.21299 -5.70344,3.63885 -1.152756,2.42597 -1.729079,6.46904 -1.729079,12.12987 -1.1e-5,5.64321 0.576356,9.6778 1.729079,12.10344 1.169934,2.42587 3.071007,3.63886 5.70344,3.63886 2.6495,0 4.550684,-1.2044 5.70344,-3.61298 1.169933,-2.42586 1.754845,-6.46904 1.754955,-12.12987 m 5.445339,0 c -3.3e-5,6.70997 -1.066737,11.71695 -3.200057,15.02029 -2.116231,3.30335 -5.350753,4.95502 -9.703567,4.95502 -4.352813,0 -7.587335,-1.64309 -9.703566,-4.92925 -2.116231,-3.28616 -3.174291,-8.3013 -3.174291,-15.04562 0,-6.72715 1.058093,-11.74228 3.174291,-15.04562 2.133408,-3.30334 5.36793,-4.95501 9.703566,-4.95501 4.352814,4e-5 7.587336,1.65167 9.703567,4.95501 2.133408,3.30334 3.200057,8.31859 3.200057,15.04562"
           style="fill:#333333;stroke-width:1.10111392" />
        <path
           id="path4105"
           d="m 94.857579,183.24844 v 5.29052 c -1.582851,-1.01505 -3.174291,-1.78072 -4.774319,-2.29681 -1.582852,-0.5161 -3.18288,-0.77418 -4.800196,-0.77422 -2.460329,4e-5 -4.404456,0.5764 -5.83249,1.72908 -1.428035,1.13558 -2.141997,2.67538 -2.141997,4.61951 -1.1e-5,1.70331 0.464527,3.00229 1.393569,3.89695 0.946254,0.89468 2.701143,1.64308 5.264646,2.24528 l 2.735608,0.61938 c 3.612975,0.84305 6.245297,2.16787 7.897078,3.97436 1.651671,1.80648 2.477507,4.26681 2.477507,7.38087 -3.3e-5,3.66462 -1.135579,6.46046 -3.406627,8.38741 -2.271047,1.92695 -5.574389,2.89042 -9.910025,2.89042 -1.806487,0 -3.621673,-0.19786 -5.445338,-0.59358 -1.823665,-0.3785 -3.656029,-0.95486 -5.496981,-1.72907 v -5.54863 c 1.978592,1.25593 3.84531,2.17646 5.600155,2.76138 1.772133,0.58497 3.552854,0.87745 5.342164,0.87745 2.632323,0 4.679734,-0.58497 6.142124,-1.75495 1.462389,-1.18711 2.193639,-2.83879 2.193639,-4.95502 -2.2e-5,-1.92695 -0.50757,-3.39792 -1.52262,-4.41304 -0.997907,-1.01507 -2.744196,-1.7979 -5.23888,-2.34846 l -2.78714,-0.64518 c -3.57862,-0.80861 -6.176588,-2.03013 -7.793794,-3.66462 -1.617316,-1.63449 -2.425864,-3.82802 -2.425864,-6.58092 0,-3.44098 1.152756,-6.19376 3.458158,-8.25835 2.32269,-2.08177 5.402285,-3.12265 9.239007,-3.12265 1.479566,4e-5 3.036652,0.17209 4.671145,0.51615 1.634494,0.32693 3.354874,0.82586 5.161471,1.49685"
           style="fill:#333333;stroke-width:1.10111392" />
        <path
           id="path4107"
           d="m 104.06289,181.9271 h 5.23888 v 15.79438 h 14.27154 V 181.9271 h 5.23888 v 38.53018 h -5.23888 v -18.34896 h -14.27154 v 18.34896 h -5.23888 V 181.9271"
           style="fill:#333333;stroke-width:1.10111392" />
        <path
           id="path4109"
           d="m 132.32849,181.9271 h 5.08406 l 3.69049,31.27825 4.38728,-20.69764 h 5.44534 l 4.43881,20.74939 12.49984,-59.95896 h 5.08407 l -14.56444,67.15914 h -4.92924 l -5.23888,-22.89106 -5.21312,22.89106 h -4.92924 l -5.75508,-38.53018"
           style="fill:#ff3a3a;stroke-width:1.10111392" />
      </g>
      <flowRoot
         style="font-weight:300;font-size:40px;line-height:125%;font-family:Junction;letter-spacing:0px;word-spacing:0px;fill:#333333"
         font-weight="300"
         xml:space="preserve"
         font-size="40px"
         transform="matrix(0.93201098,0,0,0.93201098,-773.00907,-380.46948)"
         line-height="125%"
         id="flowRoot4087-3"><flowRegion
           id="flowRegion4083-6"><rect
             height="55.789001"
             width="189.06"
             y="515.15997"
             x="638.46997"
             id="rect4081-7"
             style="fill:#333333" /></flowRegion><flowPara
           font-weight="normal"
           id="flowPara4085-5"
           style="font-weight:normal;font-size:37.85124588px;font-family:'Andale Mono';fill:#333333">UK000006</flowPara></flowRoot>    </g>
  </g>
</svg>
