G04 EAGLE Gerber RS-274X export*
G75*
%MOMM*%
%FSLAX34Y34*%
%LPD*%
%INSoldermask Top*%
%IPPOS*%
%AMOC8*
5,1,8,0,0,1.08239X$1,22.5*%
G01*
%ADD10P,1.951982X8X22.500000*%
%ADD11C,1.803400*%
%ADD12P,1.951982X8X112.500000*%
%ADD13P,1.951982X8X292.500000*%
%ADD14C,1.524000*%
%ADD15C,1.524000*%
%ADD16C,1.727200*%
%ADD17P,1.869504X8X292.500000*%
%ADD18P,1.649562X8X22.500000*%
%ADD19P,1.649562X8X202.500000*%
%ADD20P,1.649562X8X112.500000*%
%ADD21P,1.649562X8X292.500000*%
%ADD22R,1.879600X1.879600*%
%ADD23C,1.879600*%
%ADD24C,0.959600*%


D10*
X1130300Y755650D03*
X1155700Y755650D03*
X1162050Y473075D03*
X1187450Y473075D03*
X1111250Y473075D03*
X1136650Y473075D03*
X1073150Y755650D03*
X1098550Y755650D03*
X1339850Y723900D03*
X1365250Y723900D03*
X1257300Y723900D03*
X1282700Y723900D03*
X1549400Y714375D03*
D11*
X1524000Y714375D03*
D10*
X1035050Y666750D03*
D11*
X1009650Y666750D03*
D10*
X184150Y31750D03*
D11*
X158750Y31750D03*
D12*
X1028700Y866775D03*
X1028700Y892175D03*
D10*
X1333500Y815975D03*
X1358900Y815975D03*
X647700Y482600D03*
X673100Y482600D03*
X546100Y463550D03*
X571500Y463550D03*
X647700Y533400D03*
X673100Y533400D03*
X1498600Y622300D03*
X1524000Y622300D03*
X1549400Y412750D03*
D11*
X1524000Y412750D03*
D10*
X1549400Y622300D03*
X1574800Y622300D03*
X1038225Y949325D03*
D11*
X1012825Y949325D03*
D10*
X1482725Y177800D03*
D11*
X1457325Y177800D03*
D13*
X1473200Y39370D03*
D11*
X1473200Y74930D03*
D12*
X1028700Y784225D03*
X1028700Y809625D03*
D10*
X1549400Y177800D03*
D11*
X1524000Y177800D03*
D10*
X406400Y38100D03*
X431800Y38100D03*
X635000Y38100D03*
X660400Y38100D03*
X863600Y38100D03*
X889000Y38100D03*
X1092200Y38100D03*
X1117600Y38100D03*
D14*
X520700Y583946D02*
X520700Y597154D01*
X546100Y597154D02*
X546100Y583946D01*
X673100Y583946D02*
X673100Y597154D01*
X673100Y660146D02*
X673100Y673354D01*
X571500Y597154D02*
X571500Y583946D01*
X596900Y583946D02*
X596900Y597154D01*
X647700Y597154D02*
X647700Y583946D01*
X622300Y583946D02*
X622300Y597154D01*
X647700Y660146D02*
X647700Y673354D01*
X622300Y673354D02*
X622300Y660146D01*
X596900Y660146D02*
X596900Y673354D01*
X571500Y673354D02*
X571500Y660146D01*
X546100Y660146D02*
X546100Y673354D01*
X520700Y673354D02*
X520700Y660146D01*
D15*
X1495425Y558800D03*
X1495425Y533400D03*
X1571625Y533400D03*
X1571625Y558800D03*
X1495425Y508000D03*
X1495425Y482600D03*
X1571625Y508000D03*
X1571625Y482600D03*
D14*
X1086104Y685800D02*
X1072896Y685800D01*
X1072896Y660400D02*
X1086104Y660400D01*
X1086104Y533400D02*
X1072896Y533400D01*
X1149096Y533400D02*
X1162304Y533400D01*
X1086104Y635000D02*
X1072896Y635000D01*
X1072896Y609600D02*
X1086104Y609600D01*
X1086104Y558800D02*
X1072896Y558800D01*
X1072896Y584200D02*
X1086104Y584200D01*
X1149096Y558800D02*
X1162304Y558800D01*
X1162304Y584200D02*
X1149096Y584200D01*
X1149096Y609600D02*
X1162304Y609600D01*
X1162304Y635000D02*
X1149096Y635000D01*
X1149096Y660400D02*
X1162304Y660400D01*
X1162304Y685800D02*
X1149096Y685800D01*
X177800Y704596D02*
X177800Y717804D01*
X203200Y717804D02*
X203200Y704596D01*
X228600Y704596D02*
X228600Y717804D01*
X254000Y717804D02*
X254000Y704596D01*
X279400Y704596D02*
X279400Y717804D01*
X304800Y717804D02*
X304800Y704596D01*
X330200Y704596D02*
X330200Y717804D01*
X355600Y717804D02*
X355600Y704596D01*
X381000Y704596D02*
X381000Y717804D01*
X406400Y717804D02*
X406400Y704596D01*
X431800Y704596D02*
X431800Y717804D01*
X457200Y717804D02*
X457200Y704596D01*
X482600Y704596D02*
X482600Y717804D01*
X508000Y717804D02*
X508000Y704596D01*
X533400Y704596D02*
X533400Y717804D01*
X558800Y717804D02*
X558800Y704596D01*
X584200Y704596D02*
X584200Y717804D01*
X609600Y717804D02*
X609600Y704596D01*
X635000Y704596D02*
X635000Y717804D01*
X965200Y717804D02*
X965200Y704596D01*
X965200Y933196D02*
X965200Y946404D01*
X635000Y946404D02*
X635000Y933196D01*
X609600Y933196D02*
X609600Y946404D01*
X584200Y946404D02*
X584200Y933196D01*
X558800Y933196D02*
X558800Y946404D01*
X533400Y946404D02*
X533400Y933196D01*
X508000Y933196D02*
X508000Y946404D01*
X482600Y946404D02*
X482600Y933196D01*
X457200Y933196D02*
X457200Y946404D01*
X431800Y946404D02*
X431800Y933196D01*
X406400Y933196D02*
X406400Y946404D01*
X381000Y946404D02*
X381000Y933196D01*
X355600Y933196D02*
X355600Y946404D01*
X330200Y946404D02*
X330200Y933196D01*
X304800Y933196D02*
X304800Y946404D01*
X279400Y946404D02*
X279400Y933196D01*
X254000Y933196D02*
X254000Y946404D01*
X228600Y946404D02*
X228600Y933196D01*
X203200Y933196D02*
X203200Y946404D01*
X177800Y946404D02*
X177800Y933196D01*
X660400Y717804D02*
X660400Y704596D01*
X685800Y704596D02*
X685800Y717804D01*
X711200Y717804D02*
X711200Y704596D01*
X736600Y704596D02*
X736600Y717804D01*
X762000Y717804D02*
X762000Y704596D01*
X787400Y704596D02*
X787400Y717804D01*
X812800Y717804D02*
X812800Y704596D01*
X838200Y704596D02*
X838200Y717804D01*
X863600Y717804D02*
X863600Y704596D01*
X889000Y704596D02*
X889000Y717804D01*
X914400Y717804D02*
X914400Y704596D01*
X939800Y704596D02*
X939800Y717804D01*
X660400Y933196D02*
X660400Y946404D01*
X685800Y946404D02*
X685800Y933196D01*
X711200Y933196D02*
X711200Y946404D01*
X736600Y946404D02*
X736600Y933196D01*
X762000Y933196D02*
X762000Y946404D01*
X787400Y946404D02*
X787400Y933196D01*
X812800Y933196D02*
X812800Y946404D01*
X838200Y946404D02*
X838200Y933196D01*
X863600Y933196D02*
X863600Y946404D01*
X889000Y946404D02*
X889000Y933196D01*
X914400Y933196D02*
X914400Y946404D01*
X939800Y946404D02*
X939800Y933196D01*
X730250Y597154D02*
X730250Y583946D01*
X755650Y583946D02*
X755650Y597154D01*
X781050Y597154D02*
X781050Y583946D01*
X806450Y583946D02*
X806450Y597154D01*
X831850Y597154D02*
X831850Y583946D01*
X857250Y583946D02*
X857250Y597154D01*
X882650Y597154D02*
X882650Y583946D01*
X908050Y583946D02*
X908050Y597154D01*
X933450Y597154D02*
X933450Y583946D01*
X958850Y583946D02*
X958850Y597154D01*
X958850Y660146D02*
X958850Y673354D01*
X933450Y673354D02*
X933450Y660146D01*
X908050Y660146D02*
X908050Y673354D01*
X882650Y673354D02*
X882650Y660146D01*
X857250Y660146D02*
X857250Y673354D01*
X831850Y673354D02*
X831850Y660146D01*
X806450Y660146D02*
X806450Y673354D01*
X781050Y673354D02*
X781050Y660146D01*
X755650Y660146D02*
X755650Y673354D01*
X730250Y673354D02*
X730250Y660146D01*
X1072896Y965200D02*
X1086104Y965200D01*
X1086104Y939800D02*
X1072896Y939800D01*
X1072896Y812800D02*
X1086104Y812800D01*
X1149096Y812800D02*
X1162304Y812800D01*
X1086104Y914400D02*
X1072896Y914400D01*
X1072896Y889000D02*
X1086104Y889000D01*
X1086104Y838200D02*
X1072896Y838200D01*
X1072896Y863600D02*
X1086104Y863600D01*
X1149096Y838200D02*
X1162304Y838200D01*
X1162304Y863600D02*
X1149096Y863600D01*
X1149096Y889000D02*
X1162304Y889000D01*
X1162304Y914400D02*
X1149096Y914400D01*
X1149096Y939800D02*
X1162304Y939800D01*
X1162304Y965200D02*
X1149096Y965200D01*
X1231646Y647700D02*
X1244854Y647700D01*
X1244854Y622300D02*
X1231646Y622300D01*
X1231646Y596900D02*
X1244854Y596900D01*
X1244854Y571500D02*
X1231646Y571500D01*
X1231646Y546100D02*
X1244854Y546100D01*
X1244854Y520700D02*
X1231646Y520700D01*
X1231646Y495300D02*
X1244854Y495300D01*
X1244854Y469900D02*
X1231646Y469900D01*
X1231646Y444500D02*
X1244854Y444500D01*
X1244854Y419100D02*
X1231646Y419100D01*
X1231646Y393700D02*
X1244854Y393700D01*
X1244854Y368300D02*
X1231646Y368300D01*
X1231646Y342900D02*
X1244854Y342900D01*
X1244854Y317500D02*
X1231646Y317500D01*
X1231646Y292100D02*
X1244854Y292100D01*
X1244854Y266700D02*
X1231646Y266700D01*
X1231646Y241300D02*
X1244854Y241300D01*
X1244854Y215900D02*
X1231646Y215900D01*
X1231646Y190500D02*
X1244854Y190500D01*
X1244854Y165100D02*
X1231646Y165100D01*
X1231646Y139700D02*
X1244854Y139700D01*
X1244854Y114300D02*
X1231646Y114300D01*
X1231646Y88900D02*
X1244854Y88900D01*
X1244854Y63500D02*
X1231646Y63500D01*
X1384046Y63500D02*
X1397254Y63500D01*
X1397254Y88900D02*
X1384046Y88900D01*
X1384046Y114300D02*
X1397254Y114300D01*
X1397254Y139700D02*
X1384046Y139700D01*
X1384046Y165100D02*
X1397254Y165100D01*
X1397254Y190500D02*
X1384046Y190500D01*
X1384046Y215900D02*
X1397254Y215900D01*
X1397254Y241300D02*
X1384046Y241300D01*
X1384046Y266700D02*
X1397254Y266700D01*
X1397254Y292100D02*
X1384046Y292100D01*
X1384046Y317500D02*
X1397254Y317500D01*
X1397254Y342900D02*
X1384046Y342900D01*
X1384046Y368300D02*
X1397254Y368300D01*
X1397254Y393700D02*
X1384046Y393700D01*
X1384046Y419100D02*
X1397254Y419100D01*
X1397254Y444500D02*
X1384046Y444500D01*
X1384046Y469900D02*
X1397254Y469900D01*
X1397254Y495300D02*
X1384046Y495300D01*
X1384046Y520700D02*
X1397254Y520700D01*
X1397254Y546100D02*
X1384046Y546100D01*
X1384046Y571500D02*
X1397254Y571500D01*
X1397254Y596900D02*
X1384046Y596900D01*
X1384046Y622300D02*
X1397254Y622300D01*
X1397254Y647700D02*
X1384046Y647700D01*
X1225804Y965200D02*
X1212596Y965200D01*
X1212596Y939800D02*
X1225804Y939800D01*
X1225804Y812800D02*
X1212596Y812800D01*
X1212596Y787400D02*
X1225804Y787400D01*
X1225804Y914400D02*
X1212596Y914400D01*
X1212596Y889000D02*
X1225804Y889000D01*
X1225804Y838200D02*
X1212596Y838200D01*
X1212596Y863600D02*
X1225804Y863600D01*
X1288796Y787400D02*
X1302004Y787400D01*
X1302004Y812800D02*
X1288796Y812800D01*
X1288796Y838200D02*
X1302004Y838200D01*
X1302004Y863600D02*
X1288796Y863600D01*
X1288796Y889000D02*
X1302004Y889000D01*
X1302004Y914400D02*
X1288796Y914400D01*
X1288796Y939800D02*
X1302004Y939800D01*
X1302004Y965200D02*
X1288796Y965200D01*
D16*
X38100Y58420D02*
X38100Y43180D01*
X63500Y43180D02*
X63500Y58420D01*
X88900Y58420D02*
X88900Y43180D01*
X114300Y43180D02*
X114300Y58420D01*
X1554480Y63500D02*
X1569720Y63500D01*
X1569720Y38100D02*
X1554480Y38100D01*
D17*
X76200Y933450D03*
X101600Y933450D03*
X76200Y908050D03*
X101600Y908050D03*
X76200Y882650D03*
X101600Y882650D03*
X76200Y857250D03*
X101600Y857250D03*
X76200Y831850D03*
X101600Y831850D03*
X76200Y806450D03*
X101600Y806450D03*
X76200Y781050D03*
X101600Y781050D03*
X76200Y755650D03*
X101600Y755650D03*
X76200Y730250D03*
X101600Y730250D03*
X76200Y704850D03*
X101600Y704850D03*
X76200Y679450D03*
X101600Y679450D03*
X76200Y654050D03*
X101600Y654050D03*
X76200Y628650D03*
X101600Y628650D03*
X76200Y603250D03*
X101600Y603250D03*
X76200Y577850D03*
X101600Y577850D03*
X76200Y552450D03*
X101600Y552450D03*
X76200Y527050D03*
X101600Y527050D03*
X76200Y501650D03*
X101600Y501650D03*
X76200Y476250D03*
X101600Y476250D03*
X76200Y450850D03*
X101600Y450850D03*
X76200Y425450D03*
X101600Y425450D03*
X76200Y400050D03*
X101600Y400050D03*
X76200Y374650D03*
X101600Y374650D03*
X76200Y349250D03*
X101600Y349250D03*
X76200Y323850D03*
X101600Y323850D03*
X76200Y298450D03*
X101600Y298450D03*
X76200Y273050D03*
X101600Y273050D03*
X76200Y247650D03*
X101600Y247650D03*
X76200Y222250D03*
X101600Y222250D03*
X76200Y196850D03*
X101600Y196850D03*
X76200Y171450D03*
X101600Y171450D03*
X76200Y146050D03*
X101600Y146050D03*
D18*
X1155700Y228600D03*
X1181100Y228600D03*
X1158875Y88900D03*
X1184275Y88900D03*
X1435100Y920750D03*
X1460500Y920750D03*
D19*
X1374775Y920750D03*
X1349375Y920750D03*
D15*
X1167130Y390525D03*
X1118870Y390525D03*
X534670Y533400D03*
X582930Y533400D03*
D20*
X682625Y774700D03*
X682625Y876300D03*
X444500Y774700D03*
X444500Y876300D03*
X479425Y476250D03*
X479425Y577850D03*
X708025Y774700D03*
X708025Y876300D03*
X1463675Y381000D03*
X1463675Y482600D03*
X1568450Y774700D03*
X1568450Y876300D03*
X1473200Y749300D03*
X1473200Y850900D03*
D21*
X1397000Y850900D03*
X1397000Y749300D03*
D20*
X1200150Y533400D03*
X1200150Y635000D03*
D21*
X1035050Y577850D03*
X1035050Y476250D03*
D20*
X1104900Y228600D03*
X1104900Y330200D03*
X1104900Y101600D03*
X1104900Y203200D03*
X736600Y774700D03*
X736600Y876300D03*
D21*
X447675Y577850D03*
X447675Y476250D03*
D20*
X762000Y774700D03*
X762000Y876300D03*
X812800Y774700D03*
X812800Y876300D03*
X495300Y774700D03*
X495300Y876300D03*
D16*
X1526794Y899668D02*
X1526794Y914908D01*
X1572006Y914908D02*
X1572006Y899668D01*
X1526794Y964692D02*
X1526794Y979932D01*
X1572006Y979932D02*
X1572006Y964692D01*
D22*
X228600Y381000D03*
D23*
X228600Y355600D03*
X228600Y330200D03*
X228600Y304800D03*
X228600Y279400D03*
X228600Y254000D03*
X228600Y228600D03*
X228600Y203200D03*
X228600Y177800D03*
X228600Y152400D03*
X228600Y127000D03*
X228600Y101600D03*
X228600Y76200D03*
X228600Y50800D03*
X381000Y50800D03*
X381000Y76200D03*
X381000Y101600D03*
X381000Y127000D03*
X381000Y152400D03*
X381000Y177800D03*
X381000Y203200D03*
X381000Y228600D03*
X381000Y254000D03*
X381000Y279400D03*
X381000Y304800D03*
X381000Y330200D03*
X381000Y355600D03*
X381000Y381000D03*
D22*
X457200Y381000D03*
D23*
X457200Y355600D03*
X457200Y330200D03*
X457200Y304800D03*
X457200Y279400D03*
X457200Y254000D03*
X457200Y228600D03*
X457200Y203200D03*
X457200Y177800D03*
X457200Y152400D03*
X457200Y127000D03*
X457200Y101600D03*
X457200Y76200D03*
X457200Y50800D03*
X609600Y50800D03*
X609600Y76200D03*
X609600Y101600D03*
X609600Y127000D03*
X609600Y152400D03*
X609600Y177800D03*
X609600Y203200D03*
X609600Y228600D03*
X609600Y254000D03*
X609600Y279400D03*
X609600Y304800D03*
X609600Y330200D03*
X609600Y355600D03*
X609600Y381000D03*
D22*
X685800Y431800D03*
D23*
X685800Y406400D03*
X685800Y381000D03*
X685800Y355600D03*
X685800Y330200D03*
X685800Y304800D03*
X685800Y279400D03*
X685800Y254000D03*
X685800Y228600D03*
X685800Y203200D03*
X685800Y177800D03*
X685800Y152400D03*
X685800Y127000D03*
X685800Y101600D03*
X685800Y76200D03*
X685800Y50800D03*
X838200Y50800D03*
X838200Y76200D03*
X838200Y101600D03*
X838200Y127000D03*
X838200Y152400D03*
X838200Y177800D03*
X838200Y203200D03*
X838200Y228600D03*
X838200Y254000D03*
X838200Y279400D03*
X838200Y304800D03*
X838200Y330200D03*
X838200Y355600D03*
X838200Y381000D03*
X838200Y406400D03*
X838200Y431800D03*
D22*
X914400Y431800D03*
D23*
X914400Y406400D03*
X914400Y381000D03*
X914400Y355600D03*
X914400Y330200D03*
X914400Y304800D03*
X914400Y279400D03*
X914400Y254000D03*
X914400Y228600D03*
X914400Y203200D03*
X914400Y177800D03*
X914400Y152400D03*
X914400Y127000D03*
X914400Y101600D03*
X914400Y76200D03*
X914400Y50800D03*
X1066800Y50800D03*
X1066800Y76200D03*
X1066800Y101600D03*
X1066800Y127000D03*
X1066800Y152400D03*
X1066800Y177800D03*
X1066800Y203200D03*
X1066800Y228600D03*
X1066800Y254000D03*
X1066800Y279400D03*
X1066800Y304800D03*
X1066800Y330200D03*
X1066800Y355600D03*
X1066800Y381000D03*
X1066800Y406400D03*
X1066800Y431800D03*
D14*
X177800Y501396D02*
X177800Y514604D01*
X203200Y514604D02*
X203200Y501396D01*
X228600Y501396D02*
X228600Y514604D01*
X254000Y514604D02*
X254000Y501396D01*
X279400Y501396D02*
X279400Y514604D01*
X304800Y514604D02*
X304800Y501396D01*
X330200Y501396D02*
X330200Y514604D01*
X355600Y514604D02*
X355600Y501396D01*
X381000Y501396D02*
X381000Y514604D01*
X406400Y514604D02*
X406400Y501396D01*
X406400Y577596D02*
X406400Y590804D01*
X381000Y590804D02*
X381000Y577596D01*
X355600Y577596D02*
X355600Y590804D01*
X330200Y590804D02*
X330200Y577596D01*
X304800Y577596D02*
X304800Y590804D01*
X279400Y590804D02*
X279400Y577596D01*
X254000Y577596D02*
X254000Y590804D01*
X228600Y590804D02*
X228600Y577596D01*
X203200Y577596D02*
X203200Y590804D01*
X177800Y590804D02*
X177800Y577596D01*
D12*
X330200Y444500D03*
X330200Y469900D03*
D13*
X450850Y641350D03*
X450850Y615950D03*
D24*
X623888Y166688D03*
X314325Y833438D03*
X292100Y476250D03*
X625475Y558800D03*
X288925Y542925D03*
X627063Y109538D03*
X269875Y858838D03*
X269875Y460375D03*
X631825Y407988D03*
X292100Y422275D03*
X760413Y96838D03*
X222250Y433388D03*
X606425Y420688D03*
X307975Y404813D03*
X600075Y407988D03*
X317500Y382588D03*
X395288Y52388D03*
X276225Y657225D03*
X125413Y646113D03*
X209550Y95250D03*
X711200Y61913D03*
X630238Y80963D03*
X150813Y319088D03*
X327025Y319088D03*
X858838Y234950D03*
X398463Y236538D03*
X144463Y293688D03*
X439738Y290513D03*
X879475Y285750D03*
X876300Y454025D03*
X320675Y271463D03*
X1265238Y168275D03*
X179388Y115888D03*
X1271588Y149225D03*
X327025Y192088D03*
X144463Y693738D03*
X138113Y196850D03*
X1001713Y169863D03*
X320675Y184150D03*
X138113Y176213D03*
X668338Y25400D03*
X1285875Y139700D03*
X1165225Y158750D03*
X701675Y725488D03*
X260350Y663575D03*
X847725Y825500D03*
X371475Y395288D03*
X500063Y623888D03*
X323850Y390525D03*
X352425Y463550D03*
X409575Y476250D03*
X417513Y417513D03*
X739775Y420688D03*
X727075Y385763D03*
X698500Y601663D03*
X727075Y449263D03*
X153988Y490538D03*
X180975Y393700D03*
X798513Y527050D03*
X993775Y874713D03*
X660400Y474663D03*
X987425Y915988D03*
X723900Y790575D03*
X65088Y590550D03*
X733425Y374650D03*
X55563Y431800D03*
X406400Y411163D03*
X814388Y254000D03*
X854075Y747713D03*
X836613Y754063D03*
X87313Y331788D03*
X930275Y922338D03*
X935038Y338138D03*
X49213Y349250D03*
X882650Y320675D03*
X190500Y795338D03*
X190500Y280988D03*
X976313Y298450D03*
X58738Y276225D03*
X1204913Y401638D03*
X1238250Y706438D03*
X36513Y273050D03*
X969963Y247650D03*
X962025Y566738D03*
X933450Y812800D03*
X963613Y222250D03*
X61913Y196850D03*
X920750Y504825D03*
X895350Y496888D03*
X122238Y163513D03*
X755650Y432118D03*
X655638Y608013D03*
X669925Y457200D03*
X1384300Y760413D03*
X123825Y784225D03*
X173038Y633413D03*
X184150Y803275D03*
X812800Y806450D03*
X336550Y641350D03*
X61913Y577850D03*
X336550Y611188D03*
X346075Y277813D03*
X90488Y282575D03*
X366713Y290513D03*
X1054100Y604838D03*
X612775Y639763D03*
X993775Y636588D03*
X590550Y482600D03*
X366713Y334963D03*
X466725Y725488D03*
X584200Y611188D03*
X619125Y819150D03*
X346075Y558800D03*
X407988Y628650D03*
X317500Y527050D03*
X876300Y561975D03*
X254000Y639763D03*
X46038Y647700D03*
X782638Y558800D03*
X400050Y565150D03*
X1206500Y674688D03*
X260350Y354013D03*
X949325Y758825D03*
X320675Y800100D03*
X414338Y611188D03*
X82550Y565150D03*
X222250Y652463D03*
X825500Y762000D03*
X125413Y765175D03*
X200025Y669925D03*
X206375Y735013D03*
X131763Y514350D03*
X295275Y233363D03*
X263525Y623888D03*
X247650Y774700D03*
X301625Y219075D03*
X873125Y219075D03*
X157163Y565150D03*
X301625Y565150D03*
X288925Y617538D03*
X777875Y617538D03*
X160338Y520700D03*
X901700Y169863D03*
X901700Y517525D03*
X234950Y490538D03*
X179388Y817563D03*
X358775Y450850D03*
X942975Y447675D03*
X376238Y630238D03*
X800100Y639763D03*
X422275Y663575D03*
X835025Y630238D03*
X157163Y755650D03*
X157163Y552450D03*
X336550Y549275D03*
X1182688Y620713D03*
X434975Y571500D03*
X1261781Y66675D03*
X1255713Y57150D03*
X1419225Y663575D03*
M02*
