M48
; DRILL file {KiCad (5.1.5-0-10_14)} date Tuesday, 17 March 2020 at 20:03:47
; FORMAT={-:-/ absolute / inch / decimal}
; #@! TF.CreationDate,2020-03-17T20:03:47+00:00
; #@! TF.GenerationSoftware,Kicad,Pcbnew,(5.1.5-0-10_14)
; #@! TF.FileFunction,Plated,1,4,PTH
FMAT,2
INCH
T1C0.0138
T2C0.0157
T3C0.0320
T4C0.0394
T5C0.0400
T6C0.0440
%
G90
G05
T1
X2.8191Y-5.0295
X2.8566Y-3.5545
X2.8691Y-4.7295
X2.8941Y-4.4045
X2.9066Y-5.017
X2.9191Y-3.8295
X2.9191Y-5.3295
X2.9316Y-3.7795
X3.0004Y-3.8795
X3.0191Y-4.7982
X3.0316Y-4.992
X3.1566Y-5.4607
X3.1635Y-3.015
X3.1691Y-3.092
X3.1691Y-3.5607
X3.1941Y-4.0795
X3.2191Y-5.3295
X3.2191Y-5.4107
X3.2441Y-3.3732
X3.2441Y-4.9482
X3.2691Y-4.8482
X3.2816Y-4.1732
X3.2941Y-3.1295
X3.2941Y-3.8795
X3.2941Y-3.9295
X3.3566Y-3.6107
X3.3816Y-5.6482
X3.3879Y-4.5545
X3.4004Y-2.942
X3.4254Y-2.9732
X3.4254Y-4.9982
X3.4629Y-3.467
X3.4879Y-3.2107
X3.5004Y-5.7295
X3.5504Y-3.5357
X3.5504Y-4.3982
X3.6754Y-3.5857
X3.7004Y-3.492
X3.7004Y-4.7107
X3.7129Y-3.6482
X3.7379Y-4.292
X3.7395Y-2.6265
X3.7629Y-3.517
X3.8129Y-3.6732
X3.8129Y-3.967
X3.8254Y-4.2295
X3.8254Y-4.442
X3.8379Y-5.1857
X3.8629Y-3.8795
X3.8629Y-5.242
X3.8879Y-4.5107
X3.9254Y-4.0295
X3.9254Y-4.5982
X3.9379Y-2.9545
X3.9379Y-5.0357
X3.9379Y-5.3795
X3.9504Y-4.567
X3.9629Y-4.8482
X3.9629Y-5.3482
X4.0004Y-3.5795
X4.0004Y-3.6982
X4.0004Y-3.942
X4.0379Y-3.9045
X4.0379Y-5.0107
X4.0629Y-4.2795
X4.0879Y-4.3295
X4.1191Y-4.7857
X4.1191Y-4.9607
X4.1379Y-4.5482
X4.1566Y-3.6232
X4.2316Y-5.8982
X4.2441Y-5.1732
X4.2504Y-3.8795
X4.2754Y-4.4857
X4.2816Y-3.6295
X4.2879Y-4.2295
X4.3066Y-3.6982
X4.3191Y-4.4607
X4.3379Y-3.492
X4.3879Y-3.8545
X4.4066Y-4.9607
X4.5129Y-3.2482
X4.6441Y-3.6482
X4.9754Y-3.6982
X5.0004Y-4.2045
X5.0379Y-4.4982
X5.0629Y-4.4482
X5.0879Y-3.5857
X5.1129Y-2.8795
X5.1316Y-5.4482
X5.1379Y-3.9045
X5.1441Y-5.6732
X5.1566Y-5.7857
X5.1629Y-4.4982
X5.2566Y-3.7107
X5.2754Y-4.2357
X5.3066Y-6.0045
X5.3129Y-4.3045
X5.4254Y-3.7357
X5.4379Y-3.2482
X5.4754Y-5.8607
X5.5254Y-2.992
X5.5379Y-4.3357
X5.5379Y-4.5857
X5.5629Y-4.6295
X5.5879Y-4.4482
X5.6Y-4.4032
X5.6691Y-5.7232
X5.7379Y-3.6732
X5.7566Y-3.9045
X5.8191Y-4.0295
X5.8254Y-3.5857
X5.8754Y-2.9295
X5.8816Y-5.1045
X5.9254Y-3.1045
X5.9629Y-3.6232
X5.9691Y-3.1357
X6.0129Y-2.8545
X6.0379Y-3.1607
X6.0566Y-5.1795
X6.1129Y-5.242
X6.1254Y-3.942
X6.1254Y-4.317
X6.1379Y-4.9795
X6.1504Y-4.842
X6.2004Y-4.1482
X6.2254Y-4.067
X6.2254Y-5.4357
X6.3379Y-2.4732
X6.3504Y-2.9045
X6.3566Y-4.7732
X6.3879Y-4.342
X6.4129Y-3.117
X6.4629Y-3.8732
X6.4691Y-5.2295
X6.4941Y-5.1295
X6.5191Y-4.9295
X6.521Y-5.3985
X6.5629Y-2.4982
X6.5879Y-2.6607
X6.5879Y-3.5982
X6.8254Y-3.7232
X7.166Y-5.4795
X7.3316Y-3.6607
X7.4191Y-4.5232
X7.4254Y-3.4482
X8.1254Y-3.1107
X8.3275Y-3.4715
T2
X3.303Y-2.716
X3.3263Y-2.7454
X3.3528Y-2.7719
X3.8501Y-2.6465
X4.6195Y-3.051
X5.1745Y-2.764
X5.276Y-2.7392
X5.347Y-3.0797
X5.375Y-2.7145
X5.4009Y-3.971
X5.4256Y-4.2
X5.4635Y-3.0545
X5.8585Y-6.0145
X6.0605Y-5.7045
X6.442Y-5.698
X6.4944Y-3.952
X6.7385Y-5.6975
X7.223Y-5.4055
X7.2295Y-6.0602
X7.288Y-5.81
X7.296Y-5.4465
X7.4685Y-3.272
X7.5385Y-3.312
X7.6765Y-4.3145
X7.739Y-5.449
X7.7695Y-5.477
X7.803Y-5.706
X7.8238Y-4.7955
X7.85Y-6.0355
X7.8785Y-5.572
X8.055Y-3.5905
X8.0646Y-5.174
X8.075Y-5.3917
X8.1045Y-3.0375
X8.263Y-4.318
X8.2877Y-5.0625
X8.288Y-4.0928
X8.3525Y-3.559
X8.6805Y-3.4085
X8.714Y-3.437
T3
X8.4185Y-2.652
X8.4185Y-3.052
X7.4754Y-2.3045
X7.4754Y-2.4045
X7.4754Y-2.5045
X7.4754Y-2.6045
X7.4754Y-2.7045
X7.4754Y-2.8045
X7.4754Y-2.9045
X7.4754Y-3.0045
X7.7754Y-2.3045
X7.7754Y-2.4045
X7.7754Y-2.5045
X7.7754Y-2.6045
X7.7754Y-2.7045
X7.7754Y-2.8045
X7.7754Y-2.9045
X7.7754Y-3.0045
X6.7504Y-3.8295
X6.7504Y-4.2295
X7.952Y-2.7953
X8.052Y-2.7953
X4.8254Y-4.2795
X4.9254Y-4.2795
X8.5085Y-3.102
X8.9085Y-3.102
X5.6754Y-2.6545
X5.6754Y-3.0545
X3.2874Y-5.4291
X3.3874Y-5.4291
X5.5754Y-2.6545
X5.5754Y-3.0545
X6.9754Y-5.9545
X7.0754Y-5.9545
X7.1254Y-3.1295
X7.2254Y-3.1295
X8.4094Y-5.3276
X8.4094Y-5.7276
X7.2504Y-4.242
X7.3504Y-4.242
X5.1754Y-5.9545
X5.2754Y-5.9545
X7.0804Y-4.567
X7.2704Y-4.567
X4.1725Y-2.6515
X4.1725Y-3.0515
X5.5504Y-3.4795
X5.5504Y-3.7795
X5.6504Y-3.4795
X5.6504Y-3.7795
X5.7504Y-3.4795
X5.7504Y-3.7795
X5.8504Y-3.4795
X5.8504Y-3.7795
X5.9504Y-3.4795
X5.9504Y-3.7795
X6.0504Y-3.4795
X6.0504Y-3.7795
X6.1504Y-3.4795
X6.1504Y-3.7795
X6.2504Y-3.4795
X6.2504Y-3.7795
X6.3504Y-3.4795
X6.3504Y-3.7795
X6.4504Y-3.4795
X6.4504Y-3.7795
X4.0645Y-2.6515
X4.0645Y-3.0515
X6.9004Y-3.1295
X7.0004Y-3.1295
X7.4004Y-3.6045
X7.4004Y-4.0045
X8.759Y-3.7475
X8.759Y-3.8475
X6.6629Y-2.367
X6.7629Y-2.367
X8.6085Y-3.272
X8.6085Y-3.372
X8.6085Y-3.472
X8.6085Y-3.572
X8.9085Y-3.272
X8.9085Y-3.372
X8.9085Y-3.472
X8.9085Y-3.572
X7.9985Y-3.262
X8.0985Y-3.262
X6.9254Y-3.4045
X6.9254Y-3.5045
X6.9254Y-3.6045
X6.9254Y-3.7045
X6.9254Y-3.8045
X6.9254Y-3.9045
X6.9254Y-4.0045
X7.2254Y-3.4045
X7.2254Y-3.5045
X7.2254Y-3.6045
X7.2254Y-3.7045
X7.2254Y-3.8045
X7.2254Y-3.9045
X7.2254Y-4.0045
X7.2379Y-5.7545
X7.3379Y-5.7545
X4.2754Y-5.9545
X4.3754Y-5.9545
X8.597Y-3.967
X8.597Y-4.367
X7.9879Y-2.3895
X8.0879Y-2.3895
X7.2254Y-5.2045
X7.3254Y-5.2045
X6.7254Y-2.592
X6.7254Y-2.692
X7.0504Y-4.242
X7.1504Y-4.242
X4.4504Y-3.5795
X4.4504Y-3.6795
X3.3754Y-2.4045
X3.3754Y-3.3045
X3.4754Y-2.4045
X3.4754Y-3.3045
X3.5754Y-2.4045
X3.5754Y-3.3045
X3.6754Y-2.4045
X3.6754Y-3.3045
X3.7754Y-2.4045
X3.7754Y-3.3045
X3.8754Y-2.4045
X3.8754Y-3.3045
X3.9754Y-2.4045
X3.9754Y-3.3045
X4.0754Y-2.4045
X4.0754Y-3.3045
X4.1754Y-2.4045
X4.1754Y-3.3045
X4.2754Y-2.4045
X4.2754Y-3.3045
X4.3754Y-2.4045
X4.3754Y-3.3045
X4.4754Y-2.4045
X4.4754Y-3.3045
X4.5754Y-2.4045
X4.5754Y-3.3045
X4.6754Y-2.4045
X4.6754Y-3.3045
X4.7754Y-2.4045
X4.7754Y-3.3045
X4.8754Y-2.4045
X4.8754Y-3.3045
X4.9754Y-2.4045
X4.9754Y-3.3045
X5.0754Y-2.4045
X5.0754Y-3.3045
X5.1754Y-2.4045
X5.1754Y-3.3045
X5.2754Y-2.4045
X5.2754Y-3.3045
X5.3754Y-2.4045
X5.3754Y-3.3045
X5.4754Y-2.4045
X5.4754Y-3.3045
X5.5754Y-2.4045
X5.5754Y-3.3045
X5.6754Y-2.4045
X5.6754Y-3.3045
X5.7754Y-2.4045
X5.7754Y-3.3045
X5.8754Y-2.4045
X5.8754Y-3.3045
X5.9754Y-2.4045
X5.9754Y-3.3045
X6.0754Y-2.4045
X6.0754Y-3.3045
X6.1754Y-2.4045
X6.1754Y-3.3045
X6.2754Y-2.4045
X6.2754Y-3.3045
X6.3754Y-2.4045
X6.3754Y-3.3045
X6.4754Y-2.4045
X6.4754Y-3.3045
X7.5054Y-3.1845
X7.6054Y-3.1845
X8.2283Y-2.652
X8.2283Y-3.052
X3.2874Y-5.128
X3.3874Y-5.128
X4.4379Y-3.8295
X4.4379Y-4.2295
X7.0254Y-5.3045
X7.0254Y-5.7045
X6.0754Y-5.9545
X6.1754Y-5.9545
X8.3975Y-3.967
X8.3975Y-4.367
X3.3754Y-3.8045
X3.3754Y-4.1045
X3.4754Y-3.8045
X3.4754Y-4.1045
X3.5754Y-3.8045
X3.5754Y-4.1045
X3.6754Y-3.8045
X3.6754Y-4.1045
X3.7754Y-3.8045
X3.7754Y-4.1045
X3.8754Y-3.8045
X3.8754Y-4.1045
X3.9754Y-3.8045
X3.9754Y-4.1045
X4.0754Y-3.8045
X4.0754Y-4.1045
X4.1754Y-3.8045
X4.1754Y-4.1045
X4.2754Y-3.8045
X4.2754Y-4.1045
X5.0725Y-2.656
X5.0725Y-3.056
X7.5504Y-3.5545
X7.5504Y-3.6545
X7.5504Y-3.7545
X7.5504Y-3.8545
X7.5504Y-3.9545
X7.5504Y-4.0545
X7.5504Y-4.1545
X7.5504Y-4.2545
X7.5504Y-4.3545
X7.5504Y-4.4545
X7.5504Y-4.5545
X7.5504Y-4.6545
X7.5504Y-4.7545
X7.5504Y-4.8545
X7.5504Y-4.9545
X7.5504Y-5.0545
X7.5504Y-5.1545
X7.5504Y-5.2545
X7.5504Y-5.3545
X7.5504Y-5.4545
X7.5504Y-5.5545
X7.5504Y-5.6545
X7.5504Y-5.7545
X7.5504Y-5.8545
X8.1504Y-3.5545
X8.1504Y-3.6545
X8.1504Y-3.7545
X8.1504Y-3.8545
X8.1504Y-3.9545
X8.1504Y-4.0545
X8.1504Y-4.1545
X8.1504Y-4.2545
X8.1504Y-4.3545
X8.1504Y-4.4545
X8.1504Y-4.5545
X8.1504Y-4.6545
X8.1504Y-4.7545
X8.1504Y-4.8545
X8.1504Y-4.9545
X8.1504Y-5.0545
X8.1504Y-5.1545
X8.1504Y-5.2545
X8.1504Y-5.3545
X8.1504Y-5.4545
X8.1504Y-5.5545
X8.1504Y-5.6545
X8.1504Y-5.7545
X8.1504Y-5.8545
X5.2254Y-4.2045
X5.3254Y-4.2045
X4.7804Y-4.0045
X4.9704Y-4.0045
X8.3254Y-2.3895
X8.4254Y-2.3895
X8.4285Y-3.232
X8.4285Y-3.332
X7.7485Y-3.182
X7.8485Y-3.182
X6.7254Y-2.917
X6.7254Y-3.017
X8.3673Y-5.9528
X8.4673Y-5.9528
X7.0254Y-4.8045
X7.0254Y-5.2045
X5.65Y-4.2323
X6.05Y-4.2323
X4.5629Y-3.8295
X4.5629Y-4.2295
X6.9254Y-2.3045
X6.9254Y-2.4045
X6.9254Y-2.5045
X6.9254Y-2.6045
X6.9254Y-2.7045
X6.9254Y-2.8045
X6.9254Y-2.9045
X7.2254Y-2.3045
X7.2254Y-2.4045
X7.2254Y-2.5045
X7.2254Y-2.6045
X7.2254Y-2.7045
X7.2254Y-2.8045
X7.2254Y-2.9045
X3.2075Y-5.824
X3.3475Y-5.824
X3.9754Y-4.2545
X3.9754Y-4.3545
X5.2254Y-4.0045
X5.3254Y-4.0045
X5.8754Y-2.6545
X5.8754Y-3.0545
X6.6504Y-3.4795
X6.7504Y-3.4795
X4.7254Y-3.4795
X4.7254Y-3.7795
X4.8254Y-3.4795
X4.8254Y-3.7795
X4.9254Y-3.4795
X4.9254Y-3.7795
X5.0254Y-3.4795
X5.0254Y-3.7795
X5.1254Y-3.4795
X5.1254Y-3.7795
X5.2254Y-3.4795
X5.2254Y-3.7795
X5.3254Y-3.4795
X5.3254Y-3.7795
X8.43Y-3.741
X8.53Y-3.741
T4
X8.5969Y-5.0638
X8.5969Y-5.1638
X8.5969Y-5.2638
X8.5969Y-5.3638
X8.5969Y-5.4638
X8.5969Y-5.5638
X8.5969Y-5.6638
X8.5969Y-5.7638
X8.6969Y-5.0638
X8.6969Y-5.1638
X8.6969Y-5.2638
X8.6969Y-5.3638
X8.6969Y-5.4638
X8.6969Y-5.5638
X8.6969Y-5.6638
X8.6969Y-5.7638
T5
X8.8205Y-4.0175
X8.8205Y-4.1175
X8.8205Y-4.2175
X8.8205Y-4.3175
X2.9754Y-2.4295
X2.9754Y-2.5295
X2.9754Y-2.6295
X2.9754Y-2.7295
X2.9754Y-2.8295
X2.9754Y-2.9295
X2.9754Y-3.0295
X2.9754Y-3.1295
X2.9754Y-3.2295
X2.9754Y-3.3295
X2.9754Y-3.4295
X2.9754Y-3.5295
X2.9754Y-3.6295
X2.9754Y-3.7295
X2.9754Y-3.8295
X2.9754Y-3.9295
X2.9754Y-4.0295
X2.9754Y-4.1295
X2.9754Y-4.2295
X2.9754Y-4.3295
X2.9754Y-4.4295
X2.9754Y-4.5295
X2.9754Y-4.6295
X2.9754Y-4.7295
X2.9754Y-4.8295
X2.9754Y-4.9295
X2.9754Y-5.0295
X2.9754Y-5.1295
X2.9754Y-5.2295
X2.9754Y-5.3295
X3.0754Y-2.4295
X3.0754Y-2.5295
X3.0754Y-2.6295
X3.0754Y-2.7295
X3.0754Y-2.8295
X3.0754Y-2.9295
X3.0754Y-3.0295
X3.0754Y-3.1295
X3.0754Y-3.2295
X3.0754Y-3.3295
X3.0754Y-3.4295
X3.0754Y-3.5295
X3.0754Y-3.6295
X3.0754Y-3.7295
X3.0754Y-3.8295
X3.0754Y-3.9295
X3.0754Y-4.0295
X3.0754Y-4.1295
X3.0754Y-4.2295
X3.0754Y-4.3295
X3.0754Y-4.4295
X3.0754Y-4.5295
X3.0754Y-4.6295
X3.0754Y-4.7295
X3.0754Y-4.8295
X3.0754Y-4.9295
X3.0754Y-5.0295
X3.0754Y-5.1295
X3.0754Y-5.2295
X3.0754Y-5.3295
X8.6512Y-2.5787
X8.6512Y-2.8347
X8.8292Y-2.5787
X8.8292Y-2.8347
X2.9764Y-5.6941
X2.9764Y-5.7941
X2.9754Y-5.4295
X2.9754Y-5.5295
X3.0754Y-5.4295
X3.0754Y-5.5295
T6
X5.3754Y-4.4045
X5.3754Y-4.5045
X5.3754Y-4.6045
X5.3754Y-4.7045
X5.3754Y-4.8045
X5.3754Y-4.9045
X5.3754Y-5.0045
X5.3754Y-5.1045
X5.3754Y-5.2045
X5.3754Y-5.3045
X5.3754Y-5.4045
X5.3754Y-5.5045
X5.3754Y-5.6045
X5.3754Y-5.7045
X5.3754Y-5.8045
X5.3754Y-5.9045
X5.9754Y-4.4045
X5.9754Y-4.5045
X5.9754Y-4.6045
X5.9754Y-4.7045
X5.9754Y-4.8045
X5.9754Y-4.9045
X5.9754Y-5.0045
X5.9754Y-5.1045
X5.9754Y-5.2045
X5.9754Y-5.3045
X5.9754Y-5.4045
X5.9754Y-5.5045
X5.9754Y-5.6045
X5.9754Y-5.7045
X5.9754Y-5.8045
X5.9754Y-5.9045
X4.4754Y-4.6045
X4.4754Y-4.7045
X4.4754Y-4.8045
X4.4754Y-4.9045
X4.4754Y-5.0045
X4.4754Y-5.1045
X4.4754Y-5.2045
X4.4754Y-5.3045
X4.4754Y-5.4045
X4.4754Y-5.5045
X4.4754Y-5.6045
X4.4754Y-5.7045
X4.4754Y-5.8045
X4.4754Y-5.9045
X5.0754Y-4.6045
X5.0754Y-4.7045
X5.0754Y-4.8045
X5.0754Y-4.9045
X5.0754Y-5.0045
X5.0754Y-5.1045
X5.0754Y-5.2045
X5.0754Y-5.3045
X5.0754Y-5.4045
X5.0754Y-5.5045
X5.0754Y-5.6045
X5.0754Y-5.7045
X5.0754Y-5.8045
X5.0754Y-5.9045
X6.2754Y-4.4045
X6.2754Y-4.5045
X6.2754Y-4.6045
X6.2754Y-4.7045
X6.2754Y-4.8045
X6.2754Y-4.9045
X6.2754Y-5.0045
X6.2754Y-5.1045
X6.2754Y-5.2045
X6.2754Y-5.3045
X6.2754Y-5.4045
X6.2754Y-5.5045
X6.2754Y-5.6045
X6.2754Y-5.7045
X6.2754Y-5.8045
X6.2754Y-5.9045
X6.8754Y-4.4045
X6.8754Y-4.5045
X6.8754Y-4.6045
X6.8754Y-4.7045
X6.8754Y-4.8045
X6.8754Y-4.9045
X6.8754Y-5.0045
X6.8754Y-5.1045
X6.8754Y-5.2045
X6.8754Y-5.3045
X6.8754Y-5.4045
X6.8754Y-5.5045
X6.8754Y-5.6045
X6.8754Y-5.7045
X6.8754Y-5.8045
X6.8754Y-5.9045
X3.5754Y-4.6045
X3.5754Y-4.7045
X3.5754Y-4.8045
X3.5754Y-4.9045
X3.5754Y-5.0045
X3.5754Y-5.1045
X3.5754Y-5.2045
X3.5754Y-5.3045
X3.5754Y-5.4045
X3.5754Y-5.5045
X3.5754Y-5.6045
X3.5754Y-5.7045
X3.5754Y-5.8045
X3.5754Y-5.9045
X4.1754Y-4.6045
X4.1754Y-4.7045
X4.1754Y-4.8045
X4.1754Y-4.9045
X4.1754Y-5.0045
X4.1754Y-5.1045
X4.1754Y-5.2045
X4.1754Y-5.3045
X4.1754Y-5.4045
X4.1754Y-5.5045
X4.1754Y-5.6045
X4.1754Y-5.7045
X4.1754Y-5.8045
X4.1754Y-5.9045
T0
M30
