G04 #@! TF.GenerationSoftware,KiCad,Pcbnew,(5.1.5-0-10_14)*
G04 #@! TF.CreationDate,2020-03-17T19:24:24+00:00*
G04 #@! TF.ProjectId,rosco_m68k,726f7363-6f5f-46d3-9638-6b2e6b696361,rev?*
G04 #@! TF.SameCoordinates,Original*
G04 #@! TF.FileFunction,Legend,Bot*
G04 #@! TF.FilePolarity,Positive*
%FSLAX46Y46*%
G04 Gerber Fmt 4.6, Leading zero omitted, Abs format (unit mm)*
G04 Created by KiCad (PCBNEW (5.1.5-0-10_14)) date 2020-03-17 19:24:24*
%MOMM*%
%LPD*%
G04 APERTURE LIST*
%ADD10C,0.174752*%
%ADD11C,0.113792*%
%ADD12C,0.010000*%
G04 APERTURE END LIST*
D10*
X225771044Y-116877914D02*
X225771044Y-115711248D01*
X225771044Y-116044581D02*
X225687711Y-115877914D01*
X225604377Y-115794581D01*
X225437711Y-115711248D01*
X225271044Y-115711248D01*
X224437711Y-116877914D02*
X224604377Y-116794581D01*
X224687711Y-116711248D01*
X224771044Y-116544581D01*
X224771044Y-116044581D01*
X224687711Y-115877914D01*
X224604377Y-115794581D01*
X224437711Y-115711248D01*
X224187711Y-115711248D01*
X224021044Y-115794581D01*
X223937711Y-115877914D01*
X223854377Y-116044581D01*
X223854377Y-116544581D01*
X223937711Y-116711248D01*
X224021044Y-116794581D01*
X224187711Y-116877914D01*
X224437711Y-116877914D01*
X223187711Y-116794581D02*
X223021044Y-116877914D01*
X222687711Y-116877914D01*
X222521044Y-116794581D01*
X222437711Y-116627914D01*
X222437711Y-116544581D01*
X222521044Y-116377914D01*
X222687711Y-116294581D01*
X222937711Y-116294581D01*
X223104377Y-116211248D01*
X223187711Y-116044581D01*
X223187711Y-115961248D01*
X223104377Y-115794581D01*
X222937711Y-115711248D01*
X222687711Y-115711248D01*
X222521044Y-115794581D01*
X220937711Y-116794581D02*
X221104377Y-116877914D01*
X221437711Y-116877914D01*
X221604377Y-116794581D01*
X221687711Y-116711248D01*
X221771044Y-116544581D01*
X221771044Y-116044581D01*
X221687711Y-115877914D01*
X221604377Y-115794581D01*
X221437711Y-115711248D01*
X221104377Y-115711248D01*
X220937711Y-115794581D01*
X219937711Y-116877914D02*
X220104377Y-116794581D01*
X220187711Y-116711248D01*
X220271044Y-116544581D01*
X220271044Y-116044581D01*
X220187711Y-115877914D01*
X220104377Y-115794581D01*
X219937711Y-115711248D01*
X219687711Y-115711248D01*
X219521044Y-115794581D01*
X219437711Y-115877914D01*
X219354377Y-116044581D01*
X219354377Y-116544581D01*
X219437711Y-116711248D01*
X219521044Y-116794581D01*
X219687711Y-116877914D01*
X219937711Y-116877914D01*
X219021044Y-117044581D02*
X217687711Y-117044581D01*
X217271044Y-116877914D02*
X217271044Y-115711248D01*
X217271044Y-115877914D02*
X217187711Y-115794581D01*
X217021044Y-115711248D01*
X216771044Y-115711248D01*
X216604377Y-115794581D01*
X216521044Y-115961248D01*
X216521044Y-116877914D01*
X216521044Y-115961248D02*
X216437711Y-115794581D01*
X216271044Y-115711248D01*
X216021044Y-115711248D01*
X215854377Y-115794581D01*
X215771044Y-115961248D01*
X215771044Y-116877914D01*
X214187711Y-115127914D02*
X214521044Y-115127914D01*
X214687711Y-115211248D01*
X214771044Y-115294581D01*
X214937711Y-115544581D01*
X215021044Y-115877914D01*
X215021044Y-116544581D01*
X214937711Y-116711248D01*
X214854377Y-116794581D01*
X214687711Y-116877914D01*
X214354377Y-116877914D01*
X214187711Y-116794581D01*
X214104377Y-116711248D01*
X214021044Y-116544581D01*
X214021044Y-116127914D01*
X214104377Y-115961248D01*
X214187711Y-115877914D01*
X214354377Y-115794581D01*
X214687711Y-115794581D01*
X214854377Y-115877914D01*
X214937711Y-115961248D01*
X215021044Y-116127914D01*
X213021044Y-115877914D02*
X213187711Y-115794581D01*
X213271044Y-115711248D01*
X213354377Y-115544581D01*
X213354377Y-115461248D01*
X213271044Y-115294581D01*
X213187711Y-115211248D01*
X213021044Y-115127914D01*
X212687711Y-115127914D01*
X212521044Y-115211248D01*
X212437711Y-115294581D01*
X212354377Y-115461248D01*
X212354377Y-115544581D01*
X212437711Y-115711248D01*
X212521044Y-115794581D01*
X212687711Y-115877914D01*
X213021044Y-115877914D01*
X213187711Y-115961248D01*
X213271044Y-116044581D01*
X213354377Y-116211248D01*
X213354377Y-116544581D01*
X213271044Y-116711248D01*
X213187711Y-116794581D01*
X213021044Y-116877914D01*
X212687711Y-116877914D01*
X212521044Y-116794581D01*
X212437711Y-116711248D01*
X212354377Y-116544581D01*
X212354377Y-116211248D01*
X212437711Y-116044581D01*
X212521044Y-115961248D01*
X212687711Y-115877914D01*
X211604377Y-116877914D02*
X211604377Y-115127914D01*
X211437711Y-116211248D02*
X210937711Y-116877914D01*
X210937711Y-115711248D02*
X211604377Y-116377914D01*
X225771044Y-119677666D02*
X225771044Y-118511000D01*
X225771044Y-118844333D02*
X225687711Y-118677666D01*
X225604377Y-118594333D01*
X225437711Y-118511000D01*
X225271044Y-118511000D01*
X224021044Y-119594333D02*
X224187711Y-119677666D01*
X224521044Y-119677666D01*
X224687711Y-119594333D01*
X224771044Y-119427666D01*
X224771044Y-118761000D01*
X224687711Y-118594333D01*
X224521044Y-118511000D01*
X224187711Y-118511000D01*
X224021044Y-118594333D01*
X223937711Y-118761000D01*
X223937711Y-118927666D01*
X224771044Y-119094333D01*
X223354377Y-118511000D02*
X222937711Y-119677666D01*
X222521044Y-118511000D01*
X221854377Y-119677666D02*
X221854377Y-118511000D01*
X221854377Y-117927666D02*
X221937711Y-118011000D01*
X221854377Y-118094333D01*
X221771044Y-118011000D01*
X221854377Y-117927666D01*
X221854377Y-118094333D01*
X221104377Y-119594333D02*
X220937711Y-119677666D01*
X220604377Y-119677666D01*
X220437711Y-119594333D01*
X220354377Y-119427666D01*
X220354377Y-119344333D01*
X220437711Y-119177666D01*
X220604377Y-119094333D01*
X220854377Y-119094333D01*
X221021044Y-119011000D01*
X221104377Y-118844333D01*
X221104377Y-118761000D01*
X221021044Y-118594333D01*
X220854377Y-118511000D01*
X220604377Y-118511000D01*
X220437711Y-118594333D01*
X219604377Y-119677666D02*
X219604377Y-118511000D01*
X219604377Y-117927666D02*
X219687711Y-118011000D01*
X219604377Y-118094333D01*
X219521044Y-118011000D01*
X219604377Y-117927666D01*
X219604377Y-118094333D01*
X218521044Y-119677666D02*
X218687711Y-119594333D01*
X218771044Y-119511000D01*
X218854377Y-119344333D01*
X218854377Y-118844333D01*
X218771044Y-118677666D01*
X218687711Y-118594333D01*
X218521044Y-118511000D01*
X218271044Y-118511000D01*
X218104377Y-118594333D01*
X218021044Y-118677666D01*
X217937711Y-118844333D01*
X217937711Y-119344333D01*
X218021044Y-119511000D01*
X218104377Y-119594333D01*
X218271044Y-119677666D01*
X218521044Y-119677666D01*
X217187711Y-118511000D02*
X217187711Y-119677666D01*
X217187711Y-118677666D02*
X217104377Y-118594333D01*
X216937711Y-118511000D01*
X216687711Y-118511000D01*
X216521044Y-118594333D01*
X216437711Y-118761000D01*
X216437711Y-119677666D01*
X214021044Y-119677666D02*
X214187711Y-119594333D01*
X214271044Y-119511000D01*
X214354377Y-119344333D01*
X214354377Y-118844333D01*
X214271044Y-118677666D01*
X214187711Y-118594333D01*
X214021044Y-118511000D01*
X213771044Y-118511000D01*
X213604377Y-118594333D01*
X213521044Y-118677666D01*
X213437711Y-118844333D01*
X213437711Y-119344333D01*
X213521044Y-119511000D01*
X213604377Y-119594333D01*
X213771044Y-119677666D01*
X214021044Y-119677666D01*
X212687711Y-118511000D02*
X212687711Y-119677666D01*
X212687711Y-118677666D02*
X212604377Y-118594333D01*
X212437711Y-118511000D01*
X212187711Y-118511000D01*
X212021044Y-118594333D01*
X211937711Y-118761000D01*
X211937711Y-119677666D01*
X210437711Y-119594333D02*
X210604377Y-119677666D01*
X210937711Y-119677666D01*
X211104377Y-119594333D01*
X211187711Y-119427666D01*
X211187711Y-118761000D01*
X211104377Y-118594333D01*
X210937711Y-118511000D01*
X210604377Y-118511000D01*
X210437711Y-118594333D01*
X210354377Y-118761000D01*
X210354377Y-118927666D01*
X211187711Y-119094333D01*
D11*
X225021681Y-123035906D02*
X225150375Y-123100253D01*
X225407761Y-123100253D01*
X225536455Y-123035906D01*
X225600801Y-122971560D01*
X225665148Y-122842866D01*
X225665148Y-122456786D01*
X225600801Y-122328093D01*
X225536455Y-122263746D01*
X225407761Y-122199400D01*
X225150375Y-122199400D01*
X225021681Y-122263746D01*
X224249521Y-123100253D02*
X224378215Y-123035906D01*
X224442561Y-122971560D01*
X224506908Y-122842866D01*
X224506908Y-122456786D01*
X224442561Y-122328093D01*
X224378215Y-122263746D01*
X224249521Y-122199400D01*
X224056481Y-122199400D01*
X223927788Y-122263746D01*
X223863441Y-122328093D01*
X223799095Y-122456786D01*
X223799095Y-122842866D01*
X223863441Y-122971560D01*
X223927788Y-123035906D01*
X224056481Y-123100253D01*
X224249521Y-123100253D01*
X223219975Y-122199400D02*
X223219975Y-123550680D01*
X223219975Y-122263746D02*
X223091281Y-122199400D01*
X222833895Y-122199400D01*
X222705201Y-122263746D01*
X222640855Y-122328093D01*
X222576508Y-122456786D01*
X222576508Y-122842866D01*
X222640855Y-122971560D01*
X222705201Y-123035906D01*
X222833895Y-123100253D01*
X223091281Y-123100253D01*
X223219975Y-123035906D01*
X222126081Y-122199400D02*
X221804348Y-123100253D01*
X221482615Y-122199400D02*
X221804348Y-123100253D01*
X221933041Y-123421986D01*
X221997388Y-123486333D01*
X222126081Y-123550680D01*
X220967841Y-123100253D02*
X220967841Y-122199400D01*
X220967841Y-122456786D02*
X220903495Y-122328093D01*
X220839148Y-122263746D01*
X220710455Y-122199400D01*
X220581761Y-122199400D01*
X220131335Y-123100253D02*
X220131335Y-122199400D01*
X220131335Y-121748973D02*
X220195681Y-121813320D01*
X220131335Y-121877666D01*
X220066988Y-121813320D01*
X220131335Y-121748973D01*
X220131335Y-121877666D01*
X218908748Y-122199400D02*
X218908748Y-123293293D01*
X218973095Y-123421986D01*
X219037441Y-123486333D01*
X219166135Y-123550680D01*
X219359175Y-123550680D01*
X219487868Y-123486333D01*
X218908748Y-123035906D02*
X219037441Y-123100253D01*
X219294828Y-123100253D01*
X219423521Y-123035906D01*
X219487868Y-122971560D01*
X219552215Y-122842866D01*
X219552215Y-122456786D01*
X219487868Y-122328093D01*
X219423521Y-122263746D01*
X219294828Y-122199400D01*
X219037441Y-122199400D01*
X218908748Y-122263746D01*
X218265281Y-123100253D02*
X218265281Y-121748973D01*
X217686161Y-123100253D02*
X217686161Y-122392440D01*
X217750508Y-122263746D01*
X217879201Y-122199400D01*
X218072241Y-122199400D01*
X218200935Y-122263746D01*
X218265281Y-122328093D01*
X217235735Y-122199400D02*
X216720961Y-122199400D01*
X217042695Y-121748973D02*
X217042695Y-122907213D01*
X216978348Y-123035906D01*
X216849655Y-123100253D01*
X216720961Y-123100253D01*
X215305335Y-121877666D02*
X215240988Y-121813320D01*
X215112295Y-121748973D01*
X214790561Y-121748973D01*
X214661868Y-121813320D01*
X214597521Y-121877666D01*
X214533175Y-122006360D01*
X214533175Y-122135053D01*
X214597521Y-122328093D01*
X215369681Y-123100253D01*
X214533175Y-123100253D01*
X213696668Y-121748973D02*
X213567975Y-121748973D01*
X213439281Y-121813320D01*
X213374935Y-121877666D01*
X213310588Y-122006360D01*
X213246241Y-122263746D01*
X213246241Y-122585480D01*
X213310588Y-122842866D01*
X213374935Y-122971560D01*
X213439281Y-123035906D01*
X213567975Y-123100253D01*
X213696668Y-123100253D01*
X213825361Y-123035906D01*
X213889708Y-122971560D01*
X213954055Y-122842866D01*
X214018401Y-122585480D01*
X214018401Y-122263746D01*
X213954055Y-122006360D01*
X213889708Y-121877666D01*
X213825361Y-121813320D01*
X213696668Y-121748973D01*
X212731468Y-121877666D02*
X212667121Y-121813320D01*
X212538428Y-121748973D01*
X212216695Y-121748973D01*
X212088001Y-121813320D01*
X212023655Y-121877666D01*
X211959308Y-122006360D01*
X211959308Y-122135053D01*
X212023655Y-122328093D01*
X212795815Y-123100253D01*
X211959308Y-123100253D01*
X211122801Y-121748973D02*
X210994108Y-121748973D01*
X210865415Y-121813320D01*
X210801068Y-121877666D01*
X210736721Y-122006360D01*
X210672375Y-122263746D01*
X210672375Y-122585480D01*
X210736721Y-122842866D01*
X210801068Y-122971560D01*
X210865415Y-123035906D01*
X210994108Y-123100253D01*
X211122801Y-123100253D01*
X211251495Y-123035906D01*
X211315841Y-122971560D01*
X211380188Y-122842866D01*
X211444535Y-122585480D01*
X211444535Y-122263746D01*
X211380188Y-122006360D01*
X211315841Y-121877666D01*
X211251495Y-121813320D01*
X211122801Y-121748973D01*
D12*
G36*
X110763577Y-72454733D02*
G01*
X110732198Y-72476976D01*
X110704489Y-72504685D01*
X110704489Y-72814120D01*
X110704562Y-72905999D01*
X110704905Y-72978040D01*
X110705708Y-73032980D01*
X110707159Y-73073560D01*
X110709448Y-73102517D01*
X110712764Y-73122591D01*
X110717295Y-73136521D01*
X110723231Y-73147045D01*
X110727886Y-73153300D01*
X110758617Y-73177873D01*
X110793904Y-73180541D01*
X110826155Y-73165471D01*
X110836812Y-73156574D01*
X110843936Y-73144757D01*
X110848233Y-73125726D01*
X110850409Y-73095192D01*
X110851172Y-73048862D01*
X110851245Y-73013071D01*
X110851245Y-72878245D01*
X111347956Y-72878245D01*
X111347956Y-73000900D01*
X111348469Y-73056987D01*
X111350524Y-73095533D01*
X111354892Y-73121561D01*
X111362344Y-73140097D01*
X111371353Y-73153300D01*
X111402256Y-73177804D01*
X111437204Y-73180706D01*
X111470662Y-73163289D01*
X111479796Y-73154159D01*
X111486248Y-73142055D01*
X111490503Y-73123201D01*
X111493048Y-73093820D01*
X111494371Y-73050137D01*
X111494957Y-72988375D01*
X111495025Y-72974200D01*
X111495509Y-72857831D01*
X111495759Y-72761927D01*
X111495677Y-72684377D01*
X111495169Y-72623069D01*
X111494138Y-72575890D01*
X111492487Y-72540730D01*
X111490121Y-72515476D01*
X111486943Y-72498017D01*
X111482856Y-72486241D01*
X111477766Y-72478035D01*
X111472134Y-72471845D01*
X111440272Y-72452044D01*
X111407043Y-72454733D01*
X111375665Y-72476976D01*
X111362967Y-72491326D01*
X111354874Y-72507178D01*
X111350358Y-72529754D01*
X111348394Y-72564278D01*
X111347956Y-72615976D01*
X111347956Y-72731489D01*
X110851245Y-72731489D01*
X110851245Y-72612956D01*
X110850738Y-72558348D01*
X110848702Y-72521475D01*
X110844365Y-72497507D01*
X110836953Y-72481615D01*
X110828667Y-72471845D01*
X110796806Y-72452044D01*
X110763577Y-72454733D01*
G37*
X110763577Y-72454733D02*
X110732198Y-72476976D01*
X110704489Y-72504685D01*
X110704489Y-72814120D01*
X110704562Y-72905999D01*
X110704905Y-72978040D01*
X110705708Y-73032980D01*
X110707159Y-73073560D01*
X110709448Y-73102517D01*
X110712764Y-73122591D01*
X110717295Y-73136521D01*
X110723231Y-73147045D01*
X110727886Y-73153300D01*
X110758617Y-73177873D01*
X110793904Y-73180541D01*
X110826155Y-73165471D01*
X110836812Y-73156574D01*
X110843936Y-73144757D01*
X110848233Y-73125726D01*
X110850409Y-73095192D01*
X110851172Y-73048862D01*
X110851245Y-73013071D01*
X110851245Y-72878245D01*
X111347956Y-72878245D01*
X111347956Y-73000900D01*
X111348469Y-73056987D01*
X111350524Y-73095533D01*
X111354892Y-73121561D01*
X111362344Y-73140097D01*
X111371353Y-73153300D01*
X111402256Y-73177804D01*
X111437204Y-73180706D01*
X111470662Y-73163289D01*
X111479796Y-73154159D01*
X111486248Y-73142055D01*
X111490503Y-73123201D01*
X111493048Y-73093820D01*
X111494371Y-73050137D01*
X111494957Y-72988375D01*
X111495025Y-72974200D01*
X111495509Y-72857831D01*
X111495759Y-72761927D01*
X111495677Y-72684377D01*
X111495169Y-72623069D01*
X111494138Y-72575890D01*
X111492487Y-72540730D01*
X111490121Y-72515476D01*
X111486943Y-72498017D01*
X111482856Y-72486241D01*
X111477766Y-72478035D01*
X111472134Y-72471845D01*
X111440272Y-72452044D01*
X111407043Y-72454733D01*
X111375665Y-72476976D01*
X111362967Y-72491326D01*
X111354874Y-72507178D01*
X111350358Y-72529754D01*
X111348394Y-72564278D01*
X111347956Y-72615976D01*
X111347956Y-72731489D01*
X110851245Y-72731489D01*
X110851245Y-72612956D01*
X110850738Y-72558348D01*
X110848702Y-72521475D01*
X110844365Y-72497507D01*
X110836953Y-72481615D01*
X110828667Y-72471845D01*
X110796806Y-72452044D01*
X110763577Y-72454733D01*
G36*
X112029335Y-72449363D02*
G01*
X111950628Y-72449742D01*
X111889537Y-72450533D01*
X111843583Y-72451870D01*
X111810286Y-72453883D01*
X111787164Y-72456706D01*
X111771738Y-72460469D01*
X111761529Y-72465305D01*
X111756587Y-72469022D01*
X111730943Y-72501558D01*
X111727841Y-72535338D01*
X111743689Y-72566026D01*
X111754052Y-72578289D01*
X111765204Y-72586650D01*
X111781365Y-72591857D01*
X111806758Y-72594657D01*
X111845602Y-72595796D01*
X111902120Y-72596021D01*
X111913220Y-72596022D01*
X112059156Y-72596022D01*
X112059156Y-72866956D01*
X112059252Y-72952354D01*
X112059689Y-73018064D01*
X112060688Y-73066974D01*
X112062472Y-73101973D01*
X112065263Y-73125949D01*
X112069283Y-73141793D01*
X112074755Y-73152391D01*
X112081734Y-73160467D01*
X112114666Y-73180312D01*
X112149046Y-73178748D01*
X112180224Y-73156106D01*
X112182514Y-73153300D01*
X112189971Y-73142692D01*
X112195653Y-73130281D01*
X112199799Y-73113050D01*
X112202650Y-73087984D01*
X112204446Y-73052067D01*
X112205428Y-73002283D01*
X112205836Y-72935617D01*
X112205911Y-72859789D01*
X112205911Y-72596022D01*
X112345273Y-72596022D01*
X112405078Y-72595618D01*
X112446482Y-72594040D01*
X112473652Y-72590747D01*
X112490754Y-72585192D01*
X112501957Y-72576831D01*
X112503317Y-72575378D01*
X112519675Y-72542139D01*
X112518228Y-72504562D01*
X112499422Y-72471845D01*
X112492150Y-72465498D01*
X112482773Y-72460466D01*
X112468791Y-72456596D01*
X112447704Y-72453737D01*
X112417011Y-72451735D01*
X112374211Y-72450439D01*
X112316805Y-72449698D01*
X112242290Y-72449358D01*
X112148167Y-72449268D01*
X112128140Y-72449267D01*
X112029335Y-72449363D01*
G37*
X112029335Y-72449363D02*
X111950628Y-72449742D01*
X111889537Y-72450533D01*
X111843583Y-72451870D01*
X111810286Y-72453883D01*
X111787164Y-72456706D01*
X111771738Y-72460469D01*
X111761529Y-72465305D01*
X111756587Y-72469022D01*
X111730943Y-72501558D01*
X111727841Y-72535338D01*
X111743689Y-72566026D01*
X111754052Y-72578289D01*
X111765204Y-72586650D01*
X111781365Y-72591857D01*
X111806758Y-72594657D01*
X111845602Y-72595796D01*
X111902120Y-72596021D01*
X111913220Y-72596022D01*
X112059156Y-72596022D01*
X112059156Y-72866956D01*
X112059252Y-72952354D01*
X112059689Y-73018064D01*
X112060688Y-73066974D01*
X112062472Y-73101973D01*
X112065263Y-73125949D01*
X112069283Y-73141793D01*
X112074755Y-73152391D01*
X112081734Y-73160467D01*
X112114666Y-73180312D01*
X112149046Y-73178748D01*
X112180224Y-73156106D01*
X112182514Y-73153300D01*
X112189971Y-73142692D01*
X112195653Y-73130281D01*
X112199799Y-73113050D01*
X112202650Y-73087984D01*
X112204446Y-73052067D01*
X112205428Y-73002283D01*
X112205836Y-72935617D01*
X112205911Y-72859789D01*
X112205911Y-72596022D01*
X112345273Y-72596022D01*
X112405078Y-72595618D01*
X112446482Y-72594040D01*
X112473652Y-72590747D01*
X112490754Y-72585192D01*
X112501957Y-72576831D01*
X112503317Y-72575378D01*
X112519675Y-72542139D01*
X112518228Y-72504562D01*
X112499422Y-72471845D01*
X112492150Y-72465498D01*
X112482773Y-72460466D01*
X112468791Y-72456596D01*
X112447704Y-72453737D01*
X112417011Y-72451735D01*
X112374211Y-72450439D01*
X112316805Y-72449698D01*
X112242290Y-72449358D01*
X112148167Y-72449268D01*
X112128140Y-72449267D01*
X112029335Y-72449363D01*
G36*
X112803786Y-72456077D02*
G01*
X112780073Y-72470847D01*
X112753422Y-72492427D01*
X112753422Y-72813973D01*
X112753507Y-72908030D01*
X112753871Y-72982132D01*
X112754676Y-73038904D01*
X112756087Y-73080968D01*
X112758267Y-73110948D01*
X112761379Y-73131467D01*
X112765586Y-73145149D01*
X112771052Y-73154616D01*
X112774928Y-73159282D01*
X112806366Y-73179775D01*
X112842167Y-73178939D01*
X112873527Y-73161464D01*
X112900178Y-73139884D01*
X112900178Y-72492427D01*
X112873527Y-72470847D01*
X112847806Y-72455149D01*
X112826800Y-72449267D01*
X112803786Y-72456077D01*
G37*
X112803786Y-72456077D02*
X112780073Y-72470847D01*
X112753422Y-72492427D01*
X112753422Y-72813973D01*
X112753507Y-72908030D01*
X112753871Y-72982132D01*
X112754676Y-73038904D01*
X112756087Y-73080968D01*
X112758267Y-73110948D01*
X112761379Y-73131467D01*
X112765586Y-73145149D01*
X112771052Y-73154616D01*
X112774928Y-73159282D01*
X112806366Y-73179775D01*
X112842167Y-73178939D01*
X112873527Y-73161464D01*
X112900178Y-73139884D01*
X112900178Y-72492427D01*
X112873527Y-72470847D01*
X112847806Y-72455149D01*
X112826800Y-72449267D01*
X112803786Y-72456077D01*
G36*
X113247735Y-72451234D02*
G01*
X113228145Y-72458235D01*
X113227390Y-72458577D01*
X113200787Y-72478878D01*
X113186130Y-72499761D01*
X113183262Y-72509552D01*
X113183404Y-72522561D01*
X113187439Y-72541095D01*
X113196254Y-72567457D01*
X113210731Y-72603952D01*
X113231755Y-72652887D01*
X113260212Y-72716565D01*
X113296985Y-72797293D01*
X113317225Y-72841416D01*
X113353775Y-72920185D01*
X113388085Y-72992623D01*
X113418848Y-73056080D01*
X113444752Y-73107908D01*
X113464490Y-73145459D01*
X113476750Y-73166084D01*
X113479176Y-73168933D01*
X113510217Y-73181502D01*
X113545279Y-73179819D01*
X113573400Y-73164532D01*
X113574546Y-73163289D01*
X113585732Y-73146354D01*
X113604496Y-73113370D01*
X113628525Y-73068580D01*
X113655503Y-73016232D01*
X113665199Y-72996942D01*
X113738386Y-72850350D01*
X113818160Y-73009593D01*
X113846633Y-73064615D01*
X113873050Y-73112332D01*
X113895252Y-73149093D01*
X113911081Y-73171244D01*
X113916446Y-73175941D01*
X113958143Y-73182302D01*
X113992551Y-73168933D01*
X114002672Y-73154646D01*
X114020186Y-73122892D01*
X114043665Y-73076797D01*
X114071680Y-73019485D01*
X114102801Y-72954080D01*
X114135601Y-72883707D01*
X114168650Y-72811491D01*
X114200519Y-72740555D01*
X114229781Y-72674025D01*
X114255005Y-72615026D01*
X114274764Y-72566681D01*
X114287628Y-72532115D01*
X114292169Y-72514453D01*
X114292123Y-72513813D01*
X114281074Y-72491588D01*
X114258990Y-72468953D01*
X114257690Y-72467968D01*
X114230547Y-72452625D01*
X114205442Y-72452774D01*
X114196032Y-72455666D01*
X114184566Y-72461918D01*
X114172390Y-72474214D01*
X114158043Y-72495108D01*
X114140064Y-72527149D01*
X114116993Y-72572888D01*
X114087370Y-72634877D01*
X114060655Y-72692098D01*
X114029920Y-72758426D01*
X114002379Y-72818074D01*
X113979462Y-72867925D01*
X113962602Y-72904864D01*
X113953227Y-72925773D01*
X113951860Y-72929045D01*
X113945711Y-72923697D01*
X113931578Y-72901309D01*
X113911343Y-72865146D01*
X113886885Y-72818477D01*
X113877152Y-72799222D01*
X113844183Y-72734204D01*
X113818757Y-72686854D01*
X113798788Y-72654419D01*
X113782190Y-72634146D01*
X113766876Y-72623282D01*
X113750760Y-72619075D01*
X113740257Y-72618600D01*
X113721730Y-72620242D01*
X113705496Y-72627031D01*
X113689365Y-72641766D01*
X113671149Y-72667244D01*
X113648661Y-72706261D01*
X113619711Y-72761614D01*
X113603738Y-72793103D01*
X113577830Y-72843287D01*
X113555233Y-72884904D01*
X113537942Y-72914442D01*
X113527950Y-72928389D01*
X113526591Y-72928970D01*
X113520139Y-72917993D01*
X113505692Y-72889490D01*
X113484697Y-72846444D01*
X113458603Y-72791838D01*
X113428854Y-72728654D01*
X113414220Y-72697271D01*
X113376150Y-72616278D01*
X113345495Y-72553956D01*
X113320663Y-72508271D01*
X113300063Y-72477189D01*
X113282102Y-72458678D01*
X113265190Y-72450704D01*
X113247735Y-72451234D01*
G37*
X113247735Y-72451234D02*
X113228145Y-72458235D01*
X113227390Y-72458577D01*
X113200787Y-72478878D01*
X113186130Y-72499761D01*
X113183262Y-72509552D01*
X113183404Y-72522561D01*
X113187439Y-72541095D01*
X113196254Y-72567457D01*
X113210731Y-72603952D01*
X113231755Y-72652887D01*
X113260212Y-72716565D01*
X113296985Y-72797293D01*
X113317225Y-72841416D01*
X113353775Y-72920185D01*
X113388085Y-72992623D01*
X113418848Y-73056080D01*
X113444752Y-73107908D01*
X113464490Y-73145459D01*
X113476750Y-73166084D01*
X113479176Y-73168933D01*
X113510217Y-73181502D01*
X113545279Y-73179819D01*
X113573400Y-73164532D01*
X113574546Y-73163289D01*
X113585732Y-73146354D01*
X113604496Y-73113370D01*
X113628525Y-73068580D01*
X113655503Y-73016232D01*
X113665199Y-72996942D01*
X113738386Y-72850350D01*
X113818160Y-73009593D01*
X113846633Y-73064615D01*
X113873050Y-73112332D01*
X113895252Y-73149093D01*
X113911081Y-73171244D01*
X113916446Y-73175941D01*
X113958143Y-73182302D01*
X113992551Y-73168933D01*
X114002672Y-73154646D01*
X114020186Y-73122892D01*
X114043665Y-73076797D01*
X114071680Y-73019485D01*
X114102801Y-72954080D01*
X114135601Y-72883707D01*
X114168650Y-72811491D01*
X114200519Y-72740555D01*
X114229781Y-72674025D01*
X114255005Y-72615026D01*
X114274764Y-72566681D01*
X114287628Y-72532115D01*
X114292169Y-72514453D01*
X114292123Y-72513813D01*
X114281074Y-72491588D01*
X114258990Y-72468953D01*
X114257690Y-72467968D01*
X114230547Y-72452625D01*
X114205442Y-72452774D01*
X114196032Y-72455666D01*
X114184566Y-72461918D01*
X114172390Y-72474214D01*
X114158043Y-72495108D01*
X114140064Y-72527149D01*
X114116993Y-72572888D01*
X114087370Y-72634877D01*
X114060655Y-72692098D01*
X114029920Y-72758426D01*
X114002379Y-72818074D01*
X113979462Y-72867925D01*
X113962602Y-72904864D01*
X113953227Y-72925773D01*
X113951860Y-72929045D01*
X113945711Y-72923697D01*
X113931578Y-72901309D01*
X113911343Y-72865146D01*
X113886885Y-72818477D01*
X113877152Y-72799222D01*
X113844183Y-72734204D01*
X113818757Y-72686854D01*
X113798788Y-72654419D01*
X113782190Y-72634146D01*
X113766876Y-72623282D01*
X113750760Y-72619075D01*
X113740257Y-72618600D01*
X113721730Y-72620242D01*
X113705496Y-72627031D01*
X113689365Y-72641766D01*
X113671149Y-72667244D01*
X113648661Y-72706261D01*
X113619711Y-72761614D01*
X113603738Y-72793103D01*
X113577830Y-72843287D01*
X113555233Y-72884904D01*
X113537942Y-72914442D01*
X113527950Y-72928389D01*
X113526591Y-72928970D01*
X113520139Y-72917993D01*
X113505692Y-72889490D01*
X113484697Y-72846444D01*
X113458603Y-72791838D01*
X113428854Y-72728654D01*
X113414220Y-72697271D01*
X113376150Y-72616278D01*
X113345495Y-72553956D01*
X113320663Y-72508271D01*
X113300063Y-72477189D01*
X113282102Y-72458678D01*
X113265190Y-72450704D01*
X113247735Y-72451234D01*
G36*
X115974091Y-72449475D02*
G01*
X115845112Y-72453836D01*
X115735409Y-72467061D01*
X115643174Y-72489941D01*
X115566598Y-72523270D01*
X115503873Y-72567838D01*
X115453188Y-72624436D01*
X115412737Y-72693858D01*
X115411941Y-72695551D01*
X115387799Y-72757683D01*
X115379197Y-72812709D01*
X115386169Y-72868087D01*
X115408746Y-72931273D01*
X115413028Y-72940889D01*
X115442228Y-72997166D01*
X115475044Y-73040651D01*
X115517398Y-73077617D01*
X115575210Y-73114335D01*
X115578569Y-73116252D01*
X115628896Y-73140427D01*
X115685779Y-73158482D01*
X115752873Y-73171039D01*
X115833835Y-73178722D01*
X115932318Y-73182153D01*
X115967114Y-73182451D01*
X116132806Y-73183045D01*
X116156203Y-73153300D01*
X116163143Y-73143519D01*
X116168558Y-73132097D01*
X116172635Y-73116295D01*
X116175563Y-73093375D01*
X116177533Y-73060596D01*
X116178175Y-73036289D01*
X116021556Y-73036289D01*
X115927674Y-73036289D01*
X115872736Y-73034683D01*
X115816340Y-73030455D01*
X115770055Y-73024492D01*
X115767261Y-73023990D01*
X115685052Y-73001936D01*
X115621286Y-72968800D01*
X115573948Y-72923047D01*
X115541018Y-72863139D01*
X115535292Y-72847261D01*
X115529679Y-72822533D01*
X115532109Y-72798102D01*
X115543933Y-72765600D01*
X115551060Y-72749634D01*
X115574400Y-72707206D01*
X115602520Y-72677440D01*
X115633460Y-72656711D01*
X115695434Y-72629737D01*
X115774749Y-72610198D01*
X115867147Y-72598946D01*
X115934067Y-72596470D01*
X116021556Y-72596022D01*
X116021556Y-73036289D01*
X116178175Y-73036289D01*
X116178732Y-73015221D01*
X116179350Y-72954511D01*
X116179575Y-72875726D01*
X116179600Y-72814120D01*
X116179600Y-72504685D01*
X116151891Y-72476976D01*
X116139594Y-72465744D01*
X116126297Y-72458053D01*
X116107728Y-72453240D01*
X116079614Y-72450646D01*
X116037683Y-72449610D01*
X115977663Y-72449470D01*
X115974091Y-72449475D01*
G37*
X115974091Y-72449475D02*
X115845112Y-72453836D01*
X115735409Y-72467061D01*
X115643174Y-72489941D01*
X115566598Y-72523270D01*
X115503873Y-72567838D01*
X115453188Y-72624436D01*
X115412737Y-72693858D01*
X115411941Y-72695551D01*
X115387799Y-72757683D01*
X115379197Y-72812709D01*
X115386169Y-72868087D01*
X115408746Y-72931273D01*
X115413028Y-72940889D01*
X115442228Y-72997166D01*
X115475044Y-73040651D01*
X115517398Y-73077617D01*
X115575210Y-73114335D01*
X115578569Y-73116252D01*
X115628896Y-73140427D01*
X115685779Y-73158482D01*
X115752873Y-73171039D01*
X115833835Y-73178722D01*
X115932318Y-73182153D01*
X115967114Y-73182451D01*
X116132806Y-73183045D01*
X116156203Y-73153300D01*
X116163143Y-73143519D01*
X116168558Y-73132097D01*
X116172635Y-73116295D01*
X116175563Y-73093375D01*
X116177533Y-73060596D01*
X116178175Y-73036289D01*
X116021556Y-73036289D01*
X115927674Y-73036289D01*
X115872736Y-73034683D01*
X115816340Y-73030455D01*
X115770055Y-73024492D01*
X115767261Y-73023990D01*
X115685052Y-73001936D01*
X115621286Y-72968800D01*
X115573948Y-72923047D01*
X115541018Y-72863139D01*
X115535292Y-72847261D01*
X115529679Y-72822533D01*
X115532109Y-72798102D01*
X115543933Y-72765600D01*
X115551060Y-72749634D01*
X115574400Y-72707206D01*
X115602520Y-72677440D01*
X115633460Y-72656711D01*
X115695434Y-72629737D01*
X115774749Y-72610198D01*
X115867147Y-72598946D01*
X115934067Y-72596470D01*
X116021556Y-72596022D01*
X116021556Y-73036289D01*
X116178175Y-73036289D01*
X116178732Y-73015221D01*
X116179350Y-72954511D01*
X116179575Y-72875726D01*
X116179600Y-72814120D01*
X116179600Y-72504685D01*
X116151891Y-72476976D01*
X116139594Y-72465744D01*
X116126297Y-72458053D01*
X116107728Y-72453240D01*
X116079614Y-72450646D01*
X116037683Y-72449610D01*
X115977663Y-72449470D01*
X115974091Y-72449475D01*
G36*
X116762057Y-72449460D02*
G01*
X116685699Y-72450374D01*
X116627183Y-72452511D01*
X116584145Y-72456375D01*
X116554217Y-72462467D01*
X116535032Y-72471290D01*
X116524224Y-72483346D01*
X116519427Y-72499139D01*
X116518273Y-72519170D01*
X116518267Y-72521535D01*
X116519269Y-72544192D01*
X116524004Y-72561703D01*
X116535067Y-72574774D01*
X116555052Y-72584113D01*
X116586554Y-72590427D01*
X116632168Y-72594422D01*
X116694487Y-72596806D01*
X116776107Y-72598286D01*
X116801123Y-72598614D01*
X117043200Y-72601667D01*
X117046586Y-72666578D01*
X117049971Y-72731489D01*
X116881824Y-72731489D01*
X116816134Y-72731731D01*
X116769228Y-72732756D01*
X116737317Y-72735011D01*
X116716609Y-72738942D01*
X116703316Y-72744998D01*
X116693645Y-72753624D01*
X116693583Y-72753693D01*
X116676044Y-72787312D01*
X116676678Y-72823648D01*
X116695086Y-72854623D01*
X116698729Y-72857807D01*
X116711659Y-72866012D01*
X116729376Y-72871721D01*
X116755830Y-72875362D01*
X116794968Y-72877367D01*
X116850738Y-72878164D01*
X116886406Y-72878245D01*
X117048845Y-72878245D01*
X117048845Y-73036289D01*
X116802239Y-73036289D01*
X116720820Y-73036431D01*
X116658990Y-73037014D01*
X116613763Y-73038268D01*
X116582152Y-73040427D01*
X116561169Y-73043723D01*
X116547827Y-73048389D01*
X116539139Y-73054657D01*
X116536950Y-73056933D01*
X116520786Y-73088480D01*
X116519603Y-73124368D01*
X116532864Y-73155485D01*
X116543357Y-73165471D01*
X116554271Y-73170969D01*
X116571183Y-73175222D01*
X116596767Y-73178380D01*
X116633699Y-73180592D01*
X116684654Y-73182006D01*
X116752306Y-73182772D01*
X116839331Y-73183038D01*
X116859006Y-73183045D01*
X116947489Y-73182987D01*
X117016173Y-73182667D01*
X117067836Y-73181867D01*
X117105255Y-73180367D01*
X117131210Y-73177949D01*
X117148478Y-73174394D01*
X117159838Y-73169482D01*
X117168068Y-73162995D01*
X117172583Y-73158338D01*
X117179379Y-73150089D01*
X117184688Y-73139869D01*
X117188694Y-73125000D01*
X117191579Y-73102802D01*
X117193526Y-73070593D01*
X117194719Y-73025696D01*
X117195339Y-72965428D01*
X117195571Y-72887111D01*
X117195600Y-72821194D01*
X117195529Y-72728828D01*
X117195192Y-72656317D01*
X117194402Y-72600937D01*
X117192974Y-72559965D01*
X117190721Y-72530678D01*
X117187457Y-72510353D01*
X117182996Y-72496266D01*
X117177152Y-72485695D01*
X117172203Y-72479011D01*
X117148806Y-72449267D01*
X116858626Y-72449267D01*
X116762057Y-72449460D01*
G37*
X116762057Y-72449460D02*
X116685699Y-72450374D01*
X116627183Y-72452511D01*
X116584145Y-72456375D01*
X116554217Y-72462467D01*
X116535032Y-72471290D01*
X116524224Y-72483346D01*
X116519427Y-72499139D01*
X116518273Y-72519170D01*
X116518267Y-72521535D01*
X116519269Y-72544192D01*
X116524004Y-72561703D01*
X116535067Y-72574774D01*
X116555052Y-72584113D01*
X116586554Y-72590427D01*
X116632168Y-72594422D01*
X116694487Y-72596806D01*
X116776107Y-72598286D01*
X116801123Y-72598614D01*
X117043200Y-72601667D01*
X117046586Y-72666578D01*
X117049971Y-72731489D01*
X116881824Y-72731489D01*
X116816134Y-72731731D01*
X116769228Y-72732756D01*
X116737317Y-72735011D01*
X116716609Y-72738942D01*
X116703316Y-72744998D01*
X116693645Y-72753624D01*
X116693583Y-72753693D01*
X116676044Y-72787312D01*
X116676678Y-72823648D01*
X116695086Y-72854623D01*
X116698729Y-72857807D01*
X116711659Y-72866012D01*
X116729376Y-72871721D01*
X116755830Y-72875362D01*
X116794968Y-72877367D01*
X116850738Y-72878164D01*
X116886406Y-72878245D01*
X117048845Y-72878245D01*
X117048845Y-73036289D01*
X116802239Y-73036289D01*
X116720820Y-73036431D01*
X116658990Y-73037014D01*
X116613763Y-73038268D01*
X116582152Y-73040427D01*
X116561169Y-73043723D01*
X116547827Y-73048389D01*
X116539139Y-73054657D01*
X116536950Y-73056933D01*
X116520786Y-73088480D01*
X116519603Y-73124368D01*
X116532864Y-73155485D01*
X116543357Y-73165471D01*
X116554271Y-73170969D01*
X116571183Y-73175222D01*
X116596767Y-73178380D01*
X116633699Y-73180592D01*
X116684654Y-73182006D01*
X116752306Y-73182772D01*
X116839331Y-73183038D01*
X116859006Y-73183045D01*
X116947489Y-73182987D01*
X117016173Y-73182667D01*
X117067836Y-73181867D01*
X117105255Y-73180367D01*
X117131210Y-73177949D01*
X117148478Y-73174394D01*
X117159838Y-73169482D01*
X117168068Y-73162995D01*
X117172583Y-73158338D01*
X117179379Y-73150089D01*
X117184688Y-73139869D01*
X117188694Y-73125000D01*
X117191579Y-73102802D01*
X117193526Y-73070593D01*
X117194719Y-73025696D01*
X117195339Y-72965428D01*
X117195571Y-72887111D01*
X117195600Y-72821194D01*
X117195529Y-72728828D01*
X117195192Y-72656317D01*
X117194402Y-72600937D01*
X117192974Y-72559965D01*
X117190721Y-72530678D01*
X117187457Y-72510353D01*
X117182996Y-72496266D01*
X117177152Y-72485695D01*
X117172203Y-72479011D01*
X117148806Y-72449267D01*
X116858626Y-72449267D01*
X116762057Y-72449460D01*
G36*
X118292514Y-72453648D02*
G01*
X118268948Y-72467473D01*
X118238135Y-72490081D01*
X118198478Y-72522538D01*
X118148380Y-72565908D01*
X118086243Y-72621258D01*
X118010472Y-72689651D01*
X117923734Y-72768284D01*
X117743111Y-72932078D01*
X117737467Y-72712229D01*
X117735429Y-72636551D01*
X117733463Y-72580194D01*
X117731134Y-72539906D01*
X117728006Y-72512435D01*
X117723645Y-72494529D01*
X117717616Y-72482937D01*
X117709484Y-72474408D01*
X117705172Y-72470823D01*
X117670641Y-72451870D01*
X117637783Y-72454641D01*
X117611718Y-72470833D01*
X117585067Y-72492399D01*
X117581752Y-72807351D01*
X117580835Y-72899979D01*
X117580368Y-72972744D01*
X117580513Y-73028361D01*
X117581432Y-73069542D01*
X117583287Y-73099003D01*
X117586239Y-73119455D01*
X117590450Y-73133613D01*
X117596082Y-73144191D01*
X117602327Y-73152674D01*
X117615839Y-73168407D01*
X117629283Y-73178836D01*
X117644524Y-73182839D01*
X117663426Y-73179294D01*
X117687855Y-73167079D01*
X117719673Y-73145071D01*
X117760748Y-73112149D01*
X117812942Y-73067191D01*
X117878122Y-73009075D01*
X117951956Y-72942299D01*
X118217245Y-72701658D01*
X118222889Y-72920789D01*
X118224931Y-72996328D01*
X118226902Y-73052554D01*
X118229239Y-73092724D01*
X118232381Y-73120096D01*
X118236764Y-73137928D01*
X118242824Y-73149479D01*
X118251000Y-73158007D01*
X118255184Y-73161482D01*
X118292165Y-73180572D01*
X118327108Y-73177693D01*
X118357536Y-73153300D01*
X118364497Y-73143486D01*
X118369923Y-73132026D01*
X118374003Y-73116168D01*
X118376929Y-73093163D01*
X118378892Y-73060262D01*
X118380083Y-73014716D01*
X118380692Y-72953773D01*
X118380911Y-72874686D01*
X118380934Y-72816156D01*
X118380860Y-72724607D01*
X118380513Y-72652887D01*
X118379701Y-72598245D01*
X118378233Y-72557932D01*
X118375919Y-72529198D01*
X118372567Y-72509293D01*
X118367988Y-72495468D01*
X118361989Y-72484972D01*
X118357536Y-72479011D01*
X118346250Y-72464891D01*
X118335701Y-72454229D01*
X118324293Y-72448092D01*
X118310430Y-72447543D01*
X118292514Y-72453648D01*
G37*
X118292514Y-72453648D02*
X118268948Y-72467473D01*
X118238135Y-72490081D01*
X118198478Y-72522538D01*
X118148380Y-72565908D01*
X118086243Y-72621258D01*
X118010472Y-72689651D01*
X117923734Y-72768284D01*
X117743111Y-72932078D01*
X117737467Y-72712229D01*
X117735429Y-72636551D01*
X117733463Y-72580194D01*
X117731134Y-72539906D01*
X117728006Y-72512435D01*
X117723645Y-72494529D01*
X117717616Y-72482937D01*
X117709484Y-72474408D01*
X117705172Y-72470823D01*
X117670641Y-72451870D01*
X117637783Y-72454641D01*
X117611718Y-72470833D01*
X117585067Y-72492399D01*
X117581752Y-72807351D01*
X117580835Y-72899979D01*
X117580368Y-72972744D01*
X117580513Y-73028361D01*
X117581432Y-73069542D01*
X117583287Y-73099003D01*
X117586239Y-73119455D01*
X117590450Y-73133613D01*
X117596082Y-73144191D01*
X117602327Y-73152674D01*
X117615839Y-73168407D01*
X117629283Y-73178836D01*
X117644524Y-73182839D01*
X117663426Y-73179294D01*
X117687855Y-73167079D01*
X117719673Y-73145071D01*
X117760748Y-73112149D01*
X117812942Y-73067191D01*
X117878122Y-73009075D01*
X117951956Y-72942299D01*
X118217245Y-72701658D01*
X118222889Y-72920789D01*
X118224931Y-72996328D01*
X118226902Y-73052554D01*
X118229239Y-73092724D01*
X118232381Y-73120096D01*
X118236764Y-73137928D01*
X118242824Y-73149479D01*
X118251000Y-73158007D01*
X118255184Y-73161482D01*
X118292165Y-73180572D01*
X118327108Y-73177693D01*
X118357536Y-73153300D01*
X118364497Y-73143486D01*
X118369923Y-73132026D01*
X118374003Y-73116168D01*
X118376929Y-73093163D01*
X118378892Y-73060262D01*
X118380083Y-73014716D01*
X118380692Y-72953773D01*
X118380911Y-72874686D01*
X118380934Y-72816156D01*
X118380860Y-72724607D01*
X118380513Y-72652887D01*
X118379701Y-72598245D01*
X118378233Y-72557932D01*
X118375919Y-72529198D01*
X118372567Y-72509293D01*
X118367988Y-72495468D01*
X118361989Y-72484972D01*
X118357536Y-72479011D01*
X118346250Y-72464891D01*
X118335701Y-72454229D01*
X118324293Y-72448092D01*
X118310430Y-72447543D01*
X118292514Y-72453648D01*
G36*
X118942481Y-72454799D02*
G01*
X118873965Y-72466295D01*
X118821343Y-72484167D01*
X118787108Y-72507699D01*
X118777779Y-72521124D01*
X118768293Y-72552348D01*
X118774677Y-72580595D01*
X118794830Y-72607382D01*
X118826145Y-72619913D01*
X118871583Y-72618896D01*
X118906726Y-72612106D01*
X118984819Y-72599171D01*
X119064626Y-72597942D01*
X119153955Y-72608441D01*
X119178629Y-72612890D01*
X119261691Y-72636308D01*
X119326673Y-72671145D01*
X119372861Y-72716804D01*
X119399545Y-72772694D01*
X119405063Y-72801588D01*
X119401451Y-72860212D01*
X119378129Y-72912079D01*
X119337224Y-72956178D01*
X119280859Y-72991499D01*
X119211160Y-73017029D01*
X119130252Y-73031759D01*
X119040260Y-73034678D01*
X118943310Y-73024775D01*
X118937836Y-73023841D01*
X118899275Y-73016659D01*
X118877894Y-73009721D01*
X118868627Y-72999427D01*
X118866406Y-72982176D01*
X118866356Y-72973041D01*
X118866356Y-72934689D01*
X118934831Y-72934689D01*
X118995300Y-72930547D01*
X119036565Y-72917347D01*
X119060575Y-72893930D01*
X119069277Y-72859136D01*
X119069383Y-72854594D01*
X119064292Y-72824854D01*
X119046833Y-72803619D01*
X119014339Y-72789566D01*
X118964143Y-72781373D01*
X118915523Y-72778361D01*
X118844856Y-72776633D01*
X118793598Y-72779270D01*
X118758639Y-72789000D01*
X118736870Y-72808553D01*
X118725180Y-72840656D01*
X118720460Y-72888038D01*
X118719600Y-72950271D01*
X118721009Y-73019735D01*
X118725248Y-73066986D01*
X118732336Y-73092212D01*
X118733711Y-73094188D01*
X118772628Y-73125708D01*
X118829686Y-73150670D01*
X118901269Y-73168540D01*
X118983758Y-73178786D01*
X119073539Y-73180873D01*
X119166992Y-73174268D01*
X119221956Y-73166156D01*
X119308166Y-73141754D01*
X119388292Y-73101862D01*
X119455377Y-73050087D01*
X119465573Y-73039739D01*
X119498702Y-72996235D01*
X119528594Y-72942318D01*
X119551757Y-72885792D01*
X119564698Y-72834459D01*
X119566258Y-72814744D01*
X119559618Y-72773619D01*
X119541968Y-72722452D01*
X119516697Y-72668594D01*
X119487189Y-72619395D01*
X119461119Y-72586534D01*
X119400165Y-72537652D01*
X119321369Y-72498745D01*
X119227557Y-72470694D01*
X119121550Y-72454379D01*
X119024400Y-72450392D01*
X118942481Y-72454799D01*
G37*
X118942481Y-72454799D02*
X118873965Y-72466295D01*
X118821343Y-72484167D01*
X118787108Y-72507699D01*
X118777779Y-72521124D01*
X118768293Y-72552348D01*
X118774677Y-72580595D01*
X118794830Y-72607382D01*
X118826145Y-72619913D01*
X118871583Y-72618896D01*
X118906726Y-72612106D01*
X118984819Y-72599171D01*
X119064626Y-72597942D01*
X119153955Y-72608441D01*
X119178629Y-72612890D01*
X119261691Y-72636308D01*
X119326673Y-72671145D01*
X119372861Y-72716804D01*
X119399545Y-72772694D01*
X119405063Y-72801588D01*
X119401451Y-72860212D01*
X119378129Y-72912079D01*
X119337224Y-72956178D01*
X119280859Y-72991499D01*
X119211160Y-73017029D01*
X119130252Y-73031759D01*
X119040260Y-73034678D01*
X118943310Y-73024775D01*
X118937836Y-73023841D01*
X118899275Y-73016659D01*
X118877894Y-73009721D01*
X118868627Y-72999427D01*
X118866406Y-72982176D01*
X118866356Y-72973041D01*
X118866356Y-72934689D01*
X118934831Y-72934689D01*
X118995300Y-72930547D01*
X119036565Y-72917347D01*
X119060575Y-72893930D01*
X119069277Y-72859136D01*
X119069383Y-72854594D01*
X119064292Y-72824854D01*
X119046833Y-72803619D01*
X119014339Y-72789566D01*
X118964143Y-72781373D01*
X118915523Y-72778361D01*
X118844856Y-72776633D01*
X118793598Y-72779270D01*
X118758639Y-72789000D01*
X118736870Y-72808553D01*
X118725180Y-72840656D01*
X118720460Y-72888038D01*
X118719600Y-72950271D01*
X118721009Y-73019735D01*
X118725248Y-73066986D01*
X118732336Y-73092212D01*
X118733711Y-73094188D01*
X118772628Y-73125708D01*
X118829686Y-73150670D01*
X118901269Y-73168540D01*
X118983758Y-73178786D01*
X119073539Y-73180873D01*
X119166992Y-73174268D01*
X119221956Y-73166156D01*
X119308166Y-73141754D01*
X119388292Y-73101862D01*
X119455377Y-73050087D01*
X119465573Y-73039739D01*
X119498702Y-72996235D01*
X119528594Y-72942318D01*
X119551757Y-72885792D01*
X119564698Y-72834459D01*
X119566258Y-72814744D01*
X119559618Y-72773619D01*
X119541968Y-72722452D01*
X119516697Y-72668594D01*
X119487189Y-72619395D01*
X119461119Y-72586534D01*
X119400165Y-72537652D01*
X119321369Y-72498745D01*
X119227557Y-72470694D01*
X119121550Y-72454379D01*
X119024400Y-72450392D01*
X118942481Y-72454799D01*
G36*
X119916222Y-72471845D02*
G01*
X119909642Y-72479418D01*
X119904479Y-72489187D01*
X119900564Y-72503771D01*
X119897724Y-72525785D01*
X119895787Y-72557848D01*
X119894583Y-72602575D01*
X119893939Y-72662585D01*
X119893684Y-72740494D01*
X119893645Y-72816156D01*
X119893714Y-72910002D01*
X119894038Y-72983889D01*
X119894786Y-73040432D01*
X119896132Y-73082249D01*
X119898246Y-73111957D01*
X119901300Y-73132173D01*
X119905466Y-73145514D01*
X119910916Y-73154598D01*
X119916222Y-73160467D01*
X119949226Y-73180147D01*
X119984391Y-73178381D01*
X120015855Y-73156917D01*
X120023084Y-73148537D01*
X120028734Y-73138814D01*
X120032999Y-73125061D01*
X120036073Y-73104589D01*
X120038152Y-73074712D01*
X120039430Y-73032741D01*
X120040101Y-72975989D01*
X120040359Y-72901767D01*
X120040400Y-72817737D01*
X120040400Y-72504685D01*
X120012691Y-72476976D01*
X119978537Y-72453663D01*
X119945406Y-72452823D01*
X119916222Y-72471845D01*
G37*
X119916222Y-72471845D02*
X119909642Y-72479418D01*
X119904479Y-72489187D01*
X119900564Y-72503771D01*
X119897724Y-72525785D01*
X119895787Y-72557848D01*
X119894583Y-72602575D01*
X119893939Y-72662585D01*
X119893684Y-72740494D01*
X119893645Y-72816156D01*
X119893714Y-72910002D01*
X119894038Y-72983889D01*
X119894786Y-73040432D01*
X119896132Y-73082249D01*
X119898246Y-73111957D01*
X119901300Y-73132173D01*
X119905466Y-73145514D01*
X119910916Y-73154598D01*
X119916222Y-73160467D01*
X119949226Y-73180147D01*
X119984391Y-73178381D01*
X120015855Y-73156917D01*
X120023084Y-73148537D01*
X120028734Y-73138814D01*
X120032999Y-73125061D01*
X120036073Y-73104589D01*
X120038152Y-73074712D01*
X120039430Y-73032741D01*
X120040101Y-72975989D01*
X120040359Y-72901767D01*
X120040400Y-72817737D01*
X120040400Y-72504685D01*
X120012691Y-72476976D01*
X119978537Y-72453663D01*
X119945406Y-72452823D01*
X119916222Y-72471845D01*
G36*
X120684103Y-72450551D02*
G01*
X120609288Y-72455781D01*
X120539706Y-72463950D01*
X120479402Y-72474750D01*
X120432420Y-72487873D01*
X120402806Y-72503013D01*
X120398260Y-72507469D01*
X120382454Y-72542050D01*
X120387247Y-72577551D01*
X120411764Y-72607925D01*
X120412934Y-72608796D01*
X120427354Y-72618154D01*
X120442408Y-72623076D01*
X120463405Y-72623673D01*
X120495657Y-72620061D01*
X120544473Y-72612354D01*
X120548400Y-72611705D01*
X120621139Y-72602769D01*
X120699617Y-72598361D01*
X120778327Y-72598319D01*
X120851761Y-72602479D01*
X120914411Y-72610679D01*
X120960770Y-72622757D01*
X120963816Y-72623971D01*
X120997448Y-72642815D01*
X121009264Y-72661885D01*
X121000014Y-72680639D01*
X120970447Y-72698537D01*
X120921311Y-72715037D01*
X120853357Y-72729596D01*
X120808045Y-72736606D01*
X120713856Y-72750089D01*
X120638944Y-72762414D01*
X120580117Y-72774649D01*
X120534185Y-72787861D01*
X120497955Y-72803117D01*
X120468238Y-72821485D01*
X120441842Y-72844031D01*
X120420630Y-72866171D01*
X120395465Y-72897019D01*
X120383081Y-72923545D01*
X120379208Y-72956226D01*
X120379067Y-72968195D01*
X120381976Y-73007912D01*
X120393602Y-73037459D01*
X120413723Y-73063686D01*
X120454616Y-73103776D01*
X120500217Y-73134349D01*
X120553913Y-73156403D01*
X120619092Y-73170935D01*
X120699144Y-73178941D01*
X120797457Y-73181418D01*
X120813689Y-73181377D01*
X120879249Y-73180018D01*
X120944266Y-73176930D01*
X121001652Y-73172556D01*
X121044322Y-73167340D01*
X121047772Y-73166741D01*
X121090196Y-73156691D01*
X121126180Y-73143996D01*
X121146550Y-73132390D01*
X121165507Y-73101772D01*
X121166827Y-73066118D01*
X121150485Y-73034344D01*
X121146829Y-73030751D01*
X121131715Y-73020076D01*
X121112815Y-73015476D01*
X121083562Y-73016259D01*
X121048051Y-73020327D01*
X121008370Y-73023962D01*
X120952745Y-73027028D01*
X120887806Y-73029253D01*
X120820185Y-73030364D01*
X120802400Y-73030437D01*
X120734528Y-73030164D01*
X120684854Y-73028846D01*
X120649010Y-73026027D01*
X120622624Y-73021250D01*
X120601326Y-73014057D01*
X120588526Y-73008067D01*
X120560400Y-72991433D01*
X120542468Y-72976368D01*
X120539847Y-72972097D01*
X120545376Y-72954463D01*
X120571660Y-72937392D01*
X120616878Y-72921658D01*
X120679208Y-72908038D01*
X120697571Y-72905004D01*
X120793490Y-72889938D01*
X120870041Y-72877346D01*
X120930180Y-72866311D01*
X120976860Y-72855920D01*
X121013037Y-72845256D01*
X121041665Y-72833405D01*
X121065698Y-72819451D01*
X121088092Y-72802481D01*
X121111802Y-72781578D01*
X121119780Y-72774249D01*
X121147753Y-72746899D01*
X121162560Y-72725229D01*
X121168352Y-72700432D01*
X121169289Y-72669183D01*
X121158975Y-72607905D01*
X121128152Y-72555840D01*
X121076995Y-72513158D01*
X121005683Y-72480025D01*
X120954800Y-72465164D01*
X120899500Y-72455566D01*
X120833253Y-72450136D01*
X120760106Y-72448567D01*
X120684103Y-72450551D01*
G37*
X120684103Y-72450551D02*
X120609288Y-72455781D01*
X120539706Y-72463950D01*
X120479402Y-72474750D01*
X120432420Y-72487873D01*
X120402806Y-72503013D01*
X120398260Y-72507469D01*
X120382454Y-72542050D01*
X120387247Y-72577551D01*
X120411764Y-72607925D01*
X120412934Y-72608796D01*
X120427354Y-72618154D01*
X120442408Y-72623076D01*
X120463405Y-72623673D01*
X120495657Y-72620061D01*
X120544473Y-72612354D01*
X120548400Y-72611705D01*
X120621139Y-72602769D01*
X120699617Y-72598361D01*
X120778327Y-72598319D01*
X120851761Y-72602479D01*
X120914411Y-72610679D01*
X120960770Y-72622757D01*
X120963816Y-72623971D01*
X120997448Y-72642815D01*
X121009264Y-72661885D01*
X121000014Y-72680639D01*
X120970447Y-72698537D01*
X120921311Y-72715037D01*
X120853357Y-72729596D01*
X120808045Y-72736606D01*
X120713856Y-72750089D01*
X120638944Y-72762414D01*
X120580117Y-72774649D01*
X120534185Y-72787861D01*
X120497955Y-72803117D01*
X120468238Y-72821485D01*
X120441842Y-72844031D01*
X120420630Y-72866171D01*
X120395465Y-72897019D01*
X120383081Y-72923545D01*
X120379208Y-72956226D01*
X120379067Y-72968195D01*
X120381976Y-73007912D01*
X120393602Y-73037459D01*
X120413723Y-73063686D01*
X120454616Y-73103776D01*
X120500217Y-73134349D01*
X120553913Y-73156403D01*
X120619092Y-73170935D01*
X120699144Y-73178941D01*
X120797457Y-73181418D01*
X120813689Y-73181377D01*
X120879249Y-73180018D01*
X120944266Y-73176930D01*
X121001652Y-73172556D01*
X121044322Y-73167340D01*
X121047772Y-73166741D01*
X121090196Y-73156691D01*
X121126180Y-73143996D01*
X121146550Y-73132390D01*
X121165507Y-73101772D01*
X121166827Y-73066118D01*
X121150485Y-73034344D01*
X121146829Y-73030751D01*
X121131715Y-73020076D01*
X121112815Y-73015476D01*
X121083562Y-73016259D01*
X121048051Y-73020327D01*
X121008370Y-73023962D01*
X120952745Y-73027028D01*
X120887806Y-73029253D01*
X120820185Y-73030364D01*
X120802400Y-73030437D01*
X120734528Y-73030164D01*
X120684854Y-73028846D01*
X120649010Y-73026027D01*
X120622624Y-73021250D01*
X120601326Y-73014057D01*
X120588526Y-73008067D01*
X120560400Y-72991433D01*
X120542468Y-72976368D01*
X120539847Y-72972097D01*
X120545376Y-72954463D01*
X120571660Y-72937392D01*
X120616878Y-72921658D01*
X120679208Y-72908038D01*
X120697571Y-72905004D01*
X120793490Y-72889938D01*
X120870041Y-72877346D01*
X120930180Y-72866311D01*
X120976860Y-72855920D01*
X121013037Y-72845256D01*
X121041665Y-72833405D01*
X121065698Y-72819451D01*
X121088092Y-72802481D01*
X121111802Y-72781578D01*
X121119780Y-72774249D01*
X121147753Y-72746899D01*
X121162560Y-72725229D01*
X121168352Y-72700432D01*
X121169289Y-72669183D01*
X121158975Y-72607905D01*
X121128152Y-72555840D01*
X121076995Y-72513158D01*
X121005683Y-72480025D01*
X120954800Y-72465164D01*
X120899500Y-72455566D01*
X120833253Y-72450136D01*
X120760106Y-72448567D01*
X120684103Y-72450551D01*
G36*
X121705194Y-72449346D02*
G01*
X121635786Y-72449718D01*
X121583397Y-72450585D01*
X121545247Y-72452146D01*
X121518559Y-72454603D01*
X121500553Y-72458157D01*
X121488449Y-72463010D01*
X121479469Y-72469361D01*
X121476218Y-72472284D01*
X121456443Y-72503342D01*
X121452882Y-72539028D01*
X121465891Y-72570710D01*
X121471906Y-72577113D01*
X121481635Y-72583321D01*
X121497301Y-72588110D01*
X121521808Y-72591714D01*
X121558061Y-72594364D01*
X121608965Y-72596295D01*
X121677426Y-72597739D01*
X121740017Y-72598618D01*
X121987734Y-72601667D01*
X121991119Y-72666578D01*
X121994505Y-72731489D01*
X121826358Y-72731489D01*
X121753359Y-72732119D01*
X121699917Y-72734753D01*
X121663028Y-72740509D01*
X121639688Y-72750504D01*
X121626894Y-72765856D01*
X121621642Y-72787682D01*
X121620845Y-72807938D01*
X121623323Y-72832792D01*
X121632677Y-72851106D01*
X121651783Y-72863837D01*
X121683518Y-72871941D01*
X121730759Y-72876376D01*
X121796383Y-72878099D01*
X121832201Y-72878245D01*
X121993378Y-72878245D01*
X121993378Y-73036289D01*
X121745022Y-73036289D01*
X121663613Y-73036402D01*
X121601742Y-73036912D01*
X121556368Y-73038070D01*
X121524454Y-73040130D01*
X121502959Y-73043346D01*
X121488843Y-73047972D01*
X121479068Y-73054259D01*
X121474089Y-73058867D01*
X121457010Y-73085760D01*
X121451511Y-73109667D01*
X121459363Y-73138867D01*
X121474089Y-73160467D01*
X121481946Y-73167266D01*
X121492088Y-73172546D01*
X121507244Y-73176498D01*
X121530141Y-73179313D01*
X121563509Y-73181182D01*
X121610075Y-73182298D01*
X121672567Y-73182851D01*
X121753714Y-73183033D01*
X121795822Y-73183045D01*
X121885998Y-73182965D01*
X121956324Y-73182598D01*
X122009529Y-73181752D01*
X122048340Y-73180236D01*
X122075487Y-73177859D01*
X122093698Y-73174429D01*
X122105700Y-73169754D01*
X122114222Y-73163644D01*
X122117556Y-73160467D01*
X122124155Y-73152870D01*
X122129327Y-73143070D01*
X122133246Y-73128439D01*
X122136084Y-73106352D01*
X122138015Y-73074182D01*
X122139212Y-73029303D01*
X122139848Y-72969089D01*
X122140097Y-72890913D01*
X122140134Y-72818123D01*
X122140100Y-72724907D01*
X122139865Y-72651631D01*
X122139230Y-72595658D01*
X122137994Y-72554351D01*
X122135956Y-72525072D01*
X122132917Y-72505184D01*
X122128677Y-72492050D01*
X122123035Y-72483032D01*
X122115791Y-72475493D01*
X122114006Y-72473812D01*
X122105345Y-72466372D01*
X122095282Y-72460609D01*
X122081025Y-72456312D01*
X122059783Y-72453264D01*
X122028764Y-72451251D01*
X121985177Y-72450060D01*
X121926231Y-72449475D01*
X121849134Y-72449283D01*
X121794401Y-72449267D01*
X121705194Y-72449346D01*
G37*
X121705194Y-72449346D02*
X121635786Y-72449718D01*
X121583397Y-72450585D01*
X121545247Y-72452146D01*
X121518559Y-72454603D01*
X121500553Y-72458157D01*
X121488449Y-72463010D01*
X121479469Y-72469361D01*
X121476218Y-72472284D01*
X121456443Y-72503342D01*
X121452882Y-72539028D01*
X121465891Y-72570710D01*
X121471906Y-72577113D01*
X121481635Y-72583321D01*
X121497301Y-72588110D01*
X121521808Y-72591714D01*
X121558061Y-72594364D01*
X121608965Y-72596295D01*
X121677426Y-72597739D01*
X121740017Y-72598618D01*
X121987734Y-72601667D01*
X121991119Y-72666578D01*
X121994505Y-72731489D01*
X121826358Y-72731489D01*
X121753359Y-72732119D01*
X121699917Y-72734753D01*
X121663028Y-72740509D01*
X121639688Y-72750504D01*
X121626894Y-72765856D01*
X121621642Y-72787682D01*
X121620845Y-72807938D01*
X121623323Y-72832792D01*
X121632677Y-72851106D01*
X121651783Y-72863837D01*
X121683518Y-72871941D01*
X121730759Y-72876376D01*
X121796383Y-72878099D01*
X121832201Y-72878245D01*
X121993378Y-72878245D01*
X121993378Y-73036289D01*
X121745022Y-73036289D01*
X121663613Y-73036402D01*
X121601742Y-73036912D01*
X121556368Y-73038070D01*
X121524454Y-73040130D01*
X121502959Y-73043346D01*
X121488843Y-73047972D01*
X121479068Y-73054259D01*
X121474089Y-73058867D01*
X121457010Y-73085760D01*
X121451511Y-73109667D01*
X121459363Y-73138867D01*
X121474089Y-73160467D01*
X121481946Y-73167266D01*
X121492088Y-73172546D01*
X121507244Y-73176498D01*
X121530141Y-73179313D01*
X121563509Y-73181182D01*
X121610075Y-73182298D01*
X121672567Y-73182851D01*
X121753714Y-73183033D01*
X121795822Y-73183045D01*
X121885998Y-73182965D01*
X121956324Y-73182598D01*
X122009529Y-73181752D01*
X122048340Y-73180236D01*
X122075487Y-73177859D01*
X122093698Y-73174429D01*
X122105700Y-73169754D01*
X122114222Y-73163644D01*
X122117556Y-73160467D01*
X122124155Y-73152870D01*
X122129327Y-73143070D01*
X122133246Y-73128439D01*
X122136084Y-73106352D01*
X122138015Y-73074182D01*
X122139212Y-73029303D01*
X122139848Y-72969089D01*
X122140097Y-72890913D01*
X122140134Y-72818123D01*
X122140100Y-72724907D01*
X122139865Y-72651631D01*
X122139230Y-72595658D01*
X122137994Y-72554351D01*
X122135956Y-72525072D01*
X122132917Y-72505184D01*
X122128677Y-72492050D01*
X122123035Y-72483032D01*
X122115791Y-72475493D01*
X122114006Y-72473812D01*
X122105345Y-72466372D01*
X122095282Y-72460609D01*
X122081025Y-72456312D01*
X122059783Y-72453264D01*
X122028764Y-72451251D01*
X121985177Y-72450060D01*
X121926231Y-72449475D01*
X121849134Y-72449283D01*
X121794401Y-72449267D01*
X121705194Y-72449346D01*
G36*
X123113771Y-72449266D02*
G01*
X123074289Y-72449667D01*
X122958600Y-72452459D01*
X122861711Y-72460750D01*
X122780319Y-72475432D01*
X122711123Y-72497393D01*
X122650820Y-72527522D01*
X122596108Y-72566710D01*
X122576567Y-72583732D01*
X122544150Y-72623563D01*
X122514920Y-72677613D01*
X122492391Y-72737523D01*
X122480079Y-72794939D01*
X122478800Y-72816156D01*
X122486817Y-72874969D01*
X122508299Y-72939213D01*
X122539399Y-73000021D01*
X122576266Y-73048530D01*
X122582254Y-73054382D01*
X122632979Y-73095521D01*
X122688525Y-73127635D01*
X122752096Y-73151565D01*
X122826894Y-73168153D01*
X122916122Y-73178241D01*
X123022982Y-73182669D01*
X123071928Y-73183045D01*
X123134162Y-73182745D01*
X123177928Y-73181492D01*
X123207331Y-73178754D01*
X123226479Y-73174001D01*
X123239477Y-73166701D01*
X123246445Y-73160467D01*
X123253026Y-73152894D01*
X123258188Y-73143124D01*
X123262103Y-73128540D01*
X123264943Y-73106526D01*
X123266880Y-73074464D01*
X123268084Y-73029736D01*
X123268728Y-72969726D01*
X123268983Y-72891817D01*
X123269022Y-72816156D01*
X123269270Y-72715241D01*
X123269217Y-72634627D01*
X123268257Y-72596022D01*
X123122267Y-72596022D01*
X123122267Y-73036289D01*
X123029134Y-73036204D01*
X122973093Y-73034596D01*
X122914399Y-73030456D01*
X122865428Y-73024664D01*
X122863938Y-73024426D01*
X122784792Y-73005290D01*
X122723402Y-72975487D01*
X122676705Y-72933078D01*
X122647035Y-72887161D01*
X122628753Y-72836226D01*
X122630171Y-72788400D01*
X122651388Y-72737133D01*
X122692889Y-72684099D01*
X122750398Y-72644800D01*
X122825150Y-72618531D01*
X122875108Y-72609235D01*
X122931816Y-72602707D01*
X122991919Y-72597982D01*
X123043039Y-72596017D01*
X123046067Y-72596008D01*
X123122267Y-72596022D01*
X123268257Y-72596022D01*
X123267660Y-72572051D01*
X123263398Y-72525255D01*
X123255230Y-72491978D01*
X123241956Y-72469959D01*
X123222374Y-72456939D01*
X123195283Y-72450657D01*
X123159482Y-72448853D01*
X123113771Y-72449266D01*
G37*
X123113771Y-72449266D02*
X123074289Y-72449667D01*
X122958600Y-72452459D01*
X122861711Y-72460750D01*
X122780319Y-72475432D01*
X122711123Y-72497393D01*
X122650820Y-72527522D01*
X122596108Y-72566710D01*
X122576567Y-72583732D01*
X122544150Y-72623563D01*
X122514920Y-72677613D01*
X122492391Y-72737523D01*
X122480079Y-72794939D01*
X122478800Y-72816156D01*
X122486817Y-72874969D01*
X122508299Y-72939213D01*
X122539399Y-73000021D01*
X122576266Y-73048530D01*
X122582254Y-73054382D01*
X122632979Y-73095521D01*
X122688525Y-73127635D01*
X122752096Y-73151565D01*
X122826894Y-73168153D01*
X122916122Y-73178241D01*
X123022982Y-73182669D01*
X123071928Y-73183045D01*
X123134162Y-73182745D01*
X123177928Y-73181492D01*
X123207331Y-73178754D01*
X123226479Y-73174001D01*
X123239477Y-73166701D01*
X123246445Y-73160467D01*
X123253026Y-73152894D01*
X123258188Y-73143124D01*
X123262103Y-73128540D01*
X123264943Y-73106526D01*
X123266880Y-73074464D01*
X123268084Y-73029736D01*
X123268728Y-72969726D01*
X123268983Y-72891817D01*
X123269022Y-72816156D01*
X123269270Y-72715241D01*
X123269217Y-72634627D01*
X123268257Y-72596022D01*
X123122267Y-72596022D01*
X123122267Y-73036289D01*
X123029134Y-73036204D01*
X122973093Y-73034596D01*
X122914399Y-73030456D01*
X122865428Y-73024664D01*
X122863938Y-73024426D01*
X122784792Y-73005290D01*
X122723402Y-72975487D01*
X122676705Y-72933078D01*
X122647035Y-72887161D01*
X122628753Y-72836226D01*
X122630171Y-72788400D01*
X122651388Y-72737133D01*
X122692889Y-72684099D01*
X122750398Y-72644800D01*
X122825150Y-72618531D01*
X122875108Y-72609235D01*
X122931816Y-72602707D01*
X122991919Y-72597982D01*
X123043039Y-72596017D01*
X123046067Y-72596008D01*
X123122267Y-72596022D01*
X123268257Y-72596022D01*
X123267660Y-72572051D01*
X123263398Y-72525255D01*
X123255230Y-72491978D01*
X123241956Y-72469959D01*
X123222374Y-72456939D01*
X123195283Y-72450657D01*
X123159482Y-72448853D01*
X123113771Y-72449266D01*
G36*
X119265443Y-67206771D02*
G01*
X119169168Y-67231009D01*
X119082584Y-67273841D01*
X119007773Y-67333619D01*
X118946818Y-67408694D01*
X118901799Y-67497420D01*
X118875536Y-67593730D01*
X118869686Y-67690995D01*
X118884540Y-67784854D01*
X118918240Y-67872711D01*
X118968928Y-67951970D01*
X119034745Y-68020036D01*
X119113834Y-68074312D01*
X119204334Y-68112202D01*
X119255600Y-68124626D01*
X119300098Y-68132147D01*
X119334399Y-68135119D01*
X119367360Y-68133294D01*
X119407834Y-68126425D01*
X119440931Y-68119450D01*
X119534347Y-68087941D01*
X119618019Y-68036817D01*
X119690065Y-67967629D01*
X119748600Y-67881928D01*
X119762548Y-67854689D01*
X119778986Y-67818322D01*
X119789294Y-67787782D01*
X119794860Y-67755650D01*
X119797069Y-67714507D01*
X119797348Y-67668422D01*
X119793261Y-67584065D01*
X119779846Y-67514786D01*
X119754656Y-67454161D01*
X119715246Y-67395767D01*
X119676698Y-67351502D01*
X119604806Y-67285684D01*
X119529713Y-67240253D01*
X119446962Y-67213050D01*
X119369328Y-67202776D01*
X119265443Y-67206771D01*
G37*
X119265443Y-67206771D02*
X119169168Y-67231009D01*
X119082584Y-67273841D01*
X119007773Y-67333619D01*
X118946818Y-67408694D01*
X118901799Y-67497420D01*
X118875536Y-67593730D01*
X118869686Y-67690995D01*
X118884540Y-67784854D01*
X118918240Y-67872711D01*
X118968928Y-67951970D01*
X119034745Y-68020036D01*
X119113834Y-68074312D01*
X119204334Y-68112202D01*
X119255600Y-68124626D01*
X119300098Y-68132147D01*
X119334399Y-68135119D01*
X119367360Y-68133294D01*
X119407834Y-68126425D01*
X119440931Y-68119450D01*
X119534347Y-68087941D01*
X119618019Y-68036817D01*
X119690065Y-67967629D01*
X119748600Y-67881928D01*
X119762548Y-67854689D01*
X119778986Y-67818322D01*
X119789294Y-67787782D01*
X119794860Y-67755650D01*
X119797069Y-67714507D01*
X119797348Y-67668422D01*
X119793261Y-67584065D01*
X119779846Y-67514786D01*
X119754656Y-67454161D01*
X119715246Y-67395767D01*
X119676698Y-67351502D01*
X119604806Y-67285684D01*
X119529713Y-67240253D01*
X119446962Y-67213050D01*
X119369328Y-67202776D01*
X119265443Y-67206771D01*
G36*
X110805893Y-69652445D02*
G01*
X110805874Y-69886862D01*
X110805848Y-70099803D01*
X110805775Y-70292368D01*
X110805618Y-70465659D01*
X110805336Y-70620776D01*
X110804891Y-70758820D01*
X110804244Y-70880892D01*
X110803355Y-70988094D01*
X110802187Y-71081526D01*
X110800699Y-71162290D01*
X110798854Y-71231486D01*
X110796611Y-71290215D01*
X110793931Y-71339579D01*
X110790777Y-71380678D01*
X110787108Y-71414613D01*
X110782887Y-71442486D01*
X110778073Y-71465398D01*
X110772627Y-71484449D01*
X110766512Y-71500740D01*
X110759688Y-71515373D01*
X110752115Y-71529449D01*
X110743755Y-71544068D01*
X110738561Y-71553174D01*
X110704296Y-71613889D01*
X111562445Y-71613889D01*
X111562445Y-71517933D01*
X111563176Y-71474570D01*
X111565128Y-71441405D01*
X111567937Y-71423624D01*
X111569179Y-71421978D01*
X111580601Y-71428862D01*
X111603316Y-71446705D01*
X111626015Y-71466079D01*
X111680600Y-71506814D01*
X111750079Y-71547817D01*
X111827130Y-71585323D01*
X111904435Y-71615564D01*
X111935287Y-71625212D01*
X112003784Y-71639778D01*
X112086636Y-71649739D01*
X112176029Y-71654783D01*
X112264152Y-71654596D01*
X112343193Y-71648866D01*
X112380889Y-71643058D01*
X112518986Y-71604997D01*
X112646287Y-71547273D01*
X112762108Y-71470411D01*
X112865763Y-71374939D01*
X112956567Y-71261379D01*
X113023369Y-71150581D01*
X113078236Y-71033825D01*
X113120237Y-70914476D01*
X113150233Y-70788483D01*
X113169089Y-70651794D01*
X113177668Y-70500358D01*
X113178394Y-70422911D01*
X113176300Y-70366134D01*
X112347183Y-70366134D01*
X112346976Y-70459202D01*
X112344063Y-70546892D01*
X112338400Y-70623972D01*
X112329945Y-70685209D01*
X112327362Y-70697550D01*
X112295560Y-70804833D01*
X112253902Y-70891858D01*
X112202037Y-70958842D01*
X112139619Y-71006005D01*
X112066300Y-71033565D01*
X111981731Y-71041741D01*
X111885565Y-71030751D01*
X111822089Y-71015029D01*
X111772946Y-70996839D01*
X111718817Y-70970991D01*
X111678156Y-70947289D01*
X111607600Y-70900921D01*
X111607600Y-69750730D01*
X111675008Y-69707162D01*
X111753533Y-69666240D01*
X111837719Y-69639589D01*
X111922843Y-69627665D01*
X112004184Y-69630922D01*
X112077020Y-69649815D01*
X112108974Y-69665384D01*
X112166899Y-69708381D01*
X112215856Y-69765153D01*
X112257010Y-69837775D01*
X112291526Y-69928321D01*
X112320567Y-70038866D01*
X112321848Y-70044733D01*
X112332019Y-70106988D01*
X112339661Y-70184794D01*
X112344730Y-70272920D01*
X112347183Y-70366134D01*
X113176300Y-70366134D01*
X113170543Y-70210095D01*
X113148598Y-70014259D01*
X113112614Y-69835532D01*
X113062641Y-69674045D01*
X112998732Y-69529926D01*
X112920938Y-69403306D01*
X112829311Y-69294315D01*
X112723903Y-69203083D01*
X112678738Y-69172132D01*
X112577789Y-69115985D01*
X112474499Y-69076374D01*
X112364411Y-69052214D01*
X112243070Y-69042419D01*
X112150564Y-69043465D01*
X112020910Y-69054431D01*
X111908316Y-69076246D01*
X111809525Y-69109914D01*
X111721279Y-69156436D01*
X111672414Y-69190648D01*
X111643047Y-69212562D01*
X111621357Y-69227533D01*
X111613147Y-69231933D01*
X111611532Y-69221104D01*
X111610241Y-69190451D01*
X111609262Y-69142726D01*
X111608583Y-69080679D01*
X111608190Y-69007062D01*
X111608070Y-68924627D01*
X111608212Y-68836125D01*
X111608603Y-68744307D01*
X111609229Y-68651924D01*
X111610080Y-68561728D01*
X111611140Y-68476471D01*
X111612399Y-68398903D01*
X111613844Y-68331776D01*
X111615462Y-68277841D01*
X111617239Y-68239850D01*
X111617731Y-68232867D01*
X111625308Y-68162451D01*
X111636869Y-68107302D01*
X111654608Y-68060181D01*
X111680718Y-68013847D01*
X111686985Y-68004267D01*
X111711417Y-67967578D01*
X110806089Y-67967578D01*
X110805893Y-69652445D01*
G37*
X110805893Y-69652445D02*
X110805874Y-69886862D01*
X110805848Y-70099803D01*
X110805775Y-70292368D01*
X110805618Y-70465659D01*
X110805336Y-70620776D01*
X110804891Y-70758820D01*
X110804244Y-70880892D01*
X110803355Y-70988094D01*
X110802187Y-71081526D01*
X110800699Y-71162290D01*
X110798854Y-71231486D01*
X110796611Y-71290215D01*
X110793931Y-71339579D01*
X110790777Y-71380678D01*
X110787108Y-71414613D01*
X110782887Y-71442486D01*
X110778073Y-71465398D01*
X110772627Y-71484449D01*
X110766512Y-71500740D01*
X110759688Y-71515373D01*
X110752115Y-71529449D01*
X110743755Y-71544068D01*
X110738561Y-71553174D01*
X110704296Y-71613889D01*
X111562445Y-71613889D01*
X111562445Y-71517933D01*
X111563176Y-71474570D01*
X111565128Y-71441405D01*
X111567937Y-71423624D01*
X111569179Y-71421978D01*
X111580601Y-71428862D01*
X111603316Y-71446705D01*
X111626015Y-71466079D01*
X111680600Y-71506814D01*
X111750079Y-71547817D01*
X111827130Y-71585323D01*
X111904435Y-71615564D01*
X111935287Y-71625212D01*
X112003784Y-71639778D01*
X112086636Y-71649739D01*
X112176029Y-71654783D01*
X112264152Y-71654596D01*
X112343193Y-71648866D01*
X112380889Y-71643058D01*
X112518986Y-71604997D01*
X112646287Y-71547273D01*
X112762108Y-71470411D01*
X112865763Y-71374939D01*
X112956567Y-71261379D01*
X113023369Y-71150581D01*
X113078236Y-71033825D01*
X113120237Y-70914476D01*
X113150233Y-70788483D01*
X113169089Y-70651794D01*
X113177668Y-70500358D01*
X113178394Y-70422911D01*
X113176300Y-70366134D01*
X112347183Y-70366134D01*
X112346976Y-70459202D01*
X112344063Y-70546892D01*
X112338400Y-70623972D01*
X112329945Y-70685209D01*
X112327362Y-70697550D01*
X112295560Y-70804833D01*
X112253902Y-70891858D01*
X112202037Y-70958842D01*
X112139619Y-71006005D01*
X112066300Y-71033565D01*
X111981731Y-71041741D01*
X111885565Y-71030751D01*
X111822089Y-71015029D01*
X111772946Y-70996839D01*
X111718817Y-70970991D01*
X111678156Y-70947289D01*
X111607600Y-70900921D01*
X111607600Y-69750730D01*
X111675008Y-69707162D01*
X111753533Y-69666240D01*
X111837719Y-69639589D01*
X111922843Y-69627665D01*
X112004184Y-69630922D01*
X112077020Y-69649815D01*
X112108974Y-69665384D01*
X112166899Y-69708381D01*
X112215856Y-69765153D01*
X112257010Y-69837775D01*
X112291526Y-69928321D01*
X112320567Y-70038866D01*
X112321848Y-70044733D01*
X112332019Y-70106988D01*
X112339661Y-70184794D01*
X112344730Y-70272920D01*
X112347183Y-70366134D01*
X113176300Y-70366134D01*
X113170543Y-70210095D01*
X113148598Y-70014259D01*
X113112614Y-69835532D01*
X113062641Y-69674045D01*
X112998732Y-69529926D01*
X112920938Y-69403306D01*
X112829311Y-69294315D01*
X112723903Y-69203083D01*
X112678738Y-69172132D01*
X112577789Y-69115985D01*
X112474499Y-69076374D01*
X112364411Y-69052214D01*
X112243070Y-69042419D01*
X112150564Y-69043465D01*
X112020910Y-69054431D01*
X111908316Y-69076246D01*
X111809525Y-69109914D01*
X111721279Y-69156436D01*
X111672414Y-69190648D01*
X111643047Y-69212562D01*
X111621357Y-69227533D01*
X111613147Y-69231933D01*
X111611532Y-69221104D01*
X111610241Y-69190451D01*
X111609262Y-69142726D01*
X111608583Y-69080679D01*
X111608190Y-69007062D01*
X111608070Y-68924627D01*
X111608212Y-68836125D01*
X111608603Y-68744307D01*
X111609229Y-68651924D01*
X111610080Y-68561728D01*
X111611140Y-68476471D01*
X111612399Y-68398903D01*
X111613844Y-68331776D01*
X111615462Y-68277841D01*
X111617239Y-68239850D01*
X111617731Y-68232867D01*
X111625308Y-68162451D01*
X111636869Y-68107302D01*
X111654608Y-68060181D01*
X111680718Y-68013847D01*
X111686985Y-68004267D01*
X111711417Y-67967578D01*
X110806089Y-67967578D01*
X110805893Y-69652445D01*
G36*
X114318826Y-69046752D02*
G01*
X114166908Y-69066767D01*
X114031644Y-69100402D01*
X113912161Y-69147925D01*
X113807585Y-69209605D01*
X113729976Y-69273165D01*
X113661135Y-69347299D01*
X113607394Y-69427071D01*
X113564490Y-69519291D01*
X113549016Y-69562361D01*
X113536156Y-69601342D01*
X113524954Y-69637489D01*
X113515280Y-69672634D01*
X113507004Y-69708610D01*
X113499997Y-69747250D01*
X113494128Y-69790385D01*
X113489269Y-69839849D01*
X113485290Y-69897473D01*
X113482060Y-69965091D01*
X113479451Y-70044534D01*
X113477333Y-70137636D01*
X113475576Y-70246227D01*
X113474051Y-70372142D01*
X113472628Y-70517212D01*
X113471375Y-70659978D01*
X113470049Y-70816168D01*
X113468844Y-70951439D01*
X113467634Y-71067446D01*
X113466294Y-71165845D01*
X113464700Y-71248293D01*
X113462725Y-71316446D01*
X113460244Y-71371960D01*
X113457131Y-71416492D01*
X113453262Y-71451698D01*
X113448511Y-71479234D01*
X113442752Y-71500756D01*
X113435861Y-71517922D01*
X113427711Y-71532386D01*
X113418177Y-71545806D01*
X113407134Y-71559838D01*
X113402834Y-71565271D01*
X113387014Y-71588110D01*
X113379978Y-71603663D01*
X113379956Y-71604122D01*
X113390833Y-71606321D01*
X113421818Y-71608347D01*
X113470443Y-71610142D01*
X113534237Y-71611651D01*
X113610731Y-71612816D01*
X113697456Y-71613580D01*
X113791943Y-71613886D01*
X113802850Y-71613889D01*
X114225743Y-71613889D01*
X114229005Y-71517822D01*
X114232267Y-71421756D01*
X114294356Y-71472743D01*
X114391686Y-71540257D01*
X114501587Y-71594949D01*
X114588051Y-71625178D01*
X114657122Y-71639866D01*
X114740475Y-71649859D01*
X114830241Y-71654846D01*
X114918555Y-71654513D01*
X114997549Y-71648551D01*
X115033778Y-71642838D01*
X115173797Y-71604976D01*
X115300222Y-71550132D01*
X115412140Y-71479124D01*
X115508638Y-71392768D01*
X115588800Y-71291879D01*
X115651713Y-71177276D01*
X115696088Y-71051184D01*
X115708422Y-70994601D01*
X115716032Y-70932402D01*
X115719661Y-70857563D01*
X115720155Y-70823667D01*
X115720090Y-70820482D01*
X114960152Y-70820482D01*
X114950859Y-70895533D01*
X114922672Y-70959360D01*
X114874203Y-71014998D01*
X114869146Y-71019411D01*
X114820852Y-71054237D01*
X114769143Y-71076820D01*
X114708411Y-71088740D01*
X114633048Y-71091583D01*
X114614941Y-71091178D01*
X114561122Y-71088525D01*
X114521092Y-71083109D01*
X114486076Y-71072945D01*
X114447297Y-71056050D01*
X114436655Y-71050872D01*
X114376004Y-71015044D01*
X114329185Y-70972412D01*
X114316448Y-70957173D01*
X114271778Y-70900662D01*
X114271778Y-70704786D01*
X114272314Y-70626139D01*
X114274004Y-70568188D01*
X114276972Y-70529075D01*
X114281343Y-70506941D01*
X114285428Y-70500474D01*
X114301353Y-70497311D01*
X114335136Y-70494688D01*
X114382060Y-70492855D01*
X114437407Y-70492057D01*
X114446294Y-70492042D01*
X114567070Y-70497296D01*
X114669740Y-70513463D01*
X114756294Y-70541161D01*
X114828719Y-70581008D01*
X114883649Y-70627958D01*
X114928196Y-70685845D01*
X114952920Y-70748893D01*
X114960152Y-70820482D01*
X115720090Y-70820482D01*
X115718222Y-70729912D01*
X115709878Y-70651012D01*
X115693632Y-70579790D01*
X115667995Y-70509064D01*
X115643999Y-70456693D01*
X115585380Y-70361396D01*
X115507283Y-70273370D01*
X115412085Y-70194217D01*
X115302162Y-70125540D01*
X115179890Y-70068941D01*
X115047645Y-70026021D01*
X114982978Y-70011082D01*
X114846796Y-69988977D01*
X114698351Y-69974394D01*
X114546895Y-69968013D01*
X114420336Y-69969645D01*
X114258450Y-69976424D01*
X114265870Y-69917445D01*
X114285162Y-69818292D01*
X114316296Y-69737572D01*
X114360131Y-69674666D01*
X114417529Y-69628956D01*
X114489352Y-69599822D01*
X114576459Y-69586647D01*
X114679714Y-69588811D01*
X114717689Y-69592812D01*
X114858880Y-69617980D01*
X114995693Y-69659014D01*
X115090222Y-69697015D01*
X115135382Y-69716390D01*
X115173815Y-69731960D01*
X115200166Y-69741605D01*
X115207854Y-69743652D01*
X115217598Y-69734574D01*
X115234317Y-69705605D01*
X115258168Y-69656417D01*
X115289307Y-69586684D01*
X115327893Y-69496079D01*
X115334490Y-69480289D01*
X115364547Y-69407972D01*
X115391526Y-69342625D01*
X115414264Y-69287106D01*
X115431594Y-69244272D01*
X115442352Y-69216981D01*
X115445459Y-69208142D01*
X115435460Y-69203387D01*
X115409183Y-69198110D01*
X115380911Y-69194431D01*
X115350754Y-69189674D01*
X115302967Y-69180228D01*
X115241788Y-69167020D01*
X115171454Y-69150976D01*
X115096206Y-69133020D01*
X115067645Y-69125997D01*
X114962584Y-69100409D01*
X114874920Y-69080347D01*
X114800332Y-69065169D01*
X114734497Y-69054235D01*
X114673093Y-69046904D01*
X114611798Y-69042535D01*
X114546290Y-69040487D01*
X114488272Y-69040089D01*
X114318826Y-69046752D01*
G37*
X114318826Y-69046752D02*
X114166908Y-69066767D01*
X114031644Y-69100402D01*
X113912161Y-69147925D01*
X113807585Y-69209605D01*
X113729976Y-69273165D01*
X113661135Y-69347299D01*
X113607394Y-69427071D01*
X113564490Y-69519291D01*
X113549016Y-69562361D01*
X113536156Y-69601342D01*
X113524954Y-69637489D01*
X113515280Y-69672634D01*
X113507004Y-69708610D01*
X113499997Y-69747250D01*
X113494128Y-69790385D01*
X113489269Y-69839849D01*
X113485290Y-69897473D01*
X113482060Y-69965091D01*
X113479451Y-70044534D01*
X113477333Y-70137636D01*
X113475576Y-70246227D01*
X113474051Y-70372142D01*
X113472628Y-70517212D01*
X113471375Y-70659978D01*
X113470049Y-70816168D01*
X113468844Y-70951439D01*
X113467634Y-71067446D01*
X113466294Y-71165845D01*
X113464700Y-71248293D01*
X113462725Y-71316446D01*
X113460244Y-71371960D01*
X113457131Y-71416492D01*
X113453262Y-71451698D01*
X113448511Y-71479234D01*
X113442752Y-71500756D01*
X113435861Y-71517922D01*
X113427711Y-71532386D01*
X113418177Y-71545806D01*
X113407134Y-71559838D01*
X113402834Y-71565271D01*
X113387014Y-71588110D01*
X113379978Y-71603663D01*
X113379956Y-71604122D01*
X113390833Y-71606321D01*
X113421818Y-71608347D01*
X113470443Y-71610142D01*
X113534237Y-71611651D01*
X113610731Y-71612816D01*
X113697456Y-71613580D01*
X113791943Y-71613886D01*
X113802850Y-71613889D01*
X114225743Y-71613889D01*
X114229005Y-71517822D01*
X114232267Y-71421756D01*
X114294356Y-71472743D01*
X114391686Y-71540257D01*
X114501587Y-71594949D01*
X114588051Y-71625178D01*
X114657122Y-71639866D01*
X114740475Y-71649859D01*
X114830241Y-71654846D01*
X114918555Y-71654513D01*
X114997549Y-71648551D01*
X115033778Y-71642838D01*
X115173797Y-71604976D01*
X115300222Y-71550132D01*
X115412140Y-71479124D01*
X115508638Y-71392768D01*
X115588800Y-71291879D01*
X115651713Y-71177276D01*
X115696088Y-71051184D01*
X115708422Y-70994601D01*
X115716032Y-70932402D01*
X115719661Y-70857563D01*
X115720155Y-70823667D01*
X115720090Y-70820482D01*
X114960152Y-70820482D01*
X114950859Y-70895533D01*
X114922672Y-70959360D01*
X114874203Y-71014998D01*
X114869146Y-71019411D01*
X114820852Y-71054237D01*
X114769143Y-71076820D01*
X114708411Y-71088740D01*
X114633048Y-71091583D01*
X114614941Y-71091178D01*
X114561122Y-71088525D01*
X114521092Y-71083109D01*
X114486076Y-71072945D01*
X114447297Y-71056050D01*
X114436655Y-71050872D01*
X114376004Y-71015044D01*
X114329185Y-70972412D01*
X114316448Y-70957173D01*
X114271778Y-70900662D01*
X114271778Y-70704786D01*
X114272314Y-70626139D01*
X114274004Y-70568188D01*
X114276972Y-70529075D01*
X114281343Y-70506941D01*
X114285428Y-70500474D01*
X114301353Y-70497311D01*
X114335136Y-70494688D01*
X114382060Y-70492855D01*
X114437407Y-70492057D01*
X114446294Y-70492042D01*
X114567070Y-70497296D01*
X114669740Y-70513463D01*
X114756294Y-70541161D01*
X114828719Y-70581008D01*
X114883649Y-70627958D01*
X114928196Y-70685845D01*
X114952920Y-70748893D01*
X114960152Y-70820482D01*
X115720090Y-70820482D01*
X115718222Y-70729912D01*
X115709878Y-70651012D01*
X115693632Y-70579790D01*
X115667995Y-70509064D01*
X115643999Y-70456693D01*
X115585380Y-70361396D01*
X115507283Y-70273370D01*
X115412085Y-70194217D01*
X115302162Y-70125540D01*
X115179890Y-70068941D01*
X115047645Y-70026021D01*
X114982978Y-70011082D01*
X114846796Y-69988977D01*
X114698351Y-69974394D01*
X114546895Y-69968013D01*
X114420336Y-69969645D01*
X114258450Y-69976424D01*
X114265870Y-69917445D01*
X114285162Y-69818292D01*
X114316296Y-69737572D01*
X114360131Y-69674666D01*
X114417529Y-69628956D01*
X114489352Y-69599822D01*
X114576459Y-69586647D01*
X114679714Y-69588811D01*
X114717689Y-69592812D01*
X114858880Y-69617980D01*
X114995693Y-69659014D01*
X115090222Y-69697015D01*
X115135382Y-69716390D01*
X115173815Y-69731960D01*
X115200166Y-69741605D01*
X115207854Y-69743652D01*
X115217598Y-69734574D01*
X115234317Y-69705605D01*
X115258168Y-69656417D01*
X115289307Y-69586684D01*
X115327893Y-69496079D01*
X115334490Y-69480289D01*
X115364547Y-69407972D01*
X115391526Y-69342625D01*
X115414264Y-69287106D01*
X115431594Y-69244272D01*
X115442352Y-69216981D01*
X115445459Y-69208142D01*
X115435460Y-69203387D01*
X115409183Y-69198110D01*
X115380911Y-69194431D01*
X115350754Y-69189674D01*
X115302967Y-69180228D01*
X115241788Y-69167020D01*
X115171454Y-69150976D01*
X115096206Y-69133020D01*
X115067645Y-69125997D01*
X114962584Y-69100409D01*
X114874920Y-69080347D01*
X114800332Y-69065169D01*
X114734497Y-69054235D01*
X114673093Y-69046904D01*
X114611798Y-69042535D01*
X114546290Y-69040487D01*
X114488272Y-69040089D01*
X114318826Y-69046752D01*
G36*
X116663971Y-68129271D02*
G01*
X116503830Y-68150445D01*
X116339890Y-68190585D01*
X116170087Y-68250089D01*
X115992357Y-68329354D01*
X115981090Y-68334899D01*
X115923395Y-68362925D01*
X115871848Y-68387002D01*
X115830209Y-68405449D01*
X115802238Y-68416586D01*
X115792667Y-68419133D01*
X115773450Y-68424141D01*
X115768839Y-68428347D01*
X115773942Y-68438780D01*
X115789982Y-68465068D01*
X115815112Y-68504457D01*
X115847486Y-68554191D01*
X115885257Y-68611515D01*
X115926578Y-68673676D01*
X115969602Y-68737918D01*
X116012483Y-68801485D01*
X116053374Y-68861625D01*
X116090429Y-68915580D01*
X116121800Y-68960597D01*
X116145641Y-68993921D01*
X116160106Y-69012797D01*
X116162091Y-69014987D01*
X116172209Y-69010338D01*
X116194550Y-68993162D01*
X116225120Y-68966640D01*
X116240864Y-68952164D01*
X116337353Y-68876882D01*
X116444064Y-68821441D01*
X116559568Y-68786341D01*
X116682438Y-68772080D01*
X116751839Y-68773251D01*
X116872977Y-68790412D01*
X116982195Y-68826294D01*
X117079818Y-68881159D01*
X117166172Y-68955270D01*
X117241585Y-69048888D01*
X117306382Y-69162276D01*
X117343799Y-69248867D01*
X117387652Y-69384566D01*
X117419972Y-69532050D01*
X117440843Y-69687514D01*
X117450349Y-69847156D01*
X117448573Y-70007173D01*
X117435597Y-70163761D01*
X117411506Y-70313118D01*
X117376382Y-70451440D01*
X117330308Y-70574924D01*
X117314027Y-70609178D01*
X117245780Y-70723264D01*
X117165321Y-70819757D01*
X117073830Y-70897870D01*
X116972489Y-70956817D01*
X116862480Y-70995812D01*
X116744985Y-71014068D01*
X116703517Y-71015411D01*
X116581959Y-71004490D01*
X116461522Y-70971674D01*
X116343734Y-70917639D01*
X116230123Y-70843065D01*
X116138715Y-70764739D01*
X116092185Y-70720208D01*
X115910917Y-71017471D01*
X115865820Y-71091633D01*
X115824581Y-71159846D01*
X115788665Y-71219659D01*
X115759534Y-71268620D01*
X115738650Y-71304279D01*
X115727476Y-71324184D01*
X115726025Y-71327279D01*
X115734254Y-71336918D01*
X115759833Y-71354199D01*
X115799527Y-71377483D01*
X115850103Y-71405134D01*
X115908326Y-71435515D01*
X115970963Y-71466990D01*
X116034779Y-71497922D01*
X116096540Y-71526673D01*
X116153012Y-71551608D01*
X116200962Y-71571089D01*
X116224414Y-71579518D01*
X116358179Y-71617333D01*
X116496073Y-71642336D01*
X116643778Y-71655340D01*
X116770567Y-71657668D01*
X116838522Y-71656573D01*
X116904123Y-71654475D01*
X116961553Y-71651634D01*
X117004997Y-71648306D01*
X117019102Y-71646622D01*
X117158116Y-71617787D01*
X117299643Y-71572668D01*
X117437125Y-71513950D01*
X117564006Y-71444320D01*
X117641511Y-71391641D01*
X117768919Y-71283439D01*
X117887222Y-71156871D01*
X117994228Y-71015066D01*
X118087748Y-70861151D01*
X118165590Y-70698253D01*
X118209444Y-70580956D01*
X118259692Y-70397328D01*
X118293191Y-70202781D01*
X118309951Y-70001525D01*
X118309984Y-69797768D01*
X118293299Y-69595721D01*
X118259907Y-69399592D01*
X118209820Y-69213591D01*
X118206003Y-69202003D01*
X118143119Y-69039950D01*
X118066372Y-68892032D01*
X117973158Y-68754065D01*
X117860873Y-68621861D01*
X117817008Y-68576599D01*
X117680866Y-68452657D01*
X117540909Y-68350115D01*
X117394989Y-68267856D01*
X117240958Y-68204764D01*
X117076668Y-68159723D01*
X116981111Y-68142233D01*
X116822377Y-68126666D01*
X116663971Y-68129271D01*
G37*
X116663971Y-68129271D02*
X116503830Y-68150445D01*
X116339890Y-68190585D01*
X116170087Y-68250089D01*
X115992357Y-68329354D01*
X115981090Y-68334899D01*
X115923395Y-68362925D01*
X115871848Y-68387002D01*
X115830209Y-68405449D01*
X115802238Y-68416586D01*
X115792667Y-68419133D01*
X115773450Y-68424141D01*
X115768839Y-68428347D01*
X115773942Y-68438780D01*
X115789982Y-68465068D01*
X115815112Y-68504457D01*
X115847486Y-68554191D01*
X115885257Y-68611515D01*
X115926578Y-68673676D01*
X115969602Y-68737918D01*
X116012483Y-68801485D01*
X116053374Y-68861625D01*
X116090429Y-68915580D01*
X116121800Y-68960597D01*
X116145641Y-68993921D01*
X116160106Y-69012797D01*
X116162091Y-69014987D01*
X116172209Y-69010338D01*
X116194550Y-68993162D01*
X116225120Y-68966640D01*
X116240864Y-68952164D01*
X116337353Y-68876882D01*
X116444064Y-68821441D01*
X116559568Y-68786341D01*
X116682438Y-68772080D01*
X116751839Y-68773251D01*
X116872977Y-68790412D01*
X116982195Y-68826294D01*
X117079818Y-68881159D01*
X117166172Y-68955270D01*
X117241585Y-69048888D01*
X117306382Y-69162276D01*
X117343799Y-69248867D01*
X117387652Y-69384566D01*
X117419972Y-69532050D01*
X117440843Y-69687514D01*
X117450349Y-69847156D01*
X117448573Y-70007173D01*
X117435597Y-70163761D01*
X117411506Y-70313118D01*
X117376382Y-70451440D01*
X117330308Y-70574924D01*
X117314027Y-70609178D01*
X117245780Y-70723264D01*
X117165321Y-70819757D01*
X117073830Y-70897870D01*
X116972489Y-70956817D01*
X116862480Y-70995812D01*
X116744985Y-71014068D01*
X116703517Y-71015411D01*
X116581959Y-71004490D01*
X116461522Y-70971674D01*
X116343734Y-70917639D01*
X116230123Y-70843065D01*
X116138715Y-70764739D01*
X116092185Y-70720208D01*
X115910917Y-71017471D01*
X115865820Y-71091633D01*
X115824581Y-71159846D01*
X115788665Y-71219659D01*
X115759534Y-71268620D01*
X115738650Y-71304279D01*
X115727476Y-71324184D01*
X115726025Y-71327279D01*
X115734254Y-71336918D01*
X115759833Y-71354199D01*
X115799527Y-71377483D01*
X115850103Y-71405134D01*
X115908326Y-71435515D01*
X115970963Y-71466990D01*
X116034779Y-71497922D01*
X116096540Y-71526673D01*
X116153012Y-71551608D01*
X116200962Y-71571089D01*
X116224414Y-71579518D01*
X116358179Y-71617333D01*
X116496073Y-71642336D01*
X116643778Y-71655340D01*
X116770567Y-71657668D01*
X116838522Y-71656573D01*
X116904123Y-71654475D01*
X116961553Y-71651634D01*
X117004997Y-71648306D01*
X117019102Y-71646622D01*
X117158116Y-71617787D01*
X117299643Y-71572668D01*
X117437125Y-71513950D01*
X117564006Y-71444320D01*
X117641511Y-71391641D01*
X117768919Y-71283439D01*
X117887222Y-71156871D01*
X117994228Y-71015066D01*
X118087748Y-70861151D01*
X118165590Y-70698253D01*
X118209444Y-70580956D01*
X118259692Y-70397328D01*
X118293191Y-70202781D01*
X118309951Y-70001525D01*
X118309984Y-69797768D01*
X118293299Y-69595721D01*
X118259907Y-69399592D01*
X118209820Y-69213591D01*
X118206003Y-69202003D01*
X118143119Y-69039950D01*
X118066372Y-68892032D01*
X117973158Y-68754065D01*
X117860873Y-68621861D01*
X117817008Y-68576599D01*
X117680866Y-68452657D01*
X117540909Y-68350115D01*
X117394989Y-68267856D01*
X117240958Y-68204764D01*
X117076668Y-68159723D01*
X116981111Y-68142233D01*
X116822377Y-68126666D01*
X116663971Y-68129271D01*
G36*
X119938800Y-67669254D02*
G01*
X119927935Y-67783193D01*
X119896318Y-67890816D01*
X119845415Y-67989815D01*
X119776693Y-68077884D01*
X119691619Y-68152716D01*
X119594632Y-68210584D01*
X119488364Y-68250205D01*
X119381350Y-68268773D01*
X119275700Y-68267634D01*
X119173525Y-68248130D01*
X119076934Y-68211606D01*
X118988038Y-68159405D01*
X118908946Y-68092873D01*
X118841769Y-68013352D01*
X118788617Y-67922187D01*
X118751599Y-67820723D01*
X118732827Y-67710302D01*
X118730889Y-67660406D01*
X118730889Y-67572467D01*
X118678960Y-67572467D01*
X118642653Y-67575311D01*
X118615755Y-67587111D01*
X118588649Y-67610849D01*
X118550267Y-67649231D01*
X118550267Y-69840802D01*
X118550276Y-70102939D01*
X118550308Y-70343441D01*
X118550372Y-70563248D01*
X118550476Y-70763301D01*
X118550627Y-70944544D01*
X118550834Y-71107916D01*
X118551106Y-71254360D01*
X118551450Y-71384817D01*
X118551874Y-71500229D01*
X118552387Y-71601538D01*
X118552997Y-71689684D01*
X118553712Y-71765610D01*
X118554540Y-71830257D01*
X118555489Y-71884567D01*
X118556567Y-71929480D01*
X118557783Y-71965940D01*
X118559145Y-71994887D01*
X118560661Y-72017263D01*
X118562338Y-72034009D01*
X118564186Y-72046068D01*
X118566213Y-72054380D01*
X118568425Y-72059887D01*
X118569508Y-72061737D01*
X118573671Y-72068749D01*
X118577205Y-72075196D01*
X118581035Y-72081100D01*
X118586082Y-72086486D01*
X118593271Y-72091378D01*
X118603523Y-72095798D01*
X118617764Y-72099772D01*
X118636914Y-72103321D01*
X118661899Y-72106470D01*
X118693640Y-72109242D01*
X118733062Y-72111661D01*
X118781086Y-72113751D01*
X118838637Y-72115535D01*
X118906637Y-72117037D01*
X118986010Y-72118280D01*
X119077679Y-72119289D01*
X119182566Y-72120085D01*
X119301596Y-72120694D01*
X119435690Y-72121139D01*
X119585773Y-72121443D01*
X119752767Y-72121630D01*
X119937596Y-72121724D01*
X120141183Y-72121748D01*
X120364450Y-72121725D01*
X120608322Y-72121680D01*
X120873721Y-72121637D01*
X120912104Y-72121632D01*
X121179082Y-72121589D01*
X121424402Y-72121518D01*
X121648983Y-72121413D01*
X121853745Y-72121266D01*
X122039606Y-72121069D01*
X122207488Y-72120816D01*
X122358308Y-72120500D01*
X122492987Y-72120113D01*
X122612444Y-72119647D01*
X122717599Y-72119097D01*
X122809371Y-72118453D01*
X122888679Y-72117711D01*
X122956443Y-72116861D01*
X123013582Y-72115897D01*
X123061017Y-72114811D01*
X123099666Y-72113597D01*
X123130449Y-72112247D01*
X123154285Y-72110755D01*
X123172094Y-72109111D01*
X123184795Y-72107311D01*
X123193308Y-72105345D01*
X123197666Y-72103677D01*
X123206128Y-72100106D01*
X123213897Y-72097470D01*
X123221002Y-72094834D01*
X123227473Y-72091262D01*
X123233339Y-72085821D01*
X123238629Y-72077575D01*
X123243374Y-72065590D01*
X123247602Y-72048931D01*
X123251343Y-72026663D01*
X123254627Y-71997852D01*
X123257483Y-71961563D01*
X123259940Y-71916861D01*
X123262029Y-71862811D01*
X123263778Y-71798479D01*
X123265217Y-71722930D01*
X123266376Y-71635230D01*
X123267283Y-71534443D01*
X123267969Y-71419634D01*
X123268463Y-71289870D01*
X123268795Y-71144215D01*
X123268993Y-70981735D01*
X123269087Y-70801495D01*
X123269108Y-70602560D01*
X123269085Y-70383996D01*
X123269046Y-70144868D01*
X123269022Y-69884240D01*
X123269022Y-69842089D01*
X123269036Y-69579192D01*
X123269061Y-69337932D01*
X123269071Y-69117365D01*
X123269042Y-68916552D01*
X123268948Y-68734549D01*
X123268762Y-68570416D01*
X123268459Y-68423211D01*
X123268014Y-68291992D01*
X123267434Y-68182067D01*
X122964597Y-68182067D01*
X122924807Y-68239911D01*
X122913636Y-68255679D01*
X122903566Y-68269641D01*
X122894538Y-68282984D01*
X122886497Y-68296893D01*
X122879386Y-68312556D01*
X122873147Y-68331158D01*
X122867725Y-68353886D01*
X122863062Y-68381927D01*
X122859101Y-68416467D01*
X122855785Y-68458692D01*
X122853059Y-68509789D01*
X122850864Y-68570944D01*
X122849145Y-68643344D01*
X122847844Y-68728175D01*
X122846905Y-68826622D01*
X122846270Y-68939874D01*
X122845884Y-69069116D01*
X122845688Y-69215534D01*
X122845627Y-69380316D01*
X122845643Y-69564647D01*
X122845680Y-69769713D01*
X122845689Y-69892333D01*
X122845665Y-70109282D01*
X122845631Y-70304842D01*
X122845643Y-70480199D01*
X122845758Y-70636541D01*
X122846030Y-70775057D01*
X122846518Y-70896934D01*
X122847276Y-71003360D01*
X122848362Y-71095522D01*
X122849831Y-71174609D01*
X122851740Y-71241808D01*
X122854144Y-71298307D01*
X122857101Y-71345293D01*
X122860666Y-71383955D01*
X122864895Y-71415480D01*
X122869846Y-71441055D01*
X122875573Y-71461870D01*
X122882133Y-71479111D01*
X122889583Y-71493965D01*
X122897979Y-71507622D01*
X122907376Y-71521269D01*
X122917832Y-71536093D01*
X122923923Y-71544983D01*
X122962696Y-71602600D01*
X122431132Y-71602600D01*
X122307883Y-71602565D01*
X122205387Y-71602415D01*
X122121820Y-71602078D01*
X122055356Y-71601486D01*
X122004171Y-71600567D01*
X121966441Y-71599251D01*
X121940340Y-71597469D01*
X121924044Y-71595151D01*
X121915728Y-71592226D01*
X121913568Y-71588624D01*
X121915739Y-71584275D01*
X121916935Y-71582845D01*
X121942085Y-71545773D01*
X121967983Y-71492972D01*
X121991592Y-71430970D01*
X121999861Y-71404557D01*
X122004478Y-71386616D01*
X122008379Y-71365555D01*
X122011648Y-71339289D01*
X122014366Y-71305732D01*
X122016615Y-71262799D01*
X122018477Y-71208404D01*
X122020036Y-71140462D01*
X122021372Y-71056888D01*
X122022569Y-70955595D01*
X122023708Y-70834500D01*
X122024085Y-70789800D01*
X122025102Y-70664649D01*
X122025860Y-70560282D01*
X122026303Y-70474907D01*
X122026370Y-70406733D01*
X122026005Y-70353965D01*
X122025148Y-70314814D01*
X122023741Y-70287485D01*
X122021725Y-70270186D01*
X122019043Y-70261126D01*
X122015636Y-70258512D01*
X122011444Y-70260551D01*
X122006971Y-70264867D01*
X121996616Y-70277802D01*
X121974558Y-70306876D01*
X121942357Y-70349959D01*
X121901574Y-70404918D01*
X121853770Y-70469623D01*
X121800505Y-70541942D01*
X121743340Y-70619744D01*
X121683837Y-70700898D01*
X121623555Y-70783272D01*
X121564055Y-70864736D01*
X121506898Y-70943157D01*
X121453645Y-71016404D01*
X121405857Y-71082347D01*
X121365093Y-71138854D01*
X121332916Y-71183793D01*
X121310885Y-71215034D01*
X121306317Y-71221666D01*
X121283396Y-71258569D01*
X121256588Y-71306559D01*
X121231189Y-71356097D01*
X121227968Y-71362777D01*
X121206290Y-71410972D01*
X121193704Y-71448534D01*
X121187974Y-71484360D01*
X121186856Y-71526400D01*
X121187490Y-71602600D01*
X120033051Y-71602600D01*
X120124215Y-71508869D01*
X120171012Y-71458975D01*
X120221299Y-71402495D01*
X120267344Y-71348226D01*
X120287769Y-71322873D01*
X120318207Y-71283328D01*
X120358262Y-71230116D01*
X120406761Y-71164867D01*
X120462535Y-71089211D01*
X120524411Y-71004777D01*
X120591219Y-70913194D01*
X120661787Y-70816092D01*
X120734945Y-70715101D01*
X120809521Y-70611850D01*
X120884344Y-70507968D01*
X120958243Y-70405085D01*
X121030046Y-70304831D01*
X121098584Y-70208836D01*
X121162684Y-70118727D01*
X121221175Y-70036136D01*
X121272886Y-69962692D01*
X121316647Y-69900024D01*
X121351285Y-69849761D01*
X121375630Y-69813534D01*
X121388511Y-69792971D01*
X121390269Y-69788868D01*
X121382310Y-69777542D01*
X121361515Y-69750362D01*
X121329247Y-69709029D01*
X121286870Y-69655244D01*
X121235747Y-69590706D01*
X121177241Y-69517118D01*
X121112714Y-69436178D01*
X121043531Y-69349588D01*
X120971053Y-69259048D01*
X120896646Y-69166260D01*
X120836917Y-69091902D01*
X119825911Y-69091902D01*
X119820002Y-69104859D01*
X119805672Y-69127108D01*
X119804625Y-69128591D01*
X119785838Y-69158744D01*
X119766191Y-69195575D01*
X119762292Y-69203711D01*
X119758756Y-69212140D01*
X119755630Y-69222259D01*
X119752886Y-69235460D01*
X119750492Y-69253138D01*
X119748419Y-69276684D01*
X119746635Y-69307493D01*
X119745112Y-69346957D01*
X119743819Y-69396469D01*
X119742726Y-69457423D01*
X119741803Y-69531211D01*
X119741019Y-69619228D01*
X119740345Y-69722865D01*
X119739750Y-69843516D01*
X119739205Y-69982574D01*
X119738679Y-70141432D01*
X119738145Y-70320289D01*
X119737606Y-70505407D01*
X119737172Y-70669345D01*
X119736909Y-70813503D01*
X119736884Y-70939279D01*
X119737165Y-71048071D01*
X119737819Y-71141277D01*
X119738914Y-71220297D01*
X119740518Y-71286528D01*
X119742697Y-71341370D01*
X119745519Y-71386221D01*
X119749051Y-71422478D01*
X119753361Y-71451541D01*
X119758517Y-71474809D01*
X119764585Y-71493679D01*
X119771633Y-71509551D01*
X119779729Y-71523822D01*
X119788940Y-71537891D01*
X119797440Y-71550358D01*
X119814576Y-71576652D01*
X119824722Y-71594237D01*
X119825911Y-71597457D01*
X119815004Y-71598534D01*
X119783811Y-71599535D01*
X119734623Y-71600435D01*
X119669733Y-71601210D01*
X119591430Y-71601837D01*
X119502007Y-71602291D01*
X119403756Y-71602549D01*
X119334845Y-71602600D01*
X119229852Y-71602380D01*
X119133010Y-71601748D01*
X119046507Y-71600749D01*
X118972532Y-71599427D01*
X118913274Y-71597826D01*
X118870920Y-71595991D01*
X118847660Y-71593965D01*
X118843778Y-71592693D01*
X118851476Y-71577791D01*
X118859474Y-71569760D01*
X118872646Y-71552634D01*
X118889885Y-71522383D01*
X118901807Y-71497822D01*
X118928445Y-71438911D01*
X118931520Y-70262045D01*
X118934595Y-69085178D01*
X119380253Y-69085178D01*
X119478070Y-69085342D01*
X119568464Y-69085811D01*
X119649030Y-69086547D01*
X119717362Y-69087516D01*
X119771056Y-69088680D01*
X119807705Y-69090003D01*
X119824904Y-69091449D01*
X119825911Y-69091902D01*
X120836917Y-69091902D01*
X120821670Y-69072922D01*
X120747490Y-68980737D01*
X120675469Y-68891404D01*
X120606969Y-68806624D01*
X120543355Y-68728098D01*
X120485988Y-68657526D01*
X120436233Y-68596609D01*
X120395452Y-68547047D01*
X120378288Y-68526378D01*
X120291996Y-68425716D01*
X120215397Y-68342459D01*
X120146583Y-68274638D01*
X120083648Y-68220289D01*
X120074267Y-68212922D01*
X120034756Y-68182317D01*
X121166516Y-68182067D01*
X121161227Y-68230044D01*
X121164530Y-68287388D01*
X121186061Y-68355663D01*
X121226035Y-68435412D01*
X121271343Y-68507695D01*
X121287561Y-68530340D01*
X121315614Y-68567896D01*
X121353830Y-68618221D01*
X121400537Y-68679173D01*
X121454061Y-68748611D01*
X121512731Y-68824394D01*
X121574875Y-68904380D01*
X121638821Y-68986428D01*
X121702895Y-69068396D01*
X121765427Y-69148143D01*
X121824743Y-69223527D01*
X121879171Y-69292407D01*
X121927039Y-69352642D01*
X121966675Y-69402089D01*
X121996406Y-69438608D01*
X122014561Y-69460058D01*
X122017620Y-69463356D01*
X122020479Y-69455349D01*
X122022693Y-69425055D01*
X122024257Y-69372756D01*
X122025167Y-69298731D01*
X122025420Y-69203263D01*
X122025013Y-69086634D01*
X122024104Y-68966645D01*
X122022782Y-68834533D01*
X122021257Y-68722794D01*
X122019281Y-68629225D01*
X122016606Y-68551619D01*
X122012982Y-68487774D01*
X122008161Y-68435483D01*
X122001894Y-68392544D01*
X121993932Y-68356751D01*
X121984027Y-68325900D01*
X121971931Y-68297786D01*
X121957393Y-68270205D01*
X121942711Y-68245166D01*
X121904714Y-68182067D01*
X122964597Y-68182067D01*
X123267434Y-68182067D01*
X123267401Y-68175817D01*
X123266595Y-68073744D01*
X123265570Y-67984833D01*
X123264300Y-67908141D01*
X123262760Y-67842727D01*
X123260924Y-67787649D01*
X123258767Y-67741965D01*
X123256263Y-67704734D01*
X123253387Y-67675013D01*
X123250113Y-67651862D01*
X123246415Y-67634339D01*
X123242269Y-67621501D01*
X123237647Y-67612408D01*
X123232526Y-67606118D01*
X123226878Y-67601688D01*
X123220679Y-67598178D01*
X123213904Y-67594645D01*
X123207908Y-67591076D01*
X123202675Y-67588500D01*
X123194499Y-67586172D01*
X123182286Y-67584078D01*
X123164941Y-67582207D01*
X123141369Y-67580547D01*
X123110477Y-67579084D01*
X123071168Y-67577808D01*
X123022350Y-67576704D01*
X122962927Y-67575761D01*
X122891804Y-67574967D01*
X122807888Y-67574309D01*
X122710083Y-67573775D01*
X122597294Y-67573353D01*
X122468429Y-67573029D01*
X122322391Y-67572792D01*
X122158086Y-67572630D01*
X121974420Y-67572530D01*
X121770297Y-67572480D01*
X121559153Y-67572467D01*
X119938800Y-67572467D01*
X119938800Y-67669254D01*
G37*
X119938800Y-67669254D02*
X119927935Y-67783193D01*
X119896318Y-67890816D01*
X119845415Y-67989815D01*
X119776693Y-68077884D01*
X119691619Y-68152716D01*
X119594632Y-68210584D01*
X119488364Y-68250205D01*
X119381350Y-68268773D01*
X119275700Y-68267634D01*
X119173525Y-68248130D01*
X119076934Y-68211606D01*
X118988038Y-68159405D01*
X118908946Y-68092873D01*
X118841769Y-68013352D01*
X118788617Y-67922187D01*
X118751599Y-67820723D01*
X118732827Y-67710302D01*
X118730889Y-67660406D01*
X118730889Y-67572467D01*
X118678960Y-67572467D01*
X118642653Y-67575311D01*
X118615755Y-67587111D01*
X118588649Y-67610849D01*
X118550267Y-67649231D01*
X118550267Y-69840802D01*
X118550276Y-70102939D01*
X118550308Y-70343441D01*
X118550372Y-70563248D01*
X118550476Y-70763301D01*
X118550627Y-70944544D01*
X118550834Y-71107916D01*
X118551106Y-71254360D01*
X118551450Y-71384817D01*
X118551874Y-71500229D01*
X118552387Y-71601538D01*
X118552997Y-71689684D01*
X118553712Y-71765610D01*
X118554540Y-71830257D01*
X118555489Y-71884567D01*
X118556567Y-71929480D01*
X118557783Y-71965940D01*
X118559145Y-71994887D01*
X118560661Y-72017263D01*
X118562338Y-72034009D01*
X118564186Y-72046068D01*
X118566213Y-72054380D01*
X118568425Y-72059887D01*
X118569508Y-72061737D01*
X118573671Y-72068749D01*
X118577205Y-72075196D01*
X118581035Y-72081100D01*
X118586082Y-72086486D01*
X118593271Y-72091378D01*
X118603523Y-72095798D01*
X118617764Y-72099772D01*
X118636914Y-72103321D01*
X118661899Y-72106470D01*
X118693640Y-72109242D01*
X118733062Y-72111661D01*
X118781086Y-72113751D01*
X118838637Y-72115535D01*
X118906637Y-72117037D01*
X118986010Y-72118280D01*
X119077679Y-72119289D01*
X119182566Y-72120085D01*
X119301596Y-72120694D01*
X119435690Y-72121139D01*
X119585773Y-72121443D01*
X119752767Y-72121630D01*
X119937596Y-72121724D01*
X120141183Y-72121748D01*
X120364450Y-72121725D01*
X120608322Y-72121680D01*
X120873721Y-72121637D01*
X120912104Y-72121632D01*
X121179082Y-72121589D01*
X121424402Y-72121518D01*
X121648983Y-72121413D01*
X121853745Y-72121266D01*
X122039606Y-72121069D01*
X122207488Y-72120816D01*
X122358308Y-72120500D01*
X122492987Y-72120113D01*
X122612444Y-72119647D01*
X122717599Y-72119097D01*
X122809371Y-72118453D01*
X122888679Y-72117711D01*
X122956443Y-72116861D01*
X123013582Y-72115897D01*
X123061017Y-72114811D01*
X123099666Y-72113597D01*
X123130449Y-72112247D01*
X123154285Y-72110755D01*
X123172094Y-72109111D01*
X123184795Y-72107311D01*
X123193308Y-72105345D01*
X123197666Y-72103677D01*
X123206128Y-72100106D01*
X123213897Y-72097470D01*
X123221002Y-72094834D01*
X123227473Y-72091262D01*
X123233339Y-72085821D01*
X123238629Y-72077575D01*
X123243374Y-72065590D01*
X123247602Y-72048931D01*
X123251343Y-72026663D01*
X123254627Y-71997852D01*
X123257483Y-71961563D01*
X123259940Y-71916861D01*
X123262029Y-71862811D01*
X123263778Y-71798479D01*
X123265217Y-71722930D01*
X123266376Y-71635230D01*
X123267283Y-71534443D01*
X123267969Y-71419634D01*
X123268463Y-71289870D01*
X123268795Y-71144215D01*
X123268993Y-70981735D01*
X123269087Y-70801495D01*
X123269108Y-70602560D01*
X123269085Y-70383996D01*
X123269046Y-70144868D01*
X123269022Y-69884240D01*
X123269022Y-69842089D01*
X123269036Y-69579192D01*
X123269061Y-69337932D01*
X123269071Y-69117365D01*
X123269042Y-68916552D01*
X123268948Y-68734549D01*
X123268762Y-68570416D01*
X123268459Y-68423211D01*
X123268014Y-68291992D01*
X123267434Y-68182067D01*
X122964597Y-68182067D01*
X122924807Y-68239911D01*
X122913636Y-68255679D01*
X122903566Y-68269641D01*
X122894538Y-68282984D01*
X122886497Y-68296893D01*
X122879386Y-68312556D01*
X122873147Y-68331158D01*
X122867725Y-68353886D01*
X122863062Y-68381927D01*
X122859101Y-68416467D01*
X122855785Y-68458692D01*
X122853059Y-68509789D01*
X122850864Y-68570944D01*
X122849145Y-68643344D01*
X122847844Y-68728175D01*
X122846905Y-68826622D01*
X122846270Y-68939874D01*
X122845884Y-69069116D01*
X122845688Y-69215534D01*
X122845627Y-69380316D01*
X122845643Y-69564647D01*
X122845680Y-69769713D01*
X122845689Y-69892333D01*
X122845665Y-70109282D01*
X122845631Y-70304842D01*
X122845643Y-70480199D01*
X122845758Y-70636541D01*
X122846030Y-70775057D01*
X122846518Y-70896934D01*
X122847276Y-71003360D01*
X122848362Y-71095522D01*
X122849831Y-71174609D01*
X122851740Y-71241808D01*
X122854144Y-71298307D01*
X122857101Y-71345293D01*
X122860666Y-71383955D01*
X122864895Y-71415480D01*
X122869846Y-71441055D01*
X122875573Y-71461870D01*
X122882133Y-71479111D01*
X122889583Y-71493965D01*
X122897979Y-71507622D01*
X122907376Y-71521269D01*
X122917832Y-71536093D01*
X122923923Y-71544983D01*
X122962696Y-71602600D01*
X122431132Y-71602600D01*
X122307883Y-71602565D01*
X122205387Y-71602415D01*
X122121820Y-71602078D01*
X122055356Y-71601486D01*
X122004171Y-71600567D01*
X121966441Y-71599251D01*
X121940340Y-71597469D01*
X121924044Y-71595151D01*
X121915728Y-71592226D01*
X121913568Y-71588624D01*
X121915739Y-71584275D01*
X121916935Y-71582845D01*
X121942085Y-71545773D01*
X121967983Y-71492972D01*
X121991592Y-71430970D01*
X121999861Y-71404557D01*
X122004478Y-71386616D01*
X122008379Y-71365555D01*
X122011648Y-71339289D01*
X122014366Y-71305732D01*
X122016615Y-71262799D01*
X122018477Y-71208404D01*
X122020036Y-71140462D01*
X122021372Y-71056888D01*
X122022569Y-70955595D01*
X122023708Y-70834500D01*
X122024085Y-70789800D01*
X122025102Y-70664649D01*
X122025860Y-70560282D01*
X122026303Y-70474907D01*
X122026370Y-70406733D01*
X122026005Y-70353965D01*
X122025148Y-70314814D01*
X122023741Y-70287485D01*
X122021725Y-70270186D01*
X122019043Y-70261126D01*
X122015636Y-70258512D01*
X122011444Y-70260551D01*
X122006971Y-70264867D01*
X121996616Y-70277802D01*
X121974558Y-70306876D01*
X121942357Y-70349959D01*
X121901574Y-70404918D01*
X121853770Y-70469623D01*
X121800505Y-70541942D01*
X121743340Y-70619744D01*
X121683837Y-70700898D01*
X121623555Y-70783272D01*
X121564055Y-70864736D01*
X121506898Y-70943157D01*
X121453645Y-71016404D01*
X121405857Y-71082347D01*
X121365093Y-71138854D01*
X121332916Y-71183793D01*
X121310885Y-71215034D01*
X121306317Y-71221666D01*
X121283396Y-71258569D01*
X121256588Y-71306559D01*
X121231189Y-71356097D01*
X121227968Y-71362777D01*
X121206290Y-71410972D01*
X121193704Y-71448534D01*
X121187974Y-71484360D01*
X121186856Y-71526400D01*
X121187490Y-71602600D01*
X120033051Y-71602600D01*
X120124215Y-71508869D01*
X120171012Y-71458975D01*
X120221299Y-71402495D01*
X120267344Y-71348226D01*
X120287769Y-71322873D01*
X120318207Y-71283328D01*
X120358262Y-71230116D01*
X120406761Y-71164867D01*
X120462535Y-71089211D01*
X120524411Y-71004777D01*
X120591219Y-70913194D01*
X120661787Y-70816092D01*
X120734945Y-70715101D01*
X120809521Y-70611850D01*
X120884344Y-70507968D01*
X120958243Y-70405085D01*
X121030046Y-70304831D01*
X121098584Y-70208836D01*
X121162684Y-70118727D01*
X121221175Y-70036136D01*
X121272886Y-69962692D01*
X121316647Y-69900024D01*
X121351285Y-69849761D01*
X121375630Y-69813534D01*
X121388511Y-69792971D01*
X121390269Y-69788868D01*
X121382310Y-69777542D01*
X121361515Y-69750362D01*
X121329247Y-69709029D01*
X121286870Y-69655244D01*
X121235747Y-69590706D01*
X121177241Y-69517118D01*
X121112714Y-69436178D01*
X121043531Y-69349588D01*
X120971053Y-69259048D01*
X120896646Y-69166260D01*
X120836917Y-69091902D01*
X119825911Y-69091902D01*
X119820002Y-69104859D01*
X119805672Y-69127108D01*
X119804625Y-69128591D01*
X119785838Y-69158744D01*
X119766191Y-69195575D01*
X119762292Y-69203711D01*
X119758756Y-69212140D01*
X119755630Y-69222259D01*
X119752886Y-69235460D01*
X119750492Y-69253138D01*
X119748419Y-69276684D01*
X119746635Y-69307493D01*
X119745112Y-69346957D01*
X119743819Y-69396469D01*
X119742726Y-69457423D01*
X119741803Y-69531211D01*
X119741019Y-69619228D01*
X119740345Y-69722865D01*
X119739750Y-69843516D01*
X119739205Y-69982574D01*
X119738679Y-70141432D01*
X119738145Y-70320289D01*
X119737606Y-70505407D01*
X119737172Y-70669345D01*
X119736909Y-70813503D01*
X119736884Y-70939279D01*
X119737165Y-71048071D01*
X119737819Y-71141277D01*
X119738914Y-71220297D01*
X119740518Y-71286528D01*
X119742697Y-71341370D01*
X119745519Y-71386221D01*
X119749051Y-71422478D01*
X119753361Y-71451541D01*
X119758517Y-71474809D01*
X119764585Y-71493679D01*
X119771633Y-71509551D01*
X119779729Y-71523822D01*
X119788940Y-71537891D01*
X119797440Y-71550358D01*
X119814576Y-71576652D01*
X119824722Y-71594237D01*
X119825911Y-71597457D01*
X119815004Y-71598534D01*
X119783811Y-71599535D01*
X119734623Y-71600435D01*
X119669733Y-71601210D01*
X119591430Y-71601837D01*
X119502007Y-71602291D01*
X119403756Y-71602549D01*
X119334845Y-71602600D01*
X119229852Y-71602380D01*
X119133010Y-71601748D01*
X119046507Y-71600749D01*
X118972532Y-71599427D01*
X118913274Y-71597826D01*
X118870920Y-71595991D01*
X118847660Y-71593965D01*
X118843778Y-71592693D01*
X118851476Y-71577791D01*
X118859474Y-71569760D01*
X118872646Y-71552634D01*
X118889885Y-71522383D01*
X118901807Y-71497822D01*
X118928445Y-71438911D01*
X118931520Y-70262045D01*
X118934595Y-69085178D01*
X119380253Y-69085178D01*
X119478070Y-69085342D01*
X119568464Y-69085811D01*
X119649030Y-69086547D01*
X119717362Y-69087516D01*
X119771056Y-69088680D01*
X119807705Y-69090003D01*
X119824904Y-69091449D01*
X119825911Y-69091902D01*
X120836917Y-69091902D01*
X120821670Y-69072922D01*
X120747490Y-68980737D01*
X120675469Y-68891404D01*
X120606969Y-68806624D01*
X120543355Y-68728098D01*
X120485988Y-68657526D01*
X120436233Y-68596609D01*
X120395452Y-68547047D01*
X120378288Y-68526378D01*
X120291996Y-68425716D01*
X120215397Y-68342459D01*
X120146583Y-68274638D01*
X120083648Y-68220289D01*
X120074267Y-68212922D01*
X120034756Y-68182317D01*
X121166516Y-68182067D01*
X121161227Y-68230044D01*
X121164530Y-68287388D01*
X121186061Y-68355663D01*
X121226035Y-68435412D01*
X121271343Y-68507695D01*
X121287561Y-68530340D01*
X121315614Y-68567896D01*
X121353830Y-68618221D01*
X121400537Y-68679173D01*
X121454061Y-68748611D01*
X121512731Y-68824394D01*
X121574875Y-68904380D01*
X121638821Y-68986428D01*
X121702895Y-69068396D01*
X121765427Y-69148143D01*
X121824743Y-69223527D01*
X121879171Y-69292407D01*
X121927039Y-69352642D01*
X121966675Y-69402089D01*
X121996406Y-69438608D01*
X122014561Y-69460058D01*
X122017620Y-69463356D01*
X122020479Y-69455349D01*
X122022693Y-69425055D01*
X122024257Y-69372756D01*
X122025167Y-69298731D01*
X122025420Y-69203263D01*
X122025013Y-69086634D01*
X122024104Y-68966645D01*
X122022782Y-68834533D01*
X122021257Y-68722794D01*
X122019281Y-68629225D01*
X122016606Y-68551619D01*
X122012982Y-68487774D01*
X122008161Y-68435483D01*
X122001894Y-68392544D01*
X121993932Y-68356751D01*
X121984027Y-68325900D01*
X121971931Y-68297786D01*
X121957393Y-68270205D01*
X121942711Y-68245166D01*
X121904714Y-68182067D01*
X122964597Y-68182067D01*
X123267434Y-68182067D01*
X123267401Y-68175817D01*
X123266595Y-68073744D01*
X123265570Y-67984833D01*
X123264300Y-67908141D01*
X123262760Y-67842727D01*
X123260924Y-67787649D01*
X123258767Y-67741965D01*
X123256263Y-67704734D01*
X123253387Y-67675013D01*
X123250113Y-67651862D01*
X123246415Y-67634339D01*
X123242269Y-67621501D01*
X123237647Y-67612408D01*
X123232526Y-67606118D01*
X123226878Y-67601688D01*
X123220679Y-67598178D01*
X123213904Y-67594645D01*
X123207908Y-67591076D01*
X123202675Y-67588500D01*
X123194499Y-67586172D01*
X123182286Y-67584078D01*
X123164941Y-67582207D01*
X123141369Y-67580547D01*
X123110477Y-67579084D01*
X123071168Y-67577808D01*
X123022350Y-67576704D01*
X122962927Y-67575761D01*
X122891804Y-67574967D01*
X122807888Y-67574309D01*
X122710083Y-67573775D01*
X122597294Y-67573353D01*
X122468429Y-67573029D01*
X122322391Y-67572792D01*
X122158086Y-67572630D01*
X121974420Y-67572530D01*
X121770297Y-67572480D01*
X121559153Y-67572467D01*
X119938800Y-67572467D01*
X119938800Y-67669254D01*
M02*
