M48
; DRILL file {KiCad (5.1.5-0-10_14)} date Friday, 31 July 2020 at 20:33:51
; FORMAT={-:-/ absolute / inch / decimal}
; #@! TF.CreationDate,2020-07-31T20:33:51+01:00
; #@! TF.GenerationSoftware,Kicad,Pcbnew,(5.1.5-0-10_14)
; #@! TF.FileFunction,Plated,1,4,PTH
FMAT,2
INCH
T1C0.0157
T2C0.0315
T3C0.0320
T4C0.0394
T5C0.0400
%
G90
G05
T1
X2.936Y-3.2343
X2.937Y-3.623
X3.0107Y-5.8311
X3.0482Y-5.8007
X3.0551Y-4.6722
X3.0561Y-4.8228
X3.0571Y-5.3238
X3.0581Y-4.7472
X3.0581Y-4.9232
X3.0581Y-5.0246
X3.0581Y-5.124
X3.0581Y-5.2215
X3.0581Y-5.4213
X3.0581Y-5.4979
X3.065Y-3.247
X3.0787Y-3.9398
X3.0846Y-5.7655
X3.0856Y-4.1722
X3.0906Y-3.2815
X3.0974Y-3.3228
X3.0999Y-4.2403
X3.1073Y-3.8278
X3.1116Y-2.9715
X3.123Y-5.7134
X3.1364Y-4.2156
X3.1604Y-5.6831
X3.1611Y-3.4728
X3.1614Y-4.4114
X3.1624Y-3.1565
X3.189Y-3.5728
X3.189Y-4.4408
X3.19Y-3.1831
X3.1919Y-4.873
X3.2047Y-3.0098
X3.2126Y-4.9724
X3.2187Y-3.6731
X3.2195Y-3.2087
X3.2199Y-2.7677
X3.2205Y-4.4685
X3.2313Y-4.7224
X3.2352Y-5.0728
X3.2446Y-3.6461
X3.2563Y-5.5728
X3.2687Y-4.6014
X3.2694Y-3.6749
X3.2776Y-2.5866
X3.2811Y-5.4724
X3.297Y-3.7003
X3.2982Y-4.5098
X3.301Y-2.616
X3.3058Y-5.373
X3.3217Y-4.3758
X3.3225Y-3.7277
X3.3249Y-2.6449
X3.3306Y-5.2726
X3.346Y-2.6759
X3.3465Y-4.315
X3.3473Y-3.7559
X3.3553Y-5.1742
X3.374Y-2.7008
X3.3976Y-2.7303
X3.4666Y-2.9276
X3.4882Y-2.9606
X3.5167Y-5.6663
X3.5256Y-2.9029
X3.5678Y-2.9861
X3.5906Y-3.0197
X3.6277Y-2.9235
X3.6378Y-5.9547
X3.6579Y-5.7028
X3.6579Y-5.7776
X3.6616Y-5.8959
X3.7244Y-2.9349
X3.7451Y-3.9201
X3.748Y-5.2028
X3.749Y-3.4244
X3.7583Y-5.502
X3.7583Y-5.6024
X3.7953Y-5.8622
X3.8268Y-2.9229
X3.8268Y-5.6437
X3.8661Y-3.3996
X3.8917Y-4.5433
X3.8986Y-3.4596
X3.9165Y-4.1732
X3.9252Y-3.1164
X3.9272Y-3.2077
X3.9862Y-4.198
X3.999Y-3.7274
X4.0129Y-3.9201
X4.0768Y-3.6299
X4.0886Y-4.2106
X4.1161Y-2.9109
X4.1196Y-4.2364
X4.1467Y-3.6831
X4.185Y-3.0463
X4.2552Y-3.0456
X4.2982Y-3.6043
X4.2992Y-4.2087
X4.3366Y-2.6673
X4.3455Y-4.1329
X4.3465Y-3.7274
X4.3689Y-2.6939
X4.4012Y-2.7204
X4.4035Y-4.1004
X4.4272Y-3.116
X4.4336Y-2.7469
X4.439Y-4.0354
X4.4659Y-2.7734
X4.5256Y-2.9109
X4.628Y-3.0512
X4.6364Y-5.5755
X4.6496Y-2.7697
X4.6611Y-5.6634
X4.6817Y-2.7463
X4.6859Y-5.7638
X4.7106Y-5.9035
X4.7137Y-2.723
X4.7382Y-5.8051
X4.7458Y-2.6997
X4.7598Y-5.7028
X4.7778Y-2.6763
X4.7805Y-5.5875
X4.8016Y-5.526
X4.8059Y-5.4868
X4.8099Y-2.653
X4.8179Y-2.8229
X4.842Y-2.6296
X4.8484Y-4.5157
X4.874Y-2.6063
X4.878Y-5.6201
X4.9114Y-6.0568
X5.0256Y-3.4331
X5.0571Y-6.0688
X5.1398Y-5.7657
X5.1535Y-4.5413
X5.1535Y-5.1811
X5.2244Y-2.7598
X5.2264Y-3.14
X5.2717Y-6.0448
X5.2776Y-2.3425
X5.3268Y-2.6614
X5.3268Y-2.7858
X5.3268Y-2.8978
X5.3868Y-2.9109
X5.4232Y-6.0208
X5.4252Y-2.5886
X5.4291Y-2.873
X5.4646Y-5.0039
X5.4665Y-2.9109
X5.4724Y-5.7047
X5.4934Y-2.8848
X5.5256Y-3.1024
X5.5276Y-2.5472
X5.5669Y-2.86
X5.5768Y-2.3653
X5.5787Y-4.9035
X5.6181Y-5.2183
X5.628Y-2.8353
X5.6378Y-4.8012
X5.6673Y-2.8105
X5.7185Y-2.7858
X5.7264Y-4.9016
X5.7736Y-5.0059
X5.7854Y-2.7362
X5.8532Y-2.761
X5.8549Y-5.9833
X5.8724Y-4.561
X5.8937Y-4.3051
X5.9272Y-2.7858
X5.9272Y-3.176
X5.998Y-2.6614
X6.0256Y-2.8105
X6.0256Y-3.1625
X6.0407Y-5.3025
X6.0492Y-2.7382
X6.0709Y-4.6024
X6.0787Y-2.5886
X6.0984Y-5.1024
X6.1232Y-4.5492
X6.128Y-2.8353
X6.128Y-3.1378
X6.1476Y-4.7008
X6.1634Y-2.5197
X6.1727Y-4.462
X6.1988Y-2.5492
X6.1988Y-4.752
X6.2264Y-2.86
X6.3268Y-2.8862
X6.4055Y-3.6988
X6.4272Y-2.9109
X6.4324Y-5.4035
X6.435Y-3.7953
X6.4646Y-3.9775
X6.4646Y-5.3031
X6.5031Y-3.0304
X6.5039Y-4.0
X6.5039Y-5.1024
X6.5335Y-3.002
X6.5422Y-4.0492
X6.5433Y-5.2106
X6.5591Y-2.9744
X6.5669Y-4.0866
X6.5831Y-2.9456
X6.6065Y-4.1114
X6.6083Y-2.9173
X6.6358Y-2.8917
X6.6457Y-4.1339
X6.6594Y-2.8622
X6.6757Y-3.4449
X6.6757Y-3.7244
X6.6831Y-2.8327
X6.685Y-4.1535
X6.7076Y-3.3882
X6.7077Y-3.2503
X6.7079Y-3.4257
X6.7106Y-3.6839
X6.7224Y-4.1713
X6.7608Y-3.5758
X6.7608Y-3.8548
X6.7638Y-4.187
X6.7736Y-2.6476
X6.8012Y-4.2067
X6.8091Y-4.3327
X6.8425Y-4.2283
X6.9921Y-4.2676
X6.9921Y-4.3051
X6.9921Y-4.8012
X7.0286Y-4.7764
X7.0886Y-2.5472
X7.1417Y-5.2067
X7.143Y-5.1188
X7.1673Y-3.2134
X7.2362Y-5.0059
X7.2795Y-4.9685
X7.303Y-3.8668
X7.4016Y-3.2382
X7.4764Y-2.6476
X7.5157Y-2.9882
X7.6575Y-3.2382
X7.6642Y-3.9665
X7.689Y-3.7972
X7.7233Y-3.8957
X7.7421Y-3.6476
X7.748Y-3.3228
X7.8406Y-4.7028
X7.9232Y-4.9488
X7.9575Y-5.25
X7.9587Y-3.0807
X7.9783Y-5.5492
X7.9823Y-4.0945
X8.0157Y-4.3976
X8.0217Y-3.9823
X8.2441Y-6.0039
X8.2688Y-5.9488
X8.2808Y-5.8484
X8.2928Y-5.748
X8.3048Y-5.6496
X8.7978Y-4.8242
X8.8304Y-4.9193
X8.8496Y-5.3181
X8.8976Y-5.2953
T2
X4.7835Y-3.5701
X4.7835Y-3.8701
X5.0835Y-3.5701
X5.0835Y-3.8701
X4.3858Y-4.6033
X4.3858Y-4.7033
X4.3858Y-4.8033
X4.3858Y-4.9033
X4.3858Y-5.0033
X4.3858Y-5.1033
X4.3858Y-5.2033
X4.3858Y-5.3033
X4.3858Y-5.4033
X4.3858Y-5.5033
X4.3858Y-5.6033
X4.3858Y-5.7033
X4.3858Y-5.8033
X4.3858Y-5.9033
X4.9858Y-4.6033
X4.9858Y-4.7033
X4.9858Y-4.8033
X4.9858Y-4.9033
X4.9858Y-5.0033
X4.9858Y-5.1033
X4.9858Y-5.2033
X4.9858Y-5.3033
X4.9858Y-5.4033
X4.9858Y-5.5033
X4.9858Y-5.6033
X4.9858Y-5.7033
X4.9858Y-5.8033
X4.9858Y-5.9033
X7.8602Y-3.1467
X7.8602Y-3.2467
X7.8602Y-3.3467
X7.8602Y-3.4467
X8.1602Y-3.1467
X8.1602Y-3.2467
X8.1602Y-3.3467
X8.1602Y-3.4467
X5.3386Y-4.4025
X5.3386Y-4.5025
X5.3386Y-4.6025
X5.3386Y-4.7025
X5.3386Y-4.8025
X5.3386Y-4.9025
X5.3386Y-5.0025
X5.3386Y-5.1025
X5.3386Y-5.2025
X5.3386Y-5.3025
X5.3386Y-5.4025
X5.3386Y-5.5025
X5.3386Y-5.6025
X5.3386Y-5.7025
X5.3386Y-5.8025
X5.3386Y-5.9025
X5.9386Y-4.4025
X5.9386Y-4.5025
X5.9386Y-4.6025
X5.9386Y-4.7025
X5.9386Y-4.8025
X5.9386Y-4.9025
X5.9386Y-5.0025
X5.9386Y-5.1025
X5.9386Y-5.2025
X5.9386Y-5.3025
X5.9386Y-5.4025
X5.9386Y-5.5025
X5.9386Y-5.6025
X5.9386Y-5.7025
X5.9386Y-5.8025
X5.9386Y-5.9025
X7.314Y-2.2982
X7.314Y-2.3982
X7.314Y-2.4982
X7.314Y-2.5982
X7.314Y-2.6982
X7.314Y-2.7982
X7.314Y-2.8982
X7.614Y-2.2982
X7.614Y-2.3982
X7.614Y-2.4982
X7.614Y-2.5982
X7.614Y-2.6982
X7.614Y-2.7982
X7.614Y-2.8982
X7.7618Y-2.2982
X7.7618Y-2.3982
X7.7618Y-2.4982
X7.7618Y-2.5982
X7.7618Y-2.6982
X7.7618Y-2.7982
X7.7618Y-2.8982
X8.0618Y-2.2982
X8.0618Y-2.3982
X8.0618Y-2.4982
X8.0618Y-2.5982
X8.0618Y-2.6982
X8.0618Y-2.7982
X8.0618Y-2.8982
X6.8681Y-2.2963
X6.8681Y-2.3963
X6.8681Y-2.4963
X6.8681Y-2.5963
X6.8681Y-2.6963
X6.8681Y-2.7963
X6.8681Y-2.8963
X6.8681Y-2.9963
X7.1681Y-2.2963
X7.1681Y-2.3963
X7.1681Y-2.4963
X7.1681Y-2.5963
X7.1681Y-2.6963
X7.1681Y-2.7963
X7.1681Y-2.8963
X7.1681Y-2.9963
X6.2913Y-4.4025
X6.2913Y-4.5025
X6.2913Y-4.6025
X6.2913Y-4.7025
X6.2913Y-4.8025
X6.2913Y-4.9025
X6.2913Y-5.0025
X6.2913Y-5.1025
X6.2913Y-5.2025
X6.2913Y-5.3025
X6.2913Y-5.4025
X6.2913Y-5.5025
X6.2913Y-5.6025
X6.2913Y-5.7025
X6.2913Y-5.8025
X6.2913Y-5.9025
X6.8913Y-4.4025
X6.8913Y-4.5025
X6.8913Y-4.6025
X6.8913Y-4.7025
X6.8913Y-4.8025
X6.8913Y-4.9025
X6.8913Y-5.0025
X6.8913Y-5.1025
X6.8913Y-5.2025
X6.8913Y-5.3025
X6.8913Y-5.4025
X6.8913Y-5.5025
X6.8913Y-5.6025
X6.8913Y-5.7025
X6.8913Y-5.8025
X6.8913Y-5.9025
X6.8386Y-3.322
X6.8386Y-3.622
X7.1386Y-3.322
X7.1386Y-3.622
X3.4331Y-4.6033
X3.4331Y-4.7033
X3.4331Y-4.8033
X3.4331Y-4.9033
X3.4331Y-5.0033
X3.4331Y-5.1033
X3.4331Y-5.2033
X3.4331Y-5.3033
X3.4331Y-5.4033
X3.4331Y-5.5033
X3.4331Y-5.6033
X3.4331Y-5.7033
X3.4331Y-5.8033
X3.4331Y-5.9033
X4.0331Y-4.6033
X4.0331Y-4.7033
X4.0331Y-4.8033
X4.0331Y-4.9033
X4.0331Y-5.0033
X4.0331Y-5.1033
X4.0331Y-5.2033
X4.0331Y-5.3033
X4.0331Y-5.4033
X4.0331Y-5.5033
X4.0331Y-5.6033
X4.0331Y-5.7033
X4.0331Y-5.8033
X4.0331Y-5.9033
T3
X5.9266Y-2.7017
X5.9266Y-3.1017
X7.0551Y-5.3039
X7.0551Y-5.7039
X3.0888Y-2.3228
X3.1888Y-2.3228
X5.7266Y-2.7017
X5.7266Y-3.1017
X5.1237Y-2.7032
X5.1237Y-3.1032
X4.9114Y-4.1272
X4.9114Y-4.2272
X3.4464Y-3.5272
X3.4464Y-3.8272
X3.5464Y-3.5272
X3.5464Y-3.8272
X3.6464Y-3.5272
X3.6464Y-3.8272
X3.7464Y-3.5272
X3.7464Y-3.8272
X3.8464Y-3.5272
X3.8464Y-3.8272
X3.9464Y-3.5272
X3.9464Y-3.8272
X4.0464Y-3.5272
X4.0464Y-3.8272
X4.1464Y-3.5272
X4.1464Y-3.8272
X4.2464Y-3.5272
X4.2464Y-3.8272
X4.3464Y-3.5272
X4.3464Y-3.8272
X7.078Y-4.2795
X7.178Y-4.2795
X8.3122Y-3.2618
X8.4122Y-3.2618
X7.1823Y-4.8858
X7.2823Y-4.8858
X7.0169Y-5.9528
X7.1169Y-5.9528
X8.2835Y-2.652
X8.2835Y-3.052
X8.2138Y-2.3878
X8.3138Y-2.3878
X7.1948Y-5.2874
X7.2948Y-5.2874
X7.4213Y-5.3039
X7.4213Y-5.7039
X7.4004Y-3.1012
X7.4004Y-3.5012
X3.4464Y-4.0311
X3.4464Y-4.3311
X3.5464Y-4.0311
X3.5464Y-4.3311
X3.6464Y-4.0311
X3.6464Y-4.3311
X3.7464Y-4.0311
X3.7464Y-4.3311
X3.8464Y-4.0311
X3.8464Y-4.3311
X3.9464Y-4.0311
X3.9464Y-4.3311
X4.0464Y-4.0311
X4.0464Y-4.3311
X4.1464Y-4.0311
X4.1464Y-4.3311
X4.2464Y-4.0311
X4.2464Y-4.3311
X4.3464Y-4.0311
X4.3464Y-4.3311
X7.1948Y-5.7028
X7.2948Y-5.7028
X6.7146Y-2.4677
X6.7146Y-2.5677
X5.2854Y-3.5047
X5.2854Y-3.9047
X6.8394Y-3.8346
X7.2394Y-3.8346
X7.2807Y-4.2795
X7.3807Y-4.2795
X8.322Y-3.8543
X8.422Y-3.8543
X8.43Y-5.624
X8.57Y-5.624
X8.5085Y-3.102
X8.9085Y-3.102
X8.3299Y-5.1594
X8.4299Y-5.1594
X4.2372Y-2.6986
X4.2372Y-3.0986
X7.8071Y-5.426
X7.8071Y-5.826
X7.6075Y-3.4114
X7.7075Y-3.4114
X4.5039Y-3.6232
X4.5039Y-3.7232
X6.635Y-2.2972
X6.735Y-2.2972
X7.1373Y-4.5591
X7.3273Y-4.5591
X8.328Y-4.5157
X8.428Y-4.5157
X8.4185Y-2.652
X8.4185Y-3.052
X8.5576Y-3.6294
X8.5576Y-4.0294
X6.7146Y-2.6744
X6.7146Y-2.7744
X5.6266Y-2.7017
X5.6266Y-3.1017
X3.4264Y-2.428
X3.4264Y-3.328
X3.5264Y-2.428
X3.5264Y-3.328
X3.6264Y-2.428
X3.6264Y-3.328
X3.7264Y-2.428
X3.7264Y-3.328
X3.8264Y-2.428
X3.8264Y-3.328
X3.9264Y-2.428
X3.9264Y-3.328
X4.0264Y-2.428
X4.0264Y-3.328
X4.1264Y-2.428
X4.1264Y-3.328
X4.2264Y-2.428
X4.2264Y-3.328
X4.3264Y-2.428
X4.3264Y-3.328
X4.4264Y-2.428
X4.4264Y-3.328
X4.5264Y-2.428
X4.5264Y-3.328
X4.6264Y-2.428
X4.6264Y-3.328
X4.7264Y-2.428
X4.7264Y-3.328
X4.8264Y-2.428
X4.8264Y-3.328
X4.9264Y-2.428
X4.9264Y-3.328
X5.0264Y-2.428
X5.0264Y-3.328
X5.1264Y-2.428
X5.1264Y-3.328
X5.2264Y-2.428
X5.2264Y-3.328
X5.3264Y-2.428
X5.3264Y-3.328
X5.4264Y-2.428
X5.4264Y-3.328
X5.5264Y-2.428
X5.5264Y-3.328
X5.6264Y-2.428
X5.6264Y-3.328
X5.7264Y-2.428
X5.7264Y-3.328
X5.8264Y-2.428
X5.8264Y-3.328
X5.9264Y-2.428
X5.9264Y-3.328
X6.0264Y-2.428
X6.0264Y-3.328
X6.1264Y-2.428
X6.1264Y-3.328
X6.2264Y-2.428
X6.2264Y-3.328
X6.3264Y-2.428
X6.3264Y-3.328
X6.4264Y-2.428
X6.4264Y-3.328
X6.5264Y-2.428
X6.5264Y-3.328
X8.322Y-4.1811
X8.422Y-4.1811
X4.5039Y-4.1272
X4.5039Y-4.2272
X7.9272Y-5.428
X7.9272Y-5.828
X3.9791Y-2.2736
X4.3791Y-2.2736
X5.4476Y-3.5508
X5.4476Y-3.8508
X5.5476Y-3.5508
X5.5476Y-3.8508
X5.6476Y-3.5508
X5.6476Y-3.8508
X5.7476Y-3.5508
X5.7476Y-3.8508
X5.8476Y-3.5508
X5.8476Y-3.8508
X5.9476Y-3.5508
X5.9476Y-3.8508
X6.0476Y-3.5508
X6.0476Y-3.8508
X6.1476Y-3.5508
X6.1476Y-3.8508
X6.2476Y-3.5508
X6.2476Y-3.8508
X6.3476Y-3.5508
X6.3476Y-3.8508
X7.8555Y-3.0217
X7.9555Y-3.0217
X5.1114Y-4.6024
X5.2114Y-4.6024
X8.7797Y-5.627
X8.8797Y-5.627
X4.1157Y-2.6987
X4.1157Y-3.0987
X7.5681Y-3.6492
X7.5681Y-3.7492
X7.5681Y-3.8492
X7.5681Y-3.9492
X7.5681Y-4.0492
X7.5681Y-4.1492
X7.5681Y-4.2492
X7.5681Y-4.3492
X7.5681Y-4.4492
X7.5681Y-4.5492
X7.5681Y-4.6492
X7.5681Y-4.7492
X7.5681Y-4.8492
X7.5681Y-4.9492
X7.5681Y-5.0492
X7.5681Y-5.1492
X7.5681Y-5.2492
X7.5681Y-5.3492
X7.5681Y-5.4492
X7.5681Y-5.5492
X7.5681Y-5.6492
X7.5681Y-5.7492
X7.5681Y-5.8492
X7.5681Y-5.9492
X8.1681Y-3.6492
X8.1681Y-3.7492
X8.1681Y-3.8492
X8.1681Y-3.9492
X8.1681Y-4.0492
X8.1681Y-4.1492
X8.1681Y-4.2492
X8.1681Y-4.3492
X8.1681Y-4.4492
X8.1681Y-4.5492
X8.1681Y-4.6492
X8.1681Y-4.7492
X8.1681Y-4.8492
X8.1681Y-4.9492
X8.1681Y-5.0492
X8.1681Y-5.1492
X8.1681Y-5.2492
X8.1681Y-5.3492
X8.1681Y-5.4492
X8.1681Y-5.5492
X8.1681Y-5.6492
X8.1681Y-5.7492
X8.1681Y-5.8492
X8.1681Y-5.9492
X6.498Y-3.6508
X6.498Y-3.7508
X6.0642Y-5.9567
X6.1642Y-5.9567
X7.5937Y-3.1437
X7.6937Y-3.1437
X8.4106Y-3.4547
X8.5106Y-3.4547
X7.4004Y-3.6045
X7.4004Y-4.0045
X6.9608Y-3.1339
X7.0608Y-3.1339
X8.4953Y-2.3858
X8.5953Y-2.3858
X5.111Y-4.2677
X5.511Y-4.2677
X4.1587Y-4.6063
X4.2587Y-4.6063
T4
X2.8868Y-2.5728
X2.8868Y-2.6728
X2.8868Y-2.7728
X2.8868Y-2.8728
X2.8868Y-2.9728
X2.8868Y-3.0728
X2.8868Y-3.1728
X2.8868Y-3.2728
X2.8868Y-3.3728
X2.8868Y-3.4728
X2.8868Y-3.5728
X2.8868Y-3.6728
X2.8868Y-3.7728
X2.8868Y-3.8728
X2.8868Y-3.9728
X2.8868Y-4.0728
X2.8868Y-4.1728
X2.8868Y-4.2728
X2.8868Y-4.3728
X2.8868Y-4.4728
X2.8868Y-4.5728
X2.8868Y-4.6728
X2.8868Y-4.7728
X2.8868Y-4.8728
X2.8868Y-4.9728
X2.8868Y-5.0728
X2.8868Y-5.1728
X2.8868Y-5.2728
X2.8868Y-5.3728
X2.8868Y-5.4728
X2.8868Y-5.5728
X2.8868Y-5.6728
X2.9868Y-2.5728
X2.9868Y-2.6728
X2.9868Y-2.7728
X2.9868Y-2.8728
X2.9868Y-2.9728
X2.9868Y-3.0728
X2.9868Y-3.1728
X2.9868Y-3.2728
X2.9868Y-3.3728
X2.9868Y-3.4728
X2.9868Y-3.5728
X2.9868Y-3.6728
X2.9868Y-3.7728
X2.9868Y-3.8728
X2.9868Y-3.9728
X2.9868Y-4.0728
X2.9868Y-4.1728
X2.9868Y-4.2728
X2.9868Y-4.3728
X2.9868Y-4.4728
X2.9868Y-4.5728
X2.9868Y-4.6728
X2.9868Y-4.7728
X2.9868Y-4.8728
X2.9868Y-4.9728
X2.9868Y-5.0728
X2.9868Y-5.1728
X2.9868Y-5.2728
X2.9868Y-5.3728
X2.9868Y-5.4728
X2.9868Y-5.5728
X2.9868Y-5.6728
X8.6106Y-4.472
X8.6106Y-4.572
X8.6106Y-4.672
X8.6106Y-4.772
X8.6106Y-4.872
X8.6106Y-4.972
X8.6106Y-5.072
X8.6106Y-5.172
X8.7106Y-4.472
X8.7106Y-4.572
X8.7106Y-4.672
X8.7106Y-4.772
X8.7106Y-4.872
X8.7106Y-4.972
X8.7106Y-5.072
X8.7106Y-5.172
T5
X8.45Y-5.9409
X8.55Y-5.9409
X8.7913Y-3.6953
X8.7913Y-3.7953
X8.7913Y-3.8953
X8.7913Y-3.9953
X8.7913Y-4.0953
X8.7913Y-4.1953
X8.7913Y-3.3516
X8.7913Y-3.4516
X8.6512Y-2.5787
X8.6512Y-2.8347
X8.8292Y-2.5787
X8.8292Y-2.8347
T0
M30
