G04 #@! TF.GenerationSoftware,KiCad,Pcbnew,(5.1.5-0-10_14)*
G04 #@! TF.CreationDate,2020-06-25T21:59:03+01:00*
G04 #@! TF.ProjectId,rosco_m68k,726f7363-6f5f-46d3-9638-6b2e6b696361,rev?*
G04 #@! TF.SameCoordinates,Original*
G04 #@! TF.FileFunction,Copper,L1,Top*
G04 #@! TF.FilePolarity,Positive*
%FSLAX46Y46*%
G04 Gerber Fmt 4.6, Leading zero omitted, Abs format (unit mm)*
G04 Created by KiCad (PCBNEW (5.1.5-0-10_14)) date 2020-06-25 21:59:03*
%MOMM*%
%LPD*%
G04 APERTURE LIST*
%ADD10O,2.400000X1.600000*%
%ADD11R,2.400000X1.600000*%
%ADD12O,1.320800X2.641600*%
%ADD13O,1.700000X1.700000*%
%ADD14R,1.700000X1.700000*%
%ADD15C,1.320800*%
%ADD16C,1.600000*%
%ADD17R,1.600000X1.600000*%
%ADD18O,2.641600X1.320800*%
%ADD19C,1.600200*%
%ADD20O,3.048000X1.524000*%
%ADD21O,1.524000X3.048000*%
%ADD22C,0.800000*%
%ADD23C,0.152400*%
%ADD24C,0.650000*%
G04 APERTURE END LIST*
D10*
X102440000Y-116923600D03*
X87200000Y-149943600D03*
X102440000Y-119463600D03*
X87200000Y-147403600D03*
X102440000Y-122003600D03*
X87200000Y-144863600D03*
X102440000Y-124543600D03*
X87200000Y-142323600D03*
X102440000Y-127083600D03*
X87200000Y-139783600D03*
X102440000Y-129623600D03*
X87200000Y-137243600D03*
X102440000Y-132163600D03*
X87200000Y-134703600D03*
X102440000Y-134703600D03*
X87200000Y-132163600D03*
X102440000Y-137243600D03*
X87200000Y-129623600D03*
X102440000Y-139783600D03*
X87200000Y-127083600D03*
X102440000Y-142323600D03*
X87200000Y-124543600D03*
X102440000Y-144863600D03*
X87200000Y-122003600D03*
X102440000Y-147403600D03*
X87200000Y-119463600D03*
X102440000Y-149943600D03*
D11*
X87200000Y-116923600D03*
D12*
X138370000Y-90190000D03*
X140910000Y-90190000D03*
X143450000Y-90190000D03*
X145990000Y-90190000D03*
X148530000Y-90190000D03*
X151070000Y-90190000D03*
X153610000Y-90190000D03*
X156150000Y-90190000D03*
X158690000Y-90190000D03*
X161230000Y-90190000D03*
X161230000Y-97810000D03*
X158690000Y-97810000D03*
X156150000Y-97810000D03*
X153610000Y-97810000D03*
X151070000Y-97810000D03*
X148530000Y-97810000D03*
X145990000Y-97810000D03*
X143450000Y-97810000D03*
X140910000Y-97810000D03*
X138370000Y-97810000D03*
D13*
X75865000Y-144090000D03*
X73325000Y-144090000D03*
X75865000Y-141550000D03*
X73325000Y-141550000D03*
X75865000Y-139010000D03*
X73325000Y-139010000D03*
X75865000Y-136470000D03*
X73325000Y-136470000D03*
X75865000Y-133930000D03*
X73325000Y-133930000D03*
X75865000Y-131390000D03*
X73325000Y-131390000D03*
X75865000Y-128850000D03*
X73325000Y-128850000D03*
X75865000Y-126310000D03*
X73325000Y-126310000D03*
X75865000Y-123770000D03*
X73325000Y-123770000D03*
X75865000Y-121230000D03*
X73325000Y-121230000D03*
X75865000Y-118690000D03*
X73325000Y-118690000D03*
X75865000Y-116150000D03*
X73325000Y-116150000D03*
X75865000Y-113610000D03*
X73325000Y-113610000D03*
X75865000Y-111070000D03*
X73325000Y-111070000D03*
X75865000Y-108530000D03*
X73325000Y-108530000D03*
X75865000Y-105990000D03*
X73325000Y-105990000D03*
X75865000Y-103450000D03*
X73325000Y-103450000D03*
X75865000Y-100910000D03*
X73325000Y-100910000D03*
X75865000Y-98370000D03*
X73325000Y-98370000D03*
X75865000Y-95830000D03*
X73325000Y-95830000D03*
X75865000Y-93290000D03*
X73325000Y-93290000D03*
X75865000Y-90750000D03*
X73325000Y-90750000D03*
X75865000Y-88210000D03*
X73325000Y-88210000D03*
X75865000Y-85670000D03*
X73325000Y-85670000D03*
X75865000Y-83130000D03*
X73325000Y-83130000D03*
X75865000Y-80590000D03*
X73325000Y-80590000D03*
X75865000Y-78050000D03*
X73325000Y-78050000D03*
X75865000Y-75510000D03*
X73325000Y-75510000D03*
X75865000Y-72970000D03*
X73325000Y-72970000D03*
X75865000Y-70430000D03*
X73325000Y-70430000D03*
X75865000Y-67890000D03*
X73325000Y-67890000D03*
X75865000Y-65350000D03*
D14*
X73325000Y-65350000D03*
D12*
X163230000Y-61670000D03*
X160690000Y-61670000D03*
X158150000Y-61670000D03*
X155610000Y-61670000D03*
X153070000Y-61670000D03*
X150530000Y-61670000D03*
X147990000Y-61670000D03*
X145450000Y-61670000D03*
X142910000Y-61670000D03*
X140370000Y-61670000D03*
X137830000Y-61670000D03*
X135290000Y-61670000D03*
X163230000Y-84530000D03*
X160690000Y-84530000D03*
X158150000Y-84530000D03*
X155610000Y-84530000D03*
X153070000Y-84530000D03*
X150530000Y-84530000D03*
X147990000Y-84530000D03*
X145450000Y-84530000D03*
X142910000Y-84530000D03*
X140370000Y-84530000D03*
X137830000Y-84530000D03*
X135290000Y-84530000D03*
X87030000Y-61670000D03*
X89570000Y-61670000D03*
X92110000Y-61670000D03*
X94650000Y-61670000D03*
X97190000Y-61670000D03*
X99730000Y-61670000D03*
X102270000Y-61670000D03*
X104810000Y-61670000D03*
X107350000Y-61670000D03*
X109890000Y-61670000D03*
X112430000Y-61670000D03*
X114970000Y-61670000D03*
X117510000Y-61670000D03*
X120050000Y-61670000D03*
X122590000Y-61670000D03*
X125130000Y-61670000D03*
X127670000Y-61670000D03*
X130210000Y-61670000D03*
X132750000Y-61670000D03*
X165770000Y-61670000D03*
X165770000Y-84530000D03*
X132750000Y-84530000D03*
X130210000Y-84530000D03*
X127670000Y-84530000D03*
X125130000Y-84530000D03*
X122590000Y-84530000D03*
X120050000Y-84530000D03*
X117510000Y-84530000D03*
X114970000Y-84530000D03*
X112430000Y-84530000D03*
X109890000Y-84530000D03*
X107350000Y-84530000D03*
X104810000Y-84530000D03*
X102270000Y-84530000D03*
X99730000Y-84530000D03*
X97190000Y-84530000D03*
X94650000Y-84530000D03*
X92110000Y-84530000D03*
X89570000Y-84530000D03*
X87030000Y-84530000D03*
D15*
X104538300Y-68548100D03*
X104538300Y-78708100D03*
X185287500Y-134300000D03*
X182747500Y-134300000D03*
D12*
X87538000Y-89590000D03*
X90078000Y-89590000D03*
X92618000Y-89590000D03*
X95158000Y-89590000D03*
X97698000Y-89590000D03*
X100238000Y-89590000D03*
X102778000Y-89590000D03*
X105318000Y-89590000D03*
X107858000Y-89590000D03*
X110398000Y-89590000D03*
X110398000Y-97210000D03*
X107858000Y-97210000D03*
X105318000Y-97210000D03*
X102778000Y-97210000D03*
X100238000Y-97210000D03*
X97698000Y-97210000D03*
X95158000Y-97210000D03*
X92618000Y-97210000D03*
X90078000Y-97210000D03*
X87538000Y-97210000D03*
D16*
X129120000Y-98300000D03*
X129120000Y-90680000D03*
X121500000Y-90680000D03*
D17*
X121500000Y-98300000D03*
D16*
X181320000Y-92000000D03*
X181320000Y-84380000D03*
X173700000Y-84380000D03*
D17*
X173700000Y-92000000D03*
D15*
X173720000Y-97400000D03*
X183880000Y-97400000D03*
D18*
X207470000Y-92690000D03*
X207470000Y-95230000D03*
X207470000Y-97770000D03*
X207470000Y-100310000D03*
X207470000Y-102850000D03*
X207470000Y-105390000D03*
X207470000Y-107930000D03*
X207470000Y-110470000D03*
X207470000Y-113010000D03*
X207470000Y-115550000D03*
X207470000Y-118090000D03*
X207470000Y-120630000D03*
X207470000Y-123170000D03*
X207470000Y-125710000D03*
X207470000Y-128250000D03*
X207470000Y-130790000D03*
X207470000Y-133330000D03*
X207470000Y-135870000D03*
X207470000Y-138410000D03*
X207470000Y-140950000D03*
X207470000Y-143490000D03*
X207470000Y-146030000D03*
X207470000Y-148570000D03*
X207470000Y-151110000D03*
X192230000Y-151110000D03*
X192230000Y-148570000D03*
X192230000Y-146030000D03*
X192230000Y-143490000D03*
X192230000Y-140950000D03*
X192230000Y-138410000D03*
X192230000Y-135870000D03*
X192230000Y-133330000D03*
X192230000Y-130790000D03*
X192230000Y-128250000D03*
X192230000Y-125710000D03*
X192230000Y-123170000D03*
X192230000Y-120630000D03*
X192230000Y-118090000D03*
X192230000Y-115550000D03*
X192230000Y-113010000D03*
X192230000Y-110470000D03*
X192230000Y-107930000D03*
X192230000Y-105390000D03*
X192230000Y-102850000D03*
X192230000Y-100310000D03*
X192230000Y-97770000D03*
X192230000Y-95230000D03*
X192230000Y-92690000D03*
D15*
X134250000Y-99180000D03*
X134250000Y-89020000D03*
D19*
X172000000Y-70920000D03*
X172000000Y-68380000D03*
D20*
X223300000Y-96400000D03*
X223300000Y-93860000D03*
X223300000Y-98940000D03*
X223300000Y-101480000D03*
X223300000Y-104020000D03*
X223300000Y-106560000D03*
D10*
X175040000Y-111823600D03*
X159800000Y-149923600D03*
X175040000Y-114363600D03*
X159800000Y-147383600D03*
X175040000Y-116903600D03*
X159800000Y-144843600D03*
X175040000Y-119443600D03*
X159800000Y-142303600D03*
X175040000Y-121983600D03*
X159800000Y-139763600D03*
X175040000Y-124523600D03*
X159800000Y-137223600D03*
X175040000Y-127063600D03*
X159800000Y-134683600D03*
X175040000Y-129603600D03*
X159800000Y-132143600D03*
X175040000Y-132143600D03*
X159800000Y-129603600D03*
X175040000Y-134683600D03*
X159800000Y-127063600D03*
X175040000Y-137223600D03*
X159800000Y-124523600D03*
X175040000Y-139763600D03*
X159800000Y-121983600D03*
X175040000Y-142303600D03*
X159800000Y-119443600D03*
X175040000Y-144843600D03*
X159800000Y-116903600D03*
X175040000Y-147383600D03*
X159800000Y-114363600D03*
X175040000Y-149923600D03*
D11*
X159800000Y-111823600D03*
D10*
X150840000Y-111823600D03*
X135600000Y-149923600D03*
X150840000Y-114363600D03*
X135600000Y-147383600D03*
X150840000Y-116903600D03*
X135600000Y-144843600D03*
X150840000Y-119443600D03*
X135600000Y-142303600D03*
X150840000Y-121983600D03*
X135600000Y-139763600D03*
X150840000Y-124523600D03*
X135600000Y-137223600D03*
X150840000Y-127063600D03*
X135600000Y-134683600D03*
X150840000Y-129603600D03*
X135600000Y-132143600D03*
X150840000Y-132143600D03*
X135600000Y-129603600D03*
X150840000Y-134683600D03*
X135600000Y-127063600D03*
X150840000Y-137223600D03*
X135600000Y-124523600D03*
X150840000Y-139763600D03*
X135600000Y-121983600D03*
X150840000Y-142303600D03*
X135600000Y-119443600D03*
X150840000Y-144843600D03*
X135600000Y-116903600D03*
X150840000Y-147383600D03*
X135600000Y-114363600D03*
X150840000Y-149923600D03*
D11*
X135600000Y-111823600D03*
D10*
X126640000Y-116923600D03*
X111400000Y-149943600D03*
X126640000Y-119463600D03*
X111400000Y-147403600D03*
X126640000Y-122003600D03*
X111400000Y-144863600D03*
X126640000Y-124543600D03*
X111400000Y-142323600D03*
X126640000Y-127083600D03*
X111400000Y-139783600D03*
X126640000Y-129623600D03*
X111400000Y-137243600D03*
X126640000Y-132163600D03*
X111400000Y-134703600D03*
X126640000Y-134703600D03*
X111400000Y-132163600D03*
X126640000Y-137243600D03*
X111400000Y-129623600D03*
X126640000Y-139783600D03*
X111400000Y-127083600D03*
X126640000Y-142323600D03*
X111400000Y-124543600D03*
X126640000Y-144863600D03*
X111400000Y-122003600D03*
X126640000Y-147403600D03*
X111400000Y-119463600D03*
X126640000Y-149943600D03*
D11*
X111400000Y-116923600D03*
D15*
X188500000Y-134720000D03*
X188500000Y-144880000D03*
X179200000Y-144880000D03*
X179200000Y-134720000D03*
X186113000Y-115800000D03*
X181287000Y-115800000D03*
X185287500Y-144850000D03*
X182747500Y-144850000D03*
D20*
X223300000Y-87670000D03*
X223300000Y-85130000D03*
D21*
X217170000Y-150900000D03*
X214630000Y-150900000D03*
D10*
X207270000Y-79925000D03*
X199650000Y-87545000D03*
X207270000Y-82465000D03*
X199650000Y-85005000D03*
X207270000Y-85005000D03*
X199650000Y-82465000D03*
X207270000Y-87545000D03*
D11*
X199650000Y-79925000D03*
D18*
X184285000Y-58355000D03*
X184285000Y-60895000D03*
X184285000Y-63435000D03*
X184285000Y-65975000D03*
X184285000Y-68515000D03*
X184285000Y-71055000D03*
X184285000Y-73595000D03*
X184285000Y-76135000D03*
X176665000Y-68515000D03*
X176665000Y-71055000D03*
X176665000Y-65975000D03*
X176665000Y-63435000D03*
X176665000Y-76135000D03*
X176665000Y-73595000D03*
X176665000Y-60895000D03*
X176665000Y-58355000D03*
D12*
X87538000Y-102390000D03*
X90078000Y-102390000D03*
X92618000Y-102390000D03*
X95158000Y-102390000D03*
X97698000Y-102390000D03*
X100238000Y-102390000D03*
X102778000Y-102390000D03*
X105318000Y-102390000D03*
X107858000Y-102390000D03*
X110398000Y-102390000D03*
X110398000Y-110010000D03*
X107858000Y-110010000D03*
X105318000Y-110010000D03*
X102778000Y-110010000D03*
X100238000Y-110010000D03*
X97698000Y-110010000D03*
X95158000Y-110010000D03*
X92618000Y-110010000D03*
X90078000Y-110010000D03*
X87538000Y-110010000D03*
D19*
X214122000Y-142850000D03*
X217678000Y-142850000D03*
X124750000Y-104830000D03*
X124750000Y-107370000D03*
X211380000Y-106200000D03*
X213920000Y-106200000D03*
X202130000Y-72900000D03*
X204670000Y-72900000D03*
X184970000Y-124100000D03*
X182430000Y-124100000D03*
X181620000Y-79400000D03*
X179080000Y-79400000D03*
X195620000Y-77100000D03*
X193080000Y-77100000D03*
X172270000Y-57400000D03*
X169730000Y-57400000D03*
X211380000Y-97900000D03*
X213920000Y-97900000D03*
X78455000Y-59000000D03*
X80995000Y-59000000D03*
X223005000Y-142925000D03*
X225545000Y-142925000D03*
X211530000Y-114700000D03*
X214070000Y-114700000D03*
X211580000Y-131050000D03*
X214120000Y-131050000D03*
X172000000Y-65470000D03*
X172000000Y-62930000D03*
X165050000Y-95270000D03*
X165050000Y-92730000D03*
X114400000Y-107370000D03*
X114400000Y-104830000D03*
X114400000Y-94570000D03*
X114400000Y-92030000D03*
X187470000Y-108700000D03*
X184930000Y-108700000D03*
X182320000Y-108700000D03*
X179780000Y-108700000D03*
D13*
X218710000Y-113590000D03*
X221250000Y-113590000D03*
X218710000Y-116130000D03*
X221250000Y-116130000D03*
X218710000Y-118670000D03*
X221250000Y-118670000D03*
X218710000Y-121210000D03*
X221250000Y-121210000D03*
X218710000Y-123750000D03*
X221250000Y-123750000D03*
X218710000Y-126290000D03*
X221250000Y-126290000D03*
X218710000Y-128830000D03*
X221250000Y-128830000D03*
X218710000Y-131370000D03*
D14*
X221250000Y-131370000D03*
D19*
X211130000Y-82850000D03*
X213670000Y-82850000D03*
D15*
X129820000Y-108400000D03*
X139980000Y-108400000D03*
X201350000Y-148030000D03*
X201350000Y-137870000D03*
X198300000Y-147980000D03*
X198300000Y-137820000D03*
D21*
X224260600Y-65498800D03*
X219739400Y-65498800D03*
X224260600Y-72001200D03*
X219739400Y-72001200D03*
D15*
X213830000Y-77520000D03*
X213830000Y-67360000D03*
D19*
X213630000Y-87750000D03*
X216170000Y-87750000D03*
X108170000Y-117000000D03*
X105630000Y-117000000D03*
X132370000Y-116900000D03*
X129830000Y-116900000D03*
X156570000Y-151300000D03*
X154030000Y-151300000D03*
X180770000Y-151200000D03*
X178230000Y-151200000D03*
D18*
X198010000Y-58355000D03*
X198010000Y-60895000D03*
X198010000Y-63435000D03*
X198010000Y-65975000D03*
X198010000Y-68515000D03*
X198010000Y-71055000D03*
X190390000Y-68515000D03*
X190390000Y-71055000D03*
X190390000Y-65975000D03*
X190390000Y-63435000D03*
X198010000Y-73595000D03*
X190390000Y-73595000D03*
X190390000Y-60895000D03*
X190390000Y-58355000D03*
D15*
X214005100Y-60692600D03*
X211465100Y-60692600D03*
X202892600Y-60692600D03*
X205432600Y-60692600D03*
X130141500Y-68662400D03*
X130141500Y-78822400D03*
X217363800Y-102346800D03*
X217363800Y-92186800D03*
X226276000Y-78790000D03*
X216116000Y-78790000D03*
X210400000Y-77520000D03*
X210400000Y-67360000D03*
X187970100Y-101713600D03*
X187970100Y-91553600D03*
X187970100Y-88930000D03*
X187970100Y-78770000D03*
X142915100Y-68623600D03*
X142915100Y-78783600D03*
X145455100Y-68623600D03*
X145455100Y-78783600D03*
X150535100Y-68623600D03*
X150535100Y-78783600D03*
X107625000Y-68545000D03*
X107625000Y-78705000D03*
D22*
X202121400Y-133350000D03*
X202150000Y-78250000D03*
X78675000Y-84400000D03*
X78500000Y-83350000D03*
X77850000Y-82475000D03*
X111850000Y-104150000D03*
X108083012Y-77358012D03*
X114950000Y-73937730D03*
X104550000Y-73937730D03*
X117550000Y-77500000D03*
X188000000Y-82250000D03*
X194850000Y-82250000D03*
X170372569Y-86060329D03*
X170375000Y-82557201D03*
X74600000Y-92025000D03*
X140350000Y-78800000D03*
X122375000Y-71702465D03*
X105325000Y-93550000D03*
X78198746Y-100072032D03*
X184300000Y-81300000D03*
X99700000Y-79157460D03*
X99750000Y-81475000D03*
X99025000Y-87875000D03*
X112450000Y-79147350D03*
X150550000Y-80671400D03*
X81775000Y-81500000D03*
X81800000Y-113500000D03*
X81754073Y-93297201D03*
X153050000Y-80328600D03*
X81025000Y-80850000D03*
X81000172Y-112795995D03*
X81000000Y-90750000D03*
X155650000Y-79700000D03*
X80325000Y-80175000D03*
X80300000Y-112050000D03*
X80292086Y-88207914D03*
X95200000Y-132150000D03*
X101250000Y-106628600D03*
X142700000Y-132543610D03*
X184900000Y-126200000D03*
X123150000Y-114700000D03*
X103850000Y-106950000D03*
X183800000Y-127150000D03*
X149158600Y-115850000D03*
X104638228Y-107604270D03*
X181432123Y-130017877D03*
X172950000Y-110050000D03*
X181400000Y-132250000D03*
X99478600Y-106000000D03*
X149700000Y-109350000D03*
X177600000Y-109350000D03*
X177600000Y-121950000D03*
X98200000Y-86350000D03*
X178525813Y-121321400D03*
X177600000Y-108397597D03*
X109200000Y-106900000D03*
X109175000Y-91550000D03*
X95225000Y-86978600D03*
X202750000Y-104000000D03*
X202650000Y-140950000D03*
X190900000Y-75900000D03*
X127650000Y-87200000D03*
X170380563Y-87012697D03*
X170450000Y-93571401D03*
X199150000Y-119450000D03*
X196650000Y-92650000D03*
X106300000Y-77375000D03*
X95125000Y-99571400D03*
X110400000Y-94675000D03*
X171725000Y-97911780D03*
X171725000Y-90825000D03*
X101928600Y-99571400D03*
X101575000Y-94675000D03*
X103550000Y-92200000D03*
X186100000Y-98216590D03*
X203750000Y-101150000D03*
X112750000Y-102500000D03*
X98850000Y-115400000D03*
X130900000Y-115350000D03*
X130900000Y-131600000D03*
X137900000Y-72975000D03*
X135300000Y-73603600D03*
X79034886Y-75475000D03*
X132750000Y-79756970D03*
X74575000Y-82150000D03*
X203600000Y-111700000D03*
X78375000Y-105975000D03*
X210943030Y-143500000D03*
X210638220Y-146000000D03*
X210333410Y-148550000D03*
X210028600Y-151100000D03*
X209400000Y-152500000D03*
X224779111Y-135078600D03*
X226000000Y-134500000D03*
X224293030Y-124950000D03*
X223464488Y-122535512D03*
X138800000Y-127100000D03*
X138850000Y-73937730D03*
X163250000Y-73937730D03*
X77675000Y-127625000D03*
X141700000Y-124550000D03*
X139531763Y-73272697D03*
X160700000Y-73309130D03*
X77675000Y-125050000D03*
X143200000Y-121950000D03*
X158150000Y-72644097D03*
X141400000Y-72644097D03*
X77625000Y-122500000D03*
X145450000Y-124500000D03*
X142950000Y-72015497D03*
X155650000Y-72015497D03*
X146650000Y-127150000D03*
X143950000Y-71386897D03*
X153050000Y-71386897D03*
X153433600Y-134683600D03*
X145250000Y-70758297D03*
X150550000Y-70758297D03*
X154900000Y-129600000D03*
X156150000Y-119400000D03*
X153650000Y-69550000D03*
X146950000Y-69500000D03*
X77600000Y-118675000D03*
X157450000Y-120700000D03*
X156550000Y-64000000D03*
X140400000Y-64700000D03*
X157450000Y-64750000D03*
X77675000Y-120578600D03*
X156785801Y-113334990D03*
X137800000Y-65750000D03*
X154400000Y-65750000D03*
X136825000Y-73937730D03*
X81400000Y-76450000D03*
X164200000Y-101028600D03*
X164200000Y-134700000D03*
X77650000Y-135225000D03*
X163450000Y-96400000D03*
X163383410Y-137250000D03*
X77675000Y-137700000D03*
X121960434Y-140361580D03*
X162700000Y-93950000D03*
X77675000Y-139646400D03*
X130550000Y-146450000D03*
X92911780Y-144850000D03*
X88600000Y-75200000D03*
X168750000Y-75350000D03*
X168800000Y-105000000D03*
X139000000Y-144900000D03*
X83967800Y-136475000D03*
X95461780Y-142300000D03*
X90621400Y-75848146D03*
X167800000Y-76050000D03*
X167804344Y-104428600D03*
X84596400Y-133925000D03*
X95461780Y-139750000D03*
X91200000Y-76700000D03*
X166800001Y-103800000D03*
X166800000Y-76700000D03*
X85225000Y-131425000D03*
X118100000Y-70349999D03*
X117764200Y-141618780D03*
X82175000Y-128850000D03*
X118392800Y-143850000D03*
X118914285Y-69757142D03*
X81600000Y-126300000D03*
X119021400Y-146400000D03*
X119728570Y-69164285D03*
X81075000Y-123775000D03*
X119650000Y-149950000D03*
X120542855Y-68571428D03*
X128450000Y-154147840D03*
X76471655Y-148108992D03*
X120350000Y-147450000D03*
X121357140Y-67978571D03*
X124750000Y-153843030D03*
X77423472Y-147337994D03*
X120900000Y-144850000D03*
X122171425Y-67385714D03*
X78350000Y-146444600D03*
X122985710Y-66792857D03*
X121423791Y-141923590D03*
X79323205Y-145120998D03*
X123800000Y-66200000D03*
X122069488Y-139363590D03*
X80275000Y-144350000D03*
X110150000Y-67750000D03*
X82413940Y-92610438D03*
X83250000Y-65700000D03*
X82075000Y-119950000D03*
X110970732Y-68423816D03*
X83042540Y-93343164D03*
X83846134Y-66445315D03*
X83025000Y-116875000D03*
X111791464Y-69097632D03*
X83744744Y-93986576D03*
X84452299Y-67179912D03*
X83775000Y-114550000D03*
X112612196Y-69771448D03*
X84392589Y-94684692D03*
X84988166Y-67967259D03*
X84371399Y-111146399D03*
X113432930Y-70445264D03*
X85021400Y-95400000D03*
X85700000Y-68600000D03*
X85000000Y-109600000D03*
X154200000Y-116900000D03*
X148671400Y-70129697D03*
X132700000Y-70100000D03*
X86300000Y-69350000D03*
X78925000Y-97225000D03*
X78738625Y-107703600D03*
X165200000Y-101600000D03*
X165200000Y-129600000D03*
X194671400Y-100750000D03*
X77675000Y-130150000D03*
X166171401Y-102850000D03*
X166200000Y-132350000D03*
X77675000Y-132625000D03*
X123900000Y-142750000D03*
X97200000Y-143350000D03*
X97200000Y-74242540D03*
X174100000Y-72250000D03*
X173800000Y-107400000D03*
X96400000Y-148900000D03*
X94600000Y-74547350D03*
X173100000Y-72850000D03*
X172750000Y-106850000D03*
X137750000Y-152928600D03*
X92399400Y-151250600D03*
X92143492Y-74256508D03*
X171900000Y-73500000D03*
X171800000Y-106350000D03*
X133900000Y-153538220D03*
X89325000Y-143925000D03*
X93005512Y-149755512D03*
X89550000Y-73732838D03*
X170750000Y-74100000D03*
X170750000Y-105950000D03*
X82710599Y-141550000D03*
X92911780Y-146750000D03*
X88052390Y-74361438D03*
X169800000Y-74750000D03*
X169800000Y-105500000D03*
X148713512Y-151976210D03*
X83339199Y-139000000D03*
X196800000Y-84400000D03*
X201250000Y-125700000D03*
X196171400Y-98950000D03*
X195300000Y-96450000D03*
X169562269Y-87500000D03*
X169562269Y-94600000D03*
X155528600Y-115550000D03*
X135300000Y-67600000D03*
X152350000Y-67600000D03*
X135300000Y-70758297D03*
X81785340Y-70300000D03*
X79663486Y-107075000D03*
X110375000Y-104975000D03*
D23*
X142915100Y-84524900D02*
X142910000Y-84530000D01*
X142915100Y-78783600D02*
X142915100Y-84524900D01*
X202121400Y-133350000D02*
X202121400Y-117871400D01*
X202121400Y-78278600D02*
X202150000Y-78250000D01*
X202121400Y-117871400D02*
X202121400Y-78278600D01*
X77684620Y-99090380D02*
X76425000Y-100350000D01*
X77684620Y-87965380D02*
X77684620Y-99090380D01*
X76425000Y-100350000D02*
X75865000Y-100910000D01*
X77684620Y-85390380D02*
X78675000Y-84400000D01*
X77684620Y-87965380D02*
X77684620Y-85390380D01*
X145455100Y-84524900D02*
X145450000Y-84530000D01*
X145455100Y-78783600D02*
X145455100Y-84524900D01*
X77379810Y-96855190D02*
X75865000Y-98370000D01*
X77379810Y-83904505D02*
X77379810Y-96855190D01*
X77934315Y-83350000D02*
X77379810Y-83904505D01*
X78500000Y-83350000D02*
X77934315Y-83350000D01*
X147990000Y-81328700D02*
X150535100Y-78783600D01*
X147990000Y-84530000D02*
X147990000Y-81328700D01*
X77075000Y-94620000D02*
X75865000Y-95830000D01*
X77075000Y-83250000D02*
X77075000Y-94620000D01*
X77850000Y-82475000D02*
X77075000Y-83250000D01*
X109890000Y-84530000D02*
X109890000Y-79534332D01*
X109890000Y-79165000D02*
X108083012Y-77358012D01*
X109890000Y-79534332D02*
X109890000Y-79165000D01*
X109890000Y-86003200D02*
X109890000Y-84530000D01*
X111850000Y-87963200D02*
X109890000Y-86003200D01*
X111850000Y-104150000D02*
X111850000Y-87963200D01*
X114950000Y-84510000D02*
X114970000Y-84530000D01*
X114950000Y-79700000D02*
X114950000Y-78000000D01*
X114950000Y-79700000D02*
X114950000Y-84510000D01*
X114950000Y-78000000D02*
X114950000Y-73937730D01*
X104550000Y-78696400D02*
X104538300Y-78708100D01*
X104550000Y-73937730D02*
X104550000Y-78696400D01*
X117550000Y-84490000D02*
X117510000Y-84530000D01*
X117550000Y-78800000D02*
X117550000Y-84490000D01*
X117550000Y-78800000D02*
X117550000Y-77500000D01*
X187970100Y-66921700D02*
X188916800Y-65975000D01*
X187970100Y-78770000D02*
X187970100Y-66921700D01*
X176665000Y-57542200D02*
X177357200Y-56850000D01*
X176665000Y-58355000D02*
X176665000Y-57542200D01*
X177357200Y-56850000D02*
X185700000Y-56850000D01*
X185700000Y-56850000D02*
X187450000Y-58600000D01*
X187450000Y-64508200D02*
X188916800Y-65975000D01*
X188916800Y-65975000D02*
X190390000Y-65975000D01*
X187450000Y-58600000D02*
X187450000Y-64508200D01*
X188000000Y-78799900D02*
X187970100Y-78770000D01*
X188000000Y-82250000D02*
X188000000Y-78799900D01*
X194850000Y-82250000D02*
X194850000Y-92650000D01*
X194850000Y-92650000D02*
X197250000Y-95050000D01*
X197250000Y-95050000D02*
X197250000Y-142300000D01*
X196060000Y-143490000D02*
X192230000Y-143490000D01*
X197250000Y-142300000D02*
X196060000Y-143490000D01*
X170372569Y-82559632D02*
X170375000Y-82557201D01*
X170372569Y-86060329D02*
X170372569Y-82559632D01*
X75865000Y-108530000D02*
X74708411Y-107373411D01*
X74708411Y-92133411D02*
X74600000Y-92025000D01*
X74708411Y-107373411D02*
X74708411Y-92133411D01*
X140350000Y-84510000D02*
X140370000Y-84530000D01*
X140350000Y-78800000D02*
X140350000Y-84510000D01*
X122590000Y-71917465D02*
X122375000Y-71702465D01*
X122590000Y-84530000D02*
X122590000Y-71917465D01*
X105325000Y-97203000D02*
X105318000Y-97210000D01*
X105325000Y-93550000D02*
X105325000Y-97203000D01*
X105325000Y-92525000D02*
X105325000Y-93550000D01*
X104300000Y-91500000D02*
X105325000Y-92525000D01*
X104300000Y-86513200D02*
X104300000Y-91500000D01*
X104810000Y-86003200D02*
X104300000Y-86513200D01*
X104810000Y-84530000D02*
X104810000Y-86003200D01*
X102270000Y-86003200D02*
X102270000Y-84530000D01*
X101750000Y-86523200D02*
X102270000Y-86003200D01*
X101750000Y-91675000D02*
X102473190Y-92398190D01*
X101750000Y-86523200D02*
X101750000Y-91675000D01*
X102778000Y-95736800D02*
X102778000Y-97210000D01*
X102473190Y-95431990D02*
X102778000Y-95736800D01*
X102473190Y-92398190D02*
X102473190Y-95431990D01*
X78198746Y-103656254D02*
X75865000Y-105990000D01*
X78198746Y-100072032D02*
X78198746Y-103656254D01*
X184285000Y-81285000D02*
X184300000Y-81300000D01*
X184285000Y-76135000D02*
X184285000Y-81285000D01*
X99730000Y-79187460D02*
X99700000Y-79157460D01*
X99730000Y-84530000D02*
X99730000Y-79187460D01*
X99025000Y-85235000D02*
X99730000Y-84530000D01*
X99025000Y-87875000D02*
X99025000Y-85235000D01*
X112430000Y-79167350D02*
X112450000Y-79147350D01*
X112430000Y-84530000D02*
X112430000Y-79167350D01*
X150530000Y-80691400D02*
X150550000Y-80671400D01*
X150530000Y-84530000D02*
X150530000Y-80691400D01*
X81775000Y-93276274D02*
X81754073Y-93297201D01*
X81775000Y-81500000D02*
X81775000Y-93276274D01*
X81785340Y-113485340D02*
X81800000Y-113500000D01*
X81785340Y-93894153D02*
X81785340Y-113485340D01*
X81754073Y-93862886D02*
X81785340Y-93894153D01*
X81754073Y-93297201D02*
X81754073Y-93862886D01*
X153070000Y-80348600D02*
X153050000Y-80328600D01*
X153070000Y-84530000D02*
X153070000Y-80348600D01*
X81000000Y-112795823D02*
X81000172Y-112795995D01*
X81000000Y-90750000D02*
X81000000Y-112795823D01*
X81025000Y-90725000D02*
X81000000Y-90750000D01*
X81025000Y-80850000D02*
X81025000Y-90725000D01*
X155610000Y-79740000D02*
X155650000Y-79700000D01*
X155610000Y-84530000D02*
X155610000Y-79740000D01*
X80292086Y-112042086D02*
X80300000Y-112050000D01*
X80292086Y-88207914D02*
X80292086Y-112042086D01*
X80325000Y-88175000D02*
X80292086Y-88207914D01*
X80325000Y-80175000D02*
X80325000Y-88175000D01*
X95158000Y-132108000D02*
X95200000Y-132150000D01*
X95158000Y-110010000D02*
X95158000Y-132108000D01*
X100238000Y-89590000D02*
X100238000Y-91063200D01*
X142700000Y-132543610D02*
X142700000Y-133109295D01*
X142700001Y-152376257D02*
X144283365Y-153959619D01*
X142700000Y-133109295D02*
X142700001Y-152376257D01*
X173002514Y-153959618D02*
X173597702Y-153364430D01*
X144283365Y-153959619D02*
X173002514Y-153959618D01*
X180214430Y-153364430D02*
X181678769Y-153364429D01*
X173597702Y-153364430D02*
X180214430Y-153364430D01*
X181678769Y-153364429D02*
X184250000Y-150793198D01*
X180214430Y-153364430D02*
X180400000Y-153364430D01*
X184900000Y-126980330D02*
X184900000Y-126200000D01*
X184250000Y-127630330D02*
X184900000Y-126980330D01*
X184250000Y-150793198D02*
X184250000Y-127630330D01*
X101300000Y-96050000D02*
X100238000Y-94988000D01*
X100238000Y-94988000D02*
X100238000Y-89590000D01*
X101300000Y-106578600D02*
X101300000Y-96050000D01*
X101250000Y-106628600D02*
X101300000Y-106578600D01*
X125287600Y-132163600D02*
X126640000Y-132163600D01*
X123150000Y-130026000D02*
X125287600Y-132163600D01*
X123150000Y-114700000D02*
X123150000Y-130026000D01*
X102778000Y-93627866D02*
X103850000Y-94699866D01*
X102778000Y-89590000D02*
X102778000Y-93627866D01*
X103850000Y-94699866D02*
X103850000Y-97400000D01*
X103850000Y-97400000D02*
X103850000Y-102200000D01*
X103850000Y-102200000D02*
X103850000Y-106950000D01*
X134773936Y-131114990D02*
X142264990Y-131114990D01*
X133660325Y-132228601D02*
X134773936Y-131114990D01*
X127992400Y-132163600D02*
X128057401Y-132228601D01*
X128057401Y-132228601D02*
X133660325Y-132228601D01*
X126640000Y-132163600D02*
X127992400Y-132163600D01*
X143328601Y-134071399D02*
X143004810Y-134395190D01*
X143328601Y-132178601D02*
X143328601Y-134071399D01*
X142264990Y-131114990D02*
X143328601Y-132178601D01*
X143004810Y-134395190D02*
X143004810Y-152250000D01*
X144409620Y-153654810D02*
X172876257Y-153654809D01*
X143004810Y-152250000D02*
X144409620Y-153654810D01*
X172876257Y-153654809D02*
X173471446Y-153059620D01*
X173471446Y-153059620D02*
X180750000Y-153059620D01*
X181552512Y-153059620D02*
X183800000Y-150812132D01*
X180750000Y-153059620D02*
X181552512Y-153059620D01*
X183800000Y-150812132D02*
X183800000Y-143200000D01*
X183800000Y-143200000D02*
X183800000Y-127150000D01*
X149158600Y-116415685D02*
X149150000Y-116424285D01*
X149158600Y-115850000D02*
X149158600Y-116415685D01*
X149487600Y-137223600D02*
X150840000Y-137223600D01*
X149150000Y-136886000D02*
X149487600Y-137223600D01*
X149150000Y-116424285D02*
X149150000Y-136886000D01*
X105318000Y-91063200D02*
X106350000Y-92095200D01*
X105318000Y-89590000D02*
X105318000Y-91063200D01*
X106350000Y-92095200D02*
X106350000Y-102450000D01*
X106350000Y-105892498D02*
X104638228Y-107604270D01*
X106350000Y-102450000D02*
X106350000Y-105892498D01*
X149487600Y-137223600D02*
X148050000Y-138661200D01*
X148050000Y-152243028D02*
X149156972Y-153350000D01*
X148050000Y-138661200D02*
X148050000Y-152243028D01*
X172750000Y-153350000D02*
X173345190Y-152754810D01*
X149156972Y-153350000D02*
X172750000Y-153350000D01*
X182604810Y-146754810D02*
X181704810Y-145854810D01*
X182604810Y-151576256D02*
X182604810Y-146754810D01*
X181426257Y-152754809D02*
X182604810Y-151576256D01*
X173345190Y-152754810D02*
X181426257Y-152754809D01*
X182028601Y-130614355D02*
X181432123Y-130017877D01*
X181704810Y-132875520D02*
X182028601Y-132551729D01*
X182028601Y-132551729D02*
X182028601Y-130614355D01*
X181704810Y-145854810D02*
X181704810Y-132875520D01*
X173687600Y-137223600D02*
X175040000Y-137223600D01*
X172950000Y-136486000D02*
X173687600Y-137223600D01*
X172950000Y-110050000D02*
X172950000Y-136486000D01*
X102778000Y-108536800D02*
X102778000Y-110010000D01*
X103081929Y-108232871D02*
X102778000Y-108536800D01*
X104939957Y-108232871D02*
X103081929Y-108232871D01*
X106654810Y-106518018D02*
X104939957Y-108232871D01*
X106654810Y-92266390D02*
X106654810Y-106518018D01*
X107858000Y-91063200D02*
X106654810Y-92266390D01*
X107858000Y-89590000D02*
X107858000Y-91063200D01*
X173687600Y-137223600D02*
X172800000Y-138111200D01*
X172800000Y-138111200D02*
X172800000Y-151800000D01*
X172800000Y-151800000D02*
X173450000Y-152450000D01*
X173450000Y-152450000D02*
X181300000Y-152450000D01*
X182300000Y-151450000D02*
X182300000Y-146900000D01*
X181300000Y-152450000D02*
X182300000Y-151450000D01*
X182300000Y-146900000D02*
X181400000Y-146000000D01*
X181400000Y-132250000D02*
X181400000Y-146000000D01*
X97698000Y-89590000D02*
X97698000Y-94848000D01*
X97698000Y-94848000D02*
X99154810Y-96304810D01*
X99154810Y-96304810D02*
X99154810Y-102602944D01*
X99154810Y-105676210D02*
X99478600Y-106000000D01*
X99154810Y-102602944D02*
X99154810Y-105676210D01*
X145990000Y-92340000D02*
X145990000Y-90190000D01*
X149700000Y-96050000D02*
X145990000Y-92340000D01*
X149700000Y-109350000D02*
X149700000Y-96050000D01*
X177600000Y-122100000D02*
X177550000Y-122150000D01*
X177600000Y-109350000D02*
X177600000Y-122100000D01*
X98200000Y-89088000D02*
X97698000Y-89590000D01*
X98200000Y-86350000D02*
X98200000Y-89088000D01*
X178525813Y-109323410D02*
X177600000Y-108397597D01*
X178525813Y-121321400D02*
X178525813Y-109323410D01*
X109200000Y-91575000D02*
X109175000Y-91550000D01*
X109200000Y-105953600D02*
X109200000Y-91575000D01*
X95225000Y-89523000D02*
X95158000Y-89590000D01*
X95225000Y-86978600D02*
X95225000Y-89523000D01*
X109200000Y-105953600D02*
X109200000Y-106900000D01*
X202750000Y-140850000D02*
X202650000Y-140950000D01*
X202750000Y-104000000D02*
X202750000Y-140850000D01*
X185287500Y-134300000D02*
X187100000Y-136112500D01*
X187100000Y-136112500D02*
X187100000Y-145700000D01*
X187430000Y-146030000D02*
X192230000Y-146030000D01*
X187100000Y-145700000D02*
X187430000Y-146030000D01*
X193703200Y-115550000D02*
X194700000Y-116546800D01*
X192230000Y-115550000D02*
X193703200Y-115550000D01*
X193703200Y-130790000D02*
X192230000Y-130790000D01*
X194700000Y-129793200D02*
X193703200Y-130790000D01*
X194700000Y-116546800D02*
X194700000Y-129793200D01*
X190756800Y-115550000D02*
X189525000Y-114318200D01*
X192230000Y-115550000D02*
X190756800Y-115550000D01*
X190756800Y-107930000D02*
X192230000Y-107930000D01*
X189525000Y-109161800D02*
X190756800Y-107930000D01*
X189525000Y-114318200D02*
X189525000Y-109161800D01*
X182811800Y-63435000D02*
X181900000Y-64346800D01*
X184285000Y-63435000D02*
X182811800Y-63435000D01*
X182811800Y-73595000D02*
X184285000Y-73595000D01*
X181900000Y-72683200D02*
X182811800Y-73595000D01*
X181900000Y-64346800D02*
X181900000Y-72683200D01*
X178138200Y-60895000D02*
X179300000Y-62056800D01*
X176665000Y-60895000D02*
X178138200Y-60895000D01*
X178138200Y-71055000D02*
X176665000Y-71055000D01*
X179300000Y-69893200D02*
X178138200Y-71055000D01*
X179300000Y-62056800D02*
X179300000Y-69893200D01*
X190390000Y-69327800D02*
X190390000Y-71055000D01*
X190390000Y-68515000D02*
X190390000Y-69327800D01*
X190390000Y-61707800D02*
X190390000Y-63435000D01*
X190390000Y-60895000D02*
X190390000Y-61707800D01*
X190390000Y-63435000D02*
X191863200Y-63435000D01*
X190390000Y-68515000D02*
X190935000Y-68515000D01*
X191863200Y-68515000D02*
X192800000Y-67578200D01*
X190390000Y-68515000D02*
X191863200Y-68515000D01*
X192800000Y-64371800D02*
X191863200Y-63435000D01*
X192800000Y-67578200D02*
X192800000Y-64371800D01*
X191863200Y-71055000D02*
X197150000Y-76341800D01*
X190390000Y-71055000D02*
X191863200Y-71055000D01*
X198297600Y-85005000D02*
X199650000Y-85005000D01*
X197150000Y-83857400D02*
X198297600Y-85005000D01*
X197150000Y-76341800D02*
X197150000Y-83857400D01*
X202892600Y-61626546D02*
X202892600Y-60692600D01*
X202892600Y-65105600D02*
X202892600Y-61626546D01*
X199483200Y-68515000D02*
X202892600Y-65105600D01*
X198010000Y-68515000D02*
X199483200Y-68515000D01*
X213830000Y-63057500D02*
X211465100Y-60692600D01*
X213830000Y-67360000D02*
X213830000Y-63057500D01*
X191863200Y-58355000D02*
X190390000Y-58355000D01*
X193104810Y-59596610D02*
X191863200Y-58355000D01*
X193104810Y-67623010D02*
X193104810Y-59596610D01*
X196536800Y-71055000D02*
X193104810Y-67623010D01*
X198010000Y-71055000D02*
X196536800Y-71055000D01*
X198010000Y-73595000D02*
X198010000Y-71055000D01*
X190900000Y-88623700D02*
X190900000Y-75900000D01*
X187970100Y-91553600D02*
X190900000Y-88623700D01*
X127650000Y-84550000D02*
X127670000Y-84530000D01*
X127670000Y-87180000D02*
X127650000Y-87200000D01*
X127670000Y-84530000D02*
X127670000Y-87180000D01*
X170380563Y-93501964D02*
X170450000Y-93571401D01*
X170380563Y-87012697D02*
X170380563Y-93501964D01*
X199150000Y-95150000D02*
X196650000Y-92650000D01*
X199150000Y-119450000D02*
X199150000Y-95150000D01*
X106075000Y-79875000D02*
X106425000Y-79525000D01*
X106075000Y-84067800D02*
X106075000Y-79875000D01*
X106537200Y-84530000D02*
X106075000Y-84067800D01*
X107350000Y-84530000D02*
X106537200Y-84530000D01*
X106425000Y-77500000D02*
X106300000Y-77375000D01*
X106425000Y-79525000D02*
X106425000Y-77500000D01*
X95158000Y-99604400D02*
X95125000Y-99571400D01*
X95158000Y-102390000D02*
X95158000Y-99604400D01*
X110400000Y-94675000D02*
X111545190Y-93529810D01*
X111545190Y-93529810D02*
X111545190Y-88089456D01*
X111545190Y-88089456D02*
X110377867Y-86922133D01*
X107350000Y-86003200D02*
X107350000Y-84530000D01*
X108268933Y-86922133D02*
X107350000Y-86003200D01*
X110377867Y-86922133D02*
X108268933Y-86922133D01*
X171725000Y-97911780D02*
X171725000Y-97346095D01*
X171725000Y-97346095D02*
X171725000Y-90825000D01*
X101928600Y-99005715D02*
X101604810Y-98681925D01*
X101928600Y-99571400D02*
X101928600Y-99005715D01*
X101604810Y-94704810D02*
X101575000Y-94675000D01*
X101604810Y-98681925D02*
X101604810Y-94704810D01*
X103550000Y-92765685D02*
X104154810Y-93370495D01*
X103550000Y-92200000D02*
X103550000Y-92765685D01*
X104505200Y-102390000D02*
X105318000Y-102390000D01*
X104154810Y-102039610D02*
X104505200Y-102390000D01*
X104154810Y-93370495D02*
X104154810Y-102039610D01*
X185758200Y-60895000D02*
X184285000Y-60895000D01*
X185950000Y-61086800D02*
X185758200Y-60895000D01*
X185950000Y-61086800D02*
X185950000Y-61100000D01*
X185950000Y-61100000D02*
X186100000Y-61250000D01*
X186100000Y-61250000D02*
X186100000Y-75900000D01*
X186100000Y-75900000D02*
X186100000Y-98216590D01*
X205996800Y-97770000D02*
X203750000Y-100016800D01*
X203750000Y-100016800D02*
X203750000Y-101150000D01*
X207470000Y-97770000D02*
X205996800Y-97770000D01*
X112750000Y-102500000D02*
X112750000Y-110500000D01*
X112750000Y-110500000D02*
X111400000Y-111850000D01*
X107858000Y-111483200D02*
X107858000Y-110010000D01*
X108224800Y-111850000D02*
X107858000Y-111483200D01*
X111400000Y-111850000D02*
X108224800Y-111850000D01*
X98850000Y-102729200D02*
X98850000Y-115400000D01*
X98510800Y-102390000D02*
X98850000Y-102729200D01*
X97698000Y-102390000D02*
X98510800Y-102390000D01*
X130900000Y-115350000D02*
X130900000Y-131600000D01*
X129820000Y-108400000D02*
X129820000Y-105180000D01*
X136445190Y-98554810D02*
X136445191Y-89373743D01*
X129820000Y-105180000D02*
X136445190Y-98554810D01*
X137830000Y-87988934D02*
X137830000Y-84530000D01*
X136445191Y-89373743D02*
X137830000Y-87988934D01*
X137900000Y-84460000D02*
X137830000Y-84530000D01*
X137900000Y-72975000D02*
X137900000Y-84460000D01*
X135300000Y-84520000D02*
X135290000Y-84530000D01*
X135300000Y-73603600D02*
X135300000Y-84520000D01*
X75900000Y-75475000D02*
X75865000Y-75510000D01*
X79034886Y-75475000D02*
X75900000Y-75475000D01*
X132750000Y-79756970D02*
X132750000Y-84530000D01*
X74550000Y-79365000D02*
X75865000Y-78050000D01*
X74550000Y-81559315D02*
X74550000Y-79365000D01*
X74575000Y-81584315D02*
X74550000Y-81559315D01*
X74575000Y-82150000D02*
X74575000Y-81584315D01*
X205996800Y-130790000D02*
X207470000Y-130790000D01*
X203600000Y-128393200D02*
X205996800Y-130790000D01*
X203600000Y-111700000D02*
X203600000Y-128393200D01*
X79053866Y-105296134D02*
X78375000Y-105975000D01*
X79053866Y-98350617D02*
X79053866Y-105296134D01*
X78296400Y-97593151D02*
X79053866Y-98350617D01*
X78296400Y-96923270D02*
X78296400Y-97593151D01*
X79358676Y-95860994D02*
X78296400Y-96923270D01*
X79358676Y-81258676D02*
X79358676Y-95860994D01*
X78690000Y-80590000D02*
X79358676Y-81258676D01*
X75865000Y-80590000D02*
X78690000Y-80590000D01*
X210943030Y-143500000D02*
X210943030Y-142823790D01*
X210943030Y-142823790D02*
X210619240Y-142500000D01*
X210619240Y-142500000D02*
X210619240Y-137155024D01*
X210644976Y-137155024D02*
X211780762Y-136019238D01*
X210619240Y-137155024D02*
X210644976Y-137155024D01*
X211780762Y-136019238D02*
X220673960Y-136019238D01*
X222099999Y-122059999D02*
X221250000Y-121210000D01*
X223664430Y-123624430D02*
X222099999Y-122059999D01*
X223664430Y-133028768D02*
X223664430Y-123624430D01*
X220673960Y-136019238D02*
X223664430Y-133028768D01*
X210638220Y-145434315D02*
X210314430Y-145110525D01*
X210638220Y-146000000D02*
X210638220Y-145434315D01*
X210314430Y-145110525D02*
X210314430Y-137028768D01*
X210314430Y-137028768D02*
X211628768Y-135714430D01*
X211628768Y-135714430D02*
X220547703Y-135714429D01*
X220547703Y-135714429D02*
X223359620Y-132902512D01*
X223359620Y-125859620D02*
X221250000Y-123750000D01*
X223359620Y-132902512D02*
X223359620Y-125859620D01*
X223054810Y-128094810D02*
X221250000Y-126290000D01*
X223054810Y-132776256D02*
X223054810Y-128094810D01*
X210009620Y-147150000D02*
X210009620Y-136902512D01*
X211502512Y-135409620D02*
X220421446Y-135409620D01*
X210333410Y-147473790D02*
X210009620Y-147150000D01*
X210009620Y-136902512D02*
X211502512Y-135409620D01*
X220421446Y-135409620D02*
X223054810Y-132776256D01*
X210333410Y-148550000D02*
X210333410Y-147473790D01*
X209704810Y-150210525D02*
X209704810Y-136776256D01*
X210028600Y-150534315D02*
X209704810Y-150210525D01*
X210028600Y-151100000D02*
X210028600Y-150534315D01*
X209704810Y-136776256D02*
X211376256Y-135104810D01*
X218948656Y-135104810D02*
X218953466Y-135100000D01*
X211376256Y-135104810D02*
X218948656Y-135104810D01*
X218953466Y-135100000D02*
X220300000Y-135100000D01*
X220300000Y-135100000D02*
X222750000Y-132650000D01*
X222750000Y-130330000D02*
X221250000Y-128830000D01*
X222750000Y-132650000D02*
X222750000Y-130330000D01*
X209400000Y-152500000D02*
X209400000Y-136650000D01*
X209400000Y-136650000D02*
X211250000Y-134800000D01*
X221250000Y-132372400D02*
X221250000Y-131370000D01*
X218822400Y-134800000D02*
X221250000Y-132372400D01*
X211250000Y-134800000D02*
X218822400Y-134800000D01*
X224779111Y-134512915D02*
X225695190Y-133596836D01*
X224779111Y-135078600D02*
X224779111Y-134512915D01*
X225695190Y-133596836D02*
X225695190Y-115845190D01*
X225695190Y-115845190D02*
X224700000Y-114850000D01*
X219990000Y-114850000D02*
X218710000Y-116130000D01*
X224700000Y-114850000D02*
X219990000Y-114850000D01*
X224140000Y-113590000D02*
X221250000Y-113590000D01*
X226000000Y-115450000D02*
X224140000Y-113590000D01*
X226000000Y-134500000D02*
X226000000Y-115450000D01*
X224293030Y-119173030D02*
X221250000Y-116130000D01*
X224293030Y-124950000D02*
X224293030Y-119173030D01*
X222099999Y-119519999D02*
X221250000Y-118670000D01*
X223064489Y-120484489D02*
X222099999Y-119519999D01*
X223064489Y-122135513D02*
X223064489Y-120484489D01*
X223464488Y-122535512D02*
X223064489Y-122135513D01*
X181287000Y-110207000D02*
X179780000Y-108700000D01*
X181287000Y-115800000D02*
X181287000Y-110207000D01*
X181287000Y-118137000D02*
X181287000Y-115800000D01*
X188250000Y-118950000D02*
X182100000Y-118950000D01*
X182100000Y-118950000D02*
X181287000Y-118137000D01*
X189550000Y-120250000D02*
X188250000Y-118950000D01*
X190320000Y-135870000D02*
X189550000Y-135100000D01*
X189550000Y-135100000D02*
X189550000Y-120250000D01*
X192230000Y-135870000D02*
X190320000Y-135870000D01*
X186113000Y-109883000D02*
X184930000Y-108700000D01*
X186113000Y-115800000D02*
X186113000Y-109883000D01*
X186113000Y-115800000D02*
X189854810Y-119541810D01*
X190756800Y-133330000D02*
X192230000Y-133330000D01*
X189854810Y-132428010D02*
X190756800Y-133330000D01*
X189854810Y-119541810D02*
X189854810Y-132428010D01*
X138370000Y-126670000D02*
X138370000Y-97810000D01*
X138800000Y-127100000D02*
X138370000Y-126670000D01*
X138370000Y-96336800D02*
X136750000Y-94716800D01*
X138370000Y-97810000D02*
X138370000Y-96336800D01*
X136750000Y-94716800D02*
X136750000Y-89500000D01*
X136750000Y-89500000D02*
X138850000Y-87400000D01*
X138850000Y-87400000D02*
X138850000Y-73937730D01*
X163250000Y-61690000D02*
X163230000Y-61670000D01*
X163250000Y-73937730D02*
X163250000Y-61690000D01*
X140910000Y-99283200D02*
X140910000Y-97810000D01*
X140910000Y-123760000D02*
X141700000Y-124550000D01*
X140910000Y-97810000D02*
X140910000Y-123760000D01*
X139259010Y-78059010D02*
X139200000Y-78000000D01*
X139259010Y-94685810D02*
X139259010Y-78059010D01*
X140910000Y-96336800D02*
X139259010Y-94685810D01*
X140910000Y-97810000D02*
X140910000Y-96336800D01*
X139531763Y-77668237D02*
X139531763Y-73272697D01*
X139200000Y-78000000D02*
X139531763Y-77668237D01*
X160700000Y-61680000D02*
X160690000Y-61670000D01*
X160700000Y-73309130D02*
X160700000Y-61680000D01*
X143200000Y-98060000D02*
X143450000Y-97810000D01*
X143200000Y-121950000D02*
X143200000Y-98060000D01*
X158150000Y-72644097D02*
X158150000Y-72078412D01*
X158150000Y-72078412D02*
X158150000Y-61670000D01*
X143450000Y-96336800D02*
X141900000Y-94786800D01*
X143450000Y-97810000D02*
X143450000Y-96336800D01*
X141900000Y-94786800D02*
X141900000Y-87050000D01*
X141900000Y-87050000D02*
X141400000Y-86550000D01*
X141400000Y-86550000D02*
X141400000Y-73094097D01*
X141400000Y-73094097D02*
X141400000Y-72644097D01*
X145990000Y-123960000D02*
X145990000Y-97810000D01*
X145450000Y-124500000D02*
X145990000Y-123960000D01*
X145990000Y-96336800D02*
X142250000Y-92596800D01*
X145990000Y-97810000D02*
X145990000Y-96336800D01*
X142250000Y-92596800D02*
X142250000Y-86850000D01*
X142250000Y-86850000D02*
X141800000Y-86400000D01*
X141800000Y-86400000D02*
X141800000Y-81100000D01*
X141800000Y-81100000D02*
X141800000Y-74500000D01*
X141800000Y-73165497D02*
X142950000Y-72015497D01*
X141800000Y-74500000D02*
X141800000Y-73165497D01*
X155650000Y-61710000D02*
X155610000Y-61670000D01*
X155650000Y-72015497D02*
X155650000Y-61710000D01*
X148530000Y-125270000D02*
X148530000Y-97810000D01*
X146650000Y-127150000D02*
X148530000Y-125270000D01*
X153050000Y-61690000D02*
X153070000Y-61670000D01*
X153050000Y-70821212D02*
X152900000Y-70671212D01*
X153050000Y-71386897D02*
X153050000Y-70821212D01*
X152900000Y-70671212D02*
X152900000Y-68850000D01*
X153070000Y-68680000D02*
X153070000Y-61670000D01*
X152900000Y-68850000D02*
X153070000Y-68680000D01*
X144654809Y-92454809D02*
X148530000Y-96330000D01*
X144654809Y-87804809D02*
X144654809Y-92454809D01*
X148530000Y-96330000D02*
X148530000Y-96336800D01*
X143950000Y-87100000D02*
X144654809Y-87804809D01*
X148530000Y-96336800D02*
X148530000Y-97810000D01*
X143950000Y-71386897D02*
X143950000Y-87100000D01*
X153450000Y-134667200D02*
X153433600Y-134683600D01*
X153450000Y-103600000D02*
X153450000Y-134667200D01*
X151070000Y-101220000D02*
X153450000Y-103600000D01*
X151070000Y-97810000D02*
X151070000Y-101220000D01*
X151070000Y-97810000D02*
X151070000Y-97420000D01*
X144804810Y-87504810D02*
X144254810Y-86954810D01*
X145250000Y-71017227D02*
X145250000Y-70758297D01*
X144254810Y-72012417D02*
X145250000Y-71017227D01*
X144254810Y-86954810D02*
X144254810Y-72012417D01*
X150530000Y-63780000D02*
X150530000Y-61670000D01*
X150550000Y-70758297D02*
X151600000Y-69708297D01*
X151600000Y-64850000D02*
X150530000Y-63780000D01*
X151600000Y-69708297D02*
X151600000Y-64850000D01*
X144804810Y-87504810D02*
X145954810Y-87504810D01*
X145954810Y-87504810D02*
X147300000Y-88850000D01*
X151070000Y-96336800D02*
X151070000Y-97810000D01*
X147300000Y-92566800D02*
X151070000Y-96336800D01*
X147300000Y-88850000D02*
X147300000Y-92566800D01*
X154078600Y-98278600D02*
X153610000Y-97810000D01*
X153610000Y-99283200D02*
X153600000Y-99293200D01*
X153610000Y-97810000D02*
X153610000Y-99283200D01*
X153600000Y-99293200D02*
X153600000Y-102887868D01*
X153618934Y-102887868D02*
X154900000Y-104168934D01*
X154900000Y-104168934D02*
X154900000Y-129600000D01*
X153600000Y-102887868D02*
X153618934Y-102887868D01*
X147990000Y-65740000D02*
X147990000Y-61670000D01*
X149300000Y-67050000D02*
X147990000Y-65740000D01*
X149300000Y-73050000D02*
X149300000Y-67050000D01*
X149800000Y-73550000D02*
X149300000Y-73050000D01*
X151600000Y-87250000D02*
X151600000Y-75400000D01*
X152150000Y-87800000D02*
X151600000Y-87250000D01*
X149800000Y-73600000D02*
X149800000Y-73550000D01*
X152150000Y-91700000D02*
X152150000Y-87800000D01*
X151600000Y-75400000D02*
X149800000Y-73600000D01*
X153610000Y-93160000D02*
X152150000Y-91700000D01*
X153610000Y-97810000D02*
X153610000Y-93160000D01*
X156157201Y-99290401D02*
X156157201Y-116642799D01*
X156150000Y-99283200D02*
X156157201Y-99290401D01*
X156150000Y-97810000D02*
X156150000Y-99283200D01*
X156157201Y-119392799D02*
X156150000Y-119400000D01*
X156157201Y-116642799D02*
X156157201Y-119392799D01*
X146262800Y-61670000D02*
X145450000Y-61670000D01*
X146950000Y-62357200D02*
X146262800Y-61670000D01*
X146950000Y-69500000D02*
X146950000Y-62357200D01*
X156150000Y-93200000D02*
X154700000Y-91750000D01*
X154700000Y-88350000D02*
X154100000Y-87750000D01*
X154700000Y-91750000D02*
X154700000Y-88350000D01*
X154100000Y-87750000D02*
X154100000Y-70000000D01*
X154100000Y-70000000D02*
X153650000Y-69550000D01*
X156150000Y-97810000D02*
X156150000Y-93200000D01*
X158690000Y-97810000D02*
X158690000Y-100941066D01*
X157450000Y-102181066D02*
X157450000Y-120700000D01*
X158690000Y-100941066D02*
X157450000Y-102181066D01*
X158690000Y-93240000D02*
X158690000Y-97810000D01*
X157350000Y-91900000D02*
X158690000Y-93240000D01*
X156550000Y-87600000D02*
X157350000Y-88400000D01*
X157350000Y-88400000D02*
X157350000Y-91900000D01*
X156550000Y-64000000D02*
X156550000Y-87600000D01*
X142910000Y-61670000D02*
X142910000Y-63143200D01*
X140370000Y-64670000D02*
X140400000Y-64700000D01*
X140370000Y-61670000D02*
X140370000Y-64670000D01*
X161230000Y-88716800D02*
X161230000Y-90190000D01*
X162450000Y-115606000D02*
X161152400Y-116903600D01*
X161152400Y-116903600D02*
X159800000Y-116903600D01*
X162450000Y-96700000D02*
X162450000Y-115606000D01*
X161230000Y-95480000D02*
X162450000Y-96700000D01*
X161230000Y-90190000D02*
X161230000Y-95480000D01*
X157450000Y-64750000D02*
X157450000Y-65750000D01*
X157450000Y-65750000D02*
X156854810Y-66345190D01*
X156854810Y-66345190D02*
X156854810Y-86004810D01*
X156854810Y-86004810D02*
X158350000Y-87500000D01*
X160013200Y-87500000D02*
X161230000Y-88716800D01*
X158350000Y-87500000D02*
X160013200Y-87500000D01*
X77025000Y-119950000D02*
X77253601Y-120178601D01*
X74425000Y-119375000D02*
X75000000Y-119950000D01*
X74425000Y-110417798D02*
X74425000Y-119375000D01*
X77275001Y-120178601D02*
X77675000Y-120578600D01*
X77253601Y-120178601D02*
X77275001Y-120178601D01*
X74403601Y-110396399D02*
X74425000Y-110417798D01*
X75000000Y-119950000D02*
X77025000Y-119950000D01*
X74403601Y-101988601D02*
X74403601Y-110396399D01*
X73325000Y-100910000D02*
X74403601Y-101988601D01*
X156150000Y-90190000D02*
X156150000Y-91663200D01*
X157400000Y-92913200D02*
X157400000Y-101800000D01*
X156150000Y-91663200D02*
X157400000Y-92913200D01*
X156785801Y-102414199D02*
X157400000Y-101800000D01*
X156785801Y-113334990D02*
X156785801Y-102414199D01*
X137830000Y-65720000D02*
X137800000Y-65750000D01*
X137830000Y-61670000D02*
X137830000Y-65720000D01*
X156150000Y-88716800D02*
X156150000Y-90190000D01*
X154404810Y-86854810D02*
X156150000Y-88600000D01*
X156150000Y-88600000D02*
X156150000Y-88716800D01*
X154404810Y-69873744D02*
X154404810Y-86854810D01*
X154400000Y-69868934D02*
X154404810Y-69873744D01*
X154400000Y-65750000D02*
X154400000Y-69868934D01*
X136825000Y-66725000D02*
X136825000Y-73937730D01*
X137800000Y-65750000D02*
X136825000Y-66725000D01*
X164200000Y-96219670D02*
X164200000Y-101028600D01*
X163754810Y-95774480D02*
X164200000Y-96219670D01*
X163754810Y-86528010D02*
X163754810Y-95774480D01*
X163230000Y-86003200D02*
X163754810Y-86528010D01*
X163230000Y-84530000D02*
X163230000Y-86003200D01*
X164200000Y-101028600D02*
X164200000Y-134700000D01*
X160690000Y-86358934D02*
X163450000Y-89118934D01*
X160690000Y-84530000D02*
X160690000Y-86358934D01*
X163450000Y-89118934D02*
X163450000Y-96400000D01*
X163450000Y-137183410D02*
X163383410Y-137250000D01*
X163450000Y-96400000D02*
X163450000Y-137183410D01*
X123608418Y-138754990D02*
X122001828Y-140361580D01*
X135543790Y-138754990D02*
X123608418Y-138754990D01*
X135600000Y-139763600D02*
X135600000Y-138811200D01*
X135600000Y-138811200D02*
X135543790Y-138754990D01*
X122001828Y-140361580D02*
X121960434Y-140361580D01*
X158150000Y-85190400D02*
X158100000Y-85240400D01*
X158150000Y-84530000D02*
X158150000Y-85190400D01*
X158100000Y-86750000D02*
X158545190Y-87195190D01*
X158100000Y-85240400D02*
X158100000Y-86750000D01*
X160152839Y-87195190D02*
X160157649Y-87200000D01*
X158545190Y-87195190D02*
X160152839Y-87195190D01*
X160157649Y-87200000D02*
X161100000Y-87200000D01*
X162700000Y-88800000D02*
X162700000Y-93950000D01*
X161100000Y-87200000D02*
X162700000Y-88800000D01*
X162754810Y-138161190D02*
X161152400Y-139763600D01*
X161152400Y-139763600D02*
X159800000Y-139763600D01*
X162754810Y-96573744D02*
X162754810Y-138161190D01*
X162700000Y-96518934D02*
X162754810Y-96573744D01*
X162700000Y-93950000D02*
X162700000Y-96518934D01*
X87030000Y-63143200D02*
X88680990Y-64794190D01*
X87030000Y-61670000D02*
X87030000Y-63143200D01*
X88680990Y-75119010D02*
X88600000Y-75200000D01*
X88680990Y-64794190D02*
X88680990Y-75119010D01*
X91600000Y-143538220D02*
X91600000Y-87900000D01*
X91600000Y-87900000D02*
X91100000Y-87400000D01*
X88600000Y-85477649D02*
X88600000Y-75200000D01*
X91100000Y-87400000D02*
X90236715Y-87400000D01*
X92911780Y-144850000D02*
X91600000Y-143538220D01*
X88600000Y-85477649D02*
X88600000Y-85763285D01*
X88600000Y-85763285D02*
X90236714Y-87399999D01*
X168750000Y-104950000D02*
X168800000Y-105000000D01*
X168800000Y-104434315D02*
X168800000Y-105000000D01*
X167409619Y-78242938D02*
X167409619Y-102628553D01*
X168800000Y-104018934D02*
X168800000Y-104434315D01*
X167409619Y-102628553D02*
X168800000Y-104018934D01*
X168750000Y-76902557D02*
X167409619Y-78242938D01*
X168750000Y-75350000D02*
X168750000Y-76902557D01*
X137800000Y-143600000D02*
X133400000Y-143600000D01*
X133400000Y-143600000D02*
X130550000Y-146450000D01*
X139043600Y-144843600D02*
X137800000Y-143600000D01*
X139043600Y-144856400D02*
X139000000Y-144900000D01*
X139043600Y-144843600D02*
X139043600Y-144856400D01*
X92850000Y-144788220D02*
X92911780Y-144850000D01*
X101087600Y-144863600D02*
X99790380Y-146160820D01*
X102440000Y-144863600D02*
X101087600Y-144863600D01*
X99790380Y-146160820D02*
X99790380Y-148269754D01*
X99790380Y-148269754D02*
X99790380Y-150225000D01*
X99048310Y-152488820D02*
X86451687Y-152488819D01*
X99790378Y-151746754D02*
X99048310Y-152488820D01*
X99790380Y-150225000D02*
X99790378Y-151746754D01*
X83967799Y-136475001D02*
X83967800Y-136475000D01*
X83967799Y-150004931D02*
X83967799Y-136475001D01*
X86451687Y-152488819D02*
X83967799Y-150004931D01*
X89570000Y-61670000D02*
X89570000Y-63143200D01*
X90621400Y-64194600D02*
X89570000Y-63143200D01*
X90621400Y-75848146D02*
X90621400Y-64194600D01*
X93845190Y-140683410D02*
X95461780Y-142300000D01*
X93845190Y-87787722D02*
X93845190Y-140683410D01*
X91866942Y-87304810D02*
X93362278Y-87304810D01*
X90621400Y-75848146D02*
X90571399Y-75898147D01*
X93362278Y-87304810D02*
X93845190Y-87787722D01*
X90571399Y-86009267D02*
X91866942Y-87304810D01*
X90571399Y-75898147D02*
X90571399Y-86009267D01*
X167800000Y-104424256D02*
X167804344Y-104428600D01*
X167804344Y-103454344D02*
X167804344Y-104428600D01*
X167104809Y-102754809D02*
X167804344Y-103454344D01*
X167800000Y-77404810D02*
X167104810Y-78100000D01*
X167104810Y-78100000D02*
X167104809Y-102754809D01*
X167800000Y-76050000D02*
X167800000Y-77404810D01*
X102440000Y-142323600D02*
X102040000Y-142323600D01*
X101087600Y-142323600D02*
X99485570Y-143925630D01*
X102440000Y-142323600D02*
X101087600Y-142323600D01*
X99485570Y-143925630D02*
X99485570Y-148143498D01*
X99485569Y-151620497D02*
X98922055Y-152184011D01*
X99485570Y-148143498D02*
X99485569Y-151620497D01*
X86577944Y-152184010D02*
X84596400Y-150202466D01*
X84596400Y-150202466D02*
X84596400Y-133925000D01*
X98922055Y-152184011D02*
X86577944Y-152184010D01*
X92110000Y-63143200D02*
X91250000Y-64003200D01*
X92110000Y-61670000D02*
X92110000Y-63143200D01*
X91250000Y-64003200D02*
X91220990Y-64032210D01*
X91250000Y-76650000D02*
X91200000Y-76700000D01*
X91250000Y-64003200D02*
X91250000Y-76650000D01*
X91993198Y-87000000D02*
X90876209Y-85883011D01*
X94150000Y-138438220D02*
X94150000Y-87661466D01*
X93488534Y-87000000D02*
X91993198Y-87000000D01*
X94150000Y-87661466D02*
X93488534Y-87000000D01*
X90876209Y-77023791D02*
X91200000Y-76700000D01*
X90876209Y-85883011D02*
X90876209Y-77023791D01*
X95461780Y-139750000D02*
X94150000Y-138438220D01*
X166800001Y-103800000D02*
X166800000Y-87477649D01*
X166800000Y-87477649D02*
X166800000Y-78350000D01*
X166800000Y-78350000D02*
X166800000Y-76700000D01*
X101696730Y-139783600D02*
X99180760Y-142299570D01*
X102440000Y-139783600D02*
X101696730Y-139783600D01*
X99180760Y-142299570D02*
X99180760Y-143799374D01*
X99180760Y-143799374D02*
X99180760Y-147350000D01*
X99180760Y-147350000D02*
X99180760Y-151494240D01*
X98795799Y-151879201D02*
X86704201Y-151879201D01*
X99180760Y-151494240D02*
X98795799Y-151879201D01*
X85225000Y-150400000D02*
X85225000Y-131425000D01*
X86704201Y-151879201D02*
X85225000Y-150400000D01*
X116450000Y-71999999D02*
X118100000Y-70349999D01*
X116450000Y-87800000D02*
X116450000Y-71999999D01*
X115450000Y-88800000D02*
X116450000Y-87800000D01*
X115450000Y-102167462D02*
X115450000Y-88800000D01*
X119866332Y-137738909D02*
X119866332Y-106583794D01*
X119866332Y-106583794D02*
X115450000Y-102167462D01*
X117764200Y-139841041D02*
X119866332Y-137738909D01*
X117764200Y-141618780D02*
X117764200Y-139841041D01*
X110047600Y-142323600D02*
X109325000Y-143046200D01*
X111400000Y-142323600D02*
X110047600Y-142323600D01*
X109325000Y-143046200D02*
X109325000Y-152500000D01*
X109325000Y-152500000D02*
X109025000Y-152800000D01*
X109025000Y-152800000D02*
X108800000Y-153025000D01*
X108800000Y-153025000D02*
X108421753Y-153403247D01*
X108421753Y-153403247D02*
X99427075Y-153403247D01*
X82081998Y-149412328D02*
X82081998Y-140468002D01*
X86072916Y-153403246D02*
X82081998Y-149412328D01*
X99427075Y-153403247D02*
X86072916Y-153403246D01*
X82081998Y-128943002D02*
X82175000Y-128850000D01*
X82081998Y-140468002D02*
X82081998Y-128943002D01*
X118914285Y-79835715D02*
X118914285Y-69757142D01*
X118600000Y-80150000D02*
X118914285Y-79835715D01*
X115754810Y-88926256D02*
X118600000Y-86081066D01*
X120171142Y-106457538D02*
X115754810Y-102041206D01*
X118600000Y-86081066D02*
X118600000Y-80150000D01*
X120171142Y-137865165D02*
X120171142Y-106457538D01*
X115754810Y-102041206D02*
X115754810Y-88926256D01*
X118392800Y-139643507D02*
X120171142Y-137865165D01*
X118392800Y-143850000D02*
X118392800Y-139643507D01*
X110047600Y-144863600D02*
X109629810Y-145281390D01*
X111400000Y-144863600D02*
X110047600Y-144863600D01*
X109629809Y-152626257D02*
X108548009Y-153708057D01*
X109629810Y-145281390D02*
X109629809Y-152626257D01*
X108548009Y-153708057D02*
X101825000Y-153708057D01*
X101825000Y-153708057D02*
X85946659Y-153708055D01*
X81546399Y-126353601D02*
X81600000Y-126300000D01*
X81546399Y-149307795D02*
X81546399Y-126353601D01*
X85946659Y-153708055D02*
X81546399Y-149307795D01*
X119728570Y-69729970D02*
X119728570Y-69164285D01*
X116059620Y-101914950D02*
X116059620Y-89052512D01*
X118904810Y-80276256D02*
X119728570Y-79452496D01*
X118904810Y-86207322D02*
X118904810Y-80276256D01*
X120475953Y-106331283D02*
X116059620Y-101914950D01*
X119728570Y-79452496D02*
X119728570Y-69729970D01*
X120475952Y-137991421D02*
X120475953Y-106331283D01*
X116059620Y-89052512D02*
X118904810Y-86207322D01*
X119021400Y-139445973D02*
X120475952Y-137991421D01*
X119021400Y-146400000D02*
X119021400Y-139445973D01*
X109934618Y-152752514D02*
X108674265Y-154012867D01*
X109934618Y-147516582D02*
X109934618Y-152752514D01*
X110047600Y-147403600D02*
X109934618Y-147516582D01*
X111400000Y-147403600D02*
X110047600Y-147403600D01*
X93662867Y-154012867D02*
X93662865Y-154012865D01*
X108674265Y-154012867D02*
X93662867Y-154012867D01*
X80971399Y-123878601D02*
X81075000Y-123775000D01*
X80971399Y-149163861D02*
X80971399Y-123878601D01*
X85820405Y-154012867D02*
X80971399Y-149163861D01*
X93662867Y-154012867D02*
X85820405Y-154012867D01*
X121100000Y-69128573D02*
X120542855Y-68571428D01*
X120550000Y-86400000D02*
X121100000Y-85850000D01*
X119143198Y-86400000D02*
X120550000Y-86400000D01*
X116364430Y-89178768D02*
X119143198Y-86400000D01*
X121100000Y-85850000D02*
X121100000Y-69128573D01*
X116364430Y-95000000D02*
X116364430Y-89178768D01*
X116364430Y-101788694D02*
X116364430Y-94200000D01*
X120780762Y-138117677D02*
X120780763Y-106205027D01*
X120780763Y-106205027D02*
X116364430Y-101788694D01*
X119650000Y-139248439D02*
X120780762Y-138117677D01*
X119650000Y-149950000D02*
X119650000Y-139248439D01*
X127992400Y-149943600D02*
X126640000Y-149943600D01*
X128450000Y-150401200D02*
X127992400Y-149943600D01*
X128450000Y-154147840D02*
X128450000Y-150401200D01*
X76471655Y-145766213D02*
X76471655Y-148108992D01*
X79055760Y-143182108D02*
X76471655Y-145766213D01*
X78630000Y-121230000D02*
X79055760Y-121655760D01*
X79055760Y-121655760D02*
X79055760Y-143182108D01*
X75865000Y-121230000D02*
X78630000Y-121230000D01*
X124750000Y-149293600D02*
X126640000Y-147403600D01*
X124750000Y-153843030D02*
X124750000Y-149293600D01*
X77423472Y-145245462D02*
X77423472Y-147337994D01*
X78514999Y-119539999D02*
X79360570Y-120385570D01*
X79360570Y-143308364D02*
X77423472Y-145245462D01*
X79360570Y-120385570D02*
X79360570Y-143308364D01*
X76714999Y-119539999D02*
X78514999Y-119539999D01*
X75865000Y-118690000D02*
X76714999Y-119539999D01*
X120271399Y-146805714D02*
X120350000Y-146884315D01*
X121357140Y-68544256D02*
X121404810Y-68591926D01*
X121085571Y-138252297D02*
X120271399Y-139066469D01*
X120350000Y-146884315D02*
X120350000Y-147450000D01*
X121404810Y-68591926D02*
X121404809Y-85976257D01*
X121085572Y-106078770D02*
X121085571Y-138252297D01*
X116669240Y-101662438D02*
X121085572Y-106078770D01*
X119269454Y-86704810D02*
X116669240Y-89305024D01*
X121404809Y-85976257D02*
X120676256Y-86704810D01*
X120271399Y-139066469D02*
X120271399Y-146805714D01*
X121357140Y-67978571D02*
X121357140Y-68544256D01*
X116669240Y-89305024D02*
X116669240Y-101662438D01*
X120676256Y-86704810D02*
X119269454Y-86704810D01*
X123080899Y-80630899D02*
X123080899Y-68295188D01*
X120900000Y-144850000D02*
X120795191Y-144745191D01*
X116974050Y-89431280D02*
X119395710Y-87009620D01*
X123700000Y-81250000D02*
X123080899Y-80630899D01*
X123700000Y-85800000D02*
X123700000Y-81250000D01*
X121390381Y-105952513D02*
X116974050Y-101536182D01*
X122490380Y-87009620D02*
X123700000Y-85800000D01*
X116974050Y-101536182D02*
X116974050Y-89431280D01*
X121390381Y-138378553D02*
X121390381Y-105952513D01*
X120795191Y-144745191D02*
X120795192Y-138973742D01*
X120795192Y-138973742D02*
X121390381Y-138378553D01*
X123080899Y-68295188D02*
X122171425Y-67385714D01*
X119395710Y-87009620D02*
X122490380Y-87009620D01*
X75865000Y-116150000D02*
X79115380Y-116150000D01*
X79115380Y-116150000D02*
X79665380Y-116700000D01*
X79665380Y-116700000D02*
X79665380Y-126425000D01*
X79665380Y-126425000D02*
X79665380Y-142000000D01*
X79665380Y-142000000D02*
X79665380Y-143175000D01*
X79665380Y-143175000D02*
X79665380Y-143434620D01*
X78350000Y-144750000D02*
X78350000Y-146444600D01*
X79665380Y-143434620D02*
X78350000Y-144750000D01*
X123385709Y-80504643D02*
X124004810Y-81123744D01*
X123385709Y-67192856D02*
X123385709Y-80504643D01*
X122985710Y-66792857D02*
X123385709Y-67192856D01*
X124004810Y-81123744D02*
X124004809Y-85926257D01*
X124004809Y-85926257D02*
X122616636Y-87314430D01*
X122616636Y-87314430D02*
X119521966Y-87314430D01*
X119521966Y-87314430D02*
X117278860Y-89557536D01*
X117278860Y-89971140D02*
X117278860Y-90100000D01*
X117278860Y-89557536D02*
X117278860Y-89971140D01*
X117278860Y-101409926D02*
X117278860Y-99959926D01*
X121695191Y-105826257D02*
X117278860Y-101409926D01*
X121695191Y-138504809D02*
X121695191Y-105826257D01*
X121100001Y-139099999D02*
X121695191Y-138504809D01*
X121100001Y-141034114D02*
X121100001Y-139099999D01*
X117278860Y-99959926D02*
X117278860Y-89971140D01*
X121423791Y-141357905D02*
X121100001Y-141034114D01*
X121423791Y-141923590D02*
X121423791Y-141357905D01*
X75865000Y-113610000D02*
X79678934Y-113610000D01*
X79323205Y-144555313D02*
X79323205Y-145120998D01*
X79323205Y-144371465D02*
X79323205Y-144555313D01*
X79970190Y-143724480D02*
X79323205Y-144371465D01*
X79970190Y-113901256D02*
X79970190Y-143724480D01*
X79678934Y-113610000D02*
X79970190Y-113901256D01*
X126300000Y-68700000D02*
X123800000Y-66200000D01*
X125080760Y-87619240D02*
X126300000Y-86400000D01*
X119648222Y-87619240D02*
X125080760Y-87619240D01*
X126300000Y-86400000D02*
X126300000Y-68700000D01*
X117583670Y-101283670D02*
X117583670Y-89683792D01*
X122000000Y-105700000D02*
X117583670Y-101283670D01*
X117583670Y-89683792D02*
X119648222Y-87619240D01*
X122000000Y-138450000D02*
X122000000Y-105700000D01*
X122069488Y-138519488D02*
X122000000Y-138450000D01*
X122069488Y-139363590D02*
X122069488Y-138519488D01*
X77067081Y-111070000D02*
X75865000Y-111070000D01*
X77072081Y-111075000D02*
X77067081Y-111070000D01*
X79275000Y-111075000D02*
X77072081Y-111075000D01*
X79650000Y-113150000D02*
X79650000Y-111450000D01*
X80275000Y-113775000D02*
X79650000Y-113150000D01*
X79650000Y-111450000D02*
X79275000Y-111075000D01*
X80275000Y-144350000D02*
X80275000Y-113775000D01*
X117510000Y-63143200D02*
X117510000Y-61670000D01*
X112903200Y-67750000D02*
X117510000Y-63143200D01*
X110150000Y-67750000D02*
X112903200Y-67750000D01*
X82413940Y-66536060D02*
X83250000Y-65700000D01*
X82413940Y-92610438D02*
X82413940Y-66536060D01*
X82428601Y-113801729D02*
X82075000Y-114155330D01*
X82428601Y-113198271D02*
X82428601Y-113801729D01*
X82413940Y-113183610D02*
X82428601Y-113198271D01*
X82413940Y-92610438D02*
X82413940Y-113183610D01*
X82075000Y-114155330D02*
X82075000Y-119950000D01*
X120050000Y-62330400D02*
X120050000Y-61670000D01*
X113956584Y-68423816D02*
X120050000Y-62330400D01*
X110970732Y-68423816D02*
X113956584Y-68423816D01*
X83042540Y-67248909D02*
X83846134Y-66445315D01*
X83042540Y-93343164D02*
X83042540Y-67248909D01*
X83042540Y-116857460D02*
X83025000Y-116875000D01*
X83042540Y-93343164D02*
X83042540Y-116857460D01*
X112357149Y-69097632D02*
X111791464Y-69097632D01*
X113713834Y-69097632D02*
X112357149Y-69097632D01*
X118506656Y-64304810D02*
X113713834Y-69097632D01*
X122590000Y-62330400D02*
X120615590Y-64304810D01*
X120615590Y-64304810D02*
X118506656Y-64304810D01*
X122590000Y-61670000D02*
X122590000Y-62330400D01*
X83744744Y-67887467D02*
X84452299Y-67179912D01*
X83744744Y-93986576D02*
X83744744Y-67887467D01*
X83744744Y-93986576D02*
X83744744Y-98269744D01*
X83742798Y-114517798D02*
X83775000Y-114550000D01*
X83742798Y-98271690D02*
X83742798Y-114517798D01*
X83744744Y-98269744D02*
X83742798Y-98271690D01*
X127670000Y-63143200D02*
X127670000Y-61670000D01*
X126203580Y-64609620D02*
X127670000Y-63143200D01*
X118632912Y-64609620D02*
X126203580Y-64609620D01*
X113471084Y-69771448D02*
X118632912Y-64609620D01*
X112612196Y-69771448D02*
X113471084Y-69771448D01*
X84392589Y-68562836D02*
X84988166Y-67967259D01*
X84392589Y-94684692D02*
X84392589Y-68562836D01*
X84392589Y-94684692D02*
X84392589Y-99132411D01*
X84371399Y-99153601D02*
X84371399Y-111146399D01*
X84392589Y-99132411D02*
X84371399Y-99153601D01*
X118963764Y-64914430D02*
X113432930Y-70445264D01*
X128438770Y-64914430D02*
X118963764Y-64914430D01*
X130210000Y-63143200D02*
X128438770Y-64914430D01*
X130210000Y-61670000D02*
X130210000Y-63143200D01*
X85021400Y-69288385D02*
X85696903Y-68612882D01*
X85021400Y-95400000D02*
X85021400Y-69288385D01*
X131022800Y-61670000D02*
X130210000Y-61670000D01*
X131450000Y-62097200D02*
X131022800Y-61670000D01*
X131450000Y-102200000D02*
X131450000Y-62097200D01*
X128450000Y-105200000D02*
X131450000Y-102200000D01*
X130000000Y-111850000D02*
X128450000Y-110300000D01*
X134221200Y-111850000D02*
X130000000Y-111850000D01*
X128450000Y-110300000D02*
X128450000Y-105200000D01*
X134247600Y-111823600D02*
X134221200Y-111850000D01*
X135600000Y-111823600D02*
X134247600Y-111823600D01*
X85021400Y-109578600D02*
X85000000Y-109600000D01*
X85021400Y-95400000D02*
X85021400Y-109578600D01*
X151070000Y-90190000D02*
X151070000Y-91663200D01*
X151070000Y-91663200D02*
X152100000Y-92693200D01*
X152100000Y-92693200D02*
X152100000Y-101818934D01*
X154200000Y-103918934D02*
X152100000Y-101818934D01*
X154200000Y-116900000D02*
X154200000Y-103918934D01*
X148879010Y-70337307D02*
X148671400Y-70129697D01*
X132700000Y-61720000D02*
X132750000Y-61670000D01*
X132700000Y-70100000D02*
X132700000Y-61720000D01*
X86725200Y-97210000D02*
X85650000Y-96134800D01*
X87538000Y-97210000D02*
X86725200Y-97210000D01*
X85650000Y-70000000D02*
X86300000Y-69350000D01*
X85650000Y-96134800D02*
X85650000Y-70000000D01*
X146750000Y-79450000D02*
X146750000Y-85800000D01*
X148850000Y-87900000D02*
X150253200Y-87900000D01*
X150253200Y-87900000D02*
X151070000Y-88716800D01*
X146750000Y-85800000D02*
X148850000Y-87900000D01*
X151070000Y-88716800D02*
X151070000Y-90190000D01*
X148671400Y-77528600D02*
X146750000Y-79450000D01*
X148671400Y-70129697D02*
X148671400Y-77528600D01*
X78925000Y-107517225D02*
X78738625Y-107703600D01*
X78925000Y-97790685D02*
X79358676Y-98224361D01*
X78925000Y-97225000D02*
X78925000Y-97790685D01*
X78738625Y-107137915D02*
X78738625Y-107703600D01*
X78738625Y-107069531D02*
X78738625Y-107137915D01*
X79358676Y-106449480D02*
X78738625Y-107069531D01*
X79358676Y-98224361D02*
X79358676Y-106449480D01*
X193703200Y-105390000D02*
X192230000Y-105390000D01*
X194200000Y-104893200D02*
X193703200Y-105390000D01*
X165200000Y-102410255D02*
X165200000Y-129600000D01*
X194671400Y-101315685D02*
X194671400Y-100750000D01*
X194671400Y-104428600D02*
X194671400Y-101315685D01*
X194206800Y-104893200D02*
X194671400Y-104428600D01*
X194200000Y-104893200D02*
X194206800Y-104893200D01*
X166190382Y-91590382D02*
X166190382Y-100609618D01*
X164550000Y-89950000D02*
X166190382Y-91590382D01*
X164550000Y-64363200D02*
X164550000Y-89950000D01*
X166190382Y-100609618D02*
X165200000Y-101600000D01*
X165770000Y-63143200D02*
X164550000Y-64363200D01*
X165770000Y-61670000D02*
X165770000Y-63143200D01*
X165200000Y-101600000D02*
X165200000Y-102410255D01*
X166300000Y-102721401D02*
X166171401Y-102850000D01*
X166171401Y-132321401D02*
X166200000Y-132350000D01*
X166171401Y-102850000D02*
X166171401Y-132321401D01*
X165770000Y-84530000D02*
X165770000Y-86474810D01*
X165770000Y-88570000D02*
X166495192Y-89295192D01*
X165770000Y-86474810D02*
X165770000Y-88570000D01*
X166171401Y-102284315D02*
X166495192Y-101960525D01*
X166171401Y-102850000D02*
X166171401Y-102284315D01*
X166495192Y-101960525D02*
X166495192Y-89295192D01*
X125067895Y-143352210D02*
X130547790Y-143352210D01*
X124465685Y-142750000D02*
X125067895Y-143352210D01*
X123900000Y-142750000D02*
X124465685Y-142750000D01*
X131596400Y-142303600D02*
X135600000Y-142303600D01*
X130547790Y-143352210D02*
X131596400Y-142303600D01*
X97190000Y-84530000D02*
X97190000Y-78560000D01*
X97190000Y-74252540D02*
X97200000Y-74242540D01*
X97190000Y-78560000D02*
X97190000Y-74252540D01*
X174100000Y-72250000D02*
X174100000Y-73707887D01*
X174100000Y-73707887D02*
X173404809Y-74403078D01*
X173404809Y-74403078D02*
X168933669Y-78874218D01*
X168933669Y-78874218D02*
X168933669Y-100983669D01*
X168933669Y-100983669D02*
X168933669Y-101997273D01*
X168933669Y-101997273D02*
X171143198Y-104206802D01*
X173800000Y-106863604D02*
X173800000Y-107400000D01*
X171143198Y-104206802D02*
X173800000Y-106863604D01*
X96700000Y-142850000D02*
X97200000Y-143350000D01*
X96700000Y-87900000D02*
X96700000Y-142850000D01*
X97190000Y-87410000D02*
X96700000Y-87900000D01*
X97190000Y-84530000D02*
X97190000Y-87410000D01*
X94650000Y-74597350D02*
X94600000Y-74547350D01*
X94650000Y-84530000D02*
X94650000Y-74597350D01*
X172750000Y-106244670D02*
X172750000Y-106850000D01*
X168628859Y-102123529D02*
X172750000Y-106244670D01*
X168628859Y-78747962D02*
X168628859Y-102123529D01*
X173100000Y-74276821D02*
X168628859Y-78747962D01*
X173100000Y-72850000D02*
X173100000Y-74276821D01*
X136952400Y-144843600D02*
X135600000Y-144843600D01*
X137750000Y-145641200D02*
X136952400Y-144843600D01*
X137750000Y-152928600D02*
X137750000Y-145641200D01*
X95900000Y-85950000D02*
X95900000Y-84967200D01*
X96395190Y-86445190D02*
X95900000Y-85950000D01*
X95900000Y-84967200D02*
X95462800Y-84530000D01*
X95462800Y-84530000D02*
X94650000Y-84530000D01*
X96395190Y-148895190D02*
X96395190Y-86445190D01*
X96400000Y-148900000D02*
X96395190Y-148895190D01*
X92110000Y-74290000D02*
X92143492Y-74256508D01*
X92110000Y-84530000D02*
X92110000Y-74290000D01*
X168324049Y-78621706D02*
X168324049Y-102249785D01*
X171800000Y-105725736D02*
X171800000Y-106350000D01*
X168324049Y-102249785D02*
X171800000Y-105725736D01*
X171900000Y-75045755D02*
X168324049Y-78621706D01*
X171900000Y-73500000D02*
X171900000Y-75045755D01*
X133900000Y-149083600D02*
X135600000Y-147383600D01*
X133900000Y-153538220D02*
X133900000Y-149083600D01*
X92110000Y-84530000D02*
X92110000Y-85190400D01*
X92110000Y-86003200D02*
X92110000Y-84530000D01*
X92381800Y-86275000D02*
X92110000Y-86003200D01*
X96090380Y-86571446D02*
X95793934Y-86275000D01*
X96090380Y-147559620D02*
X96090380Y-86571446D01*
X95793934Y-86275000D02*
X92381800Y-86275000D01*
X92399400Y-151250600D02*
X96090380Y-147559620D01*
X89325000Y-146631000D02*
X89325000Y-143925000D01*
X88552400Y-147403600D02*
X89325000Y-146631000D01*
X87200000Y-147403600D02*
X88552400Y-147403600D01*
X93540380Y-87990380D02*
X93540380Y-149220644D01*
X93159620Y-87609620D02*
X93540380Y-87990380D01*
X91740686Y-87609620D02*
X93159620Y-87609620D01*
X91226257Y-87095191D02*
X91740686Y-87609620D01*
X93540380Y-149220644D02*
X93005512Y-149755512D01*
X90661990Y-87095190D02*
X91226257Y-87095191D01*
X89570000Y-86003200D02*
X90661990Y-87095190D01*
X89570000Y-84530000D02*
X89570000Y-86003200D01*
X89570000Y-73752838D02*
X89550000Y-73732838D01*
X89570000Y-84530000D02*
X89570000Y-73752838D01*
X170750000Y-105106802D02*
X170750000Y-105950000D01*
X168019239Y-102376041D02*
X170750000Y-105106802D01*
X168019239Y-78495450D02*
X168019239Y-102376041D01*
X170750000Y-75764689D02*
X168019239Y-78495450D01*
X170750000Y-74100000D02*
X170750000Y-75764689D01*
X101087600Y-149943600D02*
X100400000Y-150631200D01*
X102440000Y-149943600D02*
X101087600Y-149943600D01*
X100400000Y-150631200D02*
X100400000Y-151500000D01*
X86199173Y-153098437D02*
X82710599Y-149609863D01*
X99300820Y-153098438D02*
X86199173Y-153098437D01*
X82710599Y-149609863D02*
X82710599Y-141550000D01*
X100400000Y-151999258D02*
X99300820Y-153098438D01*
X100400000Y-151500000D02*
X100400000Y-151999258D01*
X90110458Y-87704809D02*
X90973743Y-87704809D01*
X87030000Y-84624351D02*
X90110458Y-87704809D01*
X87030000Y-84530000D02*
X87030000Y-84624351D01*
X90973743Y-87704809D02*
X91295190Y-88026256D01*
X91295190Y-88026256D02*
X91295190Y-91700000D01*
X91295190Y-145133410D02*
X92911780Y-146750000D01*
X91295190Y-91700000D02*
X91295190Y-145133410D01*
X87030000Y-75383828D02*
X88052390Y-74361438D01*
X87030000Y-84530000D02*
X87030000Y-75383828D01*
X169800000Y-104587868D02*
X169800000Y-105500000D01*
X167714429Y-102502297D02*
X169800000Y-104587868D01*
X169800000Y-76283623D02*
X167714429Y-78369194D01*
X167714429Y-78369194D02*
X167714429Y-102502297D01*
X169800000Y-74750000D02*
X169800000Y-76283623D01*
X149487600Y-147383600D02*
X150840000Y-147383600D01*
X149113511Y-147757689D02*
X149487600Y-147383600D01*
X149113511Y-151576211D02*
X149113511Y-147757689D01*
X148713512Y-151976210D02*
X149113511Y-151576211D01*
X101087600Y-147403600D02*
X100095190Y-148396010D01*
X102440000Y-147403600D02*
X101087600Y-147403600D01*
X100095190Y-148396010D02*
X100095190Y-150504944D01*
X100095186Y-151873011D02*
X99174565Y-152793629D01*
X100095190Y-150504944D02*
X100095186Y-151873011D01*
X83339199Y-149807397D02*
X83339199Y-139000000D01*
X86325430Y-152793628D02*
X83339199Y-149807397D01*
X99174565Y-152793629D02*
X86325430Y-152793628D01*
X196800000Y-84400000D02*
X196800000Y-91300000D01*
X196800000Y-91300000D02*
X201250000Y-95750000D01*
X201250000Y-95750000D02*
X201250000Y-125700000D01*
X193703200Y-113010000D02*
X192230000Y-113010000D01*
X196171400Y-110541800D02*
X193703200Y-113010000D01*
X196171400Y-98950000D02*
X196171400Y-110541800D01*
X193703200Y-110470000D02*
X192230000Y-110470000D01*
X195300000Y-108873200D02*
X193703200Y-110470000D01*
X195300000Y-96450000D02*
X195300000Y-108873200D01*
D24*
X224062000Y-101480000D02*
X223300000Y-101480000D01*
X225474000Y-100068000D02*
X224062000Y-101480000D01*
X225474000Y-91256000D02*
X225474000Y-100068000D01*
X223300000Y-89082000D02*
X225474000Y-91256000D01*
X223300000Y-87670000D02*
X223300000Y-89082000D01*
D23*
X210400000Y-65660000D02*
X205432600Y-60692600D01*
X210400000Y-67360000D02*
X210400000Y-65660000D01*
X173700000Y-97380000D02*
X173720000Y-97400000D01*
X173700000Y-92000000D02*
X173700000Y-97380000D01*
X169562269Y-87500000D02*
X169562269Y-94600000D01*
X224260600Y-76774600D02*
X226276000Y-78790000D01*
X224260600Y-72001200D02*
X224260600Y-76774600D01*
X153610000Y-90190000D02*
X153610000Y-92210000D01*
X153610000Y-92210000D02*
X154850000Y-93450000D01*
X154850000Y-93450000D02*
X154850000Y-101800000D01*
X155528600Y-102478600D02*
X155528600Y-115550000D01*
X154850000Y-101800000D02*
X155528600Y-102478600D01*
X135300000Y-64800000D02*
X135300000Y-61680000D01*
X135300000Y-61680000D02*
X135290000Y-61670000D01*
X135300000Y-64800000D02*
X135300000Y-67600000D01*
X152350000Y-71617227D02*
X152350000Y-67600000D01*
X153610000Y-88810000D02*
X151904810Y-87104810D01*
X153610000Y-90190000D02*
X153610000Y-88810000D01*
X151904810Y-72062417D02*
X152350000Y-71617227D01*
X151904810Y-87104810D02*
X151904810Y-72062417D01*
X135300000Y-67600000D02*
X135300000Y-70758297D01*
X79663486Y-72421856D02*
X79663486Y-107075000D01*
X81785340Y-70300000D02*
X79663486Y-72421856D01*
X110375000Y-102413000D02*
X110398000Y-102390000D01*
X110375000Y-104975000D02*
X110375000Y-102413000D01*
M02*
