M48
;GenerationSoftware,Autodesk,EAGLE,9.5.2*%
;CreationDate,2020-02-01T15:55:55Z*%
FMAT,2
ICI,OFF
METRIC,TZ,000.000
T4C0.350
T3C0.813
T2C1.016
T1C1.118
%
G90
M71
T1
X68580Y27940
X83820Y38100
X83820Y35560
X83820Y33020
X83820Y30480
X83820Y27940
X83820Y25400
X83820Y22860
X83820Y20320
X83820Y17780
X83820Y15240
X83820Y12700
X83820Y10160
X83820Y7620
X83820Y5080
X68580Y5080
X68580Y7620
X68580Y10160
X68580Y12700
X68580Y15240
X68580Y17780
X68580Y20320
X68580Y22860
X68580Y25400
X45720Y15240
X68580Y30480
X68580Y33020
X68580Y38100
X68580Y40640
X68580Y43180
X60960Y38100
X60960Y35560
X60960Y33020
X60960Y30480
X60960Y27940
X60960Y25400
X60960Y22860
X60960Y20320
X60960Y17780
X60960Y15240
X60960Y12700
X60960Y10160
X60960Y7620
X60960Y5080
X45720Y5080
X45720Y7620
X45720Y10160
X45720Y12700
X106680Y15240
X45720Y17780
X45720Y20320
X45720Y22860
X45720Y25400
X45720Y27940
X45720Y30480
X45720Y33020
X45720Y35560
X45720Y38100
X38100Y38100
X38100Y35560
X38100Y33020
X38100Y30480
X38100Y27940
X38100Y25400
X38100Y22860
X38100Y20320
X38100Y17780
X38100Y15240
X38100Y12700
X38100Y10160
X38100Y7620
X38100Y5080
X22860Y5080
X22860Y7620
X22860Y10160
X22860Y12700
X22860Y15240
X22860Y17780
X22860Y20320
X22860Y22860
X22860Y25400
X22860Y27940
X22860Y30480
X22860Y33020
X106680Y17780
X22860Y35560
X22860Y38100
X106680Y20320
X106680Y22860
X106680Y25400
X106680Y27940
X68580Y35560
X106680Y30480
X106680Y33020
X106680Y35560
X106680Y38100
X106680Y40640
X106680Y43180
X91440Y25400
X83820Y40640
X83820Y43180
X91440Y43180
X91440Y40640
X91440Y38100
X91440Y35560
X91440Y33020
X91440Y30480
X91440Y27940
X91440Y22860
X91440Y20320
X91440Y17780
X91440Y15240
X91440Y12700
X91440Y10160
X91440Y7620
X91440Y5080
X106680Y5080
X106680Y7620
X106680Y10160
X106680Y12700
T2
X3810Y5080
X10160Y88265
X157201Y97231
X152679Y97231
X157201Y90729
X152679Y90729
X10160Y14605
X7620Y14605
X10160Y17145
X7620Y17145
X10160Y19685
X7620Y62865
X10160Y65405
X7620Y65405
X10160Y67945
X7620Y67945
X10160Y70485
X7620Y70485
X10160Y73025
X7620Y73025
X10160Y75565
X7620Y75565
X10160Y78105
X7620Y78105
X10160Y80645
X10160Y22225
X10160Y83185
X7620Y83185
X10160Y85725
X7620Y85725
X7620Y88265
X10160Y90805
X7620Y90805
X10160Y93345
X7620Y93345
X156210Y3810
X156210Y6350
X11430Y5080
X8890Y5080
X6350Y5080
X7620Y22225
X10160Y24765
X7620Y24765
X10160Y27305
X7620Y27305
X10160Y29845
X7620Y29845
X10160Y32385
X7620Y32385
X7620Y19685
X10160Y34925
X7620Y34925
X10160Y37465
X7620Y37465
X10160Y40005
X7620Y40005
X10160Y42545
X7620Y42545
X10160Y45085
X7620Y45085
X10160Y47625
X7620Y47625
X10160Y50165
X7620Y50165
X10160Y52705
X7620Y52705
X10160Y55245
X7620Y55245
X10160Y57785
X7620Y57785
X10160Y60325
X7620Y60325
X10160Y62865
X7620Y80645
T3
X157480Y62230
X103822Y94932
X101282Y94932
X148273Y17780
X145733Y17780
X147320Y3937
X147320Y7493
X102870Y78423
X102870Y80963
X154940Y17780
X152400Y17780
X40640Y3810
X43180Y3810
X63500Y3810
X66040Y3810
X86360Y3810
X88900Y3810
X109220Y3810
X111760Y3810
X52070Y59055
X54610Y59055
X67310Y59055
X67310Y66675
X57150Y59055
X59690Y59055
X64770Y59055
X62230Y59055
X64770Y66675
X62230Y66675
X59690Y66675
X57150Y66675
X54610Y66675
X52070Y66675
X149543Y55880
X149543Y53340
X157163Y53340
X157163Y55880
X149543Y50800
X149543Y48260
X157163Y50800
X157163Y48260
X107950Y68580
X107950Y66040
X107950Y53340
X115570Y53340
X107950Y63500
X107950Y60960
X107950Y55880
X107950Y58420
X115570Y55880
X115570Y58420
X115570Y60960
X115570Y63500
X115570Y66040
X115570Y68580
X17780Y71120
X20320Y71120
X22860Y71120
X25400Y71120
X27940Y71120
X33020Y71120
X35560Y71120
X38100Y71120
X40640Y71120
X43180Y71120
X45720Y71120
X48260Y71120
X50800Y71120
X53340Y71120
X55880Y71120
X58420Y71120
X60960Y71120
X63500Y71120
X96520Y71120
X96520Y93980
X63500Y93980
X60960Y93980
X58420Y93980
X55880Y93980
X53340Y93980
X50800Y93980
X48260Y93980
X45720Y93980
X43180Y93980
X40640Y93980
X38100Y93980
X35560Y93980
X33020Y93980
X30480Y93980
X27940Y93980
X25400Y93980
X22860Y93980
X20320Y93980
X17780Y93980
X66040Y71120
X68580Y71120
X71120Y71120
X73660Y71120
X76200Y71120
X78740Y71120
X81280Y71120
X83820Y71120
X86360Y71120
X88900Y71120
X91440Y71120
X93980Y71120
X66040Y93980
X68580Y93980
X71120Y93980
X73660Y93980
X76200Y93980
X78740Y93980
X81280Y93980
X83820Y93980
X86360Y93980
X88900Y93980
X91440Y93980
X93980Y93980
X73025Y59055
X75565Y59055
X78105Y59055
X80645Y59055
X83185Y59055
X85725Y59055
X88265Y59055
X90805Y59055
X93345Y59055
X95885Y59055
X95885Y66675
X93345Y66675
X90805Y66675
X88265Y66675
X85725Y66675
X83185Y66675
X80645Y66675
X78105Y66675
X75565Y66675
X73025Y66675
X107950Y96520
X107950Y93980
X107950Y81280
X115570Y81280
X107950Y91440
X147320Y85090
X107950Y83820
X107950Y86360
X115570Y83820
X115570Y86360
X115570Y88900
X115570Y91440
X115570Y93980
X115570Y96520
X123825Y64770
X123825Y62230
X123825Y59690
X123825Y57150
X123825Y54610
X123825Y52070
X123825Y49530
X123825Y46990
X123825Y44450
X123825Y41910
X123825Y39370
X123825Y36830
X123825Y34290
X123825Y31750
X123825Y29210
X123825Y26670
X123825Y24130
X123825Y21590
X123825Y19050
X123825Y16510
X123825Y13970
X123825Y11430
X123825Y8890
X123825Y6350
X139065Y6350
X139065Y8890
X139065Y11430
X139065Y13970
X139065Y16510
X139065Y19050
X139065Y21590
X139065Y24130
X139065Y26670
X139065Y29210
X139065Y31750
X139065Y34290
X139065Y36830
X139065Y39370
X139065Y41910
X139065Y44450
X139065Y46990
X139065Y49530
X139065Y52070
X139065Y54610
X139065Y57150
X139065Y59690
X139065Y62230
X139065Y64770
X121920Y96520
X121920Y93980
X121920Y81280
X121920Y78740
X121920Y91440
X121920Y88900
X121920Y83820
X121920Y86360
X129540Y78740
X129540Y81280
X129540Y83820
X129540Y86360
X129540Y88900
X129540Y91440
X129540Y93980
X129540Y96520
X107950Y88900
X115570Y22860
X118110Y22860
X115887Y8890
X118427Y8890
X143510Y92075
X146050Y92075
X137478Y92075
X134938Y92075
X116713Y39053
X111887Y39053
X53467Y53340
X58293Y53340
X68263Y77470
X68263Y87630
X44450Y77470
X44450Y87630
X47942Y47625
X47942Y57785
X70803Y77470
X70803Y87630
X146368Y38100
X146368Y48260
X156845Y77470
X156845Y87630
X147320Y74930
X139700Y85090
X139700Y74930
X120015Y53340
X120015Y63500
X103505Y57785
X103505Y47625
X110490Y22860
X110490Y33020
X110490Y10160
X110490Y20320
X73660Y77470
X73660Y87630
X44767Y57785
X44767Y47625
X76200Y77470
X76200Y87630
X81280Y77470
X81280Y87630
X49530Y77470
X49530Y87630
X133985Y72390
X30480Y71120
X113030Y75565
X115570Y75565
X116205Y47307
X118745Y47307
X111125Y47307
X113665Y47307
X107315Y75565
X109855Y75565
X136525Y72390
X125730Y72390
X128270Y72390
X154940Y71438
X152400Y71438
X103505Y66675
X100965Y66675
X18415Y3175
X15875Y3175
X102870Y86678
X102870Y89217
X133350Y81598
X135890Y81598
X64770Y48260
X67310Y48260
X54610Y46355
X57150Y46355
X64770Y53340
X67310Y53340
X149860Y62230
X152400Y62230
X154940Y41275
X152400Y41275
X154940Y62230
X17780Y50800
X20320Y50800
X22860Y50800
X25400Y50800
X27940Y50800
X30480Y50800
X33020Y50800
X35560Y50800
X38100Y50800
X40640Y50800
X40640Y58420
X38100Y58420
X35560Y58420
X33020Y58420
X30480Y58420
X27940Y58420
X25400Y58420
X22860Y58420
X20320Y58420
X17780Y58420
X33020Y44450
X33020Y46990
X45085Y64135
X45085Y61595
T4
X82550Y76200
X22225Y65246
X8255Y56515
X41434Y61119
X32067Y80010
X94932Y75883
X26035Y35401
X120650Y67469
X40005Y56515
X78264Y55880
X4604Y64770
X25400Y63976
X75565Y43212
X12224Y16351
X89535Y49689
X92075Y50482
X6191Y19685
X96361Y22225
X96202Y56674
X96996Y24765
X3651Y27305
X123825Y70644
X120491Y40164
X5874Y27622
X97631Y29845
X19050Y28099
X19050Y79534
X88265Y32067
X4921Y34925
X93504Y33814
X93027Y92234
X8731Y33179
X83661Y75406
X85408Y74771
X81439Y25400
X40640Y41116
X5556Y43180
X73343Y37465
X6509Y59055
X72390Y79058
X98742Y91599
X66040Y47466
X99377Y87471
X79851Y52705
X18098Y39370
X15399Y49054
X72708Y44926
X69850Y60166
X72708Y38576
X73978Y42069
X41751Y41751
X40958Y47625
X35243Y46355
X32385Y39053
X50006Y62389
X37148Y39529
X84773Y82550
X26035Y66358
X70168Y72549
X116522Y15875
X128587Y13970
X66834Y2540
X13811Y17621
X32067Y18415
X100171Y16986
X13811Y19685
X14446Y69374
X32702Y19209
X127159Y14922
X17939Y11589
X126524Y16828
X32067Y27146
X87630Y45402
X87947Y28575
X43974Y29051
X62389Y16669
X14446Y29369
X39846Y23654
X85884Y23495
X32702Y31909
X15081Y31909
X63024Y8096
X71120Y6191
X20955Y9525
X12541Y64611
X27622Y65723
X39529Y5239
X31750Y38259
X60007Y40799
X30797Y40481
X60642Y42069
X22225Y43339
X76041Y9684
X29210Y42228
X63182Y40799
X26987Y46037
X26987Y85884
X62706Y10954
X28892Y54292
X62547Y55880
X29210Y47625
X31432Y83344
X87630Y56197
X31750Y52705
X40799Y62865
X34608Y55880
X61912Y81915
X58420Y61119
X46672Y72549
X36671Y33496
X59055Y48260
X99377Y63659
X61277Y63976
X105410Y60484
X36671Y29051
X9049Y28257
X34608Y27781
X33655Y61119
X6191Y57785
X33655Y64135
X81280Y80645
X18415Y80328
X17304Y63341
X12382Y78423
X138430Y76041
X66993Y45720
X141923Y66358
X125571Y5715
X126178Y6667
X43498Y57150
X118269Y62071
X33655Y54927
X15716Y55245
X15716Y75565
X83503Y63024
X42228Y66358
X93345Y81280
X80010Y63976
X37624Y63024
X94297Y44767
X35878Y45085
X17939Y81756
X23495Y49054
X90170Y51752
X90170Y16986
X16034Y52070
X77788Y61754
X28892Y61754
X30162Y56515
X15716Y56515
X87313Y21907
X65564Y60801
X30162Y21907
X24765Y77470
X26352Y62389
X29527Y23336
X13176Y51435
X20638Y73501
X20003Y66993
X12541Y76518
M30