G04 #@! TF.GenerationSoftware,KiCad,Pcbnew,(6.0.0-0)*
G04 #@! TF.CreationDate,2023-11-11T14:04:57+00:00*
G04 #@! TF.ProjectId,rosco_m68k,726f7363-6f5f-46d3-9638-6b2e6b696361,030-1.00*
G04 #@! TF.SameCoordinates,Original*
G04 #@! TF.FileFunction,Copper,L1,Top*
G04 #@! TF.FilePolarity,Positive*
%FSLAX46Y46*%
G04 Gerber Fmt 4.6, Leading zero omitted, Abs format (unit mm)*
G04 Created by KiCad (PCBNEW (6.0.0-0)) date 2023-11-11 14:04:57*
%MOMM*%
%LPD*%
G01*
G04 APERTURE LIST*
G04 #@! TA.AperFunction,ComponentPad*
%ADD10R,2.400000X1.600000*%
G04 #@! TD*
G04 #@! TA.AperFunction,ComponentPad*
%ADD11O,2.400000X1.600000*%
G04 #@! TD*
G04 #@! TA.AperFunction,ComponentPad*
%ADD12R,1.422400X1.422400*%
G04 #@! TD*
G04 #@! TA.AperFunction,ComponentPad*
%ADD13C,1.422400*%
G04 #@! TD*
G04 #@! TA.AperFunction,ComponentPad*
%ADD14C,6.400000*%
G04 #@! TD*
G04 #@! TA.AperFunction,ComponentPad*
%ADD15O,1.524000X3.048000*%
G04 #@! TD*
G04 #@! TA.AperFunction,ComponentPad*
%ADD16C,1.320800*%
G04 #@! TD*
G04 #@! TA.AperFunction,ComponentPad*
%ADD17C,1.600200*%
G04 #@! TD*
G04 #@! TA.AperFunction,ComponentPad*
%ADD18O,3.048000X1.524000*%
G04 #@! TD*
G04 #@! TA.AperFunction,ComponentPad*
%ADD19C,1.500000*%
G04 #@! TD*
G04 #@! TA.AperFunction,ComponentPad*
%ADD20R,1.600000X1.600000*%
G04 #@! TD*
G04 #@! TA.AperFunction,ComponentPad*
%ADD21C,1.600000*%
G04 #@! TD*
G04 #@! TA.AperFunction,ComponentPad*
%ADD22R,1.700000X1.700000*%
G04 #@! TD*
G04 #@! TA.AperFunction,ComponentPad*
%ADD23O,1.700000X1.700000*%
G04 #@! TD*
G04 #@! TA.AperFunction,ComponentPad*
%ADD24R,1.600000X2.400000*%
G04 #@! TD*
G04 #@! TA.AperFunction,ComponentPad*
%ADD25O,1.600000X2.400000*%
G04 #@! TD*
G04 #@! TA.AperFunction,ComponentPad*
%ADD26R,1.524000X1.524000*%
G04 #@! TD*
G04 #@! TA.AperFunction,ComponentPad*
%ADD27C,1.524000*%
G04 #@! TD*
G04 #@! TA.AperFunction,ComponentPad*
%ADD28O,1.600000X1.600000*%
G04 #@! TD*
G04 #@! TA.AperFunction,ComponentPad*
%ADD29O,1.320800X2.641600*%
G04 #@! TD*
G04 #@! TA.AperFunction,ViaPad*
%ADD30C,0.800000*%
G04 #@! TD*
G04 #@! TA.AperFunction,Conductor*
%ADD31C,0.152000*%
G04 #@! TD*
G04 #@! TA.AperFunction,Conductor*
%ADD32C,0.152400*%
G04 #@! TD*
G04 #@! TA.AperFunction,Conductor*
%ADD33C,0.650000*%
G04 #@! TD*
G04 APERTURE END LIST*
D10*
X209230000Y-78724800D03*
D11*
X209230000Y-81264800D03*
X209230000Y-83804800D03*
X209230000Y-86344800D03*
X216850000Y-86344800D03*
X216850000Y-83804800D03*
X216850000Y-81264800D03*
X216850000Y-78724800D03*
D12*
X199572000Y-120199000D03*
D13*
X202112000Y-117659000D03*
X199572000Y-117659000D03*
X202112000Y-115119000D03*
X199572000Y-115119000D03*
X202112000Y-112579000D03*
X199572000Y-110039000D03*
X199572000Y-112579000D03*
X197032000Y-110039000D03*
X197032000Y-112579000D03*
X194492000Y-110039000D03*
X194492000Y-112579000D03*
X191952000Y-110039000D03*
X191952000Y-112579000D03*
X189412000Y-110039000D03*
X189412000Y-112579000D03*
X186872000Y-110039000D03*
X184332000Y-112579000D03*
X186872000Y-112579000D03*
X184332000Y-115119000D03*
X186872000Y-115119000D03*
X184332000Y-117659000D03*
X186872000Y-117659000D03*
X184332000Y-120199000D03*
X186872000Y-120199000D03*
X184332000Y-122739000D03*
X186872000Y-122739000D03*
X184332000Y-125279000D03*
X186872000Y-127819000D03*
X186872000Y-125279000D03*
X189412000Y-127819000D03*
X189412000Y-125279000D03*
X191952000Y-127819000D03*
X191952000Y-125279000D03*
X194492000Y-127819000D03*
X194492000Y-125279000D03*
X197032000Y-127819000D03*
X197032000Y-125279000D03*
X199572000Y-127819000D03*
X202112000Y-125279000D03*
X199572000Y-125279000D03*
X202112000Y-122739000D03*
X199572000Y-122739000D03*
X202112000Y-120199000D03*
D14*
X71500000Y-151500000D03*
X71500000Y-58700000D03*
X224300000Y-151500000D03*
D15*
X219659400Y-73701200D03*
X219659400Y-67198800D03*
X224180600Y-73701200D03*
X224180600Y-67198800D03*
D14*
X224300000Y-58700000D03*
D16*
X163920000Y-72520000D03*
X153760000Y-72520000D03*
D17*
X180306000Y-138443000D03*
X182846000Y-138443000D03*
X185386000Y-138443000D03*
X163495000Y-94930000D03*
X163495000Y-97470000D03*
X100300000Y-81930000D03*
X100300000Y-84470000D03*
X159800000Y-106019000D03*
X159800000Y-108559000D03*
X223005000Y-142925000D03*
X225545000Y-142925000D03*
X87205000Y-91100000D03*
X89745000Y-91100000D03*
X208946000Y-119329500D03*
X211486000Y-119329500D03*
X168547000Y-58300000D03*
X171087000Y-58300000D03*
X176980000Y-89929000D03*
X179520000Y-89929000D03*
X188606700Y-89929000D03*
X191146700Y-89929000D03*
X208946000Y-128363000D03*
X211486000Y-128363000D03*
X214122000Y-142850000D03*
X217678000Y-142850000D03*
D10*
X186076700Y-58324800D03*
D11*
X186076700Y-60864800D03*
X186076700Y-63404800D03*
X186076700Y-65944800D03*
X186076700Y-68484800D03*
X186076700Y-71024800D03*
X186076700Y-73564800D03*
X186076700Y-76104800D03*
X186076700Y-78644800D03*
X186076700Y-81184800D03*
X186076700Y-83724800D03*
X186076700Y-86264800D03*
X193696700Y-86264800D03*
X193696700Y-83724800D03*
X193696700Y-81184800D03*
X193696700Y-78644800D03*
X193696700Y-76104800D03*
X193696700Y-73564800D03*
X193696700Y-71024800D03*
X193696700Y-68484800D03*
X193696700Y-65944800D03*
X193696700Y-63404800D03*
X193696700Y-60864800D03*
X193696700Y-58324800D03*
D18*
X223300000Y-91159000D03*
X223300000Y-93699000D03*
D16*
X211600000Y-60930000D03*
X209060000Y-60930000D03*
X218200000Y-60840000D03*
X215660000Y-60840000D03*
D19*
X190772000Y-138442000D03*
X195652000Y-138442000D03*
D20*
X141990000Y-79910000D03*
D21*
X149610000Y-79910000D03*
X149610000Y-72290000D03*
X141990000Y-72290000D03*
D10*
X159800000Y-111823600D03*
D11*
X159800000Y-114363600D03*
X159800000Y-116903600D03*
X159800000Y-119443600D03*
X159800000Y-121983600D03*
X159800000Y-124523600D03*
X159800000Y-127063600D03*
X159800000Y-129603600D03*
X159800000Y-132143600D03*
X159800000Y-134683600D03*
X159800000Y-137223600D03*
X159800000Y-139763600D03*
X159800000Y-142303600D03*
X159800000Y-144843600D03*
X159800000Y-147383600D03*
X159800000Y-149923600D03*
X175040000Y-149923600D03*
X175040000Y-147383600D03*
X175040000Y-144843600D03*
X175040000Y-142303600D03*
X175040000Y-139763600D03*
X175040000Y-137223600D03*
X175040000Y-134683600D03*
X175040000Y-132143600D03*
X175040000Y-129603600D03*
X175040000Y-127063600D03*
X175040000Y-124523600D03*
X175040000Y-121983600D03*
X175040000Y-119443600D03*
X175040000Y-116903600D03*
X175040000Y-114363600D03*
X175040000Y-111823600D03*
D10*
X135600000Y-111823600D03*
D11*
X135600000Y-114363600D03*
X135600000Y-116903600D03*
X135600000Y-119443600D03*
X135600000Y-121983600D03*
X135600000Y-124523600D03*
X135600000Y-127063600D03*
X135600000Y-129603600D03*
X135600000Y-132143600D03*
X135600000Y-134683600D03*
X135600000Y-137223600D03*
X135600000Y-139763600D03*
X135600000Y-142303600D03*
X135600000Y-144843600D03*
X135600000Y-147383600D03*
X135600000Y-149923600D03*
X150840000Y-149923600D03*
X150840000Y-147383600D03*
X150840000Y-144843600D03*
X150840000Y-142303600D03*
X150840000Y-139763600D03*
X150840000Y-137223600D03*
X150840000Y-134683600D03*
X150840000Y-132143600D03*
X150840000Y-129603600D03*
X150840000Y-127063600D03*
X150840000Y-124523600D03*
X150840000Y-121983600D03*
X150840000Y-119443600D03*
X150840000Y-116903600D03*
X150840000Y-114363600D03*
X150840000Y-111823600D03*
D10*
X111400000Y-111823600D03*
D11*
X111400000Y-114363600D03*
X111400000Y-116903600D03*
X111400000Y-119443600D03*
X111400000Y-121983600D03*
X111400000Y-124523600D03*
X111400000Y-127063600D03*
X111400000Y-129603600D03*
X111400000Y-132143600D03*
X111400000Y-134683600D03*
X111400000Y-137223600D03*
X111400000Y-139763600D03*
X111400000Y-142303600D03*
X111400000Y-144843600D03*
X111400000Y-147383600D03*
X111400000Y-149923600D03*
X126640000Y-149923600D03*
X126640000Y-147383600D03*
X126640000Y-144843600D03*
X126640000Y-142303600D03*
X126640000Y-139763600D03*
X126640000Y-137223600D03*
X126640000Y-134683600D03*
X126640000Y-132143600D03*
X126640000Y-129603600D03*
X126640000Y-127063600D03*
X126640000Y-124523600D03*
X126640000Y-121983600D03*
X126640000Y-119443600D03*
X126640000Y-116903600D03*
X126640000Y-114363600D03*
X126640000Y-111823600D03*
D22*
X73325000Y-65350000D03*
D23*
X75865000Y-65350000D03*
X73325000Y-67890000D03*
X75865000Y-67890000D03*
X73325000Y-70430000D03*
X75865000Y-70430000D03*
X73325000Y-72970000D03*
X75865000Y-72970000D03*
X73325000Y-75510000D03*
X75865000Y-75510000D03*
X73325000Y-78050000D03*
X75865000Y-78050000D03*
X73325000Y-80590000D03*
X75865000Y-80590000D03*
X73325000Y-83130000D03*
X75865000Y-83130000D03*
X73325000Y-85670000D03*
X75865000Y-85670000D03*
X73325000Y-88210000D03*
X75865000Y-88210000D03*
X73325000Y-90750000D03*
X75865000Y-90750000D03*
X73325000Y-93290000D03*
X75865000Y-93290000D03*
X73325000Y-95830000D03*
X75865000Y-95830000D03*
X73325000Y-98370000D03*
X75865000Y-98370000D03*
X73325000Y-100910000D03*
X75865000Y-100910000D03*
X73325000Y-103450000D03*
X75865000Y-103450000D03*
X73325000Y-105990000D03*
X75865000Y-105990000D03*
X73325000Y-108530000D03*
X75865000Y-108530000D03*
X73325000Y-111070000D03*
X75865000Y-111070000D03*
X73325000Y-113610000D03*
X75865000Y-113610000D03*
X73325000Y-116150000D03*
X75865000Y-116150000D03*
X73325000Y-118690000D03*
X75865000Y-118690000D03*
X73325000Y-121230000D03*
X75865000Y-121230000D03*
X73325000Y-123770000D03*
X75865000Y-123770000D03*
X73325000Y-126310000D03*
X75865000Y-126310000D03*
X73325000Y-128850000D03*
X75865000Y-128850000D03*
X73325000Y-131390000D03*
X75865000Y-131390000D03*
X73325000Y-133930000D03*
X75865000Y-133930000D03*
X73325000Y-136470000D03*
X75865000Y-136470000D03*
X73325000Y-139010000D03*
X75865000Y-139010000D03*
X73325000Y-141550000D03*
X75865000Y-141550000D03*
X73325000Y-144090000D03*
X75865000Y-144090000D03*
D16*
X139980000Y-104324000D03*
X129820000Y-104324000D03*
D10*
X174450000Y-58324800D03*
D11*
X174450000Y-60864800D03*
X174450000Y-63404800D03*
X174450000Y-65944800D03*
X174450000Y-68484800D03*
X174450000Y-71024800D03*
X174450000Y-73564800D03*
X174450000Y-76104800D03*
X174450000Y-78644800D03*
X174450000Y-81184800D03*
X174450000Y-83724800D03*
X174450000Y-86264800D03*
X182070000Y-86264800D03*
X182070000Y-83724800D03*
X182070000Y-81184800D03*
X182070000Y-78644800D03*
X182070000Y-76104800D03*
X182070000Y-73564800D03*
X182070000Y-71024800D03*
X182070000Y-68484800D03*
X182070000Y-65944800D03*
X182070000Y-63404800D03*
X182070000Y-60864800D03*
X182070000Y-58324800D03*
D17*
X178918000Y-129962000D03*
X178918000Y-127422000D03*
X124750000Y-107370000D03*
X124750000Y-104830000D03*
X203510000Y-138443000D03*
X206050000Y-138443000D03*
X200970000Y-138443000D03*
X223999000Y-79525000D03*
X221459000Y-79525000D03*
X196069000Y-104952000D03*
X198609000Y-104952000D03*
D18*
X223300000Y-131310000D03*
X223300000Y-128770000D03*
X223300000Y-126230000D03*
X223300000Y-123690000D03*
X223300000Y-121150000D03*
X223300000Y-118610000D03*
D17*
X208946000Y-110296000D03*
X211486000Y-110296000D03*
X145149000Y-104943000D03*
X147689000Y-104943000D03*
D18*
X216564000Y-112258000D03*
X216564000Y-109718000D03*
X216564000Y-107178000D03*
X216564000Y-104638000D03*
X216564000Y-102098000D03*
X216564000Y-99558000D03*
X223300000Y-112258000D03*
X223300000Y-109718000D03*
X223300000Y-107178000D03*
X223300000Y-104638000D03*
X223300000Y-102098000D03*
X223300000Y-99558000D03*
D15*
X214730000Y-151000000D03*
X217270000Y-151000000D03*
D17*
X201455000Y-104952000D03*
X203995000Y-104952000D03*
X100300000Y-64470000D03*
X100300000Y-61930000D03*
X170550000Y-76203000D03*
X170550000Y-78743000D03*
D18*
X216564000Y-91159000D03*
X216564000Y-93699000D03*
D16*
X209362000Y-89353000D03*
X209362000Y-99513000D03*
X213078000Y-65450000D03*
X213078000Y-75610000D03*
X209230000Y-65450000D03*
X209230000Y-75610000D03*
X86870000Y-62200000D03*
X97030000Y-62200000D03*
X216850000Y-65450000D03*
X216850000Y-75610000D03*
D18*
X91296700Y-83430000D03*
X91296700Y-85970000D03*
D16*
X95001000Y-108593000D03*
X105161000Y-108593000D03*
X193006000Y-146120000D03*
X190466000Y-146120000D03*
X206704000Y-146122000D03*
X204164000Y-146122000D03*
X193006000Y-152746000D03*
X182846000Y-152746000D03*
X206704000Y-152746000D03*
X196544000Y-152746000D03*
D18*
X95700000Y-85970000D03*
X95700000Y-83430000D03*
D10*
X87200000Y-111823600D03*
D11*
X87200000Y-114363600D03*
X87200000Y-116903600D03*
X87200000Y-119443600D03*
X87200000Y-121983600D03*
X87200000Y-124523600D03*
X87200000Y-127063600D03*
X87200000Y-129603600D03*
X87200000Y-132143600D03*
X87200000Y-134683600D03*
X87200000Y-137223600D03*
X87200000Y-139763600D03*
X87200000Y-142303600D03*
X87200000Y-144843600D03*
X87200000Y-147383600D03*
X87200000Y-149923600D03*
X102440000Y-149923600D03*
X102440000Y-147383600D03*
X102440000Y-144843600D03*
X102440000Y-142303600D03*
X102440000Y-139763600D03*
X102440000Y-137223600D03*
X102440000Y-134683600D03*
X102440000Y-132143600D03*
X102440000Y-129603600D03*
X102440000Y-127063600D03*
X102440000Y-124523600D03*
X102440000Y-121983600D03*
X102440000Y-119443600D03*
X102440000Y-116903600D03*
X102440000Y-114363600D03*
X102440000Y-111823600D03*
D17*
X221459000Y-86101000D03*
X223999000Y-86101000D03*
X182846000Y-146143000D03*
X185386000Y-146143000D03*
X202959000Y-89929000D03*
X200419000Y-89929000D03*
D10*
X197703300Y-58324800D03*
D11*
X197703300Y-60864800D03*
X197703300Y-63404800D03*
X197703300Y-65944800D03*
X197703300Y-68484800D03*
X197703300Y-71024800D03*
X197703300Y-73564800D03*
X197703300Y-76104800D03*
X197703300Y-78644800D03*
X197703300Y-81184800D03*
X197703300Y-83724800D03*
X197703300Y-86264800D03*
X205323300Y-86264800D03*
X205323300Y-83724800D03*
X205323300Y-81184800D03*
X205323300Y-78644800D03*
X205323300Y-76104800D03*
X205323300Y-73564800D03*
X205323300Y-71024800D03*
X205323300Y-68484800D03*
X205323300Y-65944800D03*
X205323300Y-63404800D03*
X205323300Y-60864800D03*
X205323300Y-58324800D03*
D16*
X197703300Y-89303000D03*
X197703300Y-99463000D03*
D17*
X170550000Y-67810000D03*
X170550000Y-70350000D03*
X170543000Y-62680000D03*
X170543000Y-65220000D03*
D24*
X86787000Y-105081000D03*
D25*
X89327000Y-105081000D03*
X91867000Y-105081000D03*
X94407000Y-105081000D03*
X96947000Y-105081000D03*
X99487000Y-105081000D03*
X102027000Y-105081000D03*
X104567000Y-105081000D03*
X107107000Y-105081000D03*
X109647000Y-105081000D03*
X112187000Y-105081000D03*
X114727000Y-105081000D03*
X114727000Y-97461000D03*
X112187000Y-97461000D03*
X109647000Y-97461000D03*
X107107000Y-97461000D03*
X104567000Y-97461000D03*
X102027000Y-97461000D03*
X99487000Y-97461000D03*
X96947000Y-97461000D03*
X94407000Y-97461000D03*
X91867000Y-97461000D03*
X89327000Y-97461000D03*
X86787000Y-97461000D03*
D22*
X106971000Y-119607000D03*
D23*
X106971000Y-117067000D03*
X106971000Y-114527000D03*
X106971000Y-111987000D03*
D17*
X180750000Y-151263000D03*
X178210000Y-151263000D03*
X154030000Y-151263000D03*
X156570000Y-151263000D03*
X129852000Y-151263000D03*
X132392000Y-151263000D03*
X105701000Y-123400000D03*
X108241000Y-123400000D03*
D16*
X193696700Y-89303000D03*
X193696700Y-99463000D03*
D22*
X216564000Y-131310000D03*
D24*
X142225000Y-100025000D03*
D25*
X144765000Y-100025000D03*
X147305000Y-100025000D03*
X149845000Y-100025000D03*
X152385000Y-100025000D03*
X154925000Y-100025000D03*
X157465000Y-100025000D03*
X160005000Y-100025000D03*
X160005000Y-92405000D03*
X157465000Y-92405000D03*
X154925000Y-92405000D03*
X152385000Y-92405000D03*
X149845000Y-92405000D03*
X147305000Y-92405000D03*
X144765000Y-92405000D03*
X142225000Y-92405000D03*
D16*
X139700000Y-93880000D03*
X139700000Y-83720000D03*
X188080000Y-105500000D03*
X177920000Y-105500000D03*
D17*
X197840000Y-146143000D03*
X200380000Y-146143000D03*
D18*
X82490000Y-83430000D03*
X82490000Y-85970000D03*
D22*
X78405000Y-65350000D03*
D23*
X78405000Y-67890000D03*
X78405000Y-70430000D03*
X78405000Y-72970000D03*
D26*
X104930000Y-62420000D03*
D27*
X107470000Y-62420000D03*
X110010000Y-62420000D03*
X112550000Y-62420000D03*
X115090000Y-62420000D03*
X117630000Y-62420000D03*
X120170000Y-62420000D03*
X122710000Y-62420000D03*
X125250000Y-62420000D03*
X127790000Y-62420000D03*
X130330000Y-62420000D03*
X132870000Y-62420000D03*
X135410000Y-62420000D03*
X104930000Y-64960000D03*
X107470000Y-64960000D03*
X110010000Y-64960000D03*
X112550000Y-64960000D03*
X115090000Y-64960000D03*
X117630000Y-64960000D03*
X120170000Y-64960000D03*
X122710000Y-64960000D03*
X125250000Y-64960000D03*
X127790000Y-64960000D03*
X130330000Y-64960000D03*
X132870000Y-64960000D03*
X135410000Y-64960000D03*
X104930000Y-67500000D03*
X107470000Y-67500000D03*
X110010000Y-67500000D03*
X112550000Y-67500000D03*
X115090000Y-67500000D03*
X117630000Y-67500000D03*
X120170000Y-67500000D03*
X122710000Y-67500000D03*
X125250000Y-67500000D03*
X127790000Y-67500000D03*
X130330000Y-67500000D03*
X132870000Y-67500000D03*
X135410000Y-67500000D03*
X104930000Y-70040000D03*
X107470000Y-70040000D03*
X110010000Y-70040000D03*
X112550000Y-70040000D03*
X115090000Y-70040000D03*
X127790000Y-70040000D03*
X130330000Y-70040000D03*
X132870000Y-70040000D03*
X135410000Y-70040000D03*
X104930000Y-72580000D03*
X107470000Y-72580000D03*
X110010000Y-72580000D03*
X130330000Y-72580000D03*
X132870000Y-72580000D03*
X135410000Y-72580000D03*
X104930000Y-75120000D03*
X107470000Y-75120000D03*
X110010000Y-75120000D03*
X112550000Y-75120000D03*
X127790000Y-75120000D03*
X130330000Y-75120000D03*
X132870000Y-75120000D03*
X135410000Y-75120000D03*
X104930000Y-77660000D03*
X107470000Y-77660000D03*
X110010000Y-77660000D03*
X130330000Y-77660000D03*
X132870000Y-77660000D03*
X135410000Y-77660000D03*
X104930000Y-80200000D03*
X107470000Y-80200000D03*
X110010000Y-80200000D03*
X130330000Y-80200000D03*
X132870000Y-80200000D03*
X135410000Y-80200000D03*
X104930000Y-82740000D03*
X107470000Y-82740000D03*
X110010000Y-82740000D03*
X130330000Y-82740000D03*
X132870000Y-82740000D03*
X135410000Y-82740000D03*
X104930000Y-85280000D03*
X107470000Y-85280000D03*
X110010000Y-85280000D03*
X112550000Y-85280000D03*
X115090000Y-85280000D03*
X127790000Y-85280000D03*
X130330000Y-85280000D03*
X132870000Y-85280000D03*
X135410000Y-85280000D03*
X104930000Y-87820000D03*
X107470000Y-87820000D03*
X110010000Y-87820000D03*
X112550000Y-87820000D03*
X115090000Y-87820000D03*
X117630000Y-87820000D03*
X120170000Y-87820000D03*
X122710000Y-87820000D03*
X125250000Y-87820000D03*
X127790000Y-87820000D03*
X130330000Y-87820000D03*
X132870000Y-87820000D03*
X135410000Y-87820000D03*
X104930000Y-90360000D03*
X107470000Y-90360000D03*
X110010000Y-90360000D03*
X112550000Y-90360000D03*
X115090000Y-90360000D03*
X117630000Y-90360000D03*
X120170000Y-90360000D03*
X122710000Y-90360000D03*
X125250000Y-90360000D03*
X127790000Y-90360000D03*
X130330000Y-90360000D03*
X132870000Y-90360000D03*
X135410000Y-90360000D03*
X104930000Y-92900000D03*
X107470000Y-92900000D03*
X110010000Y-92900000D03*
X112550000Y-92900000D03*
X115090000Y-92900000D03*
X117630000Y-92900000D03*
X120170000Y-92900000D03*
X122710000Y-92900000D03*
X125250000Y-92900000D03*
X127790000Y-92900000D03*
X130330000Y-92900000D03*
X132870000Y-92900000D03*
X135410000Y-92900000D03*
D17*
X134366000Y-58166000D03*
X136906000Y-58166000D03*
D20*
X110729000Y-58166000D03*
D28*
X113269000Y-58166000D03*
X115809000Y-58166000D03*
X118349000Y-58166000D03*
X120889000Y-58166000D03*
X123429000Y-58166000D03*
X125969000Y-58166000D03*
X128509000Y-58166000D03*
X131049000Y-58166000D03*
D17*
X134130000Y-98300000D03*
X136670000Y-98300000D03*
D20*
X146225000Y-88300000D03*
D28*
X148765000Y-88300000D03*
X151305000Y-88300000D03*
X153845000Y-88300000D03*
X156385000Y-88300000D03*
X158925000Y-88300000D03*
X161465000Y-88300000D03*
X164005000Y-88300000D03*
X166545000Y-88300000D03*
D17*
X127830000Y-98300000D03*
X130370000Y-98300000D03*
D20*
X146225000Y-84900000D03*
D28*
X148765000Y-84900000D03*
X151305000Y-84900000D03*
X153845000Y-84900000D03*
X156385000Y-84900000D03*
X158925000Y-84900000D03*
X161465000Y-84900000D03*
X164005000Y-84900000D03*
X166545000Y-84900000D03*
D29*
X142470000Y-67510000D03*
X145010000Y-67510000D03*
X147550000Y-67510000D03*
X150090000Y-67510000D03*
X152630000Y-67510000D03*
X155170000Y-67510000D03*
X157710000Y-67510000D03*
X160250000Y-67510000D03*
X162790000Y-67510000D03*
X165330000Y-67510000D03*
X165330000Y-59890000D03*
X162790000Y-59890000D03*
X160250000Y-59890000D03*
X157710000Y-59890000D03*
X155170000Y-59890000D03*
X152630000Y-59890000D03*
X150090000Y-59890000D03*
X147550000Y-59890000D03*
X145010000Y-59890000D03*
X142470000Y-59890000D03*
D20*
X79490000Y-77460000D03*
D28*
X82030000Y-77460000D03*
X84570000Y-77460000D03*
X87110000Y-77460000D03*
X89650000Y-77460000D03*
X92190000Y-77460000D03*
X94730000Y-77460000D03*
X97270000Y-77460000D03*
X99810000Y-77460000D03*
D18*
X86893300Y-83430000D03*
X86893300Y-85970000D03*
D17*
X121530000Y-98300000D03*
X124070000Y-98300000D03*
D30*
X196443600Y-134061200D03*
X139108400Y-87684700D03*
X139108400Y-90640400D03*
X160421500Y-90252600D03*
X160531700Y-102839600D03*
X117052100Y-103305900D03*
X153596100Y-96019100D03*
X117604500Y-97053900D03*
X138845400Y-85043600D03*
X139864700Y-92150500D03*
X160795800Y-95988800D03*
X113632700Y-98949500D03*
X111609900Y-93832100D03*
X157813600Y-89969800D03*
X141218300Y-94117300D03*
X140779200Y-90986900D03*
X113565700Y-82170700D03*
X120216700Y-81638700D03*
X120254300Y-76257700D03*
X165056300Y-79129800D03*
X108802900Y-74117300D03*
X113876100Y-75035500D03*
X113876100Y-77073600D03*
X139771400Y-59080600D03*
X91472500Y-59357200D03*
X91472500Y-66182600D03*
X94804800Y-68590400D03*
X136954400Y-77574200D03*
X118552400Y-81531300D03*
X121547200Y-74704800D03*
X112262800Y-80180900D03*
X138095300Y-78930000D03*
X138950700Y-79900400D03*
X109819100Y-101933500D03*
X85140400Y-87866400D03*
X206267000Y-110696800D03*
X207480200Y-64804500D03*
X214122000Y-114122200D03*
X172836200Y-85450300D03*
X155064100Y-134678600D03*
X138989000Y-134676600D03*
X129423800Y-134782300D03*
X128251000Y-146347800D03*
X140996100Y-88227100D03*
X146667900Y-146793400D03*
X133072200Y-146927000D03*
X183330900Y-118471200D03*
X133771200Y-123767900D03*
X139371900Y-122807400D03*
X137853700Y-85983300D03*
X141814500Y-104012700D03*
X134908800Y-107793300D03*
X153251000Y-120726300D03*
X179155500Y-121730500D03*
X182833800Y-126361200D03*
X158370500Y-133687900D03*
X131470100Y-78984900D03*
X93065400Y-80199300D03*
X92305800Y-116951600D03*
X113189900Y-115637700D03*
X124945800Y-84929200D03*
X118341700Y-89183700D03*
X190537700Y-87305600D03*
X190537700Y-82490200D03*
X105402900Y-112497000D03*
X94066000Y-114544100D03*
X96453300Y-101130800D03*
X115265400Y-100904300D03*
X93014500Y-106253100D03*
X93014500Y-121600700D03*
X126768000Y-105105800D03*
X129122100Y-137925600D03*
X129023600Y-140291500D03*
X123890800Y-113975400D03*
X129002800Y-123940300D03*
X116153200Y-123964100D03*
X104934000Y-116071000D03*
X129556000Y-120008700D03*
X132074000Y-137424400D03*
X129495600Y-149453300D03*
X98777000Y-123890500D03*
X129388400Y-89420800D03*
X123861200Y-89399200D03*
X123081800Y-108097300D03*
X156922700Y-112205800D03*
X138329700Y-140570200D03*
X155423000Y-122217200D03*
X132873500Y-138971500D03*
X137273800Y-141211700D03*
X132604700Y-142303500D03*
X152630000Y-139097500D03*
X185185100Y-127455500D03*
X129960100Y-145924700D03*
X131894500Y-114823300D03*
X179136300Y-109896900D03*
X193396200Y-115905800D03*
X179959400Y-125754300D03*
X187824500Y-121037000D03*
X191716100Y-114782200D03*
X203894400Y-84998400D03*
X129662100Y-56131700D03*
X195742400Y-59257000D03*
X176468900Y-109592700D03*
X152535600Y-117535800D03*
X133235700Y-119426500D03*
X198689600Y-93054500D03*
X133712900Y-115277800D03*
X105453400Y-102665300D03*
X156488700Y-68752700D03*
X83458500Y-122733400D03*
X196547300Y-84994800D03*
X176876100Y-113399600D03*
X85403700Y-99702400D03*
X169600400Y-94921200D03*
X191454700Y-86455600D03*
X139136400Y-62600300D03*
X164403900Y-64350100D03*
X82829600Y-124535700D03*
X184160500Y-74712100D03*
X86683900Y-100032100D03*
X172207300Y-65794300D03*
X166600000Y-67941200D03*
X164247600Y-77786400D03*
X127638400Y-71982500D03*
X81387100Y-64762500D03*
X98458100Y-100032100D03*
X95802400Y-95954600D03*
X131771100Y-60470600D03*
X166257800Y-62478700D03*
X138169900Y-62418200D03*
X163679300Y-62955000D03*
X85464400Y-90740000D03*
X132272100Y-55826800D03*
X76418100Y-59704300D03*
X77371000Y-59749900D03*
X173648300Y-102414500D03*
X112187000Y-102959800D03*
X149086300Y-104855900D03*
X80977100Y-73843900D03*
X113574900Y-100620600D03*
X171825700Y-99910200D03*
X138989500Y-99429200D03*
X110716300Y-107789700D03*
X125211100Y-110569200D03*
X184257600Y-69721500D03*
X179695100Y-61173000D03*
X105826500Y-59633600D03*
X90984900Y-67064300D03*
X92101400Y-58363900D03*
X179213900Y-60221600D03*
X107402900Y-61084600D03*
X74487700Y-63331800D03*
X159247000Y-95992100D03*
X161695100Y-103320300D03*
X203634700Y-64844300D03*
X156225600Y-98160200D03*
X143740000Y-59229600D03*
X76680800Y-74339300D03*
X82030000Y-63632100D03*
X93200500Y-66465000D03*
X83973800Y-95628000D03*
X105700300Y-89254800D03*
X92083400Y-88112700D03*
X196444700Y-132956200D03*
X140298100Y-85417800D03*
D31*
X91296700Y-85970000D02*
X91296700Y-86960900D01*
X91296700Y-86960900D02*
X91821000Y-86960900D01*
X91821000Y-86960900D02*
X100757000Y-95896900D01*
X100757000Y-105723400D02*
X103626600Y-108593000D01*
X100757000Y-95896900D02*
X100757000Y-105723400D01*
X103626600Y-108593000D02*
X105161000Y-108593000D01*
D32*
X102440000Y-113711290D02*
X105161000Y-110990290D01*
X105161000Y-110990290D02*
X105161000Y-108593000D01*
D31*
X108049900Y-111431100D02*
X107526900Y-111431100D01*
X107526900Y-111431100D02*
X106971000Y-111987000D01*
X105402900Y-112497000D02*
X105620200Y-112714300D01*
X105620200Y-112714300D02*
X105620200Y-118256200D01*
X105620200Y-118256200D02*
X106971000Y-119607000D01*
X122710000Y-64960000D02*
X123712900Y-63957100D01*
X123712900Y-63957100D02*
X125668900Y-63957100D01*
X126252500Y-64540700D02*
X126252500Y-68644700D01*
X125668900Y-63957100D02*
X126252500Y-64540700D01*
X112007400Y-118173600D02*
X108404400Y-118173600D01*
X121707900Y-86612500D02*
X121707900Y-96728500D01*
X126252500Y-68644700D02*
X125947700Y-68949500D01*
X108404400Y-118173600D02*
X106971000Y-119607000D01*
X122575600Y-107605400D02*
X112007400Y-118173600D01*
X125947700Y-82372700D02*
X121707900Y-86612500D01*
X121707900Y-96728500D02*
X122575600Y-97596200D01*
X122575600Y-97596200D02*
X122575600Y-107605400D01*
X125947700Y-68949500D02*
X125947700Y-82372700D01*
X107082800Y-115988100D02*
X107082800Y-116955200D01*
X107082800Y-113448100D02*
X107082800Y-114415200D01*
X107082800Y-113448100D02*
X109376600Y-111154300D01*
D33*
X211600000Y-60930000D02*
X211600000Y-63080000D01*
X211600000Y-63080000D02*
X209230000Y-65450000D01*
X218200000Y-60840000D02*
X218200000Y-64100000D01*
X218200000Y-64100000D02*
X216850000Y-65450000D01*
X221459000Y-79525000D02*
X221459000Y-81735800D01*
X221459000Y-81735800D02*
X216850000Y-86344800D01*
X219659400Y-73701200D02*
X219659400Y-80995400D01*
X219659400Y-80995400D02*
X216850000Y-83804800D01*
D31*
X195762100Y-119717400D02*
X195762100Y-133379700D01*
X195762100Y-133379700D02*
X196443600Y-134061200D01*
X197032000Y-112579000D02*
X196091900Y-113519100D01*
X196091900Y-132603400D02*
X196444700Y-132956200D01*
X196091900Y-113519100D02*
X196091900Y-132603400D01*
X189412000Y-110039000D02*
X190682100Y-111309100D01*
X190682100Y-114637400D02*
X195762100Y-119717400D01*
X190682100Y-111309100D02*
X190682100Y-114637400D01*
D33*
X190772000Y-138442000D02*
X193138711Y-136075289D01*
X193138711Y-136075289D02*
X193138711Y-126632289D01*
X193138711Y-126632289D02*
X194492000Y-125279000D01*
X197032000Y-127819000D02*
X197743200Y-128530200D01*
X197743200Y-136350800D02*
X195652000Y-138442000D01*
X197743200Y-128530200D02*
X197743200Y-136350800D01*
D31*
X216564000Y-99558000D02*
X214122000Y-102000000D01*
X214122000Y-102000000D02*
X214122000Y-114122200D01*
D33*
X216564000Y-107178000D02*
X218704000Y-107178000D01*
X218413000Y-91159000D02*
X216564000Y-91159000D01*
X218704000Y-107178000D02*
X219456000Y-106426000D01*
X219456000Y-92202000D02*
X218413000Y-91159000D01*
X219456000Y-106426000D02*
X219456000Y-92202000D01*
X223300000Y-91159000D02*
X225525000Y-91159000D01*
X225525000Y-91159000D02*
X226314000Y-91948000D01*
X226314000Y-91948000D02*
X226314000Y-106172000D01*
X226314000Y-106172000D02*
X225308000Y-107178000D01*
X225308000Y-107178000D02*
X223300000Y-107178000D01*
D31*
X139108400Y-87684700D02*
X139108400Y-90640400D01*
X161085200Y-102286100D02*
X160531700Y-102839600D01*
X161085200Y-98954000D02*
X161085200Y-102286100D01*
X160121400Y-97990200D02*
X161085200Y-98954000D01*
X160121400Y-94188100D02*
X160121400Y-97990200D01*
X161085300Y-93224200D02*
X160121400Y-94188100D01*
X161085300Y-90916400D02*
X161085300Y-93224200D01*
X160421500Y-90252600D02*
X161085300Y-90916400D01*
X120170000Y-97458200D02*
X120170000Y-92900000D01*
X117916900Y-99711300D02*
X120170000Y-97458200D01*
X117916900Y-102441100D02*
X117916900Y-99711300D01*
X117052100Y-103305900D02*
X117916900Y-102441100D01*
X153413900Y-95836900D02*
X153596100Y-96019100D01*
X153413900Y-91578800D02*
X153413900Y-95836900D01*
X152333900Y-90498800D02*
X153413900Y-91578800D01*
X152333900Y-86957800D02*
X152333900Y-90498800D01*
X151305000Y-85928900D02*
X152333900Y-86957800D01*
X117630000Y-97028400D02*
X117630000Y-92900000D01*
X117604500Y-97053900D02*
X117630000Y-97028400D01*
X151305000Y-84900000D02*
X151305000Y-85928900D01*
X139864700Y-86062900D02*
X139864700Y-92150500D01*
X138845400Y-85043600D02*
X139864700Y-86062900D01*
X113632700Y-95854900D02*
X111609900Y-93832100D01*
X113632700Y-98949500D02*
X113632700Y-95854900D01*
X161465000Y-88300000D02*
X161465000Y-89328900D01*
X161390200Y-89403700D02*
X161465000Y-89328900D01*
X161390200Y-95394400D02*
X161390200Y-89403700D01*
X160795800Y-95988800D02*
X161390200Y-95394400D01*
X140779200Y-93678200D02*
X141218300Y-94117300D01*
X140779200Y-90986900D02*
X140779200Y-93678200D01*
X157813600Y-87040300D02*
X157813600Y-89969800D01*
X158925000Y-85928900D02*
X157813600Y-87040300D01*
X158925000Y-84900000D02*
X158925000Y-85928900D01*
X164005000Y-88300000D02*
X164005000Y-87271100D01*
X120216700Y-76295300D02*
X120254300Y-76257700D01*
X120216700Y-81638700D02*
X120216700Y-76295300D01*
X165056300Y-86219800D02*
X165056300Y-79129800D01*
X164005000Y-87271100D02*
X165056300Y-86219800D01*
X113565700Y-86804300D02*
X113565700Y-82170700D01*
X112550000Y-87820000D02*
X113565700Y-86804300D01*
X118349000Y-58166000D02*
X118349000Y-59194900D01*
X116360100Y-61183800D02*
X118349000Y-59194900D01*
X116360100Y-62570400D02*
X116360100Y-61183800D01*
X115240500Y-63690000D02*
X116360100Y-62570400D01*
X114955500Y-63690000D02*
X115240500Y-63690000D01*
X114060300Y-64585200D02*
X114955500Y-63690000D01*
X114060300Y-70411800D02*
X114060300Y-64585200D01*
X111305800Y-73166300D02*
X114060300Y-70411800D01*
X111305800Y-75225600D02*
X111305800Y-73166300D01*
X110420500Y-76110900D02*
X111305800Y-75225600D01*
X110112600Y-76110900D02*
X110420500Y-76110900D01*
X108987700Y-77235800D02*
X110112600Y-76110900D01*
X108987700Y-80102800D02*
X108987700Y-77235800D01*
X107620500Y-81470000D02*
X108987700Y-80102800D01*
X107337500Y-81470000D02*
X107620500Y-81470000D01*
X106054200Y-82753300D02*
X107337500Y-81470000D01*
X106054200Y-86695800D02*
X106054200Y-82753300D01*
X104930000Y-87820000D02*
X106054200Y-86695800D01*
X115809000Y-58166000D02*
X115809000Y-59194900D01*
X106350000Y-81320000D02*
X104930000Y-82740000D01*
X106350000Y-79891600D02*
X106350000Y-81320000D01*
X107555500Y-78686100D02*
X106350000Y-79891600D01*
X107851900Y-78686100D02*
X107555500Y-78686100D01*
X108463000Y-78075000D02*
X107851900Y-78686100D01*
X108463000Y-74666600D02*
X108463000Y-78075000D01*
X108174000Y-74377600D02*
X108463000Y-74666600D01*
X108174000Y-73857000D02*
X108174000Y-74377600D01*
X108542600Y-73488400D02*
X108174000Y-73857000D01*
X108542600Y-72637400D02*
X108542600Y-73488400D01*
X109870000Y-71310000D02*
X108542600Y-72637400D01*
X110152300Y-71310000D02*
X109870000Y-71310000D01*
X111280100Y-70182200D02*
X110152300Y-71310000D01*
X111280100Y-64809500D02*
X111280100Y-70182200D01*
X112399600Y-63690000D02*
X111280100Y-64809500D01*
X112700400Y-63690000D02*
X112399600Y-63690000D01*
X113572400Y-62818000D02*
X112700400Y-63690000D01*
X113572400Y-61431500D02*
X113572400Y-62818000D01*
X115809000Y-59194900D02*
X113572400Y-61431500D01*
X109923600Y-74117300D02*
X108802900Y-74117300D01*
X113648400Y-70392500D02*
X109923600Y-74117300D01*
X113648400Y-63856600D02*
X113648400Y-70392500D01*
X114095600Y-63409400D02*
X113648400Y-63856600D01*
X114095600Y-61524500D02*
X114095600Y-63409400D01*
X117079000Y-58541100D02*
X114095600Y-61524500D01*
X117079000Y-57945900D02*
X117079000Y-58541100D01*
X117910100Y-57114800D02*
X117079000Y-57945900D01*
X118808900Y-57114800D02*
X117910100Y-57114800D01*
X119860100Y-58166000D02*
X118808900Y-57114800D01*
X113876100Y-75035500D02*
X113876100Y-77073600D01*
X120889000Y-58166000D02*
X119860100Y-58166000D01*
X139771400Y-70758600D02*
X135410000Y-75120000D01*
X139771400Y-59080600D02*
X139771400Y-70758600D01*
X91472500Y-59357200D02*
X91472500Y-66182600D01*
X94465100Y-68590400D02*
X94804800Y-68590400D01*
X86081100Y-76974400D02*
X94465100Y-68590400D01*
X86081100Y-78203200D02*
X86081100Y-76974400D01*
X82490000Y-81794300D02*
X86081100Y-78203200D01*
X82490000Y-83430000D02*
X82490000Y-81794300D01*
X145010000Y-67510000D02*
X145010000Y-69059700D01*
X136954400Y-74925500D02*
X136954400Y-77574200D01*
X142820200Y-69059700D02*
X136954400Y-74925500D01*
X145010000Y-69059700D02*
X142820200Y-69059700D01*
X99810000Y-77460000D02*
X99810000Y-78488900D01*
X103546600Y-88976600D02*
X104930000Y-90360000D01*
X103546600Y-82225500D02*
X103546600Y-88976600D01*
X99810000Y-78488900D02*
X103546600Y-82225500D01*
X123429000Y-58166000D02*
X123429000Y-59194900D01*
X118850300Y-81233400D02*
X118552400Y-81531300D01*
X118850300Y-64869300D02*
X118850300Y-81233400D01*
X119793100Y-63926500D02*
X118850300Y-64869300D01*
X120093000Y-63926500D02*
X119793100Y-63926500D01*
X121521600Y-62497900D02*
X120093000Y-63926500D01*
X121521600Y-61102300D02*
X121521600Y-62497900D01*
X123429000Y-59194900D02*
X121521600Y-61102300D01*
X128509000Y-58166000D02*
X127480100Y-58166000D01*
X121547200Y-64679500D02*
X121547200Y-74704800D01*
X122536700Y-63690000D02*
X121547200Y-64679500D01*
X122853700Y-63690000D02*
X122536700Y-63690000D01*
X123831500Y-62712200D02*
X122853700Y-63690000D01*
X123831500Y-61814600D02*
X123831500Y-62712200D01*
X127480100Y-58166000D02*
X123831500Y-61814600D01*
X150090000Y-67510000D02*
X150090000Y-69059700D01*
X112262800Y-83027200D02*
X110010000Y-85280000D01*
X112262800Y-80180900D02*
X112262800Y-83027200D01*
X149017200Y-70132500D02*
X150090000Y-69059700D01*
X142622800Y-70132500D02*
X149017200Y-70132500D01*
X138095300Y-74660000D02*
X142622800Y-70132500D01*
X138095300Y-78930000D02*
X138095300Y-74660000D01*
X147550000Y-67510000D02*
X147550000Y-69059700D01*
X138747200Y-79696900D02*
X138950700Y-79900400D01*
X137944800Y-79696900D02*
X138747200Y-79696900D01*
X137416700Y-79168800D02*
X137944800Y-79696900D01*
X137416700Y-78576800D02*
X137416700Y-79168800D01*
X137766400Y-78227100D02*
X137416700Y-78576800D01*
X137766400Y-74544700D02*
X137766400Y-78227100D01*
X142483500Y-69827600D02*
X137766400Y-74544700D01*
X146782100Y-69827600D02*
X142483500Y-69827600D01*
X147550000Y-69059700D02*
X146782100Y-69827600D01*
X75865000Y-95830000D02*
X75865000Y-94751100D01*
X84693100Y-83445800D02*
X89650000Y-78488900D01*
X84693100Y-86000800D02*
X84693100Y-83445800D01*
X75942800Y-94751100D02*
X84693100Y-86000800D01*
X75865000Y-94751100D02*
X75942800Y-94751100D01*
X89650000Y-77974400D02*
X89650000Y-78488900D01*
X108135900Y-100250300D02*
X109819100Y-101933500D01*
X108135900Y-96556500D02*
X108135900Y-100250300D01*
X105470300Y-93890900D02*
X108135900Y-96556500D01*
X104491500Y-93890900D02*
X105470300Y-93890900D01*
X97590200Y-86989600D02*
X104491500Y-93890900D01*
X97590200Y-83156900D02*
X97590200Y-86989600D01*
X95894500Y-81461200D02*
X97590200Y-83156900D01*
X95894500Y-77095500D02*
X95894500Y-81461200D01*
X95223300Y-76424300D02*
X95894500Y-77095500D01*
X91200100Y-76424300D02*
X95223300Y-76424300D01*
X89650000Y-77974400D02*
X91200100Y-76424300D01*
X94730000Y-77460000D02*
X94730000Y-78488900D01*
X75865000Y-100910000D02*
X75865000Y-99831100D01*
X75993900Y-99831100D02*
X75865000Y-99831100D01*
X83465400Y-92359600D02*
X75993900Y-99831100D01*
X83465400Y-91845700D02*
X83465400Y-92359600D01*
X88682800Y-86628300D02*
X83465400Y-91845700D01*
X88682800Y-85515800D02*
X88682800Y-86628300D01*
X88951100Y-85247500D02*
X88682800Y-85515800D01*
X88951100Y-83424300D02*
X88951100Y-85247500D01*
X93886500Y-78488900D02*
X88951100Y-83424300D01*
X94730000Y-78488900D02*
X93886500Y-78488900D01*
X92190000Y-77460000D02*
X92190000Y-78488900D01*
X75865000Y-98370000D02*
X75865000Y-97291100D01*
X85140400Y-88127500D02*
X85140400Y-87866400D01*
X75976800Y-97291100D02*
X85140400Y-88127500D01*
X75865000Y-97291100D02*
X75976800Y-97291100D01*
X88646200Y-82032700D02*
X92190000Y-78488900D01*
X88646200Y-83840400D02*
X88646200Y-82032700D01*
X87786600Y-84700000D02*
X88646200Y-83840400D01*
X85941600Y-84700000D02*
X87786600Y-84700000D01*
X85140400Y-85501200D02*
X85941600Y-84700000D01*
X85140400Y-87866400D02*
X85140400Y-85501200D01*
X178127500Y-114212600D02*
X178127500Y-105707500D01*
X184113900Y-120199000D02*
X178127500Y-114212600D01*
X216564000Y-120993800D02*
X206267000Y-110696800D01*
X216564000Y-131310000D02*
X216564000Y-120993800D01*
X99938500Y-131071000D02*
X101011100Y-132143600D01*
X99938500Y-110771900D02*
X99938500Y-131071000D01*
X95784300Y-106617700D02*
X99938500Y-110771900D01*
X95784300Y-104543400D02*
X95784300Y-106617700D01*
X90130800Y-98889900D02*
X95784300Y-104543400D01*
X89327000Y-98889900D02*
X90130800Y-98889900D01*
X89327000Y-97461000D02*
X89327000Y-98889900D01*
X102440000Y-132143600D02*
X101011100Y-132143600D01*
X209230000Y-83804800D02*
X207801100Y-83804800D01*
X207801100Y-65125400D02*
X207480200Y-64804500D01*
X207801100Y-83804800D02*
X207801100Y-65125400D01*
X193696700Y-60864800D02*
X195125600Y-60864800D01*
X195125600Y-62684800D02*
X195125600Y-60864800D01*
X197115600Y-64674800D02*
X195125600Y-62684800D01*
X198296300Y-64674800D02*
X197115600Y-64674800D01*
X199467600Y-65846100D02*
X198296300Y-64674800D01*
X199467600Y-87437100D02*
X199467600Y-65846100D01*
X199386800Y-87517900D02*
X199467600Y-87437100D01*
X199386800Y-104274500D02*
X199386800Y-87517900D01*
X200413900Y-105301600D02*
X199386800Y-104274500D01*
X200413900Y-107306900D02*
X200413900Y-105301600D01*
X200524700Y-107417700D02*
X200413900Y-107306900D01*
X200524700Y-124326300D02*
X200524700Y-107417700D01*
X199572000Y-125279000D02*
X200524700Y-124326300D01*
X188459600Y-113531400D02*
X189412000Y-112579000D01*
X188459600Y-144113600D02*
X188459600Y-113531400D01*
X190466000Y-146120000D02*
X188459600Y-144113600D01*
X205323300Y-68484800D02*
X206752200Y-68484800D01*
X206752200Y-105298200D02*
X206752200Y-68484800D01*
X200843500Y-111206900D02*
X206752200Y-105298200D01*
X200843500Y-126547500D02*
X200843500Y-111206900D01*
X199572000Y-127819000D02*
X200843500Y-126547500D01*
X95947700Y-86960900D02*
X95700000Y-86960900D01*
X105837000Y-96850200D02*
X95947700Y-86960900D01*
X105837000Y-99842100D02*
X105837000Y-96850200D01*
X109647000Y-103652100D02*
X105837000Y-99842100D01*
X109647000Y-105081000D02*
X109647000Y-103652100D01*
X95700000Y-85970000D02*
X95700000Y-86960900D01*
X173021100Y-85265400D02*
X173021100Y-63404800D01*
X172836200Y-85450300D02*
X173021100Y-85265400D01*
X174450000Y-63404800D02*
X173021100Y-63404800D01*
X150389200Y-147383600D02*
X149411100Y-147383600D01*
X155064100Y-142708700D02*
X155064100Y-134678600D01*
X150389200Y-147383600D02*
X155064100Y-142708700D01*
X77279000Y-138674900D02*
X76943900Y-139010000D01*
X92302400Y-138674900D02*
X77279000Y-138674900D01*
X101011100Y-147383600D02*
X92302400Y-138674900D01*
X102440000Y-147383600D02*
X101011100Y-147383600D01*
X75865000Y-139010000D02*
X76943900Y-139010000D01*
X138989000Y-136961500D02*
X149411100Y-147383600D01*
X138989000Y-134676600D02*
X138989000Y-136961500D01*
X129751000Y-135109500D02*
X129423800Y-134782300D01*
X129751000Y-140453400D02*
X129751000Y-135109500D01*
X129026200Y-141178200D02*
X129751000Y-140453400D01*
X129026200Y-145572600D02*
X129026200Y-141178200D01*
X128251000Y-146347800D02*
X129026200Y-145572600D01*
X143495000Y-90726000D02*
X140996100Y-88227100D01*
X143495000Y-95059400D02*
X143495000Y-90726000D01*
X145927700Y-97492100D02*
X143495000Y-95059400D01*
X145927700Y-100577400D02*
X145927700Y-97492100D01*
X156080600Y-110730300D02*
X145927700Y-100577400D01*
X156080600Y-133662100D02*
X156080600Y-110730300D01*
X155064100Y-134678600D02*
X156080600Y-133662100D01*
X83888600Y-148494700D02*
X76943900Y-141550000D01*
X99582200Y-148494700D02*
X83888600Y-148494700D01*
X101011100Y-149923600D02*
X99582200Y-148494700D01*
X102440000Y-149923600D02*
X101011100Y-149923600D01*
X75865000Y-141550000D02*
X76943900Y-141550000D01*
X148908800Y-149923600D02*
X150840000Y-149923600D01*
X185908300Y-113542700D02*
X186872000Y-112579000D01*
X185908300Y-122492200D02*
X185908300Y-113542700D01*
X184721400Y-123679100D02*
X185908300Y-122492200D01*
X184526700Y-123679100D02*
X184721400Y-123679100D01*
X183328300Y-124877500D02*
X184526700Y-123679100D01*
X183328300Y-125966300D02*
X183328300Y-124877500D01*
X183462700Y-126100700D02*
X183328300Y-125966300D01*
X183462700Y-133244700D02*
X183462700Y-126100700D01*
X175673800Y-141033600D02*
X183462700Y-133244700D01*
X174158800Y-141033600D02*
X175673800Y-141033600D01*
X169078800Y-146113600D02*
X174158800Y-141033600D01*
X154199200Y-146113600D02*
X169078800Y-146113600D01*
X150389200Y-149923600D02*
X154199200Y-146113600D01*
X138055100Y-139069900D02*
X148908800Y-149923600D01*
X138055100Y-95710700D02*
X138055100Y-139069900D01*
X137231500Y-94887100D02*
X138055100Y-95710700D01*
X137231500Y-92181500D02*
X137231500Y-94887100D01*
X135410000Y-90360000D02*
X137231500Y-92181500D01*
X138360000Y-138485500D02*
X146667900Y-146793400D01*
X138360000Y-95584400D02*
X138360000Y-138485500D01*
X137536400Y-94760800D02*
X138360000Y-95584400D01*
X137536400Y-89946400D02*
X137536400Y-94760800D01*
X135410000Y-87820000D02*
X137536400Y-89946400D01*
X135600000Y-144843600D02*
X134247800Y-144843600D01*
X134247800Y-144843600D02*
X134172600Y-144843600D01*
X134172600Y-144843600D02*
X134171100Y-144843600D01*
X133771200Y-144443700D02*
X133771200Y-123767900D01*
X134171100Y-144843600D02*
X133771200Y-144443700D01*
X185284600Y-113531600D02*
X184332000Y-112579000D01*
X185284600Y-115534800D02*
X185284600Y-113531600D01*
X184747800Y-116071600D02*
X185284600Y-115534800D01*
X184568700Y-116071600D02*
X184747800Y-116071600D01*
X183330900Y-117309400D02*
X184568700Y-116071600D01*
X183330900Y-118471200D02*
X183330900Y-117309400D01*
X134171100Y-145828100D02*
X133072200Y-146927000D01*
X134171100Y-144843600D02*
X134171100Y-145828100D01*
X139086600Y-122522100D02*
X139371900Y-122807400D01*
X139086600Y-103705800D02*
X139086600Y-122522100D01*
X139664100Y-103128300D02*
X139086600Y-103705800D01*
X139664100Y-96457300D02*
X139664100Y-103128300D01*
X137841300Y-94634500D02*
X139664100Y-96457300D01*
X137841300Y-88785200D02*
X137841300Y-94634500D01*
X135639800Y-86583700D02*
X137841300Y-88785200D01*
X134173700Y-86583700D02*
X135639800Y-86583700D01*
X132870000Y-85280000D02*
X134173700Y-86583700D01*
X74403900Y-141438200D02*
X74403900Y-141550000D01*
X75379200Y-140462900D02*
X74403900Y-141438200D01*
X83930400Y-140462900D02*
X75379200Y-140462900D01*
X85771100Y-142303600D02*
X83930400Y-140462900D01*
X87200000Y-142303600D02*
X85771100Y-142303600D01*
X73325000Y-141550000D02*
X74403900Y-141550000D01*
X182833800Y-125408800D02*
X182833800Y-126361200D01*
X179155500Y-121730500D02*
X182833800Y-125408800D01*
X141814500Y-112318100D02*
X141814500Y-104012700D01*
X150222700Y-120726300D02*
X141814500Y-112318100D01*
X153251000Y-120726300D02*
X150222700Y-120726300D01*
X137064600Y-140343600D02*
X135600000Y-141808200D01*
X137064600Y-109949100D02*
X137064600Y-140343600D01*
X134908800Y-107793300D02*
X137064600Y-109949100D01*
X141814500Y-102325800D02*
X141814500Y-104012700D01*
X140938900Y-101450200D02*
X141814500Y-102325800D01*
X140938900Y-96438400D02*
X140938900Y-101450200D01*
X138465700Y-93965200D02*
X140938900Y-96438400D01*
X138465700Y-86595300D02*
X138465700Y-93965200D01*
X137853700Y-85983300D02*
X138465700Y-86595300D01*
X158371100Y-133687300D02*
X158370500Y-133687900D01*
X158371100Y-132143600D02*
X158371100Y-133687300D01*
X159800000Y-132143600D02*
X158371100Y-132143600D01*
X157554700Y-131327200D02*
X158371100Y-132143600D01*
X157554700Y-109595100D02*
X157554700Y-131327200D01*
X148575000Y-100615400D02*
X157554700Y-109595100D01*
X148575000Y-98171300D02*
X148575000Y-100615400D01*
X145815700Y-95412000D02*
X148575000Y-98171300D01*
X145815700Y-91070300D02*
X145815700Y-95412000D01*
X141438900Y-86693500D02*
X145815700Y-91070300D01*
X141438900Y-84160600D02*
X141438900Y-86693500D01*
X137997300Y-80719000D02*
X141438900Y-84160600D01*
X137566100Y-80719000D02*
X137997300Y-80719000D01*
X136042000Y-79194900D02*
X137566100Y-80719000D01*
X133003600Y-79194900D02*
X136042000Y-79194900D01*
X131827100Y-78018400D02*
X133003600Y-79194900D01*
X131827100Y-72218400D02*
X131827100Y-78018400D01*
X132735500Y-71310000D02*
X131827100Y-72218400D01*
X133020500Y-71310000D02*
X132735500Y-71310000D01*
X134140100Y-70190400D02*
X133020500Y-71310000D01*
X134140100Y-68769900D02*
X134140100Y-70190400D01*
X135410000Y-67500000D02*
X134140100Y-68769900D01*
X87200000Y-129603600D02*
X88628900Y-129603600D01*
X131470100Y-68899900D02*
X131470100Y-78984900D01*
X132870000Y-67500000D02*
X131470100Y-68899900D01*
X93065400Y-83832000D02*
X93065400Y-80199300D01*
X92067500Y-84829900D02*
X93065400Y-83832000D01*
X90231100Y-84829900D02*
X92067500Y-84829900D01*
X89525600Y-85535400D02*
X90231100Y-84829900D01*
X89525600Y-89244600D02*
X89525600Y-85535400D01*
X88693700Y-90076500D02*
X89525600Y-89244600D01*
X88693700Y-91855000D02*
X88693700Y-90076500D01*
X85753100Y-94795600D02*
X88693700Y-91855000D01*
X85753100Y-99162400D02*
X85753100Y-94795600D01*
X86032600Y-99441900D02*
X85753100Y-99162400D01*
X86032600Y-99962900D02*
X86032600Y-99441900D01*
X85444300Y-100551200D02*
X86032600Y-99962900D01*
X85444300Y-117061500D02*
X85444300Y-100551200D01*
X86556400Y-118173600D02*
X85444300Y-117061500D01*
X87850800Y-118173600D02*
X86556400Y-118173600D01*
X88951200Y-119274000D02*
X87850800Y-118173600D01*
X88951200Y-129281300D02*
X88951200Y-119274000D01*
X88628900Y-129603600D02*
X88951200Y-129281300D01*
X90821700Y-115467500D02*
X92305800Y-116951600D01*
X90821700Y-104707700D02*
X90821700Y-115467500D01*
X89766100Y-103652100D02*
X90821700Y-104707700D01*
X86787000Y-103652100D02*
X89766100Y-103652100D01*
X86787000Y-105081000D02*
X86787000Y-103652100D01*
X116423200Y-112404400D02*
X113189900Y-115637700D01*
X116423200Y-103045500D02*
X116423200Y-112404400D01*
X117505000Y-101963700D02*
X116423200Y-103045500D01*
X117505000Y-99692000D02*
X117505000Y-101963700D01*
X118972600Y-98224400D02*
X117505000Y-99692000D01*
X118972600Y-85457200D02*
X118972600Y-98224400D01*
X120883200Y-83546600D02*
X118972600Y-85457200D01*
X120883200Y-76258200D02*
X120883200Y-83546600D01*
X122710000Y-74431400D02*
X120883200Y-76258200D01*
X122710000Y-67500000D02*
X122710000Y-74431400D01*
X88628900Y-107208000D02*
X88628900Y-111823600D01*
X89327000Y-106509900D02*
X88628900Y-107208000D01*
X89327000Y-105081000D02*
X89327000Y-106509900D01*
X87200000Y-111823600D02*
X88628900Y-111823600D01*
X111400000Y-111823600D02*
X112828900Y-111823600D01*
X190537700Y-82490200D02*
X190537700Y-87305600D01*
X126431300Y-83443700D02*
X124945800Y-84929200D01*
X126431300Y-68897100D02*
X126431300Y-83443700D01*
X126557400Y-68771000D02*
X126431300Y-68897100D01*
X126557400Y-63727400D02*
X126557400Y-68771000D01*
X125250000Y-62420000D02*
X126557400Y-63727400D01*
X116118300Y-108534200D02*
X112828900Y-111823600D01*
X116118300Y-102919200D02*
X116118300Y-108534200D01*
X117200000Y-101837500D02*
X116118300Y-102919200D01*
X117200000Y-99565800D02*
X117200000Y-101837500D01*
X118623800Y-98142000D02*
X117200000Y-99565800D01*
X118623800Y-89465800D02*
X118623800Y-98142000D01*
X118341700Y-89183700D02*
X118623800Y-89465800D01*
X94407000Y-105081000D02*
X94407000Y-106509900D01*
X94066000Y-106850900D02*
X94407000Y-106509900D01*
X94066000Y-114544100D02*
X94066000Y-106850900D01*
X109788900Y-113282000D02*
X107082800Y-115988100D01*
X109788900Y-111063600D02*
X109788900Y-113282000D01*
X111194600Y-109657900D02*
X109788900Y-111063600D01*
X112037200Y-109657900D02*
X111194600Y-109657900D01*
X115813400Y-105881700D02*
X112037200Y-109657900D01*
X115813400Y-102792900D02*
X115813400Y-105881700D01*
X116585100Y-102021200D02*
X115813400Y-102792900D01*
X116585100Y-87413500D02*
X116585100Y-102021200D01*
X119587800Y-84410800D02*
X116585100Y-87413500D01*
X119587800Y-69819800D02*
X119587800Y-84410800D01*
X121210800Y-68196800D02*
X119587800Y-69819800D01*
X121210800Y-63919200D02*
X121210800Y-68196800D01*
X122710000Y-62420000D02*
X121210800Y-63919200D01*
X96947000Y-101624500D02*
X96453300Y-101130800D01*
X96947000Y-105081000D02*
X96947000Y-101624500D01*
X116271400Y-99898300D02*
X115265400Y-100904300D01*
X116271400Y-86824300D02*
X116271400Y-99898300D01*
X119181300Y-83914400D02*
X116271400Y-86824300D01*
X119181300Y-81269900D02*
X119181300Y-83914400D01*
X119169800Y-81258400D02*
X119181300Y-81269900D01*
X119169800Y-65960200D02*
X119169800Y-81258400D01*
X120170000Y-64960000D02*
X119169800Y-65960200D01*
X113692500Y-102477200D02*
X115265400Y-100904300D01*
X113692500Y-106624900D02*
X113692500Y-102477200D01*
X109376600Y-110940800D02*
X113692500Y-106624900D01*
X109376600Y-111154300D02*
X109376600Y-110940800D01*
X93014500Y-106253100D02*
X93014500Y-121600700D01*
X118900000Y-63690000D02*
X120170000Y-62420000D01*
X117405600Y-63690000D02*
X118900000Y-63690000D01*
X116099200Y-64996400D02*
X117405600Y-63690000D01*
X116099200Y-82737800D02*
X116099200Y-64996400D01*
X114097100Y-84739900D02*
X116099200Y-82737800D01*
X114097100Y-94469800D02*
X114097100Y-84739900D01*
X115792600Y-96165300D02*
X114097100Y-94469800D01*
X115792600Y-99292300D02*
X115792600Y-96165300D01*
X113215900Y-101869000D02*
X115792600Y-99292300D01*
X113215900Y-106265100D02*
X113215900Y-101869000D01*
X108049900Y-111431100D02*
X113215900Y-106265100D01*
X129023600Y-138024100D02*
X129122100Y-137925600D01*
X129023600Y-140291500D02*
X129023600Y-138024100D01*
X126640000Y-139763600D02*
X128068900Y-139763600D01*
X126768000Y-97410700D02*
X126768000Y-105105800D01*
X127790000Y-96388700D02*
X126768000Y-97410700D01*
X127790000Y-92900000D02*
X127790000Y-96388700D01*
X128373800Y-106711600D02*
X126768000Y-105105800D01*
X128373800Y-133459600D02*
X128373800Y-106711600D01*
X128068900Y-133764500D02*
X128373800Y-133459600D01*
X128068900Y-139763600D02*
X128068900Y-133764500D01*
X126640000Y-142303600D02*
X125211100Y-142303600D01*
X124020600Y-141113100D02*
X125211100Y-142303600D01*
X124020600Y-113975400D02*
X124020600Y-141113100D01*
X123890800Y-113975400D02*
X124020600Y-113975400D01*
X126288500Y-91398500D02*
X125250000Y-90360000D01*
X126288500Y-96753400D02*
X126288500Y-91398500D01*
X125785400Y-97256500D02*
X126288500Y-96753400D01*
X125785400Y-108009700D02*
X125785400Y-97256500D01*
X124020600Y-109774500D02*
X125785400Y-108009700D01*
X124020600Y-113975400D02*
X124020600Y-109774500D01*
X126640000Y-144843600D02*
X128068900Y-144843600D01*
X112902700Y-120713600D02*
X116153200Y-123964100D01*
X105984900Y-120713600D02*
X112902700Y-120713600D01*
X104934000Y-119662700D02*
X105984900Y-120713600D01*
X104934000Y-116071000D02*
X104934000Y-119662700D01*
X128898600Y-123940300D02*
X129002800Y-123940300D01*
X128898600Y-133366000D02*
X128898600Y-123940300D01*
X128493100Y-133771500D02*
X128898600Y-133366000D01*
X128493100Y-139932700D02*
X128493100Y-133771500D01*
X128068900Y-140356900D02*
X128493100Y-139932700D01*
X128068900Y-144843600D02*
X128068900Y-140356900D01*
X128898600Y-94331400D02*
X130330000Y-92900000D01*
X128898600Y-123940300D02*
X128898600Y-94331400D01*
X126640000Y-147383600D02*
X128068900Y-147383600D01*
X130055900Y-120508600D02*
X129556000Y-120008700D01*
X130055900Y-140579800D02*
X130055900Y-120508600D01*
X129331100Y-141304600D02*
X130055900Y-140579800D01*
X129331100Y-146157100D02*
X129331100Y-141304600D01*
X128104600Y-147383600D02*
X129331100Y-146157100D01*
X128068900Y-147383600D02*
X128104600Y-147383600D01*
X129556000Y-116272500D02*
X129556000Y-120008700D01*
X131438200Y-114390300D02*
X129556000Y-116272500D01*
X131438200Y-92579400D02*
X131438200Y-114390300D01*
X130633400Y-91774600D02*
X131438200Y-92579400D01*
X129204600Y-91774600D02*
X130633400Y-91774600D01*
X127790000Y-90360000D02*
X129204600Y-91774600D01*
X126640000Y-149923600D02*
X128068900Y-149923600D01*
X131975800Y-146016700D02*
X128068900Y-149923600D01*
X131975800Y-137522600D02*
X131975800Y-146016700D01*
X132074000Y-137424400D02*
X131975800Y-137522600D01*
X132442400Y-114481800D02*
X132442400Y-93327600D01*
X132523400Y-114562800D02*
X132442400Y-114481800D01*
X132523400Y-115083800D02*
X132523400Y-114562800D01*
X132074000Y-115533200D02*
X132523400Y-115083800D01*
X132074000Y-137424400D02*
X132074000Y-115533200D01*
X121895000Y-147383600D02*
X122057000Y-147221600D01*
X111850900Y-147383600D02*
X121895000Y-147383600D01*
X125787900Y-150952500D02*
X122057000Y-147221600D01*
X127996400Y-150952500D02*
X125787900Y-150952500D01*
X129495600Y-149453300D02*
X127996400Y-150952500D01*
X98777000Y-130340700D02*
X98777000Y-123890500D01*
X101959700Y-133523400D02*
X98777000Y-130340700D01*
X103163200Y-133523400D02*
X101959700Y-133523400D01*
X103868900Y-134229100D02*
X103163200Y-133523400D01*
X103868900Y-135183500D02*
X103868900Y-134229100D01*
X103098800Y-135953600D02*
X103868900Y-135183500D01*
X101817800Y-135953600D02*
X103098800Y-135953600D01*
X101004200Y-136767200D02*
X101817800Y-135953600D01*
X101004200Y-137699900D02*
X101004200Y-136767200D01*
X101797900Y-138493600D02*
X101004200Y-137699900D01*
X103059200Y-138493600D02*
X101797900Y-138493600D01*
X111850900Y-147285300D02*
X103059200Y-138493600D01*
X123261900Y-146016700D02*
X122057000Y-147221600D01*
X123261900Y-113715000D02*
X123261900Y-146016700D01*
X123710700Y-113266200D02*
X123261900Y-113715000D01*
X123710700Y-103080300D02*
X123710700Y-113266200D01*
X125153300Y-101637700D02*
X123710700Y-103080300D01*
X125153300Y-96542500D02*
X125153300Y-101637700D01*
X124210500Y-95599700D02*
X125153300Y-96542500D01*
X124210500Y-89939300D02*
X124210500Y-95599700D01*
X124938900Y-89210900D02*
X124210500Y-89939300D01*
X126399100Y-89210900D02*
X124938900Y-89210900D01*
X127790000Y-87820000D02*
X126399100Y-89210900D01*
X111400000Y-144843600D02*
X112828900Y-144843600D01*
X129390800Y-89420800D02*
X129388400Y-89420800D01*
X130330000Y-90360000D02*
X129390800Y-89420800D01*
X159800000Y-144843600D02*
X158371100Y-144843600D01*
X156922700Y-143395200D02*
X156922700Y-112205800D01*
X158371100Y-144843600D02*
X156922700Y-143395200D01*
X123031700Y-108097300D02*
X123081800Y-108097300D01*
X123861200Y-95998000D02*
X123861200Y-89399200D01*
X123031700Y-96827500D02*
X123861200Y-95998000D01*
X123031700Y-108097300D02*
X123031700Y-96827500D01*
X122957000Y-134715500D02*
X112828900Y-144843600D01*
X122957000Y-108172000D02*
X122957000Y-134715500D01*
X123031700Y-108097300D02*
X122957000Y-108172000D01*
X135410000Y-99337400D02*
X135410000Y-92900000D01*
X137750200Y-101677600D02*
X135410000Y-99337400D01*
X137750200Y-139990700D02*
X137750200Y-101677600D01*
X138329700Y-140570200D02*
X137750200Y-139990700D01*
X150840000Y-139763600D02*
X152268900Y-139763600D01*
X152268900Y-125371300D02*
X155423000Y-122217200D01*
X152268900Y-138569300D02*
X152268900Y-125371300D01*
X152001100Y-138837100D02*
X152268900Y-138569300D01*
X152001100Y-139357900D02*
X152001100Y-138837100D01*
X152268900Y-139625700D02*
X152001100Y-139357900D01*
X152268900Y-139763600D02*
X152268900Y-139625700D01*
X131849800Y-89339800D02*
X130330000Y-87820000D01*
X131849800Y-90756800D02*
X131849800Y-89339800D01*
X132709300Y-91616300D02*
X131849800Y-90756800D01*
X133025100Y-91616300D02*
X132709300Y-91616300D01*
X133876900Y-92468100D02*
X133025100Y-91616300D01*
X133876900Y-93624400D02*
X133876900Y-92468100D01*
X132760000Y-94741300D02*
X133876900Y-93624400D01*
X132760000Y-114368200D02*
X132760000Y-94741300D01*
X132828300Y-114436500D02*
X132760000Y-114368200D01*
X132828300Y-115210100D02*
X132828300Y-114436500D01*
X132555100Y-115483300D02*
X132828300Y-115210100D01*
X132555100Y-124135100D02*
X132555100Y-115483300D01*
X132873500Y-124453500D02*
X132555100Y-124135100D01*
X132873500Y-138971500D02*
X132873500Y-124453500D01*
X152630000Y-141942500D02*
X152630000Y-139097500D01*
X152268900Y-142303600D02*
X152630000Y-141942500D01*
X186872000Y-121102300D02*
X186872000Y-120199000D01*
X187816300Y-122046600D02*
X186872000Y-121102300D01*
X187816300Y-123155700D02*
X187816300Y-122046600D01*
X187204600Y-123767400D02*
X187816300Y-123155700D01*
X187002600Y-123767400D02*
X187204600Y-123767400D01*
X185931900Y-124838100D02*
X187002600Y-123767400D01*
X185931900Y-126708700D02*
X185931900Y-124838100D01*
X185185100Y-127455500D02*
X185931900Y-126708700D01*
X150840000Y-142303600D02*
X152268900Y-142303600D01*
X134181800Y-91671800D02*
X132870000Y-90360000D01*
X134181800Y-93902200D02*
X134181800Y-91671800D01*
X133093900Y-94990100D02*
X134181800Y-93902200D01*
X133093900Y-105089100D02*
X133093900Y-94990100D01*
X137445300Y-109440500D02*
X133093900Y-105089100D01*
X137445300Y-141040200D02*
X137445300Y-109440500D01*
X137273800Y-141211700D02*
X137445300Y-141040200D01*
X132434200Y-142474000D02*
X132604700Y-142303500D01*
X132434200Y-147250900D02*
X132434200Y-142474000D01*
X132772500Y-147589200D02*
X132434200Y-147250900D01*
X133427800Y-147589200D02*
X132772500Y-147589200D01*
X134911500Y-146105500D02*
X133427800Y-147589200D01*
X136218100Y-146105500D02*
X134911500Y-146105500D01*
X137273800Y-145049800D02*
X136218100Y-146105500D01*
X137273800Y-141211700D02*
X137273800Y-145049800D01*
X179136300Y-109896900D02*
X184332000Y-115092600D01*
X131770600Y-114823300D02*
X131894500Y-114823300D01*
X130360800Y-116233100D02*
X131770600Y-114823300D01*
X130360800Y-145524000D02*
X130360800Y-116233100D01*
X129960100Y-145924700D02*
X130360800Y-145524000D01*
X129276400Y-86333600D02*
X130330000Y-85280000D01*
X129276400Y-88207900D02*
X129276400Y-86333600D01*
X128709600Y-88774700D02*
X129276400Y-88207900D01*
X128709600Y-89842900D02*
X128709600Y-88774700D01*
X129339100Y-90472400D02*
X128709600Y-89842900D01*
X129339100Y-90862500D02*
X129339100Y-90472400D01*
X129902000Y-91425400D02*
X129339100Y-90862500D01*
X130717800Y-91425400D02*
X129902000Y-91425400D01*
X131770600Y-92478200D02*
X130717800Y-91425400D01*
X131770600Y-114823300D02*
X131770600Y-92478200D01*
X186076700Y-73564800D02*
X187505600Y-73564800D01*
X87200000Y-139763600D02*
X85771100Y-139763600D01*
X73325000Y-65350000D02*
X73325000Y-66428900D01*
X159800000Y-139763600D02*
X161228900Y-139763600D01*
X179959400Y-134217700D02*
X179959400Y-125754300D01*
X175524900Y-138652200D02*
X179959400Y-134217700D01*
X162340300Y-138652200D02*
X175524900Y-138652200D01*
X161228900Y-139763600D02*
X162340300Y-138652200D01*
X193396200Y-107834300D02*
X193396200Y-115905800D01*
X187468700Y-101906800D02*
X193396200Y-107834300D01*
X187468700Y-95046200D02*
X187468700Y-101906800D01*
X187505600Y-95009300D02*
X187468700Y-95046200D01*
X187505600Y-73564800D02*
X187505600Y-95009300D01*
X85384900Y-140149800D02*
X85771100Y-139763600D01*
X72852700Y-140149800D02*
X85384900Y-140149800D01*
X70280000Y-137577100D02*
X72852700Y-140149800D01*
X70280000Y-68917200D02*
X70280000Y-137577100D01*
X72768300Y-66428900D02*
X70280000Y-68917200D01*
X73325000Y-66428900D02*
X72768300Y-66428900D01*
X186076700Y-76104800D02*
X184647800Y-76104800D01*
X187824500Y-107973900D02*
X187824500Y-121037000D01*
X184339000Y-104488400D02*
X187824500Y-107973900D01*
X184339000Y-76413600D02*
X184339000Y-104488400D01*
X184647800Y-76104800D02*
X184339000Y-76413600D01*
X186076700Y-78644800D02*
X184647800Y-78644800D01*
X184647800Y-99614700D02*
X184647800Y-78644800D01*
X190999600Y-105966500D02*
X184647800Y-99614700D01*
X190999600Y-114065700D02*
X190999600Y-105966500D01*
X191716100Y-114782200D02*
X190999600Y-114065700D01*
X205323300Y-78644800D02*
X203894400Y-78644800D01*
X203894400Y-78644800D02*
X203894400Y-84998400D01*
X202376900Y-77127300D02*
X203894400Y-78644800D01*
X202376900Y-63675200D02*
X202376900Y-77127300D01*
X198189100Y-59487400D02*
X202376900Y-63675200D01*
X195972800Y-59487400D02*
X198189100Y-59487400D01*
X195742400Y-59257000D02*
X195972800Y-59487400D01*
X129662100Y-60547900D02*
X129662100Y-56131700D01*
X127790000Y-62420000D02*
X129662100Y-60547900D01*
X175040000Y-114363600D02*
X176468900Y-114363600D01*
X150840000Y-114363600D02*
X152268900Y-114363600D01*
X152268900Y-117269100D02*
X152535600Y-117535800D01*
X152268900Y-114363600D02*
X152268900Y-117269100D01*
X111400000Y-116903600D02*
X112828900Y-116903600D01*
X176468900Y-112917500D02*
X176468900Y-109592700D01*
X176247200Y-113139200D02*
X176468900Y-112917500D01*
X176247200Y-113660000D02*
X176247200Y-113139200D01*
X176468900Y-113881700D02*
X176247200Y-113660000D01*
X176468900Y-114363600D02*
X176468900Y-113881700D01*
X125250000Y-65860600D02*
X125250000Y-64960000D01*
X124192300Y-66918300D02*
X125250000Y-65860600D01*
X124192300Y-73380300D02*
X124192300Y-66918300D01*
X121342500Y-76230100D02*
X124192300Y-73380300D01*
X121342500Y-96722700D02*
X121342500Y-76230100D01*
X118226000Y-99839200D02*
X121342500Y-96722700D01*
X118226000Y-111506500D02*
X118226000Y-99839200D01*
X112828900Y-116903600D02*
X118226000Y-111506500D01*
X135600000Y-116903600D02*
X134171100Y-116903600D01*
X198689600Y-87632100D02*
X198689600Y-93054500D01*
X199132200Y-87189500D02*
X198689600Y-87632100D01*
X199132200Y-81184800D02*
X199132200Y-87189500D01*
X197703300Y-81184800D02*
X199132200Y-81184800D01*
X133712900Y-116445400D02*
X133712900Y-115277800D01*
X134171100Y-116903600D02*
X133712900Y-116445400D01*
X102440000Y-119443600D02*
X103868900Y-119443600D01*
X159800000Y-116903600D02*
X161228900Y-116903600D01*
X134171100Y-118491100D02*
X133235700Y-119426500D01*
X134171100Y-116903600D02*
X134171100Y-118491100D01*
X103868900Y-115815600D02*
X103868900Y-119443600D01*
X104246100Y-115438400D02*
X103868900Y-115815600D01*
X104246100Y-112333300D02*
X104246100Y-115438400D01*
X106057200Y-110522200D02*
X104246100Y-112333300D01*
X106057200Y-108008600D02*
X106057200Y-110522200D01*
X105753800Y-107705200D02*
X106057200Y-108008600D01*
X105753800Y-102965700D02*
X105753800Y-107705200D01*
X105453400Y-102665300D02*
X105753800Y-102965700D01*
X161228900Y-104426000D02*
X161228900Y-116903600D01*
X158611600Y-101808700D02*
X161228900Y-104426000D01*
X158611600Y-91678600D02*
X158611600Y-101808700D01*
X157141500Y-90208500D02*
X158611600Y-91678600D01*
X157141500Y-89623900D02*
X157141500Y-90208500D01*
X157426100Y-89339300D02*
X157141500Y-89623900D01*
X157426100Y-69690100D02*
X157426100Y-89339300D01*
X156488700Y-68752700D02*
X157426100Y-69690100D01*
X73325000Y-98370000D02*
X73325000Y-99448900D01*
X196274400Y-84721900D02*
X196547300Y-84994800D01*
X196274400Y-78644800D02*
X196274400Y-84721900D01*
X175040000Y-121983600D02*
X176468900Y-121983600D01*
X197703300Y-78644800D02*
X196274400Y-78644800D01*
X176876100Y-121576400D02*
X176468900Y-121983600D01*
X176876100Y-113399600D02*
X176876100Y-121576400D01*
X83458500Y-109473200D02*
X83458500Y-122733400D01*
X76165300Y-102180000D02*
X83458500Y-109473200D01*
X75560900Y-102180000D02*
X76165300Y-102180000D01*
X74403900Y-101023000D02*
X75560900Y-102180000D01*
X74403900Y-100392800D02*
X74403900Y-101023000D01*
X73460000Y-99448900D02*
X74403900Y-100392800D01*
X73325000Y-99448900D02*
X73460000Y-99448900D01*
X128803800Y-65973800D02*
X127790000Y-64960000D01*
X128803800Y-88209400D02*
X128803800Y-65973800D01*
X127774700Y-89238500D02*
X128803800Y-88209400D01*
X127510200Y-89238500D02*
X127774700Y-89238500D01*
X126736200Y-90012500D02*
X127510200Y-89238500D01*
X126736200Y-97011300D02*
X126736200Y-90012500D01*
X126137600Y-97609900D02*
X126736200Y-97011300D01*
X126137600Y-106038200D02*
X126137600Y-97609900D01*
X128068900Y-107969500D02*
X126137600Y-106038200D01*
X128068900Y-121983600D02*
X128068900Y-107969500D01*
X126640000Y-121983600D02*
X128068900Y-121983600D01*
X87200000Y-119443600D02*
X85771100Y-119443600D01*
X194763300Y-77615900D02*
X196274400Y-76104800D01*
X192799100Y-77615900D02*
X194763300Y-77615900D01*
X191454700Y-78960300D02*
X192799100Y-77615900D01*
X191454700Y-86455600D02*
X191454700Y-78960300D01*
X197703300Y-76104800D02*
X196274400Y-76104800D01*
X159800000Y-119443600D02*
X161228900Y-119443600D01*
X169600400Y-111072100D02*
X161228900Y-119443600D01*
X169600400Y-94921200D02*
X169600400Y-111072100D01*
X85107800Y-99998300D02*
X85403700Y-99702400D01*
X85107800Y-118780300D02*
X85107800Y-99998300D01*
X85771100Y-119443600D02*
X85107800Y-118780300D01*
X139136400Y-62427900D02*
X139136400Y-62600300D01*
X138080100Y-61371600D02*
X139136400Y-62427900D01*
X133918400Y-61371600D02*
X138080100Y-61371600D01*
X132870000Y-62420000D02*
X133918400Y-61371600D01*
X168741900Y-94062700D02*
X169600400Y-94921200D01*
X168741900Y-68688100D02*
X168741900Y-94062700D01*
X164403900Y-64350100D02*
X168741900Y-68688100D01*
X73325000Y-93290000D02*
X73325000Y-94368900D01*
X175040000Y-129603600D02*
X176468900Y-129603600D01*
X184034100Y-74838500D02*
X184160500Y-74712100D01*
X184034100Y-97675900D02*
X184034100Y-74838500D01*
X177030700Y-104679300D02*
X184034100Y-97675900D01*
X177030700Y-107250100D02*
X177030700Y-104679300D01*
X177822600Y-108042000D02*
X177030700Y-107250100D01*
X177822600Y-128249900D02*
X177822600Y-108042000D01*
X176468900Y-129603600D02*
X177822600Y-128249900D01*
X82829600Y-111384300D02*
X82829600Y-124535700D01*
X76165300Y-104720000D02*
X82829600Y-111384300D01*
X75560900Y-104720000D02*
X76165300Y-104720000D01*
X74595000Y-103754100D02*
X75560900Y-104720000D01*
X74595000Y-103136000D02*
X74595000Y-103754100D01*
X73639000Y-102180000D02*
X74595000Y-103136000D01*
X73045300Y-102180000D02*
X73639000Y-102180000D01*
X72207500Y-101342200D02*
X73045300Y-102180000D01*
X72207500Y-95351500D02*
X72207500Y-101342200D01*
X73190100Y-94368900D02*
X72207500Y-95351500D01*
X73325000Y-94368900D02*
X73190100Y-94368900D01*
X102440000Y-134683600D02*
X101011100Y-134683600D01*
X175040000Y-134683600D02*
X173611100Y-134683600D01*
X91676900Y-125349400D02*
X101011100Y-134683600D01*
X91676900Y-116966100D02*
X91676900Y-125349400D01*
X87697000Y-112986200D02*
X91676900Y-116966100D01*
X86038900Y-112986200D02*
X87697000Y-112986200D01*
X85754200Y-112701500D02*
X86038900Y-112986200D01*
X85754200Y-100961800D02*
X85754200Y-112701500D01*
X86683900Y-100032100D02*
X85754200Y-100961800D01*
X172207300Y-97013500D02*
X172207300Y-65794300D01*
X173019400Y-97825600D02*
X172207300Y-97013500D01*
X173019400Y-134091900D02*
X173019400Y-97825600D01*
X173611100Y-134683600D02*
X173019400Y-134091900D01*
X166600000Y-75434000D02*
X164247600Y-77786400D01*
X166600000Y-67941200D02*
X166600000Y-75434000D01*
X126784800Y-69126600D02*
X127790000Y-68121400D01*
X126784800Y-71128900D02*
X126784800Y-69126600D01*
X127638400Y-71982500D02*
X126784800Y-71128900D01*
X73325000Y-88210000D02*
X73325000Y-87131100D01*
X197703300Y-68484800D02*
X196274400Y-68484800D01*
X175040000Y-127063600D02*
X176468900Y-127063600D01*
X102440000Y-127063600D02*
X103868900Y-127063600D01*
X195163000Y-69596200D02*
X196274400Y-68484800D01*
X190605400Y-69596200D02*
X195163000Y-69596200D01*
X187843000Y-72358600D02*
X190605400Y-69596200D01*
X185408800Y-72358600D02*
X187843000Y-72358600D01*
X184166300Y-73601100D02*
X185408800Y-72358600D01*
X184166300Y-73816700D02*
X184166300Y-73601100D01*
X183498900Y-74484100D02*
X184166300Y-73816700D01*
X183498900Y-89956300D02*
X183498900Y-74484100D01*
X176679900Y-96775300D02*
X183498900Y-89956300D01*
X176679900Y-107969800D02*
X176679900Y-96775300D01*
X177517700Y-108807600D02*
X176679900Y-107969800D01*
X177517700Y-126014800D02*
X177517700Y-108807600D01*
X176468900Y-127063600D02*
X177517700Y-126014800D01*
X81610500Y-64985900D02*
X81387100Y-64762500D01*
X81610500Y-76128300D02*
X81610500Y-64985900D01*
X80518900Y-77219900D02*
X81610500Y-76128300D01*
X80518900Y-80060800D02*
X80518900Y-77219900D01*
X76179700Y-84400000D02*
X80518900Y-80060800D01*
X75560900Y-84400000D02*
X76179700Y-84400000D01*
X74595000Y-85365900D02*
X75560900Y-84400000D01*
X74595000Y-85972900D02*
X74595000Y-85365900D01*
X73436800Y-87131100D02*
X74595000Y-85972900D01*
X73325000Y-87131100D02*
X73436800Y-87131100D01*
X98458100Y-105907200D02*
X98458100Y-100032100D01*
X100706200Y-108155300D02*
X98458100Y-105907200D01*
X100706200Y-119604500D02*
X100706200Y-108155300D01*
X101815300Y-120713600D02*
X100706200Y-119604500D01*
X103097900Y-120713600D02*
X101815300Y-120713600D01*
X103868900Y-121484600D02*
X103097900Y-120713600D01*
X103868900Y-127063600D02*
X103868900Y-121484600D01*
X102440000Y-124523600D02*
X101011100Y-124523600D01*
X197703300Y-65944800D02*
X196274400Y-65944800D01*
X175040000Y-124523600D02*
X173611100Y-124523600D01*
X194763300Y-67455900D02*
X196274400Y-65944800D01*
X191500600Y-67455900D02*
X194763300Y-67455900D01*
X186902800Y-72053700D02*
X191500600Y-67455900D01*
X185264500Y-72053700D02*
X186902800Y-72053700D01*
X183754100Y-73564100D02*
X185264500Y-72053700D01*
X183754100Y-73797700D02*
X183754100Y-73564100D01*
X182577500Y-74974300D02*
X183754100Y-73797700D01*
X181291000Y-74974300D02*
X182577500Y-74974300D01*
X178139900Y-78125400D02*
X181291000Y-74974300D01*
X178139900Y-91037100D02*
X178139900Y-78125400D01*
X174277200Y-94899800D02*
X178139900Y-91037100D01*
X174277200Y-108602600D02*
X174277200Y-94899800D01*
X173611100Y-109268700D02*
X174277200Y-108602600D01*
X173611100Y-124523600D02*
X173611100Y-109268700D01*
X95802400Y-98982100D02*
X95802400Y-95954600D01*
X98153200Y-101332900D02*
X95802400Y-98982100D01*
X98153200Y-106033500D02*
X98153200Y-101332900D01*
X100401300Y-108281600D02*
X98153200Y-106033500D01*
X100401300Y-123913800D02*
X100401300Y-108281600D01*
X101011100Y-124523600D02*
X100401300Y-123913800D01*
X129284700Y-68545300D02*
X130330000Y-67500000D01*
X129284700Y-78033800D02*
X129284700Y-68545300D01*
X130073500Y-78822600D02*
X129284700Y-78033800D01*
X130386400Y-78822600D02*
X130073500Y-78822600D01*
X131496700Y-79932900D02*
X130386400Y-78822600D01*
X131496700Y-82774600D02*
X131496700Y-79932900D01*
X133011200Y-84289100D02*
X131496700Y-82774600D01*
X133348500Y-84289100D02*
X133011200Y-84289100D01*
X134140100Y-85080700D02*
X133348500Y-84289100D01*
X134140100Y-85468700D02*
X134140100Y-85080700D01*
X134945600Y-86274200D02*
X134140100Y-85468700D01*
X135776600Y-86274200D02*
X134945600Y-86274200D01*
X138146200Y-88643800D02*
X135776600Y-86274200D01*
X138146200Y-94508200D02*
X138146200Y-88643800D01*
X140106300Y-96468300D02*
X138146200Y-94508200D01*
X140106300Y-101741500D02*
X140106300Y-96468300D01*
X140881600Y-102516800D02*
X140106300Y-101741500D01*
X140881600Y-115994100D02*
X140881600Y-102516800D01*
X149411100Y-124523600D02*
X140881600Y-115994100D01*
X150840000Y-124523600D02*
X149411100Y-124523600D01*
X131771100Y-63861100D02*
X131771100Y-60470600D01*
X132870000Y-64960000D02*
X131771100Y-63861100D01*
X159800000Y-121983600D02*
X161228900Y-121983600D01*
X170275500Y-112937000D02*
X161228900Y-121983600D01*
X170275500Y-94270000D02*
X170275500Y-112937000D01*
X169262400Y-93256900D02*
X170275500Y-94270000D01*
X169262400Y-65483300D02*
X169262400Y-93256900D01*
X166257800Y-62478700D02*
X169262400Y-65483300D01*
X159800000Y-124523600D02*
X158371100Y-124523600D01*
X135628100Y-64960000D02*
X138169900Y-62418200D01*
X87200000Y-124523600D02*
X85771100Y-124523600D01*
X197703300Y-60864800D02*
X196274400Y-60864800D01*
X84693100Y-91511300D02*
X85464400Y-90740000D01*
X84693100Y-95800400D02*
X84693100Y-91511300D01*
X84469800Y-96023700D02*
X84693100Y-95800400D01*
X84469800Y-123222300D02*
X84469800Y-96023700D01*
X85771100Y-124523600D02*
X84469800Y-123222300D01*
X165038700Y-61595600D02*
X163679300Y-62955000D01*
X171273900Y-61595600D02*
X165038700Y-61595600D01*
X171572000Y-61893700D02*
X171273900Y-61595600D01*
X176325700Y-61893700D02*
X171572000Y-61893700D01*
X178626700Y-59592700D02*
X176325700Y-61893700D01*
X195002300Y-59592700D02*
X178626700Y-59592700D01*
X196274400Y-60864800D02*
X195002300Y-59592700D01*
X158371100Y-118949300D02*
X158371100Y-124523600D01*
X159146800Y-118173600D02*
X158371100Y-118949300D01*
X160447200Y-118173600D02*
X159146800Y-118173600D01*
X162435700Y-116185100D02*
X160447200Y-118173600D01*
X162435700Y-89453700D02*
X162435700Y-116185100D01*
X162902800Y-88986600D02*
X162435700Y-89453700D01*
X162902800Y-69315200D02*
X162902800Y-88986600D01*
X163679300Y-68538700D02*
X162902800Y-69315200D01*
X163679300Y-62955000D02*
X163679300Y-68538700D01*
X73325000Y-77510500D02*
X73325000Y-76971100D01*
X76984500Y-60270700D02*
X76418100Y-59704300D01*
X76984500Y-65778600D02*
X76984500Y-60270700D01*
X76143100Y-66620000D02*
X76984500Y-65778600D01*
X75550100Y-66620000D02*
X76143100Y-66620000D01*
X74403900Y-67766200D02*
X75550100Y-66620000D01*
X74403900Y-68384000D02*
X74403900Y-67766200D01*
X73436800Y-69351100D02*
X74403900Y-68384000D01*
X72878100Y-69351100D02*
X73436800Y-69351100D01*
X72243300Y-69985900D02*
X72878100Y-69351100D01*
X72243300Y-76001200D02*
X72243300Y-69985900D01*
X73213200Y-76971100D02*
X72243300Y-76001200D01*
X73325000Y-76971100D02*
X73213200Y-76971100D01*
X70889800Y-80485200D02*
X73325000Y-78050000D01*
X70889800Y-125447700D02*
X70889800Y-80485200D01*
X72894500Y-127452400D02*
X70889800Y-125447700D01*
X73476000Y-127452400D02*
X72894500Y-127452400D01*
X74403900Y-128380300D02*
X73476000Y-127452400D01*
X74403900Y-131907200D02*
X74403900Y-128380300D01*
X73767100Y-132544000D02*
X74403900Y-131907200D01*
X73110900Y-132544000D02*
X73767100Y-132544000D01*
X72242400Y-133412500D02*
X73110900Y-132544000D01*
X72242400Y-136972800D02*
X72242400Y-133412500D01*
X72848400Y-137578800D02*
X72242400Y-136972800D01*
X76327600Y-137578800D02*
X72848400Y-137578800D01*
X85771100Y-128135300D02*
X76327600Y-137578800D01*
X85771100Y-127063600D02*
X85771100Y-128135300D01*
X87200000Y-127063600D02*
X85771100Y-127063600D01*
X132272100Y-58821900D02*
X132272100Y-55826800D01*
X131135600Y-59958400D02*
X132272100Y-58821900D01*
X131135600Y-61824200D02*
X131135600Y-59958400D01*
X131330900Y-62019500D02*
X131135600Y-61824200D01*
X131330900Y-68325200D02*
X131330900Y-62019500D01*
X130330000Y-69326100D02*
X131330900Y-68325200D01*
X130330000Y-70040000D02*
X130330000Y-69326100D01*
X75865000Y-75510000D02*
X76943900Y-75510000D01*
X77308300Y-59812600D02*
X77371000Y-59749900D01*
X77308300Y-74047300D02*
X77308300Y-59812600D01*
X77363200Y-74102200D02*
X77308300Y-74047300D01*
X77363200Y-75090700D02*
X77363200Y-74102200D01*
X76943900Y-75510000D02*
X77363200Y-75090700D01*
X190490000Y-65944800D02*
X193696700Y-65944800D01*
X186787400Y-69647400D02*
X190490000Y-65944800D01*
X185312500Y-69647400D02*
X186787400Y-69647400D01*
X182557800Y-72402100D02*
X185312500Y-69647400D01*
X181332700Y-72402100D02*
X182557800Y-72402100D01*
X176990000Y-76744800D02*
X181332700Y-72402100D01*
X176990000Y-87289300D02*
X176990000Y-76744800D01*
X173648300Y-90631000D02*
X176990000Y-87289300D01*
X173648300Y-102414500D02*
X173648300Y-90631000D01*
X73325000Y-139010000D02*
X74403900Y-139010000D01*
X91296700Y-83430000D02*
X91296700Y-84420900D01*
X150840000Y-119443600D02*
X149411100Y-119443600D01*
X149086300Y-119118800D02*
X149086300Y-104855900D01*
X149411100Y-119443600D02*
X149086300Y-119118800D01*
X90208900Y-84420900D02*
X91296700Y-84420900D01*
X89113300Y-85516500D02*
X90208900Y-84420900D01*
X89113300Y-88604800D02*
X89113300Y-85516500D01*
X88366200Y-89351900D02*
X89113300Y-88604800D01*
X88366200Y-91394100D02*
X88366200Y-89351900D01*
X84998000Y-94762300D02*
X88366200Y-91394100D01*
X84998000Y-95926700D02*
X84998000Y-94762300D01*
X84774700Y-96150000D02*
X84998000Y-95926700D01*
X84774700Y-121472200D02*
X84774700Y-96150000D01*
X86664400Y-123361900D02*
X84774700Y-121472200D01*
X87955200Y-123361900D02*
X86664400Y-123361900D01*
X88628900Y-124035600D02*
X87955200Y-123361900D01*
X88628900Y-127550500D02*
X88628900Y-124035600D01*
X87845800Y-128333600D02*
X88628900Y-127550500D01*
X86361200Y-128333600D02*
X87845800Y-128333600D01*
X76763700Y-137931100D02*
X86361200Y-128333600D01*
X75347800Y-137931100D02*
X76763700Y-137931100D01*
X74403900Y-138875000D02*
X75347800Y-137931100D01*
X74403900Y-139010000D02*
X74403900Y-138875000D01*
X112187000Y-105081000D02*
X112187000Y-102959800D01*
X110981000Y-101753800D02*
X112187000Y-102959800D01*
X110981000Y-93571700D02*
X110981000Y-101753800D01*
X111033700Y-93519000D02*
X110981000Y-93571700D01*
X111033700Y-88843700D02*
X111033700Y-93519000D01*
X110010000Y-87820000D02*
X111033700Y-88843700D01*
X78405000Y-65350000D02*
X78405000Y-66428900D01*
X192267800Y-87874100D02*
X192267800Y-81184800D01*
X193696700Y-89303000D02*
X192267800Y-87874100D01*
X193696700Y-81184800D02*
X192267800Y-81184800D01*
X80977100Y-68866100D02*
X80977100Y-73843900D01*
X78539900Y-66428900D02*
X80977100Y-68866100D01*
X78405000Y-66428900D02*
X78539900Y-66428900D01*
X112187000Y-99232700D02*
X113574900Y-100620600D01*
X112187000Y-97461000D02*
X112187000Y-99232700D01*
X171825700Y-135438200D02*
X173611100Y-137223600D01*
X171825700Y-99910200D02*
X171825700Y-135438200D01*
X175040000Y-137223600D02*
X173611100Y-137223600D01*
X150840000Y-137223600D02*
X149411100Y-137223600D01*
X138727400Y-99691300D02*
X138989500Y-99429200D01*
X138727400Y-126539900D02*
X138727400Y-99691300D01*
X149411100Y-137223600D02*
X138727400Y-126539900D01*
X126640000Y-137223600D02*
X125211100Y-137223600D01*
X107107000Y-97461000D02*
X107107000Y-100110600D01*
X125211100Y-137223600D02*
X125211100Y-110569200D01*
X110716300Y-103719900D02*
X110716300Y-107789700D01*
X107107000Y-100110600D02*
X110716300Y-103719900D01*
X102440000Y-137223600D02*
X103868900Y-137223600D01*
X104305100Y-136787400D02*
X103868900Y-137223600D01*
X104305100Y-115810600D02*
X104305100Y-136787400D01*
X104624800Y-115490900D02*
X104305100Y-115810600D01*
X104624800Y-112385800D02*
X104624800Y-115490900D01*
X106362100Y-110648500D02*
X104624800Y-112385800D01*
X106362100Y-107730500D02*
X106362100Y-110648500D01*
X106058700Y-107427100D02*
X106362100Y-107730500D01*
X106058700Y-102949400D02*
X106058700Y-107427100D01*
X106082300Y-102925800D02*
X106058700Y-102949400D01*
X106082300Y-102403300D02*
X106082300Y-102925800D01*
X104567000Y-100888000D02*
X106082300Y-102403300D01*
X104567000Y-97461000D02*
X104567000Y-100888000D01*
X75865000Y-88210000D02*
X75865000Y-87131100D01*
X106478600Y-65053300D02*
X105330900Y-63905600D01*
X106478600Y-69048600D02*
X106478600Y-65053300D01*
X107470000Y-70040000D02*
X106478600Y-69048600D01*
X179695100Y-65431600D02*
X179695100Y-61173000D01*
X181478300Y-67214800D02*
X179695100Y-65431600D01*
X182660900Y-67214800D02*
X181478300Y-67214800D01*
X184257600Y-68811500D02*
X182660900Y-67214800D01*
X184257600Y-69721500D02*
X184257600Y-68811500D01*
X104526700Y-63905600D02*
X105330900Y-63905600D01*
X101517800Y-60896700D02*
X104526700Y-63905600D01*
X97022600Y-60896700D02*
X101517800Y-60896700D01*
X92406300Y-65513000D02*
X97022600Y-60896700D01*
X92406300Y-66571000D02*
X92406300Y-65513000D01*
X83300000Y-75677300D02*
X92406300Y-66571000D01*
X83300000Y-78487400D02*
X83300000Y-75677300D01*
X77584200Y-84203200D02*
X83300000Y-78487400D01*
X77584200Y-85954900D02*
X77584200Y-84203200D01*
X76408000Y-87131100D02*
X77584200Y-85954900D01*
X75865000Y-87131100D02*
X76408000Y-87131100D01*
X105920900Y-59728000D02*
X105826500Y-59633600D01*
X105920900Y-63315600D02*
X105920900Y-59728000D01*
X105330900Y-63905600D02*
X105920900Y-63315600D01*
X75865000Y-90750000D02*
X75865000Y-89671100D01*
X76000700Y-89671100D02*
X75865000Y-89671100D01*
X78034900Y-87636900D02*
X76000700Y-89671100D01*
X78034900Y-85528000D02*
X78034900Y-87636900D01*
X85776200Y-77786700D02*
X78034900Y-85528000D01*
X85776200Y-76729700D02*
X85776200Y-77786700D01*
X95005900Y-67500000D02*
X85776200Y-76729700D01*
X104930000Y-67500000D02*
X95005900Y-67500000D01*
X75865000Y-93290000D02*
X75865000Y-92211100D01*
X95581600Y-70040000D02*
X104930000Y-70040000D01*
X88380000Y-77241600D02*
X95581600Y-70040000D01*
X88380000Y-77943300D02*
X88380000Y-77241600D01*
X84344000Y-81979300D02*
X88380000Y-77943300D01*
X84344000Y-83794900D02*
X84344000Y-81979300D01*
X83302600Y-84836300D02*
X84344000Y-83794900D01*
X81382600Y-84836300D02*
X83302600Y-84836300D01*
X78339900Y-87879000D02*
X81382600Y-84836300D01*
X78339900Y-89871200D02*
X78339900Y-87879000D01*
X76000000Y-92211100D02*
X78339900Y-89871200D01*
X75865000Y-92211100D02*
X76000000Y-92211100D01*
X184647800Y-64123400D02*
X184647800Y-65944800D01*
X182659200Y-62134800D02*
X184647800Y-64123400D01*
X181481100Y-62134800D02*
X182659200Y-62134800D01*
X180553800Y-61207500D02*
X181481100Y-62134800D01*
X180553800Y-61109700D02*
X180553800Y-61207500D01*
X179665700Y-60221600D02*
X180553800Y-61109700D01*
X179213900Y-60221600D02*
X179665700Y-60221600D01*
X186076700Y-65944800D02*
X184647800Y-65944800D01*
X92101400Y-66444700D02*
X92101400Y-58363900D01*
X91481900Y-67064200D02*
X92101400Y-66444700D01*
X90984900Y-67064200D02*
X91481900Y-67064200D01*
X90984900Y-67064300D02*
X90984900Y-67064200D01*
X73325000Y-128850000D02*
X73325000Y-127771100D01*
X106479100Y-62008400D02*
X107402900Y-61084600D01*
X106479100Y-63969100D02*
X106479100Y-62008400D01*
X107470000Y-64960000D02*
X106479100Y-63969100D01*
X72782000Y-127771100D02*
X73325000Y-127771100D01*
X70584900Y-125574000D02*
X72782000Y-127771100D01*
X70584900Y-69043500D02*
X70584900Y-125574000D01*
X72887700Y-66740700D02*
X70584900Y-69043500D01*
X73974800Y-66740700D02*
X72887700Y-66740700D01*
X74487700Y-66227800D02*
X73974800Y-66740700D01*
X74487700Y-63331800D02*
X74487700Y-66227800D01*
X114727000Y-97461000D02*
X114727000Y-96032100D01*
X174450000Y-60864800D02*
X175878900Y-60864800D01*
X186076700Y-58324800D02*
X184647800Y-58324800D01*
X179447800Y-57295900D02*
X175878900Y-60864800D01*
X183618900Y-57295900D02*
X179447800Y-57295900D01*
X184647800Y-58324800D02*
X183618900Y-57295900D01*
X155170000Y-67510000D02*
X155170000Y-65960300D01*
X113540900Y-94846000D02*
X114727000Y-96032100D01*
X113540900Y-89949500D02*
X113540900Y-94846000D01*
X112461000Y-88869600D02*
X113540900Y-89949500D01*
X112187100Y-88869600D02*
X112461000Y-88869600D01*
X111000900Y-87683400D02*
X112187100Y-88869600D01*
X111000900Y-87406400D02*
X111000900Y-87683400D01*
X110144500Y-86550000D02*
X111000900Y-87406400D01*
X109859600Y-86550000D02*
X110144500Y-86550000D01*
X108740100Y-85430500D02*
X109859600Y-86550000D01*
X108740100Y-84010100D02*
X108740100Y-85430500D01*
X107470000Y-82740000D02*
X108740100Y-84010100D01*
X158916600Y-95661700D02*
X159247000Y-95992100D01*
X158916600Y-90868200D02*
X158916600Y-95661700D01*
X159995200Y-89789600D02*
X158916600Y-90868200D01*
X159995200Y-82587000D02*
X159995200Y-89789600D01*
X158599300Y-81191100D02*
X159995200Y-82587000D01*
X158599300Y-66462200D02*
X158599300Y-81191100D01*
X158097400Y-65960300D02*
X158599300Y-66462200D01*
X155170000Y-65960300D02*
X158097400Y-65960300D01*
X157710000Y-59890000D02*
X157710000Y-61439700D01*
X158904200Y-62633900D02*
X157710000Y-61439700D01*
X158904200Y-79399500D02*
X158904200Y-62633900D01*
X162506900Y-83002200D02*
X158904200Y-79399500D01*
X162506900Y-88951300D02*
X162506900Y-83002200D01*
X161695100Y-89763100D02*
X162506900Y-88951300D01*
X161695100Y-103320300D02*
X161695100Y-89763100D01*
X205323300Y-73564800D02*
X203894400Y-73564800D01*
X160250000Y-59890000D02*
X160250000Y-58340300D01*
X203634700Y-73305100D02*
X203634700Y-64844300D01*
X203894400Y-73564800D02*
X203634700Y-73305100D01*
X154801700Y-58340300D02*
X160250000Y-58340300D01*
X154280700Y-58861300D02*
X154801700Y-58340300D01*
X154280700Y-69377900D02*
X154280700Y-58861300D01*
X152777300Y-70881300D02*
X154280700Y-69377900D01*
X152777300Y-89452400D02*
X152777300Y-70881300D01*
X153762400Y-90437500D02*
X152777300Y-89452400D01*
X153762400Y-95296100D02*
X153762400Y-90437500D01*
X156225600Y-97759300D02*
X153762400Y-95296100D01*
X156225600Y-98160200D02*
X156225600Y-97759300D01*
X143740000Y-64690300D02*
X143740000Y-59229600D01*
X142470000Y-65960300D02*
X143740000Y-64690300D01*
X142470000Y-67510000D02*
X142470000Y-65960300D01*
X73325000Y-126310000D02*
X73325000Y-125231100D01*
X104930000Y-79398400D02*
X104930000Y-80200000D01*
X106307400Y-78021000D02*
X104930000Y-79398400D01*
X106307400Y-72289400D02*
X106307400Y-78021000D01*
X107286800Y-71310000D02*
X106307400Y-72289400D01*
X107653300Y-71310000D02*
X107286800Y-71310000D01*
X108484800Y-70478500D02*
X107653300Y-71310000D01*
X108484800Y-65032000D02*
X108484800Y-70478500D01*
X109826800Y-63690000D02*
X108484800Y-65032000D01*
X110193300Y-63690000D02*
X109826800Y-63690000D01*
X111128500Y-62754800D02*
X110193300Y-63690000D01*
X111128500Y-61335400D02*
X111128500Y-62754800D01*
X113269000Y-59194900D02*
X111128500Y-61335400D01*
X113269000Y-58166000D02*
X113269000Y-59194900D01*
X75501900Y-74339300D02*
X76680800Y-74339300D01*
X74442600Y-75398600D02*
X75501900Y-74339300D01*
X74442600Y-78520800D02*
X74442600Y-75398600D01*
X73683600Y-79279800D02*
X74442600Y-78520800D01*
X73097200Y-79279800D02*
X73683600Y-79279800D01*
X71233500Y-81143500D02*
X73097200Y-79279800D01*
X71233500Y-123274600D02*
X71233500Y-81143500D01*
X73190000Y-125231100D02*
X71233500Y-123274600D01*
X73325000Y-125231100D02*
X73190000Y-125231100D01*
X193696700Y-78644800D02*
X195125600Y-78644800D01*
X75865000Y-108530000D02*
X74786100Y-108530000D01*
X195125600Y-86725300D02*
X195125600Y-78644800D01*
X197703300Y-89303000D02*
X195125600Y-86725300D01*
X78405000Y-74521300D02*
X78405000Y-72970000D01*
X76146300Y-76780000D02*
X78405000Y-74521300D01*
X75550700Y-76780000D02*
X76146300Y-76780000D01*
X74786100Y-77544600D02*
X75550700Y-76780000D01*
X74786100Y-80713400D02*
X74786100Y-77544600D01*
X73639500Y-81860000D02*
X74786100Y-80713400D01*
X73030500Y-81860000D02*
X73639500Y-81860000D01*
X71540400Y-83350100D02*
X73030500Y-81860000D01*
X71540400Y-105744500D02*
X71540400Y-83350100D01*
X72948500Y-107152600D02*
X71540400Y-105744500D01*
X73520500Y-107152600D02*
X72948500Y-107152600D01*
X74786100Y-108418200D02*
X73520500Y-107152600D01*
X74786100Y-108530000D02*
X74786100Y-108418200D01*
X195017200Y-91989100D02*
X197703300Y-89303000D01*
X195017200Y-106566100D02*
X195017200Y-91989100D01*
X195969000Y-107517900D02*
X195017200Y-106566100D01*
X195969000Y-110319100D02*
X195969000Y-107517900D01*
X196958900Y-111309000D02*
X195969000Y-110319100D01*
X197099200Y-111309000D02*
X196958900Y-111309000D01*
X198001300Y-112211100D02*
X197099200Y-111309000D01*
X198001300Y-124309700D02*
X198001300Y-112211100D01*
X197032000Y-125279000D02*
X198001300Y-124309700D01*
X73325000Y-133930000D02*
X73325000Y-132851100D01*
X82030000Y-77974400D02*
X82030000Y-79069300D01*
X82030000Y-77460000D02*
X82030000Y-63632100D01*
X77129200Y-83970100D02*
X82030000Y-79069300D01*
X77129200Y-85978700D02*
X77129200Y-83970100D01*
X76295500Y-86812400D02*
X77129200Y-85978700D01*
X75676200Y-86812400D02*
X76295500Y-86812400D01*
X74635200Y-87853400D02*
X75676200Y-86812400D01*
X74635200Y-88474200D02*
X74635200Y-87853400D01*
X73629400Y-89480000D02*
X74635200Y-88474200D01*
X73028100Y-89480000D02*
X73629400Y-89480000D01*
X71845300Y-90662800D02*
X73028100Y-89480000D01*
X71845300Y-103567500D02*
X71845300Y-90662800D01*
X73006300Y-104728500D02*
X71845300Y-103567500D01*
X73592200Y-104728500D02*
X73006300Y-104728500D01*
X74595000Y-105731300D02*
X73592200Y-104728500D01*
X74595000Y-106315800D02*
X74595000Y-105731300D01*
X75539200Y-107260000D02*
X74595000Y-106315800D01*
X76186900Y-107260000D02*
X75539200Y-107260000D01*
X76981700Y-108054800D02*
X76186900Y-107260000D01*
X76981700Y-131799100D02*
X76981700Y-108054800D01*
X75929700Y-132851100D02*
X76981700Y-131799100D01*
X73325000Y-132851100D02*
X75929700Y-132851100D01*
X84570000Y-77460000D02*
X84570000Y-76431100D01*
X93200500Y-67800600D02*
X93200500Y-66465000D01*
X84570000Y-76431100D02*
X93200500Y-67800600D01*
X105386600Y-81206200D02*
X104480100Y-81206200D01*
X105982400Y-80610400D02*
X105386600Y-81206200D01*
X105982400Y-79147600D02*
X105982400Y-80610400D01*
X107470000Y-77660000D02*
X105982400Y-79147600D01*
X98030000Y-63200000D02*
X97030000Y-62200000D01*
X101768800Y-63200000D02*
X98030000Y-63200000D01*
X104519700Y-65950900D02*
X101768800Y-63200000D01*
X104807500Y-65950900D02*
X104519700Y-65950900D01*
X105958400Y-67101800D02*
X104807500Y-65950900D01*
X105958400Y-72962100D02*
X105958400Y-67101800D01*
X105112800Y-73807700D02*
X105958400Y-72962100D01*
X104829700Y-73807700D02*
X105112800Y-73807700D01*
X103907800Y-74729600D02*
X104829700Y-73807700D01*
X103907800Y-80633900D02*
X103907800Y-74729600D01*
X104480100Y-81206200D02*
X103907800Y-80633900D01*
X73325000Y-136470000D02*
X74403900Y-136470000D01*
X92083400Y-95815700D02*
X91867000Y-96032100D01*
X92083400Y-88112700D02*
X92083400Y-95815700D01*
X91867000Y-97461000D02*
X91867000Y-96032100D01*
X84087500Y-95741700D02*
X83973800Y-95628000D01*
X84087500Y-127302100D02*
X84087500Y-95741700D01*
X76071500Y-135318100D02*
X84087500Y-127302100D01*
X75444000Y-135318100D02*
X76071500Y-135318100D01*
X74403900Y-136358200D02*
X75444000Y-135318100D01*
X74403900Y-136470000D02*
X74403900Y-136358200D01*
X103935700Y-81750600D02*
X104480100Y-81206200D01*
X103935700Y-88317100D02*
X103935700Y-81750600D01*
X104873400Y-89254800D02*
X103935700Y-88317100D01*
X105700300Y-89254800D02*
X104873400Y-89254800D01*
X140108900Y-85417800D02*
X135410000Y-80718900D01*
X140298100Y-85417800D02*
X140108900Y-85417800D01*
X157465000Y-100025000D02*
X157465000Y-98596100D01*
X156748600Y-98596100D02*
X157465000Y-98596100D01*
X156520900Y-98823800D02*
X156748600Y-98596100D01*
X156000000Y-98823800D02*
X156520900Y-98823800D01*
X153824200Y-96648000D02*
X156000000Y-98823800D01*
X153335700Y-96648000D02*
X153824200Y-96648000D01*
X151115000Y-94427300D02*
X153335700Y-96648000D01*
X151115000Y-91742300D02*
X151115000Y-94427300D01*
X149996500Y-90623800D02*
X151115000Y-91742300D01*
X149623500Y-90623800D02*
X149996500Y-90623800D01*
X147387700Y-88388000D02*
X149623500Y-90623800D01*
X147387700Y-87537200D02*
X147387700Y-88388000D01*
X146725800Y-86875300D02*
X147387700Y-87537200D01*
X145016000Y-86875300D02*
X146725800Y-86875300D01*
X138249900Y-80109200D02*
X145016000Y-86875300D01*
X137859200Y-80109200D02*
X138249900Y-80109200D01*
X135410000Y-77660000D02*
X137859200Y-80109200D01*
X154925000Y-100025000D02*
X154925000Y-101453900D01*
X151905900Y-101453900D02*
X154925000Y-101453900D01*
X151109400Y-100657400D02*
X151905900Y-101453900D01*
X151109400Y-98878400D02*
X151109400Y-100657400D01*
X146143900Y-93912900D02*
X151109400Y-98878400D01*
X146143900Y-90967300D02*
X146143900Y-93912900D01*
X141769200Y-86592600D02*
X146143900Y-90967300D01*
X141769200Y-84059700D02*
X141769200Y-86592600D01*
X138123600Y-80414100D02*
X141769200Y-84059700D01*
X137692400Y-80414100D02*
X138123600Y-80414100D01*
X136026100Y-78747800D02*
X137692400Y-80414100D01*
X133957800Y-78747800D02*
X136026100Y-78747800D01*
X132870000Y-77660000D02*
X133957800Y-78747800D01*
M02*
