M48
; DRILL file {KiCad (6.0.0-0)} date Saturday, 11 November 2023 at 14:05:01
; FORMAT={-:-/ absolute / inch / decimal}
; #@! TF.CreationDate,2023-11-11T14:05:01+00:00
; #@! TF.GenerationSoftware,Kicad,Pcbnew,(6.0.0-0)
; #@! TF.FileFunction,Plated,1,4,PTH
FMAT,2
INCH
; #@! TA.AperFunction,Plated,PTH,ViaDrill
T1C0.0157
; #@! TA.AperFunction,Plated,PTH,ComponentDrill
T2C0.0276
; #@! TA.AperFunction,Plated,PTH,ComponentDrill
T3C0.0300
; #@! TA.AperFunction,Plated,PTH,ComponentDrill
T4C0.0315
; #@! TA.AperFunction,Plated,PTH,ComponentDrill
T5C0.0320
; #@! TA.AperFunction,Plated,PTH,ComponentDrill
T6C0.0394
; #@! TA.AperFunction,Plated,PTH,ComponentDrill
T7C0.0400
; #@! TA.AperFunction,Plated,PTH,ComponentDrill
T8C0.1260
%
G90
G05
T1
X2.9326Y-2.4934
X3.0086Y-2.3506
X3.0189Y-2.9267
X3.0461Y-2.3524
X3.1881Y-2.9072
X3.2042Y-2.5497
X3.2295Y-2.5052
X3.261Y-4.903
X3.2858Y-4.832
X3.3061Y-3.7649
X3.352Y-3.4593
X3.3624Y-3.9253
X3.3647Y-3.5724
X3.4128Y-3.9383
X3.5821Y-2.6403
X3.6013Y-2.3369
X3.6013Y-2.6056
X3.6253Y-3.469
X3.626Y-2.2978
X3.6341Y-4.6044
X3.662Y-4.1832
X3.662Y-4.7874
X3.664Y-3.1575
X3.6693Y-2.6167
X3.7034Y-4.5096
X3.7325Y-2.7004
X3.7717Y-3.7777
X3.7974Y-3.9815
X3.8763Y-3.9383
X3.8889Y-4.8776
X4.1313Y-4.5697
X4.1497Y-4.429
X4.1517Y-4.0419
X4.1614Y-3.514
X4.1664Y-2.3478
X4.2285Y-2.4049
X4.2836Y-2.918
X4.3236Y-4.0131
X4.3589Y-4.2437
X4.3941Y-3.6942
X4.4168Y-4.0535
X4.4198Y-3.1567
X4.4563Y-4.5527
X4.4711Y-3.2351
X4.4715Y-3.9614
X4.4737Y-3.8956
X4.4833Y-2.9542
X4.4833Y-3.0344
X4.538Y-3.9726
X4.573Y-4.8805
X4.6084Y-4.0672
X4.6301Y-3.821
X4.6591Y-3.5112
X4.6674Y-3.2099
X4.7329Y-3.2141
X4.7344Y-3.0023
X4.7853Y-2.9411
X4.8457Y-4.2558
X4.8764Y-3.5197
X4.8776Y-4.4872
X4.9191Y-3.3437
X4.9296Y-4.3531
X4.9909Y-4.138
X5.0251Y-2.834
X5.0493Y-5.7617
X5.0789Y-4.8795
X5.0797Y-5.5233
X5.0835Y-5.4301
X5.094Y-3.5205
X5.0954Y-5.3064
X5.0983Y-5.884
X5.1006Y-4.7248
X5.1048Y-2.2099
X5.1165Y-5.7451
X5.176Y-3.1096
X5.1878Y-2.3807
X5.1927Y-4.5206
X5.1998Y-5.4104
X5.2076Y-2.1979
X5.2207Y-5.6025
X5.2312Y-5.4713
X5.2391Y-5.7845
X5.2455Y-4.7018
X5.2643Y-4.5385
X5.2666Y-4.8728
X5.3114Y-4.2438
X5.3919Y-3.0541
X5.4045Y-5.5595
X5.4273Y-3.3852
X5.4368Y-3.1075
X5.4398Y-2.4574
X5.4461Y-5.5343
X5.4664Y-3.3482
X5.4705Y-3.1457
X5.472Y-5.3022
X5.472Y-3.9145
X5.4767Y-3.4522
X5.4767Y-3.5685
X5.4778Y-2.4646
X5.4871Y-4.8349
X5.5028Y-2.326
X5.5065Y-3.628
X5.5235Y-3.3629
X5.5425Y-3.5822
X5.551Y-3.4735
X5.5598Y-3.7054
X5.5832Y-4.095
X5.6591Y-2.3319
X5.7743Y-5.7793
X5.8695Y-4.1282
X6.0053Y-4.6274
X6.0091Y-5.4763
X6.0335Y-4.753
X6.0471Y-3.7803
X6.1049Y-5.3023
X6.119Y-4.8117
X6.1506Y-3.8646
X6.161Y-2.7068
X6.1781Y-4.4176
X6.2131Y-3.5421
X6.2351Y-5.2633
X6.2696Y-3.7792
X6.3158Y-3.5533
X6.3201Y-4.0488
X6.3305Y-3.7791
X6.3659Y-4.0677
X6.4441Y-2.4785
X6.4664Y-3.0625
X6.4726Y-2.5335
X6.4983Y-3.1153
X6.5456Y-2.4598
X6.5591Y-2.6749
X6.6772Y-3.7371
X6.7648Y-3.9335
X6.7798Y-2.5903
X6.8046Y-3.3642
X6.8365Y-4.0321
X6.9476Y-4.3147
X6.9636Y-4.4646
X7.0526Y-4.3266
X7.0534Y-4.7925
X7.0557Y-2.3709
X7.0746Y-2.4084
X7.085Y-4.951
X7.1982Y-4.9749
X7.2178Y-4.6642
X7.2504Y-2.9414
X7.2542Y-2.7449
X7.2908Y-5.0179
X7.3947Y-4.7652
X7.5015Y-3.2476
X7.5015Y-3.4372
X7.5376Y-3.4038
X7.5479Y-4.519
X7.614Y-4.5632
X7.7064Y-2.333
X7.734Y-5.278
X7.734Y-5.2345
X7.7381Y-3.3463
X7.8224Y-3.6636
X8.0171Y-2.5529
X8.0273Y-3.3464
X8.1207Y-4.3581
X8.1685Y-2.5514
X8.43Y-4.493
T2
X4.1311Y-2.4575
X4.1311Y-2.5575
X4.1311Y-2.6575
X4.1311Y-2.7575
X4.1311Y-2.8575
X4.1311Y-2.9575
X4.1311Y-3.0575
X4.1311Y-3.1575
X4.1311Y-3.2575
X4.1311Y-3.3575
X4.1311Y-3.4575
X4.1311Y-3.5575
X4.1311Y-3.6575
X4.2311Y-2.4575
X4.2311Y-2.5575
X4.2311Y-2.6575
X4.2311Y-2.7575
X4.2311Y-2.8575
X4.2311Y-2.9575
X4.2311Y-3.0575
X4.2311Y-3.1575
X4.2311Y-3.2575
X4.2311Y-3.3575
X4.2311Y-3.4575
X4.2311Y-3.5575
X4.2311Y-3.6575
X4.3311Y-2.4575
X4.3311Y-2.5575
X4.3311Y-2.6575
X4.3311Y-2.7575
X4.3311Y-2.8575
X4.3311Y-2.9575
X4.3311Y-3.0575
X4.3311Y-3.1575
X4.3311Y-3.2575
X4.3311Y-3.3575
X4.3311Y-3.4575
X4.3311Y-3.5575
X4.3311Y-3.6575
X4.4311Y-2.4575
X4.4311Y-2.5575
X4.4311Y-2.6575
X4.4311Y-3.4575
X4.4311Y-3.5575
X4.4311Y-3.6575
X4.5311Y-2.4575
X4.5311Y-2.5575
X4.5311Y-2.6575
X4.5311Y-3.3575
X4.5311Y-3.4575
X4.5311Y-3.5575
X4.5311Y-3.6575
X4.6311Y-2.4575
X4.6311Y-2.5575
X4.6311Y-2.6575
X4.6311Y-3.4575
X4.6311Y-3.5575
X4.6311Y-3.6575
X4.7311Y-2.4575
X4.7311Y-2.5575
X4.7311Y-2.6575
X4.7311Y-3.4575
X4.7311Y-3.5575
X4.7311Y-3.6575
X4.8311Y-2.4575
X4.8311Y-2.5575
X4.8311Y-2.6575
X4.8311Y-3.4575
X4.8311Y-3.5575
X4.8311Y-3.6575
X4.9311Y-2.4575
X4.9311Y-2.5575
X4.9311Y-2.6575
X4.9311Y-3.4575
X4.9311Y-3.5575
X4.9311Y-3.6575
X5.0311Y-2.4575
X5.0311Y-2.5575
X5.0311Y-2.6575
X5.0311Y-2.9575
X5.0311Y-3.3575
X5.0311Y-3.4575
X5.0311Y-3.5575
X5.0311Y-3.6575
X5.1311Y-2.4575
X5.1311Y-2.5575
X5.1311Y-2.6575
X5.1311Y-2.8575
X5.1311Y-2.9575
X5.1311Y-3.0575
X5.1311Y-3.1575
X5.1311Y-3.2575
X5.1311Y-3.4575
X5.1311Y-3.5575
X5.1311Y-3.6575
X5.2311Y-2.4575
X5.2311Y-2.5575
X5.2311Y-2.6575
X5.2311Y-2.7575
X5.2311Y-2.8575
X5.2311Y-2.9575
X5.2311Y-3.0575
X5.2311Y-3.1575
X5.2311Y-3.2575
X5.2311Y-3.3575
X5.2311Y-3.4575
X5.2311Y-3.5575
X5.2311Y-3.6575
X5.3311Y-2.4575
X5.3311Y-2.5575
X5.3311Y-2.6575
X5.3311Y-2.7575
X5.3311Y-2.8575
X5.3311Y-2.9575
X5.3311Y-3.0575
X5.3311Y-3.1575
X5.3311Y-3.2575
X5.3311Y-3.3575
X5.3311Y-3.4575
X5.3311Y-3.5575
X5.3311Y-3.6575
T3
X4.4311Y-2.7575
X4.4311Y-2.9575
X4.4311Y-3.3575
X4.5311Y-2.7575
X5.0311Y-2.7575
X5.1311Y-2.7575
X5.1311Y-3.3575
T4
X3.1295Y-3.0496
X3.2295Y-3.0496
X3.3295Y-3.0496
X3.4168Y-3.837
X3.4168Y-4.137
X3.4295Y-3.0496
X3.4331Y-4.4025
X3.4331Y-4.5025
X3.4331Y-4.6025
X3.4331Y-4.7025
X3.4331Y-4.8025
X3.4331Y-4.9025
X3.4331Y-5.0025
X3.4331Y-5.1025
X3.4331Y-5.2025
X3.4331Y-5.3025
X3.4331Y-5.4025
X3.4331Y-5.5025
X3.4331Y-5.6025
X3.4331Y-5.7025
X3.4331Y-5.8025
X3.4331Y-5.9025
X3.5168Y-3.837
X3.5168Y-4.137
X3.5295Y-3.0496
X3.6168Y-3.837
X3.6168Y-4.137
X3.6295Y-3.0496
X3.7168Y-3.837
X3.7168Y-4.137
X3.7295Y-3.0496
X3.8168Y-3.837
X3.8168Y-4.137
X3.8295Y-3.0496
X3.9168Y-3.837
X3.9168Y-4.137
X3.9295Y-3.0496
X4.0168Y-3.837
X4.0168Y-4.137
X4.0331Y-4.4025
X4.0331Y-4.5025
X4.0331Y-4.6025
X4.0331Y-4.7025
X4.0331Y-4.8025
X4.0331Y-4.9025
X4.0331Y-5.0025
X4.0331Y-5.1025
X4.0331Y-5.2025
X4.0331Y-5.3025
X4.0331Y-5.4025
X4.0331Y-5.5025
X4.0331Y-5.6025
X4.0331Y-5.7025
X4.0331Y-5.8025
X4.0331Y-5.9025
X4.1168Y-3.837
X4.1168Y-4.137
X4.2168Y-3.837
X4.2168Y-4.137
X4.3168Y-3.837
X4.3168Y-4.137
X4.3594Y-2.29
X4.3858Y-4.4025
X4.3858Y-4.5025
X4.3858Y-4.6025
X4.3858Y-4.7025
X4.3858Y-4.8025
X4.3858Y-4.9025
X4.3858Y-5.0025
X4.3858Y-5.1025
X4.3858Y-5.2025
X4.3858Y-5.3025
X4.3858Y-5.4025
X4.3858Y-5.5025
X4.3858Y-5.6025
X4.3858Y-5.7025
X4.3858Y-5.8025
X4.3858Y-5.9025
X4.4168Y-3.837
X4.4168Y-4.137
X4.4594Y-2.29
X4.5168Y-3.837
X4.5168Y-4.137
X4.5594Y-2.29
X4.6594Y-2.29
X4.7594Y-2.29
X4.8594Y-2.29
X4.9594Y-2.29
X4.9858Y-4.4025
X4.9858Y-4.5025
X4.9858Y-4.6025
X4.9858Y-4.7025
X4.9858Y-4.8025
X4.9858Y-4.9025
X4.9858Y-5.0025
X4.9858Y-5.1025
X4.9858Y-5.2025
X4.9858Y-5.3025
X4.9858Y-5.4025
X4.9858Y-5.5025
X4.9858Y-5.6025
X4.9858Y-5.7025
X4.9858Y-5.8025
X4.9858Y-5.9025
X5.0594Y-2.29
X5.1594Y-2.29
X5.3386Y-4.4025
X5.3386Y-4.5025
X5.3386Y-4.6025
X5.3386Y-4.7025
X5.3386Y-4.8025
X5.3386Y-4.9025
X5.3386Y-5.0025
X5.3386Y-5.1025
X5.3386Y-5.2025
X5.3386Y-5.3025
X5.3386Y-5.4025
X5.3386Y-5.5025
X5.3386Y-5.6025
X5.3386Y-5.7025
X5.3386Y-5.8025
X5.3386Y-5.9025
X5.5902Y-2.8461
X5.5902Y-3.1461
X5.5994Y-3.638
X5.5994Y-3.938
X5.6994Y-3.638
X5.6994Y-3.938
X5.7569Y-3.3425
X5.7569Y-3.4764
X5.7994Y-3.638
X5.7994Y-3.938
X5.8569Y-3.3425
X5.8569Y-3.4764
X5.8902Y-2.8461
X5.8902Y-3.1461
X5.8994Y-3.638
X5.8994Y-3.938
X5.9386Y-4.4025
X5.9386Y-4.5025
X5.9386Y-4.6025
X5.9386Y-4.7025
X5.9386Y-4.8025
X5.9386Y-4.9025
X5.9386Y-5.0025
X5.9386Y-5.1025
X5.9386Y-5.2025
X5.9386Y-5.3025
X5.9386Y-5.4025
X5.9386Y-5.5025
X5.9386Y-5.6025
X5.9386Y-5.7025
X5.9386Y-5.8025
X5.9386Y-5.9025
X5.9569Y-3.3425
X5.9569Y-3.4764
X5.9994Y-3.638
X5.9994Y-3.938
X6.0569Y-3.3425
X6.0569Y-3.4764
X6.0994Y-3.638
X6.0994Y-3.938
X6.1569Y-3.3425
X6.1569Y-3.4764
X6.1994Y-3.638
X6.1994Y-3.938
X6.2569Y-3.3425
X6.2569Y-3.4764
X6.2913Y-4.4025
X6.2913Y-4.5025
X6.2913Y-4.6025
X6.2913Y-4.7025
X6.2913Y-4.8025
X6.2913Y-4.9025
X6.2913Y-5.0025
X6.2913Y-5.1025
X6.2913Y-5.2025
X6.2913Y-5.3025
X6.2913Y-5.4025
X6.2913Y-5.5025
X6.2913Y-5.6025
X6.2913Y-5.7025
X6.2913Y-5.8025
X6.2913Y-5.9025
X6.2994Y-3.638
X6.2994Y-3.938
X6.3569Y-3.3425
X6.3569Y-3.4764
X6.4569Y-3.3425
X6.4569Y-3.4764
X6.5569Y-3.3425
X6.5569Y-3.4764
X6.8681Y-2.2963
X6.8681Y-2.3963
X6.8681Y-2.4963
X6.8681Y-2.5963
X6.8681Y-2.6963
X6.8681Y-2.7963
X6.8681Y-2.8963
X6.8681Y-2.9963
X6.8681Y-3.0963
X6.8681Y-3.1963
X6.8681Y-3.2963
X6.8681Y-3.3963
X6.8913Y-4.4025
X6.8913Y-4.5025
X6.8913Y-4.6025
X6.8913Y-4.7025
X6.8913Y-4.8025
X6.8913Y-4.9025
X6.8913Y-5.0025
X6.8913Y-5.1025
X6.8913Y-5.2025
X6.8913Y-5.3025
X6.8913Y-5.4025
X6.8913Y-5.5025
X6.8913Y-5.6025
X6.8913Y-5.7025
X6.8913Y-5.8025
X6.8913Y-5.9025
X7.1681Y-2.2963
X7.1681Y-2.3963
X7.1681Y-2.4963
X7.1681Y-2.5963
X7.1681Y-2.6963
X7.1681Y-2.7963
X7.1681Y-2.8963
X7.1681Y-2.9963
X7.1681Y-3.0963
X7.1681Y-3.1963
X7.1681Y-3.2963
X7.1681Y-3.3963
X7.2572Y-4.4322
X7.2572Y-4.5322
X7.2572Y-4.6322
X7.2572Y-4.7322
X7.2572Y-4.8322
X7.2572Y-4.9322
X7.3259Y-2.2963
X7.3259Y-2.3963
X7.3259Y-2.4963
X7.3259Y-2.5963
X7.3259Y-2.6963
X7.3259Y-2.7963
X7.3259Y-2.8963
X7.3259Y-2.9963
X7.3259Y-3.0963
X7.3259Y-3.1963
X7.3259Y-3.2963
X7.3259Y-3.3963
X7.3572Y-4.3322
X7.3572Y-4.4322
X7.3572Y-4.5322
X7.3572Y-4.6322
X7.3572Y-4.7322
X7.3572Y-4.8322
X7.3572Y-4.9322
X7.3572Y-5.0322
X7.4572Y-4.3322
X7.4572Y-4.4322
X7.4572Y-4.9322
X7.4572Y-5.0322
X7.5107Y-5.4505
X7.5572Y-4.3322
X7.5572Y-4.4322
X7.5572Y-4.9322
X7.5572Y-5.0322
X7.6259Y-2.2963
X7.6259Y-2.3963
X7.6259Y-2.4963
X7.6259Y-2.5963
X7.6259Y-2.6963
X7.6259Y-2.7963
X7.6259Y-2.8963
X7.6259Y-2.9963
X7.6259Y-3.0963
X7.6259Y-3.1963
X7.6259Y-3.2963
X7.6259Y-3.3963
X7.6572Y-4.3322
X7.6572Y-4.4322
X7.6572Y-4.9322
X7.6572Y-5.0322
X7.7028Y-5.4505
X7.7572Y-4.3322
X7.7572Y-4.4322
X7.7572Y-4.9322
X7.7572Y-5.0322
X7.7836Y-2.2963
X7.7836Y-2.3963
X7.7836Y-2.4963
X7.7836Y-2.5963
X7.7836Y-2.6963
X7.7836Y-2.7963
X7.7836Y-2.8963
X7.7836Y-2.9963
X7.7836Y-3.0963
X7.7836Y-3.1963
X7.7836Y-3.2963
X7.7836Y-3.3963
X7.8572Y-4.3322
X7.8572Y-4.4322
X7.8572Y-4.5322
X7.8572Y-4.6322
X7.8572Y-4.7322
X7.8572Y-4.8322
X7.8572Y-4.9322
X7.8572Y-5.0322
X7.9572Y-4.4322
X7.9572Y-4.5322
X7.9572Y-4.6322
X7.9572Y-4.7322
X7.9572Y-4.8322
X7.9572Y-4.9322
X8.0836Y-2.2963
X8.0836Y-2.3963
X8.0836Y-2.4963
X8.0836Y-2.5963
X8.0836Y-2.6963
X8.0836Y-2.7963
X8.0836Y-2.8963
X8.0836Y-2.9963
X8.0836Y-3.0963
X8.0836Y-3.1963
X8.0836Y-3.2963
X8.0836Y-3.3963
X8.2374Y-3.0994
X8.2374Y-3.1994
X8.2374Y-3.2994
X8.2374Y-3.3994
X8.5374Y-3.0994
X8.5374Y-3.1994
X8.5374Y-3.2994
X8.5374Y-3.3994
T5
X3.4201Y-2.4488
X3.4333Y-3.5866
X3.5333Y-3.5866
X3.7402Y-4.2753
X3.8201Y-2.4488
X3.9488Y-2.4382
X3.9488Y-2.5382
X3.9488Y-3.2256
X3.9488Y-3.3256
X4.1402Y-4.2753
X4.1615Y-4.8583
X4.2615Y-4.8583
X4.7846Y-3.8701
X4.8846Y-3.8701
X4.9114Y-4.1272
X4.9114Y-4.2272
X5.0327Y-3.8701
X5.111Y-4.1072
X5.1123Y-5.9552
X5.1327Y-3.8701
X5.2123Y-5.9552
X5.2807Y-3.8701
X5.29Y-2.29
X5.3807Y-3.8701
X5.39Y-2.29
X5.5Y-3.2961
X5.5Y-3.6961
X5.511Y-4.1072
X5.6091Y-2.3579
X5.6091Y-2.6579
X5.7091Y-2.3579
X5.7091Y-2.6579
X5.7145Y-4.1316
X5.8091Y-2.3579
X5.8091Y-2.6579
X5.8145Y-4.1316
X5.9091Y-2.3579
X5.9091Y-2.6579
X6.0091Y-2.3579
X6.0091Y-2.6579
X6.0535Y-2.8551
X6.0642Y-5.9552
X6.1091Y-2.3579
X6.1091Y-2.6579
X6.1642Y-5.9552
X6.2091Y-2.3579
X6.2091Y-2.6579
X6.2913Y-4.174
X6.2913Y-4.274
X6.3091Y-2.3579
X6.3091Y-2.6579
X6.4091Y-2.3579
X6.4091Y-2.6579
X6.4368Y-3.7374
X6.4368Y-3.8374
X6.4535Y-2.8551
X6.5091Y-2.3579
X6.5091Y-2.6579
X6.6357Y-2.2953
X6.7143Y-2.4677
X6.7143Y-2.5677
X6.7146Y-2.6697
X6.7146Y-2.7697
X6.7146Y-3.0001
X6.7146Y-3.1001
X6.7357Y-2.2953
X6.9677Y-3.5405
X7.0047Y-4.1535
X7.0161Y-5.9552
X7.044Y-5.0166
X7.044Y-5.1166
X7.0677Y-3.5405
X7.0987Y-5.4505
X7.1161Y-5.9552
X7.1987Y-5.4505
X7.1987Y-5.7537
X7.1987Y-6.0136
X7.2987Y-5.4505
X7.2987Y-5.7537
X7.4047Y-4.1535
X7.4255Y-3.5405
X7.4987Y-5.7528
X7.5255Y-3.5405
X7.5987Y-5.7528
X7.5987Y-6.0136
X7.6259Y-3.5159
X7.6259Y-3.9159
X7.7193Y-4.132
X7.738Y-6.0136
X7.7836Y-3.5159
X7.7836Y-3.9159
X7.789Y-5.7537
X7.8193Y-4.132
X7.889Y-5.7537
X7.8905Y-3.5405
X7.9122Y-5.4505
X7.9313Y-4.132
X7.9905Y-3.5405
X8.0122Y-5.4505
X8.0313Y-4.132
X8.038Y-5.7528
X8.1122Y-5.4505
X8.138Y-5.7528
X8.138Y-6.0136
X8.2262Y-4.3424
X8.2262Y-4.698
X8.2262Y-5.0537
X8.2307Y-2.3988
X8.2374Y-2.5768
X8.2374Y-2.9768
X8.2426Y-3.5178
X8.2426Y-3.9178
X8.3262Y-4.3424
X8.3262Y-4.698
X8.3262Y-5.0537
X8.3307Y-2.3988
X8.3889Y-2.5768
X8.3889Y-2.9768
X8.43Y-5.624
X8.4906Y-2.3953
X8.5374Y-2.5768
X8.5374Y-2.9768
X8.57Y-5.624
X8.5906Y-2.3953
X8.7189Y-3.1309
X8.7189Y-3.3898
X8.7797Y-5.627
X8.8189Y-3.1309
X8.8189Y-3.3898
X8.8797Y-5.627
T6
X2.8868Y-2.5728
X2.8868Y-2.6728
X2.8868Y-2.7728
X2.8868Y-2.8728
X2.8868Y-2.9728
X2.8868Y-3.0728
X2.8868Y-3.1728
X2.8868Y-3.2728
X2.8868Y-3.3728
X2.8868Y-3.4728
X2.8868Y-3.5728
X2.8868Y-3.6728
X2.8868Y-3.7728
X2.8868Y-3.8728
X2.8868Y-3.9728
X2.8868Y-4.0728
X2.8868Y-4.1728
X2.8868Y-4.2728
X2.8868Y-4.3728
X2.8868Y-4.4728
X2.8868Y-4.5728
X2.8868Y-4.6728
X2.8868Y-4.7728
X2.8868Y-4.8728
X2.8868Y-4.9728
X2.8868Y-5.0728
X2.8868Y-5.1728
X2.8868Y-5.2728
X2.8868Y-5.3728
X2.8868Y-5.4728
X2.8868Y-5.5728
X2.8868Y-5.6728
X2.9868Y-2.5728
X2.9868Y-2.6728
X2.9868Y-2.7728
X2.9868Y-2.8728
X2.9868Y-2.9728
X2.9868Y-3.0728
X2.9868Y-3.1728
X2.9868Y-3.2728
X2.9868Y-3.3728
X2.9868Y-3.4728
X2.9868Y-3.5728
X2.9868Y-3.6728
X2.9868Y-3.7728
X2.9868Y-3.8728
X2.9868Y-3.9728
X2.9868Y-4.0728
X2.9868Y-4.1728
X2.9868Y-4.2728
X2.9868Y-4.3728
X2.9868Y-4.4728
X2.9868Y-4.5728
X2.9868Y-4.6728
X2.9868Y-4.7728
X2.9868Y-4.8728
X2.9868Y-4.9728
X2.9868Y-5.0728
X2.9868Y-5.1728
X2.9868Y-5.2728
X2.9868Y-5.3728
X2.9868Y-5.4728
X2.9868Y-5.5728
X2.9868Y-5.6728
X3.0868Y-2.5728
X3.0868Y-2.6728
X3.0868Y-2.7728
X3.0868Y-2.8728
X4.2115Y-4.4089
X4.2115Y-4.5089
X4.2115Y-4.6089
X4.2115Y-4.7089
X8.5261Y-5.1697
T7
X3.2476Y-3.2846
X3.2476Y-3.3846
X3.421Y-3.2846
X3.421Y-3.3846
X3.5944Y-3.2846
X3.5944Y-3.3846
X3.7677Y-3.2846
X3.7677Y-3.3846
X8.4539Y-5.9449
X8.5261Y-3.5889
X8.5261Y-3.6889
X8.5261Y-3.9196
X8.5261Y-4.0196
X8.5261Y-4.1196
X8.5261Y-4.2196
X8.5261Y-4.3196
X8.5261Y-4.4196
X8.5539Y-5.9449
X8.648Y-2.6456
X8.648Y-2.9016
X8.7913Y-3.5889
X8.7913Y-3.6889
X8.7913Y-3.9196
X8.7913Y-4.0196
X8.7913Y-4.1196
X8.7913Y-4.2196
X8.7913Y-4.3196
X8.7913Y-4.4196
X8.7913Y-4.6697
X8.7913Y-4.7697
X8.7913Y-4.8697
X8.7913Y-4.9697
X8.7913Y-5.0697
X8.7913Y-5.1697
X8.826Y-2.6456
X8.826Y-2.9016
T8
X2.815Y-2.311
X2.815Y-5.9646
X8.8307Y-2.311
X8.8307Y-5.9646
T0
M30
