M48
; DRILL file {KiCad 7.0.9} date Sunday, March 17, 2024 at 01:34:10 PM
; FORMAT={-:-/ absolute / inch / decimal}
; #@! TF.CreationDate,2024-03-17T13:34:10+00:00
; #@! TF.GenerationSoftware,Kicad,Pcbnew,7.0.9
; #@! TF.FileFunction,Plated,1,4,PTH
FMAT,2
INCH
; #@! TA.AperFunction,Plated,PTH,ViaDrill
T1C0.0157
; #@! TA.AperFunction,Plated,PTH,ComponentDrill
T2C0.0276
; #@! TA.AperFunction,Plated,PTH,ComponentDrill
T3C0.0300
; #@! TA.AperFunction,Plated,PTH,ComponentDrill
T4C0.0315
; #@! TA.AperFunction,Plated,PTH,ComponentDrill
T5C0.0320
; #@! TA.AperFunction,Plated,PTH,ComponentDrill
T6C0.0394
; #@! TA.AperFunction,Plated,PTH,ComponentDrill
T7C0.0400
; #@! TA.AperFunction,Plated,PTH,ComponentDrill
T8C0.1260
%
G90
G05
T1
X2.8053Y-5.0519
X3.0237Y-4.1228
X3.2574Y-3.7374
X3.2952Y-3.6931
X3.3362Y-2.6712
X3.448Y-2.7717
X3.5419Y-2.8287
X3.6527Y-4.5792
X3.6625Y-4.0829
X3.6814Y-2.9179
X3.811Y-2.8903
X3.8638Y-3.1984
X3.8919Y-3.9437
X3.932Y-3.4471
X3.9726Y-3.7434
X3.9958Y-4.0311
X4.0009Y-2.9929
X4.0714Y-3.3964
X4.0775Y-3.6497
X4.1089Y-5.2367
X4.1095Y-5.171
X4.1234Y-3.7676
X4.1317Y-5.075
X4.1489Y-3.9907
X4.2624Y-5.0718
X4.2837Y-2.5047
X4.2916Y-5.0267
X4.3361Y-4.6611
X4.3944Y-3.0855
X4.4252Y-3.2927
X4.4789Y-3.4076
X4.4803Y-3.1633
X4.507Y-5.3679
X4.5519Y-3.2348
X4.5625Y-3.7376
X4.5663Y-3.318
X4.57Y-4.9747
X4.6081Y-5.2271
X4.6241Y-5.7672
X4.6332Y-5.5556
X4.6706Y-5.6597
X4.6897Y-3.7676
X4.6972Y-3.7013
X4.7093Y-4.8418
X4.7225Y-3.9173
X4.7429Y-5.1046
X4.7438Y-4.4507
X4.7457Y-4.2448
X4.7459Y-5.7404
X4.7742Y-3.1075
X4.7841Y-3.9594
X4.7952Y-3.6009
X4.8698Y-5.8278
X4.8999Y-4.7454
X4.9141Y-5.7808
X4.9746Y-4.0381
X4.9994Y-3.9594
X5.045Y-3.7673
X5.0767Y-4.7583
X5.1521Y-4.443
X5.1534Y-3.7425
X5.2075Y-4.7483
X5.2171Y-3.8817
X5.2746Y-2.4268
X5.2839Y-3.816
X5.3832Y-3.0619
X5.4137Y-5.362
X5.4729Y-5.6365
X5.495Y-2.8094
X5.7961Y-5.0692
X5.8005Y-2.8168
X5.9958Y-3.4168
X6.0441Y-4.2694
X6.0622Y-2.4903
X6.0711Y-5.3986
X6.1841Y-5.0615
X6.2073Y-4.8656
X6.4095Y-3.671
X6.4316Y-2.5678
X6.4517Y-2.5994
X6.54Y-2.4836
X6.551Y-2.7126
X6.597Y-2.4932
X6.6238Y-3.7874
X6.6265Y-2.4653
X6.6553Y-2.5657
X6.7626Y-2.7028
X6.7765Y-4.7452
X6.7902Y-3.2381
X6.8425Y-4.0677
X7.0674Y-2.3452
X7.1447Y-3.9991
X7.2399Y-3.0024
X7.2433Y-3.3665
X7.4226Y-3.3653
X7.4543Y-5.7358
X7.4543Y-5.7803
X7.4675Y-2.5538
X7.6717Y-3.4831
X7.6806Y-4.7377
X7.7256Y-3.1293
X7.842Y-3.1325
X7.885Y-3.268
X7.9061Y-2.6917
X7.934Y-5.0078
X7.9562Y-3.6695
X8.01Y-2.8518
X8.0365Y-3.2413
X8.0996Y-4.4947
T2
X4.1311Y-2.4575
X4.1311Y-2.5575
X4.1311Y-2.6575
X4.1311Y-2.7575
X4.1311Y-2.8575
X4.1311Y-2.9575
X4.1311Y-3.0575
X4.1311Y-3.1575
X4.1311Y-3.2575
X4.1311Y-3.3575
X4.1311Y-3.4575
X4.1311Y-3.5575
X4.1311Y-3.6575
X4.2311Y-2.4575
X4.2311Y-2.5575
X4.2311Y-2.6575
X4.2311Y-2.7575
X4.2311Y-2.8575
X4.2311Y-2.9575
X4.2311Y-3.0575
X4.2311Y-3.1575
X4.2311Y-3.2575
X4.2311Y-3.3575
X4.2311Y-3.4575
X4.2311Y-3.5575
X4.2311Y-3.6575
X4.3311Y-2.4575
X4.3311Y-2.5575
X4.3311Y-2.6575
X4.3311Y-2.7575
X4.3311Y-2.8575
X4.3311Y-2.9575
X4.3311Y-3.0575
X4.3311Y-3.1575
X4.3311Y-3.2575
X4.3311Y-3.3575
X4.3311Y-3.4575
X4.3311Y-3.5575
X4.3311Y-3.6575
X4.4311Y-2.4575
X4.4311Y-2.5575
X4.4311Y-2.6575
X4.4311Y-3.4575
X4.4311Y-3.5575
X4.4311Y-3.6575
X4.5311Y-2.4575
X4.5311Y-2.5575
X4.5311Y-2.6575
X4.5311Y-3.3575
X4.5311Y-3.4575
X4.5311Y-3.5575
X4.5311Y-3.6575
X4.6311Y-2.4575
X4.6311Y-2.5575
X4.6311Y-2.6575
X4.6311Y-3.4575
X4.6311Y-3.5575
X4.6311Y-3.6575
X4.7311Y-2.4575
X4.7311Y-2.5575
X4.7311Y-2.6575
X4.7311Y-3.4575
X4.7311Y-3.5575
X4.7311Y-3.6575
X4.8311Y-2.4575
X4.8311Y-2.5575
X4.8311Y-2.6575
X4.8311Y-3.4575
X4.8311Y-3.5575
X4.8311Y-3.6575
X4.9311Y-2.4575
X4.9311Y-2.5575
X4.9311Y-2.6575
X4.9311Y-3.4575
X4.9311Y-3.5575
X4.9311Y-3.6575
X5.0311Y-2.4575
X5.0311Y-2.5575
X5.0311Y-2.6575
X5.0311Y-2.9575
X5.0311Y-3.3575
X5.0311Y-3.4575
X5.0311Y-3.5575
X5.0311Y-3.6575
X5.1311Y-2.4575
X5.1311Y-2.5575
X5.1311Y-2.6575
X5.1311Y-2.8575
X5.1311Y-2.9575
X5.1311Y-3.0575
X5.1311Y-3.1575
X5.1311Y-3.2575
X5.1311Y-3.4575
X5.1311Y-3.5575
X5.1311Y-3.6575
X5.2311Y-2.4575
X5.2311Y-2.5575
X5.2311Y-2.6575
X5.2311Y-2.7575
X5.2311Y-2.8575
X5.2311Y-2.9575
X5.2311Y-3.0575
X5.2311Y-3.1575
X5.2311Y-3.2575
X5.2311Y-3.3575
X5.2311Y-3.4575
X5.2311Y-3.5575
X5.2311Y-3.6575
X5.3311Y-2.4575
X5.3311Y-2.5575
X5.3311Y-2.6575
X5.3311Y-2.7575
X5.3311Y-2.8575
X5.3311Y-2.9575
X5.3311Y-3.0575
X5.3311Y-3.1575
X5.3311Y-3.2575
X5.3311Y-3.3575
X5.3311Y-3.4575
X5.3311Y-3.5575
X5.3311Y-3.6575
T3
X4.4311Y-2.7575
X4.4311Y-2.9575
X4.4311Y-3.3575
X4.5311Y-2.7575
X5.0311Y-2.7575
X5.1311Y-2.7575
X5.1311Y-3.3575
T4
X3.1295Y-3.0496
X3.2295Y-3.0496
X3.3295Y-3.0496
X3.4168Y-3.837
X3.4168Y-4.137
X3.4295Y-3.0496
X3.4331Y-4.4025
X3.4331Y-4.5025
X3.4331Y-4.6025
X3.4331Y-4.7025
X3.4331Y-4.8025
X3.4331Y-4.9025
X3.4331Y-5.0025
X3.4331Y-5.1025
X3.4331Y-5.2025
X3.4331Y-5.3025
X3.4331Y-5.4025
X3.4331Y-5.5025
X3.4331Y-5.6025
X3.4331Y-5.7025
X3.4331Y-5.8025
X3.4331Y-5.9025
X3.5168Y-3.837
X3.5168Y-4.137
X3.5295Y-3.0496
X3.6168Y-3.837
X3.6168Y-4.137
X3.6295Y-3.0496
X3.7168Y-3.837
X3.7168Y-4.137
X3.7295Y-3.0496
X3.8168Y-3.837
X3.8168Y-4.137
X3.8295Y-3.0496
X3.9168Y-3.837
X3.9168Y-4.137
X3.9295Y-3.0496
X4.0168Y-3.837
X4.0168Y-4.137
X4.0331Y-4.4025
X4.0331Y-4.5025
X4.0331Y-4.6025
X4.0331Y-4.7025
X4.0331Y-4.8025
X4.0331Y-4.9025
X4.0331Y-5.0025
X4.0331Y-5.1025
X4.0331Y-5.2025
X4.0331Y-5.3025
X4.0331Y-5.4025
X4.0331Y-5.5025
X4.0331Y-5.6025
X4.0331Y-5.7025
X4.0331Y-5.8025
X4.0331Y-5.9025
X4.1168Y-3.837
X4.1168Y-4.137
X4.2168Y-3.837
X4.2168Y-4.137
X4.3168Y-3.837
X4.3168Y-4.137
X4.3594Y-2.29
X4.3858Y-4.4025
X4.3858Y-4.5025
X4.3858Y-4.6025
X4.3858Y-4.7025
X4.3858Y-4.8025
X4.3858Y-4.9025
X4.3858Y-5.0025
X4.3858Y-5.1025
X4.3858Y-5.2025
X4.3858Y-5.3025
X4.3858Y-5.4025
X4.3858Y-5.5025
X4.3858Y-5.6025
X4.3858Y-5.7025
X4.3858Y-5.8025
X4.3858Y-5.9025
X4.4168Y-3.837
X4.4168Y-4.137
X4.4594Y-2.29
X4.5168Y-3.837
X4.5168Y-4.137
X4.5594Y-2.29
X4.6594Y-2.29
X4.7594Y-2.29
X4.8594Y-2.29
X4.9594Y-2.29
X4.9858Y-4.4025
X4.9858Y-4.5025
X4.9858Y-4.6025
X4.9858Y-4.7025
X4.9858Y-4.8025
X4.9858Y-4.9025
X4.9858Y-5.0025
X4.9858Y-5.1025
X4.9858Y-5.2025
X4.9858Y-5.3025
X4.9858Y-5.4025
X4.9858Y-5.5025
X4.9858Y-5.6025
X4.9858Y-5.7025
X4.9858Y-5.8025
X4.9858Y-5.9025
X5.0594Y-2.29
X5.1594Y-2.29
X5.3386Y-4.4025
X5.3386Y-4.5025
X5.3386Y-4.6025
X5.3386Y-4.7025
X5.3386Y-4.8025
X5.3386Y-4.9025
X5.3386Y-5.0025
X5.3386Y-5.1025
X5.3386Y-5.2025
X5.3386Y-5.3025
X5.3386Y-5.4025
X5.3386Y-5.5025
X5.3386Y-5.6025
X5.3386Y-5.7025
X5.3386Y-5.8025
X5.3386Y-5.9025
X5.5902Y-2.8461
X5.5902Y-3.1461
X5.5994Y-3.638
X5.5994Y-3.938
X5.6994Y-3.638
X5.6994Y-3.938
X5.7569Y-3.3425
X5.7569Y-3.4764
X5.7994Y-3.638
X5.7994Y-3.938
X5.8569Y-3.3425
X5.8569Y-3.4764
X5.8902Y-2.8461
X5.8902Y-3.1461
X5.8994Y-3.638
X5.8994Y-3.938
X5.9386Y-4.4025
X5.9386Y-4.5025
X5.9386Y-4.6025
X5.9386Y-4.7025
X5.9386Y-4.8025
X5.9386Y-4.9025
X5.9386Y-5.0025
X5.9386Y-5.1025
X5.9386Y-5.2025
X5.9386Y-5.3025
X5.9386Y-5.4025
X5.9386Y-5.5025
X5.9386Y-5.6025
X5.9386Y-5.7025
X5.9386Y-5.8025
X5.9386Y-5.9025
X5.9569Y-3.3425
X5.9569Y-3.4764
X5.9994Y-3.638
X5.9994Y-3.938
X6.0569Y-3.3425
X6.0569Y-3.4764
X6.0994Y-3.638
X6.0994Y-3.938
X6.1569Y-3.3425
X6.1569Y-3.4764
X6.1994Y-3.638
X6.1994Y-3.938
X6.2569Y-3.3425
X6.2569Y-3.4764
X6.2913Y-4.4025
X6.2913Y-4.5025
X6.2913Y-4.6025
X6.2913Y-4.7025
X6.2913Y-4.8025
X6.2913Y-4.9025
X6.2913Y-5.0025
X6.2913Y-5.1025
X6.2913Y-5.2025
X6.2913Y-5.3025
X6.2913Y-5.4025
X6.2913Y-5.5025
X6.2913Y-5.6025
X6.2913Y-5.7025
X6.2913Y-5.8025
X6.2913Y-5.9025
X6.2994Y-3.638
X6.2994Y-3.938
X6.3569Y-3.3425
X6.3569Y-3.4764
X6.4569Y-3.3425
X6.4569Y-3.4764
X6.5569Y-3.3425
X6.5569Y-3.4764
X6.8681Y-2.2963
X6.8681Y-2.3963
X6.8681Y-2.4963
X6.8681Y-2.5963
X6.8681Y-2.6963
X6.8681Y-2.7963
X6.8681Y-2.8963
X6.8681Y-2.9963
X6.8681Y-3.0963
X6.8681Y-3.1963
X6.8681Y-3.2963
X6.8681Y-3.3963
X6.8913Y-4.4025
X6.8913Y-4.5025
X6.8913Y-4.6025
X6.8913Y-4.7025
X6.8913Y-4.8025
X6.8913Y-4.9025
X6.8913Y-5.0025
X6.8913Y-5.1025
X6.8913Y-5.2025
X6.8913Y-5.3025
X6.8913Y-5.4025
X6.8913Y-5.5025
X6.8913Y-5.6025
X6.8913Y-5.7025
X6.8913Y-5.8025
X6.8913Y-5.9025
X7.1681Y-2.2963
X7.1681Y-2.3963
X7.1681Y-2.4963
X7.1681Y-2.5963
X7.1681Y-2.6963
X7.1681Y-2.7963
X7.1681Y-2.8963
X7.1681Y-2.9963
X7.1681Y-3.0963
X7.1681Y-3.1963
X7.1681Y-3.2963
X7.1681Y-3.3963
X7.2572Y-4.4322
X7.2572Y-4.5322
X7.2572Y-4.6322
X7.2572Y-4.7322
X7.2572Y-4.8322
X7.2572Y-4.9322
X7.3259Y-2.2963
X7.3259Y-2.3963
X7.3259Y-2.4963
X7.3259Y-2.5963
X7.3259Y-2.6963
X7.3259Y-2.7963
X7.3259Y-2.8963
X7.3259Y-2.9963
X7.3259Y-3.0963
X7.3259Y-3.1963
X7.3259Y-3.2963
X7.3259Y-3.3963
X7.3572Y-4.3322
X7.3572Y-4.4322
X7.3572Y-4.5322
X7.3572Y-4.6322
X7.3572Y-4.7322
X7.3572Y-4.8322
X7.3572Y-4.9322
X7.3572Y-5.0322
X7.4572Y-4.3322
X7.4572Y-4.4322
X7.4572Y-4.9322
X7.4572Y-5.0322
X7.5095Y-5.3361
X7.5572Y-4.3322
X7.5572Y-4.4322
X7.5572Y-4.9322
X7.5572Y-5.0322
X7.6259Y-2.2963
X7.6259Y-2.3963
X7.6259Y-2.4963
X7.6259Y-2.5963
X7.6259Y-2.6963
X7.6259Y-2.7963
X7.6259Y-2.8963
X7.6259Y-2.9963
X7.6259Y-3.0963
X7.6259Y-3.1963
X7.6259Y-3.2963
X7.6259Y-3.3963
X7.6572Y-4.3322
X7.6572Y-4.4322
X7.6572Y-4.9322
X7.6572Y-5.0322
X7.7016Y-5.3361
X7.7572Y-4.3322
X7.7572Y-4.4322
X7.7572Y-4.9322
X7.7572Y-5.0322
X7.7836Y-2.2963
X7.7836Y-2.3963
X7.7836Y-2.4963
X7.7836Y-2.5963
X7.7836Y-2.6963
X7.7836Y-2.7963
X7.7836Y-2.8963
X7.7836Y-2.9963
X7.7836Y-3.0963
X7.7836Y-3.1963
X7.7836Y-3.2963
X7.7836Y-3.3963
X7.8572Y-4.3322
X7.8572Y-4.4322
X7.8572Y-4.5322
X7.8572Y-4.6322
X7.8572Y-4.7322
X7.8572Y-4.8322
X7.8572Y-4.9322
X7.8572Y-5.0322
X7.9572Y-4.4322
X7.9572Y-4.5322
X7.9572Y-4.6322
X7.9572Y-4.7322
X7.9572Y-4.8322
X7.9572Y-4.9322
X8.0836Y-2.2963
X8.0836Y-2.3963
X8.0836Y-2.4963
X8.0836Y-2.5963
X8.0836Y-2.6963
X8.0836Y-2.7963
X8.0836Y-2.8963
X8.0836Y-2.9963
X8.0836Y-3.0963
X8.0836Y-3.1963
X8.0836Y-3.2963
X8.0836Y-3.3963
X8.2374Y-3.0994
X8.2374Y-3.1994
X8.2374Y-3.2994
X8.2374Y-3.3994
X8.5374Y-3.0994
X8.5374Y-3.1994
X8.5374Y-3.2994
X8.5374Y-3.3994
T5
X3.3699Y-2.5511
X3.3699Y-3.6411
X3.4699Y-3.6411
X3.7402Y-4.2753
X3.7699Y-2.5511
X3.9488Y-2.4382
X3.9488Y-2.5382
X3.9488Y-3.2256
X3.9488Y-3.3256
X4.1402Y-4.2753
X4.1639Y-5.3021
X4.2639Y-5.3021
X4.7846Y-3.8701
X4.8846Y-3.8701
X4.9114Y-4.1272
X4.9114Y-4.2272
X5.0327Y-3.8701
X5.111Y-4.1072
X5.1123Y-5.9552
X5.1327Y-3.8701
X5.2123Y-5.9552
X5.2807Y-3.8701
X5.29Y-2.29
X5.3807Y-3.8701
X5.39Y-2.29
X5.5Y-3.2961
X5.5Y-3.6961
X5.511Y-4.1072
X5.6091Y-2.3579
X5.6091Y-2.6579
X5.7091Y-2.3579
X5.7091Y-2.6579
X5.7145Y-4.1316
X5.8091Y-2.3579
X5.8091Y-2.6579
X5.8145Y-4.1316
X5.9091Y-2.3579
X5.9091Y-2.6579
X6.0091Y-2.3579
X6.0091Y-2.6579
X6.0535Y-2.8551
X6.0642Y-5.9552
X6.1091Y-2.3579
X6.1091Y-2.6579
X6.1642Y-5.9552
X6.2091Y-2.3579
X6.2091Y-2.6579
X6.2913Y-4.174
X6.2913Y-4.274
X6.3091Y-2.3579
X6.3091Y-2.6579
X6.4091Y-2.3579
X6.4091Y-2.6579
X6.4368Y-3.7374
X6.4368Y-3.8374
X6.4535Y-2.8551
X6.5091Y-2.3579
X6.5091Y-2.6579
X6.6357Y-2.2953
X6.7143Y-2.4677
X6.7143Y-2.5677
X6.7146Y-2.6697
X6.7146Y-2.7697
X6.7146Y-3.0001
X6.7146Y-3.1001
X6.7146Y-3.3102
X6.7146Y-3.4102
X6.7357Y-2.2953
X6.9161Y-6.0417
X7.0272Y-4.3665
X7.0272Y-4.7665
X7.0309Y-5.7378
X7.0309Y-5.8378
X7.044Y-5.0166
X7.044Y-5.1166
X7.0469Y-5.5071
X7.0974Y-5.3361
X7.1469Y-5.5071
X7.1956Y-5.7813
X7.1974Y-5.3361
X7.2956Y-5.7813
X7.2974Y-5.3361
X7.3161Y-6.0417
X7.4035Y-6.0417
X7.5083Y-3.5055
X7.5083Y-3.6055
X7.5909Y-5.7764
X7.6259Y-3.5159
X7.6259Y-3.9159
X7.6909Y-5.7764
X7.7193Y-4.132
X7.7836Y-3.5159
X7.7836Y-3.9159
X7.8035Y-6.0417
X7.8193Y-4.132
X7.8905Y-3.5405
X7.911Y-5.3361
X7.9313Y-4.132
X7.9905Y-3.5405
X8.011Y-5.3361
X8.0313Y-4.132
X8.111Y-5.3361
X8.2262Y-4.3424
X8.2262Y-4.698
X8.2262Y-5.0537
X8.2307Y-2.3988
X8.2374Y-2.5768
X8.2374Y-2.9768
X8.2426Y-3.5178
X8.2426Y-3.9178
X8.3262Y-4.3424
X8.3262Y-4.698
X8.3262Y-5.0537
X8.3307Y-2.3988
X8.3889Y-2.5768
X8.3889Y-2.9768
X8.43Y-5.624
X8.4906Y-2.3953
X8.5374Y-2.5768
X8.5374Y-2.9768
X8.57Y-5.624
X8.5906Y-2.3953
X8.7189Y-3.1309
X8.7189Y-3.3898
X8.7399Y-5.3711
X8.7797Y-5.627
X8.8189Y-3.1309
X8.8189Y-3.3898
X8.8399Y-5.3711
X8.8797Y-5.627
T6
X2.8868Y-2.5728
X2.8868Y-2.6728
X2.8868Y-2.7728
X2.8868Y-2.8728
X2.8868Y-2.9728
X2.8868Y-3.0728
X2.8868Y-3.1728
X2.8868Y-3.2728
X2.8868Y-3.3728
X2.8868Y-3.4728
X2.8868Y-3.5728
X2.8868Y-3.6728
X2.8868Y-3.7728
X2.8868Y-3.8728
X2.8868Y-3.9728
X2.8868Y-4.0728
X2.8868Y-4.1728
X2.8868Y-4.2728
X2.8868Y-4.3728
X2.8868Y-4.4728
X2.8868Y-4.5728
X2.8868Y-4.6728
X2.8868Y-4.7728
X2.8868Y-4.8728
X2.8868Y-4.9728
X2.8868Y-5.0728
X2.8868Y-5.1728
X2.8868Y-5.2728
X2.8868Y-5.3728
X2.8868Y-5.4728
X2.8868Y-5.5728
X2.8868Y-5.6728
X2.9868Y-2.5728
X2.9868Y-2.6728
X2.9868Y-2.7728
X2.9868Y-2.8728
X2.9868Y-2.9728
X2.9868Y-3.0728
X2.9868Y-3.1728
X2.9868Y-3.2728
X2.9868Y-3.3728
X2.9868Y-3.4728
X2.9868Y-3.5728
X2.9868Y-3.6728
X2.9868Y-3.7728
X2.9868Y-3.8728
X2.9868Y-3.9728
X2.9868Y-4.0728
X2.9868Y-4.1728
X2.9868Y-4.2728
X2.9868Y-4.3728
X2.9868Y-4.4728
X2.9868Y-4.5728
X2.9868Y-4.6728
X2.9868Y-4.7728
X2.9868Y-4.8728
X2.9868Y-4.9728
X2.9868Y-5.0728
X2.9868Y-5.1728
X2.9868Y-5.2728
X2.9868Y-5.3728
X2.9868Y-5.4728
X2.9868Y-5.5728
X2.9868Y-5.6728
X3.0868Y-2.5728
X3.0868Y-2.6728
X3.0868Y-2.7728
X3.0868Y-2.8728
X4.2115Y-4.4089
X4.2115Y-4.5089
X4.2115Y-4.6089
X4.2115Y-4.7089
X4.2115Y-4.8089
X8.5261Y-5.1697
T7
X3.2476Y-3.2846
X3.2476Y-3.3846
X3.421Y-3.2846
X3.421Y-3.3846
X3.5944Y-3.2846
X3.5944Y-3.3846
X3.7677Y-3.2846
X3.7677Y-3.3846
X8.4539Y-5.9449
X8.5261Y-3.5889
X8.5261Y-3.6889
X8.5261Y-3.9196
X8.5261Y-4.0196
X8.5261Y-4.1196
X8.5261Y-4.2196
X8.5261Y-4.3196
X8.5261Y-4.4196
X8.5539Y-5.9449
X8.648Y-2.6456
X8.648Y-2.9016
X8.7913Y-3.5889
X8.7913Y-3.6889
X8.7913Y-3.9196
X8.7913Y-4.0196
X8.7913Y-4.1196
X8.7913Y-4.2196
X8.7913Y-4.3196
X8.7913Y-4.4196
X8.7913Y-4.6697
X8.7913Y-4.7697
X8.7913Y-4.8697
X8.7913Y-4.9697
X8.7913Y-5.0697
X8.7913Y-5.1697
X8.826Y-2.6456
X8.826Y-2.9016
T8
X2.815Y-2.311
X2.815Y-5.9646
X8.8307Y-2.311
X8.8307Y-5.9646
T6
G00X7.9926Y-5.5575
M15
G01X8.0714Y-5.5575
M16
G05
G00X7.9926Y-5.7937
M15
G01X8.0714Y-5.7937
M16
G05
G00X8.217Y-5.715
M15
G01X8.217Y-5.6362
M16
G05
T0
M30
